<svg width="120" height="100" viewBox="0 0 120 100" fill="none" xmlns="http://www.w3.org/2000/svg">
<g filter="url(#filter0_d)">
<path d="M31.1703 11.9831H93.6714C97.0327 11.9831 99.8034 14.7528 99.8034 18.1128V48.7616C99.8034 52.1216 97.0327 54.8913 93.6714 54.8913H72.005L62.3755 64.5173L52.7459 54.8913H31.1249C27.7637 54.8913 24.9929 52.1216 24.9929 48.7616V18.1128C25.0383 14.7528 27.7637 11.9831 31.1703 11.9831Z" fill="#4B6FB5"/>
<path d="M31.1703 11.9831H93.6714C97.0327 11.9831 99.8034 14.7528 99.8034 18.1128V48.7616C99.8034 52.1216 97.0327 54.8913 93.6714 54.8913H72.005L62.3755 64.5173L52.7459 54.8913H31.1249C27.7637 54.8913 24.9929 52.1216 24.9929 48.7616V18.1128C25.0383 14.7528 27.7637 11.9831 31.1703 11.9831Z" fill="#9CA3AD"/>
<path d="M35.1675 22.608V44.2664C35.1675 46.0372 36.5756 47.4902 38.3016 47.4902H86.5401C88.2661 47.4902 89.6742 46.0372 89.6742 44.2664V22.608C89.6742 22.1993 89.5834 21.7907 89.4471 21.4274C88.9929 20.2469 87.8573 19.4296 86.5401 19.4296H38.3016C36.9844 19.4296 35.8488 20.2469 35.3946 21.4274C35.2583 21.7907 35.1675 22.1993 35.1675 22.608Z" fill="white"/>
<path d="M35.3948 21.4274L58.6964 31.5983C61.0584 32.6426 63.7383 32.6426 66.1002 31.5983L89.4019 21.4729C88.9477 20.2923 87.8121 19.475 86.4949 19.475H38.3018C36.9845 19.4296 35.849 20.2469 35.3948 21.4274Z" fill="#EEEEF2"/>
<path d="M29.8531 24.0155C34.9957 24.0155 39.1646 19.8481 39.1646 14.7074C39.1646 9.56663 34.9957 5.39923 29.8531 5.39923C24.7104 5.39923 20.5415 9.56663 20.5415 14.7074C20.5415 19.8481 24.7104 24.0155 29.8531 24.0155Z" fill="#F3995C"/>
<path d="M31.6246 20.3831H29.4444V12.2101C28.6722 12.9366 27.7183 13.4815 26.6282 13.8447V11.8923C27.1732 11.7106 27.8092 11.3474 28.4905 10.8479C29.1718 10.3485 29.6261 9.71279 29.8532 9.03171H31.6246V20.3831Z" fill="white"/>
</g>
<defs>
<filter id="filter0_d" x="0.541504" y="0.399231" width="119.262" height="99.1181" filterUnits="userSpaceOnUse" color-interpolation-filters="sRGB">
<feFlood flood-opacity="0" result="BackgroundImageFix"/>
<feColorMatrix in="SourceAlpha" type="matrix" values="0 0 0 0 0 0 0 0 0 0 0 0 0 0 0 0 0 0 127 0"/>
<feOffset dy="15"/>
<feGaussianBlur stdDeviation="10"/>
<feColorMatrix type="matrix" values="0 0 0 0 0 0 0 0 0 0 0 0 0 0 0 0 0 0 0.05 0"/>
<feBlend mode="normal" in2="BackgroundImageFix" result="effect1_dropShadow"/>
<feBlend mode="normal" in="SourceGraphic" in2="effect1_dropShadow" result="shape"/>
</filter>
</defs>
</svg>
