<svg width="445" height="444" viewBox="0 0 445 444" fill="none" xmlns="http://www.w3.org/2000/svg">
<path d="M319.005 9.83051C247.93 -9.72033 189.833 7.48441 172.258 58.7467C154.644 110.165 169.129 162.562 105.316 183.716C53.0139 200.568 -8.36566 230.286 0.943629 313.533C9.78939 392.519 57.8037 407.064 119.299 410.271C184.735 413.712 254.883 357.875 315.799 385.128C372.35 410.427 436.163 416.058 444.545 342.938C449.451 300.121 413.218 285.81 406.342 252.456C396.801 206.238 415.883 188.916 421.639 158.026C435.892 81.2693 387.144 31.6101 319.005 9.83051Z" fill="#FAFAFA"/>
<path d="M266.269 400.568H124.688C109.062 400.568 96.3441 387.9 96.3441 372.235V28.3331C96.3441 12.6682 109.062 0 124.688 0H266.223C281.849 0 294.567 12.6682 294.567 28.3331V372.235C294.567 387.9 281.894 400.568 266.269 400.568Z" fill="#616C7D"/>
<path d="M124.688 395.119C112.06 395.119 101.84 384.858 101.84 372.28V28.333C101.84 15.7103 112.106 5.49405 124.688 5.49405H266.223C278.851 5.49405 289.071 15.7557 289.071 28.333V372.235C289.071 384.857 278.805 395.074 266.223 395.074H124.688V395.119Z" fill="#A8B1C2"/>
<path d="M283.211 28.5601V368.648C283.211 379.591 274.354 388.445 263.407 388.445H127.595C116.648 388.445 107.791 379.591 107.791 368.648V28.5601C107.791 17.6174 116.648 8.76328 127.595 8.76328H142.766C145.764 8.76328 148.216 11.2152 148.216 14.2119C148.216 20.1601 153.031 24.9731 158.981 24.9731H232.021C237.971 24.9731 242.786 20.1601 242.786 14.2119C242.786 11.2152 245.238 8.76328 248.236 8.76328H263.407C274.309 8.76328 283.211 17.6174 283.211 28.5601Z" fill="white"/>
<path d="M96.0262 89.0403H94.2093C93.6188 89.0403 93.1646 88.5862 93.1646 87.996V76.4176C93.1646 75.8273 93.6188 75.3732 94.2093 75.3732H96.0262V89.0403Z" fill="#EEEEF2"/>
<path d="M95.9807 126.227H94.1639C93.5734 126.227 93.1191 125.773 93.1191 125.183V101.027C93.1191 100.437 93.5734 99.9831 94.1639 99.9831H95.9807V126.227Z" fill="#EEEEF2"/>
<path d="M95.9807 170.271H94.1639C93.5734 170.271 93.1191 169.817 93.1191 169.227V145.071C93.1191 144.481 93.5734 144.026 94.1639 144.026H95.9807V170.271Z" fill="#EEEEF2"/>
<path d="M227.796 18.4347C229.326 18.4347 230.567 17.1946 230.567 15.665C230.567 14.1353 229.326 12.8952 227.796 12.8952C226.266 12.8952 225.025 14.1353 225.025 15.665C225.025 17.1946 226.266 18.4347 227.796 18.4347Z" fill="#616C7D"/>
<path d="M213.079 17.8444H171.609C170.519 17.8444 169.61 16.9363 169.61 15.8466C169.61 14.7568 170.519 13.8487 171.609 13.8487H213.079C214.17 13.8487 215.078 14.7568 215.078 15.8466C215.078 16.9363 214.17 17.8444 213.079 17.8444Z" fill="#616C7D"/>
<path opacity="0.2" d="M283.211 28.5601V368.648C283.211 379.591 274.354 388.445 263.407 388.445H127.595C116.648 388.445 107.791 379.591 107.791 368.648V28.5601C107.791 17.6174 116.648 8.76328 127.595 8.76328H142.766C145.764 8.76328 148.216 11.2152 148.216 14.2119C148.216 20.1601 153.031 24.9731 158.981 24.9731H232.021C237.971 24.9731 242.786 20.1601 242.786 14.2119C242.786 11.2152 245.238 8.76328 248.236 8.76328H263.407C274.309 8.76328 283.211 17.6174 283.211 28.5601Z" stroke="url(#paint0_linear)" stroke-width="0.9246" stroke-miterlimit="10"/>
<path d="M268.949 61.4792H117.693V78.2792H268.949V61.4792Z" fill="#EEEEF2"/>
<path d="M268.949 88.5408H117.693V188.933H268.949V88.5408Z" fill="#EEEEF2"/>
<path d="M256.685 367.513H130.002C123.234 367.513 117.738 362.019 117.738 355.253V355.026C117.738 348.261 123.234 342.767 130.002 342.767H256.685C263.453 342.767 268.949 348.261 268.949 355.026V355.253C268.949 362.064 263.453 367.513 256.685 367.513Z" fill="#9CA3AD"/>
<path d="M268.949 197.514H117.693V211.862H268.949V197.514Z" fill="#EEEEF2"/>
<path d="M268.949 220.262H117.693V237.062H268.949V220.262Z" fill="#EEEEF2"/>
<path d="M222.527 293.411C220.619 309.984 205.948 321.789 189.823 319.837C173.698 317.884 162.161 302.81 164.069 286.282C165.976 269.709 180.648 257.904 196.773 259.856C212.943 261.808 224.48 276.838 222.527 293.411Z" fill="#FCCC53"/>
<path d="M189.142 300.585C189.096 300.585 189.096 300.585 189.051 300.585C188.46 300.494 187.915 300.131 187.552 299.631L180.693 289.415C180.012 288.371 180.239 286.918 181.284 286.237C182.283 285.51 183.691 285.783 184.418 286.827L189.959 295.045L207.038 281.56C208.037 280.788 209.445 280.97 210.172 281.969C210.944 282.968 210.763 284.42 209.763 285.192L190.822 300.176C190.323 300.494 189.732 300.63 189.142 300.585Z" fill="white"/>
<path d="M100.841 83.1376C118.627 83.1376 133.045 68.7245 133.045 50.945C133.045 33.1656 118.627 18.7525 100.841 18.7525C83.0549 18.7525 68.6365 33.1656 68.6365 50.945C68.6365 68.7245 83.0549 83.1376 100.841 83.1376Z" fill="#EEEEF2"/>
<path d="M107.109 48.0845C109.698 46.1775 111.379 43.0899 111.379 39.5937C111.379 33.7363 106.655 29.0142 100.795 29.0142C94.9359 29.0142 90.212 33.7363 90.212 39.5937C90.212 43.0899 91.8926 46.1321 94.4817 48.0845C89.9394 50.4002 86.8053 55.1224 86.8053 60.571V69.4705H114.74V60.571C114.831 55.077 111.697 50.4002 107.109 48.0845Z" fill="white"/>
<g filter="url(#filter0_d)">
<path d="M379.825 165.412V401.204C379.825 405.926 376.009 409.74 371.285 409.74H253.687C248.963 409.74 245.147 405.926 245.147 401.204V165.412C245.147 160.69 248.963 156.876 253.687 156.876H371.285C376.009 156.876 379.825 160.69 379.825 165.412Z" fill="#FFFEFE" stroke="#606B7B" stroke-width="3" stroke-miterlimit="10"/>
<path d="M378.598 166.411V214.905H246.328V166.411C245.829 160.736 249.917 157.784 254.731 158.011H370.195C374.964 157.739 379.325 160.872 378.598 166.411Z" fill="#D7DCE6"/>
<path d="M277.761 202.509C287.87 202.509 296.066 194.316 296.066 184.21C296.066 174.104 287.87 165.912 277.761 165.912C267.651 165.912 259.455 174.104 259.455 184.21C259.455 194.316 267.651 202.509 277.761 202.509Z" fill="white"/>
<path d="M281.349 182.576C282.802 181.486 283.802 179.715 283.802 177.763C283.802 174.448 281.122 171.769 277.806 171.769C274.49 171.769 271.81 174.448 271.81 177.763C271.81 179.761 272.764 181.486 274.263 182.576C271.674 183.893 269.902 186.572 269.902 189.659V194.699H285.8V189.659C285.891 186.027 284.256 182.939 281.349 182.576Z" fill="#EEEEF2"/>
<path d="M313.781 189.387H352.344" stroke="white" stroke-miterlimit="10" stroke-linecap="round" stroke-linejoin="round"/>
<path d="M313.781 192.656H352.344" stroke="white" stroke-miterlimit="10" stroke-linecap="round" stroke-linejoin="round"/>
<path d="M313.781 195.925H333.085" stroke="white" stroke-miterlimit="10" stroke-linecap="round" stroke-linejoin="round"/>
<path d="M266.45 244.554H304.969" stroke="#616C7D" stroke-miterlimit="10"/>
<path d="M266.45 247.824H304.969" stroke="#616C7D" stroke-miterlimit="10"/>
<path d="M266.45 251.093H285.71" stroke="#616C7D" stroke-miterlimit="10"/>
<path d="M266.45 328.328H362.019" stroke="#616C7D" stroke-miterlimit="10"/>
<path d="M266.45 331.597H362.019" stroke="#616C7D" stroke-miterlimit="10"/>
<path d="M266.45 334.866H314.235" stroke="#616C7D" stroke-miterlimit="10"/>
<path d="M266.45 341.632H362.019" stroke="#616C7D" stroke-miterlimit="10"/>
<path d="M266.45 344.901H362.019" stroke="#616C7D" stroke-miterlimit="10"/>
<path d="M266.45 348.215H314.235" stroke="#616C7D" stroke-miterlimit="10"/>
<path d="M357.113 308.031H271.447C268.131 308.031 265.406 305.352 265.406 301.992V273.205C265.406 269.891 268.086 267.166 271.447 267.166H357.159C360.475 267.166 363.2 269.845 363.2 273.205V301.992C363.155 305.307 360.429 308.031 357.113 308.031Z" fill="#EEEEF2"/>
<path d="M333.721 369.465H294.749C291.751 369.465 289.298 367.013 289.298 364.016C289.298 361.02 291.751 358.568 294.749 358.568H333.721C336.719 358.568 339.172 361.02 339.172 364.016C339.172 367.013 336.719 369.465 333.721 369.465Z" fill="#9CA3AD"/>
</g>
<path d="M44.1094 286.784C44.3365 288.464 44.8361 290.099 45.5175 291.642L41.0661 294.276C42.6559 297.727 45.0632 300.724 48.0611 303.085L51.6041 299.316C52.9667 300.315 54.4202 301.178 56.0554 301.768L54.6928 306.762C56.4188 307.398 58.2811 307.852 60.1889 308.079C62.0966 308.306 64.0043 308.261 65.8667 308.079L65.685 302.948C67.3656 302.721 69.0008 302.222 70.5452 301.541L73.1342 305.991C76.5863 304.401 79.5842 301.995 81.9461 298.998L78.1761 295.456C79.1754 294.094 80.0384 292.641 80.6289 291.007L85.5799 292.323C86.2158 290.598 86.6701 288.736 86.8972 286.829C87.1243 284.922 87.0789 283.015 86.8972 281.154L81.7645 281.335C81.5373 279.655 81.0377 277.975 80.3564 276.477L84.8078 273.889C83.6722 270.62 81.9916 267.85 77.8127 265.08L74.2698 268.849C72.9071 267.85 71.4536 266.987 69.8184 266.397L71.1356 261.448C69.4096 260.812 67.5473 260.358 65.6395 260.131C63.7318 259.904 61.8241 259.949 59.9618 260.131L60.1434 265.262C58.4628 265.489 56.7822 265.988 55.2833 266.669L52.6942 262.22C49.2421 263.809 46.2442 266.215 43.8823 269.212L47.6523 272.754C46.653 274.116 45.79 275.569 45.1995 277.203L40.2485 275.887C39.6126 277.612 39.1583 279.474 38.9312 281.381C38.7041 283.288 38.7495 285.195 38.9312 287.056L44.1094 286.784ZM51.3769 282.743C52.1037 276.341 57.8723 271.755 64.2769 272.527C70.6814 273.253 75.2691 279.02 74.4969 285.422C73.7701 291.824 68.0015 296.41 61.597 295.638C55.2378 294.866 50.6502 289.1 51.3769 282.743Z" fill="white"/>
<path d="M62.9597 291.688C67.1741 291.688 70.5906 288.273 70.5906 284.06C70.5906 279.847 67.1741 276.432 62.9597 276.432C58.7452 276.432 55.3287 279.847 55.3287 284.06C55.3287 288.273 58.7452 291.688 62.9597 291.688Z" fill="white"/>
<path d="M347.211 69.8792C347.348 70.8327 347.62 71.7862 348.029 72.6489L345.485 74.1473C346.394 76.0997 347.756 77.8252 349.483 79.1873L351.481 77.0533C352.253 77.6435 353.116 78.0976 354.025 78.4608L353.253 81.3214C354.252 81.6846 355.297 81.9571 356.387 82.0479C357.477 82.1841 358.567 82.1841 359.612 82.0479L359.521 79.0965C360.475 78.9603 361.429 78.6879 362.292 78.2792L363.791 80.8219C365.744 79.9138 367.47 78.5516 368.832 76.8262L366.698 74.8284C367.288 74.0565 367.742 73.1938 368.106 72.2857L370.967 73.0576C371.331 72.0586 371.603 71.0143 371.694 69.9246C371.83 68.8349 371.83 67.7451 371.694 66.7008L368.742 66.7916C368.605 65.8381 368.333 64.8846 367.924 64.0219L370.468 62.5235C369.832 60.6619 368.832 59.0727 366.47 57.4835L364.472 59.6175C363.7 59.0273 362.837 58.5732 361.928 58.21L362.7 55.3494C361.701 54.9862 360.656 54.7137 359.566 54.6229C358.476 54.4867 357.386 54.4867 356.341 54.6229L356.432 57.5743C355.478 57.7105 354.524 57.9829 353.661 58.3916L352.162 55.8489C350.209 56.757 348.483 58.1191 347.121 59.8446L349.255 61.8424C348.665 62.6143 348.211 63.477 347.847 64.3851L344.986 63.6132C344.622 64.6121 344.35 65.6565 344.259 66.7462C344.123 67.8359 344.123 68.9257 344.259 69.97L347.211 69.8792ZM351.345 67.5635C351.754 63.9311 355.069 61.2975 358.703 61.7062C362.337 62.1148 364.972 65.4294 364.563 69.0619C364.154 72.6943 360.838 75.3279 357.204 74.9192C353.571 74.5105 350.936 71.2414 351.345 67.5635Z" fill="white"/>
<path d="M357.976 72.6944C360.385 72.6944 362.337 70.7428 362.337 68.3354C362.337 65.928 360.385 63.9765 357.976 63.9765C355.568 63.9765 353.616 65.928 353.616 68.3354C353.616 70.7428 355.568 72.6944 357.976 72.6944Z" fill="white"/>
<g filter="url(#filter1_d)">
<path d="M277.17 99.9831H339.671C343.033 99.9831 345.803 102.753 345.803 106.113V136.762C345.803 140.122 343.033 142.891 339.671 142.891H318.005L308.375 152.517L298.746 142.891H277.125C273.764 142.891 270.993 140.122 270.993 136.762V106.113C271.038 102.753 273.764 99.9831 277.17 99.9831Z" fill="#4B6FB5"/>
<path d="M277.17 99.9831H339.671C343.033 99.9831 345.803 102.753 345.803 106.113V136.762C345.803 140.122 343.033 142.891 339.671 142.891H318.005L308.375 152.517L298.746 142.891H277.125C273.764 142.891 270.993 140.122 270.993 136.762V106.113C271.038 102.753 273.764 99.9831 277.17 99.9831Z" fill="#9CA3AD"/>
<path d="M281.167 110.608V132.266C281.167 134.037 282.576 135.49 284.302 135.49H332.54C334.266 135.49 335.674 134.037 335.674 132.266V110.608C335.674 110.199 335.583 109.791 335.447 109.427C334.993 108.247 333.857 107.43 332.54 107.43H284.302C282.984 107.43 281.849 108.247 281.395 109.427C281.258 109.791 281.167 110.199 281.167 110.608Z" fill="white"/>
<path d="M281.395 109.427L304.696 119.598C307.058 120.643 309.738 120.643 312.1 119.598L335.402 109.473C334.948 108.292 333.812 107.475 332.495 107.475H284.302C282.985 107.43 281.849 108.247 281.395 109.427Z" fill="#EEEEF2"/>
<path d="M275.853 112.016C280.996 112.016 285.165 107.848 285.165 102.707C285.165 97.5666 280.996 93.3992 275.853 93.3992C270.71 93.3992 266.542 97.5666 266.542 102.707C266.542 107.848 270.71 112.016 275.853 112.016Z" fill="#F3995C"/>
<path d="M277.625 108.383H275.444V100.21C274.672 100.937 273.718 101.481 272.628 101.845V99.8923C273.173 99.7106 273.809 99.3474 274.491 98.8479C275.172 98.3485 275.626 97.7128 275.853 97.0317H277.625V108.383Z" fill="white"/>
</g>
<path d="M354.479 132.539C354.479 132.993 353.888 133.356 353.116 133.356C352.344 133.356 351.754 132.993 351.754 132.539V107.566C351.754 107.112 352.344 106.748 353.116 106.748C353.888 106.748 354.479 107.112 354.479 107.566V132.539Z" fill="white"/>
<path d="M360.384 129.905C360.384 130.223 359.93 130.541 359.339 130.541C358.749 130.541 358.294 130.269 358.294 129.905V110.608C358.294 110.29 358.749 109.972 359.339 109.972C359.93 109.972 360.384 110.245 360.384 110.608V129.905Z" fill="white"/>
<path d="M368.333 180.351L361.837 175.901C361.247 175.493 360.429 175.765 360.248 176.446C359.657 178.535 360.429 180.85 362.292 182.167C364.199 183.484 366.652 183.348 368.378 182.031C368.969 181.622 368.923 180.76 368.333 180.351Z" fill="#363B45"/>
<path d="M384.73 184.256L382.777 177.627L389.908 167.229C393.724 161.689 393.088 154.334 388.727 149.521L389.59 148.249C390.635 146.751 390.226 144.617 388.727 143.618C387.229 142.573 385.094 142.982 384.094 144.481L383.231 145.706C377.19 143.391 370.059 145.389 366.198 150.974L359.067 161.326L352.526 162.325C350.845 162.915 350.709 165.14 352.299 166.23L356.841 169.363L376.1 182.576L381.142 186.027C382.823 187.116 384.912 186.072 384.73 184.256Z" fill="#616C7D"/>
<g filter="url(#filter2_d)">
<g opacity="0.5">
<path d="M37.7493 189.977C37.7493 195.789 42.4732 200.511 48.2872 200.511H115.013C120.827 200.511 125.551 195.789 125.551 189.977V162.416C125.551 156.604 120.827 151.882 115.013 151.882H48.2872C42.4732 151.882 37.7493 156.604 37.7493 162.416V189.977Z" fill="#FCCC53"/>
<path d="M96.344 198.468L114.286 198.604L115.739 214.314L96.344 198.468Z" fill="#FCCC53"/>
</g>
<path d="M90.848 176.174C90.848 178.353 92.6195 180.124 94.7998 180.124C96.98 180.124 98.7515 178.353 98.7515 176.174C98.7515 173.994 96.98 172.223 94.7998 172.223C92.6195 172.223 90.848 173.994 90.848 176.174Z" fill="white"/>
<path d="M77.6755 176.174C77.6755 178.353 79.447 180.124 81.6273 180.124C83.8076 180.124 85.579 178.353 85.579 176.174C85.579 173.994 83.8076 172.223 81.6273 172.223C79.447 172.223 77.6755 173.994 77.6755 176.174Z" fill="white"/>
<path d="M64.5031 176.174C64.5031 178.353 66.2745 180.124 68.4548 180.124C70.6351 180.124 72.4065 178.353 72.4065 176.174C72.4065 173.994 70.6351 172.223 68.4548 172.223C66.2745 172.223 64.5031 173.994 64.5031 176.174Z" fill="white"/>
</g>
<defs>
<filter id="filter0_d" x="223.647" y="135.376" width="177.677" height="295.864" filterUnits="userSpaceOnUse" color-interpolation-filters="sRGB">
<feFlood flood-opacity="0" result="BackgroundImageFix"/>
<feColorMatrix in="SourceAlpha" type="matrix" values="0 0 0 0 0 0 0 0 0 0 0 0 0 0 0 0 0 0 127 0"/>
<feOffset/>
<feGaussianBlur stdDeviation="10"/>
<feColorMatrix type="matrix" values="0 0 0 0 0 0 0 0 0 0 0 0 0 0 0 0 0 0 0.1 0"/>
<feBlend mode="normal" in2="BackgroundImageFix" result="effect1_dropShadow"/>
<feBlend mode="normal" in="SourceGraphic" in2="effect1_dropShadow" result="shape"/>
</filter>
<filter id="filter1_d" x="246.542" y="88.3992" width="119.262" height="99.1181" filterUnits="userSpaceOnUse" color-interpolation-filters="sRGB">
<feFlood flood-opacity="0" result="BackgroundImageFix"/>
<feColorMatrix in="SourceAlpha" type="matrix" values="0 0 0 0 0 0 0 0 0 0 0 0 0 0 0 0 0 0 127 0"/>
<feOffset dy="15"/>
<feGaussianBlur stdDeviation="10"/>
<feColorMatrix type="matrix" values="0 0 0 0 0 0 0 0 0 0 0 0 0 0 0 0 0 0 0.05 0"/>
<feBlend mode="normal" in2="BackgroundImageFix" result="effect1_dropShadow"/>
<feBlend mode="normal" in="SourceGraphic" in2="effect1_dropShadow" result="shape"/>
</filter>
<filter id="filter2_d" x="17.7493" y="146.882" width="127.801" height="102.433" filterUnits="userSpaceOnUse" color-interpolation-filters="sRGB">
<feFlood flood-opacity="0" result="BackgroundImageFix"/>
<feColorMatrix in="SourceAlpha" type="matrix" values="0 0 0 0 0 0 0 0 0 0 0 0 0 0 0 0 0 0 127 0"/>
<feOffset dy="15"/>
<feGaussianBlur stdDeviation="10"/>
<feColorMatrix type="matrix" values="0 0 0 0 0 0 0 0 0 0 0 0 0 0 0 0 0 0 0.05 0"/>
<feBlend mode="normal" in2="BackgroundImageFix" result="effect1_dropShadow"/>
<feBlend mode="normal" in="SourceGraphic" in2="effect1_dropShadow" result="shape"/>
</filter>
<linearGradient id="paint0_linear" x1="107.535" y1="198.597" x2="283.399" y2="198.597" gradientUnits="userSpaceOnUse">
<stop stop-color="#D1D3D4"/>
<stop offset="0.1554" stop-color="#DDDEDF"/>
<stop offset="0.4218" stop-color="#ECEDED"/>
<stop offset="0.6183" stop-color="#F1F2F2"/>
</linearGradient>
</defs>
</svg>
