<svg width="126" height="26" viewBox="0 0 126 26" fill="none" xmlns="http://www.w3.org/2000/svg">
<path fill-rule="evenodd" clip-rule="evenodd" d="M50.1393 20.5142C45.5101 24.0681 38.7988 25.958 33.0193 25.958C24.9199 25.958 17.6259 22.8433 12.1062 17.6586C11.6733 17.2511 12.0593 16.6952 12.5802 17.0104C18.535 20.6153 25.8999 22.7865 33.5054 22.7865C38.6363 22.7865 44.2767 21.6784 49.4665 19.3883C50.2493 19.0436 50.9057 19.925 50.1393 20.5142V20.5142Z" fill="#F79C34"/>
<path fill-rule="evenodd" clip-rule="evenodd" d="M52.0661 18.2254C51.4735 17.437 48.1523 17.8519 46.6599 18.0379C46.2078 18.0947 46.1375 17.6835 46.5449 17.386C49.1948 15.4496 53.5372 16.0085 54.0418 16.6574C54.5499 17.3107 53.9077 21.8399 51.4252 24.0007C51.0427 24.3329 50.6794 24.1557 50.849 23.7172C51.4082 22.2651 52.6586 19.0153 52.0661 18.2254V18.2254Z" fill="#F79C34"/>
<path fill-rule="evenodd" clip-rule="evenodd" d="M46.7649 3.70732V1.82621C46.7663 1.53976 46.9736 1.34929 47.2234 1.35003L55.3292 1.34929C55.5882 1.34929 55.7968 1.54493 55.7968 1.824V3.43712C55.794 3.70806 55.5747 4.06095 55.1865 4.6213L50.9874 10.8582C52.5459 10.8205 54.1944 11.0634 55.6109 11.891C55.9303 12.0778 56.0161 12.3547 56.041 12.6256V14.633C56.041 14.9098 55.75 15.2295 55.4434 15.0634C52.949 13.7035 49.6384 13.5551 46.8792 15.0796C46.5974 15.2361 46.3029 14.9202 46.3029 14.6433V12.7349C46.3029 12.43 46.3086 11.9073 46.6045 11.4422L51.4686 4.18203L47.2333 4.18129C46.9743 4.18129 46.7663 3.98934 46.7649 3.70732V3.70732ZM17.1974 15.4584H14.7313C14.4964 15.4428 14.309 15.2598 14.2899 15.025L14.292 1.85796C14.292 1.59513 14.5049 1.38473 14.7682 1.38473L17.0647 1.38399C17.3046 1.39654 17.4976 1.58554 17.5125 1.82621V3.5449H17.5593C18.1576 1.88232 19.2852 1.1064 20.8046 1.1064C22.3467 1.1064 23.314 1.88232 24.0045 3.5449C24.6028 1.88232 25.9611 1.1064 27.4109 1.1064C28.447 1.1064 29.5747 1.5501 30.2652 2.5475C31.0479 3.65638 30.8876 5.26286 30.8876 6.6759L30.8847 14.9851C30.8847 15.2472 30.6725 15.4584 30.4092 15.4584H27.9467C27.6983 15.4421 27.5039 15.2383 27.5039 14.9859L27.5032 8.00552C27.5032 7.45182 27.5493 6.06683 27.4336 5.54044C27.2498 4.65304 26.6977 4.40351 25.9845 4.40351C25.3855 4.40351 24.7639 4.81916 24.5105 5.4836C24.2571 6.14952 24.2806 7.25692 24.2806 8.00552V14.9851C24.2806 15.2472 24.0677 15.4584 23.8051 15.4584H21.3418C21.0942 15.4421 20.899 15.2383 20.899 14.9859L20.8962 8.00552C20.8962 6.53711 21.1268 4.37693 19.3775 4.37693C17.6047 4.37693 17.6743 6.48174 17.6743 8.00552L17.6729 14.9851C17.6729 15.2472 17.46 15.4584 17.1974 15.4584V15.4584ZM62.797 3.79444C60.9788 3.79444 60.8639 6.37026 60.8639 7.97747C60.8639 9.58468 60.8412 13.0206 62.775 13.0206C64.6854 13.0206 64.7777 10.2499 64.7777 8.55997C64.7777 7.45182 64.7308 6.12146 64.4086 5.06869C64.1326 4.15397 63.5798 3.79444 62.797 3.79444V3.79444ZM62.775 1.1064C66.4347 1.1064 68.414 4.37693 68.414 8.53265C68.414 12.5488 66.2275 15.7359 62.775 15.7359C59.1834 15.7359 57.2268 12.4661 57.2268 8.39385C57.2268 4.29277 59.2061 1.1064 62.775 1.1064V1.1064ZM73.161 15.4584H70.7034C70.4571 15.4421 70.2613 15.2383 70.2613 14.9859L70.257 1.8144C70.2783 1.57299 70.4827 1.38473 70.7311 1.38473L73.0183 1.38399C73.2341 1.3958 73.4115 1.54788 73.4569 1.75239V3.76638H73.503C74.1942 1.96501 75.1601 1.1064 76.8633 1.1064C77.9682 1.1064 79.0505 1.52205 79.741 2.65824C80.3854 3.71101 80.3854 5.4836 80.3854 6.75859V15.0442C80.3584 15.2775 80.1568 15.4584 79.9127 15.4584H77.441C77.2124 15.4436 77.0286 15.2686 77.0017 15.0442V7.89552C77.0017 6.45442 77.1635 4.34814 75.4596 4.34814C74.8613 4.34814 74.3085 4.76379 74.0324 5.40091C73.6868 6.20489 73.6407 7.00812 73.6407 7.89552V14.9851C73.6364 15.2472 73.4235 15.4584 73.161 15.4584V15.4584ZM42.7887 15.4259C42.6261 15.578 42.3913 15.5883 42.2067 15.4857C41.3878 14.7777 41.2409 14.4506 40.7931 13.7758C39.4397 15.2103 38.481 15.6407 36.7274 15.6407C34.6516 15.6407 33.0364 14.3074 33.0364 11.6422C33.0364 9.55958 34.1215 8.14358 35.6665 7.44961C37.0042 6.83832 38.8727 6.72758 40.3034 6.56073V6.22777C40.3034 5.61575 40.3495 4.8952 40.0032 4.36733C39.703 3.89484 39.1268 3.70068 38.6194 3.70068C37.6784 3.70068 36.8431 4.20196 36.6373 5.24071C36.594 5.47179 36.4322 5.70139 36.2093 5.7132L33.8185 5.44373C33.6169 5.39574 33.3927 5.22742 33.4502 4.90701C33.9931 1.93252 36.5464 1.00526 38.867 0.980156H39.0501C40.2381 0.99566 41.7554 1.33453 42.6794 2.25662C43.8794 3.42309 43.763 4.97788 43.763 6.67221V10.6685C43.763 11.8711 44.2435 12.3982 44.6941 13.0457C44.8524 13.2797 44.8871 13.5566 44.6863 13.7278C44.1824 14.1671 43.2876 14.9755 42.7958 15.4318L42.7887 15.4259ZM40.3034 9.17125C40.3034 10.1709 40.3261 11.0036 39.8421 11.8925C39.4497 12.6138 38.8266 13.0582 38.1347 13.0582C37.1894 13.0582 36.6359 12.3089 36.6359 11.1978C36.6359 9.01252 38.5193 8.61534 40.3034 8.61534V9.17125ZM10.4627 15.4259C10.2994 15.578 10.0638 15.5883 9.88002 15.4857C9.06036 14.7777 8.91346 14.4506 8.46637 13.7758C7.11233 15.2103 6.15428 15.6407 4.40069 15.6407C2.32492 15.6407 0.709717 14.3074 0.709717 11.6422C0.709717 9.55958 1.79338 8.14358 3.33974 7.44961C4.67746 6.83832 6.54601 6.72758 7.97599 6.56073V6.22777C7.97599 5.61575 8.02283 4.8952 7.67651 4.36733C7.37632 3.89484 6.79936 3.70068 6.29266 3.70068C5.35164 3.70068 4.51495 4.20196 4.31056 5.24071C4.26798 5.47179 4.10547 5.70139 3.88192 5.7132L1.49177 5.44373C1.28951 5.39574 1.06526 5.22742 1.12345 4.90701C1.66493 1.93252 4.21902 1.00526 6.54033 0.980156H6.72343C7.91141 0.99566 9.42868 1.33453 10.3527 2.25662C11.552 3.42309 11.4363 4.97788 11.4363 6.67221V10.6685C11.4363 11.8711 11.9168 12.3982 12.3674 13.0457C12.5242 13.2797 12.5604 13.5566 12.3596 13.7278C11.8557 14.1671 10.9601 14.9755 10.4683 15.4318L10.4627 15.4259ZM7.97599 9.17125C7.97599 10.1709 7.99941 11.0036 7.51471 11.8925C7.12297 12.6138 6.49988 13.0582 5.80725 13.0582C4.86197 13.0582 4.30843 12.3089 4.30843 11.1978C4.30843 9.01252 6.1926 8.61534 7.97599 8.61534V9.17125ZM114.095 20.1818V19.2147C114.095 18.9393 114.225 18.7496 114.501 18.7665C115.016 18.8426 115.745 18.9186 116.263 18.8079C116.938 18.6617 117.423 18.1634 117.71 17.4805C118.113 16.5192 118.381 15.7441 118.55 15.2354L113.42 2.01447C113.333 1.79004 113.307 1.37365 113.738 1.37365H115.532C115.874 1.37365 116.013 1.59956 116.089 1.82104L119.809 12.5599L123.359 1.82104C123.432 1.60104 123.577 1.37365 123.916 1.37365H125.607C126.035 1.37365 126.011 1.7893 125.926 2.01447L120.837 15.6481C120.178 17.4628 119.301 20.3531 117.326 20.8551C116.335 21.1246 115.085 21.0271 114.351 20.7074C114.166 20.6107 114.095 20.3523 114.095 20.1818V20.1818ZM111.703 14.6529C111.703 14.8987 111.509 15.1003 111.271 15.1003H110.007C109.734 15.1003 109.547 14.8951 109.512 14.6529L109.385 13.7574C108.804 14.269 108.091 14.7186 107.317 15.0316C105.83 15.6326 104.115 15.7322 102.662 14.8035C101.611 14.1324 101.053 12.8205 101.053 11.4673C101.053 10.4204 101.363 9.3824 102.051 8.62862C102.968 7.59874 104.298 7.09302 105.904 7.09302C106.874 7.09302 108.262 7.21189 109.272 7.55518V5.75307C109.272 3.92068 108.531 3.12778 106.576 3.12778C105.081 3.12778 103.938 3.36255 102.347 3.87712C102.092 3.88598 101.943 3.68444 101.943 3.43859V2.41092C101.943 2.16434 102.145 1.92588 102.364 1.85353C103.501 1.33822 105.11 1.01707 106.821 0.958008C109.052 0.958008 111.703 1.48144 111.703 5.05023V14.6529ZM109.272 12.0217V9.30266C108.424 9.06125 107.019 8.96085 106.476 8.96085C105.617 8.96085 104.677 9.17199 104.185 9.722C103.819 10.1251 103.652 10.7039 103.652 11.2635C103.652 11.987 103.893 12.7127 104.455 13.0715C105.108 13.5329 106.121 13.4768 107.072 13.1956C107.987 12.9254 108.846 12.4477 109.272 12.0217V12.0217ZM93.0564 3.16839C95.8625 3.16839 96.6268 5.46366 96.6268 8.0919C96.6424 9.86375 96.3294 11.4436 95.4473 12.348C94.7873 13.025 94.05 13.2096 92.9401 13.2096C91.9522 13.2096 90.6528 12.6736 89.682 11.9272V4.41237C90.6926 3.6047 91.982 3.16839 93.0564 3.16839V3.16839ZM89.2519 20.6536H87.558C87.3209 20.6536 87.1272 20.452 87.1272 20.2062V1.84467C87.1272 1.59883 87.3209 1.39728 87.558 1.39728H88.8545C89.127 1.39728 89.3137 1.60252 89.3484 1.84467L89.4847 2.80663C90.6989 1.6852 92.2623 0.966129 93.7519 0.966129C97.924 0.966129 99.2958 4.5423 99.2958 8.26097C99.2958 12.2395 97.1974 15.4362 93.6483 15.4362C92.1538 15.4362 90.7564 14.8626 89.682 13.8659V20.2062C89.682 20.452 89.4882 20.6536 89.2519 20.6536V20.6536Z" fill="#333E47"/>
</svg>
