<svg width="209" height="41" viewBox="0 0 209 41" fill="none" xmlns="http://www.w3.org/2000/svg">
<path fill-rule="evenodd" clip-rule="evenodd" d="M82.2751 32.0409C74.57 37.7294 63.3991 40.7544 53.7791 40.7544C40.2977 40.7544 28.157 35.769 18.9694 27.4702C18.2489 26.818 18.8915 25.9282 19.7585 26.4328C29.6702 32.2028 41.929 35.678 54.5883 35.678C63.1286 35.678 72.517 33.9044 81.1553 30.2389C82.4582 29.687 83.5508 31.0979 82.2751 32.0409Z" fill="#F79C34"/>
<path fill-rule="evenodd" clip-rule="evenodd" d="M85.4821 28.3776C84.4958 27.1156 78.9676 27.7797 76.4835 28.0775C75.7311 28.1685 75.6141 27.5103 76.2922 27.0341C80.7029 23.9346 87.9308 24.8291 88.7707 25.8678C89.6164 26.9136 88.5474 34.163 84.4155 37.6216C83.7788 38.1534 83.174 37.8698 83.4563 37.1679C84.3871 34.8436 86.4684 29.642 85.4821 28.3776Z" fill="#F79C34"/>
<path fill-rule="evenodd" clip-rule="evenodd" d="M76.6583 5.13986V2.12892C76.6607 1.67043 77.0056 1.36555 77.4214 1.36673L90.9134 1.36555C91.3446 1.36555 91.6919 1.6787 91.6919 2.12538V4.70736C91.6871 5.14104 91.3221 5.70589 90.676 6.60279L83.6867 16.5857C86.2806 16.5254 89.0247 16.9142 91.3824 18.2389C91.9139 18.5378 92.0569 18.981 92.0982 19.4146V22.6276C92.0982 23.0708 91.6139 23.5824 91.1036 23.3166C86.9516 21.1399 81.4411 20.9024 76.8485 23.3426C76.3796 23.5931 75.8894 23.0873 75.8894 22.6442V19.5895C75.8894 19.1015 75.8988 18.2649 76.3914 17.5204L84.4875 5.89968L77.438 5.8985C77.0068 5.8985 76.6607 5.59126 76.6583 5.13986ZM27.4435 23.9488H23.3388C22.9478 23.924 22.6359 23.6309 22.604 23.2551L22.6076 2.17973C22.6076 1.75905 22.9619 1.42227 23.4002 1.42227L27.2226 1.42109C27.6219 1.44118 27.9432 1.74369 27.968 2.12892V4.87989H28.046C29.0417 2.21873 30.9187 0.976777 33.4477 0.976777C36.0145 0.976777 37.6246 2.21873 38.7739 4.87989C39.7697 2.21873 42.0306 0.976777 44.4438 0.976777C46.1684 0.976777 48.0454 1.68697 49.1947 3.28343C50.4976 5.05832 50.2307 7.62967 50.2307 9.89142L50.2259 23.1913C50.2259 23.6108 49.8727 23.9488 49.4345 23.9488H45.3356C44.9222 23.9228 44.5986 23.5966 44.5986 23.1925L44.5974 12.0196C44.5974 11.1334 44.6742 8.91653 44.4816 8.07399C44.1757 6.6536 43.2567 6.25419 42.0695 6.25419C41.0726 6.25419 40.0378 6.91948 39.6161 7.983C39.1944 9.04888 39.2334 10.8214 39.2334 12.0196V23.1913C39.2334 23.6108 38.879 23.9488 38.442 23.9488H34.3419C33.9297 23.9228 33.6048 23.5966 33.6048 23.1925L33.6001 12.0196C33.6001 9.66926 33.984 6.21165 31.0723 6.21165C28.1216 6.21165 28.2373 9.58064 28.2373 12.0196L28.235 23.1913C28.235 23.6108 27.8806 23.9488 27.4435 23.9488ZM103.344 5.2793C100.317 5.2793 100.126 9.4022 100.126 11.9747C100.126 14.5473 100.088 20.0468 103.307 20.0468C106.487 20.0468 106.64 15.612 106.64 12.9071C106.64 11.1334 106.562 9.00398 106.026 7.31889C105.567 5.85478 104.646 5.2793 103.344 5.2793ZM103.307 0.976777C109.399 0.976777 112.693 6.21165 112.693 12.8634C112.693 19.2917 109.054 24.3931 103.307 24.3931C97.3287 24.3931 94.072 19.1594 94.072 12.6412C94.072 6.07694 97.3665 0.976777 103.307 0.976777ZM120.594 23.9488H116.504C116.094 23.9228 115.768 23.5966 115.768 23.1925L115.761 2.11001C115.796 1.7236 116.136 1.42227 116.55 1.42227L120.357 1.42109C120.716 1.44 121.011 1.68343 121.087 2.01075V5.23439H121.164C122.314 2.35108 123.922 0.976777 126.757 0.976777C128.596 0.976777 130.397 1.64207 131.547 3.46068C132.619 5.14577 132.619 7.983 132.619 10.0238V23.2858C132.574 23.6593 132.239 23.9488 131.832 23.9488H127.718C127.338 23.9251 127.032 23.6451 126.987 23.2858V11.8436C126.987 9.53692 127.256 6.16556 124.42 6.16556C123.424 6.16556 122.504 6.83085 122.045 7.85065C121.47 9.13751 121.393 10.4232 121.393 11.8436V23.1913C121.386 23.6108 121.031 23.9488 120.594 23.9488ZM70.0399 23.8968C69.7694 24.1402 69.3784 24.1567 69.0713 23.9925C67.7082 22.8593 67.4636 22.3358 66.7183 21.2557C64.4657 23.5517 62.8698 24.2406 59.951 24.2406C56.4959 24.2406 53.8074 22.1065 53.8074 17.8406C53.8074 14.5071 55.6135 12.2406 58.1851 11.1298C60.4117 10.1514 63.5219 9.97414 65.9032 9.70708V9.17414C65.9032 8.19452 65.98 7.04119 65.4036 6.19629C64.9039 5.44001 63.9448 5.12922 63.1002 5.12922C61.5339 5.12922 60.1436 5.93159 59.801 7.59422C59.7289 7.96409 59.4596 8.3316 59.0887 8.3505L55.1091 7.91919C54.7737 7.84238 54.4004 7.57295 54.4961 7.0601C55.3997 2.29908 59.6498 0.814886 63.5124 0.774708H63.8172C65.7946 0.799524 68.32 1.34192 69.858 2.81784C71.8555 4.68491 71.6617 7.17354 71.6617 9.88551V16.282C71.6617 18.207 72.4614 19.0507 73.2115 20.087C73.4749 20.4616 73.5328 20.9047 73.1985 21.1789C72.3598 21.882 70.8703 23.1759 70.0517 23.9062L70.0399 23.8968ZM65.9032 13.8855C65.9032 15.4855 65.941 16.8185 65.1354 18.2412C64.4822 19.3957 63.4451 20.1071 62.2934 20.1071C60.72 20.1071 59.7986 18.9077 59.7986 17.1293C59.7986 13.6315 62.9336 12.9957 65.9032 12.9957V13.8855ZM16.2337 23.8968C15.962 24.1402 15.5698 24.1567 15.2639 23.9925C13.8995 22.8593 13.655 22.3358 12.9109 21.2557C10.6571 23.5517 9.0624 24.2406 6.14358 24.2406C2.68848 24.2406 0 22.1065 0 17.8406C0 14.5071 1.80374 12.2406 4.37764 11.1298C6.60426 10.1514 9.71444 9.97414 12.0946 9.70708V9.17414C12.0946 8.19452 12.1726 7.04119 11.5961 6.19629C11.0965 5.44001 10.1361 5.12922 9.29274 5.12922C7.72643 5.12922 6.33376 5.93159 5.99357 7.59422C5.92269 7.96409 5.65219 8.3316 5.2801 8.3505L1.30172 7.91919C0.965066 7.84238 0.591797 7.57295 0.688658 7.0601C1.58994 2.29908 5.84119 0.814886 9.70499 0.774708H10.0098C11.9871 0.799524 14.5126 1.34192 16.0506 2.81784C18.0468 4.68491 17.8543 7.17354 17.8543 9.88551V16.282C17.8543 18.207 18.654 19.0507 19.4041 20.087C19.6651 20.4616 19.7254 20.9047 19.3911 21.1789C18.5524 21.882 17.0617 23.1759 16.2431 23.9062L16.2337 23.8968ZM12.0946 13.8855C12.0946 15.4855 12.1336 16.8185 11.3268 18.2412C10.6748 19.3957 9.63766 20.1071 8.48478 20.1071C6.91138 20.1071 5.99002 18.9077 5.99002 17.1293C5.99002 13.6315 9.12619 12.9957 12.0946 12.9957V13.8855ZM188.729 31.5092V29.9612C188.729 29.5204 188.945 29.2167 189.404 29.2439C190.262 29.3656 191.475 29.4873 192.336 29.3101C193.461 29.0761 194.268 28.2785 194.745 27.1854C195.417 25.6469 195.862 24.4061 196.143 23.5919L187.604 2.43025C187.46 2.07102 187.418 1.40455 188.135 1.40455H191.12C191.689 1.40455 191.92 1.76614 192.048 2.12065L198.239 19.3095L204.149 2.12065C204.269 1.76851 204.511 1.40455 205.076 1.40455H207.891C208.603 1.40455 208.563 2.06984 208.421 2.43025L199.95 24.2525C198.854 27.1571 197.394 31.7834 194.106 32.5869C192.457 33.0182 190.377 32.8622 189.155 32.3506C188.847 32.1958 188.729 31.7822 188.729 31.5092ZM184.747 22.6595C184.747 23.0531 184.424 23.3757 184.029 23.3757H181.924C181.469 23.3757 181.158 23.0471 181.1 22.6595L180.889 21.2262C179.922 22.0451 178.734 22.7647 177.447 23.2658C174.971 24.2276 172.117 24.3872 169.698 22.9006C167.949 21.8265 167.02 19.7266 167.02 17.5606C167.02 15.8849 167.536 14.2235 168.681 13.017C170.208 11.3685 172.422 10.5591 175.095 10.5591C176.71 10.5591 179.02 10.7493 180.701 11.2988V8.41431C180.701 5.48137 179.467 4.21224 176.212 4.21224C173.725 4.21224 171.822 4.58801 169.174 5.41165C168.749 5.42583 168.501 5.10323 168.501 4.70973V3.06482C168.501 2.67013 168.838 2.28845 169.203 2.17264C171.094 1.34783 173.773 0.833793 176.621 0.739258C180.334 0.739258 184.747 1.57707 184.747 7.28935V22.6595ZM180.701 18.448V14.0959C179.288 13.7095 176.951 13.5487 176.046 13.5487C174.617 13.5487 173.052 13.8867 172.234 14.7671C171.623 15.4123 171.347 16.3387 171.347 17.2344C171.347 18.3925 171.747 19.5541 172.683 20.1284C173.77 20.8669 175.455 20.7771 177.039 20.3269C178.562 19.8944 179.991 19.1299 180.701 18.448ZM153.71 4.27723C158.381 4.27723 159.653 7.95109 159.653 12.1579C159.679 14.9939 159.158 17.5228 157.69 18.9703C156.591 20.0539 155.364 20.3493 153.516 20.3493C151.872 20.3493 149.709 19.4914 148.093 18.2968V6.26837C149.775 4.97561 151.922 4.27723 153.71 4.27723ZM147.377 32.2643H144.558C144.163 32.2643 143.841 31.9417 143.841 31.5482V2.15846C143.841 1.76496 144.163 1.44236 144.558 1.44236H146.716C147.17 1.44236 147.48 1.77087 147.538 2.15846L147.765 3.6982C149.786 1.90322 152.388 0.752256 154.868 0.752256C161.812 0.752256 164.095 6.47635 164.095 12.4285C164.095 18.7966 160.603 23.9133 154.695 23.9133C152.208 23.9133 149.882 22.9951 148.093 21.3999V31.5482C148.093 31.9417 147.771 32.2643 147.377 32.2643Z" fill="#333E47"/>
</svg>
