<svg width="288" height="37" viewBox="0 0 288 37" fill="none" xmlns="http://www.w3.org/2000/svg">
<path d="M15.2853 11.8547L18.9909 22.5121H11.5798L15.2853 11.8547ZM19.454 36.4131H33.813V35.023C31.0338 34.5596 30.1075 34.5596 28.2547 29.4626C26.4019 24.3656 24.086 17.8785 21.77 11.8547L18.5277 2.12402L16.2117 3.05076L5.5583 29.926C3.70553 34.5596 3.24234 35.023 0 35.023V36.4131H11.5798V35.023H10.1902C7.87426 34.5596 7.87426 34.0963 8.33745 31.7794C8.80064 29.4626 9.72702 27.1458 10.1902 25.7557H19.454C20.3804 27.6091 21.3068 30.3893 21.77 32.2428C22.6964 34.5596 22.2332 35.023 20.3804 35.4864H18.9909V36.4131H19.454Z" fill="#055D77"/>
<path d="M48.6353 18.3412C48.6353 16.4877 48.1721 16.0244 47.2457 16.0244L45.8561 15.561V14.1709C48.6353 14.1709 52.804 13.7075 55.5832 13.2441V30.8522C55.5832 33.169 55.5832 33.6324 57.4359 33.6324H59.2887V35.0225C56.0463 35.4859 52.804 36.4126 50.0248 36.876H48.6353V33.6324C47.7089 34.5591 46.7825 35.0225 45.8561 35.4859C44.4665 36.4126 43.077 36.876 41.2242 36.876C37.0554 36.876 34.7395 34.0958 34.7395 29.9254V18.3412C34.7395 16.4877 34.2763 16.0244 33.3499 16.0244L31.9603 15.561V14.1709C34.2763 14.1709 38.445 13.7075 41.2242 13.2441V28.9987C41.2242 32.2423 42.6138 33.169 44.9297 33.169C46.3193 33.169 47.7089 32.7056 49.5616 31.3155V18.3412" fill="#055D77"/>
<path d="M67.6261 28.5359C67.6261 32.7062 69.4789 33.1696 70.4053 33.1696C71.3317 33.1696 72.2581 32.7062 73.1844 32.2428L74.1108 33.6329L69.4789 35.9497C69.0157 36.8765 68.0893 36.8765 67.6261 36.8765C63.4574 36.8765 61.6046 35.023 61.6046 30.3894V16.0251H58.3622L57.899 15.5617L59.7518 13.7083H61.6046V10.4647L67.1629 6.29443L68.0893 6.7578V13.7083H73.1844C73.6476 14.1716 73.6476 16.0251 72.7213 16.4884H68.0893V28.5359" fill="#055D77"/>
<path d="M84.3012 16.4896C86.154 14.6362 88.4699 13.2461 91.2491 13.2461C95.881 13.2461 98.6601 16.0262 98.6601 21.1232V31.7805C98.6601 34.5606 99.1233 35.024 101.902 35.024V36.4141H89.8595V35.024C92.1754 34.5606 92.6386 34.5606 92.6386 31.7805V22.0499C92.6386 18.8064 90.7859 17.4163 88.4699 17.4163C87.0803 17.4163 85.6908 17.8797 84.3012 19.2698V32.2438C84.3012 35.024 84.7644 35.4874 86.6171 35.4874V36.8774H74.111V35.4874C77.3533 35.024 77.8165 35.024 77.8165 32.2438V7.22239C77.8165 3.97887 77.8165 3.97887 74.5742 3.97887V2.58879C76.8901 2.12543 81.0588 1.66207 84.3012 0.735352V16.4896Z" fill="#055D77"/>
<path d="M110.24 23.438C110.24 17.8774 112.556 15.0972 114.409 15.0972C117.651 15.0972 119.504 19.2676 119.504 26.2183C119.504 33.6323 117.188 35.0225 115.335 35.0225C112.093 35.0225 110.24 29.9253 110.24 23.438ZM115.335 12.7803C109.313 12.7803 103.292 16.9507 103.292 25.2915C103.292 30.8521 107.461 36.876 115.335 36.876C121.356 36.876 127.378 32.7056 127.378 24.3647C126.915 18.3408 122.283 12.7803 115.335 12.7803Z" fill="#055D77"/>
<path d="M138.031 31.315C138.031 34.0953 138.494 34.5586 142.2 34.5586V35.9487H128.304V34.5586C131.547 34.0953 132.01 34.0953 132.01 31.315V19.7308C132.01 16.4872 132.01 16.4872 128.767 16.0239V14.6338C132.01 14.1704 135.252 13.707 138.494 12.7803V18.3407C138.958 17.414 139.884 16.0239 140.81 15.0971C141.737 14.1704 143.126 13.2436 144.053 13.2436C145.906 13.2436 147.758 14.6338 147.758 16.4872C147.758 18.3407 146.832 19.7308 145.442 20.1942C144.979 20.6576 144.053 20.1942 144.053 20.1942C143.126 19.2675 142.2 19.2674 141.274 19.2674C140.347 19.2674 139.421 19.7308 138.494 22.0477V31.315" fill="#055D77"/>
<path d="M151.464 19.7316C151.464 16.4881 151.464 16.4881 148.222 16.0248V14.6347C151.464 14.1713 154.706 13.708 157.949 12.7812V30.8523C157.949 33.6324 158.412 34.0958 161.654 34.5591V35.9492H148.222V34.5591C151.464 34.0958 151.927 34.0958 151.927 30.8523V19.7316H151.464ZM157.949 4.90415C157.949 7.22094 156.096 8.61102 154.243 8.61102C152.39 8.61102 150.538 6.75758 150.538 4.90415C150.538 3.05071 152.39 1.19727 154.243 1.19727C156.096 1.19727 157.949 2.58735 157.949 4.90415Z" fill="#055D77"/>
<path d="M182.035 13.7089L182.498 14.6356L170.455 34.5601H174.624C178.329 34.5601 179.719 34.0968 181.108 30.8532L182.035 29.4632L183.887 29.9265C182.961 32.7067 182.498 34.5601 181.571 36.4136H163.044L162.117 35.4868L174.624 15.5623H170.918C167.676 15.5623 166.749 16.4891 165.36 18.8059L164.433 20.196L162.581 19.2692C163.044 17.4158 163.97 14.1723 164.433 11.8555H165.36C165.823 12.7822 166.286 12.7822 168.139 12.7822H182.035" fill="#055D77"/>
<path d="M189.909 21.5845C190.372 17.8774 192.225 15.5605 194.078 15.5605C195.93 15.5605 197.783 18.3408 197.783 20.1943C197.783 21.1211 197.783 21.5845 196.857 21.5845H189.909ZM202.878 30.3887C200.562 31.7788 199.173 32.2422 197.32 32.2422C193.151 32.2422 189.909 29.4619 189.909 23.9014C195.004 23.9014 201.952 23.438 202.878 22.9746C203.805 22.9746 204.268 22.5112 204.268 20.6577C204.268 16.4873 200.562 12.7803 196.394 12.7803C189.909 12.7803 184.351 18.3408 184.351 25.7549C184.351 31.7788 188.519 36.876 195.467 36.876C197.32 36.876 201.489 35.9492 204.268 31.3154L202.878 30.3887Z" fill="#055D77"/>
<path d="M205.194 32.707C205.194 30.3901 207.047 28.5366 208.9 28.5366C211.216 28.5366 213.069 30.3901 213.069 32.707C213.069 35.0239 211.216 36.8774 208.9 36.8774C207.047 36.8774 205.194 35.4873 205.194 32.707Z" fill="#12A9CC"/>
<path d="M246.418 36.877H243.176L222.796 11.3918V22.0492C222.796 27.6096 223.259 30.3898 223.259 31.7799C223.722 33.6334 224.648 34.0968 228.354 34.5601V35.9502H215.385V34.5601C218.164 34.5601 219.09 33.6334 219.553 31.7799C220.017 30.3898 220.016 27.1463 220.016 22.0492V11.8552C220.016 8.61163 220.016 7.22152 219.09 5.83143C218.164 4.44133 216.774 4.44133 214.921 3.97796V2.1245H223.722L243.639 25.2928V16.0255C243.639 10.4651 243.176 7.68489 243.176 6.29479C242.713 4.44133 241.787 3.97796 238.081 3.5146V1.66113H251.05V4.44133C248.271 4.44133 247.345 5.36806 246.882 7.22153C246.882 9.07499 246.418 11.8552 246.418 16.9522V36.877Z" fill="#12A9CC"/>
<path d="M254.756 21.5845C255.219 17.8774 257.072 15.5605 258.925 15.5605C260.777 15.5605 262.63 18.3408 262.63 20.1943C262.63 21.1211 262.63 21.5845 261.704 21.5845H254.756ZM267.262 30.3887C265.409 31.7788 263.557 32.2422 261.704 32.2422C257.998 32.2422 254.293 29.4619 254.293 23.9014C259.388 23.9014 266.336 23.438 267.262 22.9746C268.188 22.9746 268.652 22.5112 268.652 20.6577C268.652 16.4873 264.946 12.7803 260.777 12.7803C254.293 12.7803 248.734 18.3408 248.734 25.7549C248.734 31.7788 252.903 36.876 259.851 36.876C261.704 36.876 265.872 35.9492 268.652 31.3154L267.262 30.3887Z" fill="#12A9CC"/>
<path d="M278.379 28.5359C278.379 32.7062 280.231 33.1696 281.158 33.1696C282.084 33.1696 283.011 32.7062 283.937 32.2428L284.863 33.6329L280.231 35.9497C279.305 36.8765 278.842 36.8765 278.379 36.8765C274.21 36.8765 272.357 35.023 272.357 30.3894V16.0251H268.652L268.188 15.5617L270.041 13.7083H271.894V10.4647L277.452 6.29443L278.379 6.7578V13.7083H283.474C283.937 14.1716 283.937 16.0251 283.011 16.4884H278.379V28.5359Z" fill="#12A9CC"/>
<path d="M284.4 11.8545C283.937 11.8545 283.474 11.8545 283.011 11.3912C282.547 11.3912 282.084 10.9278 282.084 10.4645C281.621 10.0011 281.621 9.5378 281.621 9.07446C281.621 8.61112 281.621 8.14779 282.084 7.68445C282.547 7.22111 282.547 6.75777 283.011 6.75777C283.474 6.75777 283.937 6.29443 284.4 6.29443C284.863 6.29443 285.327 6.29444 285.79 6.75777C286.253 7.22111 286.716 7.22111 286.716 7.68445C287.179 8.14779 287.179 8.61112 287.179 9.07446C287.179 9.5378 287.179 10.0011 286.716 10.4645C286.253 10.9278 286.253 11.3912 285.79 11.3912C285.327 11.3912 284.863 11.8545 284.4 11.8545ZM284.4 11.3912C284.863 11.3912 285.327 11.3912 285.327 10.9278C285.79 10.9278 285.79 10.4645 286.253 10.0011C286.716 9.5378 286.716 9.07446 286.716 9.07446C286.716 8.61112 286.716 8.14778 286.253 8.14778C286.253 7.68445 285.79 7.68445 285.327 7.22111C284.863 7.22111 284.4 6.75777 284.4 6.75777C283.937 6.75777 283.474 6.75778 283.474 7.22111C283.011 7.22111 283.011 7.68445 282.547 8.14778C282.547 8.61112 282.084 9.07446 282.084 9.07446C282.084 9.5378 282.084 10.0011 282.547 10.0011C282.547 10.4645 283.011 10.4645 283.474 10.9278C283.937 11.3912 284.4 11.3912 284.4 11.3912ZM283.937 10.4645H283.474V7.22111H284.863L285.327 7.68445V8.61112L284.863 9.07446L285.327 9.5378L285.79 10.4645H285.327L284.863 9.5378C284.863 9.5378 284.863 9.07446 284.4 9.07446H283.937V10.4645ZM283.937 9.07446H284.863V8.61112V8.14778H283.937V9.07446Z" fill="#12A9CC"/>
</svg>
