<svg width="130" height="17" viewBox="0 0 130 17" fill="none" xmlns="http://www.w3.org/2000/svg">
<path d="M6.91378 5.23003L8.58985 10.2429H5.23771L6.91378 5.23003V5.23003ZM8.79936 16.7814H15.2941V16.1275C14.0371 15.9096 13.6181 15.9096 12.78 13.5122C11.942 11.1147 10.8944 8.06339 9.8469 5.23003L8.38034 0.653076L7.3328 1.08898L2.5141 13.7301C1.67607 15.9096 1.46656 16.1275 0 16.1275V16.7814H5.23771V16.1275H4.60919C3.56164 15.9096 3.56164 15.6917 3.77115 14.6019C3.98066 13.5122 4.39968 12.4224 4.60919 11.7685H8.79936C9.21837 12.6403 9.63739 13.948 9.8469 14.8199C10.2659 15.9096 10.0564 16.1276 9.21837 16.3455H8.58985V16.7814H8.79936Z" fill="#055D77"/>
<path d="M21.9986 8.28126C21.9986 7.40945 21.7891 7.1915 21.3701 7.1915L20.7416 6.97355V6.31969C21.9986 6.31969 23.8842 6.10174 25.1413 5.88379V14.166C25.1413 15.2557 25.1413 15.4737 25.9793 15.4737H26.8173V16.1275C25.3508 16.3455 23.8842 16.7814 22.6271 16.9993H21.9986V15.4737C21.5796 15.9096 21.1606 16.1275 20.7416 16.3455C20.113 16.7814 19.4845 16.9993 18.6465 16.9993C16.7609 16.9993 15.7134 15.6916 15.7134 13.7301V8.28126C15.7134 7.40945 15.5038 7.1915 15.0848 7.1915L14.4563 6.97355V6.31969C15.5038 6.31969 17.3894 6.10174 18.6465 5.88379V13.2942C18.6465 14.8198 19.275 15.2557 20.3225 15.2557C20.9511 15.2557 21.5796 15.0378 22.4176 14.3839V8.28126" fill="#055D77"/>
<path d="M30.5882 13.0763C30.5882 15.0379 31.4262 15.2558 31.8452 15.2558C32.2643 15.2558 32.6833 15.0379 33.1023 14.8199L33.5213 15.4738L31.4262 16.5635C31.2167 16.9994 30.7977 16.9994 30.5882 16.9994C28.7026 16.9994 27.8646 16.1276 27.8646 13.9481V7.19169H26.398L26.1885 6.97374L27.0265 6.10194H27.8646V4.57629L30.3787 2.61475L30.7977 2.8327V6.10194H33.1023C33.3118 6.31989 33.3118 7.19169 32.8928 7.40964H30.7977V13.0763" fill="#055D77"/>
<path d="M38.1304 7.41022C38.9685 6.53843 40.016 5.88459 41.2731 5.88459C43.3681 5.88459 44.6252 7.19227 44.6252 9.5897V14.6025C44.6252 15.9102 44.8347 16.1281 46.0918 16.1281V16.782H40.6445V16.1281C41.6921 15.9102 41.9016 15.9102 41.9016 14.6025V10.0256C41.9016 8.49996 41.0635 7.84612 40.016 7.84612C39.3875 7.84612 38.759 8.06407 38.1304 8.71791V14.8204C38.1304 16.1281 38.3399 16.3461 39.178 16.3461V16.9999H33.5212V16.3461C34.9878 16.1281 35.1973 16.1281 35.1973 14.8204V3.05127C35.1973 1.52563 35.1973 1.52563 33.7307 1.52563V0.87179C34.7783 0.653843 36.6639 0.435896 38.1304 0V7.41022" fill="#055D77"/>
<path d="M49.8633 10.6788C49.8633 8.06329 50.9109 6.75555 51.7489 6.75555C53.2155 6.75555 54.0535 8.71717 54.0535 11.9865C54.0535 15.4738 53.006 16.1277 52.1679 16.1277C50.7014 16.1277 49.8633 13.7302 49.8633 10.6788ZM52.1679 5.66577C49.4443 5.66577 46.7207 7.62738 46.7207 11.5506C46.7207 14.1661 48.6063 16.9995 52.1679 16.9995C54.8915 16.9995 57.6151 15.0379 57.6151 11.1147C57.4056 8.28125 55.3105 5.66577 52.1679 5.66577V5.66577Z" fill="#055D77"/>
<path d="M62.4336 14.3839C62.4336 15.6916 62.6431 15.9095 64.3192 15.9095V16.5634H58.0339V15.9095C59.5005 15.6916 59.71 15.6916 59.71 14.3839V8.93505C59.71 7.40939 59.71 7.40939 58.2434 7.19144V6.53758C59.71 6.31963 61.1766 6.10168 62.6431 5.66577V8.2812C62.8526 7.84529 63.2717 7.19144 63.6907 6.75553C64.1097 6.31963 64.7382 5.88372 65.1572 5.88372C65.9953 5.88372 66.8333 6.53758 66.8333 7.40939C66.8333 8.2812 66.4143 8.93506 65.7858 9.15301C65.5763 9.37096 65.1572 9.15301 65.1572 9.15301C64.7382 8.7171 64.3192 8.7171 63.9002 8.7171C63.4812 8.7171 63.0621 8.93505 62.6431 10.0248V14.3839" fill="#055D77"/>
<path d="M68.5095 8.93506C68.5095 7.40943 68.5095 7.40943 67.043 7.19148V6.53764C68.5095 6.3197 69.9761 6.10174 71.4427 5.66585V14.1658C71.4427 15.4735 71.6522 15.6914 73.1187 15.9094V16.5632H67.043V15.9094C68.5095 15.6914 68.719 15.6914 68.719 14.1658V8.93506H68.5095ZM71.4427 1.96075C71.4427 3.05048 70.6046 3.70432 69.7666 3.70432C68.9286 3.70432 68.0905 2.83254 68.0905 1.96075C68.0905 1.08896 68.9286 0.217163 69.7666 0.217163C70.6046 0.217163 71.4427 0.871008 71.4427 1.96075Z" fill="#055D77"/>
<path d="M82.337 6.10226L82.5465 6.53816L77.0993 15.9099H78.9849C80.6609 15.9099 81.2894 15.692 81.918 14.1663L82.337 13.5125L83.175 13.7304C82.756 15.0381 82.5465 15.9099 82.1275 16.7817H73.7471L73.3281 16.3458L78.9849 6.97405H77.3088C75.8422 6.97405 75.4232 7.40994 74.7947 8.49968L74.3757 9.15353L73.5376 8.71764C73.7471 7.84584 74.1662 6.32021 74.3757 5.23047H74.7947C75.0042 5.66636 75.2137 5.66636 76.0517 5.66636H82.337" fill="#055D77"/>
<path d="M85.8986 9.80695C86.1082 8.0633 86.9462 6.97351 87.7842 6.97351C88.6223 6.97351 89.4603 8.28126 89.4603 9.15308C89.4603 9.589 89.4603 9.80695 89.0413 9.80695H85.8986ZM91.7649 13.9481C90.7174 14.602 90.0888 14.82 89.2508 14.82C87.3652 14.82 85.8986 13.5122 85.8986 10.8967C88.2032 10.8967 91.3459 10.6788 91.7649 10.4608C92.1839 10.4608 92.3934 10.2429 92.3934 9.37104C92.3934 7.40943 90.7174 5.66577 88.8318 5.66577C85.8986 5.66577 83.3845 8.28125 83.3845 11.7686C83.3845 14.602 85.2701 16.9995 88.4128 16.9995C89.2508 16.9995 91.1364 16.5636 92.3934 14.384L91.7649 13.9481V13.9481Z" fill="#055D77"/>
<path d="M92.8125 15.0384C92.8125 13.9486 93.6505 13.0768 94.4886 13.0768C95.5361 13.0768 96.3741 13.9486 96.3741 15.0384C96.3741 16.1282 95.5361 17 94.4886 17C93.6505 17 92.8125 16.3461 92.8125 15.0384Z" fill="#12A9CC"/>
<path d="M111.459 16.9998H109.992L100.774 5.01251V10.0254C100.774 12.6408 100.983 13.9485 100.983 14.6023C101.193 15.4741 101.612 15.6921 103.288 15.91V16.5639H97.4217V15.91C98.6787 15.91 99.0977 15.4741 99.3072 14.6023C99.5168 13.9485 99.5168 12.4228 99.5168 10.0254V5.23046C99.5168 3.70481 99.5168 3.05095 99.0977 2.3971C98.6787 1.74325 98.0502 1.74325 97.2122 1.5253V0.653498H101.193L110.202 11.551V7.19202C110.202 4.57661 109.992 3.2689 109.992 2.61505C109.783 1.74325 109.364 1.5253 107.688 1.30735V0.435547H113.554V1.74325C112.297 1.74325 111.878 2.17915 111.668 3.05096C111.668 3.92276 111.459 5.23046 111.459 7.62792V16.9998" fill="#12A9CC"/>
<path d="M115.23 9.80695C115.439 8.0633 116.278 6.97351 117.116 6.97351C117.954 6.97351 118.792 8.28126 118.792 9.15308C118.792 9.589 118.792 9.80695 118.373 9.80695H115.23ZM120.887 13.9481C120.049 14.602 119.211 14.82 118.373 14.82C116.697 14.82 115.02 13.5122 115.02 10.8967C117.325 10.8967 120.468 10.6788 120.887 10.4608C121.306 10.4608 121.515 10.2429 121.515 9.37104C121.515 7.40943 119.839 5.66577 117.954 5.66577C115.02 5.66577 112.506 8.28125 112.506 11.7686C112.506 14.602 114.392 16.9995 117.535 16.9995C118.373 16.9995 120.258 16.5636 121.515 14.384L120.887 13.9481V13.9481Z" fill="#12A9CC"/>
<path d="M125.915 13.0763C125.915 15.0379 126.753 15.2558 127.172 15.2558C127.591 15.2558 128.01 15.0379 128.429 14.8199L128.848 15.4738L126.753 16.5635C126.334 16.9994 126.125 16.9994 125.915 16.9994C124.03 16.9994 123.191 16.1276 123.191 13.9481V7.19169H121.515L121.306 6.97374L122.144 6.10194H122.982V4.57629L125.496 2.61475L125.915 2.8327V6.10194H128.22C128.429 6.31989 128.429 7.19169 128.01 7.40964H125.915V13.0763Z" fill="#12A9CC"/>
<path d="M128.638 5.23C128.429 5.23 128.219 5.23 128.01 5.01206C127.8 5.01206 127.591 4.79412 127.591 4.57618C127.381 4.35824 127.381 4.14031 127.381 3.92237C127.381 3.70443 127.381 3.4865 127.591 3.26856C127.8 3.05062 127.8 2.83268 128.01 2.83268C128.219 2.83268 128.429 2.61475 128.638 2.61475C128.848 2.61475 129.057 2.61475 129.267 2.83268C129.476 3.05062 129.686 3.05062 129.686 3.26856C129.895 3.4865 129.895 3.70443 129.895 3.92237C129.895 4.14031 129.895 4.35824 129.686 4.57618C129.476 4.79412 129.476 5.01206 129.267 5.01206C129.057 5.01206 128.848 5.23 128.638 5.23ZM128.638 5.01206C128.848 5.01206 129.057 5.01206 129.057 4.79412C129.267 4.79412 129.267 4.57618 129.476 4.35825C129.686 4.14031 129.686 3.92237 129.686 3.92237C129.686 3.70443 129.686 3.48649 129.476 3.48649C129.476 3.26856 129.267 3.26856 129.057 3.05062C128.848 3.05062 128.638 2.83268 128.638 2.83268C128.429 2.83268 128.219 2.83269 128.219 3.05062C128.01 3.05062 128.01 3.26856 127.8 3.48649C127.8 3.70443 127.591 3.92237 127.591 3.92237C127.591 4.14031 127.591 4.35825 127.8 4.35825C127.8 4.57618 128.01 4.57618 128.219 4.79412C128.429 5.01206 128.638 5.01206 128.638 5.01206ZM128.429 4.57618H128.219V3.05062H128.848L129.057 3.26856V3.70443L128.848 3.92237L129.057 4.14031L129.267 4.57618H129.057L128.848 4.14031C128.848 4.14031 128.848 3.92237 128.638 3.92237H128.429V4.57618V4.57618ZM128.429 3.92237H128.848V3.70443V3.48649H128.429V3.92237V3.92237Z" fill="#12A9CC"/>
</svg>
