<svg width="192" height="26" viewBox="0 0 192 26" fill="none" xmlns="http://www.w3.org/2000/svg">
<path d="M10.8251 8.01088L13.2899 15.3828H8.36027L10.8251 8.01088V8.01088ZM13.598 24.9983H23.1492V24.0367C21.3006 23.7162 20.6843 23.7162 19.4519 20.1905C18.2195 16.6648 16.679 12.1776 15.1385 8.01088L12.9818 1.28003L11.4413 1.92107L4.35494 20.511C3.12253 23.7162 2.81443 24.0367 0.657715 24.0367V24.9983H8.36027V24.0367H7.43596C5.89545 23.7162 5.89545 23.3957 6.20355 21.7931C6.51165 20.1905 7.12786 18.5879 7.43596 17.6264H13.598C14.2142 18.9084 14.8304 20.8315 15.1385 22.1136C15.7547 23.7162 15.4466 24.0367 14.2142 24.3572H13.2899V24.9983H13.598Z" fill="#055D77"/>
<path d="M33.0084 12.4978C33.0084 11.2157 32.7003 10.8952 32.0841 10.8952L31.1598 10.5746V9.61309C33.0084 9.61309 35.7814 9.29257 37.63 8.97205V21.1518C37.63 22.7544 37.63 23.0749 38.8624 23.0749H40.0948V24.0364C37.9381 24.357 35.7814 24.998 33.9328 25.3185H33.0084V23.0749C32.3922 23.7159 31.776 24.0365 31.1598 24.357C30.2355 24.998 29.3112 25.3185 28.0788 25.3185C25.3059 25.3185 23.7654 23.3954 23.7654 20.5107V12.4978C23.7654 11.2157 23.4573 10.8952 22.8411 10.8952L21.9167 10.5746V9.61309C23.4573 9.61309 26.2302 9.29257 28.0788 8.97205V19.8697C28.0788 22.1133 29.0031 22.7544 30.5436 22.7544C31.4679 22.7544 32.3922 22.4339 33.6247 21.4723V12.4978" fill="#055D77"/>
<path d="M45.6406 19.5495C45.6406 22.4342 46.873 22.7547 47.4892 22.7547C48.1054 22.7547 48.7216 22.4342 49.3378 22.1137L49.954 23.0752L46.873 24.6778C46.5649 25.3188 45.9487 25.3188 45.6406 25.3188C42.8677 25.3188 41.6352 24.0368 41.6352 20.8316V10.8956H39.4785L39.1704 10.5751L40.4028 9.29305H41.6352V7.04943L45.3325 4.16479L45.9487 4.48531V9.29305H49.3378C49.6459 9.61356 49.6459 10.8956 49.0297 11.2161H45.9487V19.5495" fill="#055D77"/>
<path d="M56.7323 11.217C57.9648 9.93496 59.5053 8.97342 61.3539 8.97342C64.4349 8.97342 66.2835 10.8965 66.2835 14.4221V21.7939C66.2835 23.717 66.5916 24.0375 68.4402 24.0375V24.9991H60.4296V24.0375C61.9701 23.717 62.2782 23.717 62.2782 21.7939V15.0632C62.2782 12.8196 61.0458 11.858 59.5053 11.858C58.581 11.858 57.6567 12.1786 56.7323 13.1401V22.1145C56.7323 24.0375 57.0405 24.358 58.2729 24.358V25.3196H49.9541V24.358C52.1108 24.0375 52.4189 24.0375 52.4189 22.1145V4.80676C52.4189 2.56317 52.4189 2.56317 50.2622 2.56317V1.60163C51.8027 1.28112 54.5756 0.960606 56.7323 0.31958V11.217" fill="#055D77"/>
<path d="M73.9863 16.0236C73.9863 12.1773 75.5268 10.2541 76.7592 10.2541C78.9159 10.2541 80.1483 13.1389 80.1483 17.9467C80.1483 23.0752 78.6078 24.0367 77.3754 24.0367C75.2187 24.0367 73.9863 20.5109 73.9863 16.0236ZM77.3754 8.65149C73.3701 8.65149 69.3647 11.5362 69.3647 17.3057C69.3647 21.152 72.1377 25.3188 77.3754 25.3188C81.3807 25.3188 85.386 22.4341 85.386 16.6646C85.0779 12.4978 81.9969 8.65149 77.3754 8.65149V8.65149Z" fill="#055D77"/>
<path d="M92.4724 21.4723C92.4724 23.3954 92.7805 23.7159 95.2453 23.7159V24.6774H86.0022V23.7159C88.1589 23.3954 88.467 23.3954 88.467 21.4723V13.4593C88.467 11.2156 88.467 11.2156 86.3103 10.8951V9.93357C88.467 9.61305 90.6237 9.29253 92.7805 8.65149V12.4977C93.0886 11.8567 93.7048 10.8951 94.321 10.2541C94.9372 9.61305 95.8615 8.97201 96.4777 8.97201C97.7101 8.97201 98.9425 9.93357 98.9425 11.2156C98.9425 12.4977 98.3263 13.4593 97.402 13.7798C97.0939 14.1003 96.4777 13.7798 96.4777 13.7798C95.8615 13.1388 95.2453 13.1388 94.6291 13.1388C94.0129 13.1388 93.3967 13.4593 92.7805 15.0619V21.4723" fill="#055D77"/>
<path d="M101.407 13.4597C101.407 11.2161 101.407 11.2161 99.2505 10.8956V9.93402C101.407 9.61351 103.564 9.29299 105.721 8.65197V21.152C105.721 23.075 106.029 23.3955 108.185 23.716V24.6776H99.2505V23.716C101.407 23.3955 101.715 23.3955 101.715 21.152V13.4597H101.407ZM105.721 3.20326C105.721 4.80582 104.488 5.76736 103.256 5.76736C102.023 5.76736 100.791 4.48531 100.791 3.20326C100.791 1.92121 102.023 0.63916 103.256 0.63916C104.488 0.63916 105.721 1.6007 105.721 3.20326Z" fill="#055D77"/>
<path d="M121.742 9.29353L122.05 9.93455L114.039 23.7166H116.812C119.277 23.7166 120.202 23.3961 121.126 21.1525L121.742 20.191L122.974 20.5115C122.358 22.4346 122.05 23.7166 121.434 24.9987H109.11L108.494 24.3576L116.812 10.5756H114.348C112.191 10.5756 111.575 11.2166 110.65 12.8192L110.034 13.7807L108.802 13.1397C109.11 11.8576 109.726 9.61404 110.034 8.01147H110.65C110.958 8.6525 111.267 8.6525 112.499 8.6525H121.742" fill="#055D77"/>
<path d="M126.98 14.7415C127.288 12.1773 128.52 10.5746 129.753 10.5746C130.985 10.5746 132.218 12.4978 132.218 13.7799C132.218 14.421 132.218 14.7415 131.602 14.7415H126.98ZM135.607 20.8315C134.066 21.793 133.142 22.1136 131.91 22.1136C129.137 22.1136 126.98 20.1904 126.98 16.3441C130.369 16.3441 134.991 16.0236 135.607 15.7031C136.223 15.7031 136.531 15.3825 136.531 14.1004C136.531 11.2157 134.066 8.65149 131.293 8.65149C126.98 8.65149 123.283 12.4978 123.283 17.6262C123.283 21.793 126.056 25.3188 130.677 25.3188C131.91 25.3188 134.683 24.6778 136.531 21.4725L135.607 20.8315V20.8315Z" fill="#055D77"/>
<path d="M137.147 22.4349C137.147 20.8323 138.38 19.5502 139.612 19.5502C141.153 19.5502 142.385 20.8323 142.385 22.4349C142.385 24.0375 141.153 25.3196 139.612 25.3196C138.38 25.3196 137.147 24.3581 137.147 22.4349Z" fill="#12A9CC"/>
<path d="M164.568 25.3192H162.411L148.855 7.69082V15.0627C148.855 18.9089 149.163 20.832 149.163 21.7936C149.471 23.0756 150.087 23.3961 152.552 23.7167V24.6782H143.925V23.7167C145.774 23.7167 146.39 23.0756 146.698 21.7936C147.006 20.832 147.006 18.5884 147.006 15.0627V8.01134C147.006 5.76772 147.006 4.80616 146.39 3.84461C145.774 2.88306 144.85 2.88306 143.617 2.56255V1.28048H149.471L162.72 17.3063V10.896C162.72 7.04978 162.411 5.12668 162.411 4.16513C162.103 2.88306 161.487 2.56254 159.022 2.24203V0.959961H167.649V2.88306C165.801 2.88306 165.184 3.5241 164.876 4.80617C164.876 6.08823 164.568 8.01134 164.568 11.537V25.3192" fill="#12A9CC"/>
<path d="M170.114 14.7415C170.422 12.1773 171.654 10.5746 172.887 10.5746C174.119 10.5746 175.352 12.4978 175.352 13.7799C175.352 14.421 175.352 14.7415 174.735 14.7415H170.114ZM178.433 20.8315C177.2 21.793 175.968 22.1136 174.735 22.1136C172.271 22.1136 169.806 20.1904 169.806 16.3441C173.195 16.3441 177.817 16.0236 178.433 15.7031C179.049 15.7031 179.357 15.3825 179.357 14.1004C179.357 11.2157 176.892 8.65149 174.119 8.65149C169.806 8.65149 166.109 12.4978 166.109 17.6262C166.109 21.793 168.882 25.3188 173.503 25.3188C174.735 25.3188 177.508 24.6778 179.357 21.4725L178.433 20.8315V20.8315Z" fill="#12A9CC"/>
<path d="M185.827 19.5495C185.827 22.4342 187.06 22.7547 187.676 22.7547C188.292 22.7547 188.908 22.4342 189.525 22.1137L190.141 23.0752L187.06 24.6778C186.444 25.3188 186.135 25.3188 185.827 25.3188C183.054 25.3188 181.822 24.0368 181.822 20.8316V10.8956H179.357L179.049 10.5751L180.281 9.29305H181.514V7.04943L185.211 4.16479L185.827 4.48531V9.29305H189.216C189.525 9.61356 189.525 10.8956 188.908 11.2161H185.827V19.5495Z" fill="#12A9CC"/>
<path d="M189.833 8.01077C189.524 8.01077 189.216 8.01077 188.908 7.69027C188.6 7.69027 188.292 7.36977 188.292 7.04927C187.984 6.72877 187.984 6.40828 187.984 6.08778C187.984 5.76728 187.984 5.44679 188.292 5.12629C188.6 4.80579 188.6 4.48529 188.908 4.48529C189.216 4.48529 189.524 4.16479 189.833 4.16479C190.141 4.16479 190.449 4.1648 190.757 4.48529C191.065 4.80579 191.373 4.80579 191.373 5.12629C191.681 5.44679 191.681 5.76728 191.681 6.08778C191.681 6.40828 191.681 6.72877 191.373 7.04927C191.065 7.36977 191.065 7.69027 190.757 7.69027C190.449 7.69027 190.141 8.01077 189.833 8.01077ZM189.833 7.69027C190.141 7.69027 190.449 7.69027 190.449 7.36977C190.757 7.36977 190.757 7.04928 191.065 6.72878C191.373 6.40828 191.373 6.08778 191.373 6.08778C191.373 5.76728 191.373 5.44678 191.065 5.44678C191.065 5.12629 190.757 5.12629 190.449 4.80579C190.141 4.80579 189.833 4.48529 189.833 4.48529C189.524 4.48529 189.216 4.48529 189.216 4.80579C188.908 4.80579 188.908 5.12629 188.6 5.44678C188.6 5.76728 188.292 6.08778 188.292 6.08778C188.292 6.40828 188.292 6.72878 188.6 6.72878C188.6 7.04928 188.908 7.04927 189.216 7.36977C189.524 7.69027 189.833 7.69027 189.833 7.69027ZM189.524 7.04927H189.216V4.80579H190.141L190.449 5.12629V5.76728L190.141 6.08778L190.449 6.40828L190.757 7.04927H190.449L190.141 6.40828C190.141 6.40828 190.141 6.08778 189.833 6.08778H189.524V7.04927V7.04927ZM189.524 6.08778H190.141V5.76728V5.44678H189.524V6.08778V6.08778Z" fill="#12A9CC"/>
</svg>
