<svg width="75" height="86" viewBox="0 0 75 86" fill="none" xmlns="http://www.w3.org/2000/svg">
<path d="M72.1482 69.2893L72.146 69.2944C71.5011 70.7286 70.1547 71.6098 68.5716 71.6098H5.86562C4.28683 71.6098 2.93644 70.7292 2.29125 69.2944L2.2901 69.2919C1.64692 67.8507 1.90432 66.2573 2.95909 65.0865L72.1482 69.2893ZM72.1482 69.2893C72.7846 67.8527 72.5355 66.2549 71.4763 65.0845C71.4763 65.0844 71.4762 65.0844 71.4762 65.0844L62.615 55.2398C62.6147 55.2395 62.6144 55.2391 62.6141 55.2387C62.5371 55.1519 62.4925 55.034 62.4925 54.9215V27.213C62.4925 13.2766 51.153 1.94087 37.2204 1.94087C23.2808 1.94087 11.9411 13.2764 11.9411 27.213V54.9215C11.9411 55.0383 11.895 55.1554 11.8236 55.2343L11.8215 55.2366L2.95964 65.0859L72.1482 69.2893ZM63.4334 54.3572V54.7412L63.6903 55.0264L72.1793 64.4522C73.4828 65.9032 73.7981 67.8946 73.0049 69.6702C72.2067 71.4561 70.5199 72.5506 68.5716 72.5506H5.86562C3.91211 72.5506 2.22384 71.4549 1.43338 69.6726L1.43229 69.6702C0.638677 67.8935 0.951681 65.903 2.25707 64.4531C2.2571 64.4531 2.25712 64.4531 2.25715 64.453L10.7469 55.0264L11.0038 54.7412V54.3572V27.213C11.0038 12.7607 22.7609 1 37.2204 1C51.6762 1 63.4334 12.7606 63.4334 27.213V54.3572ZM25.428 83.3769H49.0056C50.354 83.3769 51.4561 82.2849 51.4561 80.9299C51.4561 79.573 50.3557 78.4794 49.0056 78.4794H25.428C24.0779 78.4794 22.9775 79.573 22.9775 80.9299C22.9775 82.2849 24.0795 83.3769 25.428 83.3769ZM25.428 77.5385H49.0056C50.878 77.5385 52.4006 79.0597 52.4006 80.9299C52.4006 82.7971 50.8774 84.3213 49.0056 84.3213H25.428C23.5592 84.3213 22.033 82.7966 22.033 80.9299C22.033 79.0602 23.5587 77.5385 25.428 77.5385Z" fill="#FCBF24" stroke="#FCBF24" stroke-width="2"/>
</svg>
