<svg width="56" height="62" viewBox="0 0 56 62" fill="none" xmlns="http://www.w3.org/2000/svg">
<path d="M54.3074 50.0726L54.305 50.0778C53.7832 51.2151 52.6959 51.9047 51.4378 51.9047H5.31311C4.05836 51.9047 2.96798 51.2158 2.44587 50.0778L2.44469 50.0752C1.92207 48.9275 2.13491 47.654 2.98531 46.7288L54.3074 50.0726ZM54.3074 50.0726C54.8237 48.9302 54.6189 47.6543 53.7653 46.7285C53.7647 46.7279 53.7642 46.7272 53.7636 46.7266L47.2469 39.6309C47.2468 39.6307 47.2466 39.6305 47.2464 39.6302C47.242 39.6252 47.2375 39.6182 47.2343 39.6101C47.231 39.6017 47.2306 39.596 47.2306 39.5946V19.6187C47.2306 9.39847 38.7521 1.12016 28.3768 1.12016C17.9963 1.12016 9.5176 9.39828 9.5176 19.6187V39.5946C9.5176 39.5974 9.5169 39.604 9.51374 39.6122C9.51225 39.616 9.51068 39.619 9.50936 39.6211C9.50793 39.6235 9.50678 39.6249 9.50633 39.6254L9.50422 39.6277L2.98587 46.7281L54.3074 50.0726ZM47.3938 39.1878V39.5775L47.6575 39.8644L53.9015 46.6595C53.9016 46.6596 53.9018 46.6598 53.9019 46.6599C54.7857 47.6245 54.9944 48.9352 54.4605 50.1066C53.9208 51.29 52.7775 52.0249 51.4378 52.0249H5.31311C3.96906 52.0249 2.82534 51.2887 2.29154 50.1091L2.29042 50.1066C1.75594 48.934 1.96345 47.6238 2.84853 46.6604C2.84855 46.6604 2.84857 46.6603 2.8486 46.6603L9.09338 39.8644L9.35705 39.5775V39.1878V19.6187C9.35705 9.37255 17.8678 1 28.3768 1C38.883 1 47.3938 9.37246 47.3938 19.6187V39.1878ZM19.7026 60.388H37.0456C38.1636 60.388 39.1126 59.4955 39.1126 58.3448C39.1126 57.1932 38.1652 56.2991 37.0456 56.2991H19.7026C18.583 56.2991 17.6356 57.1932 17.6356 58.3448C17.6356 59.4955 18.5846 60.388 19.7026 60.388ZM19.7026 56.1789H37.0456C38.2962 56.1789 39.2784 57.1698 39.2784 58.3448C39.2784 59.5178 38.2956 60.5107 37.0456 60.5107H19.7026C18.4547 60.5107 17.4698 59.5173 17.4698 58.3448C17.4698 57.1703 18.4542 56.1789 19.7026 56.1789Z" fill="#FCCC53" stroke="#FCCC53" stroke-width="2"/>
</svg>
