<svg width="52" height="53" viewBox="0 0 52 53" fill="none" xmlns="http://www.w3.org/2000/svg">
<path d="M51.5791 21.7544C51.4949 21.2704 51.0741 20.8916 50.5901 20.8706C50.569 20.8706 50.4848 20.8706 50.4638 20.8706H49.4958C48.675 20.8706 47.8333 20.8706 46.9915 20.8706C46.4654 18.682 45.6026 16.6196 44.4241 14.6836L44.7187 14.389C45.4553 13.6524 46.1918 12.8948 46.9494 12.1793C47.3282 11.8216 47.3703 11.2324 47.0757 10.8115C45.4132 8.49662 43.393 6.49743 41.0781 4.83495C40.6572 4.54033 40.068 4.58242 39.7102 4.96121C39.3104 5.38209 38.8895 5.78193 38.4897 6.18177C38.0478 6.60265 37.6269 7.04458 37.206 7.48651C35.2699 6.30803 33.1866 5.46627 30.998 4.94017C30.998 4.64555 30.998 4.32989 30.998 4.03527V3.53021C30.998 3.48812 30.998 3.44603 30.998 3.40395V2.79367C30.998 2.35174 30.998 1.88877 30.998 1.38371C30.998 0.857609 30.6192 0.415682 30.1141 0.331506C27.3784 -0.110421 24.5374 -0.110421 21.8017 0.331506C21.2756 0.415682 20.8968 0.899697 20.9179 1.44684C20.9389 1.88877 20.9389 2.35174 20.9179 2.79367V3.40395C20.9179 3.44603 20.9179 3.48812 20.9179 3.53021V4.03527C20.9179 4.35093 20.9179 4.64555 20.9179 4.94017C18.7293 5.46627 16.6459 6.30803 14.7098 7.48651C14.289 7.04458 13.847 6.6237 13.4261 6.18177C13.0263 5.78193 12.6054 5.36105 12.2056 4.96121C11.8478 4.58242 11.2586 4.54033 10.8377 4.83495C8.52287 6.49743 6.50263 8.51767 4.84015 10.8115C4.52448 11.2324 4.58762 11.8216 4.96641 12.1793C5.724 12.9159 6.46054 13.6524 7.19709 14.389L7.4917 14.6836C6.31323 16.5986 5.45043 18.682 4.92432 20.8706C4.08256 20.8495 3.24079 20.8495 2.42007 20.8706H1.45204C1.431 20.8706 1.34682 20.8706 1.32578 20.8706C0.82072 20.8916 0.399838 21.2704 0.336706 21.7544C0.105221 23.1433 0 24.5743 0 26.0053C0 27.4153 0.105221 28.8463 0.336706 30.2352C0.420882 30.7192 0.799676 31.077 1.28369 31.119C1.36787 31.119 1.47309 31.1401 1.55726 31.1401C2.27276 31.1401 2.96722 31.1401 3.68272 31.1401C4.1036 31.1401 4.52448 31.1401 4.94537 31.1401C5.47147 33.3497 6.35532 35.4541 7.55484 37.3902C7.07082 37.8532 6.58681 38.3372 6.12384 38.8212L5.32416 39.6209C5.1979 39.7471 5.09268 39.8524 5.0085 39.9365C4.67179 40.3153 4.6297 40.8625 4.92432 41.2623C6.58681 43.5561 8.586 45.5343 10.8798 47.1967C11.2796 47.4914 11.8478 47.4493 12.2056 47.1126C12.2477 47.0705 12.2898 47.0284 12.3108 47.0074C12.7948 46.5023 13.2788 46.0183 13.7629 45.5343C14.0785 45.2186 14.4152 44.8819 14.7309 44.5662C16.6669 45.7447 18.7503 46.6075 20.9599 47.1336C20.9599 47.7229 20.9599 48.3121 20.9599 48.9224C20.9599 49.4906 20.9599 50.0377 20.9599 50.6269C20.9599 50.648 20.9599 50.7532 20.9599 50.7742C20.981 51.2583 21.3598 51.6791 21.8438 51.7423C23.1906 51.9527 24.6006 52.079 25.9895 52.079C27.3784 52.079 28.7673 51.9738 30.1352 51.7423C30.6192 51.6581 30.998 51.2583 31.019 50.7742C31.019 50.7532 31.019 50.6269 31.019 50.6059C31.019 50.0377 31.019 49.4906 31.019 48.9224C31.019 48.3331 31.019 47.7439 31.019 47.1336C33.2287 46.6075 35.312 45.7447 37.2481 44.5662C37.5637 44.9029 37.9005 45.2186 38.2161 45.5343C38.7001 46.0183 39.1841 46.5023 39.6682 46.9863C39.7102 47.0284 39.7523 47.0705 39.7944 47.1126C40.1732 47.4493 40.7204 47.4914 41.1202 47.1967C43.414 45.5553 45.4342 43.5561 47.0757 41.2623C47.3703 40.8625 47.3282 40.2943 46.9915 39.9365C46.9073 39.8524 46.8021 39.7261 46.6758 39.6209L45.8762 38.8212C45.4132 38.3582 44.9292 37.8742 44.4452 37.3902C45.6447 35.4541 46.5075 33.3497 47.0546 31.1401C47.4755 31.1401 47.8964 31.1401 48.3173 31.1401C49.0328 31.1401 49.7272 31.1401 50.4217 31.1401C50.5269 31.1401 50.6321 31.1401 50.7163 31.1401C51.2003 31.098 51.5791 30.7402 51.6633 30.2562C51.8948 28.8673 52 27.4574 52 26.0264C51.9158 24.5743 51.8106 23.1644 51.5791 21.7544ZM49.622 28.9936C49.159 28.9936 48.6961 28.9936 48.2331 28.9936C47.5807 28.9936 46.9284 28.9936 46.255 28.9936C46.1708 28.9936 46.1077 28.9936 46.0445 28.9936C45.5605 29.0357 45.1817 29.3724 45.0765 29.8354C44.5714 32.3606 43.5824 34.7386 42.1303 36.8851C41.8778 37.2429 41.8988 37.7269 42.1303 38.0846C42.2145 38.2109 42.3197 38.3372 42.467 38.4634C43.0773 39.0527 43.6876 39.663 44.2979 40.2732L44.7398 40.7152C43.5192 42.2724 42.1093 43.6824 40.531 44.9029C40.2363 44.6083 39.9207 44.2927 39.6261 43.998C39.1631 43.5351 38.7212 43.0931 38.2582 42.6302C38.1319 42.5039 38.0057 42.3776 37.8584 42.2935C37.5006 42.062 37.0587 42.062 36.7009 42.2935C34.5544 43.7245 32.1975 44.6925 29.6932 45.1765C29.2934 45.2607 28.9777 45.5553 28.8725 45.9551C28.8304 46.1445 28.8094 46.355 28.8094 46.5865C28.8304 47.3441 28.8304 48.0806 28.8304 48.8382C28.8304 49.1328 28.8304 49.4064 28.8304 49.701C26.9154 49.9325 24.9373 49.9325 23.0012 49.701C23.0012 49.4064 23.0012 49.1328 23.0012 48.8382C23.0012 48.0806 23.0012 47.3441 23.0223 46.5865C23.0223 46.355 23.0012 46.1445 22.9591 45.9551C22.8539 45.5553 22.5382 45.2396 22.1384 45.1765C19.6131 44.6925 17.2562 43.7245 15.1307 42.2935C14.773 42.062 14.331 42.062 13.9733 42.2935C13.826 42.3776 13.6997 42.5039 13.5735 42.6302C13.1315 43.0931 12.6686 43.5561 12.2056 43.998C11.911 44.2927 11.5953 44.5873 11.3007 44.9029C9.72238 43.6824 8.31242 42.2724 7.09187 40.7152L7.53379 40.2732C8.14407 39.663 8.73331 39.0527 9.36463 38.4634C9.4909 38.3372 9.59612 38.2109 9.68029 38.0846C9.93282 37.7269 9.93282 37.2639 9.68029 36.8851C8.22825 34.7386 7.23918 32.3606 6.73412 29.8354C6.64994 29.3724 6.2501 29.0146 5.76609 28.9936C5.70295 28.9936 5.61878 28.9725 5.5346 28.9936C4.88223 28.9936 4.22987 28.9936 3.5775 28.9936C3.11453 28.9936 2.6726 28.9936 2.18859 28.9936C2.06232 28.0045 1.99919 26.9944 1.99919 26.0053C1.99919 24.9952 2.06232 23.9851 2.18859 22.996H2.3359C3.28288 22.996 4.27196 22.996 5.23998 23.0171C5.51356 23.0171 5.74504 22.996 5.95548 22.9539C6.35532 22.8487 6.64994 22.533 6.71307 22.1332C7.21813 19.65 8.18616 17.3141 9.59612 15.1886C9.8276 14.8309 9.8276 14.389 9.61716 14.0312C9.46985 13.7997 9.28045 13.6103 9.02792 13.3578L8.60704 12.9369C8.08094 12.4108 7.55484 11.8847 7.02873 11.3586C8.27034 9.73822 9.70134 8.32827 11.3007 7.08667C11.4901 7.27606 11.7005 7.48651 11.8899 7.6759C12.416 8.20201 12.9421 8.72811 13.4472 9.25421C13.5945 9.40152 13.826 9.61196 14.1416 9.75927C14.4783 9.90658 14.8571 9.86449 15.1518 9.67509C17.2772 8.26514 19.6131 7.29711 22.1174 6.81309C22.5172 6.72892 22.8329 6.4343 22.9381 6.05551C22.9802 5.86611 23.0012 5.67671 23.0012 5.44523C22.9802 4.96121 22.9802 4.49824 23.0012 4.01423V3.36186C23.0012 3.31977 23.0012 3.27768 23.0012 3.23559V2.77262C23.0012 2.60427 23.0012 2.43592 23.0012 2.26756C24.9373 2.03608 26.8944 2.03608 28.8304 2.26756C28.8304 2.43592 28.8304 2.60427 28.8304 2.77262V3.23559C28.8304 3.27768 28.8304 3.31977 28.8304 3.36186V4.01423C28.8304 4.49824 28.8304 4.96121 28.8304 5.44523C28.8304 5.67671 28.8515 5.86611 28.8936 6.05551C28.9988 6.4343 29.3145 6.74996 29.7143 6.81309C32.2185 7.29711 34.5544 8.26514 36.6799 9.67509C36.9745 9.86449 37.3533 9.90658 37.69 9.75927C38.0057 9.61196 38.2372 9.40152 38.3845 9.25421C38.8895 8.72811 39.4156 8.20201 39.9417 7.6759C40.1311 7.48651 40.3416 7.27606 40.531 7.08667C42.1303 8.32827 43.5613 9.73822 44.7819 11.3165C44.2558 11.8426 43.7297 12.3687 43.2036 12.8948L42.7827 13.3157C42.5302 13.5683 42.3408 13.7577 42.1935 13.9891C41.962 14.3469 41.983 14.7888 42.2145 15.1466C43.6245 17.272 44.5925 19.6079 45.0975 22.0911C45.1817 22.491 45.4763 22.8066 45.8551 22.9118C46.0656 22.975 46.2971 22.996 46.5706 22.975C47.5387 22.9329 48.5277 22.9539 49.4747 22.9539H49.622C49.7483 23.943 49.8114 24.9742 49.8114 25.9632C49.8114 27.0154 49.7483 28.0045 49.622 28.9936Z" fill="#FCBF24"/>
<path d="M36.9955 18.0296C36.1327 16.809 35.0595 15.7568 33.8389 14.894C32.1343 13.6734 30.1351 12.8527 28.0728 12.516C26.6418 12.2845 25.1477 12.2845 23.7167 12.516C21.6544 12.8527 19.6552 13.6734 17.9506 14.894C16.73 15.7568 15.6778 16.8301 14.794 18.0296C13.5734 19.7342 12.7527 21.7123 12.395 23.7746C12.2687 24.5112 12.2056 25.2477 12.2056 26.0053C12.2056 26.7418 12.2687 27.4994 12.3739 28.2149C12.7106 30.2983 13.5524 32.2975 14.794 34.0021C15.6568 35.2016 16.709 36.2538 17.9296 37.1166C19.6341 38.3371 21.6333 39.1579 23.6956 39.4946C24.4111 39.5998 25.1477 39.6629 25.8632 39.6629C26.5787 39.6629 27.3152 39.5998 28.0307 39.4946C30.0931 39.1579 32.0922 38.3371 33.7968 37.1166C34.9963 36.2538 36.0485 35.2016 36.9324 34.0021C38.174 32.2975 39.0158 30.2983 39.3525 28.2149C39.4787 27.4784 39.5208 26.7418 39.5208 26.0053C39.5208 25.2477 39.4577 24.5112 39.3314 23.7746C39.0578 21.7123 38.2161 19.7342 36.9955 18.0296ZM37.3112 27.8782C37.0166 29.6249 36.3221 31.3295 35.2699 32.7605C34.5334 33.7706 33.6495 34.6544 32.6183 35.391C31.1873 36.4221 29.5038 37.1166 27.7572 37.3902C26.5366 37.5796 25.295 37.5796 24.0744 37.3902C22.3278 37.1166 20.6442 36.4221 19.1922 35.391C18.1821 34.6544 17.2772 33.7706 16.5406 32.7605C15.4884 31.3084 14.794 29.6249 14.4994 27.8782C14.3941 27.2679 14.3521 26.6366 14.3521 26.0053C14.3521 25.374 14.3941 24.7427 14.4994 24.1113C14.794 22.3647 15.4884 20.6811 16.5196 19.2501C17.2561 18.219 18.161 17.3351 19.1922 16.5986C20.6232 15.5674 22.3067 14.873 24.0534 14.5994C24.6637 14.4942 25.274 14.4521 25.9053 14.4521C26.5366 14.4521 27.1469 14.4942 27.7572 14.5994C29.5038 14.873 31.1873 15.5674 32.6183 16.5986C33.6495 17.3351 34.5544 18.24 35.291 19.2501C36.3221 20.6811 37.0166 22.3647 37.3112 24.1113C37.4164 24.7216 37.4585 25.3529 37.4585 26.0053C37.4585 26.6366 37.3954 27.2679 37.3112 27.8782Z" fill="#FCBF24"/>
<path d="M31.2715 21.3335L23.8008 28.4253L20.5811 25.0793C20.1812 24.6584 19.5078 24.6374 19.0869 25.0583C18.6661 25.4581 18.645 26.1315 19.0659 26.5524L23.0222 30.656C23.2326 30.8665 23.5062 30.9717 23.7798 30.9717C24.0323 30.9717 24.3059 30.8665 24.5163 30.6771L32.7656 22.8486C33.1865 22.4488 33.2075 21.7754 32.8077 21.3545C32.3658 20.9336 31.7134 20.9126 31.2715 21.3335Z" fill="#FCBF24"/>
</svg>
