<svg width="90" height="45" viewBox="0 0 90 45" fill="none" xmlns="http://www.w3.org/2000/svg">
<path d="M89.9359 44.1646C89.974 44.0483 90 43.9257 90 43.7966V1.20183C90 1.07194 89.974 0.948475 89.935 0.831419C89.9294 0.815383 89.9261 0.799347 89.9196 0.783312C89.8676 0.646212 89.7913 0.522743 89.6955 0.414507C89.689 0.407291 89.6882 0.398472 89.6817 0.391256C89.6776 0.387247 89.6728 0.385643 89.6687 0.381634C89.5664 0.274199 89.4454 0.18761 89.3098 0.122668C89.2992 0.117858 89.2911 0.111443 89.2805 0.106633C89.1523 0.0497082 89.0126 0.0176388 88.8656 0.00801772C88.851 0.00721596 88.8372 0.00400809 88.8226 0.00400809C88.8088 0.00320634 88.7966 0 88.7828 0H21.2188C21.205 0 21.192 0.00320634 21.1782 0.00400809C21.1652 0.00480985 21.1523 0.00721596 21.1393 0.00801772C20.9907 0.0176388 20.8486 0.0505106 20.7186 0.108237C20.7105 0.111444 20.704 0.117056 20.6959 0.120263C20.5579 0.185205 20.4352 0.273397 20.3321 0.382436C20.3281 0.386444 20.3232 0.387247 20.3191 0.391256C20.3126 0.39767 20.3118 0.406489 20.3053 0.413705C20.2095 0.521942 20.1324 0.646212 20.0804 0.783312C20.0739 0.799347 20.0706 0.815383 20.065 0.83222C20.026 0.949276 20 1.07275 20 1.20263V43.7982C20 43.9297 20.0268 44.0547 20.0666 44.1734C20.0723 44.1894 20.0755 44.2047 20.0812 44.2207C20.134 44.3586 20.2119 44.4829 20.3086 44.5911C20.3143 44.5975 20.3159 44.6055 20.3216 44.6119C20.3264 44.6176 20.3329 44.6208 20.3386 44.6264C20.3784 44.6673 20.4222 44.7034 20.4677 44.7386C20.488 44.7539 20.5059 44.7723 20.527 44.7867C20.5806 44.8236 20.6382 44.8533 20.6975 44.8805C20.7121 44.887 20.7251 44.8974 20.7397 44.903C20.8867 44.9647 21.0483 45 21.218 45H88.7812C88.9509 45 89.1125 44.9655 89.2594 44.903C89.2822 44.8934 89.3033 44.8789 89.3252 44.8677C89.3756 44.8429 89.4259 44.8172 89.4722 44.7859C89.4966 44.7691 89.5185 44.7474 89.542 44.729C89.5834 44.6961 89.624 44.6633 89.6598 44.6256C89.6663 44.6192 89.6736 44.6144 89.6801 44.6079C89.6866 44.6007 89.6882 44.5911 89.6947 44.5839C89.7897 44.4765 89.866 44.353 89.918 44.2167C89.9261 44.1991 89.9302 44.1822 89.9359 44.1646ZM22.4369 3.92939L42.9379 22.4186L22.4369 41.0554V3.92939ZM64.4555 21.5126C64.3711 21.5672 64.2818 21.6129 64.2111 21.6898C64.1843 21.7187 64.1754 21.7564 64.1518 21.7868L55.0004 30.0401L24.3581 2.40446H85.6427L64.4555 21.5126ZM44.7438 24.047L54.1786 32.556C54.4117 32.766 54.7056 32.8711 55.0004 32.8711C55.2952 32.8711 55.5891 32.766 55.8214 32.556L65.1393 24.1528L85.637 42.5947H24.3402L44.7438 24.047ZM66.946 22.5237L87.5639 3.92939V41.0746L66.946 22.5237Z" fill="#FCBF24"/>
<rect y="11" width="17" height="2" rx="1" fill="#FCBF24"/>
<rect y="23" width="17" height="2" rx="1" fill="#FCBF24"/>
<rect y="35" width="17" height="2" rx="1" fill="#FCBF24"/>
</svg>
