<svg width="43" height="42" viewBox="0 0 43 42" fill="none" xmlns="http://www.w3.org/2000/svg">
<path d="M41.7261 17.4766C41.6585 17.0877 41.3204 16.7834 40.9316 16.7665C40.9146 16.7665 40.847 16.7665 40.8301 16.7665H40.0524C39.3931 16.7665 38.7169 16.7665 38.0406 16.7665C37.618 15.0083 36.9248 13.3515 35.9781 11.7962L36.2148 11.5595C36.8065 10.9678 37.3982 10.3591 38.0068 9.78434C38.3111 9.49694 38.3449 9.02357 38.1083 8.68545C36.7727 6.82579 35.1497 5.21973 33.2901 3.88415C32.9519 3.64747 32.4786 3.68128 32.1912 3.98559C31.8699 4.32371 31.5318 4.64492 31.2106 4.96614C30.8556 5.30426 30.5175 5.65928 30.1793 6.01431C28.624 5.06757 26.9503 4.39133 25.1921 3.96868C25.1921 3.732 25.1921 3.47841 25.1921 3.24172V2.83598C25.1921 2.80217 25.1921 2.76836 25.1921 2.73454V2.24427C25.1921 1.88924 25.1921 1.51731 25.1921 1.11157C25.1921 0.688919 24.8878 0.333893 24.482 0.266269C22.2842 -0.0887564 20.0019 -0.0887564 17.8042 0.266269C17.3815 0.333893 17.0772 0.722731 17.0941 1.16229C17.111 1.51731 17.111 1.88924 17.0941 2.24427V2.73454C17.0941 2.76836 17.0941 2.80217 17.0941 2.83598V3.24172C17.0941 3.49531 17.0941 3.732 17.0941 3.96868C15.3359 4.39133 13.6622 5.06757 12.1068 6.01431C11.7687 5.65928 11.4137 5.32116 11.0756 4.96614C10.7544 4.64492 10.4162 4.3068 10.095 3.98559C9.80762 3.68128 9.33426 3.64747 8.99614 3.88415C7.13648 5.21973 5.5135 6.8427 4.17793 8.68545C3.92434 9.02357 3.97506 9.49694 4.27936 9.78434C4.88798 10.3761 5.47969 10.9678 6.0714 11.5595L6.30808 11.7962C5.36135 13.3346 4.6682 15.0083 4.24555 16.7665C3.56931 16.7496 2.89307 16.7496 2.23374 16.7665H1.45606C1.43916 16.7665 1.37153 16.7665 1.35463 16.7665C0.948884 16.7834 0.610765 17.0877 0.560047 17.4766C0.374081 18.5924 0.289551 19.742 0.289551 20.8916C0.289551 22.0243 0.374081 23.1739 0.560047 24.2897C0.627671 24.6785 0.931978 24.9659 1.32082 24.9997C1.38844 24.9997 1.47297 25.0166 1.54059 25.0166C2.1154 25.0166 2.6733 25.0166 3.2481 25.0166C3.58622 25.0166 3.92434 25.0166 4.26246 25.0166C4.68511 26.7918 5.39516 28.4824 6.3588 30.0377C5.96996 30.4097 5.58113 30.7985 5.20919 31.1873L4.56677 31.8298C4.46533 31.9312 4.3808 32.0157 4.31318 32.0833C4.04268 32.3877 4.00887 32.8272 4.24555 33.1484C5.58113 34.9912 7.18719 36.5803 9.02995 37.9159C9.35116 38.1526 9.80762 38.1188 10.095 37.8483C10.1288 37.8145 10.1627 37.7807 10.1796 37.7638C10.5684 37.358 10.9572 36.9692 11.3461 36.5803C11.5997 36.3267 11.8702 36.0563 12.1237 35.8027C13.6791 36.7494 15.3528 37.4425 17.1279 37.8652C17.1279 38.3386 17.1279 38.8119 17.1279 39.3022C17.1279 39.7587 17.1279 40.1982 17.1279 40.6716C17.1279 40.6885 17.1279 40.773 17.1279 40.7899C17.1448 41.1788 17.4491 41.5169 17.838 41.5676C18.92 41.7367 20.0527 41.8381 21.1684 41.8381C22.2842 41.8381 23.4 41.7536 24.4989 41.5676C24.8878 41.5 25.1921 41.1788 25.209 40.7899C25.209 40.773 25.209 40.6716 25.209 40.6547C25.209 40.1982 25.209 39.7587 25.209 39.3022C25.209 38.8288 25.209 38.3555 25.209 37.8652C26.9841 37.4425 28.6578 36.7494 30.2132 35.8027C30.4667 36.0732 30.7372 36.3267 30.9908 36.5803C31.3797 36.9692 31.7685 37.358 32.1573 37.7469C32.1912 37.7807 32.225 37.8145 32.2588 37.8483C32.5631 38.1188 33.0026 38.1526 33.3239 37.9159C35.1666 36.5972 36.7896 34.9912 38.1083 33.1484C38.3449 32.8272 38.3111 32.3707 38.0406 32.0833C37.973 32.0157 37.8885 31.9143 37.787 31.8298L37.1446 31.1873C36.7727 30.8154 36.3838 30.4266 35.995 30.0377C36.9586 28.4824 37.6518 26.7918 38.0914 25.0166C38.4295 25.0166 38.7676 25.0166 39.1057 25.0166C39.6805 25.0166 40.2384 25.0166 40.7963 25.0166C40.8808 25.0166 40.9654 25.0166 41.033 25.0166C41.4218 24.9828 41.7261 24.6954 41.7938 24.3066C41.9797 23.1908 42.0643 22.0581 42.0643 20.9085C41.9966 19.742 41.9121 18.6093 41.7261 17.4766ZM40.1539 23.2922C39.7819 23.2922 39.41 23.2922 39.0381 23.2922C38.514 23.2922 37.9899 23.2922 37.4489 23.2922C37.3813 23.2922 37.3306 23.2922 37.2799 23.2922C36.891 23.326 36.5867 23.5965 36.5022 23.9685C36.0964 25.9972 35.3019 27.9076 34.1353 29.632C33.9325 29.9194 33.9494 30.3082 34.1353 30.5956C34.203 30.6971 34.2875 30.7985 34.4058 30.8999C34.8961 31.3733 35.3864 31.8636 35.8767 32.3538L36.2317 32.7089C35.2511 33.9599 34.1184 35.0926 32.8505 36.0732C32.6138 35.8365 32.3602 35.5829 32.1235 35.3462C31.7516 34.9743 31.3966 34.6192 31.0246 34.2473C30.9232 34.1459 30.8218 34.0444 30.7034 33.9768C30.416 33.7908 30.061 33.7908 29.7736 33.9768C28.0492 35.1264 26.1557 35.9041 24.1439 36.2929C23.8227 36.3606 23.5691 36.5972 23.4846 36.9185C23.4508 37.0706 23.4339 37.2397 23.4339 37.4256C23.4508 38.0343 23.4508 38.626 23.4508 39.2346C23.4508 39.4713 23.4508 39.691 23.4508 39.9277C21.9123 40.1137 20.3232 40.1137 18.7678 39.9277C18.7678 39.691 18.7678 39.4713 18.7678 39.2346C18.7678 38.626 18.7678 38.0343 18.7847 37.4256C18.7847 37.2397 18.7678 37.0706 18.734 36.9185C18.6495 36.5972 18.3959 36.3437 18.0747 36.2929C16.0459 35.9041 14.1525 35.1264 12.445 33.9768C12.1576 33.7908 11.8025 33.7908 11.5151 33.9768C11.3968 34.0444 11.2954 34.1459 11.1939 34.2473C10.8389 34.6192 10.467 34.9912 10.095 35.3462C9.85834 35.5829 9.60475 35.8196 9.36807 36.0732C8.10012 35.0926 6.96742 33.9599 5.98687 32.7089L6.3419 32.3538C6.83217 31.8636 7.30554 31.3733 7.81272 30.8999C7.91415 30.7985 7.99868 30.6971 8.06631 30.5956C8.26918 30.3082 8.26918 29.9363 8.06631 29.632C6.89979 27.9076 6.10521 25.9972 5.69947 23.9685C5.63184 23.5965 5.31063 23.3091 4.92179 23.2922C4.87107 23.2922 4.80345 23.2753 4.73583 23.2922C4.21174 23.2922 3.68766 23.2922 3.16357 23.2922C2.79164 23.2922 2.43661 23.2922 2.04777 23.2922C1.94634 22.4976 1.89562 21.6862 1.89562 20.8916C1.89562 20.0801 1.94634 19.2686 2.04777 18.474H2.16612C2.92689 18.474 3.72147 18.474 4.49914 18.4909C4.71892 18.4909 4.90489 18.474 5.07395 18.4402C5.39516 18.3557 5.63184 18.1021 5.68256 17.7809C6.08831 15.786 6.86598 13.9094 7.99868 12.2019C8.18465 11.9145 8.18465 11.5595 8.01559 11.2721C7.89725 11.0861 7.74509 10.934 7.54222 10.7311L7.2041 10.393C6.78145 9.97031 6.3588 9.54766 5.93615 9.12501C6.93361 7.82325 8.08321 6.69055 9.36807 5.69309C9.52022 5.84525 9.68928 6.01431 9.84144 6.16646C10.2641 6.58911 10.6867 7.01176 11.0925 7.43441C11.2108 7.55275 11.3968 7.72181 11.6504 7.84015C11.9209 7.9585 12.2252 7.92468 12.4619 7.77253C14.1694 6.63983 16.0459 5.86215 18.0577 5.47331C18.379 5.40569 18.6326 5.16901 18.7171 4.8647C18.7509 4.71255 18.7678 4.56039 18.7678 4.37443C18.7509 3.98559 18.7509 3.61366 18.7678 3.22482V2.70073C18.7678 2.66692 18.7678 2.63311 18.7678 2.5993V2.22736C18.7678 2.09212 18.7678 1.95687 18.7678 1.82162C20.3232 1.63565 21.8954 1.63565 23.4508 1.82162C23.4508 1.95687 23.4508 2.09212 23.4508 2.22736V2.5993C23.4508 2.63311 23.4508 2.66692 23.4508 2.70073V3.22482C23.4508 3.61366 23.4508 3.98559 23.4508 4.37443C23.4508 4.56039 23.4677 4.71255 23.5015 4.8647C23.586 5.16901 23.8396 5.4226 24.1608 5.47331C26.1726 5.86215 28.0492 6.63983 29.7567 7.77253C29.9934 7.92468 30.2977 7.9585 30.5682 7.84015C30.8218 7.72181 31.0077 7.55275 31.1261 7.43441C31.5318 7.01176 31.9545 6.58911 32.3771 6.16646C32.5293 6.01431 32.6983 5.84525 32.8505 5.69309C34.1353 6.69055 35.285 7.82325 36.2655 9.0912C35.8429 9.51385 35.4202 9.9365 34.9976 10.3591L34.6594 10.6973C34.4566 10.9001 34.3044 11.0523 34.1861 11.2383C34.0001 11.5257 34.017 11.8807 34.203 12.1681C35.3357 13.8756 36.1133 15.7522 36.5191 17.7471C36.5867 18.0683 36.8234 18.3219 37.1277 18.4064C37.2968 18.4571 37.4827 18.474 37.7025 18.4571C38.4802 18.4233 39.2748 18.4402 40.0355 18.4402H40.1539C40.2553 19.2348 40.306 20.0632 40.306 20.8578C40.306 21.7031 40.2553 22.4976 40.1539 23.2922Z" fill="#FCCC53"/>
<path d="M30.0102 14.4841C29.3171 13.5036 28.4549 12.6583 27.4743 11.9651C26.1049 10.9846 24.4989 10.3253 22.8421 10.0548C21.6925 9.86879 20.4922 9.86879 19.3425 10.0548C17.6858 10.3253 16.0797 10.9846 14.7103 11.9651C13.7298 12.6583 12.8845 13.5205 12.1744 14.4841C11.1939 15.8535 10.5345 17.4427 10.2471 19.0995C10.1457 19.6912 10.095 20.2829 10.095 20.8915C10.095 21.4832 10.1457 22.0918 10.2302 22.6666C10.5007 24.3403 11.177 25.9464 12.1744 27.3158C12.8676 28.2794 13.7129 29.1247 14.6934 29.8179C16.0628 30.7984 17.6689 31.4577 19.3256 31.7282C19.9004 31.8128 20.4922 31.8635 21.067 31.8635C21.6418 31.8635 22.2335 31.8128 22.8083 31.7282C24.4651 31.4577 26.0711 30.7984 27.4405 29.8179C28.4042 29.1247 29.2495 28.2794 29.9595 27.3158C30.957 25.9464 31.6332 24.3403 31.9037 22.6666C32.0051 22.0749 32.0389 21.4832 32.0389 20.8915C32.0389 20.2829 31.9882 19.6912 31.8868 19.0995C31.667 17.4427 30.9908 15.8535 30.0102 14.4841ZM30.2638 22.3961C30.0271 23.7993 29.4692 25.1687 28.6239 26.3183C28.0322 27.1298 27.3222 27.8399 26.4938 28.4316C25.3442 29.26 23.9917 29.8179 22.5885 30.0376C21.608 30.1898 20.6105 30.1898 19.63 30.0376C18.2268 29.8179 16.8743 29.26 15.7078 28.4316C14.8963 27.8399 14.1693 27.1298 13.5776 26.3183C12.7323 25.1518 12.1744 23.7993 11.9377 22.3961C11.8532 21.9059 11.8194 21.3987 11.8194 20.8915C11.8194 20.3843 11.8532 19.8771 11.9377 19.37C12.1744 17.9668 12.7323 16.6143 13.5607 15.4647C14.1524 14.6363 14.8794 13.9262 15.7078 13.3345C16.8574 12.5061 18.2098 11.9482 19.613 11.7285C20.1033 11.6439 20.5936 11.6101 21.1008 11.6101C21.608 11.6101 22.0982 11.6439 22.5885 11.7285C23.9917 11.9482 25.3442 12.5061 26.4938 13.3345C27.3222 13.9262 28.0491 14.6532 28.6408 15.4647C29.4692 16.6143 30.0271 17.9668 30.2638 19.37C30.3484 19.8602 30.3822 20.3674 30.3822 20.8915C30.3822 21.3987 30.3314 21.9059 30.2638 22.3961Z" fill="#FCCC53"/>
<path d="M25.4119 17.1384L19.4102 22.8357L16.8236 20.1476C16.5024 19.8095 15.9614 19.7926 15.6233 20.1307C15.2852 20.4519 15.2683 20.9929 15.6064 21.331L18.7847 24.6277C18.9538 24.7968 19.1735 24.8813 19.3933 24.8813C19.5962 24.8813 19.816 24.7968 19.985 24.6446L26.6122 18.3556C26.9503 18.0344 26.9672 17.4934 26.646 17.1553C26.291 16.8171 25.7669 16.8002 25.4119 17.1384Z" fill="#FCCC53"/>
</svg>
