<svg width="73" height="37" viewBox="0 0 73 37" fill="none" xmlns="http://www.w3.org/2000/svg">
<path d="M72.2508 35.48C72.2814 35.3866 72.3023 35.2881 72.3023 35.1844V0.9655C72.3023 0.861157 72.2814 0.761966 72.2501 0.667928C72.2456 0.655046 72.2429 0.642163 72.2377 0.629281C72.196 0.519141 72.1347 0.419951 72.0577 0.332998C72.0525 0.327201 72.0518 0.320116 72.0466 0.314319C72.0433 0.311099 72.0394 0.30981 72.0362 0.30659C71.954 0.220281 71.8568 0.150718 71.7478 0.0985466C71.7393 0.0946821 71.7328 0.089529 71.7243 0.0856644C71.6213 0.0399336 71.5091 0.0141703 71.391 0.00644111C71.3792 0.00579701 71.3682 0.00321994 71.3564 0.00321994C71.3453 0.00257584 71.3355 0 71.3244 0H17.0463C17.0352 0 17.0248 0.00257584 17.0137 0.00321994C17.0032 0.00386404 16.9928 0.00579701 16.9824 0.00644111C16.863 0.0141703 16.7488 0.0405782 16.6445 0.0869531C16.6379 0.0895295 16.6327 0.0940378 16.6262 0.0966142C16.5153 0.148786 16.4168 0.219636 16.3339 0.307233C16.3307 0.310454 16.3268 0.311099 16.3235 0.314319C16.3183 0.319472 16.3176 0.326557 16.3124 0.332354C16.2354 0.419307 16.1735 0.519141 16.1317 0.629281C16.1265 0.642163 16.1239 0.655046 16.1193 0.668572C16.088 0.76261 16.0671 0.861801 16.0671 0.966144V35.1857C16.0671 35.2913 16.0887 35.3918 16.1206 35.4871C16.1252 35.5 16.1278 35.5122 16.1324 35.5251C16.1748 35.6359 16.2374 35.7357 16.315 35.8227C16.3196 35.8278 16.3209 35.8343 16.3255 35.8394C16.3294 35.8439 16.3346 35.8465 16.3392 35.851C16.3711 35.8839 16.4064 35.9129 16.4429 35.9412C16.4592 35.9534 16.4735 35.9683 16.4905 35.9799C16.5336 36.0095 16.5799 36.0333 16.6275 36.0552C16.6392 36.0604 16.6497 36.0687 16.6614 36.0732C16.7795 36.1228 16.9093 36.1512 17.0457 36.1512H71.3231C71.4595 36.1512 71.5893 36.1235 71.7074 36.0732C71.7256 36.0655 71.7426 36.0539 71.7602 36.0449C71.8007 36.0249 71.8411 36.0043 71.8783 35.9792C71.8979 35.9657 71.9155 35.9483 71.9344 35.9335C71.9677 35.9071 72.0003 35.8807 72.029 35.8504C72.0342 35.8452 72.0401 35.8414 72.0453 35.8362C72.0505 35.8304 72.0518 35.8227 72.057 35.8169C72.1334 35.7306 72.1947 35.6314 72.2364 35.5219C72.2429 35.5077 72.2462 35.4942 72.2508 35.48ZM18.0248 3.15672L34.4945 18.0102L18.0248 32.9822V3.15672ZM51.7809 17.2824C51.7131 17.3262 51.6413 17.3629 51.5846 17.4247C51.563 17.4479 51.5559 17.4782 51.5369 17.5027L44.1851 24.133L19.5683 1.93164H68.8018L51.7809 17.2824ZM35.9453 19.3184L43.5249 26.1542C43.7121 26.3229 43.9482 26.4073 44.1851 26.4073C44.4219 26.4073 44.658 26.3229 44.8446 26.1542L52.3302 19.4034L68.7973 34.2189H19.5539L35.9453 19.3184ZM53.7817 18.0946L70.3453 3.15672V32.9977L53.7817 18.0946Z" fill="#FCCC53"/>
<rect y="8.83691" width="13.6571" height="1.60672" rx="0.80336" fill="#FCCC53"/>
<rect y="18.4773" width="13.6571" height="1.60672" rx="0.80336" fill="#FCCC53"/>
<rect y="28.1177" width="13.6571" height="1.60672" rx="0.80336" fill="#FCCC53"/>
</svg>
