<svg width="27" height="28" viewBox="0 0 27 28" fill="none" xmlns="http://www.w3.org/2000/svg">
<path d="M26.7815 11.2956C26.7378 11.0443 26.5192 10.8476 26.2679 10.8367C26.257 10.8367 26.2133 10.8367 26.2023 10.8367H25.6997C25.2736 10.8367 24.8365 10.8367 24.3994 10.8367C24.1263 9.70028 23.6783 8.62946 23.0664 7.6242L23.2193 7.47123C23.6018 7.08879 23.9842 6.69543 24.3776 6.32392C24.5743 6.13816 24.5961 5.83221 24.4431 5.61368C23.5799 4.41174 22.531 3.3737 21.329 2.51048C21.1105 2.35751 20.8045 2.37936 20.6188 2.57604C20.4112 2.79458 20.1926 3.00219 19.985 3.20979C19.7556 3.42833 19.537 3.65779 19.3185 3.88725C18.3132 3.27535 17.2315 2.83828 16.0951 2.56512C16.0951 2.41214 16.0951 2.24824 16.0951 2.09527V1.83302C16.0951 1.81117 16.0951 1.78932 16.0951 1.76746V1.45059C16.0951 1.22113 16.0951 0.980737 16.0951 0.718495C16.0951 0.445326 15.8984 0.215864 15.6362 0.172157C14.2157 -0.0573044 12.7406 -0.0573044 11.3201 0.172157C11.0469 0.215864 10.8503 0.46718 10.8612 0.751275C10.8721 0.980737 10.8721 1.22113 10.8612 1.45059V1.76746C10.8612 1.78932 10.8612 1.81117 10.8612 1.83302V2.09527C10.8612 2.25917 10.8612 2.41214 10.8612 2.56512C9.72481 2.83828 8.64306 3.27535 7.6378 3.88725C7.41926 3.65779 7.1898 3.43926 6.97127 3.20979C6.76366 3.00219 6.54512 2.78365 6.33752 2.57604C6.15176 2.37936 5.84581 2.35751 5.62728 2.51048C4.42533 3.3737 3.37637 4.42266 2.51315 5.61368C2.34925 5.83221 2.38203 6.13816 2.57871 6.32392C2.97208 6.70635 3.35451 7.08879 3.73695 7.47123L3.88992 7.6242C3.27802 8.61853 2.83003 9.70028 2.55686 10.8367C2.11979 10.8257 1.68272 10.8257 1.25658 10.8367H0.753946C0.743019 10.8367 0.699312 10.8367 0.688385 10.8367C0.426143 10.8476 0.207608 11.0443 0.174828 11.2956C0.0546337 12.0168 0 12.7598 0 13.5028C0 14.2349 0.0546337 14.9779 0.174828 15.6991C0.218535 15.9504 0.415217 16.1361 0.666532 16.158C0.710239 16.158 0.764873 16.1689 0.80858 16.1689C1.18009 16.1689 1.54067 16.1689 1.91218 16.1689C2.13072 16.1689 2.34925 16.1689 2.56779 16.1689C2.84096 17.3162 3.29988 18.4089 3.9227 19.4142C3.67139 19.6546 3.42007 19.9059 3.17968 20.1572L2.76447 20.5724C2.69891 20.638 2.64427 20.6926 2.60057 20.7363C2.42574 20.933 2.40389 21.2171 2.55686 21.4247C3.42007 22.6157 4.45811 23.6428 5.64913 24.506C5.85674 24.659 6.15176 24.6372 6.33752 24.4623C6.35937 24.4405 6.38122 24.4186 6.39215 24.4077C6.64346 24.1454 6.89478 23.8941 7.14609 23.6428C7.31 23.4789 7.48482 23.3041 7.64873 23.1402C8.65399 23.7521 9.73573 24.2001 10.883 24.4732C10.883 24.7792 10.883 25.0851 10.883 25.402C10.883 25.697 10.883 25.9811 10.883 26.2871C10.883 26.298 10.883 26.3527 10.883 26.3636C10.894 26.6149 11.0907 26.8334 11.342 26.8662C12.0413 26.9755 12.7734 27.041 13.4945 27.041C14.2157 27.041 14.9369 26.9864 15.6471 26.8662C15.8984 26.8225 16.0951 26.6149 16.106 26.3636C16.106 26.3527 16.106 26.2871 16.106 26.2762C16.106 25.9811 16.106 25.697 16.106 25.402C16.106 25.0961 16.106 24.7901 16.106 24.4732C17.2533 24.2001 18.3351 23.7521 19.3403 23.1402C19.5042 23.315 19.6791 23.4789 19.843 23.6428C20.0943 23.8941 20.3456 24.1454 20.5969 24.3968C20.6188 24.4186 20.6406 24.4405 20.6625 24.4623C20.8592 24.6372 21.1433 24.659 21.3509 24.506C22.5419 23.6537 23.5909 22.6157 24.4431 21.4247C24.5961 21.2171 24.5743 20.9221 24.3994 20.7363C24.3557 20.6926 24.3011 20.627 24.2355 20.5724L23.8203 20.1572C23.5799 19.9168 23.3286 19.6655 23.0773 19.4142C23.7001 18.4089 24.1481 17.3162 24.4322 16.1689C24.6507 16.1689 24.8693 16.1689 25.0878 16.1689C25.4593 16.1689 25.8199 16.1689 26.1805 16.1689C26.2351 16.1689 26.2898 16.1689 26.3335 16.1689C26.5848 16.1471 26.7815 15.9613 26.8252 15.71C26.9454 14.9888 27 14.2567 27 13.5137C26.9563 12.7598 26.9017 12.0277 26.7815 11.2956ZM25.7653 15.0544C25.5249 15.0544 25.2845 15.0544 25.0441 15.0544C24.7054 15.0544 24.3667 15.0544 24.017 15.0544C23.9733 15.0544 23.9405 15.0544 23.9077 15.0544C23.6564 15.0762 23.4597 15.2511 23.4051 15.4915C23.1429 16.8027 22.6293 18.0374 21.8754 19.1519C21.7442 19.3377 21.7552 19.589 21.8754 19.7747C21.9191 19.8403 21.9737 19.9059 22.0502 19.9714C22.3671 20.2774 22.6839 20.5943 23.0008 20.9111L23.2303 21.1406C22.5965 21.9492 21.8644 22.6813 21.0449 23.315C20.8919 23.162 20.728 22.9981 20.5751 22.8452C20.3347 22.6048 20.1052 22.3753 19.8648 22.1349C19.7993 22.0694 19.7337 22.0038 19.6572 21.9601C19.4715 21.8399 19.242 21.8399 19.0563 21.9601C17.9417 22.7031 16.7179 23.2057 15.4176 23.4571C15.21 23.5008 15.0461 23.6537 14.9915 23.8614C14.9696 23.9597 14.9587 24.069 14.9587 24.1892C14.9696 24.5825 14.9696 24.965 14.9696 25.3583C14.9696 25.5113 14.9696 25.6533 14.9696 25.8063C13.9753 25.9265 12.9482 25.9265 11.9429 25.8063C11.9429 25.6533 11.9429 25.5113 11.9429 25.3583C11.9429 24.965 11.9429 24.5825 11.9539 24.1892C11.9539 24.069 11.9429 23.9597 11.9211 23.8614C11.8665 23.6537 11.7025 23.4898 11.4949 23.4571C10.1837 23.2057 8.95994 22.7031 7.85633 21.9601C7.67058 21.8399 7.44112 21.8399 7.25536 21.9601C7.17888 22.0038 7.11331 22.0694 7.04775 22.1349C6.81829 22.3753 6.5779 22.6157 6.33752 22.8452C6.18454 22.9981 6.02064 23.1511 5.86766 23.315C5.04816 22.6813 4.31607 21.9492 3.68231 21.1406L3.91178 20.9111C4.22865 20.5943 4.5346 20.2774 4.8624 19.9714C4.92796 19.9059 4.9826 19.8403 5.02631 19.7747C5.15743 19.589 5.15743 19.3486 5.02631 19.1519C4.27236 18.0374 3.7588 16.8027 3.49656 15.4915C3.45285 15.2511 3.24524 15.0653 2.99393 15.0544C2.96115 15.0544 2.91744 15.0435 2.87374 15.0544C2.53501 15.0544 2.19628 15.0544 1.85755 15.0544C1.61716 15.0544 1.3877 15.0544 1.13638 15.0544C1.07082 14.5408 1.03804 14.0163 1.03804 13.5028C1.03804 12.9783 1.07082 12.4538 1.13638 11.9403H1.21287C1.70457 11.9403 2.21813 11.9403 2.72076 11.9512C2.86281 11.9512 2.983 11.9403 3.09227 11.9184C3.29988 11.8638 3.45285 11.6999 3.48563 11.4923C3.74788 10.2029 4.25051 8.99004 4.9826 7.88644C5.10279 7.70069 5.10279 7.47123 4.99352 7.28547C4.91704 7.16528 4.8187 7.06694 4.68758 6.93582L4.46904 6.71728C4.19587 6.44411 3.9227 6.17094 3.64953 5.89777C4.29421 5.05642 5.03723 4.32432 5.86766 3.67964C5.96601 3.77798 6.07527 3.88725 6.17361 3.98559C6.44678 4.25876 6.71995 4.53193 6.98219 4.8051C7.05868 4.88159 7.17887 4.99085 7.34278 5.06734C7.5176 5.14383 7.71429 5.12198 7.86726 5.02363C8.97086 4.29154 10.1837 3.78891 11.484 3.5376C11.6916 3.49389 11.8555 3.34092 11.9102 3.14423C11.932 3.04589 11.9429 2.94755 11.9429 2.82736C11.932 2.57604 11.932 2.33565 11.9429 2.08434V1.74561C11.9429 1.72376 11.9429 1.7019 11.9429 1.68005V1.43966C11.9429 1.35225 11.9429 1.26483 11.9429 1.17742C12.9482 1.05722 13.9644 1.05722 14.9696 1.17742C14.9696 1.26483 14.9696 1.35225 14.9696 1.43966V1.68005C14.9696 1.7019 14.9696 1.72376 14.9696 1.74561V2.08434C14.9696 2.33565 14.9696 2.57604 14.9696 2.82736C14.9696 2.94755 14.9806 3.04589 15.0024 3.14423C15.0571 3.34092 15.221 3.50482 15.4286 3.5376C16.7289 3.78891 17.9417 4.29154 19.0453 5.02363C19.1983 5.12198 19.395 5.14383 19.5698 5.06734C19.7337 4.99085 19.8539 4.88159 19.9304 4.8051C20.1926 4.53193 20.4658 4.25876 20.739 3.98559C20.8373 3.88725 20.9466 3.77798 21.0449 3.67964C21.8754 4.32432 22.6184 5.05641 23.2521 5.87592C22.979 6.14909 22.7058 6.42226 22.4326 6.69543L22.2141 6.91396C22.083 7.04508 21.9846 7.14342 21.9081 7.26362C21.7879 7.44937 21.7989 7.67883 21.9191 7.86459C22.6512 8.96819 23.1538 10.1811 23.416 11.4704C23.4597 11.678 23.6127 11.8419 23.8094 11.8966C23.9187 11.9293 24.0389 11.9403 24.1809 11.9293C24.6835 11.9075 25.1971 11.9184 25.6888 11.9184H25.7653C25.8308 12.432 25.8636 12.9674 25.8636 13.4809C25.8636 14.0273 25.8308 14.5408 25.7653 15.0544Z" fill="#FCBF24"/>
<path d="M19.2092 9.36152C18.7612 8.72777 18.204 8.18143 17.5702 7.73344C16.6851 7.09969 15.6471 6.67354 14.5763 6.49872C13.8333 6.37852 13.0575 6.37852 12.3144 6.49872C11.2436 6.67354 10.2056 7.09969 9.3205 7.73344C8.68675 8.18143 8.14041 8.7387 7.68149 9.36152C7.04774 10.2466 6.6216 11.2737 6.43584 12.3445C6.37028 12.727 6.3375 13.1094 6.3375 13.5028C6.3375 13.8852 6.37028 14.2786 6.42492 14.6501C6.59974 15.7318 7.03681 16.7699 7.68149 17.6549C8.12949 18.2777 8.67583 18.8241 9.30958 19.2721C10.1946 19.9058 11.2327 20.332 12.3035 20.5068C12.675 20.5614 13.0575 20.5942 13.429 20.5942C13.8005 20.5942 14.1829 20.5614 14.5544 20.5068C15.6252 20.332 16.6633 19.9058 17.5483 19.2721C18.1712 18.8241 18.7175 18.2777 19.1764 17.6549C19.8211 16.7699 20.2582 15.7318 20.433 14.6501C20.4986 14.2676 20.5204 13.8852 20.5204 13.5028C20.5204 13.1094 20.4876 12.727 20.4221 12.3445C20.28 11.2737 19.843 10.2466 19.2092 9.36152ZM19.3731 14.4752C19.2201 15.3822 18.8596 16.2672 18.3132 17.0102C17.9308 17.5347 17.4719 17.9937 16.9364 18.3761C16.1934 18.9115 15.3193 19.2721 14.4124 19.4141C13.7786 19.5125 13.1339 19.5125 12.5002 19.4141C11.5933 19.2721 10.7191 18.9115 9.96518 18.3761C9.4407 17.9937 8.97085 17.5347 8.58841 17.0102C8.04207 16.2563 7.68149 15.3822 7.52852 14.4752C7.47388 14.1584 7.45203 13.8306 7.45203 13.5028C7.45203 13.175 7.47388 12.8472 7.52852 12.5194C7.68149 11.6124 8.04207 10.7383 8.57749 9.99527C8.95992 9.45986 9.42977 9.00094 9.96518 8.6185C10.7082 8.08309 11.5823 7.72251 12.4893 7.58046C12.8061 7.52583 13.123 7.50398 13.4508 7.50398C13.7786 7.50398 14.0955 7.52583 14.4124 7.58046C15.3193 7.72251 16.1934 8.08309 16.9364 8.6185C17.4719 9.00094 17.9417 9.47079 18.3241 9.99527C18.8596 10.7383 19.2201 11.6124 19.3731 12.5194C19.4277 12.8362 19.4496 13.164 19.4496 13.5028C19.4496 13.8306 19.4168 14.1584 19.3731 14.4752Z" fill="#FCBF24"/>
<path d="M16.2371 11.077L12.3581 14.7593L10.6863 13.022C10.4787 12.8034 10.1291 12.7925 9.91053 13.011C9.69199 13.2186 9.68106 13.5683 9.8996 13.7868L11.9538 15.9175C12.0631 16.0268 12.2051 16.0814 12.3472 16.0814C12.4783 16.0814 12.6204 16.0268 12.7296 15.9285L17.0129 11.8637C17.2315 11.6561 17.2424 11.3065 17.0348 11.0879C16.8053 10.8694 16.4666 10.8585 16.2371 11.077Z" fill="#FCBF24"/>
</svg>
