<svg width="70" height="45" viewBox="0 0 70 45" fill="none" xmlns="http://www.w3.org/2000/svg">
<path d="M69.9359 44.1646C69.974 44.0483 70 43.9257 70 43.7966V1.20183C70 1.07194 69.974 0.948475 69.935 0.831419C69.9294 0.815383 69.9261 0.799347 69.9196 0.783312C69.8676 0.646212 69.7913 0.522743 69.6955 0.414507C69.689 0.407291 69.6882 0.398472 69.6817 0.391256C69.6776 0.387247 69.6728 0.385643 69.6687 0.381634C69.5664 0.274199 69.4454 0.18761 69.3098 0.122668C69.2992 0.117858 69.2911 0.111443 69.2805 0.106633C69.1523 0.0497082 69.0126 0.0176388 68.8656 0.00801772C68.851 0.00721596 68.8372 0.00400809 68.8226 0.00400809C68.8088 0.00320634 68.7966 0 68.7828 0H1.21884C1.20503 0 1.19204 0.00320634 1.17824 0.00400809C1.16525 0.00480985 1.15225 0.00721596 1.13926 0.00801772C0.990661 0.0176388 0.848558 0.0505106 0.718636 0.108237C0.710515 0.111444 0.704019 0.117056 0.695899 0.120263C0.557856 0.185205 0.435242 0.273397 0.332115 0.382436C0.328055 0.386444 0.323183 0.387247 0.319123 0.391256C0.312627 0.39767 0.311815 0.406489 0.305319 0.413705C0.209501 0.521942 0.132359 0.646212 0.0803898 0.783312C0.0738936 0.799347 0.0706455 0.815383 0.0649614 0.83222C0.0259845 0.949276 0 1.07275 0 1.20263V43.7982C0 43.9297 0.0267964 44.0547 0.0665853 44.1734C0.0722694 44.1894 0.0755176 44.2047 0.0812017 44.2207C0.133983 44.3586 0.211936 44.4829 0.308566 44.5911C0.314251 44.5975 0.315875 44.6055 0.321559 44.6119C0.326431 44.6176 0.332927 44.6208 0.338611 44.6264C0.3784 44.6673 0.422249 44.7034 0.467722 44.7386C0.488023 44.7539 0.505887 44.7723 0.526999 44.7867C0.580593 44.8236 0.638246 44.8533 0.697523 44.8805C0.712139 44.887 0.725132 44.8974 0.739748 44.903C0.886723 44.9647 1.04831 45 1.21803 45H68.7812C68.9509 45 69.1125 44.9655 69.2594 44.903C69.2822 44.8934 69.3033 44.8789 69.3252 44.8677C69.3756 44.8429 69.4259 44.8172 69.4722 44.7859C69.4966 44.7691 69.5185 44.7474 69.542 44.729C69.5834 44.6961 69.624 44.6633 69.6598 44.6256C69.6663 44.6192 69.6736 44.6144 69.6801 44.6079C69.6866 44.6007 69.6882 44.5911 69.6947 44.5839C69.7897 44.4765 69.866 44.353 69.918 44.2167C69.9261 44.1991 69.9302 44.1822 69.9359 44.1646ZM2.43687 3.92939L22.9379 22.4186L2.43687 41.0554V3.92939ZM44.4555 21.5126C44.3711 21.5672 44.2818 21.6129 44.2111 21.6898C44.1843 21.7187 44.1754 21.7564 44.1518 21.7868L35.0004 30.0401L4.3581 2.40446H65.6427L44.4555 21.5126ZM24.7438 24.047L34.1786 32.556C34.4117 32.766 34.7056 32.8711 35.0004 32.8711C35.2952 32.8711 35.5891 32.766 35.8214 32.556L45.1393 24.1528L65.637 42.5947H4.34024L24.7438 24.047ZM46.946 22.5237L67.5639 3.92939V41.0746L46.946 22.5237Z" fill="#FCBF24"/>
<circle cx="35" cy="23" r="13.8159" fill="white"/>
<path d="M35 39C31.8355 39 28.7421 38.0616 26.1109 36.3035C23.4797 34.5454 21.4289 32.0466 20.2179 29.1229C19.0069 26.1993 18.6901 22.9823 19.3074 19.8786C19.9248 16.7749 21.4487 13.9239 23.6863 11.6863C25.9239 9.44866 28.7749 7.92481 31.8786 7.30744C34.9823 6.69008 38.1993 7.00693 41.1229 8.21793C44.0466 9.42894 46.5454 11.4797 48.3035 14.1109C50.0616 16.7421 51 19.8355 51 23C51 27.2435 49.3143 31.3131 46.3137 34.3137C43.3131 37.3143 39.2435 39 35 39ZM35 9.13334C32.2574 9.13334 29.5765 9.94661 27.2961 11.4703C25.0157 12.994 23.2384 15.1597 22.1889 17.6935C21.1393 20.2273 20.8647 23.0154 21.3998 25.7053C21.9348 28.3951 23.2555 30.8659 25.1948 32.8052C27.1341 34.7445 29.6049 36.0652 32.2948 36.6002C34.9846 37.1353 37.7727 36.8607 40.3065 35.8111C42.8403 34.7616 45.006 32.9843 46.5297 30.7039C48.0534 28.4235 48.8667 25.7426 48.8667 23C48.8667 19.3223 47.4057 15.7953 44.8052 13.1948C42.2047 10.5943 38.6777 9.13334 35 9.13334Z" fill="#FCBF24"/>
<path d="M32.5147 29.4C32.3684 29.3995 32.2238 29.369 32.0899 29.3103C31.9559 29.2516 31.8355 29.1659 31.736 29.0587L26.7547 23.7253C26.5845 23.5154 26.5003 23.2488 26.5191 22.9792C26.538 22.7096 26.6584 22.4572 26.8562 22.273C27.0539 22.0888 27.3142 21.9866 27.5844 21.9869C27.8547 21.9872 28.1147 22.09 28.312 22.2747L32.5147 26.7653L41.688 16.9414C41.7801 16.8278 41.8946 16.7343 42.0243 16.6669C42.1541 16.5994 42.2963 16.5593 42.4422 16.5491C42.5881 16.5389 42.7345 16.5588 42.8724 16.6076C43.0102 16.6564 43.1366 16.733 43.2436 16.8327C43.3506 16.9323 43.436 17.053 43.4944 17.187C43.5528 17.3211 43.583 17.4657 43.5832 17.612C43.5834 17.7582 43.5535 17.9029 43.4953 18.0371C43.4372 18.1713 43.3521 18.2921 43.2454 18.392L33.2934 29.0587C33.1939 29.1659 33.0735 29.2516 32.9395 29.3103C32.8056 29.369 32.661 29.3995 32.5147 29.4Z" fill="#FCBF24"/>
</svg>
