<svg width="91" height="45" viewBox="0 0 91 45" fill="none" xmlns="http://www.w3.org/2000/svg">
<path d="M70.1942 0.0752231C69.638 0.0334685 69.0816 0.0120372 68.6624 0.0183189C68.4934 -0.00108035 50.8302 -1.29363 43.7582 21.9722C37.5767 42.3111 23.2565 41.406 22.4994 41.3509C22.2167 41.3509 21.9324 41.3448 21.648 41.3315C11.5509 40.8838 3.63994 32.6124 3.63994 22.5008C3.63994 12.1065 12.1 3.64949 22.4994 3.64949C28.9458 3.64949 34.8802 6.8899 38.3745 12.3178L41.4351 10.3494C37.2689 3.87581 30.19 0.0111132 22.4994 0.0111132C10.0936 0.0112979 0 10.0998 0 22.5008C0 34.5639 9.43756 44.4324 21.4846 44.9662C21.8204 44.9804 22.1563 44.9884 22.3376 44.9823C22.3554 44.9841 22.5687 45 22.9421 45C26.118 45 40.9127 43.8488 47.2418 23.0292C53.4233 2.69024 67.747 3.59628 68.5006 3.64949C68.9788 3.64949 69.455 3.66815 69.9243 3.70288C79.7016 4.43118 87.3601 12.6875 87.3601 22.5008C87.3601 32.8951 78.8999 41.3511 68.5006 41.3511C62.0542 41.3511 56.1213 38.1109 52.6272 32.6828L49.5667 34.6511C53.7327 41.1248 60.8102 44.9895 68.5006 44.9895C80.9064 44.9895 91 34.9007 91 22.5009C91 10.7938 81.8608 0.943016 70.1942 0.0752231Z" fill="#FCBF24"/>
</svg>
