<svg width="42" height="27" viewBox="0 0 42 27" fill="none" xmlns="http://www.w3.org/2000/svg">
<path d="M41.9615 26.4987C41.9844 26.429 42 26.3554 42 26.2779V0.721097C42 0.643167 41.9844 0.569085 41.961 0.498851C41.9576 0.48923 41.9557 0.479608 41.9518 0.469987C41.9206 0.387728 41.8748 0.313646 41.8173 0.248704C41.8134 0.244374 41.8129 0.239083 41.809 0.234754C41.8066 0.232348 41.8037 0.231386 41.8012 0.228981C41.7398 0.16452 41.6672 0.112566 41.5859 0.0736009C41.5795 0.0707146 41.5747 0.0668659 41.5683 0.0639796C41.4914 0.0298249 41.4076 0.0105833 41.3194 0.00481063C41.3106 0.00432958 41.3023 0.00240486 41.2935 0.00240486C41.2853 0.0019238 41.278 0 41.2697 0H0.731303C0.723021 0 0.715225 0.0019238 0.706943 0.00240486C0.699147 0.00288591 0.691352 0.00432958 0.683556 0.00481063C0.594397 0.0105833 0.509135 0.0303064 0.431181 0.0649421C0.426309 0.0668663 0.422412 0.0702334 0.41754 0.0721576C0.334714 0.111123 0.261145 0.164038 0.199269 0.229461C0.196833 0.231867 0.19391 0.232348 0.191474 0.234754C0.187576 0.238602 0.187089 0.243894 0.183191 0.248223C0.1257 0.313165 0.0794153 0.387728 0.0482339 0.469987C0.0443362 0.479608 0.0423873 0.48923 0.0389768 0.499332C0.0155907 0.569566 0 0.643647 0 0.721578V26.2789C0 26.3578 0.0160778 26.4328 0.0399512 26.504C0.0433616 26.5137 0.0453106 26.5228 0.048721 26.5324C0.0803897 26.6152 0.127162 26.6897 0.18514 26.7547C0.18855 26.7585 0.189525 26.7633 0.192935 26.7672C0.195859 26.7705 0.199756 26.7725 0.203167 26.7758C0.22704 26.8004 0.253349 26.822 0.280633 26.8432C0.292814 26.8523 0.303532 26.8634 0.3162 26.872C0.348356 26.8942 0.382947 26.912 0.418514 26.9283C0.427284 26.9322 0.435079 26.9384 0.443849 26.9418C0.532034 26.9788 0.628989 27 0.730816 27H41.2687C41.3705 27 41.4675 26.9793 41.5557 26.9418C41.5693 26.936 41.582 26.9274 41.5951 26.9206C41.6253 26.9057 41.6555 26.8903 41.6833 26.8716C41.6979 26.8615 41.7111 26.8485 41.7252 26.8374C41.7501 26.8177 41.7744 26.798 41.7959 26.7754C41.7998 26.7715 41.8041 26.7686 41.808 26.7648C41.8119 26.7604 41.8129 26.7547 41.8168 26.7503C41.8738 26.6859 41.9196 26.6118 41.9508 26.53C41.9557 26.5194 41.9581 26.5093 41.9615 26.4987ZM1.46212 2.35764L13.7627 13.4512L1.46212 24.6332V2.35764ZM26.6733 12.9076C26.6227 12.9403 26.5691 12.9677 26.5267 13.0139C26.5106 13.0312 26.5052 13.0538 26.4911 13.0721L21.0002 18.0241L2.61486 1.44267H39.3856L26.6733 12.9076ZM14.8463 14.4282L20.5072 19.5336C20.647 19.6596 20.8234 19.7226 21.0002 19.7226C21.1771 19.7226 21.3535 19.6596 21.4928 19.5336L27.0836 14.4917L39.3822 25.5568H2.60414L14.8463 14.4282ZM28.1676 13.5142L40.5384 2.35764V24.6448L28.1676 13.5142Z" fill="#FCBF24"/>
<circle cx="21" cy="13.8" r="8.28952" fill="white"/>
<path d="M21 23.4C19.1013 23.4 17.2452 22.837 15.6665 21.7821C14.0878 20.7273 12.8574 19.2279 12.1308 17.4738C11.4042 15.7196 11.214 13.7894 11.5845 11.9271C11.9549 10.0649 12.8692 8.35437 14.2118 7.01179C15.5544 5.66921 17.2649 4.7549 19.1271 4.38448C20.9893 4.01406 22.9196 4.20417 24.6738 4.93077C26.4279 5.65737 27.9272 6.88783 28.9821 8.46654C30.037 10.0453 30.6 11.9013 30.6 13.8C30.6 16.3461 29.5886 18.7879 27.7882 20.5882C25.9879 22.3886 23.5461 23.4 21 23.4ZM21 5.48002C19.3545 5.48002 17.7459 5.96798 16.3777 6.88219C15.0094 7.7964 13.943 9.09581 13.3133 10.6161C12.6836 12.1364 12.5188 13.8092 12.8399 15.4232C13.1609 17.0371 13.9533 18.5196 15.1169 19.6831C16.2804 20.8467 17.7629 21.6391 19.3768 21.9601C20.9908 22.2812 22.6636 22.1164 24.1839 21.4867C25.7042 20.857 27.0036 19.7906 27.9178 18.4224C28.832 17.0541 29.32 15.4456 29.32 13.8C29.32 11.5934 28.4434 9.47719 26.8831 7.91689C25.3228 6.35658 23.2066 5.48002 21 5.48002V5.48002Z" fill="#FCBF24"/>
<path d="M19.5088 17.64C19.4211 17.6397 19.3343 17.6214 19.2539 17.5862C19.1735 17.5509 19.1013 17.4996 19.0416 17.4352L16.0528 14.2352C15.9507 14.1093 15.9002 13.9493 15.9115 13.7875C15.9228 13.6258 15.995 13.4743 16.1137 13.3638C16.2323 13.2533 16.3885 13.1919 16.5506 13.1921C16.7128 13.1923 16.8688 13.254 16.9872 13.3648L19.5088 16.0592L25.0128 10.1648C25.0681 10.0967 25.1368 10.0406 25.2146 10.0001C25.2924 9.95964 25.3778 9.93559 25.4653 9.92947C25.5528 9.92336 25.6407 9.93531 25.7234 9.96458C25.8061 9.99384 25.8819 10.0398 25.9461 10.0996C26.0103 10.1594 26.0616 10.2318 26.0966 10.3122C26.1317 10.3927 26.1498 10.4794 26.1499 10.5672C26.15 10.6549 26.1321 10.7418 26.0972 10.8223C26.0623 10.9028 26.0113 10.9753 25.9472 11.0352L19.976 17.4352C19.9163 17.4996 19.8441 17.5509 19.7637 17.5862C19.6833 17.6214 19.5966 17.6397 19.5088 17.64Z" fill="#FCBF24"/>
</svg>
