<svg width="74" height="37" viewBox="0 0 74 37" fill="none" xmlns="http://www.w3.org/2000/svg">
<path d="M56.7154 0.0604312C56.2686 0.0268873 55.8216 0.00967023 55.4848 0.0147167C55.3491 -0.000867906 41.1591 -1.03925 35.4778 17.6516C30.5118 33.991 19.0075 33.2639 18.3993 33.2197C18.1722 33.2197 17.9439 33.2148 17.7153 33.2041C9.60373 32.8444 3.2484 26.1995 3.2484 18.0762C3.2484 9.72583 10.0449 2.93185 18.3993 2.93185C23.5781 2.93185 28.3455 5.53507 31.1527 9.89563L33.6115 8.31432C30.2646 3.11367 24.5776 0.00892789 18.3993 0.00892789C8.43299 0.00907632 0.324219 8.1138 0.324219 18.0762C0.324219 27.7673 7.90597 35.6952 17.584 36.124C17.8539 36.1354 18.1237 36.1418 18.2694 36.1369C18.2836 36.1384 18.455 36.1512 18.7549 36.1512C21.3064 36.1512 33.1919 35.2263 38.2764 18.5007C43.2424 2.16123 54.7495 2.8891 55.3549 2.93185C55.739 2.93185 56.1216 2.94684 56.4986 2.97475C64.3533 3.55983 70.5058 10.1926 70.5058 18.0762C70.5058 26.4266 63.7093 33.2198 55.3549 33.2198C50.1761 33.2198 45.4098 30.6167 42.6028 26.256L40.1441 27.8373C43.4909 33.038 49.1767 36.1427 55.3549 36.1427C65.3212 36.1427 73.4299 28.0379 73.4299 18.0763C73.4299 8.67128 66.0879 0.757581 56.7154 0.0604312Z" fill="#FCCC53"/>
</svg>
