<svg width="57" height="37" viewBox="0 0 57 37" fill="none" xmlns="http://www.w3.org/2000/svg">
<path d="M56.1836 35.48C56.2143 35.3866 56.2352 35.2881 56.2352 35.1844V0.9655C56.2352 0.861157 56.2143 0.761966 56.183 0.667928C56.1784 0.655046 56.1758 0.642163 56.1706 0.629281C56.1288 0.519141 56.0675 0.419951 55.9905 0.332998C55.9853 0.327201 55.9847 0.320116 55.9795 0.314319C55.9762 0.311099 55.9723 0.30981 55.969 0.30659C55.8868 0.220281 55.7896 0.150718 55.6807 0.0985466C55.6722 0.0946821 55.6657 0.089529 55.6572 0.0856644C55.5541 0.0399336 55.4419 0.0141703 55.3239 0.00644111C55.3121 0.00579701 55.301 0.00321994 55.2893 0.00321994C55.2782 0.00257584 55.2684 0 55.2573 0H0.979166C0.968076 0 0.957638 0.00257584 0.946549 0.00321994C0.936111 0.00386404 0.925673 0.00579701 0.915236 0.00644111C0.795857 0.0141703 0.681698 0.0405782 0.577323 0.0869531C0.570799 0.0895295 0.565581 0.0940378 0.559057 0.0966142C0.448159 0.148786 0.349655 0.219636 0.266808 0.307233C0.263546 0.310454 0.259632 0.311099 0.25637 0.314319C0.251152 0.319472 0.250499 0.326557 0.245281 0.332354C0.168304 0.419307 0.106332 0.519141 0.0645819 0.629281C0.0593631 0.642163 0.0567537 0.655046 0.0521873 0.668572C0.0208749 0.76261 0 0.861801 0 0.966144V35.1857C0 35.2913 0.0215272 35.3918 0.0534919 35.4871C0.0580583 35.5 0.0606678 35.5122 0.0652342 35.5251C0.107636 35.6359 0.170261 35.7357 0.24789 35.8227C0.252456 35.8278 0.253761 35.8343 0.258327 35.8394C0.262242 35.8439 0.26746 35.8465 0.272027 35.851C0.303991 35.8839 0.339218 35.9129 0.375749 35.9412C0.392058 35.9534 0.406409 35.9683 0.42337 35.9799C0.466425 36.0095 0.512741 36.0333 0.560362 36.0552C0.572104 36.0604 0.582542 36.0687 0.594284 36.0732C0.712358 36.1228 0.842174 36.1512 0.978513 36.1512H55.256C55.3923 36.1512 55.5222 36.1235 55.6402 36.0732C55.6585 36.0655 55.6755 36.0539 55.6931 36.0449C55.7335 36.0249 55.774 36.0043 55.8111 35.9792C55.8307 35.9657 55.8483 35.9483 55.8673 35.9335C55.9005 35.9071 55.9331 35.8807 55.9618 35.8504C55.9671 35.8452 55.9729 35.8414 55.9781 35.8362C55.9834 35.8304 55.9847 35.8227 55.9899 35.8169C56.0662 35.7306 56.1275 35.6314 56.1693 35.5219C56.1758 35.5077 56.1791 35.4942 56.1836 35.48ZM1.95768 3.15672L18.4274 18.0102L1.95768 32.9822V3.15672ZM35.7138 17.2824C35.6459 17.3262 35.5742 17.3629 35.5174 17.4247C35.4959 17.4479 35.4887 17.4782 35.4698 17.5027L28.1179 24.133L3.50112 1.93164H52.7347L35.7138 17.2824ZM19.8782 19.3184L27.4577 26.1542C27.645 26.3229 27.8811 26.4073 28.1179 26.4073C28.3547 26.4073 28.5909 26.3229 28.7774 26.1542L36.2631 19.4034L52.7301 34.2189H3.48677L19.8782 19.3184ZM37.7145 18.0946L54.2781 3.15672V32.9977L37.7145 18.0946Z" fill="#FCCC53"/>
<circle cx="28.1177" cy="18.4774" r="11.0991" fill="white"/>
<path d="M28.1177 31.331C25.5754 31.331 23.0903 30.5772 20.9765 29.1648C18.8627 27.7524 17.2152 25.7449 16.2424 23.3962C15.2695 21.0475 15.0149 18.463 15.5109 15.9696C16.0069 13.4763 17.2311 11.1859 19.0287 9.38832C20.8263 7.59069 23.1166 6.36649 25.61 5.87052C28.1034 5.37456 30.6879 5.6291 33.0366 6.60197C35.3853 7.57484 37.3928 9.22234 38.8052 11.3361C40.2176 13.4499 40.9714 15.9351 40.9714 18.4773C40.9714 21.8863 39.6172 25.1557 37.2066 27.5663C34.7961 29.9768 31.5267 31.331 28.1177 31.331ZM28.1177 7.33737C25.9144 7.33737 23.7606 7.99072 21.9287 9.21479C20.0967 10.4389 18.6689 12.1787 17.8257 14.2142C16.9826 16.2498 16.762 18.4897 17.1918 20.6506C17.6216 22.8115 18.6826 24.7965 20.2406 26.3544C21.7985 27.9123 23.7835 28.9733 25.9444 29.4032C28.1053 29.833 30.3452 29.6124 32.3807 28.7692C34.4163 27.9261 36.1561 26.4982 37.3802 24.6663C38.6042 22.8343 39.2576 20.6806 39.2576 18.4773C39.2576 15.5228 38.0839 12.6893 35.9948 10.6002C33.9056 8.51104 31.0722 7.33737 28.1177 7.33737Z" fill="#FCCC53"/>
<path d="M26.1212 23.6188C26.0037 23.6185 25.8875 23.5939 25.7799 23.5467C25.6723 23.4996 25.5755 23.4308 25.4956 23.3446L21.4938 19.06C21.3571 18.8914 21.2894 18.6772 21.3046 18.4606C21.3197 18.244 21.4165 18.0413 21.5753 17.8933C21.7342 17.7453 21.9433 17.6632 22.1604 17.6634C22.3775 17.6637 22.5864 17.7463 22.7449 17.8946L26.1212 21.5022L33.4906 13.61C33.5646 13.5188 33.6566 13.4437 33.7608 13.3895C33.8651 13.3353 33.9793 13.3031 34.0965 13.2949C34.2137 13.2867 34.3313 13.3027 34.4421 13.3419C34.5528 13.3811 34.6544 13.4427 34.7403 13.5227C34.8263 13.6028 34.8949 13.6997 34.9418 13.8074C34.9887 13.9151 35.013 14.0313 35.0132 14.1488C35.0133 14.2663 34.9893 14.3825 34.9426 14.4903C34.8959 14.5981 34.8275 14.6952 34.7417 14.7755L26.7467 23.3446C26.6668 23.4308 26.5701 23.4996 26.4624 23.5467C26.3548 23.5939 26.2387 23.6185 26.1212 23.6188Z" fill="#FCCC53"/>
</svg>
