<svg width="54" height="27" viewBox="0 0 54 27" fill="none" xmlns="http://www.w3.org/2000/svg">
<path d="M53.9615 26.4987C53.9844 26.429 54 26.3554 54 26.2779V0.721097C54 0.643167 53.9844 0.569085 53.961 0.498851C53.9576 0.48923 53.9557 0.479608 53.9518 0.469987C53.9206 0.387728 53.8748 0.313646 53.8173 0.248704C53.8134 0.244374 53.8129 0.239083 53.809 0.234754C53.8066 0.232348 53.8037 0.231386 53.8012 0.228981C53.7398 0.16452 53.6672 0.112566 53.5859 0.0736009C53.5795 0.0707146 53.5747 0.0668659 53.5683 0.0639796C53.4914 0.0298249 53.4076 0.0105833 53.3194 0.00481063C53.3106 0.00432958 53.3023 0.00240486 53.2935 0.00240486C53.2853 0.0019238 53.278 0 53.2697 0H12.7313C12.723 0 12.7152 0.0019238 12.7069 0.00240486C12.6991 0.00288591 12.6914 0.00432958 12.6836 0.00481063C12.5944 0.0105833 12.5091 0.0303064 12.4312 0.0649421C12.4263 0.0668663 12.4224 0.0702334 12.4175 0.0721576C12.3347 0.111123 12.2611 0.164038 12.1993 0.229461C12.1968 0.231867 12.1939 0.232348 12.1915 0.234754C12.1876 0.238602 12.1871 0.243894 12.1832 0.248223C12.1257 0.313165 12.0794 0.387728 12.0482 0.469987C12.0443 0.479608 12.0424 0.48923 12.039 0.499332C12.0156 0.569566 12 0.643647 12 0.721578V26.2789C12 26.3578 12.0161 26.4328 12.04 26.504C12.0434 26.5137 12.0453 26.5228 12.0487 26.5324C12.0804 26.6152 12.1272 26.6897 12.1851 26.7547C12.1886 26.7585 12.1895 26.7633 12.1929 26.7672C12.1959 26.7705 12.1998 26.7725 12.2032 26.7758C12.227 26.8004 12.2533 26.822 12.2806 26.8432C12.2928 26.8523 12.3035 26.8634 12.3162 26.872C12.3484 26.8942 12.3829 26.912 12.4185 26.9283C12.4273 26.9322 12.4351 26.9384 12.4438 26.9418C12.532 26.9788 12.629 27 12.7308 27H53.2687C53.3705 27 53.4675 26.9793 53.5557 26.9418C53.5693 26.936 53.582 26.9274 53.5951 26.9206C53.6253 26.9057 53.6555 26.8903 53.6833 26.8716C53.6979 26.8615 53.7111 26.8485 53.7252 26.8374C53.7501 26.8177 53.7744 26.798 53.7959 26.7754C53.7998 26.7715 53.8041 26.7686 53.808 26.7648C53.8119 26.7604 53.8129 26.7547 53.8168 26.7503C53.8738 26.6859 53.9196 26.6118 53.9508 26.53C53.9557 26.5194 53.9581 26.5093 53.9615 26.4987ZM13.4621 2.35764L25.7627 13.4512L13.4621 24.6332V2.35764ZM38.6733 12.9076C38.6227 12.9403 38.5691 12.9677 38.5267 13.0139C38.5106 13.0312 38.5052 13.0538 38.4911 13.0721L33.0002 18.0241L14.6149 1.44267H51.3856L38.6733 12.9076ZM26.8463 14.4282L32.5072 19.5336C32.647 19.6596 32.8234 19.7226 33.0002 19.7226C33.1771 19.7226 33.3535 19.6596 33.4928 19.5336L39.0836 14.4917L51.3822 25.5568H14.6041L26.8463 14.4282ZM40.1676 13.5142L52.5384 2.35764V24.6448L40.1676 13.5142Z" fill="#FCBF24"/>
<rect y="6.59998" width="10.2" height="1.2" rx="0.6" fill="#FCBF24"/>
<rect y="13.8" width="10.2" height="1.2" rx="0.6" fill="#FCBF24"/>
<rect y="21.0001" width="10.2" height="1.2" rx="0.6" fill="#FCBF24"/>
</svg>
