<svg width="55" height="27" viewBox="0 0 55 27" fill="none" xmlns="http://www.w3.org/2000/svg">
<path d="M42.4251 0.0451339C42.0889 0.0200811 41.7526 0.00722234 41.4992 0.0109913C41.3971 -0.000648208 30.7215 -0.776175 26.4473 13.1833C22.7112 25.3866 14.0561 24.8436 13.5985 24.8105C13.4277 24.8105 13.2559 24.8069 13.0839 24.7989C6.9813 24.5303 2.19996 19.5674 2.19996 13.5005C2.19996 7.26387 7.31322 2.18969 13.5985 2.18969C17.4947 2.18969 21.0814 4.13394 23.1934 7.39069L25.0432 6.20966C22.5252 2.32549 18.2467 0.00666792 13.5985 0.00666792C6.10051 0.00677877 0 6.0599 0 13.5005C0 20.7384 5.70402 26.6595 12.9852 26.9797C13.1882 26.9882 13.3912 26.993 13.5008 26.9894C13.5115 26.9905 13.6404 27 13.8661 27C15.7856 27 24.7275 26.3093 28.5527 13.8175C32.2888 1.61415 40.946 2.15777 41.4015 2.18969C41.6905 2.18969 41.9783 2.20089 42.2619 2.22173C48.1713 2.65871 52.8 7.6125 52.8 13.5005C52.8 19.737 47.6868 24.8107 41.4015 24.8107C37.5053 24.8107 33.9195 22.8665 31.8076 19.6097L29.9579 20.7907C32.4758 24.6749 36.7534 26.9937 41.4015 26.9937C48.8995 26.9937 55 20.9404 55 13.5006C55 6.47626 49.4763 0.56581 42.4251 0.0451339Z" fill="#FCBF24"/>
</svg>
