<svg width="476" height="304" viewBox="0 0 476 304" fill="none" xmlns="http://www.w3.org/2000/svg">
<path d="M475.106 1.17804V275.693C475.106 290.803 462.787 303.129 447.687 303.129H202.986" stroke="white" stroke-width="1.5" stroke-miterlimit="10" stroke-linecap="round" stroke-linejoin="round"/>
<path d="M1.35922 32.7489V275.693C1.35922 285.395 9.22718 293.268 18.9231 293.268H447.369C457.065 293.268 464.933 285.395 464.933 275.693V32.7489H1.35922Z" fill="#FDFDFD" stroke="#CFCFCF" stroke-miterlimit="10"/>
<path d="M465.648 51.914V15.4128C465.648 6.90374 458.734 0.0647278 450.23 0.0647278H15.8235C7.31979 0.0647278 0.405518 6.98326 0.405518 15.4128V51.914H465.648Z" fill="#CFCFCF"/>
<path d="M197.82 32.9875V23.8422L193.29 31.397H192.177L187.647 23.9218V32.9875H185.183V19.1504H187.329L192.813 28.2956L198.217 19.1504H200.363V32.9875H197.82Z" fill="white"/>
<path d="M210.536 32.2717C209.423 31.6355 208.549 30.8403 207.834 29.727C207.198 28.6137 206.88 27.4208 206.88 26.0689C206.88 24.717 207.198 23.5242 207.834 22.4108C208.469 21.2975 209.344 20.5023 210.536 19.8661C211.648 19.2299 212.92 18.9118 214.35 18.9118C215.781 18.9118 217.053 19.2299 218.165 19.8661C219.278 20.5023 220.152 21.2975 220.867 22.4108C221.503 23.5242 221.821 24.717 221.821 26.0689C221.821 27.4208 221.503 28.6137 220.867 29.727C220.232 30.8403 219.357 31.6355 218.165 32.2717C217.053 32.9079 215.781 33.226 214.35 33.226C212.999 33.226 211.728 32.9079 210.536 32.2717ZM216.894 30.3632C217.609 29.9655 218.245 29.4089 218.642 28.6137C219.039 27.8979 219.278 27.0232 219.278 26.1484C219.278 25.1941 219.039 24.3989 218.642 23.6832C218.245 22.9675 217.609 22.3313 216.894 21.9337C216.178 21.5361 215.304 21.2975 214.43 21.2975C213.476 21.2975 212.681 21.5361 211.966 21.9337C211.251 22.3313 210.615 22.9675 210.218 23.6832C209.82 24.3989 209.582 25.2737 209.582 26.1484C209.582 27.1027 209.82 27.8979 210.218 28.6137C210.615 29.3294 211.251 29.9655 211.966 30.3632C212.681 30.7608 213.556 30.9994 214.43 30.9994C215.304 30.9198 216.099 30.7608 216.894 30.3632Z" fill="white"/>
<path d="M240.815 19.1504V32.9875H238.67L231.04 23.6037V32.9875H228.497V19.1504H230.643L238.272 28.5341V19.1504H240.815Z" fill="white"/>
<path d="M251.226 21.377H246.617V19.2299H258.379V21.377H253.77V33.067H251.226V21.377Z" fill="white"/>
<path d="M276.579 19.1504V32.9875H274.036V27.0232H266.883V32.9875H264.26V19.1504H266.804V24.8761H273.956V19.1504H276.579Z" fill="white"/>
<path d="M308.13 233.466H274.513C271.413 233.466 268.87 230.921 268.87 227.82V214.699C268.87 211.597 271.413 209.052 274.513 209.052H308.13C311.23 209.052 313.773 211.597 313.773 214.699V227.82C313.852 230.921 311.309 233.466 308.13 233.466Z" fill="url(#paint0_linear)"/>
<path d="M38.3942 105.831C37.8379 105.513 37.4406 105.036 37.2021 104.4C36.8842 103.763 36.7253 102.968 36.7253 102.093C36.7253 101.219 36.8842 100.423 37.2021 99.7872C37.52 99.151 37.9174 98.6739 38.3942 98.3558C38.9506 98.0377 39.5069 97.8786 40.1427 97.8786C40.7785 97.8786 41.4143 98.0377 41.8911 98.3558C42.4474 98.6739 42.8448 99.151 43.1627 99.7872C43.4806 100.423 43.6395 101.219 43.6395 102.093C43.6395 102.968 43.4806 103.763 43.1627 104.4C42.8448 105.036 42.4474 105.513 41.8911 105.831C41.3348 106.149 40.7785 106.308 40.1427 106.308C39.5069 106.308 38.8711 106.149 38.3942 105.831ZM41.5732 104.241C41.8911 103.763 42.0501 103.048 42.0501 102.014C42.0501 100.98 41.8911 100.344 41.5732 99.7872C41.2553 99.3101 40.7785 99.0715 40.1427 99.0715C39.5864 99.0715 39.1095 99.3101 38.7121 99.7872C38.3942 100.264 38.2353 100.98 38.2353 102.014C38.2353 103.048 38.3942 103.684 38.7121 104.241C39.03 104.718 39.5069 104.956 40.1427 104.956C40.7785 104.956 41.2553 104.718 41.5732 104.241Z" fill="#CFCFCF"/>
<path d="M48.6464 97.8786V106.149H47.1364V99.151H45.388V97.8786H48.6464Z" fill="#CFCFCF"/>
<path d="M98.7153 105.831C98.1589 105.513 97.7616 105.036 97.4437 104.4C97.1258 103.763 96.9668 102.968 96.9668 102.093C96.9668 101.219 97.1258 100.423 97.4437 99.7872C97.7616 99.151 98.1589 98.6739 98.7153 98.3558C99.2716 98.0377 99.8279 97.8786 100.464 97.8786C101.099 97.8786 101.735 98.0377 102.212 98.3558C102.768 98.6739 103.166 99.151 103.484 99.7872C103.802 100.423 103.961 101.219 103.961 102.093C103.961 102.968 103.802 103.763 103.484 104.4C103.166 105.036 102.768 105.513 102.212 105.831C101.656 106.149 101.099 106.308 100.464 106.308C99.8279 106.308 99.2716 106.149 98.7153 105.831ZM101.894 104.241C102.212 103.763 102.371 103.048 102.371 102.014C102.371 100.98 102.212 100.344 101.894 99.7872C101.576 99.3101 101.099 99.0715 100.464 99.0715C99.9074 99.0715 99.4305 99.3101 99.0332 99.7872C98.7153 100.264 98.5563 100.98 98.5563 102.014C98.5563 103.048 98.7153 103.684 99.0332 104.241C99.3511 104.718 99.8279 104.956 100.464 104.956C101.099 104.956 101.576 104.718 101.894 104.241Z" fill="#CFCFCF"/>
<path d="M112.146 104.877V106.149H106.027V105.115L109.285 102.014C109.683 101.696 109.921 101.378 110.001 101.06C110.16 100.821 110.16 100.503 110.16 100.264C110.16 99.8667 110.001 99.5486 109.762 99.3896C109.524 99.151 109.126 99.0715 108.65 99.0715C107.775 99.0715 107.14 99.3896 106.742 99.9463L105.63 99.151C105.947 98.7534 106.424 98.3558 106.901 98.1172C107.457 97.8786 108.093 97.7196 108.729 97.7196C109.603 97.7196 110.319 97.9582 110.875 98.3558C111.431 98.7534 111.67 99.3896 111.67 100.105C111.67 100.582 111.59 100.98 111.352 101.378C111.193 101.775 110.795 102.252 110.239 102.73L108.014 104.877H112.146Z" fill="#CFCFCF"/>
<path d="M170.083 105.831C169.527 105.513 169.13 105.036 168.812 104.4C168.494 103.763 168.335 102.968 168.335 102.093C168.335 101.219 168.494 100.423 168.812 99.7872C169.13 99.151 169.527 98.6739 170.083 98.3558C170.64 98.0377 171.196 97.8786 171.832 97.8786C172.467 97.8786 173.103 98.0377 173.58 98.3558C174.136 98.6739 174.534 99.151 174.852 99.7872C175.17 100.423 175.329 101.219 175.329 102.093C175.329 102.968 175.17 103.763 174.852 104.4C174.534 105.036 174.136 105.513 173.58 105.831C173.024 106.149 172.467 106.308 171.832 106.308C171.196 106.308 170.64 106.149 170.083 105.831ZM173.262 104.241C173.58 103.763 173.739 103.048 173.739 102.014C173.739 100.98 173.58 100.344 173.262 99.7872C172.944 99.3101 172.467 99.0715 171.832 99.0715C171.275 99.0715 170.798 99.3101 170.401 99.7872C170.083 100.264 169.924 100.98 169.924 102.014C169.924 103.048 170.083 103.684 170.401 104.241C170.719 104.718 171.196 104.956 171.832 104.956C172.467 104.956 172.944 104.718 173.262 104.241Z" fill="#CFCFCF"/>
<path d="M182.72 102.093C183.117 102.491 183.355 103.048 183.355 103.684C183.355 104.161 183.197 104.638 182.958 105.036C182.72 105.433 182.322 105.751 181.845 105.99C181.369 106.229 180.733 106.308 180.018 106.308C179.461 106.308 178.825 106.229 178.269 106.07C177.713 105.911 177.236 105.672 176.839 105.354L177.474 104.161C177.792 104.4 178.11 104.638 178.587 104.797C178.984 104.956 179.461 105.036 179.938 105.036C180.494 105.036 180.892 104.956 181.21 104.718C181.528 104.479 181.687 104.161 181.687 103.763C181.687 103.366 181.528 103.048 181.21 102.889C180.892 102.65 180.494 102.571 179.859 102.571H179.064V101.537L180.971 99.3101H177.236V98.0377H182.879V99.0715L180.892 101.457C181.766 101.378 182.322 101.696 182.72 102.093Z" fill="#CFCFCF"/>
<path d="M221.662 105.831C221.106 105.513 220.708 105.036 220.47 104.4C220.152 103.763 219.993 102.968 219.993 102.093C219.993 101.219 220.152 100.423 220.47 99.7872C220.788 99.151 221.185 98.6739 221.662 98.3558C222.218 98.0377 222.775 97.8786 223.411 97.8786C224.046 97.8786 224.682 98.0377 225.159 98.3558C225.715 98.6739 226.113 99.151 226.431 99.7872C226.748 100.423 226.907 101.219 226.907 102.093C226.907 102.968 226.748 103.763 226.431 104.4C226.113 105.036 225.715 105.513 225.159 105.831C224.603 106.149 224.046 106.308 223.411 106.308C222.775 106.308 222.139 106.149 221.662 105.831ZM224.841 104.241C225.159 103.763 225.318 103.048 225.318 102.014C225.318 100.98 225.159 100.344 224.841 99.7872C224.523 99.3101 224.046 99.0715 223.411 99.0715C222.854 99.0715 222.377 99.3101 221.98 99.7872C221.662 100.264 221.503 100.98 221.503 102.014C221.503 103.048 221.662 103.684 221.98 104.241C222.298 104.718 222.775 104.956 223.411 104.956C224.046 104.956 224.523 104.718 224.841 104.241Z" fill="#CFCFCF"/>
<path d="M236.524 104.32H235.093V106.229H233.583V104.32H229.053V103.286L233.106 97.9582H234.775L230.961 103.048H233.663V101.378H235.093V103.048H236.524V104.32Z" fill="#CFCFCF"/>
<path d="M284.447 105.831C283.89 105.513 283.493 105.036 283.255 104.4C282.937 103.763 282.778 102.968 282.778 102.093C282.778 101.219 282.937 100.423 283.255 99.7872C283.573 99.151 283.97 98.6739 284.447 98.3558C285.003 98.0377 285.559 97.8786 286.195 97.8786C286.831 97.8786 287.467 98.0377 287.944 98.3558C288.5 98.6739 288.897 99.151 289.215 99.7872C289.533 100.423 289.692 101.219 289.692 102.093C289.692 102.968 289.533 103.763 289.215 104.4C288.897 105.036 288.5 105.513 287.944 105.831C287.387 106.149 286.831 106.308 286.195 106.308C285.559 106.308 285.003 106.149 284.447 105.831ZM287.626 104.241C287.944 103.763 288.103 103.048 288.103 102.014C288.103 100.98 287.944 100.344 287.626 99.7872C287.308 99.3101 286.831 99.0715 286.195 99.0715C285.639 99.0715 285.162 99.3101 284.765 99.7872C284.447 100.264 284.288 100.98 284.288 102.014C284.288 103.048 284.447 103.684 284.765 104.241C285.083 104.718 285.559 104.956 286.195 104.956C286.831 104.956 287.308 104.718 287.626 104.241Z" fill="#CFCFCF"/>
<path d="M297.163 101.775C297.719 102.252 298.037 102.809 298.037 103.604C298.037 104.081 297.878 104.559 297.639 104.956C297.401 105.354 297.004 105.672 296.527 105.911C296.05 106.149 295.414 106.229 294.699 106.229C294.143 106.229 293.507 106.149 292.951 105.99C292.394 105.831 291.917 105.592 291.52 105.274L292.156 104.081C292.474 104.32 292.871 104.559 293.268 104.718C293.666 104.877 294.143 104.956 294.62 104.956C295.176 104.956 295.573 104.877 295.891 104.638C296.209 104.4 296.368 104.081 296.368 103.684C296.368 103.286 296.209 102.968 295.891 102.73C295.573 102.491 295.017 102.411 294.143 102.411H292.156L292.553 97.8786H297.401V99.151H293.825L293.666 101.06H294.461C295.732 101.06 296.606 101.298 297.163 101.775Z" fill="#CFCFCF"/>
<path d="M356.053 105.831C355.497 105.513 355.099 105.036 354.782 104.4C354.464 103.763 354.305 102.968 354.305 102.093C354.305 101.219 354.464 100.423 354.782 99.7872C355.099 99.151 355.497 98.6739 356.053 98.3558C356.609 98.0377 357.166 97.8786 357.802 97.8786C358.437 97.8786 359.073 98.0377 359.55 98.3558C360.106 98.6739 360.504 99.151 360.822 99.7872C361.14 100.423 361.298 101.219 361.298 102.093C361.298 102.968 361.14 103.763 360.822 104.4C360.504 105.036 360.106 105.513 359.55 105.831C358.994 106.149 358.437 106.308 357.802 106.308C357.166 106.308 356.609 106.149 356.053 105.831ZM359.232 104.241C359.55 103.763 359.709 103.048 359.709 102.014C359.709 100.98 359.55 100.344 359.232 99.7872C358.914 99.3101 358.437 99.0715 357.802 99.0715C357.245 99.0715 356.768 99.3101 356.371 99.7872C356.053 100.264 355.894 100.98 355.894 102.014C355.894 103.048 356.053 103.684 356.371 104.241C356.689 104.718 357.166 104.956 357.802 104.956C358.437 104.956 358.914 104.718 359.232 104.241Z" fill="#CFCFCF"/>
<path d="M368.769 101.378C369.166 101.616 369.564 101.855 369.802 102.252C370.041 102.65 370.2 103.048 370.2 103.604C370.2 104.161 370.041 104.638 369.802 105.036C369.564 105.433 369.166 105.751 368.69 105.99C368.213 106.229 367.736 106.308 367.18 106.308C366.067 106.308 365.193 105.99 364.557 105.274C363.921 104.559 363.603 103.525 363.603 102.252C363.603 101.298 363.762 100.503 364.08 99.8667C364.398 99.2305 364.875 98.6739 365.511 98.3558C366.146 98.0377 366.862 97.8786 367.656 97.8786C368.054 97.8786 368.451 97.9582 368.849 98.0377C369.246 98.1172 369.564 98.2763 369.802 98.4353L369.246 99.6282C368.849 99.3896 368.292 99.2305 367.656 99.2305C366.862 99.2305 366.226 99.4691 365.749 99.9463C365.272 100.423 365.113 101.139 365.113 102.093C365.352 101.775 365.67 101.616 366.067 101.457C366.464 101.298 366.862 101.219 367.339 101.219C367.895 101.06 368.372 101.139 368.769 101.378ZM368.213 104.718C368.531 104.479 368.69 104.081 368.69 103.684C368.69 103.286 368.531 102.889 368.213 102.65C367.895 102.411 367.497 102.252 367.021 102.252C366.544 102.252 366.146 102.411 365.828 102.65C365.511 102.889 365.352 103.286 365.352 103.684C365.352 104.081 365.511 104.4 365.828 104.718C366.146 104.956 366.544 105.115 367.1 105.115C367.497 105.115 367.895 104.956 368.213 104.718Z" fill="#CFCFCF"/>
<path d="M417.805 105.831C417.248 105.513 416.851 105.036 416.533 104.4C416.215 103.763 416.056 102.968 416.056 102.093C416.056 101.219 416.215 100.423 416.533 99.7872C416.851 99.151 417.248 98.6739 417.805 98.3558C418.361 98.0377 418.917 97.8786 419.553 97.8786C420.189 97.8786 420.825 98.0377 421.302 98.3558C421.858 98.6739 422.255 99.151 422.573 99.7872C422.891 100.423 423.05 101.219 423.05 102.093C423.05 102.968 422.891 103.763 422.573 104.4C422.255 105.036 421.858 105.513 421.302 105.831C420.745 106.149 420.189 106.308 419.553 106.308C418.917 106.308 418.282 106.149 417.805 105.831ZM420.984 104.241C421.302 103.763 421.461 103.048 421.461 102.014C421.461 100.98 421.302 100.344 420.984 99.7872C420.666 99.3101 420.189 99.0715 419.553 99.0715C418.997 99.0715 418.52 99.3101 418.123 99.7872C417.805 100.264 417.646 100.98 417.646 102.014C417.646 103.048 417.805 103.684 418.123 104.241C418.44 104.718 418.917 104.956 419.553 104.956C420.189 104.956 420.666 104.718 420.984 104.241Z" fill="#CFCFCF"/>
<path d="M431.474 97.8786V98.9124L428.216 106.149H426.547L429.646 99.151H426.388V100.582H424.957V97.8786H431.474Z" fill="#CFCFCF"/>
<path d="M38.3942 145.354C37.8379 145.036 37.4406 144.559 37.2021 143.923C36.8842 143.287 36.7253 142.491 36.7253 141.617C36.7253 140.742 36.8842 139.947 37.2021 139.31C37.52 138.674 37.9174 138.197 38.3942 137.879C38.9506 137.561 39.5069 137.402 40.1427 137.402C40.7785 137.402 41.4143 137.561 41.8911 137.879C42.4474 138.197 42.8448 138.674 43.1627 139.31C43.4806 139.947 43.6395 140.742 43.6395 141.617C43.6395 142.491 43.4806 143.287 43.1627 143.923C42.8448 144.559 42.4474 145.036 41.8911 145.354C41.3348 145.672 40.7785 145.831 40.1427 145.831C39.5069 145.831 38.8711 145.672 38.3942 145.354ZM41.5732 143.764C41.8911 143.287 42.0501 142.571 42.0501 141.537C42.0501 140.583 41.8911 139.867 41.5732 139.31C41.2553 138.833 40.7785 138.595 40.1427 138.595C39.5864 138.595 39.1095 138.833 38.7121 139.31C38.3942 139.788 38.2353 140.503 38.2353 141.537C38.2353 142.491 38.3942 143.207 38.7121 143.764C39.03 144.241 39.5069 144.479 40.1427 144.479C40.7785 144.479 41.2553 144.241 41.5732 143.764Z" fill="#CFCFCF"/>
<path d="M52.2228 142.173C52.4612 142.491 52.5407 142.889 52.5407 143.366C52.5407 143.843 52.3817 144.32 52.1433 144.718C51.8254 145.116 51.428 145.354 50.9512 145.593C50.4743 145.831 49.8386 145.911 49.2028 145.911C48.4875 145.911 47.9312 145.831 47.4543 145.593C46.9775 145.354 46.5801 145.116 46.2622 144.718C46.0238 144.32 45.8648 143.923 45.8648 143.366C45.8648 142.889 45.9443 142.491 46.1827 142.173C46.4212 141.855 46.7391 141.537 47.1364 141.378C46.8185 141.219 46.5801 140.98 46.3417 140.662C46.1827 140.344 46.1033 140.026 46.1033 139.628C46.1033 139.151 46.2622 138.754 46.5006 138.436C46.7391 138.118 47.1364 137.799 47.6133 137.64C48.0901 137.481 48.6464 137.322 49.2028 137.322C49.8386 137.322 50.3949 137.402 50.7922 137.64C51.1896 137.879 51.587 138.118 51.9049 138.436C52.2228 138.754 52.3023 139.151 52.3023 139.628C52.3023 140.026 52.2228 140.344 52.0638 140.662C51.9049 140.98 51.587 141.219 51.2691 141.378C51.6665 141.537 51.9844 141.776 52.2228 142.173ZM50.5538 144.241C50.8717 144.002 51.0307 143.684 51.0307 143.287C51.0307 142.889 50.8717 142.571 50.5538 142.332C50.2359 142.094 49.7591 142.014 49.2028 142.014C48.6464 142.014 48.1696 142.094 47.8517 142.332C47.5338 142.571 47.3749 142.889 47.3749 143.287C47.3749 143.684 47.5338 144.002 47.8517 144.241C48.1696 144.479 48.6464 144.559 49.2028 144.559C49.7591 144.638 50.2359 144.479 50.5538 144.241ZM48.0106 138.833C47.6928 139.072 47.6133 139.31 47.6133 139.708C47.6133 140.026 47.7722 140.344 48.0106 140.583C48.3285 140.821 48.6464 140.901 49.1233 140.901C49.6001 140.901 49.9975 140.821 50.3154 140.583C50.6333 140.344 50.7128 140.106 50.7128 139.708C50.7128 139.31 50.5538 139.072 50.3154 138.833C49.9975 138.595 49.6796 138.515 49.1233 138.515C48.7259 138.515 48.3285 138.595 48.0106 138.833Z" fill="#CFCFCF"/>
<path d="M98.7153 145.354C98.1589 145.036 97.7616 144.559 97.4437 143.923C97.1258 143.287 96.9668 142.491 96.9668 141.617C96.9668 140.742 97.1258 139.947 97.4437 139.31C97.7616 138.674 98.1589 138.197 98.7153 137.879C99.2716 137.561 99.8279 137.402 100.464 137.402C101.099 137.402 101.735 137.561 102.212 137.879C102.768 138.197 103.166 138.674 103.484 139.31C103.802 139.947 103.961 140.742 103.961 141.617C103.961 142.491 103.802 143.287 103.484 143.923C103.166 144.559 102.768 145.036 102.212 145.354C101.656 145.672 101.099 145.831 100.464 145.831C99.8279 145.831 99.2716 145.672 98.7153 145.354ZM101.894 143.764C102.212 143.287 102.371 142.571 102.371 141.537C102.371 140.583 102.212 139.867 101.894 139.31C101.576 138.833 101.099 138.595 100.464 138.595C99.9074 138.595 99.4305 138.833 99.0332 139.31C98.7153 139.788 98.5563 140.503 98.5563 141.537C98.5563 142.491 98.7153 143.207 99.0332 143.764C99.3511 144.241 99.8279 144.479 100.464 144.479C101.099 144.479 101.576 144.241 101.894 143.764Z" fill="#CFCFCF"/>
<path d="M111.67 138.356C112.305 139.072 112.623 140.106 112.623 141.378C112.623 142.332 112.464 143.127 112.146 143.764C111.829 144.4 111.352 144.957 110.716 145.275C110.08 145.593 109.365 145.752 108.57 145.752C108.173 145.752 107.775 145.672 107.378 145.593C106.981 145.513 106.663 145.354 106.424 145.195L106.981 144.002C107.378 144.241 107.934 144.4 108.57 144.4C109.365 144.4 110.001 144.161 110.477 143.684C110.954 143.207 111.113 142.491 111.113 141.537C110.875 141.855 110.557 142.014 110.16 142.173C109.762 142.332 109.365 142.412 108.888 142.412C108.332 142.412 107.855 142.332 107.457 142.094C107.06 141.855 106.663 141.617 106.424 141.219C106.186 140.821 106.027 140.424 106.027 139.867C106.027 139.31 106.186 138.833 106.424 138.436C106.663 138.038 107.06 137.72 107.537 137.481C108.014 137.243 108.491 137.163 109.047 137.163C110.16 137.322 111.034 137.64 111.67 138.356ZM110.319 140.901C110.636 140.662 110.795 140.265 110.795 139.867C110.795 139.469 110.636 139.151 110.319 138.833C110.001 138.595 109.603 138.436 109.047 138.436C108.57 138.436 108.173 138.595 107.855 138.833C107.537 139.072 107.378 139.469 107.378 139.867C107.378 140.265 107.537 140.662 107.855 140.901C108.173 141.139 108.57 141.298 109.047 141.298C109.603 141.298 110.08 141.219 110.319 140.901Z" fill="#CFCFCF"/>
<path d="M171.275 137.402V145.672H169.765V138.674H168.017V137.402H171.275Z" fill="#CFCFCF"/>
<path d="M175.805 145.354C175.249 145.036 174.852 144.559 174.534 143.923C174.216 143.287 174.057 142.491 174.057 141.617C174.057 140.742 174.216 139.947 174.534 139.31C174.852 138.674 175.249 138.197 175.805 137.879C176.362 137.561 176.918 137.402 177.554 137.402C178.19 137.402 178.825 137.561 179.302 137.879C179.859 138.197 180.256 138.674 180.574 139.31C180.892 139.947 181.051 140.742 181.051 141.617C181.051 142.491 180.892 143.287 180.574 143.923C180.256 144.559 179.859 145.036 179.302 145.354C178.746 145.672 178.19 145.831 177.554 145.831C176.918 145.831 176.282 145.672 175.805 145.354ZM178.984 143.764C179.302 143.287 179.461 142.571 179.461 141.537C179.461 140.583 179.302 139.867 178.984 139.31C178.666 138.833 178.19 138.595 177.554 138.595C176.997 138.595 176.521 138.833 176.123 139.31C175.805 139.788 175.646 140.503 175.646 141.537C175.646 142.491 175.805 143.207 176.123 143.764C176.441 144.241 176.918 144.479 177.554 144.479C178.11 144.479 178.587 144.241 178.984 143.764Z" fill="#CFCFCF"/>
<path d="M222.854 137.402V145.672H221.344V138.674H219.596V137.402H222.854Z" fill="#CFCFCF"/>
<path d="M228.497 137.402V145.672H226.987V138.674H225.238V137.402H228.497Z" fill="#CFCFCF"/>
<path d="M285.639 137.402V145.672H284.129V138.674H282.38V137.402H285.639Z" fill="#CFCFCF"/>
<path d="M294.461 144.4V145.672H288.341V144.638L291.599 141.537C291.997 141.219 292.235 140.901 292.315 140.583C292.474 140.344 292.474 140.026 292.474 139.788C292.474 139.39 292.315 139.072 292.076 138.913C291.838 138.674 291.441 138.595 290.964 138.595C290.089 138.595 289.454 138.913 289.056 139.469L287.944 138.674C288.262 138.277 288.738 137.879 289.215 137.64C289.772 137.402 290.407 137.243 291.043 137.243C291.917 137.243 292.633 137.481 293.189 137.879C293.745 138.277 293.984 138.913 293.984 139.628C293.984 140.106 293.904 140.503 293.666 140.901C293.507 141.298 293.11 141.776 292.553 142.253L290.328 144.4H294.461Z" fill="#CFCFCF"/>
<path d="M357.245 137.402V145.672H355.735V138.674H353.987V137.402H357.245Z" fill="#CFCFCF"/>
<path d="M365.352 141.617C365.749 142.014 365.987 142.571 365.987 143.207C365.987 143.684 365.829 144.161 365.59 144.559C365.352 144.957 364.954 145.275 364.477 145.513C364.001 145.752 363.365 145.831 362.65 145.831C362.093 145.831 361.457 145.752 360.901 145.593C360.345 145.434 359.868 145.195 359.471 144.877L360.106 143.684C360.424 143.923 360.742 144.161 361.219 144.32C361.616 144.479 362.093 144.559 362.57 144.559C363.126 144.559 363.524 144.479 363.842 144.241C364.16 144.002 364.319 143.684 364.319 143.287C364.319 142.889 364.16 142.571 363.842 142.412C363.524 142.253 363.126 142.094 362.491 142.094H361.696V141.06L363.603 138.833H359.868V137.561H365.511V138.595L363.524 140.98C364.398 140.901 364.954 141.219 365.352 141.617Z" fill="#CFCFCF"/>
<path d="M418.997 137.402V145.672H417.487V138.674H415.738V137.402H418.997Z" fill="#CFCFCF"/>
<path d="M429.17 143.843H427.739V145.752H426.229V143.843H421.699V142.809L425.752 137.481H427.421L423.606 142.571H426.309V140.901H427.739V142.571H429.17V143.843Z" fill="#CFCFCF"/>
<path d="M39.5864 175.255V183.525H38.0764V176.527H36.3279V175.255H39.5864Z" fill="#CFCFCF"/>
<path d="M47.6133 179.152C48.1696 179.629 48.4875 180.185 48.4875 180.981C48.4875 181.458 48.3285 181.935 48.0901 182.333C47.8517 182.73 47.4543 183.048 46.9775 183.287C46.5006 183.525 45.8648 183.605 45.1496 183.605C44.5932 183.605 43.9574 183.525 43.4011 183.366C42.8448 183.207 42.368 182.969 41.9706 182.651L42.6064 181.458C42.9243 181.696 43.3216 181.935 43.719 182.094C44.1164 182.253 44.5932 182.333 45.0701 182.333C45.6264 182.333 46.0238 182.253 46.3417 182.014C46.6596 181.776 46.8185 181.458 46.8185 181.06C46.8185 180.663 46.6596 180.345 46.3417 180.106C46.0238 179.867 45.4674 179.788 44.5932 179.788H42.6064L43.0037 175.255H47.8517V176.527H44.2753L44.1164 178.436H44.9111C46.1827 178.515 47.0569 178.754 47.6133 179.152Z" fill="#CFCFCF"/>
<path d="M99.9074 175.255V183.525H98.3974V176.527H96.6489V175.255H99.9074Z" fill="#CFCFCF"/>
<path d="M108.014 178.754C108.411 178.993 108.808 179.231 109.047 179.629C109.285 180.026 109.444 180.424 109.444 180.981C109.444 181.537 109.285 182.014 109.047 182.412C108.808 182.81 108.411 183.128 107.934 183.366C107.457 183.605 106.981 183.684 106.424 183.684C105.312 183.684 104.437 183.366 103.802 182.651C103.166 181.935 102.848 180.901 102.848 179.629C102.848 178.675 103.007 177.879 103.325 177.243C103.643 176.607 104.119 176.05 104.755 175.732C105.391 175.414 106.106 175.255 106.901 175.255C107.298 175.255 107.696 175.335 108.093 175.414C108.491 175.494 108.808 175.653 109.047 175.812L108.491 177.005C108.093 176.766 107.537 176.607 106.901 176.607C106.106 176.607 105.471 176.845 104.994 177.323C104.517 177.8 104.358 178.515 104.358 179.47C104.596 179.152 104.914 178.993 105.312 178.834C105.709 178.675 106.106 178.595 106.583 178.595C107.06 178.436 107.537 178.595 108.014 178.754ZM107.457 182.094C107.775 181.855 107.934 181.458 107.934 181.06C107.934 180.663 107.775 180.265 107.457 180.026C107.14 179.788 106.742 179.629 106.265 179.629C105.788 179.629 105.391 179.788 105.073 180.026C104.755 180.265 104.596 180.663 104.596 181.06C104.596 181.458 104.755 181.776 105.073 182.094C105.391 182.333 105.788 182.492 106.345 182.492C106.742 182.492 107.14 182.333 107.457 182.094Z" fill="#CFCFCF"/>
<path d="M171.275 175.255V183.525H169.765V176.527H168.017V175.255H171.275Z" fill="#CFCFCF"/>
<path d="M180.335 175.255V176.289L177.077 183.525H175.408L178.507 176.527H175.249V177.959H173.818V175.255H180.335Z" fill="#CFCFCF"/>
<path d="M222.854 175.255V183.525H221.344V176.527H219.596V175.255H222.854Z" fill="#CFCFCF"/>
<path d="M232.073 180.026C232.312 180.344 232.391 180.742 232.391 181.219C232.391 181.696 232.232 182.174 231.994 182.571C231.676 182.969 231.278 183.207 230.802 183.446C230.325 183.685 229.689 183.764 229.053 183.764C228.338 183.764 227.782 183.685 227.305 183.446C226.828 183.207 226.43 182.969 226.113 182.571C225.874 182.174 225.715 181.776 225.715 181.219C225.715 180.742 225.795 180.344 226.033 180.026C226.272 179.708 226.589 179.39 226.987 179.231C226.669 179.072 226.43 178.834 226.192 178.515C226.033 178.197 225.954 177.879 225.954 177.482C225.954 177.005 226.113 176.607 226.351 176.289C226.589 175.971 226.987 175.653 227.464 175.494C227.941 175.335 228.497 175.175 229.053 175.175C229.689 175.175 230.245 175.255 230.643 175.494C231.119 175.653 231.437 175.971 231.755 176.289C231.994 176.607 232.153 177.005 232.153 177.482C232.153 177.879 232.073 178.197 231.914 178.515C231.755 178.834 231.437 179.072 231.119 179.231C231.517 179.39 231.835 179.708 232.073 180.026ZM230.325 182.174C230.643 181.935 230.802 181.617 230.802 181.219C230.802 180.822 230.643 180.504 230.325 180.265C230.007 180.026 229.53 179.947 228.974 179.947C228.417 179.947 227.94 180.026 227.623 180.265C227.305 180.504 227.146 180.822 227.146 181.219C227.146 181.617 227.305 181.935 227.623 182.174C227.94 182.412 228.417 182.492 228.974 182.492C229.53 182.492 230.007 182.412 230.325 182.174ZM227.861 176.686C227.543 176.925 227.464 177.164 227.464 177.561C227.464 177.879 227.623 178.197 227.861 178.436C228.179 178.675 228.497 178.754 228.974 178.754C229.451 178.754 229.848 178.675 230.166 178.436C230.484 178.197 230.563 177.959 230.563 177.561C230.563 177.164 230.404 176.925 230.166 176.686C229.848 176.448 229.53 176.368 228.974 176.368C228.497 176.368 228.099 176.448 227.861 176.686Z" fill="#CFCFCF"/>
<path d="M285.639 175.255V183.525H284.129V176.527H282.38V175.255H285.639Z" fill="#CFCFCF"/>
<path d="M293.904 176.209C294.54 176.925 294.858 177.959 294.858 179.231C294.858 180.185 294.699 180.981 294.381 181.617C294.063 182.253 293.586 182.81 292.951 183.128C292.315 183.446 291.6 183.605 290.805 183.605C290.407 183.605 290.01 183.525 289.613 183.446C289.215 183.366 288.897 183.207 288.659 183.048L289.215 181.855C289.613 182.094 290.169 182.253 290.805 182.253C291.6 182.253 292.235 182.014 292.712 181.537C293.189 181.06 293.348 180.345 293.348 179.39C293.11 179.708 292.792 179.867 292.394 180.026C291.997 180.185 291.6 180.265 291.123 180.265C290.566 180.265 290.09 180.185 289.692 179.947C289.295 179.708 288.897 179.47 288.659 179.072C288.421 178.675 288.262 178.277 288.262 177.72C288.262 177.164 288.421 176.686 288.659 176.289C288.897 175.891 289.295 175.573 289.772 175.335C290.248 175.096 290.725 175.016 291.282 175.016C292.394 175.175 293.268 175.494 293.904 176.209ZM292.633 178.834C292.951 178.595 293.11 178.197 293.11 177.8C293.11 177.402 292.951 177.084 292.633 176.766C292.315 176.527 291.917 176.368 291.361 176.368C290.884 176.368 290.487 176.527 290.169 176.766C289.851 177.005 289.692 177.402 289.692 177.8C289.692 178.197 289.851 178.595 290.169 178.834C290.487 179.072 290.884 179.231 291.361 179.231C291.917 179.231 292.315 179.072 292.633 178.834Z" fill="#CFCFCF"/>
<path d="M360.424 182.253V183.525H354.305V182.492L357.563 179.39C357.961 179.072 358.199 178.754 358.278 178.436C358.437 178.197 358.437 177.879 358.437 177.641C358.437 177.243 358.278 176.925 358.04 176.766C357.802 176.527 357.404 176.448 356.927 176.448C356.053 176.448 355.417 176.766 355.02 177.323L353.907 176.527C354.225 176.13 354.702 175.732 355.179 175.494C355.735 175.255 356.371 175.096 357.007 175.096C357.881 175.096 358.596 175.335 359.153 175.732C359.709 176.13 359.947 176.766 359.947 177.482C359.947 177.959 359.868 178.356 359.63 178.754C359.391 179.152 359.073 179.629 358.517 180.106L356.292 182.253H360.424Z" fill="#CFCFCF"/>
<path d="M364.08 183.207C363.524 182.889 363.126 182.412 362.808 181.776C362.491 181.14 362.332 180.345 362.332 179.47C362.332 178.595 362.491 177.8 362.808 177.164C363.126 176.527 363.524 176.05 364.08 175.732C364.636 175.414 365.193 175.255 365.828 175.255C366.464 175.255 367.1 175.414 367.577 175.732C368.133 176.05 368.531 176.527 368.849 177.164C369.166 177.8 369.325 178.595 369.325 179.47C369.325 180.345 369.166 181.14 368.849 181.776C368.531 182.412 368.133 182.889 367.577 183.207C367.021 183.525 366.464 183.684 365.828 183.684C365.193 183.684 364.636 183.525 364.08 183.207ZM367.259 181.617C367.577 181.14 367.736 180.424 367.736 179.39C367.736 178.356 367.577 177.72 367.259 177.164C366.941 176.686 366.464 176.448 365.828 176.448C365.272 176.448 364.795 176.686 364.398 177.164C364.08 177.641 363.921 178.356 363.921 179.39C363.921 180.424 364.08 181.06 364.398 181.617C364.716 182.094 365.193 182.333 365.828 182.333C366.464 182.333 366.941 182.094 367.259 181.617Z" fill="#CFCFCF"/>
<path d="M422.096 182.253V183.525H415.977V182.492L419.235 179.39C419.633 179.072 419.871 178.754 419.951 178.436C420.109 178.197 420.109 177.879 420.109 177.641C420.109 177.243 419.951 176.925 419.712 176.766C419.474 176.527 419.076 176.448 418.599 176.448C417.725 176.448 417.089 176.766 416.692 177.323L415.579 176.527C415.897 176.13 416.374 175.732 416.851 175.494C417.407 175.255 418.043 175.096 418.679 175.096C419.553 175.096 420.268 175.335 420.825 175.732C421.381 176.13 421.619 176.766 421.619 177.482C421.619 177.959 421.54 178.356 421.302 178.754C421.063 179.152 420.745 179.629 420.189 180.106L417.964 182.253H422.096Z" fill="#CFCFCF"/>
<path d="M427.024 175.255V183.525H425.514V176.527H423.765V175.255H427.024Z" fill="#CFCFCF"/>
<path d="M42.6859 221.776V223.049H36.5663V222.015L39.8248 218.913C40.2222 218.595 40.4606 218.277 40.5401 217.959C40.699 217.721 40.699 217.402 40.699 217.164C40.699 216.766 40.5401 216.448 40.3016 216.289C40.0632 216.051 39.6658 215.971 39.189 215.971C38.3148 215.971 37.679 216.289 37.2816 216.846L36.169 216.051C36.4869 215.653 36.9637 215.255 37.4406 215.017C37.9969 214.778 38.6327 214.619 39.2685 214.619C40.1427 214.619 40.858 214.858 41.4143 215.255C41.9706 215.653 42.209 216.289 42.209 217.005C42.209 217.482 42.1295 217.88 41.8911 218.277C41.6527 218.675 41.3348 219.152 40.7785 219.629L38.5532 221.776H42.6859Z" fill="#CFCFCF"/>
<path d="M50.7923 221.776V223.049H44.6727V222.015L47.9312 218.913C48.3286 218.595 48.567 218.277 48.6464 217.959C48.8054 217.721 48.8054 217.402 48.8054 217.164C48.8054 216.766 48.6465 216.448 48.408 216.289C48.1696 216.051 47.7722 215.971 47.2954 215.971C46.4212 215.971 45.7854 216.289 45.388 216.846L44.2754 216.051C44.5933 215.653 45.0701 215.255 45.547 215.017C46.1033 214.778 46.7391 214.619 47.3749 214.619C48.2491 214.619 48.9644 214.858 49.5207 215.255C50.077 215.653 50.3154 216.289 50.3154 217.005C50.3154 217.482 50.2359 217.88 49.9975 218.277C49.8386 218.675 49.4412 219.152 48.8849 219.629L46.6596 221.776H50.7923Z" fill="#CFCFCF"/>
<path d="M103.086 221.776V223.049H96.9668V222.015L100.225 218.913C100.623 218.595 100.861 218.277 100.941 217.959C101.099 217.721 101.099 217.402 101.099 217.164C101.099 216.766 100.941 216.448 100.702 216.289C100.464 216.051 100.066 215.971 99.5895 215.971C98.7153 215.971 98.0795 216.289 97.6821 216.846L96.5695 216.051C96.8874 215.653 97.3642 215.255 97.8411 215.017C98.3974 214.778 99.0332 214.619 99.669 214.619C100.543 214.619 101.258 214.858 101.815 215.255C102.371 215.653 102.61 216.289 102.61 217.005C102.61 217.482 102.53 217.88 102.292 218.277C102.133 218.675 101.735 219.152 101.179 219.629L98.9537 221.776H103.086Z" fill="#CFCFCF"/>
<path d="M110.398 218.993C110.795 219.391 111.034 219.947 111.034 220.583C111.034 221.061 110.875 221.538 110.636 221.935C110.398 222.333 110.001 222.651 109.524 222.89C109.047 223.128 108.411 223.208 107.696 223.208C107.14 223.208 106.504 223.128 105.947 222.969C105.391 222.81 104.914 222.571 104.517 222.253L105.153 221.061C105.471 221.299 105.788 221.538 106.265 221.697C106.663 221.856 107.14 221.935 107.616 221.935C108.173 221.935 108.57 221.856 108.888 221.617C109.206 221.379 109.365 221.061 109.365 220.663C109.365 220.265 109.206 219.947 108.888 219.788C108.57 219.55 108.173 219.47 107.537 219.47H106.742V218.436L108.65 216.21H104.914V214.937H110.557V215.971L108.57 218.357C109.444 218.357 110.001 218.595 110.398 218.993Z" fill="#CFCFCF"/>
<path d="M174.375 221.776V223.049H168.255V222.015L171.514 218.913C171.911 218.595 172.15 218.277 172.229 217.959C172.388 217.721 172.388 217.402 172.388 217.164C172.388 216.766 172.229 216.448 171.991 216.289C171.752 216.051 171.355 215.971 170.878 215.971C170.004 215.971 169.368 216.289 168.971 216.846L167.858 216.051C168.176 215.653 168.653 215.255 169.13 215.017C169.686 214.778 170.322 214.619 170.957 214.619C171.832 214.619 172.547 214.858 173.103 215.255C173.66 215.653 173.898 216.289 173.898 217.005C173.898 217.482 173.819 217.88 173.58 218.277C173.421 218.675 173.024 219.152 172.467 219.629L170.242 221.776H174.375Z" fill="#CFCFCF"/>
<path d="M183.673 221.22H182.243V223.128H180.733V221.22H176.203V220.186L180.256 214.858H181.925L178.11 219.947H180.812V218.277H182.243V219.947H183.673V221.22Z" fill="#CFCFCF"/>
<path d="M225.954 221.776V223.049H219.834V222.015L223.093 218.913C223.49 218.595 223.728 218.277 223.808 217.959C223.967 217.721 223.967 217.402 223.967 217.164C223.967 216.766 223.808 216.448 223.569 216.289C223.331 216.051 222.934 215.971 222.457 215.971C221.583 215.971 220.947 216.289 220.549 216.846L219.437 216.051C219.755 215.653 220.232 215.255 220.708 215.017C221.265 214.778 221.901 214.619 222.536 214.619C223.411 214.619 224.126 214.858 224.682 215.255C225.238 215.653 225.477 216.289 225.477 217.005C225.477 217.482 225.397 217.88 225.159 218.277C224.921 218.675 224.603 219.152 224.046 219.629L221.821 221.776H225.954Z" fill="#CFCFCF"/>
<path d="M233.265 218.675C233.822 219.152 234.14 219.709 234.14 220.504C234.14 220.981 233.981 221.458 233.742 221.856C233.504 222.253 233.106 222.571 232.63 222.81C232.153 223.049 231.517 223.128 230.802 223.128C230.245 223.128 229.61 223.049 229.053 222.89C228.497 222.731 228.02 222.492 227.623 222.174L228.258 220.981C228.576 221.22 228.974 221.458 229.371 221.617C229.768 221.776 230.245 221.856 230.722 221.856C231.278 221.856 231.676 221.776 231.994 221.538C232.312 221.299 232.471 220.981 232.471 220.583C232.471 220.186 232.312 219.868 231.994 219.629C231.676 219.391 231.12 219.311 230.245 219.311H228.258L228.656 214.778H233.504V216.051H229.927L229.768 217.959H230.563C231.835 218.039 232.709 218.277 233.265 218.675Z" fill="#CFCFCF"/>
<path d="M360.424 221.776V223.049H354.305V222.015L357.563 218.913C357.961 218.595 358.199 218.277 358.278 217.959C358.437 217.721 358.437 217.402 358.437 217.164C358.437 216.766 358.278 216.448 358.04 216.289C357.802 216.051 357.404 215.971 356.927 215.971C356.053 215.971 355.417 216.289 355.02 216.846L353.907 216.051C354.225 215.653 354.702 215.255 355.179 215.017C355.735 214.778 356.371 214.619 357.007 214.619C357.881 214.619 358.596 214.858 359.153 215.255C359.709 215.653 359.947 216.289 359.947 217.005C359.947 217.482 359.868 217.88 359.629 218.277C359.391 218.675 359.073 219.152 358.517 219.629L356.292 221.776H360.424Z" fill="#CFCFCF"/>
<path d="M368.69 214.858V215.892L365.431 223.128H363.762L366.862 216.13H363.603V217.562H362.173V214.858H368.69Z" fill="#CFCFCF"/>
<path d="M422.096 221.776V223.049H415.977V222.015L419.235 218.913C419.633 218.595 419.871 218.277 419.951 217.959C420.11 217.721 420.109 217.402 420.109 217.164C420.109 216.766 419.951 216.448 419.712 216.289C419.474 216.051 419.076 215.971 418.599 215.971C417.725 215.971 417.089 216.289 416.692 216.846L415.579 216.051C415.897 215.653 416.374 215.255 416.851 215.017C417.407 214.778 418.043 214.619 418.679 214.619C419.553 214.619 420.268 214.858 420.825 215.255C421.381 215.653 421.62 216.289 421.62 217.005C421.62 217.482 421.54 217.88 421.302 218.277C421.063 218.675 420.745 219.152 420.189 219.629L417.964 221.776H422.096Z" fill="#CFCFCF"/>
<path d="M430.6 219.55C430.839 219.868 430.918 220.265 430.918 220.742C430.918 221.22 430.759 221.697 430.521 222.094C430.203 222.492 429.805 222.731 429.329 222.969C428.852 223.208 428.216 223.287 427.58 223.287C426.865 223.287 426.308 223.208 425.832 222.969C425.355 222.731 424.957 222.492 424.639 222.094C424.401 221.697 424.242 221.299 424.242 220.742C424.242 220.265 424.322 219.868 424.56 219.55C424.798 219.232 425.116 218.913 425.514 218.754C425.196 218.595 424.957 218.357 424.719 218.039C424.56 217.721 424.481 217.402 424.481 217.005C424.481 216.528 424.639 216.13 424.878 215.812C425.116 215.494 425.514 215.176 425.991 215.017C426.467 214.858 427.024 214.699 427.58 214.699C428.216 214.699 428.772 214.778 429.17 215.017C429.646 215.176 429.964 215.494 430.282 215.812C430.521 216.13 430.68 216.528 430.68 217.005C430.68 217.402 430.6 217.721 430.441 218.039C430.282 218.357 429.964 218.595 429.646 218.754C430.044 218.913 430.362 219.232 430.6 219.55ZM428.852 221.697C429.17 221.458 429.329 221.14 429.329 220.742C429.329 220.345 429.17 220.027 428.852 219.788C428.534 219.55 428.057 219.47 427.501 219.47C426.944 219.47 426.467 219.55 426.15 219.788C425.832 220.027 425.673 220.345 425.673 220.742C425.673 221.14 425.832 221.458 426.15 221.697C426.467 221.935 426.944 222.015 427.501 222.015C428.057 222.015 428.534 221.935 428.852 221.697ZM426.388 216.21C426.07 216.448 425.991 216.687 425.991 217.084C425.991 217.402 426.15 217.721 426.388 217.959C426.706 218.198 427.024 218.277 427.501 218.277C427.977 218.277 428.375 218.198 428.693 217.959C429.011 217.721 429.09 217.482 429.09 217.084C429.09 216.687 428.931 216.448 428.693 216.21C428.375 215.971 428.057 215.892 427.501 215.892C427.024 215.892 426.626 216.051 426.388 216.21Z" fill="#CFCFCF"/>
<path d="M42.6859 259.709V260.981H36.5663V259.948L39.8248 256.846C40.2222 256.528 40.4606 256.21 40.5401 255.892C40.699 255.653 40.699 255.335 40.699 255.097C40.699 254.699 40.5401 254.381 40.3016 254.222C40.0632 253.983 39.6658 253.904 39.189 253.904C38.3148 253.904 37.679 254.222 37.2816 254.779L36.169 253.983C36.4869 253.586 36.9637 253.188 37.4406 252.949C37.9969 252.711 38.6327 252.552 39.2685 252.552C40.1427 252.552 40.858 252.79 41.4143 253.188C41.9706 253.586 42.209 254.222 42.209 254.938C42.209 255.415 42.1295 255.812 41.8911 256.21C41.7322 256.608 41.3348 257.085 40.7785 257.562L38.5532 259.709H42.6859Z" fill="#CFCFCF"/>
<path d="M50.2359 253.665C50.8717 254.381 51.1896 255.415 51.1896 256.687C51.1896 257.641 51.0307 258.437 50.7128 259.073C50.3949 259.709 49.918 260.266 49.2822 260.584C48.6465 260.902 47.9312 261.061 47.1364 261.061C46.7391 261.061 46.3417 260.981 45.9443 260.902C45.547 260.822 45.2291 260.663 44.9906 260.504L45.547 259.311C45.9443 259.55 46.5006 259.709 47.1364 259.709C47.9312 259.709 48.567 259.47 49.0438 258.993C49.5207 258.516 49.6796 257.8 49.6796 256.846C49.4412 257.164 49.1233 257.323 48.7259 257.482C48.3286 257.641 47.9312 257.721 47.4543 257.721C46.898 257.721 46.4212 257.641 46.0238 257.403C45.6264 257.164 45.2291 256.926 44.9906 256.528C44.7522 256.13 44.5933 255.733 44.5933 255.176C44.5933 254.619 44.7522 254.142 44.9906 253.745C45.2291 253.347 45.6264 253.029 46.1033 252.79C46.5801 252.552 47.057 252.472 47.6133 252.472C48.7259 252.552 49.6001 252.949 50.2359 253.665ZM48.8849 256.21C49.2028 255.971 49.3617 255.574 49.3617 255.176C49.3617 254.779 49.2028 254.46 48.8849 254.142C48.567 253.904 48.1696 253.745 47.6133 253.745C47.1364 253.745 46.7391 253.904 46.4212 254.142C46.1033 254.381 45.9443 254.779 45.9443 255.176C45.9443 255.574 46.1033 255.971 46.4212 256.21C46.7391 256.449 47.1364 256.608 47.6133 256.608C48.1696 256.608 48.567 256.449 48.8849 256.21Z" fill="#CFCFCF"/>
<path d="M102.371 256.926C102.768 257.323 103.007 257.88 103.007 258.516C103.007 258.993 102.848 259.47 102.61 259.868C102.371 260.266 101.974 260.584 101.497 260.822C101.02 261.061 100.384 261.14 99.669 261.14C99.1126 261.14 98.4769 261.061 97.9205 260.902C97.3642 260.743 96.8874 260.504 96.49 260.186L97.1258 258.993C97.4437 259.232 97.7616 259.47 98.2384 259.629C98.6358 259.788 99.1127 259.868 99.5895 259.868C100.146 259.868 100.543 259.788 100.861 259.55C101.179 259.311 101.338 258.993 101.338 258.596C101.338 258.198 101.179 257.88 100.861 257.721C100.543 257.482 100.146 257.403 99.51 257.403H98.7153V256.369L100.623 254.142H96.8874V252.87H102.53V253.904L100.543 256.289C101.338 256.21 101.974 256.448 102.371 256.926Z" fill="#CFCFCF"/>
<path d="M106.822 260.584C106.265 260.266 105.868 259.788 105.55 259.152C105.232 258.516 105.073 257.721 105.073 256.846C105.073 255.971 105.232 255.176 105.55 254.54C105.868 253.904 106.265 253.427 106.822 253.109C107.378 252.79 107.934 252.631 108.57 252.631C109.206 252.631 109.842 252.79 110.319 253.109C110.875 253.427 111.272 253.904 111.59 254.54C111.908 255.176 112.067 255.971 112.067 256.846C112.067 257.721 111.908 258.516 111.59 259.152C111.272 259.788 110.875 260.266 110.319 260.584C109.762 260.902 109.206 261.061 108.57 261.061C107.934 261.14 107.378 260.981 106.822 260.584ZM110.001 259.073C110.319 258.596 110.477 257.88 110.477 256.846C110.477 255.812 110.319 255.176 110.001 254.619C109.683 254.142 109.206 253.904 108.57 253.904C108.014 253.904 107.537 254.142 107.14 254.619C106.822 255.097 106.663 255.812 106.663 256.846C106.663 257.88 106.822 258.516 107.14 259.073C107.457 259.55 107.934 259.788 108.57 259.788C109.206 259.788 109.683 259.55 110.001 259.073Z" fill="#CFCFCF"/>
<path d="M173.66 258.516C174.057 258.914 174.295 259.47 174.295 260.107C174.295 260.584 174.136 261.061 173.898 261.458C173.66 261.856 173.262 262.174 172.785 262.413C172.309 262.651 171.673 262.731 170.957 262.731C170.401 262.731 169.765 262.651 169.209 262.492C168.653 262.333 168.176 262.095 167.779 261.777L168.414 260.584C168.732 260.822 169.05 261.061 169.527 261.22C169.924 261.379 170.401 261.458 170.878 261.458C171.434 261.458 171.832 261.379 172.15 261.14C172.467 260.902 172.626 260.584 172.626 260.186C172.626 259.788 172.467 259.47 172.15 259.311C171.832 259.073 171.434 258.993 170.799 258.993H170.004V257.959L171.911 255.733H168.176V254.46H173.819V255.494L171.832 257.88C172.706 257.88 173.262 258.118 173.66 258.516Z" fill="#CFCFCF"/>
<path d="M179.382 254.381V262.651H177.872V255.653H176.044V254.381H179.382Z" fill="#CFCFCF"/>
<path d="M47.6928 78.5544V70.284L43.6396 77.123H42.209L38.1558 70.443V78.5544H35.1358V64.7173H37.7585L42.9243 73.3059L48.0107 64.7173H50.6333V78.5544H47.6928Z" fill="#AAACAF"/>
<path d="M100.543 67.3416H96.0926V64.7173H108.173V67.3416H103.722V78.5544H100.543V67.3416Z" fill="#AAACAF"/>
<path d="M181.051 64.7173L176.521 78.5544H173.103L170.083 69.1707L166.984 78.5544H163.566L159.036 64.7173H162.374L165.474 74.4192L168.732 64.7173H171.673L174.852 74.4987L178.11 64.7173H181.051Z" fill="#AAACAF"/>
<path d="M225.636 67.3416H221.185V64.7173H233.265V67.3416H228.815V78.5544H225.636V67.3416Z" fill="#AAACAF"/>
<path d="M288.5 67.3416V70.9997H294.937V73.5444H288.5V78.5544H285.321V64.7173H295.732V67.2621H288.5V67.3416Z" fill="#AAACAF"/>
<path d="M349.218 78.3954C348.185 78.0773 347.39 77.6797 346.755 77.2025L347.867 74.8168C348.424 75.2144 349.139 75.6121 350.013 75.8506C350.808 76.0892 351.682 76.2482 352.477 76.2482C353.351 76.2482 354.066 76.0892 354.464 75.8506C354.861 75.6121 355.099 75.2144 355.099 74.7373C355.099 74.4192 354.941 74.1011 354.702 73.9421C354.464 73.7035 354.146 73.5444 353.748 73.3854C353.351 73.2263 352.795 73.1468 352.079 72.9878C351.046 72.7492 350.172 72.5106 349.457 72.2721C348.821 72.0335 348.185 71.6359 347.708 71.0792C347.231 70.5225 346.993 69.8068 346.993 68.8526C346.993 68.0573 347.231 67.3416 347.629 66.7054C348.026 66.0692 348.742 65.5126 349.616 65.115C350.49 64.7173 351.523 64.5583 352.795 64.5583C353.669 64.5583 354.543 64.6378 355.417 64.8764C356.292 65.115 357.007 65.3535 357.643 65.7511L356.689 68.2164C355.417 67.5007 354.146 67.103 352.874 67.103C352 67.103 351.285 67.2621 350.887 67.5007C350.49 67.8187 350.252 68.1368 350.252 68.614C350.252 69.0911 350.49 69.4092 350.967 69.6478C351.444 69.8864 352.238 70.1249 353.192 70.3635C354.225 70.6021 355.099 70.8406 355.815 71.0792C356.451 71.3178 357.086 71.7154 357.563 72.2721C358.04 72.8287 358.278 73.5445 358.278 74.4987C358.278 75.294 358.04 76.0097 357.643 76.6459C357.166 77.282 356.53 77.8387 355.656 78.2363C354.782 78.6339 353.669 78.793 352.397 78.793C351.285 78.793 350.252 78.634 349.218 78.3954Z" fill="#AAACAF"/>
<path d="M411.765 78.3954C410.731 78.0773 409.937 77.6797 409.301 77.2025L410.414 74.8168C410.97 75.2144 411.685 75.6121 412.559 75.8506C413.354 76.0892 414.228 76.2482 415.023 76.2482C415.897 76.2482 416.613 76.0892 417.01 75.8506C417.407 75.6121 417.646 75.2144 417.646 74.7373C417.646 74.4192 417.487 74.1011 417.248 73.9421C417.01 73.7035 416.692 73.5444 416.295 73.3854C415.897 73.2263 415.341 73.1468 414.626 72.9878C413.593 72.7492 412.718 72.5106 412.003 72.2721C411.367 72.0335 410.732 71.6359 410.255 71.0792C409.778 70.5225 409.539 69.8068 409.539 68.8526C409.539 68.0573 409.778 67.3416 410.175 66.7054C410.573 66.0692 411.288 65.5126 412.162 65.115C413.036 64.7173 414.069 64.5583 415.341 64.5583C416.215 64.5583 417.089 64.6378 417.964 64.8764C418.838 65.115 419.553 65.3535 420.189 65.7511L419.235 68.2164C417.964 67.5007 416.692 67.103 415.421 67.103C414.546 67.103 413.831 67.2621 413.434 67.5007C413.036 67.8187 412.798 68.1368 412.798 68.614C412.798 69.0911 413.036 69.4092 413.513 69.6478C413.99 69.8864 414.785 70.1249 415.738 70.3635C416.772 70.6021 417.646 70.8406 418.361 71.0792C418.997 71.3178 419.633 71.7154 420.109 72.2721C420.586 72.8287 420.825 73.5445 420.825 74.4987C420.825 75.294 420.586 76.0097 420.189 76.6459C419.712 77.282 419.076 77.8387 418.202 78.2363C417.328 78.6339 416.215 78.793 414.944 78.793C413.831 78.793 412.798 78.634 411.765 78.3954Z" fill="#AAACAF"/>
<path d="M389.512 33.3056C393.155 33.3056 396.108 30.3504 396.108 26.7051C396.108 23.0598 393.155 20.1047 389.512 20.1047C385.869 20.1047 382.916 23.0598 382.916 26.7051C382.916 30.3504 385.869 33.3056 389.512 33.3056Z" fill="white"/>
<path d="M410.97 33.3056C414.613 33.3056 417.566 30.3504 417.566 26.7051C417.566 23.0598 414.613 20.1047 410.97 20.1047C407.327 20.1047 404.374 23.0598 404.374 26.7051C404.374 30.3504 407.327 33.3056 410.97 33.3056Z" fill="white"/>
<path d="M432.349 33.3056C435.992 33.3056 438.945 30.3504 438.945 26.7051C438.945 23.0598 435.992 20.1047 432.349 20.1047C428.706 20.1047 425.752 23.0598 425.752 26.7051C425.752 30.3504 428.706 33.3056 432.349 33.3056Z" fill="#FBB910"/>
<defs>
<linearGradient id="paint0_linear" x1="268.831" y1="221.23" x2="313.821" y2="221.23" gradientUnits="userSpaceOnUse">
<stop stop-color="#EEBE26"/>
<stop offset="0.5746" stop-color="#EEBE27"/>
<stop offset="0.7815" stop-color="#F1BA2B"/>
<stop offset="0.9285" stop-color="#F6B430"/>
<stop offset="1" stop-color="#F9AF34"/>
</linearGradient>
</defs>
</svg>
