<svg width="200" height="116" viewBox="0 0 200 116" fill="none" xmlns="http://www.w3.org/2000/svg">
<g opacity="0.5">
<circle cx="43" cy="58" r="3" fill="#2C3647" fill-opacity="0.4"/>
<circle cx="65" cy="58" r="3" fill="#2C3647" fill-opacity="0.4"/>
<circle cx="76" cy="58" r="3" fill="#2C3647" fill-opacity="0.4"/>
<circle cx="87" cy="58" r="3" fill="#2C3647" fill-opacity="0.4"/>
<circle cx="109" cy="58" r="3" fill="#2C3647" fill-opacity="0.4"/>
<circle cx="120" cy="58" r="3" fill="#2C3647" fill-opacity="0.4"/>
<circle cx="131" cy="58" r="3" fill="#2C3647" fill-opacity="0.4"/>
<circle cx="153" cy="58" r="3" fill="#2C3647" fill-opacity="0.4"/>
<circle cx="164" cy="58" r="3" fill="#2C3647" fill-opacity="0.4"/>
<circle cx="175" cy="58" r="3" fill="#2C3647" fill-opacity="0.3"/>
<circle cx="186" cy="58" r="3" fill="#2C3647" fill-opacity="0.2"/>
<circle cx="43" cy="47" r="3" fill="#2C3647" fill-opacity="0.3"/>
<circle cx="54" cy="47" r="3" fill="#2C3647" fill-opacity="0.3"/>
<circle cx="65" cy="47" r="3" fill="#2C3647" fill-opacity="0.3"/>
<circle cx="76" cy="47" r="3" fill="#2C3647" fill-opacity="0.3"/>
<circle cx="87" cy="47" r="3" fill="#2C3647" fill-opacity="0.3"/>
<circle cx="98" cy="47" r="3" fill="#2C3647" fill-opacity="0.3"/>
<circle cx="109" cy="47" r="3" fill="#2C3647" fill-opacity="0.3"/>
<circle cx="120" cy="47" r="3" fill="#2C3647" fill-opacity="0.3"/>
<circle cx="131" cy="47" r="3" fill="#2C3647" fill-opacity="0.3"/>
<circle cx="142" cy="47" r="3" fill="#2C3647" fill-opacity="0.3"/>
<circle cx="153" cy="47" r="3" fill="#2C3647" fill-opacity="0.3"/>
<circle cx="164" cy="47" r="3" fill="#2C3647" fill-opacity="0.3"/>
<circle cx="175" cy="47" r="3" fill="#2C3647" fill-opacity="0.3"/>
<circle cx="197" cy="47" r="3" fill="#2C3647" fill-opacity="0.1"/>
<circle cx="54" cy="36" r="3" fill="#2C3647" fill-opacity="0.2"/>
<circle cx="76" cy="36" r="3" fill="#2C3647" fill-opacity="0.2"/>
<circle cx="98" cy="36" r="3" fill="#2C3647" fill-opacity="0.2"/>
<circle cx="120" cy="36" r="3" fill="#2C3647" fill-opacity="0.2"/>
<circle cx="142" cy="36" r="3" fill="#2C3647" fill-opacity="0.2"/>
<circle cx="164" cy="36" r="3" fill="#2C3647" fill-opacity="0.2"/>
<circle cx="186" cy="36" r="3" fill="#2C3647" fill-opacity="0.2"/>
<circle cx="43" cy="25" r="3" fill="#2C3647" fill-opacity="0.1"/>
<circle cx="65" cy="25" r="3" fill="#2C3647" fill-opacity="0.1"/>
<circle cx="87" cy="25" r="3" fill="#2C3647" fill-opacity="0.1"/>
<circle cx="109" cy="25" r="3" fill="#2C3647" fill-opacity="0.1"/>
<circle cx="99" cy="14" r="3" fill="#2C3647" fill-opacity="0.1"/>
<circle cx="131" cy="25" r="3" fill="#2C3647" fill-opacity="0.1"/>
<circle cx="121" cy="14" r="3" fill="#2C3647" fill-opacity="0.1"/>
<circle cx="134" cy="3" r="3" fill="#2C3647" fill-opacity="0.1"/>
<circle cx="153" cy="25" r="3" fill="#2C3647" fill-opacity="0.1"/>
<circle cx="143" cy="14" r="3" fill="#2C3647" fill-opacity="0.1"/>
<circle cx="156" cy="3" r="3" fill="#2C3647" fill-opacity="0.1"/>
<circle cx="175" cy="25" r="3" fill="#2C3647" fill-opacity="0.1"/>
<circle cx="165" cy="14" r="3" fill="#2C3647" fill-opacity="0.1"/>
<circle cx="197" cy="25" r="3" fill="#2C3647" fill-opacity="0.1"/>
<circle cx="32" cy="47" r="3" fill="#2C3647" fill-opacity="0.3"/>
<circle cx="32" cy="36" r="3" fill="#2C3647" fill-opacity="0.2"/>
<circle cx="21" cy="58" r="3" fill="#2C3647" fill-opacity="0.4"/>
<circle cx="21" cy="47" r="3" fill="#2C3647" fill-opacity="0.3"/>
<circle cx="21" cy="25" r="3" fill="#2C3647" fill-opacity="0.1"/>
<circle cx="10" cy="58" r="3" fill="#2C3647" fill-opacity="0.4"/>
<circle cx="10" cy="47" r="3" fill="#2C3647" fill-opacity="0.3"/>
<circle cx="10" cy="36" r="3" fill="#2C3647" fill-opacity="0.2"/>
<circle cx="43" cy="80" r="3" fill="#2C3647" fill-opacity="0.4"/>
<circle cx="54" cy="80" r="3" fill="#2C3647" fill-opacity="0.4"/>
<circle cx="65" cy="80" r="3" fill="#2C3647" fill-opacity="0.4"/>
<circle cx="76" cy="80" r="3" fill="#2C3647" fill-opacity="0.4"/>
<circle cx="87" cy="80" r="3" fill="#2C3647" fill-opacity="0.4"/>
<circle cx="98" cy="80" r="3" fill="#2C3647" fill-opacity="0.4"/>
<circle cx="109" cy="80" r="3" fill="#2C3647" fill-opacity="0.4"/>
<circle cx="120" cy="80" r="3" fill="#2C3647" fill-opacity="0.4"/>
<circle cx="131" cy="80" r="3" fill="#2C3647" fill-opacity="0.4"/>
<circle cx="142" cy="80" r="3" fill="#2C3647" fill-opacity="0.4"/>
<circle cx="153" cy="80" r="3" fill="#2C3647" fill-opacity="0.4"/>
<circle cx="164" cy="80" r="3" fill="#2C3647" fill-opacity="0.4"/>
<circle cx="175" cy="80" r="3" fill="#2C3647" fill-opacity="0.3"/>
<circle cx="186" cy="80" r="3" fill="#2C3647" fill-opacity="0.2"/>
<circle cx="32" cy="80" r="3" fill="#2C3647" fill-opacity="0.4"/>
<circle cx="21" cy="80" r="3" fill="#2C3647" fill-opacity="0.4"/>
<circle cx="10" cy="80" r="3" fill="#2C3647" fill-opacity="0.5"/>
<circle cx="54" cy="102" r="3" fill="#2C3647" fill-opacity="0.2"/>
<circle cx="76" cy="102" r="3" fill="#2C3647" fill-opacity="0.2"/>
<circle cx="98" cy="102" r="3" fill="#2C3647" fill-opacity="0.2"/>
<circle cx="120" cy="102" r="3" fill="#2C3647" fill-opacity="0.2"/>
<circle cx="142" cy="102" r="3" fill="#2C3647" fill-opacity="0.2"/>
<circle cx="164" cy="102" r="3" fill="#2C3647" fill-opacity="0.2"/>
<circle cx="186" cy="102" r="3" fill="#2C3647" fill-opacity="0.2"/>
<circle cx="32" cy="102" r="3" fill="#2C3647" fill-opacity="0.2"/>
<circle cx="10" cy="102" r="3" fill="#2C3647" fill-opacity="0.2"/>
<circle cx="43" cy="69" r="3" fill="#2C3647" fill-opacity="0.5"/>
<circle cx="54" cy="69" r="3" fill="#2C3647" fill-opacity="0.5"/>
<circle cx="65" cy="69" r="3" fill="#2C3647" fill-opacity="0.5"/>
<circle cx="76" cy="69" r="3" fill="#2C3647" fill-opacity="0.5"/>
<circle cx="98" cy="69" r="3" fill="#2C3647" fill-opacity="0.5"/>
<circle cx="109" cy="69" r="3" fill="#2C3647" fill-opacity="0.5"/>
<circle cx="120" cy="69" r="3" fill="#2C3647" fill-opacity="0.5"/>
<circle cx="131" cy="69" r="3" fill="#2C3647" fill-opacity="0.5"/>
<circle cx="142" cy="69" r="3" fill="#2C3647" fill-opacity="0.5"/>
<circle cx="164" cy="69" r="3" fill="#2C3647" fill-opacity="0.4"/>
<circle cx="175" cy="69" r="3" fill="#2C3647" fill-opacity="0.3"/>
<circle cx="197" cy="69" r="3" fill="#2C3647" fill-opacity="0.1"/>
<circle cx="32" cy="69" r="3" fill="#2C3647" fill-opacity="0.5"/>
<circle cx="10" cy="69" r="3" fill="#2C3647" fill-opacity="0.4"/>
<circle cx="43" cy="91" r="3" fill="#2C3647" fill-opacity="0.3"/>
<circle cx="65" cy="91" r="3" fill="#2C3647" fill-opacity="0.3"/>
<circle cx="87" cy="91" r="3" fill="#2C3647" fill-opacity="0.3"/>
<circle cx="98" cy="91" r="3" fill="#2C3647" fill-opacity="0.3"/>
<circle cx="109" cy="91" r="3" fill="#2C3647" fill-opacity="0.3"/>
<circle cx="131" cy="91" r="3" fill="#2C3647" fill-opacity="0.3"/>
<circle cx="142" cy="91" r="3" fill="#2C3647" fill-opacity="0.3"/>
<circle cx="164" cy="91" r="3" fill="#2C3647" fill-opacity="0.3"/>
<circle cx="175" cy="91" r="3" fill="#2C3647" fill-opacity="0.3"/>
<circle cx="197" cy="91" r="3" fill="#2C3647" fill-opacity="0.1"/>
<circle cx="21" cy="91" r="3" fill="#2C3647" fill-opacity="0.3"/>
<circle cx="43" cy="113" r="3" fill="#2C3647" fill-opacity="0.1"/>
<circle cx="65" cy="113" r="3" fill="#2C3647" fill-opacity="0.1"/>
<circle cx="87" cy="113" r="3" fill="#2C3647" fill-opacity="0.1"/>
<circle cx="109" cy="113" r="3" fill="#2C3647" fill-opacity="0.1"/>
<circle cx="131" cy="113" r="3" fill="#2C3647" fill-opacity="0.1"/>
<circle cx="153" cy="113" r="3" fill="#2C3647" fill-opacity="0.1"/>
<circle cx="175" cy="113" r="3" fill="#2C3647" fill-opacity="0.1"/>
<circle cx="197" cy="113" r="3" fill="#2C3647" fill-opacity="0.1"/>
<circle cx="21" cy="113" r="3" fill="#2C3647" fill-opacity="0.1"/>
<circle cx="-1" cy="58" r="3" fill="#2C3647" fill-opacity="0.3"/>
<circle cx="-1" cy="25" r="3" fill="#2C3647" fill-opacity="0.1"/>
<circle cx="-1" cy="80" r="3" fill="#2C3647" fill-opacity="0.3"/>
<circle cx="-1" cy="69" r="3" fill="#2C3647" fill-opacity="0.3"/>
<circle cx="-1" cy="91" r="3" fill="#2C3647" fill-opacity="0.3"/>
<circle cx="-1" cy="113" r="3" fill="#2C3647" fill-opacity="0.1"/>
</g>
</svg>
