<svg width="397" height="110" viewBox="0 0 397 110" fill="none" xmlns="http://www.w3.org/2000/svg">
<path d="M51.4 109.35C41 109.35 31.9 107.15 24.1 102.75C16.4 98.25 10.45 91.9 6.25 83.7C2.15 75.5 0.1 65.95 0.1 55.05C0.1 44.15 2.15 34.65 6.25 26.55C10.45 18.35 16.4 12.05 24.1 7.65C31.9 3.14999 41 0.899993 51.4 0.899993C58.5 0.899993 65.2 1.99999 71.5 4.2C77.8 6.4 83.1 9.5 87.4 13.5L80.95 27.6C76.15 23.8 71.4 21.05 66.7 19.35C62 17.55 57 16.65 51.7 16.65C41.5 16.65 33.6 19.95 28 26.55C22.5 33.15 19.75 42.65 19.75 55.05C19.75 67.55 22.5 77.1 28 83.7C33.6 90.3 41.5 93.6 51.7 93.6C57 93.6 62 92.75 66.7 91.05C71.4 89.25 76.15 86.45 80.95 82.65L87.4 96.75C83.1 100.75 77.8 103.85 71.5 106.05C65.2 108.25 58.5 109.35 51.4 109.35ZM197.16 2.24999V108H178.26V62.1H124.11V108H105.06V2.24999H124.11V46.5H178.26V2.24999H197.16ZM290.104 83.25H238.654L228.004 108H208.504L256.354 2.24999H272.104L319.954 108H300.754L290.104 83.25ZM283.654 68.25L264.304 23.25L244.954 68.25H283.654ZM343.095 18.15H308.595V2.24999H396.945V18.15H362.445V108H343.095V18.15Z" fill="#2C3647" fill-opacity="0.05"/>
</svg>
