<svg width="36" height="36" viewBox="0 0 36 36" fill="none" xmlns="http://www.w3.org/2000/svg">
<path d="M18 36C14.4399 36 10.9598 34.9443 7.99974 32.9665C5.03966 30.9886 2.73255 28.1774 1.37018 24.8883C0.00779929 21.5992 -0.348661 17.98 0.345873 14.4884C1.04041 10.9967 2.75474 7.78943 5.27208 5.27208C7.78943 2.75474 10.9967 1.04041 14.4884 0.345873C17.98 -0.348661 21.5992 0.00779929 24.8883 1.37018C28.1774 2.73255 30.9886 5.03966 32.9665 7.99974C34.9443 10.9598 36 14.4399 36 18C36 22.7739 34.1036 27.3523 30.7279 30.7279C27.3523 34.1036 22.7739 36 18 36ZM18 2.40001C14.9146 2.40001 11.8985 3.31493 9.33311 5.02908C6.7677 6.74323 4.76821 9.17962 3.58749 12.0301C2.40676 14.8807 2.09783 18.0173 2.69976 21.0434C3.30169 24.0695 4.78744 26.8492 6.96914 29.0309C9.15084 31.2126 11.9305 32.6983 14.9566 33.3003C17.9827 33.9022 21.1193 33.5932 23.9699 32.4125C26.8204 31.2318 29.2568 29.2323 30.9709 26.6669C32.6851 24.1015 33.6 21.0854 33.6 18C33.6 13.8626 31.9564 9.89471 29.0309 6.96914C26.1053 4.04357 22.1374 2.40001 18 2.40001Z" fill="#FCBF24"/>
<path d="M15.204 25.1999C15.0395 25.1994 14.8768 25.165 14.7261 25.099C14.5754 25.0329 14.4399 24.9366 14.328 24.8159L8.72401 18.8159C8.53253 18.5798 8.43782 18.2798 8.45901 17.9765C8.48019 17.6732 8.61571 17.3893 8.83816 17.1821C9.06062 16.9749 9.35344 16.8598 9.65746 16.8601C9.96147 16.8605 10.254 16.9762 10.476 17.1839L15.204 22.2359L25.524 11.1839C25.6276 11.0562 25.7564 10.951 25.9024 10.8751C26.0483 10.7992 26.2083 10.7541 26.3724 10.7427C26.5366 10.7312 26.7013 10.7536 26.8564 10.8085C27.0115 10.8634 27.1536 10.9495 27.274 11.0617C27.3944 11.1738 27.4904 11.3095 27.5561 11.4603C27.6219 11.6111 27.6559 11.7739 27.6561 11.9384C27.6563 12.1029 27.6226 12.2657 27.5572 12.4167C27.4919 12.5676 27.3961 12.7035 27.276 12.8159L16.08 24.8159C15.9681 24.9366 15.8326 25.0329 15.6819 25.099C15.5312 25.165 15.3686 25.1994 15.204 25.1999Z" fill="#FCBF24"/>
</svg>
