<svg width="328" height="320" viewBox="0 0 328 320" fill="none" xmlns="http://www.w3.org/2000/svg">
<g filter="url(#filter0_d)">
<path d="M154.209 283.102C226.445 294.82 294.502 245.698 306.218 173.385C317.933 101.072 268.872 32.9521 196.635 21.2341C124.399 9.51613 56.3429 58.6379 44.6271 130.951C32.9114 203.263 81.973 271.384 154.209 283.102Z" fill="#FCBF24"/>
<path d="M158.113 259.006C217.056 268.568 272.588 228.486 282.148 169.481C291.707 110.475 251.674 54.8911 192.732 45.3296C133.789 35.768 78.2566 75.85 68.6969 134.855C59.1372 193.86 99.1701 249.445 158.113 259.006Z" fill="white"/>
<path d="M168.512 68.6983C166.925 68.8174 165.485 67.6423 165.366 66.054L164.217 52.2479C164.098 50.6595 165.272 49.2182 166.859 49.0991C168.446 48.98 169.886 50.155 170.004 51.7434L171.154 65.5495C171.273 67.1378 170.099 68.5792 168.512 68.6983Z" fill="#FCBF24"/>
<path d="M183.966 255.359C182.379 255.478 180.939 254.303 180.82 252.715L179.671 238.909C179.552 237.32 180.726 235.879 182.313 235.76C183.899 235.641 185.339 236.816 185.458 238.404L186.608 252.21C186.727 253.799 185.553 255.24 183.966 255.359Z" fill="#FCBF24"/>
<path d="M258.861 145.237C258.742 143.649 259.916 142.207 261.503 142.088L275.294 140.937C276.881 140.818 278.321 141.993 278.44 143.581C278.559 145.17 277.385 146.611 275.798 146.73L262.007 147.881C260.349 148.051 258.98 146.825 258.861 145.237Z" fill="#FCBF24"/>
<path d="M72.3437 160.744C72.2247 159.156 73.3986 157.715 74.9853 157.596L88.7768 156.445C90.3635 156.326 91.8033 157.501 91.9222 159.089C92.0411 160.677 90.8673 162.118 89.2806 162.237L75.4891 163.388C73.8925 163.569 72.5237 162.342 72.3437 160.744Z" fill="#FCBF24"/>
<path d="M231.887 85.3777C230.671 84.3646 230.531 82.5217 231.553 81.2441L236.128 75.8359C237.14 74.6194 238.982 74.4788 240.258 75.5018C241.473 76.5149 241.614 78.3578 240.592 79.6354L236.016 85.0436C235.004 86.2601 233.163 86.4007 231.887 85.3777Z" fill="#FCBF24"/>
<path d="M110.506 228.946C109.29 227.933 109.15 226.09 110.172 224.813L115.83 218.137C116.843 216.92 118.684 216.78 119.96 217.803C121.176 218.816 121.316 220.659 120.294 221.936L114.635 228.612C113.562 229.819 111.721 229.959 110.506 228.946Z" fill="#FCBF24"/>
<path d="M242.163 208.811C243.176 207.594 245.017 207.454 246.293 208.477L251.696 213.056C252.911 214.069 253.051 215.912 252.029 217.189C251.017 218.406 249.176 218.546 247.9 217.523L242.497 212.944C241.231 211.86 241.09 210.017 242.163 208.811Z" fill="#FCBF24"/>
<path d="M98.7952 87.2685C99.8073 86.052 101.648 85.9114 102.925 86.9344L109.594 92.598C110.809 93.6111 110.95 95.4539 109.928 96.7315C108.915 97.948 107.074 98.0886 105.798 97.0656L99.1289 91.402C97.9136 90.3889 97.7121 88.5362 98.7952 87.2685Z" fill="#FCBF24"/>
<path d="M175.788 151.474C174.624 152.854 172.6 152.965 171.221 151.8L128.756 115.539C127.377 114.374 127.267 112.348 128.431 110.968C129.595 109.588 131.619 109.477 132.998 110.642L175.514 146.974C176.842 148.068 176.943 150.155 175.788 151.474Z" fill="#FCBF24"/>
<path d="M175.569 155.516C174.19 154.351 174.08 152.325 175.244 150.944L205.583 115.385C206.747 114.005 208.771 113.894 210.15 115.059C211.529 116.224 211.639 118.25 210.475 119.63L180.085 155.119C178.921 156.499 176.887 156.671 175.569 155.516Z" fill="#FCBF24"/>
<path d="M173.55 163.726C179.926 164.761 185.934 160.424 186.968 154.041C188.003 147.657 183.672 141.644 177.295 140.61C170.918 139.575 164.91 143.911 163.876 150.295C162.842 156.678 167.173 162.692 173.55 163.726Z" fill="#FCBF24"/>
</g>
<g filter="url(#filter1_d)">
<path d="M49.9074 201.815C74.1567 201.815 93.8147 182.157 93.8147 157.907C93.8147 133.658 74.1567 114 49.9074 114C25.658 114 6 133.658 6 157.907C6 182.157 25.658 201.815 49.9074 201.815Z" fill="#FDE1B9"/>
<path d="M32.3074 160.131L46.0168 170.32L69.7305 145.68" stroke="white" stroke-width="2.1361" stroke-miterlimit="10" stroke-linecap="round" stroke-linejoin="round"/>
</g>
<defs>
<filter id="filter0_d" x="22.8981" y="14.5062" width="305.048" height="305.323" filterUnits="userSpaceOnUse" color-interpolation-filters="sRGB">
<feFlood flood-opacity="0" result="BackgroundImageFix"/>
<feColorMatrix in="SourceAlpha" type="matrix" values="0 0 0 0 0 0 0 0 0 0 0 0 0 0 0 0 0 0 127 0"/>
<feOffset dy="15"/>
<feGaussianBlur stdDeviation="10"/>
<feColorMatrix type="matrix" values="0 0 0 0 0 0 0 0 0 0 0 0 0 0 0 0 0 0 0.05 0"/>
<feBlend mode="normal" in2="BackgroundImageFix" result="effect1_dropShadow"/>
<feBlend mode="normal" in="SourceGraphic" in2="effect1_dropShadow" result="shape"/>
</filter>
<filter id="filter1_d" x="0" y="112" width="99.8147" height="99.8147" filterUnits="userSpaceOnUse" color-interpolation-filters="sRGB">
<feFlood flood-opacity="0" result="BackgroundImageFix"/>
<feColorMatrix in="SourceAlpha" type="matrix" values="0 0 0 0 0 0 0 0 0 0 0 0 0 0 0 0 0 0 127 0"/>
<feOffset dy="4"/>
<feGaussianBlur stdDeviation="3"/>
<feColorMatrix type="matrix" values="0 0 0 0 0 0 0 0 0 0 0 0 0 0 0 0 0 0 0.06 0"/>
<feBlend mode="normal" in2="BackgroundImageFix" result="effect1_dropShadow"/>
<feBlend mode="normal" in="SourceGraphic" in2="effect1_dropShadow" result="shape"/>
</filter>
</defs>
</svg>
