<svg width="238" height="235" viewBox="0 0 238 235" fill="none" xmlns="http://www.w3.org/2000/svg">
<g filter="url(#filter0_d)">
<path d="M110.115 198.132C160.544 206.312 208.056 172.019 216.235 121.537C224.414 71.0538 190.163 23.4978 139.734 15.3173C89.3044 7.1368 41.793 41.4295 33.6141 91.9123C25.4351 142.395 59.6858 189.951 110.115 198.132Z" fill="#FFE178"/>
<path d="M112.84 181.31C153.989 187.985 192.757 160.003 199.431 118.811C206.105 77.6182 178.157 38.8138 137.008 32.1388C95.8593 25.4637 57.0913 53.4456 50.4175 94.6382C43.7437 135.831 71.6913 174.635 112.84 181.31Z" fill="white"/>
<path d="M120.1 48.4529C118.992 48.536 117.987 47.7157 117.904 46.6068L117.101 36.9686C117.018 35.8597 117.838 34.8535 118.946 34.7703C120.054 34.6872 121.059 35.5075 121.142 36.6164L121.945 46.2546C122.028 47.3635 121.208 48.3698 120.1 48.4529Z" fill="#FFE178"/>
<path d="M130.889 178.764C129.781 178.847 128.776 178.027 128.693 176.918L127.89 167.28C127.807 166.171 128.627 165.165 129.734 165.081C130.842 164.998 131.848 165.819 131.931 166.927L132.733 176.566C132.816 177.675 131.997 178.681 130.889 178.764Z" fill="#FFE178"/>
<path d="M183.175 101.886C183.092 100.777 183.911 99.7709 185.019 99.6878L194.647 98.8842C195.755 98.801 196.76 99.6213 196.843 100.73C196.926 101.839 196.106 102.845 194.999 102.928L185.371 103.732C184.213 103.851 183.258 102.995 183.175 101.886Z" fill="#FFE178"/>
<path d="M52.9635 112.712C52.8804 111.603 53.6999 110.597 54.8076 110.514L64.4357 109.71C65.5434 109.627 66.5486 110.447 66.6316 111.556C66.7146 112.665 65.8951 113.671 64.7874 113.754L55.1593 114.558C54.0447 114.683 53.0891 113.827 52.9635 112.712Z" fill="#FFE178"/>
<path d="M164.343 60.097C163.495 59.3897 163.397 58.1032 164.11 57.2113L167.304 53.4357C168.011 52.5865 169.296 52.4883 170.187 53.2025C171.036 53.9098 171.134 55.1963 170.42 56.0883L167.226 59.8638C166.52 60.713 165.234 60.8112 164.343 60.097Z" fill="#FFE178"/>
<path d="M79.6051 160.325C78.7566 159.618 78.6586 158.331 79.3721 157.439L83.3224 152.778C84.029 151.929 85.3143 151.831 86.2054 152.545C87.0539 153.252 87.1519 154.539 86.4384 155.431L82.4881 160.092C81.7388 160.934 80.4535 161.032 79.6051 160.325Z" fill="#FFE178"/>
<path d="M171.517 146.268C172.224 145.418 173.509 145.32 174.4 146.034L178.172 149.231C179.021 149.939 179.119 151.225 178.405 152.117C177.698 152.966 176.413 153.064 175.522 152.35L171.75 149.153C170.866 148.396 170.768 147.11 171.517 146.268Z" fill="#FFE178"/>
<path d="M71.4297 61.4171C72.1362 60.5678 73.4215 60.4697 74.3125 61.1839L78.9684 65.1377C79.8169 65.845 79.9149 67.1314 79.2014 68.0234C78.4948 68.8726 77.2096 68.9708 76.3185 68.2566L71.6626 64.3027C70.8142 63.5955 70.6735 62.3021 71.4297 61.4171Z" fill="#FFE178"/>
<path d="M125.18 106.24C124.367 107.203 122.954 107.281 121.992 106.467L92.3459 81.1533C91.3834 80.34 91.3062 78.9254 92.1188 77.962C92.9314 76.9985 94.3446 76.9211 95.307 77.7344L124.989 103.098C125.915 103.862 125.986 105.319 125.18 106.24Z" fill="#FFE178"/>
<path d="M125.027 109.062C124.064 108.248 123.987 106.834 124.8 105.87L145.98 81.0455C146.792 80.082 148.206 80.0046 149.168 80.818C150.131 81.6314 150.208 83.046 149.395 84.0095L128.18 108.785C127.367 109.748 125.947 109.868 125.027 109.062Z" fill="#FFE178"/>
<path d="M123.617 114.794C128.069 115.516 132.263 112.489 132.985 108.032C133.707 103.576 130.683 99.3775 126.232 98.6554C121.78 97.9332 117.586 100.96 116.864 105.417C116.142 109.873 119.165 114.071 123.617 114.794Z" fill="#FFE178"/>
</g>
<g filter="url(#filter1_d)">
<path d="M37.3004 141.384C54.2293 141.384 67.9529 127.66 67.9529 110.731C67.9529 93.8024 54.2293 80.0788 37.3004 80.0788C20.3715 80.0788 6.64795 93.8024 6.64795 110.731C6.64795 127.66 20.3715 141.384 37.3004 141.384Z" fill="#FDE1B9"/>
<path d="M25.0137 112.283L34.5845 119.397L51.1394 102.195" stroke="white" stroke-width="2.1361" stroke-miterlimit="10" stroke-linecap="round" stroke-linejoin="round"/>
</g>
<defs>
<filter id="filter0_d" x="12.407" y="9.11102" width="225.035" height="225.227" filterUnits="userSpaceOnUse" color-interpolation-filters="sRGB">
<feFlood flood-opacity="0" result="BackgroundImageFix"/>
<feColorMatrix in="SourceAlpha" type="matrix" values="0 0 0 0 0 0 0 0 0 0 0 0 0 0 0 0 0 0 127 0"/>
<feOffset dy="15"/>
<feGaussianBlur stdDeviation="10"/>
<feColorMatrix type="matrix" values="0 0 0 0 0 0 0 0 0 0 0 0 0 0 0 0 0 0 0.05 0"/>
<feBlend mode="normal" in2="BackgroundImageFix" result="effect1_dropShadow"/>
<feBlend mode="normal" in="SourceGraphic" in2="effect1_dropShadow" result="shape"/>
</filter>
<filter id="filter1_d" x="0.647949" y="78.0788" width="73.305" height="73.305" filterUnits="userSpaceOnUse" color-interpolation-filters="sRGB">
<feFlood flood-opacity="0" result="BackgroundImageFix"/>
<feColorMatrix in="SourceAlpha" type="matrix" values="0 0 0 0 0 0 0 0 0 0 0 0 0 0 0 0 0 0 127 0"/>
<feOffset dy="4"/>
<feGaussianBlur stdDeviation="3"/>
<feColorMatrix type="matrix" values="0 0 0 0 0 0 0 0 0 0 0 0 0 0 0 0 0 0 0.06 0"/>
<feBlend mode="normal" in2="BackgroundImageFix" result="effect1_dropShadow"/>
<feBlend mode="normal" in="SourceGraphic" in2="effect1_dropShadow" result="shape"/>
</filter>
</defs>
</svg>
