<svg width="402" height="511" viewBox="0 0 402 511" fill="none" xmlns="http://www.w3.org/2000/svg">
<g filter="url(#filter0_d)">
<path d="M245.771 475.217H74.6629C55.6955 475.217 40.2804 459.804 40.2804 440.839V39.4212C40.2804 20.4561 55.6955 5.04272 74.6629 5.04272H245.771C264.738 5.04272 280.153 20.4561 280.153 39.4212V440.839C280.153 459.804 264.738 475.217 245.771 475.217Z" fill="#FAFAFA"/>
</g>
<path d="M245.771 11.5431C261.119 11.5431 273.585 24.0079 273.585 39.3542V440.772C273.585 456.118 261.119 468.583 245.771 468.583H74.6629C59.3147 468.583 46.8486 456.118 46.8486 440.772V39.3542C46.8486 24.0079 59.3147 11.5431 74.6629 11.5431H245.771ZM245.771 5.04272H74.6629C55.6955 5.04272 40.2804 20.4561 40.2804 39.4212V440.839C40.2804 459.804 55.6955 475.217 74.6629 475.217H245.771C264.738 475.217 280.153 459.804 280.153 440.839V39.4212C280.153 20.4561 264.738 5.04272 245.771 5.04272Z" fill="#FCBF24"/>
<path d="M203.748 28.699H116.686C111.19 28.699 106.7 24.209 106.7 18.7138V6.24902H213.801V18.7138C213.734 24.209 209.311 28.699 203.748 28.699Z" fill="#FCBF24"/>
<path d="M203.011 423.549H80.6949C75.4001 423.549 71.1107 419.26 71.1107 413.966V311.836C71.1107 306.541 75.4001 302.252 80.6949 302.252H203.011C208.305 302.252 212.595 306.541 212.595 311.836V413.966C212.528 419.26 208.238 423.549 203.011 423.549Z" fill="#E4E7EA"/>
<path d="M122.785 354.926H94.7026C92.6249 354.926 90.8823 353.25 90.8823 351.106V323.027C90.8823 320.949 92.5579 319.207 94.7026 319.207H122.785C124.863 319.207 126.605 320.882 126.605 323.027V351.106C126.605 353.25 124.93 354.926 122.785 354.926Z" fill="white"/>
<path d="M138.803 330.533H171.108" stroke="#010202" stroke-width="1.3" stroke-miterlimit="10" stroke-linecap="round" stroke-linejoin="round"/>
<path d="M138.803 341.992H190.88" stroke="#010202" stroke-width="1.3" stroke-miterlimit="10" stroke-linecap="round" stroke-linejoin="round"/>
<path d="M90.8823 369.803H126.605" stroke="white" stroke-width="1.3" stroke-miterlimit="10" stroke-linecap="round" stroke-linejoin="round"/>
<path d="M90.8823 381.665H190.88" stroke="white" stroke-width="1.3" stroke-miterlimit="10" stroke-linecap="round" stroke-linejoin="round"/>
<path d="M90.8823 394.732H190.88" stroke="white" stroke-width="1.3" stroke-miterlimit="10" stroke-linecap="round" stroke-linejoin="round"/>
<path d="M102.142 276.519H6.23308C2.74792 276.519 0 273.704 0 270.286V203.473C0 199.988 2.81494 197.241 6.23308 197.241H102.142C105.627 197.241 108.375 200.055 108.375 203.473V270.286C108.442 273.771 105.627 276.519 102.142 276.519Z" fill="#4B576E"/>
<path d="M70.9097 230.413C70.9097 220.964 63.2691 213.257 53.752 213.257C44.3018 213.257 36.5942 220.897 36.5942 230.413C36.5942 233.562 37.4655 236.511 38.94 239.058L39.007 239.125C39.6773 240.264 40.4145 241.269 41.2858 242.207L53.6849 258.626L66.0841 242.207C66.9553 241.269 67.7596 240.264 68.4298 239.125L68.4969 239.058C70.0384 236.511 70.9097 233.562 70.9097 230.413ZM53.819 237.851C49.6636 237.851 46.3125 234.501 46.3125 230.346C46.3125 226.191 49.6636 222.84 53.819 222.84C57.9744 222.84 61.3255 226.191 61.3255 230.346C61.3255 234.501 57.9744 237.851 53.819 237.851Z" fill="white"/>
<path d="M242.889 185.513H77.4779C72.1831 185.513 67.8937 181.224 67.8937 175.93V73.8668C67.8937 68.5726 72.1831 64.2837 77.4779 64.2837H242.889C248.184 64.2837 252.473 68.5726 252.473 73.8668V175.997C252.473 181.224 248.184 185.513 242.889 185.513Z" fill="white"/>
<path d="M111.056 124.463H86.4588C84.6492 124.463 83.1077 122.988 83.1077 121.112V96.4508C83.1077 94.6414 84.5822 93.1001 86.4588 93.1001H111.123C112.933 93.1001 114.474 94.5744 114.474 96.4508V121.112C114.407 122.988 112.933 124.463 111.056 124.463Z" fill="#E4E7EA"/>
<path d="M150.934 124.463H126.27C124.46 124.463 122.919 122.988 122.919 121.112V96.4508C122.919 94.6414 124.393 93.1001 126.27 93.1001H150.934C152.744 93.1001 154.285 94.5744 154.285 96.4508V121.112C154.285 122.988 152.811 124.463 150.934 124.463Z" fill="#E4E7EA"/>
<path d="M190.88 124.463H166.215C164.406 124.463 162.864 122.988 162.864 121.112V96.4508C162.864 94.6414 164.339 93.1001 166.215 93.1001H190.88C192.689 93.1001 194.231 94.5744 194.231 96.4508V121.112C194.164 122.988 192.689 124.463 190.88 124.463Z" fill="#E4E7EA"/>
<path d="M230.758 124.463H206.094C204.284 124.463 202.743 122.988 202.743 121.112V96.4508C202.743 94.6414 204.217 93.1001 206.094 93.1001H230.758C232.567 93.1001 234.109 94.5744 234.109 96.4508V121.112C234.109 122.988 232.567 124.463 230.758 124.463Z" fill="#FDE1B9"/>
<path d="M111.056 166.749H86.4588C84.6492 166.749 83.1077 165.274 83.1077 163.398V138.737C83.1077 136.928 84.5822 135.386 86.4588 135.386H111.123C112.933 135.386 114.474 136.861 114.474 138.737V163.398C114.407 165.207 112.933 166.749 111.056 166.749Z" fill="#E4E7EA"/>
<path d="M150.934 166.749H126.27C124.46 166.749 122.919 165.274 122.919 163.398V138.737C122.919 136.928 124.393 135.386 126.27 135.386H150.934C152.744 135.386 154.285 136.861 154.285 138.737V163.398C154.285 165.207 152.811 166.749 150.934 166.749Z" fill="#E4E7EA"/>
<path d="M190.88 166.749H166.215C164.406 166.749 162.864 165.274 162.864 163.398V138.737C162.864 136.928 164.339 135.386 166.215 135.386H190.88C192.689 135.386 194.231 136.861 194.231 138.737V163.398C194.164 165.207 192.689 166.749 190.88 166.749Z" fill="#E4E7EA"/>
<path d="M230.758 166.749H206.094C204.284 166.749 202.743 165.274 202.743 163.398V138.737C202.743 136.928 204.217 135.386 206.094 135.386H230.758C232.567 135.386 234.109 136.861 234.109 138.737V163.398C234.109 165.207 232.567 166.749 230.758 166.749Z" fill="#E4E7EA"/>
<path d="M84.3141 85.4603V76.4802H85.3194C85.5875 76.4802 85.7216 76.6143 85.7886 76.8153L85.9226 77.6865C86.2577 77.2844 86.5928 76.9493 86.995 76.7483C87.3971 76.4802 87.8663 76.3462 88.4024 76.3462C89.0056 76.3462 89.4748 76.4802 89.8769 76.8153C90.2791 77.1504 90.5472 77.6195 90.6812 78.1556C90.8152 77.8205 90.9493 77.5525 91.2174 77.3514C91.4855 77.1504 91.6865 76.9493 91.8876 76.8153C92.1557 76.6813 92.4238 76.5472 92.6919 76.4802C92.96 76.4132 93.2951 76.3462 93.5632 76.3462C94.0323 76.3462 94.5015 76.4132 94.8366 76.5472C95.2387 76.6813 95.5068 76.9493 95.7749 77.2174C96.043 77.4855 96.244 77.8876 96.3781 78.2896C96.5121 78.6917 96.5792 79.2279 96.5792 79.764V85.5273H94.8366V79.764C94.8366 79.0938 94.7025 78.5577 94.3674 78.2226C94.0323 77.8875 93.6302 77.6865 93.094 77.6865C92.8259 77.6865 92.6248 77.7535 92.3568 77.8205C92.1557 77.8876 91.9546 78.0216 91.7536 78.2226C91.5525 78.4237 91.4855 78.6247 91.3514 78.8928C91.2844 79.1608 91.2174 79.4289 91.2174 79.764V85.5273H89.4748V79.764C89.4748 79.0938 89.3408 78.5577 89.0727 78.2226C88.8046 77.8875 88.4024 77.7535 87.8663 77.7535C87.4641 77.7535 87.129 77.8205 86.8609 78.0216C86.5258 78.2226 86.2577 78.4907 85.9896 78.8258V85.5273H84.3141V85.4603Z" fill="#4B576E"/>
<path d="M103.684 76.3462C104.354 76.3462 104.957 76.4802 105.493 76.6813C106.029 76.8823 106.498 77.2174 106.834 77.6195C107.236 78.0216 107.504 78.4907 107.705 79.0938C107.906 79.6969 108.04 80.3001 108.04 81.0372C108.04 81.7744 107.906 82.3775 107.705 82.9807C107.504 83.5838 107.236 84.0529 106.834 84.455C106.431 84.8571 106.029 85.1922 105.493 85.3932C104.957 85.5942 104.354 85.7283 103.684 85.7283C103.013 85.7283 102.41 85.5942 101.874 85.3932C101.338 85.1922 100.869 84.8571 100.533 84.455C100.131 84.0529 99.8633 83.5838 99.6622 82.9807C99.4611 82.3775 99.3271 81.7744 99.3271 81.0372C99.3271 80.3001 99.4611 79.6969 99.6622 79.0938C99.8633 78.4907 100.131 78.0216 100.533 77.6195C100.936 77.2174 101.338 76.8823 101.874 76.6813C102.41 76.4802 103.013 76.3462 103.684 76.3462ZM103.684 84.2539C104.555 84.2539 105.158 83.9859 105.56 83.3828C105.962 82.7796 106.163 81.9754 106.163 80.9702C106.163 79.965 105.962 79.0938 105.56 78.5577C105.158 77.9545 104.488 77.6865 103.684 77.6865C102.812 77.6865 102.209 77.9545 101.74 78.5577C101.338 79.1608 101.137 79.965 101.137 80.9702C101.137 81.9754 101.338 82.8466 101.74 83.3828C102.209 83.9859 102.812 84.2539 103.684 84.2539Z" fill="#4B576E"/>
<path d="M112.463 77.7535C112.665 77.5525 112.866 77.3514 113.067 77.2174C113.268 77.0163 113.536 76.8823 113.737 76.7483C114.005 76.6142 114.206 76.5472 114.541 76.4802C114.876 76.4132 115.077 76.3462 115.412 76.3462C115.882 76.3462 116.351 76.4132 116.753 76.6143C117.155 76.7483 117.423 77.0163 117.691 77.2844C117.959 77.5525 118.16 77.9545 118.294 78.3566C118.428 78.7587 118.495 79.2278 118.495 79.7639V85.5272H116.753V79.7639C116.753 79.0938 116.619 78.6247 116.284 78.2896C116.016 77.9545 115.546 77.7535 114.943 77.7535C114.474 77.7535 114.072 77.8875 113.67 78.0886C113.268 78.2896 112.933 78.5577 112.597 78.9598V85.5942H110.855V76.6143H111.86C112.128 76.6143 112.262 76.7483 112.329 76.9493L112.463 77.7535Z" fill="#4B576E"/>
<path d="M124.326 85.6606C123.589 85.6606 123.053 85.4596 122.651 85.0575C122.249 84.6554 122.048 84.0523 122.048 83.3152V77.9541H120.975C120.908 77.9541 120.774 77.954 120.707 77.887C120.64 77.82 120.573 77.753 120.573 77.619V76.9488L122.048 76.7478L122.45 74.0672C122.45 74.0002 122.517 73.8662 122.584 73.7992C122.651 73.7322 122.718 73.7322 122.852 73.7322H123.723V76.7478H126.27V78.0211H123.723V83.3152C123.723 83.6502 123.79 83.9183 123.991 84.1193C124.192 84.3204 124.393 84.3874 124.662 84.3874C124.796 84.3874 124.93 84.3874 125.064 84.3204C125.198 84.2534 125.265 84.2534 125.332 84.1863C125.399 84.1193 125.466 84.1193 125.533 84.0523C125.6 83.9853 125.667 83.9853 125.667 83.9853C125.734 83.9853 125.801 83.9853 125.801 84.0523C125.801 84.0523 125.868 84.1193 125.935 84.1863L126.471 84.9905C126.203 85.2586 125.868 85.4596 125.466 85.5936C125.198 85.5936 124.796 85.6606 124.326 85.6606Z" fill="#4B576E"/>
<path d="M130.559 77.6195C130.962 77.2174 131.364 76.9493 131.833 76.6813C132.302 76.4132 132.838 76.3462 133.441 76.3462C133.911 76.3462 134.38 76.4132 134.782 76.6143C135.184 76.8153 135.452 77.0164 135.72 77.2844C135.988 77.5525 136.189 77.9546 136.323 78.3567C136.457 78.7587 136.524 79.2278 136.524 79.764V85.5272H134.715V79.764C134.715 79.0938 134.581 78.6247 134.246 78.2896C133.978 77.9546 133.508 77.7535 132.905 77.7535C132.436 77.7535 132.034 77.8875 131.632 78.0886C131.23 78.2896 130.895 78.5577 130.559 78.9598V85.5942H128.817V72.5264H130.559V77.6195Z" fill="#4B576E"/>
<path d="M246.173 276.519H137.999C134.514 276.519 131.766 273.704 131.766 270.286V203.473C131.766 199.988 134.581 197.241 137.999 197.241H246.173C249.658 197.241 252.406 200.055 252.406 203.473V270.286C252.473 273.771 249.658 276.519 246.173 276.519Z" fill="white"/>
<path d="M236.053 224.248H150.264C148.454 224.248 146.913 222.773 146.913 220.897V209.505C146.913 207.695 148.387 206.154 150.264 206.154H236.053C237.862 206.154 239.404 207.628 239.404 209.505V220.897C239.337 222.773 237.862 224.248 236.053 224.248Z" fill="#E4E7EA"/>
<path d="M148.119 236.042H190.276" stroke="#010202" stroke-width="1.3" stroke-miterlimit="10" stroke-linecap="round" stroke-linejoin="round"/>
<path d="M148.119 246.295H238.13" stroke="#010202" stroke-width="1.3" stroke-miterlimit="10" stroke-linecap="round" stroke-linejoin="round"/>
<path d="M148.119 257.621H238.13" stroke="#010202" stroke-width="1.3" stroke-miterlimit="10" stroke-linecap="round" stroke-linejoin="round"/>
<path d="M304.214 397.749H241.481C237.259 397.749 233.841 394.331 233.841 390.109V335.693C233.841 331.471 237.259 328.053 241.481 328.053H304.214C308.437 328.053 311.855 331.471 311.855 335.693V390.109C311.855 394.331 308.437 397.749 304.214 397.749Z" fill="#4B576E"/>
<path d="M288.33 359.885L285.783 359.416C285.515 358.277 285.046 357.204 284.443 356.199L285.917 354.055C286.453 353.25 286.386 352.178 285.716 351.508L284.175 349.967C283.505 349.297 282.432 349.23 281.628 349.766L279.483 351.24C278.478 350.637 277.405 350.235 276.266 349.9L275.797 347.286C275.663 346.348 274.859 345.678 273.92 345.678H271.709C270.77 345.678 269.899 346.348 269.765 347.286L269.296 349.833C268.156 350.101 267.084 350.57 266.079 351.173L263.934 349.766C263.13 349.23 262.057 349.297 261.387 349.967L259.846 351.508C259.175 352.178 259.108 353.25 259.645 354.055L261.119 356.199C260.516 357.204 260.114 358.277 259.779 359.416L257.232 359.885C256.293 360.019 255.623 360.89 255.623 361.828V363.973C255.623 364.911 256.293 365.782 257.232 365.916L259.779 366.386C260.047 367.525 260.516 368.597 261.119 369.602L259.645 371.747C259.108 372.551 259.175 373.623 259.846 374.293L261.387 375.835C262.057 376.505 263.13 376.572 263.934 376.036L266.079 374.561C267.084 375.165 268.156 375.567 269.296 375.902L269.765 378.448C269.899 379.387 270.77 380.057 271.709 380.057H273.92C274.859 380.057 275.73 379.387 275.864 378.448L276.333 375.902C277.472 375.634 278.545 375.165 279.55 374.561L281.628 376.036C282.432 376.572 283.505 376.505 284.175 375.835L285.716 374.293C286.386 373.623 286.453 372.551 285.917 371.747L284.443 369.602C285.046 368.597 285.448 367.525 285.783 366.386L288.33 365.916C289.268 365.782 289.939 364.911 289.939 363.973V361.828C289.939 360.823 289.268 360.019 288.33 359.885ZM272.848 369.669C269.095 369.669 266.079 366.654 266.079 362.834C266.079 359.081 269.095 356.065 272.915 356.065C276.668 356.065 279.751 359.081 279.751 362.901C279.751 362.901 279.751 362.901 279.751 362.968C279.617 366.654 276.601 369.669 272.848 369.669Z" fill="white"/>
<path d="M402 195.833C402 251.657 356.76 296.891 300.93 296.891C245.101 296.891 199.861 251.657 199.861 195.833C199.861 140.01 245.101 94.7754 300.93 94.7754C356.76 94.7754 402 140.01 402 195.833Z" fill="#FBB910"/>
<path d="M377.135 195.834C377.135 237.919 343.02 272.029 300.93 272.029C258.84 272.029 224.726 237.919 224.726 195.834C224.726 153.748 258.84 119.638 300.93 119.638C343.02 119.638 377.135 153.748 377.135 195.834Z" fill="white"/>
<path d="M354.012 195.834C354.012 225.186 330.219 248.976 300.863 248.976C271.507 248.976 247.715 225.186 247.715 195.834C247.715 166.481 271.507 142.691 300.863 142.691C330.219 142.691 354.012 166.548 354.012 195.834Z" fill="#FBB910"/>
<path d="M330.286 195.833C330.286 212.051 317.15 225.186 300.93 225.186C284.711 225.186 271.575 212.051 271.575 195.833C271.575 179.616 284.711 166.481 300.93 166.481C317.15 166.481 330.286 179.616 330.286 195.833Z" fill="white"/>
<path d="M300.93 195.833L386.853 94.7754" stroke="#4B576E" stroke-width="2" stroke-miterlimit="10"/>
<path d="M300.93 184.508V195.833L311.453 193.957" stroke="#4B576E" stroke-width="2" stroke-miterlimit="10"/>
<path d="M362.189 121.313L385.647 93.77L371.036 88.4758L346.304 117.292L362.189 121.313Z" fill="#4B576E"/>
<path d="M364.602 123.323L388.059 95.7803L395.566 109.384L371.103 138.402L364.602 123.323Z" fill="#4B576E"/>
<defs>
<filter id="filter0_d" x="20.2804" y="0.0427246" width="279.873" height="510.174" filterUnits="userSpaceOnUse" color-interpolation-filters="sRGB">
<feFlood flood-opacity="0" result="BackgroundImageFix"/>
<feColorMatrix in="SourceAlpha" type="matrix" values="0 0 0 0 0 0 0 0 0 0 0 0 0 0 0 0 0 0 127 0"/>
<feOffset dy="15"/>
<feGaussianBlur stdDeviation="10"/>
<feColorMatrix type="matrix" values="0 0 0 0 0 0 0 0 0 0 0 0 0 0 0 0 0 0 0.05 0"/>
<feBlend mode="normal" in2="BackgroundImageFix" result="effect1_dropShadow"/>
<feBlend mode="normal" in="SourceGraphic" in2="effect1_dropShadow" result="shape"/>
</filter>
</defs>
</svg>
