<svg width="160" height="165" viewBox="0 0 160 165" fill="none" xmlns="http://www.w3.org/2000/svg">
<path d="M159.355 85.2466C159.355 129.207 123.729 164.829 79.7632 164.829C35.7977 164.829 0.171387 129.207 0.171387 85.2466C0.171387 41.2862 35.7977 5.664 79.7632 5.664C123.729 5.664 159.355 41.2862 159.355 85.2466Z" fill="#FDB9A5"/>
<path d="M139.774 85.2467C139.774 118.389 112.909 145.25 79.7632 145.25C46.6176 145.25 19.7527 118.389 19.7527 85.2467C19.7527 52.1049 46.6176 25.2431 79.7632 25.2431C112.909 25.2431 139.774 52.1049 139.774 85.2467Z" fill="white"/>
<path d="M121.565 85.2468C121.565 108.362 102.828 127.096 79.7105 127.096C56.593 127.096 37.8562 108.362 37.8562 85.2468C37.8562 62.1319 56.593 43.3972 79.7105 43.3972C102.828 43.3972 121.565 62.1847 121.565 85.2468Z" fill="#FDB9A5"/>
<path d="M102.881 85.2466C102.881 98.0179 92.536 108.361 79.7633 108.361C66.9906 108.361 56.6458 98.0179 56.6458 85.2466C56.6458 72.4754 66.9906 62.1317 79.7633 62.1317C92.536 62.1317 102.881 72.4754 102.881 85.2466Z" fill="white"/>
<path d="M79.7632 85.2467L147.427 5.664" stroke="#4B576E" stroke-width="2" stroke-miterlimit="10"/>
<path d="M79.7632 76.328V85.2467L88.0496 83.769" stroke="#4B576E" stroke-width="2" stroke-miterlimit="10"/>
<path d="M128.004 26.5622L146.477 4.87224L134.971 0.703125L115.495 23.3958L128.004 26.5622Z" fill="#4B576E"/>
<path d="M129.904 28.1453L148.377 6.45534L154.288 17.1684L135.024 40.0194L129.904 28.1453Z" fill="#4B576E"/>
</svg>
