<svg width="173" height="344" viewBox="0 0 173 344" fill="none" xmlns="http://www.w3.org/2000/svg">
<path d="M150.975 0.462036H22.551C10.5447 0.462036 0.774414 10.246 0.774414 22.269V321.238C0.774414 333.262 10.5447 343.045 22.551 343.045H150.975C162.981 343.045 172.751 333.262 172.751 321.238V22.269C172.751 10.246 163.03 0.462036 150.975 0.462036Z" fill="#B7B7B7"/>
<path d="M86.7628 218.58C47.9732 218.58 16.4263 186.99 16.4263 148.146C16.4263 109.302 47.9732 77.7114 86.7628 77.7114C125.552 77.7114 157.099 109.302 157.099 148.146C157.099 186.99 125.552 218.58 86.7628 218.58ZM86.7628 78.3442C48.3134 78.3442 17.0096 109.692 17.0096 148.195C17.0096 186.698 48.3134 218.045 86.7628 218.045C125.212 218.045 156.516 186.698 156.516 148.195C156.516 109.643 125.212 78.3442 86.7628 78.3442Z" fill="white"/>
<path d="M145.239 148.584C145.239 153.452 144.656 158.222 143.586 162.749C137.267 189.131 113.741 208.748 85.5477 209.089H84.8186C51.4731 209.089 24.3982 181.976 24.3982 148.584C24.3982 115.192 51.4731 88.0793 84.8186 88.0793C118.164 88.0793 145.239 115.143 145.239 148.584Z" fill="#EEEDED"/>
<path d="M116.173 175.794C116.173 175.794 116.124 175.893 116.025 175.942C116.124 175.893 116.173 175.843 116.173 175.794Z" fill="#79797A"/>
<path d="M92.2071 111.298L91.5265 111.541L91.6238 111.785C88.9503 115.971 63.5281 155.788 60.7574 164.063L65.6668 168.687C63.7711 168.639 58.8616 168.541 57.4034 168.541H56.8687H56.9173C52.2995 168.59 49.0913 172.095 49.0427 172.63C49.1399 172.63 67.757 191.224 85.4991 209.04C113.692 208.699 137.219 189.083 143.538 162.7L92.2071 111.298Z" fill="#CFCFCF"/>
<path d="M93.4827 114.897L92.8267 114.578L66.2622 169.408L66.9182 169.727L93.4827 114.897Z" fill="#2D2C3A"/>
<path d="M116.171 169.709C116.171 169.709 71.4512 168.882 56.8687 168.59C56.8687 168.59 95.7555 178.471 116.171 169.709Z" fill="#D9CEBC"/>
<path d="M56.8687 168.59C56.8687 168.59 95.2694 175.307 116.171 169.709L109.852 176.281C109.852 176.281 80.4438 180.321 56.8687 168.59Z" fill="#E8403E"/>
<path d="M114.859 169.967L92.2256 111.303L91.5455 111.566L114.179 170.23L114.859 169.967Z" fill="#2D2C3A"/>
<path d="M68.1906 164.933L67.7319 164.365L62.3667 168.713L62.8254 169.281L68.1906 164.933Z" fill="#2D2C3A"/>
<path d="M95.5124 164.112C95.5124 164.112 97.0192 133.981 91.9153 111.444C91.9153 111.444 63.7224 155.35 60.8059 164.112C60.8059 164.112 68.8749 164.209 71.9859 166.4C76.7981 169.856 89.3877 167.957 95.5124 164.112Z" fill="#F1ECE6"/>
<path d="M91.8667 111.444C91.8667 111.444 97.4081 148.584 94.9776 170.926H96.9706C96.9706 170.926 96.4845 128.14 91.8667 111.444Z" fill="#2D2C3A"/>
<path d="M74.8538 170.099C74.8538 170.099 97.0679 172.241 104.602 170.926C104.651 170.926 84.2838 169.612 74.8538 170.099Z" fill="#F1ECE6"/>
<path d="M89.7767 116.798C89.7767 116.798 80.0064 148 79.9092 153.306C79.812 158.611 80.3467 162.895 78.2565 164.647C78.2565 164.647 69.6042 158.417 65.3267 160.948L89.7767 116.798Z" fill="white"/>
<path d="M104.894 176.086C104.943 176.67 94.1515 182.949 80.4925 178.617C66.8335 174.285 56.0911 175.502 56.0911 176.135C56.1397 175.356 67.2224 168.347 80.4925 173.604C93.7626 178.812 104.845 176.865 104.894 176.086Z" fill="#2D2C3A"/>
<path d="M76.1663 172.63C76.1663 173.019 70.1874 177.79 62.6045 174.967C55.0216 172.143 49.0427 172.289 49.0427 172.679C49.0427 171.949 55.216 165.523 62.6045 170.342C69.993 175.161 76.1663 173.36 76.1663 172.63Z" fill="white"/>
<path d="M116.171 175.794C116.22 176.037 111.164 179.639 104.213 178.423C97.2623 177.206 91.9154 177.79 91.964 178.033C91.9154 177.546 97.0679 172.825 103.922 175.405C110.824 177.936 116.22 176.281 116.171 175.794Z" fill="white"/>
</svg>
