<svg width="251" height="500" viewBox="0 0 251 500" fill="none" xmlns="http://www.w3.org/2000/svg">
<path d="M219.217 0H31.7829C14.2598 0 0 14.2796 0 31.8272V468.173C0 485.72 14.2598 500 31.7829 500H219.217C236.74 500 251 485.72 251 468.173V31.8272C251 14.2796 236.811 0 219.217 0Z" fill="#FCBF24"/>
<path d="M125.5 318.343C68.8867 318.343 22.844 272.236 22.844 215.544C22.844 158.852 68.8867 112.745 125.5 112.745C182.113 112.745 228.156 158.852 228.156 215.544C228.156 272.236 182.113 318.343 125.5 318.343ZM125.5 113.669C69.3833 113.669 23.6953 159.42 23.6953 215.615C23.6953 271.81 69.3833 317.562 125.5 317.562C181.617 317.562 227.305 271.81 227.305 215.615C227.305 159.349 181.617 113.669 125.5 113.669Z" fill="white"/>
<path d="M210.846 216.184C210.846 223.288 209.994 230.25 208.434 236.857C199.211 275.362 164.874 303.993 123.726 304.49H122.662C73.9946 304.49 34.4788 264.919 34.4788 216.184C34.4788 167.448 73.9946 127.877 122.662 127.877C171.33 127.877 210.846 167.377 210.846 216.184Z" fill="#EEEDED"/>
<path d="M168.421 255.896C168.421 255.896 168.35 256.039 168.208 256.11C168.35 256.039 168.421 255.968 168.421 255.896Z" fill="#79797A"/>
<path d="M133.446 161.765L132.452 162.12L132.594 162.475C128.692 168.585 91.5887 226.698 87.5449 238.775L94.7102 245.524C91.9434 245.453 84.7781 245.311 82.6498 245.311H81.8694H81.9403C75.2006 245.382 70.5183 250.497 70.4474 251.279C70.5893 251.279 97.7608 278.417 123.655 304.419C164.803 303.922 199.14 275.291 208.363 236.786L133.446 161.765Z" fill="#CFCFCF"/>
<path d="M135.307 167.017L134.35 166.552L95.5791 246.577L96.5366 247.042L135.307 167.017Z" fill="#2D2C3A"/>
<path d="M168.421 247.016C168.421 247.016 103.153 245.808 81.8694 245.382C81.8694 245.382 138.625 259.804 168.421 247.016Z" fill="#D9CEBC"/>
<path d="M81.8694 245.382C81.8694 245.382 137.915 255.186 168.421 247.016L159.198 256.607C159.198 256.607 116.277 262.504 81.8694 245.382Z" fill="#E8403E"/>
<path d="M166.507 247.392L133.473 161.773L132.48 162.157L165.514 247.776L166.507 247.392Z" fill="#2D2C3A"/>
<path d="M98.3937 240.045L97.7243 239.216L89.8937 245.563L90.5632 246.391L98.3937 240.045Z" fill="#2D2C3A"/>
<path d="M138.27 238.846C138.27 238.846 140.469 194.871 133.02 161.978C133.02 161.978 91.8725 226.058 87.6158 238.846C87.6158 238.846 99.3926 238.988 103.933 242.185C110.956 247.229 129.331 244.459 138.27 238.846Z" fill="#F1ECE6"/>
<path d="M132.949 161.978C132.949 161.978 141.037 216.184 137.489 248.792H140.398C140.398 248.792 139.689 186.346 132.949 161.978Z" fill="#2D2C3A"/>
<path d="M108.119 247.584C108.119 247.584 140.54 250.71 151.536 248.792C151.607 248.792 121.882 246.874 108.119 247.584Z" fill="#F1ECE6"/>
<path d="M129.898 169.792C129.898 169.792 115.639 215.331 115.497 223.075C115.355 230.818 116.135 237.07 113.085 239.628C113.085 239.628 100.457 230.534 94.2136 234.228L129.898 169.792Z" fill="white"/>
<path d="M151.962 256.323C152.033 257.175 136.283 266.34 116.348 260.017C96.4129 253.694 80.7343 255.47 80.7343 256.394C80.8052 255.257 96.9805 245.027 116.348 252.7C135.716 260.301 151.891 257.459 151.962 256.323Z" fill="#2D2C3A"/>
<path d="M110.034 251.279C110.034 251.847 101.308 258.809 90.2408 254.689C79.1735 250.568 70.4474 250.781 70.4474 251.35C70.4474 250.284 79.4573 240.907 90.2408 247.94C101.024 254.973 110.034 252.344 110.034 251.279Z" fill="white"/>
<path d="M168.421 255.897C168.492 256.252 161.114 261.509 150.969 259.733C140.824 257.957 133.02 258.809 133.091 259.165C133.02 258.454 140.54 251.563 150.543 255.328C160.617 259.022 168.492 256.607 168.421 255.897Z" fill="white"/>
</svg>
