<svg width="60" height="56" viewBox="0 0 60 56" fill="none" xmlns="http://www.w3.org/2000/svg">
<path fill-rule="evenodd" clip-rule="evenodd" d="M56.9995 28C56.9995 41.8071 45.8067 53 31.9995 53C21.3946 53 12.3319 46.3968 8.69862 37.0776L5.20335 36.1473C8.69237 47.6375 19.3694 56 31.9995 56C47.4635 56 59.9995 43.464 59.9995 28C59.9995 12.536 47.4635 0 31.9995 0C18.412 0 7.08499 9.67828 4.53613 22.5172L7.44244 23.2907C9.64517 11.735 19.8023 3 31.9995 3C45.8067 3 56.9995 14.1929 56.9995 28Z" fill="#2C3647"/>
<path d="M5.59886 30.1863L10.7363 37.1581L2.12984 38.1214L5.59886 30.1863Z" fill="#2C3647"/>
<path d="M32 22.5V1L37.5 1.5L42.5 3L48 6L51 9L55.5 14.5L58.5 22L59 27H36C35.8333 26.3333 35.3 24.8 34.5 24C33.7 23.2 32.5 22.6667 32 22.5Z" fill="#2C3647"/>
<circle cx="32" cy="27" r="2" fill="#2C3647"/>
<rect x="21" y="8.54004" width="2" height="6" transform="rotate(-32.6789 21 8.54004)" fill="#2C3647"/>
<rect width="2" height="6" transform="matrix(0.87879 0.477208 0.477208 -0.87879 21.1533 46.1479)" fill="#2C3647"/>
<rect x="42.7422" y="46.1479" width="2" height="6" transform="rotate(151.497 42.7422 46.1479)" fill="#2C3647"/>
<rect x="14.2295" y="15.6343" width="2" height="6" transform="rotate(-58.1006 14.2295 15.6343)" fill="#2C3647"/>
<rect width="2" height="6" transform="matrix(0.588846 0.808245 0.808245 -0.588846 13.8848 38.5654)" fill="#2C3647"/>
<rect x="50.0107" y="38.5654" width="2" height="6" transform="rotate(126.075 50.0107 38.5654)" fill="#2C3647"/>
</svg>
