<svg width="257" height="99" viewBox="0 0 257 99" fill="none" xmlns="http://www.w3.org/2000/svg">
<g filter="url(#filter0_d)">
<path d="M16 26C16 20.4772 20.4772 16 26 16H231C236.523 16 241 20.4772 241 26V73C241 78.5229 236.523 83 231 83H26C20.4772 83 16 78.5229 16 73V26Z" fill="#647AA1"/>
</g>
<path d="M16 91L27 83L16 74V91Z" fill="#647AA1"/>
<path d="M40.68 45V33.588H36.072V32.31H46.782V33.588H42.174V45H40.68ZM46.825 45V36.252H48.247V37.818C48.715 36.762 49.675 36.18 51.127 36.072L51.649 36.018L51.757 37.278L50.839 37.386C50.011 37.458 49.381 37.722 48.949 38.178C48.517 38.622 48.301 39.234 48.301 40.014V45H46.825ZM55.9423 45.162C55.3423 45.162 54.8023 45.048 54.3223 44.82C53.8543 44.58 53.4823 44.256 53.2063 43.848C52.9303 43.44 52.7923 42.984 52.7923 42.48C52.7923 41.844 52.9543 41.34 53.2783 40.968C53.6143 40.596 54.1603 40.332 54.9163 40.176C55.6843 40.008 56.7283 39.924 58.0483 39.924H58.6243V39.366C58.6243 38.622 58.4683 38.088 58.1563 37.764C57.8563 37.428 57.3703 37.26 56.6983 37.26C56.1703 37.26 55.6603 37.338 55.1683 37.494C54.6763 37.638 54.1723 37.878 53.6563 38.214L53.1523 37.152C53.6083 36.828 54.1603 36.57 54.8083 36.378C55.4683 36.186 56.0983 36.09 56.6983 36.09C57.8263 36.09 58.6603 36.366 59.2003 36.918C59.7523 37.47 60.0283 38.328 60.0283 39.492V45H58.6603V43.488C58.4323 44.004 58.0783 44.412 57.5983 44.712C57.1303 45.012 56.5783 45.162 55.9423 45.162ZM56.1763 44.064C56.8963 44.064 57.4843 43.818 57.9403 43.326C58.3963 42.822 58.6243 42.186 58.6243 41.418V40.878H58.0663C57.0943 40.878 56.3263 40.926 55.7623 41.022C55.2103 41.106 54.8203 41.262 54.5923 41.49C54.3763 41.706 54.2683 42.006 54.2683 42.39C54.2683 42.882 54.4363 43.284 54.7723 43.596C55.1203 43.908 55.5883 44.064 56.1763 44.064ZM62.7332 45V36.252H64.1552V37.746C64.4432 37.194 64.8512 36.78 65.3792 36.504C65.9072 36.228 66.5012 36.09 67.1612 36.09C69.2372 36.09 70.2752 37.242 70.2752 39.546V45H68.8172V39.636C68.8172 38.82 68.6552 38.226 68.3312 37.854C68.0192 37.47 67.5152 37.278 66.8192 37.278C66.0152 37.278 65.3732 37.53 64.8932 38.034C64.4252 38.526 64.1912 39.186 64.1912 40.014V45H62.7332ZM75.9157 45.162C75.2317 45.162 74.5837 45.066 73.9717 44.874C73.3597 44.682 72.8557 44.412 72.4597 44.064L72.9277 43.038C73.3597 43.386 73.8337 43.644 74.3497 43.812C74.8777 43.968 75.4117 44.046 75.9517 44.046C76.6357 44.046 77.1517 43.92 77.4997 43.668C77.8477 43.416 78.0217 43.074 78.0217 42.642C78.0217 42.306 77.9077 42.042 77.6797 41.85C77.4517 41.646 77.0917 41.49 76.5997 41.382L74.9617 41.022C73.4737 40.698 72.7297 39.93 72.7297 38.718C72.7297 37.926 73.0417 37.29 73.6657 36.81C74.3017 36.33 75.1297 36.09 76.1497 36.09C76.7497 36.09 77.3197 36.186 77.8597 36.378C78.4117 36.558 78.8677 36.828 79.2277 37.188L78.7417 38.214C78.3937 37.89 77.9857 37.644 77.5177 37.476C77.0617 37.296 76.6057 37.206 76.1497 37.206C75.4777 37.206 74.9677 37.338 74.6197 37.602C74.2717 37.866 74.0977 38.214 74.0977 38.646C74.0977 39.318 74.5417 39.75 75.4297 39.942L77.0677 40.284C77.8357 40.452 78.4177 40.722 78.8137 41.094C79.2097 41.454 79.4077 41.946 79.4077 42.57C79.4077 43.374 79.0897 44.01 78.4537 44.478C77.8177 44.934 76.9717 45.162 75.9157 45.162ZM84.3117 45.162C83.4237 45.162 82.7517 44.904 82.2957 44.388C81.8517 43.86 81.6297 43.098 81.6297 42.102V32.31H83.0877V41.994C83.0877 43.278 83.5977 43.92 84.6177 43.92C84.9177 43.92 85.1877 43.884 85.4277 43.812L85.3917 45.036C85.0197 45.12 84.6597 45.162 84.3117 45.162ZM89.7099 45.162C89.1099 45.162 88.5699 45.048 88.0899 44.82C87.6219 44.58 87.2499 44.256 86.9739 43.848C86.6979 43.44 86.5599 42.984 86.5599 42.48C86.5599 41.844 86.7219 41.34 87.0459 40.968C87.3819 40.596 87.9279 40.332 88.6839 40.176C89.4519 40.008 90.4959 39.924 91.8159 39.924H92.3919V39.366C92.3919 38.622 92.2359 38.088 91.9239 37.764C91.6239 37.428 91.1379 37.26 90.4659 37.26C89.9379 37.26 89.4279 37.338 88.9359 37.494C88.4439 37.638 87.9399 37.878 87.4239 38.214L86.9199 37.152C87.3759 36.828 87.9279 36.57 88.5759 36.378C89.2359 36.186 89.8659 36.09 90.4659 36.09C91.5939 36.09 92.4279 36.366 92.9679 36.918C93.5199 37.47 93.7959 38.328 93.7959 39.492V45H92.4279V43.488C92.1999 44.004 91.8459 44.412 91.3659 44.712C90.8979 45.012 90.3459 45.162 89.7099 45.162ZM89.9439 44.064C90.6639 44.064 91.2519 43.818 91.7079 43.326C92.1639 42.822 92.3919 42.186 92.3919 41.418V40.878H91.8339C90.8619 40.878 90.0939 40.926 89.5299 41.022C88.9779 41.106 88.5879 41.262 88.3599 41.49C88.1439 41.706 88.0359 42.006 88.0359 42.39C88.0359 42.882 88.2039 43.284 88.5399 43.596C88.8879 43.908 89.3559 44.064 89.9439 44.064ZM100.011 45.162C98.9788 45.162 98.2048 44.892 97.6888 44.352C97.1728 43.8 96.9148 43.008 96.9148 41.976V37.386H95.2048V36.252H96.9148V33.57H98.3728V36.252H101.145V37.386H98.3728V41.832C98.3728 42.516 98.5168 43.038 98.8048 43.398C99.0928 43.746 99.5608 43.92 100.209 43.92C100.401 43.92 100.593 43.896 100.785 43.848C100.977 43.8 101.151 43.752 101.307 43.704L101.559 44.82C101.403 44.904 101.175 44.982 100.875 45.054C100.575 45.126 100.287 45.162 100.011 45.162ZM102.614 34.074V32.436H104.414V34.074H102.614ZM102.794 45V36.252H104.252V45H102.794ZM110.613 45.162C109.761 45.162 109.023 44.976 108.399 44.604C107.775 44.232 107.289 43.71 106.941 43.038C106.605 42.354 106.437 41.55 106.437 40.626C106.437 39.702 106.605 38.904 106.941 38.232C107.289 37.548 107.775 37.02 108.399 36.648C109.023 36.276 109.761 36.09 110.613 36.09C111.453 36.09 112.185 36.276 112.809 36.648C113.445 37.02 113.931 37.548 114.267 38.232C114.615 38.904 114.789 39.702 114.789 40.626C114.789 41.55 114.615 42.354 114.267 43.038C113.931 43.71 113.445 44.232 112.809 44.604C112.185 44.976 111.453 45.162 110.613 45.162ZM110.613 43.992C111.429 43.992 112.083 43.704 112.575 43.128C113.067 42.54 113.313 41.706 113.313 40.626C113.313 39.534 113.067 38.7 112.575 38.124C112.083 37.548 111.429 37.26 110.613 37.26C109.785 37.26 109.125 37.548 108.633 38.124C108.153 38.7 107.913 39.534 107.913 40.626C107.913 41.706 108.153 42.54 108.633 43.128C109.125 43.704 109.785 43.992 110.613 43.992ZM116.979 45V36.252H118.401V37.746C118.689 37.194 119.097 36.78 119.625 36.504C120.153 36.228 120.747 36.09 121.407 36.09C123.483 36.09 124.521 37.242 124.521 39.546V45H123.063V39.636C123.063 38.82 122.901 38.226 122.577 37.854C122.265 37.47 121.761 37.278 121.065 37.278C120.261 37.278 119.619 37.53 119.139 38.034C118.671 38.526 118.437 39.186 118.437 40.014V45H116.979ZM135.541 45.162C134.665 45.162 133.909 44.976 133.273 44.604C132.637 44.22 132.145 43.686 131.797 43.002C131.461 42.306 131.293 41.496 131.293 40.572C131.293 39.18 131.671 38.088 132.427 37.296C133.183 36.492 134.221 36.09 135.541 36.09C136.081 36.09 136.615 36.186 137.143 36.378C137.671 36.57 138.109 36.84 138.457 37.188L137.953 38.25C137.605 37.914 137.221 37.668 136.801 37.512C136.393 37.356 136.003 37.278 135.631 37.278C134.719 37.278 134.017 37.566 133.525 38.142C133.033 38.706 132.787 39.522 132.787 40.59C132.787 41.634 133.033 42.462 133.525 43.074C134.017 43.674 134.719 43.974 135.631 43.974C136.003 43.974 136.393 43.896 136.801 43.74C137.221 43.584 137.605 43.332 137.953 42.984L138.457 44.046C138.109 44.394 137.665 44.67 137.125 44.874C136.597 45.066 136.069 45.162 135.541 45.162ZM143.625 45.162C142.773 45.162 142.035 44.976 141.411 44.604C140.787 44.232 140.301 43.71 139.953 43.038C139.617 42.354 139.449 41.55 139.449 40.626C139.449 39.702 139.617 38.904 139.953 38.232C140.301 37.548 140.787 37.02 141.411 36.648C142.035 36.276 142.773 36.09 143.625 36.09C144.465 36.09 145.197 36.276 145.821 36.648C146.457 37.02 146.943 37.548 147.279 38.232C147.627 38.904 147.801 39.702 147.801 40.626C147.801 41.55 147.627 42.354 147.279 43.038C146.943 43.71 146.457 44.232 145.821 44.604C145.197 44.976 144.465 45.162 143.625 45.162ZM143.625 43.992C144.441 43.992 145.095 43.704 145.587 43.128C146.079 42.54 146.325 41.706 146.325 40.626C146.325 39.534 146.079 38.7 145.587 38.124C145.095 37.548 144.441 37.26 143.625 37.26C142.797 37.26 142.137 37.548 141.645 38.124C141.165 38.7 140.925 39.534 140.925 40.626C140.925 41.706 141.165 42.54 141.645 43.128C142.137 43.704 142.797 43.992 143.625 43.992ZM150.027 45V36.252H151.449V37.728C151.713 37.2 152.079 36.798 152.547 36.522C153.015 36.234 153.561 36.09 154.185 36.09C155.553 36.09 156.429 36.684 156.813 37.872C157.077 37.32 157.467 36.888 157.983 36.576C158.499 36.252 159.093 36.09 159.765 36.09C161.709 36.09 162.681 37.242 162.681 39.546V45H161.223V39.618C161.223 38.814 161.079 38.226 160.791 37.854C160.515 37.47 160.053 37.278 159.405 37.278C158.697 37.278 158.133 37.53 157.713 38.034C157.293 38.538 157.083 39.21 157.083 40.05V45H155.625V39.618C155.625 38.814 155.481 38.226 155.193 37.854C154.917 37.47 154.455 37.278 153.807 37.278C153.087 37.278 152.517 37.53 152.097 38.034C151.689 38.538 151.485 39.21 151.485 40.05V45H150.027ZM165.407 48.24V36.252H166.829V37.818C167.093 37.278 167.483 36.858 167.999 36.558C168.527 36.246 169.139 36.09 169.835 36.09C170.615 36.09 171.293 36.276 171.869 36.648C172.457 37.008 172.907 37.53 173.219 38.214C173.543 38.886 173.705 39.69 173.705 40.626C173.705 41.55 173.543 42.354 173.219 43.038C172.907 43.71 172.457 44.232 171.869 44.604C171.293 44.976 170.615 45.162 169.835 45.162C169.163 45.162 168.563 45.012 168.035 44.712C167.507 44.412 167.117 43.998 166.865 43.47V48.24H165.407ZM169.529 43.992C170.345 43.992 170.999 43.704 171.491 43.128C171.983 42.54 172.229 41.706 172.229 40.626C172.229 39.534 171.983 38.7 171.491 38.124C170.999 37.548 170.345 37.26 169.529 37.26C168.713 37.26 168.059 37.548 167.567 38.124C167.075 38.7 166.829 39.534 166.829 40.626C166.829 41.706 167.075 42.54 167.567 43.128C168.059 43.704 168.713 43.992 169.529 43.992ZM178.583 45.162C177.695 45.162 177.023 44.904 176.567 44.388C176.123 43.86 175.901 43.098 175.901 42.102V32.31H177.359V41.994C177.359 43.278 177.869 43.92 178.889 43.92C179.189 43.92 179.459 43.884 179.699 43.812L179.663 45.036C179.291 45.12 178.931 45.162 178.583 45.162ZM185.081 45.162C183.701 45.162 182.609 44.76 181.805 43.956C181.001 43.14 180.599 42.036 180.599 40.644C180.599 39.744 180.779 38.952 181.139 38.268C181.499 37.572 181.991 37.038 182.615 36.666C183.251 36.282 183.983 36.09 184.811 36.09C185.999 36.09 186.929 36.474 187.601 37.242C188.273 37.998 188.609 39.042 188.609 40.374V40.932H182.021C182.069 41.928 182.357 42.69 182.885 43.218C183.413 43.734 184.145 43.992 185.081 43.992C185.609 43.992 186.113 43.914 186.593 43.758C187.073 43.59 187.529 43.32 187.961 42.948L188.465 43.974C188.069 44.346 187.565 44.64 186.953 44.856C186.341 45.06 185.717 45.162 185.081 45.162ZM184.847 37.17C184.019 37.17 183.365 37.428 182.885 37.944C182.405 38.46 182.123 39.138 182.039 39.978H187.349C187.313 39.09 187.079 38.4 186.647 37.908C186.227 37.416 185.627 37.17 184.847 37.17ZM194.23 45.162C193.198 45.162 192.424 44.892 191.908 44.352C191.392 43.8 191.134 43.008 191.134 41.976V37.386H189.424V36.252H191.134V33.57H192.592V36.252H195.364V37.386H192.592V41.832C192.592 42.516 192.736 43.038 193.024 43.398C193.312 43.746 193.78 43.92 194.428 43.92C194.62 43.92 194.812 43.896 195.004 43.848C195.196 43.8 195.37 43.752 195.526 43.704L195.778 44.82C195.622 44.904 195.394 44.982 195.094 45.054C194.794 45.126 194.506 45.162 194.23 45.162ZM200.867 45.162C199.487 45.162 198.395 44.76 197.591 43.956C196.787 43.14 196.385 42.036 196.385 40.644C196.385 39.744 196.565 38.952 196.925 38.268C197.285 37.572 197.777 37.038 198.401 36.666C199.037 36.282 199.769 36.09 200.597 36.09C201.785 36.09 202.715 36.474 203.387 37.242C204.059 37.998 204.395 39.042 204.395 40.374V40.932H197.807C197.855 41.928 198.143 42.69 198.671 43.218C199.199 43.734 199.931 43.992 200.867 43.992C201.395 43.992 201.899 43.914 202.379 43.758C202.859 43.59 203.315 43.32 203.747 42.948L204.251 43.974C203.855 44.346 203.351 44.64 202.739 44.856C202.127 45.06 201.503 45.162 200.867 45.162ZM200.633 37.17C199.805 37.17 199.151 37.428 198.671 37.944C198.191 38.46 197.909 39.138 197.825 39.978H203.135C203.099 39.09 202.865 38.4 202.433 37.908C202.013 37.416 201.413 37.17 200.633 37.17ZM209.835 45.162C209.055 45.162 208.371 44.976 207.783 44.604C207.207 44.232 206.757 43.71 206.433 43.038C206.121 42.354 205.965 41.55 205.965 40.626C205.965 39.69 206.121 38.886 206.433 38.214C206.757 37.53 207.207 37.008 207.783 36.648C208.371 36.276 209.055 36.09 209.835 36.09C210.519 36.09 211.119 36.24 211.635 36.54C212.163 36.84 212.553 37.254 212.805 37.782V32.31H214.263V45H212.841V43.398C212.589 43.95 212.199 44.382 211.671 44.694C211.143 45.006 210.531 45.162 209.835 45.162ZM210.141 43.992C210.957 43.992 211.611 43.704 212.103 43.128C212.595 42.54 212.841 41.706 212.841 40.626C212.841 39.534 212.595 38.7 212.103 38.124C211.611 37.548 210.957 37.26 210.141 37.26C209.313 37.26 208.653 37.548 208.161 38.124C207.681 38.7 207.441 39.534 207.441 40.626C207.441 41.706 207.681 42.54 208.161 43.128C208.653 43.704 209.313 43.992 210.141 43.992ZM40.32 65.162C39.636 65.162 38.988 65.066 38.376 64.874C37.764 64.682 37.26 64.412 36.864 64.064L37.332 63.038C37.764 63.386 38.238 63.644 38.754 63.812C39.282 63.968 39.816 64.046 40.356 64.046C41.04 64.046 41.556 63.92 41.904 63.668C42.252 63.416 42.426 63.074 42.426 62.642C42.426 62.306 42.312 62.042 42.084 61.85C41.856 61.646 41.496 61.49 41.004 61.382L39.366 61.022C37.878 60.698 37.134 59.93 37.134 58.718C37.134 57.926 37.446 57.29 38.07 56.81C38.706 56.33 39.534 56.09 40.554 56.09C41.154 56.09 41.724 56.186 42.264 56.378C42.816 56.558 43.272 56.828 43.632 57.188L43.146 58.214C42.798 57.89 42.39 57.644 41.922 57.476C41.466 57.296 41.01 57.206 40.554 57.206C39.882 57.206 39.372 57.338 39.024 57.602C38.676 57.866 38.502 58.214 38.502 58.646C38.502 59.318 38.946 59.75 39.834 59.942L41.472 60.284C42.24 60.452 42.822 60.722 43.218 61.094C43.614 61.454 43.812 61.946 43.812 62.57C43.812 63.374 43.494 64.01 42.858 64.478C42.222 64.934 41.376 65.162 40.32 65.162ZM49.13 65.162C47.03 65.162 45.98 64.004 45.98 61.688V56.252H47.438V61.67C47.438 62.45 47.594 63.026 47.906 63.398C48.23 63.77 48.734 63.956 49.418 63.956C50.162 63.956 50.768 63.71 51.236 63.218C51.704 62.714 51.938 62.048 51.938 61.22V56.252H53.396V65H51.974V63.524C51.698 64.052 51.308 64.46 50.804 64.748C50.312 65.024 49.754 65.162 49.13 65.162ZM59.8319 65.162C58.9559 65.162 58.1999 64.976 57.5639 64.604C56.9279 64.22 56.4359 63.686 56.0879 63.002C55.7519 62.306 55.5839 61.496 55.5839 60.572C55.5839 59.18 55.9619 58.088 56.7179 57.296C57.4739 56.492 58.5119 56.09 59.8319 56.09C60.3719 56.09 60.9059 56.186 61.4339 56.378C61.9619 56.57 62.3999 56.84 62.7479 57.188L62.2439 58.25C61.8959 57.914 61.5119 57.668 61.0919 57.512C60.6839 57.356 60.2939 57.278 59.9219 57.278C59.0099 57.278 58.3079 57.566 57.8159 58.142C57.3239 58.706 57.0779 59.522 57.0779 60.59C57.0779 61.634 57.3239 62.462 57.8159 63.074C58.3079 63.674 59.0099 63.974 59.9219 63.974C60.2939 63.974 60.6839 63.896 61.0919 63.74C61.5119 63.584 61.8959 63.332 62.2439 62.984L62.7479 64.046C62.3999 64.394 61.9559 64.67 61.4159 64.874C60.8879 65.066 60.3599 65.162 59.8319 65.162ZM67.9881 65.162C67.1121 65.162 66.3561 64.976 65.7201 64.604C65.0841 64.22 64.5921 63.686 64.2441 63.002C63.9081 62.306 63.7401 61.496 63.7401 60.572C63.7401 59.18 64.1181 58.088 64.8741 57.296C65.6301 56.492 66.6681 56.09 67.9881 56.09C68.5281 56.09 69.0621 56.186 69.5901 56.378C70.1181 56.57 70.5561 56.84 70.9041 57.188L70.4001 58.25C70.0521 57.914 69.6681 57.668 69.2481 57.512C68.8401 57.356 68.4501 57.278 68.0781 57.278C67.1661 57.278 66.4641 57.566 65.9721 58.142C65.4801 58.706 65.2341 59.522 65.2341 60.59C65.2341 61.634 65.4801 62.462 65.9721 63.074C66.4641 63.674 67.1661 63.974 68.0781 63.974C68.4501 63.974 68.8401 63.896 69.2481 63.74C69.6681 63.584 70.0521 63.332 70.4001 62.984L70.9041 64.046C70.5561 64.394 70.1121 64.67 69.5721 64.874C69.0441 65.066 68.5161 65.162 67.9881 65.162ZM76.3784 65.162C74.9984 65.162 73.9064 64.76 73.1024 63.956C72.2984 63.14 71.8964 62.036 71.8964 60.644C71.8964 59.744 72.0764 58.952 72.4364 58.268C72.7964 57.572 73.2884 57.038 73.9124 56.666C74.5484 56.282 75.2804 56.09 76.1084 56.09C77.2964 56.09 78.2264 56.474 78.8984 57.242C79.5704 57.998 79.9064 59.042 79.9064 60.374V60.932H73.3184C73.3664 61.928 73.6544 62.69 74.1824 63.218C74.7104 63.734 75.4424 63.992 76.3784 63.992C76.9064 63.992 77.4104 63.914 77.8904 63.758C78.3704 63.59 78.8264 63.32 79.2584 62.948L79.7624 63.974C79.3664 64.346 78.8624 64.64 78.2504 64.856C77.6384 65.06 77.0144 65.162 76.3784 65.162ZM76.1444 57.17C75.3164 57.17 74.6624 57.428 74.1824 57.944C73.7024 58.46 73.4204 59.138 73.3364 59.978H78.6464C78.6104 59.09 78.3764 58.4 77.9444 57.908C77.5244 57.416 76.9244 57.17 76.1444 57.17ZM84.9684 65.162C84.2844 65.162 83.6364 65.066 83.0244 64.874C82.4124 64.682 81.9084 64.412 81.5124 64.064L81.9804 63.038C82.4124 63.386 82.8864 63.644 83.4024 63.812C83.9304 63.968 84.4644 64.046 85.0044 64.046C85.6884 64.046 86.2044 63.92 86.5524 63.668C86.9004 63.416 87.0744 63.074 87.0744 62.642C87.0744 62.306 86.9604 62.042 86.7324 61.85C86.5044 61.646 86.1444 61.49 85.6524 61.382L84.0144 61.022C82.5264 60.698 81.7824 59.93 81.7824 58.718C81.7824 57.926 82.0944 57.29 82.7184 56.81C83.3544 56.33 84.1824 56.09 85.2024 56.09C85.8024 56.09 86.3724 56.186 86.9124 56.378C87.4644 56.558 87.9204 56.828 88.2804 57.188L87.7944 58.214C87.4464 57.89 87.0384 57.644 86.5704 57.476C86.1144 57.296 85.6584 57.206 85.2024 57.206C84.5304 57.206 84.0204 57.338 83.6724 57.602C83.3244 57.866 83.1504 58.214 83.1504 58.646C83.1504 59.318 83.5944 59.75 84.4824 59.942L86.1204 60.284C86.8884 60.452 87.4704 60.722 87.8664 61.094C88.2624 61.454 88.4604 61.946 88.4604 62.57C88.4604 63.374 88.1424 64.01 87.5064 64.478C86.8704 64.934 86.0244 65.162 84.9684 65.162ZM93.6345 65.162C92.9505 65.162 92.3025 65.066 91.6905 64.874C91.0785 64.682 90.5745 64.412 90.1785 64.064L90.6465 63.038C91.0785 63.386 91.5525 63.644 92.0685 63.812C92.5965 63.968 93.1305 64.046 93.6705 64.046C94.3545 64.046 94.8705 63.92 95.2185 63.668C95.5665 63.416 95.7405 63.074 95.7405 62.642C95.7405 62.306 95.6265 62.042 95.3985 61.85C95.1705 61.646 94.8105 61.49 94.3185 61.382L92.6805 61.022C91.1925 60.698 90.4485 59.93 90.4485 58.718C90.4485 57.926 90.7605 57.29 91.3845 56.81C92.0205 56.33 92.8485 56.09 93.8685 56.09C94.4685 56.09 95.0385 56.186 95.5785 56.378C96.1305 56.558 96.5865 56.828 96.9465 57.188L96.4605 58.214C96.1125 57.89 95.7045 57.644 95.2365 57.476C94.7805 57.296 94.3245 57.206 93.8685 57.206C93.1965 57.206 92.6865 57.338 92.3385 57.602C91.9905 57.866 91.8165 58.214 91.8165 58.646C91.8165 59.318 92.2605 59.75 93.1485 59.942L94.7865 60.284C95.5545 60.452 96.1365 60.722 96.5325 61.094C96.9285 61.454 97.1265 61.946 97.1265 62.57C97.1265 63.374 96.8085 64.01 96.1725 64.478C95.5365 64.934 94.6905 65.162 93.6345 65.162ZM99.8165 65V57.386H98.0885V56.252H99.8165V55.946C99.8165 54.782 100.104 53.9 100.68 53.3C101.268 52.7 102.168 52.364 103.38 52.292L104.082 52.256L104.208 53.372L103.38 53.426C102.636 53.486 102.096 53.708 101.76 54.092C101.436 54.476 101.274 55.034 101.274 55.766V56.252H103.794V57.386H101.274V65H99.8165ZM108.439 65.162C106.339 65.162 105.289 64.004 105.289 61.688V56.252H106.747V61.67C106.747 62.45 106.903 63.026 107.215 63.398C107.539 63.77 108.043 63.956 108.727 63.956C109.471 63.956 110.077 63.71 110.545 63.218C111.013 62.714 111.247 62.048 111.247 61.22V56.252H112.705V65H111.283V63.524C111.007 64.052 110.617 64.46 110.113 64.748C109.621 65.024 109.063 65.162 108.439 65.162ZM118.114 65.162C117.226 65.162 116.554 64.904 116.098 64.388C115.654 63.86 115.432 63.098 115.432 62.102V52.31H116.89V61.994C116.89 63.278 117.4 63.92 118.42 63.92C118.72 63.92 118.99 63.884 119.23 63.812L119.194 65.036C118.822 65.12 118.462 65.162 118.114 65.162ZM123.441 65.162C122.553 65.162 121.881 64.904 121.425 64.388C120.981 63.86 120.759 63.098 120.759 62.102V52.31H122.217V61.994C122.217 63.278 122.727 63.92 123.747 63.92C124.047 63.92 124.317 63.884 124.557 63.812L124.521 65.036C124.149 65.12 123.789 65.162 123.441 65.162ZM126.899 68.24L128.393 64.856L124.703 56.252H126.287L129.185 63.344L132.101 56.252H133.631L128.429 68.24H126.899Z" fill="white"/>
<defs>
<filter id="filter0_d" x="0" y="0" width="257" height="99" filterUnits="userSpaceOnUse" color-interpolation-filters="sRGB">
<feFlood flood-opacity="0" result="BackgroundImageFix"/>
<feColorMatrix in="SourceAlpha" type="matrix" values="0 0 0 0 0 0 0 0 0 0 0 0 0 0 0 0 0 0 127 0"/>
<feOffset/>
<feGaussianBlur stdDeviation="8"/>
<feColorMatrix type="matrix" values="0 0 0 0 0.72549 0 0 0 0 0.764706 0 0 0 0 0.835294 0 0 0 0.8 0"/>
<feBlend mode="normal" in2="BackgroundImageFix" result="effect1_dropShadow"/>
<feBlend mode="normal" in="SourceGraphic" in2="effect1_dropShadow" result="shape"/>
</filter>
</defs>
</svg>
