<svg width="237" height="90" viewBox="0 0 237 90" fill="none" xmlns="http://www.w3.org/2000/svg">
<g filter="url(#filter0_d)">
<path d="M16 26C16 20.4772 20.4772 16 26 16H211C216.523 16 221 20.4772 221 26V64C221 69.5228 216.523 74 211 74H26C20.4772 74 16 69.5228 16 64V26Z" fill="white"/>
</g>
<path d="M103 58V54H106V58H131V55H134V58V61H103V58Z" fill="#2C3647"/>
<path d="M117.293 49.7071C117.683 50.0976 118.317 50.0976 118.707 49.7071L125.071 43.3431C125.462 42.9526 125.462 42.3195 125.071 41.9289C124.681 41.5384 124.047 41.5384 123.657 41.9289L118 47.5858L112.343 41.9289C111.953 41.5384 111.319 41.5384 110.929 41.9289C110.538 42.3195 110.538 42.9526 110.929 43.3431L117.293 49.7071ZM117 29V49H119V29H117Z" fill="#2C3647"/>
<defs>
<filter id="filter0_d" x="0" y="0" width="237" height="90" filterUnits="userSpaceOnUse" color-interpolation-filters="sRGB">
<feFlood flood-opacity="0" result="BackgroundImageFix"/>
<feColorMatrix in="SourceAlpha" type="matrix" values="0 0 0 0 0 0 0 0 0 0 0 0 0 0 0 0 0 0 127 0"/>
<feOffset/>
<feGaussianBlur stdDeviation="8"/>
<feColorMatrix type="matrix" values="0 0 0 0 0.72549 0 0 0 0 0.764706 0 0 0 0 0.835294 0 0 0 0.8 0"/>
<feBlend mode="normal" in2="BackgroundImageFix" result="effect1_dropShadow"/>
<feBlend mode="normal" in="SourceGraphic" in2="effect1_dropShadow" result="shape"/>
</filter>
</defs>
</svg>
