<svg width="31" height="32" viewBox="0 0 31 32" fill="none" xmlns="http://www.w3.org/2000/svg">
<path d="M0 29V25H3V29H28V26H31V29V32H0V29Z" fill="#2C3647"/>
<path d="M14.2929 20.7071C14.6834 21.0976 15.3166 21.0976 15.7071 20.7071L22.0711 14.3431C22.4616 13.9526 22.4616 13.3195 22.0711 12.9289C21.6805 12.5384 21.0474 12.5384 20.6569 12.9289L15 18.5858L9.34315 12.9289C8.95262 12.5384 8.31946 12.5384 7.92893 12.9289C7.53841 13.3195 7.53841 13.9526 7.92893 14.3431L14.2929 20.7071ZM14 0L14 20H16V0L14 0Z" fill="#2C3647"/>
</svg>
