<svg width="54" height="33" viewBox="0 0 54 33" fill="none" xmlns="http://www.w3.org/2000/svg">
<path d="M0 0H54V33H0V0Z" fill="white"/>
<path d="M44.5 12C44.5 11.2 43.5 11 43 11H27L23.5 14L24 15H39.5C40.545 15 40.5 16.5 39.5 16.5H25.5L27 18.5H32H39.5C40.5 18.5 40.5 20 39.5 20H27.5V23.5C27.5 24 26.5 25.5 25 25.5C23.8 25.5 21.1667 24.5 20 24L17 21L11 27C9.79998 28.2 10.5 28.8333 11 29H30.5H42.5C44.1 29 44.5 28 44.5 27.5V12Z" stroke="black" stroke-width="0.7"/>
<rect x="29.35" y="24.35" width="10.3" height="1.3" rx="0.65" stroke="black" stroke-width="0.7"/>
<path d="M9.2867 3.82774C10.6068 2.74943 12.5511 2.94543 13.6294 4.26551L25.4687 18.7594L25.4687 23.5767L20.6867 22.6624L8.84893 8.17041C7.77062 6.85032 7.96662 4.90605 9.2867 3.82774Z" stroke="black" stroke-width="0.7"/>
<path d="M16.1789 3.49774C16.4677 3.26184 16.8931 3.30472 17.129 3.59351L22.3708 10.0106L22.585 11.3262L21.3237 10.8634L16.0831 4.44779C15.8472 4.159 15.8901 3.73365 16.1789 3.49774Z" stroke="black" stroke-width="0.7"/>
<rect x="15.4983" y="6.53121" width="1.76342" height="1.33282" transform="rotate(-39.1726 15.4983 6.53121)" stroke="black" stroke-width="0.7"/>
</svg>
