<svg width="54" height="33" viewBox="0 0 54 33" fill="none" xmlns="http://www.w3.org/2000/svg">
<rect width="54" height="33" fill="white"/>
<circle cx="25.5" cy="18.5" r="14.15" stroke="black" stroke-width="0.7"/>
<path d="M30.5 23C30.5 24.5 27.4 25.5 27 25.5C26.6 25.5 24.1667 25.5 23 25.5C21.8333 25.1667 19.5 24.5 19.5 23" stroke="black" stroke-width="0.7"/>
<path d="M20.4999 16.5V13L20.5 12.5H21L22 13L23 14H25.5L26.5 13L27.5 14L30.5 14.5V26H34.5L34 15.5C33.8333 14.8333 33.3 13 32.5 11C31.7 9 29.1667 8.16667 28 8H24C23.6667 8 22.5 8.2 20.5 9C18.5 9.8 17 13.3333 16.5 15V26H19.4999C19.4484 25.176 19.5436 24.0973 19.5 23C19.4026 20.5464 19.2235 18 19.4999 18C19.8999 18 20.3332 17 20.4999 16.5Z" stroke="black" stroke-width="0.7"/>
<path d="M27 22C27 22.6 25.8727 23 25.7273 23C25.5818 23 24.697 23 24.2727 23C23.8485 22.8667 23 22.48 23 22" stroke="black" stroke-width="0.7"/>
<path d="M15 28C15.7179 27.6667 17.5846 27 19.3077 27C21.0308 27 21.3205 27 21.5 27" stroke="black" stroke-width="0.7"/>
<path d="M35.5 28C34.8333 27.6667 33.1 27 31.5 27C29.9 27 28.6667 27 28.5 27" stroke="black" stroke-width="0.7"/>
<path d="M21.5 25V29H28.5V25" stroke="black" stroke-width="0.7"/>
<path d="M30 0H44V11H38L34.5 14.5V11H30V0Z" fill="white"/>
<path d="M37.7525 10.7525L34.85 13.655V11V10.65H34.5H30.35V0.35H43.65V10.65H38H37.855L37.7525 10.7525Z" stroke="black" stroke-width="0.7"/>
<path d="M33.5 4H41" stroke="black" stroke-width="0.7"/>
<path d="M33.5 6H41" stroke="black" stroke-width="0.7"/>
<path d="M34 8L39 8" stroke="black" stroke-width="0.7"/>
</svg>
