<svg width="58" height="31" viewBox="0 0 58 31" fill="none" xmlns="http://www.w3.org/2000/svg">
<mask id="mask0" mask-type="alpha" maskUnits="userSpaceOnUse" x="14" y="12" width="9" height="9">
<rect x="14" y="12" width="9" height="9" fill="#C4C4C4"/>
</mask>
<g mask="url(#mask0)">
<path d="M24.5 13.5H42M24.5 17.5H33M24.5 23.5H34M24.5 26.5H30M17.5 15.5L18.5 17L22 13M19 14H15V19.5H21V17" stroke="black" stroke-width="0.7"/>
</g>
<path d="M24.5 5H42M24.5 9H33M24.5 15H34M24.5 18H30M17.5 7L18.5 8.5L22 4.5M19 5.5H15V11H21V8.5" stroke="black" stroke-width="0.7"/>
<path d="M4.55797 27.723L11.1249 22.35H46.3793L53.2162 27.7006C54.4515 28.6673 53.7679 30.65 52.1993 30.65H5.60281C4.05217 30.65 3.35784 28.7049 4.55797 27.723Z" stroke="black" stroke-width="0.7"/>
<path d="M11.5 22L11.5001 1H46V22" stroke="black" stroke-width="0.7"/>
<path d="M44 21L39 16L37 18L36 10.5L44 11L41.5 13.5L45 16.5" stroke="black" stroke-width="0.7"/>
<path d="M11 27H46.5" stroke="black" stroke-width="0.7"/>
</svg>
