<svg width="54" height="33" viewBox="0 0 54 33" fill="none" xmlns="http://www.w3.org/2000/svg">
<rect width="54" height="33" fill="white"/>
<rect x="10.35" y="4.50234" width="31.8763" height="23.4695" rx="4.65" stroke="black" stroke-width="0.7"/>
<rect x="14" y="1" width="21" height="23" fill="white"/>
<rect x="14" y="1" width="21" height="23" fill="white"/>
<rect x="14" y="1" width="21" height="23" fill="white"/>
<rect x="17" y="11" width="21" height="13" fill="white"/>
<rect x="16.35" y="3.35" width="2.3" height="1.3" stroke="black" stroke-width="0.7"/>
<rect x="20.35" y="3.35" width="2.3" height="1.3" stroke="black" stroke-width="0.7"/>
<rect x="24.35" y="3.35" width="2.3" height="1.3" stroke="black" stroke-width="0.7"/>
<path d="M14.2036 7.30518H35.2206" stroke="black" stroke-width="0.7"/>
<path d="M14.2036 22.017V1H35.2206V22.017M14.2036 24.1186H38.3731V10.9831" stroke="black" stroke-width="0.7"/>
<path d="M17.356 22.0169V18.0762M32.5932 22.0169V18.0762M21.5593 22.0169V9.93213M21.5593 9.93213H17.356V14.1355M21.5593 9.93213H25.2373M25.2373 22.0169V9.93213M25.2373 9.93213H32.5932V14.1355M17.356 14.1355H32.5932M17.356 14.1355V18.0762M32.5932 14.1355V18.0762M17.356 18.0762H32.5932" stroke="black" stroke-width="0.7"/>
<path d="M25.7628 27.7964V31.9998M25.7628 31.9998H15.7798M25.7628 31.9998H36.2713" stroke="black" stroke-width="0.7"/>
</svg>
