<svg width="35" height="33" viewBox="0 0 35 33" fill="none" xmlns="http://www.w3.org/2000/svg">
<rect x="3" y="3" width="32" height="23" fill="#BDD5FF"/>
<rect x="0.35" y="4.50234" width="31.8763" height="23.4695" rx="4.65" stroke="black" stroke-width="0.7"/>
<rect x="4" y="1" width="21" height="23" fill="white"/>
<rect x="4" y="1" width="21" height="23" fill="white"/>
<rect x="4" y="1" width="21" height="23" fill="white"/>
<rect x="7" y="11" width="21" height="13" fill="white"/>
<rect x="6.35" y="3.35" width="2.3" height="1.3" stroke="black" stroke-width="0.7"/>
<rect x="10.35" y="3.35" width="2.3" height="1.3" stroke="black" stroke-width="0.7"/>
<rect x="14.35" y="3.35" width="2.3" height="1.3" stroke="black" stroke-width="0.7"/>
<path d="M4.20337 7.30518H25.2203" stroke="black" stroke-width="0.7"/>
<path d="M4.20337 22.017V1H25.2203V22.017M4.20337 24.1186H28.3729V10.9831" stroke="black" stroke-width="0.7"/>
<path d="M7.35596 22.0169V18.0762M22.5932 22.0169V18.0762M11.5593 22.0169V9.93213M11.5593 9.93213H7.35596V14.1355M11.5593 9.93213H15.2373M15.2373 22.0169V9.93213M15.2373 9.93213H22.5932V14.1355M7.35596 14.1355H22.5932M7.35596 14.1355V18.0762M22.5932 14.1355V18.0762M7.35596 18.0762H22.5932" stroke="black" stroke-width="0.7"/>
<path d="M15.7627 27.7964V31.9998M15.7627 31.9998H5.77966M15.7627 31.9998H26.2712" stroke="black" stroke-width="0.7"/>
</svg>
