<svg width="61" height="60" viewBox="0 0 61 60" fill="none" xmlns="http://www.w3.org/2000/svg">
<path d="M11 0H32V46.0944L11 60V0Z" fill="#FFC01E"/>
<path d="M24.6788 44.5882V42.1383C24.4118 42.5 24.1503 42.8404 23.8277 43.1596C23.5051 43.4787 23.1268 43.7553 22.6929 43.9894C22.259 44.2234 21.7806 44.4149 21.2577 44.5638C20.7348 44.7128 20.1841 44.7872 19.6056 44.7872C18.4931 44.7872 17.553 44.5957 16.7853 44.2128C16.0176 43.8298 15.3946 43.3351 14.9162 42.7287C14.4378 42.1223 14.093 41.4309 13.8816 40.6543C13.6702 39.8777 13.5645 39.0851 13.5645 38.2766V35.3235C13.5645 34.5748 0 44.5882 0 44.5882V37.7941L13.5645 28.5294H19.0716V37.0638C19.0716 37.5106 19.105 37.9362 19.1717 38.3404C19.2385 38.7447 19.3664 39.1064 19.5555 39.4255C19.7447 39.7447 19.995 39.9947 20.3065 40.1755C20.618 40.3564 21.0296 40.4468 21.5414 40.4468C22.4982 40.4468 23.2269 40.1064 23.7276 39.4255C24.2282 38.7447 24.5453 37.9468 24.5453 37.0319V28.5294H29.7127V44.5882H24.6788ZM52.7148 36.3298C52.7148 37.4362 52.5368 38.5 52.1808 39.5213C51.8248 40.5426 51.3075 41.4415 50.6288 42.2181C49.9502 42.9947 49.1213 43.617 48.1423 44.0851C47.1632 44.5532 46.0507 44.7872 44.8047 44.7872C43.7811 44.7872 42.8132 44.5904 41.9009 44.1968C40.9886 43.8032 40.2766 43.266 39.7649 42.5851H39.6981V52H34.2244V28.4468H39.4311V30.3936H39.5312C40.043 29.7553 40.7494 29.1968 41.6506 28.7181C42.5518 28.2394 43.6142 28 44.838 28C46.0396 28 47.1299 28.2234 48.1089 28.6702C49.088 29.117 49.9168 29.7234 50.5954 30.4894C51.2741 31.2553 51.797 32.1436 52.1641 33.1543C52.5313 34.1649 52.7148 35.2234 52.7148 36.3298ZM47.408 36.3298C47.408 35.8191 47.3246 35.3192 47.1577 34.8298C46.9908 34.3404 46.7461 33.9096 46.4234 33.5372C46.1008 33.1649 45.6947 32.8617 45.2052 32.6277C44.7157 32.3936 44.1483 32.2766 43.503 32.2766C42.88 32.2766 42.3237 32.3936 41.8342 32.6277C41.3447 32.8617 40.9275 33.1702 40.5826 33.5532C40.2377 33.9362 39.9707 34.3723 39.7815 34.8617C39.5924 35.3511 39.4978 35.8511 39.4978 36.3617C39.4978 36.8723 39.5924 37.3723 39.7815 37.8617C39.9707 38.3511 40.2377 38.7872 40.5826 39.1702C40.9275 39.5532 41.3447 39.8617 41.8342 40.0957C42.3237 40.3298 42.88 40.4468 43.503 40.4468C44.1483 40.4468 44.7157 40.3298 45.2052 40.0957C45.6947 39.8617 46.1008 39.5532 46.4234 39.1702C46.7461 38.7872 46.9908 38.3457 47.1577 37.8457C47.3246 37.3457 47.408 36.8404 47.408 36.3298ZM61 41.6277C61 42.5213 60.6718 43.266 60.0154 43.8617C59.359 44.4574 58.5747 44.7553 57.6624 44.7553C57.1951 44.7553 56.7557 44.6755 56.344 44.516C55.9324 44.3564 55.5708 44.1383 55.2593 43.8617C54.9478 43.5851 54.703 43.2606 54.525 42.8883C54.347 42.516 54.258 42.1064 54.258 41.6596C54.258 41.234 54.347 40.8298 54.525 40.4468C54.703 40.0638 54.9478 39.7287 55.2593 39.4415C55.5708 39.1543 55.9324 38.9255 56.344 38.7553C56.7557 38.5851 57.1951 38.5 57.6624 38.5C58.5747 38.5 59.359 38.7979 60.0154 39.3936C60.6718 39.9894 61 40.734 61 41.6277Z" fill="#2C3647"/>
</svg>
