<svg width="338" height="49" viewBox="0 0 338 49" fill="none" xmlns="http://www.w3.org/2000/svg">
<path d="M36.0641 37.6728V33.9287C35.6739 34.4815 35.2919 35.0017 34.8204 35.4895C34.3489 35.9772 33.7961 36.3999 33.1621 36.7576C32.528 37.1153 31.8289 37.4079 31.0648 37.6355C30.3007 37.8631 29.4959 37.9769 28.6505 37.9769C27.0247 37.9769 25.6509 37.6843 24.5291 37.099C23.4073 36.5137 22.4968 35.7577 21.7977 34.831C21.0986 33.9043 20.5946 32.8475 20.2857 31.6607C19.9768 30.4739 19.8224 29.2626 19.8224 28.027V23.514C19.8224 22.3698 0 37.6728 0 37.6728V27.2897L19.8224 13.1308H27.8701V26.1736C27.8701 26.8565 27.9189 27.5068 28.0164 28.1246C28.114 28.7424 28.3009 29.2951 28.5773 29.7829C28.8537 30.2706 29.2195 30.6527 29.6747 30.9291C30.13 31.2055 30.7315 31.3437 31.4794 31.3437C32.8776 31.3437 33.9425 30.8234 34.6741 29.7829C35.4057 28.7424 35.869 27.523 35.869 26.1248V13.1308H43.4204V37.6728H36.0641ZM77.0344 25.0518C77.0344 26.7427 76.7742 28.3684 76.254 29.9292C75.7337 31.49 74.9777 32.8638 73.986 34.0506C72.9942 35.2375 71.783 36.1886 70.3523 36.9039C68.9216 37.6193 67.2958 37.9769 65.4749 37.9769C63.9792 37.9769 62.5647 37.6762 61.2316 37.0746C59.8984 36.4731 58.8579 35.652 58.11 34.6115H58.0125V48.9999H50.0135V13.0046H57.6223V15.9798H57.7686C58.5165 15.0043 59.5489 14.1508 60.8658 13.4192C62.1827 12.6876 63.7353 12.3218 65.5237 12.3218C67.2796 12.3218 68.8728 12.6632 70.3035 13.346C71.7343 14.0289 72.9455 14.9556 73.9372 16.1262C74.929 17.2967 75.6931 18.6543 76.2296 20.1988C76.7661 21.7433 77.0344 23.361 77.0344 25.0518ZM69.2793 25.0518C69.2793 24.2714 69.1574 23.5073 68.9135 22.7594C68.6696 22.0116 68.3119 21.3531 67.8405 20.7841C67.369 20.215 66.7756 19.7517 66.0602 19.394C65.3448 19.0363 64.5157 18.8575 63.5727 18.8575C62.6623 18.8575 61.8494 19.0363 61.134 19.394C60.4187 19.7517 59.809 20.2232 59.305 20.8085C58.801 21.3938 58.4108 22.0603 58.1344 22.8082C57.858 23.5561 57.7198 24.3202 57.7198 25.1006C57.7198 25.881 57.858 26.6451 58.1344 27.393C58.4108 28.1408 58.801 28.8074 59.305 29.3927C59.809 29.978 60.4187 30.4495 61.134 30.8071C61.8494 31.1648 62.6623 31.3437 63.5727 31.3437C64.5157 31.3437 65.3448 31.1648 66.0602 30.8071C66.7756 30.4495 67.369 29.978 67.8405 29.3927C68.3119 28.8074 68.6696 28.1327 68.9135 27.3686C69.1574 26.6044 69.2793 25.8322 69.2793 25.0518ZM109.079 25.0518C109.079 26.7427 108.819 28.3684 108.299 29.9292C107.778 31.49 107.022 32.8638 106.031 34.0506C105.039 35.2375 103.828 36.1886 102.397 36.9039C100.966 37.6193 99.3404 37.9769 97.5195 37.9769C96.0237 37.9769 94.6093 37.6762 93.2761 37.0746C91.943 36.4731 90.9025 35.652 90.1546 34.6115H90.0571V48.9999H82.0581V13.0046H89.6669V15.9798H89.8132C90.5611 15.0043 91.5934 14.1508 92.9103 13.4192C94.2272 12.6876 95.7799 12.3218 97.5683 12.3218C99.3241 12.3218 100.917 12.6632 102.348 13.346C103.779 14.0289 104.99 14.9556 105.982 16.1262C106.974 17.2967 107.738 18.6543 108.274 20.1988C108.811 21.7433 109.079 23.361 109.079 25.0518ZM101.324 25.0518C101.324 24.2714 101.202 23.5073 100.958 22.7594C100.714 22.0116 100.357 21.3531 99.885 20.7841C99.4135 20.215 98.8201 19.7517 98.1048 19.394C97.3894 19.0363 96.5603 18.8575 95.6173 18.8575C94.7068 18.8575 93.894 19.0363 93.1786 19.394C92.4632 19.7517 91.8536 20.2232 91.3496 20.8085C90.8456 21.3938 90.4554 22.0603 90.179 22.8082C89.9026 23.5561 89.7644 24.3202 89.7644 25.1006C89.7644 25.881 89.9026 26.6451 90.179 27.393C90.4554 28.1408 90.8456 28.8074 91.3496 29.3927C91.8536 29.978 92.4632 30.4495 93.1786 30.8071C93.894 31.1648 94.7068 31.3437 95.6173 31.3437C96.5603 31.3437 97.3894 31.1648 98.1048 30.8071C98.8201 30.4495 99.4135 29.978 99.885 29.3927C100.357 28.8074 100.714 28.1327 100.958 27.3686C101.202 26.6044 101.324 25.8322 101.324 25.0518ZM139.855 25.0518C139.855 27.0353 139.498 28.8318 138.782 30.4413C138.067 32.0509 137.092 33.4166 135.856 34.5384C134.62 35.6602 133.19 36.53 131.564 37.1478C129.938 37.7656 128.198 38.0745 126.345 38.0745C124.524 38.0745 122.793 37.7656 121.151 37.1478C119.508 36.53 118.078 35.6602 116.858 34.5384C115.639 33.4166 114.672 32.0509 113.956 30.4413C113.241 28.8318 112.883 27.0353 112.883 25.0518C112.883 23.0683 113.241 21.28 113.956 19.6867C114.672 18.0934 115.639 16.744 116.858 15.6384C118.078 14.5329 119.508 13.6874 121.151 13.1022C122.793 12.5169 124.524 12.2242 126.345 12.2242C128.198 12.2242 129.938 12.5169 131.564 13.1022C133.19 13.6874 134.62 14.5329 135.856 15.6384C137.092 16.744 138.067 18.0934 138.782 19.6867C139.498 21.28 139.855 23.0683 139.855 25.0518ZM132.149 25.0518C132.149 24.2714 132.019 23.5073 131.759 22.7594C131.499 22.0116 131.125 21.3531 130.637 20.7841C130.149 20.215 129.548 19.7517 128.832 19.394C128.117 19.0363 127.288 18.8575 126.345 18.8575C125.402 18.8575 124.573 19.0363 123.857 19.394C123.142 19.7517 122.549 20.215 122.077 20.7841C121.606 21.3531 121.248 22.0116 121.004 22.7594C120.76 23.5073 120.638 24.2714 120.638 25.0518C120.638 25.8322 120.76 26.5963 121.004 27.3442C121.248 28.0921 121.614 28.7668 122.102 29.3683C122.589 29.9699 123.191 30.4495 123.906 30.8071C124.622 31.1648 125.451 31.3437 126.394 31.3437C127.337 31.3437 128.166 31.1648 128.881 30.8071C129.597 30.4495 130.198 29.9699 130.686 29.3683C131.174 28.7668 131.539 28.0921 131.783 27.3442C132.027 26.5963 132.149 25.8322 132.149 25.0518ZM153.61 5.24953C153.61 5.86734 153.488 6.44449 153.244 6.98101C153 7.51753 152.675 7.98088 152.268 8.37107C151.862 8.76127 151.374 9.07017 150.805 9.29778C150.236 9.52539 149.643 9.6392 149.025 9.6392C147.724 9.6392 146.635 9.20836 145.757 8.34668C144.879 7.485 144.44 6.45263 144.44 5.24953C144.44 4.66424 144.554 4.10334 144.782 3.56683C145.009 3.03031 145.334 2.56696 145.757 2.17676C146.18 1.78657 146.668 1.46954 147.22 1.22567C147.773 0.981798 148.375 0.859863 149.025 0.859863C149.643 0.859863 150.236 0.973668 150.805 1.20128C151.374 1.4289 151.862 1.73779 152.268 2.12799C152.675 2.51818 153 2.98153 153.244 3.51805C153.488 4.05457 153.61 4.63172 153.61 5.24953ZM145.025 37.2941V13.0046H153.024V37.2941H145.025ZM175.314 37.2941V24.0276C175.314 23.3447 175.257 22.6944 175.143 22.0766C175.03 21.4588 174.843 20.9141 174.583 20.4427C174.322 19.9712 173.957 19.5972 173.485 19.3209C173.014 19.0445 172.42 18.9063 171.705 18.9063C170.99 18.9063 170.364 19.0445 169.827 19.3209C169.291 19.5972 168.843 19.9793 168.486 20.467C168.128 20.9548 167.86 21.5157 167.681 22.1497C167.502 22.7838 167.413 23.4423 167.413 24.1251V37.2941H159.365V13.0046H167.12V16.37H167.218C167.51 15.8498 167.892 15.3376 168.364 14.8336C168.835 14.3296 169.388 13.8988 170.022 13.5411C170.656 13.1834 171.347 12.8908 172.095 12.6632C172.843 12.4356 173.64 12.3218 174.485 12.3218C176.111 12.3218 177.493 12.6144 178.631 13.1997C179.769 13.785 180.687 14.541 181.387 15.4677C182.086 16.3944 182.59 17.4593 182.899 18.6624C183.207 19.8655 183.362 21.0686 183.362 22.2717V37.2941H175.314ZM198.092 19.0038V28.2709C198.092 29.409 198.311 30.2625 198.75 30.8315C199.189 31.4006 199.978 31.6851 201.116 31.6851C201.506 31.6851 201.92 31.6526 202.359 31.5875C202.798 31.5225 203.164 31.425 203.457 31.2949L203.554 37.1478C203.002 37.3429 202.302 37.5136 201.457 37.6599C200.612 37.8062 199.766 37.8794 198.921 37.8794C197.295 37.8794 195.929 37.6762 194.824 37.2697C193.718 36.8633 192.832 36.278 192.166 35.5139C191.499 34.7497 191.019 33.8393 190.727 32.7825C190.434 31.7257 190.288 30.547 190.288 29.2464V19.0038H186.386V13.0046H190.239V6.6152H198.092V13.0046H203.798V19.0038H198.092ZM238.574 37.2941V24.0276C238.574 23.3447 238.525 22.6863 238.428 22.0522C238.33 21.4181 238.151 20.8735 237.891 20.4183C237.631 19.963 237.282 19.5972 236.843 19.3209C236.404 19.0445 235.827 18.9063 235.111 18.9063C234.428 18.9063 233.835 19.0526 233.331 19.3452C232.827 19.6379 232.404 20.0281 232.063 20.5158C231.721 21.0036 231.469 21.5645 231.307 22.1985C231.144 22.8326 231.063 23.491 231.063 24.1739V37.2941H223.064V23.4423C223.064 22.0441 222.788 20.9385 222.235 20.1256C221.682 19.3127 220.804 18.9063 219.601 18.9063C218.333 18.9063 217.349 19.4103 216.65 20.4183C215.951 21.4263 215.602 22.6619 215.602 24.1251V37.2941H207.554V13.0046H215.309V16.37C215.699 15.8498 216.065 15.3458 216.504 14.858C216.943 14.3703 217.471 13.9394 218.089 13.5655C218.707 13.1916 219.398 12.8908 220.162 12.6632C220.926 12.4356 221.763 12.3218 222.674 12.3218C224.43 12.3218 225.917 12.6794 227.137 13.3948C228.356 14.1102 229.307 15.1344 229.99 16.4676C230.803 15.1994 231.843 14.1914 233.111 13.4436C234.38 12.6957 235.924 12.3218 237.745 12.3218C239.403 12.3218 240.793 12.6225 241.915 13.2241C243.037 13.8256 243.939 14.606 244.622 15.5652C245.305 16.5245 245.801 17.5975 246.11 18.7843C246.419 19.9712 246.573 21.1336 246.573 22.2717V37.2941H238.574ZM269.351 22.3692C269.351 21.1011 268.952 20.0118 268.156 19.1014C267.359 18.1909 266.164 17.7357 264.571 17.7357C263.79 17.7357 263.075 17.8576 262.425 18.1015C261.774 18.3454 261.205 18.6787 260.718 19.1014C260.23 19.5241 259.84 20.0199 259.547 20.589C259.254 21.158 259.092 21.7514 259.059 22.3692H269.351ZM276.715 25.442V26.4175C276.715 26.7426 276.699 27.0515 276.667 27.3442H259.059C259.124 28.027 259.328 28.6448 259.669 29.1976C260.01 29.7504 260.449 30.23 260.986 30.6364C261.522 31.0429 262.124 31.3599 262.79 31.5875C263.457 31.8152 264.148 31.929 264.863 31.929C266.132 31.929 267.205 31.6932 268.082 31.2217C268.96 30.7502 269.676 30.1406 270.229 29.3927L275.789 32.9044C274.651 34.5628 273.147 35.839 271.277 36.7332C269.407 37.6274 267.237 38.0745 264.766 38.0745C262.945 38.0745 261.222 37.79 259.596 37.2209C257.97 36.6519 256.547 35.8228 255.328 34.7335C254.109 33.6442 253.149 32.3029 252.45 30.7096C251.751 29.1163 251.402 27.2954 251.402 25.2469C251.402 23.2634 251.743 21.4669 252.426 19.8574C253.109 18.2478 254.036 16.8822 255.206 15.7603C256.377 14.6385 257.759 13.7687 259.352 13.1509C260.945 12.5331 262.669 12.2242 264.522 12.2242C266.31 12.2242 267.952 12.525 269.448 13.1265C270.944 13.7281 272.228 14.5979 273.301 15.736C274.374 16.874 275.212 18.2559 275.813 19.8818C276.415 21.5076 276.715 23.361 276.715 25.442ZM297.64 37.2941V24.0276C297.64 23.3447 297.583 22.6944 297.469 22.0766C297.355 21.4588 297.168 20.9141 296.908 20.4427C296.648 19.9712 296.282 19.5972 295.811 19.3209C295.339 19.0445 294.746 18.9063 294.03 18.9063C293.315 18.9063 292.689 19.0445 292.152 19.3209C291.616 19.5972 291.169 19.9793 290.811 20.467C290.453 20.9548 290.185 21.5157 290.006 22.1497C289.828 22.7838 289.738 23.4423 289.738 24.1251V37.2941H281.69V13.0046H289.445V16.37H289.543C289.836 15.8498 290.218 15.3376 290.689 14.8336C291.161 14.3296 291.714 13.8988 292.348 13.5411C292.982 13.1834 293.673 12.8908 294.42 12.6632C295.168 12.4356 295.965 12.3218 296.81 12.3218C298.436 12.3218 299.818 12.6144 300.956 13.1997C302.094 13.785 303.013 14.541 303.712 15.4677C304.411 16.3944 304.915 17.4593 305.224 18.6624C305.533 19.8655 305.687 21.0686 305.687 22.2717V37.2941H297.64ZM320.417 19.0038V28.2709C320.417 29.409 320.637 30.2625 321.076 30.8315C321.514 31.4006 322.303 31.6851 323.441 31.6851C323.831 31.6851 324.246 31.6526 324.685 31.5875C325.124 31.5225 325.49 31.425 325.782 31.2949L325.88 37.1478C325.327 37.3429 324.628 37.5136 323.783 37.6599C322.937 37.8062 322.092 37.8794 321.246 37.8794C319.62 37.8794 318.255 37.6762 317.149 37.2697C316.044 36.8633 315.158 36.278 314.491 35.5139C313.824 34.7497 313.345 33.8393 313.052 32.7825C312.76 31.7257 312.613 30.547 312.613 29.2464V19.0038H308.711V13.0046H312.564V6.6152H320.417V13.0046H326.124V19.0038H320.417ZM339 33.002C339 34.3677 338.52 35.5057 337.561 36.4162C336.602 37.3266 335.456 37.7818 334.123 37.7818C333.44 37.7818 332.798 37.6599 332.196 37.416C331.594 37.1722 331.066 36.8389 330.611 36.4162C330.156 35.9935 329.798 35.4976 329.538 34.9286C329.278 34.3595 329.148 33.7336 329.148 33.0508C329.148 32.4004 329.278 31.7826 329.538 31.1973C329.798 30.6121 330.156 30.0999 330.611 29.661C331.066 29.222 331.594 28.8724 332.196 28.6123C332.798 28.3522 333.44 28.2221 334.123 28.2221C335.456 28.2221 336.602 28.6773 337.561 29.5878C338.52 30.4982 339 31.6363 339 33.002Z" fill="#2C3647"/>
</svg>
