<svg width="225" height="74" viewBox="0 0 225 74" fill="none" xmlns="http://www.w3.org/2000/svg">
<path d="M10.6514 0.297363H31.3258V60.4418L10.6514 73.9108V0.297363Z" fill="#FFC01E"/>
<path d="M23.9364 59.8147V57.3297C23.6774 57.6966 23.4238 58.0419 23.1109 58.3656C22.7979 58.6893 22.4311 58.9699 22.0102 59.2073C21.5894 59.4447 21.1254 59.6389 20.6182 59.79C20.1111 59.941 19.5769 60.0166 19.0158 60.0166C17.9367 60.0166 17.0249 59.8223 16.2804 59.4339C15.5358 59.0454 14.9315 58.5436 14.4675 57.9286C14.0035 57.3135 13.669 56.6121 13.464 55.8244C13.2589 55.0367 13.1564 54.2328 13.1564 53.4127V50.4173C13.1564 49.6579 0 59.8147 0 59.8147V52.9233L13.1564 43.5258H18.4978V52.1825C18.4978 52.6357 18.5302 53.0673 18.595 53.4774C18.6597 53.8874 18.7838 54.2543 18.9672 54.578C19.1507 54.9018 19.3935 55.1554 19.6956 55.3388C19.9978 55.5222 20.397 55.614 20.8934 55.614C21.8214 55.614 22.5282 55.2687 23.0138 54.578C23.4993 53.8874 23.8069 53.0781 23.8069 52.1501V43.5258H28.8189V59.8147H23.9364ZM51.129 51.438C51.129 52.5602 50.9564 53.6393 50.611 54.6752C50.2657 55.7111 49.764 56.6229 49.1057 57.4106C48.4475 58.1983 47.6436 58.8296 46.694 59.3044C45.7444 59.7792 44.6654 60.0166 43.4568 60.0166C42.464 60.0166 41.5253 59.817 40.6404 59.4177C39.7556 59.0184 39.065 58.4735 38.5686 57.7829H38.5039V67.3327H33.1948V43.442H38.2449V45.4167H38.342C38.8384 44.7693 39.5236 44.2028 40.3976 43.7172C41.2717 43.2316 42.3022 42.9888 43.4892 42.9888C44.6546 42.9888 45.7121 43.2154 46.6616 43.6686C47.6112 44.1218 48.4151 44.7369 49.0734 45.5138C49.7316 46.2908 50.2388 47.1918 50.5949 48.2169C50.951 49.242 51.129 50.3157 51.129 51.438ZM45.9818 51.438C45.9818 50.92 45.9009 50.4128 45.739 49.9165C45.5772 49.4201 45.3398 48.9831 45.0268 48.6054C44.7139 48.2277 44.3201 47.9202 43.8453 47.6828C43.3705 47.4454 42.8201 47.3267 42.1943 47.3267C41.59 47.3267 41.0505 47.4454 40.5757 47.6828C40.1009 47.9202 39.6962 48.2331 39.3617 48.6216C39.0272 49.01 38.7682 49.4525 38.5848 49.9488C38.4013 50.4452 38.3096 50.9524 38.3096 51.4703C38.3096 51.9883 38.4013 52.4954 38.5848 52.9918C38.7682 53.4882 39.0272 53.9306 39.3617 54.3191C39.6962 54.7075 40.1009 55.0205 40.5757 55.2579C41.0505 55.4953 41.59 55.614 42.1943 55.614C42.8201 55.614 43.3705 55.4953 43.8453 55.2579C44.3201 55.0205 44.7139 54.7075 45.0268 54.3191C45.3398 53.9306 45.5772 53.4828 45.739 52.9756C45.9009 52.4685 45.9818 51.9559 45.9818 51.438ZM72.3975 51.438C72.3975 52.5602 72.2249 53.6393 71.8796 54.6752C71.5343 55.7111 71.0325 56.6229 70.3743 57.4106C69.716 58.1983 68.9121 58.8296 67.9625 59.3044C67.0129 59.7792 65.9339 60.0166 64.7253 60.0166C63.7326 60.0166 62.7938 59.817 61.9089 59.4177C61.0241 59.0184 60.3335 58.4735 59.8371 57.7829H59.7724V67.3327H54.4633V43.442H59.5134V45.4167H59.6105C60.1069 44.7693 60.7921 44.2028 61.6661 43.7172C62.5402 43.2316 63.5707 42.9888 64.7577 42.9888C65.9231 42.9888 66.9806 43.2154 67.9302 43.6686C68.8798 44.1218 69.6837 44.7369 70.3419 45.5138C71.0001 46.2908 71.5073 47.1918 71.8634 48.2169C72.2195 49.242 72.3975 50.3157 72.3975 51.438ZM67.2504 51.438C67.2504 50.92 67.1694 50.4128 67.0076 49.9165C66.8457 49.4201 66.6083 48.9831 66.2954 48.6054C65.9824 48.2277 65.5886 47.9202 65.1138 47.6828C64.639 47.4454 64.0887 47.3267 63.4628 47.3267C62.8585 47.3267 62.319 47.4454 61.8442 47.6828C61.3694 47.9202 60.9648 48.2331 60.6302 48.6216C60.2957 49.01 60.0368 49.4525 59.8533 49.9488C59.6699 50.4452 59.5781 50.9524 59.5781 51.4703C59.5781 51.9883 59.6699 52.4954 59.8533 52.9918C60.0368 53.4882 60.2957 53.9306 60.6302 54.3191C60.9648 54.7075 61.3694 55.0205 61.8442 55.2579C62.319 55.4953 62.8585 55.614 63.4628 55.614C64.0887 55.614 64.639 55.4953 65.1138 55.2579C65.5886 55.0205 65.9824 54.7075 66.2954 54.3191C66.6083 53.9306 66.8457 53.4828 67.0076 52.9756C67.1694 52.4685 67.2504 51.9559 67.2504 51.438ZM92.8244 51.438C92.8244 52.7544 92.587 53.9468 92.1122 55.0151C91.6374 56.0834 90.99 56.9898 90.1699 57.7343C89.3498 58.4789 88.4002 59.0562 87.3211 59.4663C86.242 59.8763 85.0874 60.0813 83.8573 60.0813C82.6487 60.0813 81.4995 59.8763 80.4096 59.4663C79.3198 59.0562 78.3702 58.4789 77.5609 57.7343C76.7516 56.9898 76.1095 56.0834 75.6347 55.0151C75.1599 53.9468 74.9226 52.7544 74.9226 51.438C74.9226 50.1215 75.1599 48.9345 75.6347 47.877C76.1095 46.8195 76.7516 45.9239 77.5609 45.1901C78.3702 44.4563 79.3198 43.8952 80.4096 43.5068C81.4995 43.1183 82.6487 42.9241 83.8573 42.9241C85.0874 42.9241 86.242 43.1183 87.3211 43.5068C88.4002 43.8952 89.3498 44.4563 90.1699 45.1901C90.99 45.9239 91.6374 46.8195 92.1122 47.877C92.587 48.9345 92.8244 50.1215 92.8244 51.438ZM87.7096 51.438C87.7096 50.92 87.6232 50.4128 87.4506 49.9165C87.2779 49.4201 87.0298 48.9831 86.706 48.6054C86.3823 48.2277 85.9831 47.9202 85.5083 47.6828C85.0335 47.4454 84.4831 47.3267 83.8573 47.3267C83.2314 47.3267 82.6811 47.4454 82.2063 47.6828C81.7315 47.9202 81.3376 48.2277 81.0247 48.6054C80.7118 48.9831 80.4744 49.4201 80.3125 49.9165C80.1507 50.4128 80.0697 50.92 80.0697 51.438C80.0697 51.9559 80.1507 52.4631 80.3125 52.9594C80.4744 53.4558 80.7172 53.9036 81.0409 54.3029C81.3646 54.7021 81.7639 55.0205 82.2387 55.2579C82.7135 55.4953 83.2638 55.614 83.8897 55.614C84.5155 55.614 85.0658 55.4953 85.5406 55.2579C86.0154 55.0205 86.4147 54.7021 86.7384 54.3029C87.0621 53.9036 87.3049 53.4558 87.4668 52.9594C87.6286 52.4631 87.7096 51.9559 87.7096 51.438ZM101.953 38.2948C101.953 38.7049 101.872 39.088 101.711 39.4441C101.549 39.8002 101.333 40.1077 101.063 40.3667C100.793 40.6256 100.47 40.8307 100.092 40.9817C99.7142 41.1328 99.3204 41.2083 98.9103 41.2083C98.0471 41.2083 97.3241 40.9224 96.7414 40.3505C96.1587 39.7786 95.8674 39.0934 95.8674 38.2948C95.8674 37.9064 95.9429 37.5341 96.094 37.178C96.245 36.8219 96.4608 36.5144 96.7414 36.2554C97.022 35.9964 97.3457 35.786 97.7126 35.6241C98.0795 35.4623 98.4787 35.3813 98.9103 35.3813C99.3204 35.3813 99.7142 35.4569 100.092 35.608C100.47 35.759 100.793 35.964 101.063 36.223C101.333 36.482 101.549 36.7895 101.711 37.1456C101.872 37.5017 101.953 37.8848 101.953 38.2948ZM96.2558 59.5634V43.442H101.565V59.5634H96.2558ZM116.359 59.5634V50.7581C116.359 50.3049 116.321 49.8733 116.246 49.4632C116.17 49.0532 116.046 48.6917 115.873 48.3788C115.701 48.0658 115.458 47.8177 115.145 47.6342C114.832 47.4508 114.438 47.3591 113.963 47.3591C113.489 47.3591 113.073 47.4508 112.717 47.6342C112.361 47.8177 112.064 48.0712 111.827 48.395C111.589 48.7187 111.411 49.091 111.293 49.5118C111.174 49.9326 111.115 50.3697 111.115 50.8229V59.5634H105.773V43.442H110.92V45.6757H110.985C111.179 45.3304 111.433 44.9905 111.746 44.656C112.059 44.3215 112.426 44.0355 112.847 43.7981C113.267 43.5607 113.726 43.3665 114.222 43.2154C114.719 43.0643 115.247 42.9888 115.809 42.9888C116.888 42.9888 117.805 43.183 118.56 43.5715C119.316 43.96 119.925 44.4617 120.389 45.0768C120.853 45.6919 121.188 46.3987 121.393 47.1972C121.598 47.9957 121.7 48.7942 121.7 49.5927V59.5634H116.359ZM131.477 47.4238V53.5745C131.477 54.3299 131.622 54.8964 131.914 55.2741C132.205 55.6517 132.728 55.8406 133.484 55.8406C133.743 55.8406 134.018 55.819 134.309 55.7758C134.601 55.7327 134.843 55.6679 135.038 55.5816L135.102 59.4663C134.736 59.5957 134.272 59.709 133.71 59.8062C133.149 59.9033 132.588 59.9518 132.027 59.9518C130.948 59.9518 130.042 59.8169 129.308 59.5472C128.574 59.2774 127.986 58.889 127.544 58.3818C127.101 57.8746 126.783 57.2703 126.589 56.5689C126.394 55.8675 126.297 55.0852 126.297 54.222V47.4238H123.707V43.442H126.265V39.2013H131.477V43.442H135.264V47.4238H131.477ZM158.346 59.5634V50.7581C158.346 50.3049 158.313 49.8679 158.249 49.4471C158.184 49.0262 158.065 48.6647 157.892 48.3626C157.72 48.0605 157.488 47.8177 157.196 47.6342C156.905 47.4508 156.522 47.3591 156.047 47.3591C155.594 47.3591 155.2 47.4562 154.866 47.6504C154.531 47.8446 154.251 48.1036 154.024 48.4273C153.797 48.7511 153.63 49.1233 153.522 49.5442C153.414 49.965 153.36 50.402 153.36 50.8553V59.5634H148.051V50.3697C148.051 49.4417 147.868 48.7079 147.501 48.1684C147.134 47.6288 146.551 47.3591 145.753 47.3591C144.911 47.3591 144.258 47.6936 143.794 48.3626C143.33 49.0316 143.098 49.8517 143.098 50.8229V59.5634H137.757V43.442H142.904V45.6757C143.163 45.3304 143.406 44.9959 143.697 44.6722C143.989 44.3484 144.339 44.0625 144.749 43.8143C145.159 43.5661 145.618 43.3665 146.125 43.2154C146.632 43.0643 147.188 42.9888 147.792 42.9888C148.958 42.9888 149.945 43.2262 150.754 43.701C151.564 44.1758 152.195 44.8556 152.648 45.7404C153.188 44.8988 153.878 44.2297 154.72 43.7334C155.562 43.237 156.587 42.9888 157.795 42.9888C158.896 42.9888 159.819 43.1884 160.563 43.5877C161.308 43.987 161.907 44.5049 162.36 45.1416C162.813 45.7782 163.142 46.4904 163.347 47.2781C163.552 48.0659 163.655 48.8374 163.655 49.5927V59.5634H158.346ZM178.773 49.6575C178.773 48.8158 178.508 48.0928 177.979 47.4885C177.451 46.8843 176.658 46.5821 175.6 46.5821C175.082 46.5821 174.607 46.6631 174.176 46.8249C173.744 46.9868 173.366 47.208 173.043 47.4885C172.719 47.7691 172.46 48.0982 172.266 48.4759C172.071 48.8536 171.964 49.2474 171.942 49.6575H178.773ZM183.661 51.6969V52.3444C183.661 52.5602 183.65 52.7652 183.628 52.9594H171.942C171.985 53.4127 172.12 53.8227 172.347 54.1896C172.573 54.5565 172.865 54.8748 173.221 55.1446C173.577 55.4143 173.976 55.6248 174.418 55.7758C174.861 55.9269 175.319 56.0024 175.794 56.0024C176.636 56.0024 177.348 55.846 177.931 55.533C178.514 55.2201 178.988 54.8155 179.355 54.3191L183.046 56.6499C182.29 57.7505 181.292 58.5976 180.051 59.1911C178.81 59.7846 177.37 60.0813 175.73 60.0813C174.521 60.0813 173.377 59.8925 172.298 59.5148C171.219 59.1371 170.275 58.5868 169.466 57.8638C168.656 57.1408 168.02 56.2506 167.556 55.1931C167.092 54.1356 166.86 52.9271 166.86 51.5674C166.86 50.251 167.086 49.0586 167.539 47.9903C167.993 46.922 168.608 46.0156 169.385 45.271C170.162 44.5265 171.079 43.9492 172.136 43.5391C173.194 43.1291 174.338 42.9241 175.568 42.9241C176.755 42.9241 177.845 43.1237 178.837 43.5229C179.83 43.9222 180.682 44.4995 181.395 45.2549C182.107 46.0102 182.663 46.9274 183.062 48.0065C183.461 49.0856 183.661 50.3157 183.661 51.6969ZM197.548 59.5634V50.7581C197.548 50.3049 197.511 49.8733 197.435 49.4632C197.36 49.0532 197.235 48.6917 197.063 48.3788C196.89 48.0658 196.647 47.8177 196.334 47.6342C196.021 47.4508 195.628 47.3591 195.153 47.3591C194.678 47.3591 194.263 47.4508 193.907 47.6342C193.55 47.8177 193.254 48.0712 193.016 48.395C192.779 48.7187 192.601 49.091 192.482 49.5118C192.363 49.9326 192.304 50.3697 192.304 50.8229V59.5634H186.963V43.442H192.11V45.6757H192.175C192.369 45.3304 192.622 44.9905 192.935 44.656C193.248 44.3215 193.615 44.0355 194.036 43.7981C194.457 43.5607 194.915 43.3665 195.412 43.2154C195.908 43.0643 196.437 42.9888 196.998 42.9888C198.077 42.9888 198.994 43.183 199.75 43.5715C200.505 43.96 201.115 44.4617 201.579 45.0768C202.043 45.6919 202.377 46.3987 202.582 47.1972C202.787 47.9957 202.89 48.7942 202.89 49.5927V59.5634H197.548ZM212.666 47.4238V53.5745C212.666 54.3299 212.812 54.8964 213.103 55.2741C213.395 55.6517 213.918 55.8406 214.673 55.8406C214.932 55.8406 215.207 55.819 215.499 55.7758C215.79 55.7327 216.033 55.6679 216.227 55.5816L216.292 59.4663C215.925 59.5957 215.461 59.709 214.9 59.8062C214.339 59.9033 213.778 59.9518 213.217 59.9518C212.137 59.9518 211.231 59.8169 210.497 59.5472C209.763 59.2774 209.175 58.889 208.733 58.3818C208.291 57.8746 207.972 57.2703 207.778 56.5689C207.584 55.8675 207.487 55.0852 207.487 54.222V47.4238H204.897V43.442H207.454V39.2013H212.666V43.442H216.454V47.4238H212.666ZM225 56.7146C225 57.621 224.682 58.3764 224.045 58.9807C223.408 59.585 222.648 59.8871 221.763 59.8871C221.31 59.8871 220.883 59.8062 220.484 59.6443C220.085 59.4824 219.734 59.2612 219.432 58.9807C219.13 58.7001 218.892 58.371 218.72 57.9933C218.547 57.6156 218.461 57.2002 218.461 56.747C218.461 56.3154 218.547 55.9053 218.72 55.5168C218.892 55.1284 219.13 54.7885 219.432 54.4971C219.734 54.2058 220.085 53.9738 220.484 53.8011C220.883 53.6285 221.31 53.5421 221.763 53.5421C222.648 53.5421 223.408 53.8443 224.045 54.4486C224.682 55.0528 225 55.8082 225 56.7146Z" fill="#2C3647"/>
</svg>
