<svg width="109" height="47" viewBox="0 0 109 47" fill="none" xmlns="http://www.w3.org/2000/svg">
<path d="M21.7673 0.734375C19.9471 0.822035 17.6996 1.98572 16.4156 3.62277C15.2384 5.03409 14.2335 7.3264 14.4885 9.47846C16.5442 9.65816 18.5977 8.40024 19.8817 6.80702C21.1461 5.16997 21.981 2.97628 21.7673 0.734375ZM39.2418 5.11299V37.9855H44.4192V27.028H51.504C58.0067 27.028 62.6762 22.4806 62.6762 16.0705C62.6762 9.66035 58.0918 5.11299 51.674 5.11299H39.2418ZM44.4192 9.49599H50.414C54.8763 9.49599 57.4988 11.9176 57.4988 16.0705C57.4988 20.2234 54.8981 22.645 50.414 22.645H44.4192V9.49599ZM21.5297 10.5917C18.5323 10.5917 16.3894 12.2354 14.9899 12.2354C13.5686 12.2354 11.4475 10.6137 8.99505 10.6137C5.99763 10.6137 3.06124 12.5049 1.51348 15.2596C-1.66706 20.7734 0.689463 28.9324 3.76319 33.4184C5.26735 35.6406 7.0876 37.9855 9.54004 37.9855C11.7876 37.9 12.5484 36.6158 15.2624 36.6158C17.996 36.6158 18.8048 37.9855 21.2572 37.9855C23.7097 37.9855 25.1942 35.7282 26.6984 33.5039C28.4162 30.9836 29.1181 28.527 29.1595 28.3977C29.1181 28.356 24.4138 26.5393 24.3702 21.0693C24.3266 16.4978 28.0783 14.3195 28.2483 14.1924C26.1272 11.03 22.6197 10.5917 21.8022 10.5917H21.5297ZM74.5547 13.879C69.1288 13.879 65.1199 16.9361 64.9717 21.1416H69.5714C69.9485 19.143 71.8298 17.8324 74.4065 17.8324C77.5303 17.8324 79.2939 19.2723 79.2939 21.9174L79.2983 23.7407L72.9067 24.0782C66.9772 24.431 63.7662 26.8285 63.7662 30.9924C63.7662 35.1979 67.0797 37.9898 71.8319 37.9898C75.0387 37.9898 78.0164 36.3857 79.3658 33.8479H79.4748V37.7378H84.1988V21.5843C84.201 16.8945 80.4057 13.879 74.5547 13.879ZM86.1106 13.879L94.8478 37.8759L94.3791 39.3332C93.59 41.8096 92.3125 42.7586 90.0323 42.7586C89.6399 42.7586 88.9031 42.7191 88.563 42.6775V46.6309C88.9075 46.7076 90.1064 46.7515 90.4792 46.7515C95.5083 46.7515 97.8757 44.8492 99.9445 39.0768L109 13.879H103.759L97.6839 33.3504H97.5749L91.5038 13.879H86.1106ZM79.2983 27.028L79.2808 28.928C79.2808 31.9676 76.6649 34.1328 73.201 34.1328C70.4782 34.1328 68.7473 32.8442 68.7473 30.8675C68.7473 28.8272 70.4172 27.6394 73.6064 27.4509L79.2983 27.028Z" fill="black"/>
</svg>
