<svg width="58" height="26" viewBox="0 0 58 26" fill="none" xmlns="http://www.w3.org/2000/svg">
<path d="M11.5413 0.879639C10.5904 0.927262 9.41622 1.55947 8.74542 2.44884C8.13043 3.21558 7.60542 4.46093 7.73866 5.63009C8.81262 5.72772 9.88543 5.04432 10.5562 4.17876C11.2168 3.28939 11.653 2.09761 11.5413 0.879639V0.879639ZM20.6705 3.25844V21.1173H23.3753V15.1643H27.0766C30.4739 15.1643 32.9133 12.6939 32.9133 9.21138C32.9133 5.72891 30.5183 3.25844 27.1655 3.25844H20.6705ZM23.3753 5.63962H26.5072C28.8385 5.63962 30.2085 6.95522 30.2085 9.21138C30.2085 11.4676 28.8499 12.7832 26.5072 12.7832H23.3753V5.63962ZM11.4172 6.23491C9.85126 6.23491 8.73176 7.12785 8.0006 7.12785C7.25806 7.12785 6.14994 6.24682 4.86872 6.24682C3.30277 6.24682 1.76872 7.27429 0.960122 8.77087C-0.701486 11.7664 0.52963 16.199 2.13543 18.6361C2.92125 19.8433 3.87221 21.1173 5.15343 21.1173C6.32761 21.0708 6.72507 20.3732 8.14296 20.3732C9.5711 20.3732 9.99362 21.1173 11.2748 21.1173C12.5561 21.1173 13.3316 19.891 14.1175 18.6825C15.0149 17.3133 15.3816 15.9787 15.4032 15.9085C15.3816 15.8858 12.9239 14.8988 12.9012 11.9271C12.8784 9.44355 14.8384 8.2601 14.9272 8.19105C13.8191 6.47303 11.9866 6.23491 11.5596 6.23491H11.4172ZM39.119 8.02079C36.2844 8.02079 34.19 9.68167 34.1126 11.9664H36.5156C36.7126 10.8806 37.6954 10.1686 39.0416 10.1686C40.6736 10.1686 41.5949 10.9508 41.5949 12.3879L41.5972 13.3784L38.258 13.5618C35.1603 13.7535 33.4828 15.056 33.4828 17.3181C33.4828 19.6029 35.2139 21.1197 37.6966 21.1197C39.3719 21.1197 40.9276 20.2481 41.6325 18.8694H41.6895V20.9827H44.1574V12.2069C44.1585 9.65905 42.1758 8.02079 39.119 8.02079V8.02079ZM45.1562 8.02079L49.7208 21.0578L49.4759 21.8495C49.0636 23.1949 48.3962 23.7104 47.205 23.7104C47 23.7104 46.6151 23.689 46.4374 23.6663V25.8142C46.6173 25.8558 47.2437 25.8796 47.4385 25.8796C50.0658 25.8796 51.3026 24.8462 52.3834 21.7102L57.1143 8.02079H54.3764L51.2024 18.5992H51.1455L47.9737 8.02079H45.1562ZM41.5972 15.1643L41.5881 16.1966C41.5881 17.8479 40.2215 19.0242 38.4118 19.0242C36.9893 19.0242 36.0851 18.3242 36.0851 17.2502C36.0851 16.1418 36.9575 15.4965 38.6236 15.3941L41.5972 15.1643Z" fill="black"/>
</svg>
