<svg width="60" height="86" viewBox="0 0 60 86" fill="none" xmlns="http://www.w3.org/2000/svg">
<path d="M51.7 0H7.83333C3.50933 0.00465833 0.00509167 3.21067 0 7.16667V78.8333C0.00509167 82.7893 3.50933 85.9953 7.83333 86H51.7C56.024 85.9953 59.5282 82.7893 59.5333 78.8333V7.16667C59.5282 3.21067 56.024 0.00465833 51.7 0ZM56.4 78.8333C56.4 81.2082 54.2958 83.1333 51.7 83.1333H7.83333C5.23756 83.1333 3.13333 81.2082 3.13333 78.8333V71.6667H56.4V78.8333ZM56.4 68.8H3.13333V11.4667H56.4V68.8ZM56.4 8.6H3.13333V7.16667C3.13333 4.79181 5.23756 2.86667 7.83333 2.86667H51.7C54.2958 2.86667 56.4 4.79181 56.4 7.16667V8.6Z" fill="#FCBF24"/>
<path d="M20.3666 50.1667H17.2333C17.2439 55.94 21.9398 60.8078 28.2 61.5345V64.5001H31.3333V61.5345C38.1955 60.748 43.0616 55.0207 42.2019 48.7425C41.49 43.5444 37.015 39.4502 31.3333 38.799V21.6291C35.8504 22.3312 39.1582 25.9081 39.1666 30.1001H42.3C42.2894 24.3268 37.5935 19.459 31.3333 18.7323V15.7667H28.2V18.7323C21.3378 19.5188 16.4717 25.2461 17.3314 31.5243C18.0433 36.7224 22.5183 40.8166 28.2 41.4678V58.6377C23.6829 57.9356 20.3751 54.3587 20.3666 50.1667ZM31.3333 41.6957C35.8504 42.3979 39.1582 45.9748 39.1666 50.1667C39.1582 54.3587 35.8504 57.9356 31.3333 58.6377V41.6957ZM20.4982 28.6753C21.1619 25.0649 24.2537 22.2363 28.2 21.6291V38.5711C23.0864 37.7842 19.6381 33.3537 20.4982 28.6753Z" fill="#FCBF24"/>
</svg>
