<svg width="45" height="62" viewBox="0 0 45 62" fill="none" xmlns="http://www.w3.org/2000/svg">
<path d="M38.9619 0H6.69483C3.51422 0.00335833 0.936607 2.31467 0.932861 5.16667V56.8333C0.936607 59.6853 3.51422 61.9966 6.69483 62H38.9619C42.1425 61.9966 44.7201 59.6853 44.7238 56.8333V5.16667C44.7201 2.31467 42.1425 0.00335833 38.9619 0ZM42.419 56.8333C42.419 58.5454 40.8712 59.9333 38.9619 59.9333H6.69483C4.78546 59.9333 3.23765 58.5454 3.23765 56.8333V51.6667H42.419V56.8333ZM42.419 49.6H3.23765V8.26667H42.419V49.6ZM42.419 6.2H3.23765V5.16667C3.23765 3.45456 4.78546 2.06667 6.69483 2.06667H38.9619C40.8712 2.06667 42.419 3.45456 42.419 5.16667V6.2Z" fill="#FCCC53"/>
<path d="M15.9139 36.1668H13.6091C13.6169 40.3289 17.0711 43.8382 21.6759 44.3621V46.5001H23.9807V44.3621C29.0283 43.7951 32.6076 39.6661 31.9753 35.14C31.4516 31.3925 28.16 28.4409 23.9807 27.9714V15.5931C27.3033 16.0993 29.7365 18.678 29.7427 21.7001H32.0474C32.0397 17.538 28.5855 14.0286 23.9807 13.5047V11.3668H21.6759V13.5047C16.6283 14.0718 13.0489 18.2007 13.6813 22.7268C14.2049 26.4744 17.4966 29.4259 21.6759 29.8955V42.2738C18.3533 41.7676 15.9201 39.1889 15.9139 36.1668ZM23.9807 30.0598C27.3033 30.566 29.7365 33.1447 29.7427 36.1668C29.7365 39.1889 27.3033 41.7676 23.9807 42.2738V30.0598ZM16.0107 20.673C16.4989 18.0701 18.7732 16.0308 21.6759 15.5931V27.8071C17.9145 27.2398 15.3781 24.0458 16.0107 20.673Z" fill="#FCCC53"/>
</svg>
