<svg width="115" height="25" viewBox="0 0 115 25" fill="none" xmlns="http://www.w3.org/2000/svg">
<path d="M88.3712 2.53662H82.2015C81.8386 2.53662 81.4757 2.91416 81.2942 3.29171L78.7538 19.9036C78.7538 20.2811 78.9352 20.4699 79.2982 20.4699H82.5644C82.9274 20.4699 83.1088 20.2811 83.1088 19.9036L83.8347 15.1843C83.8347 14.8068 84.1976 14.4292 84.742 14.4292H86.738C90.9116 14.4292 93.2706 12.3527 93.815 8.19977C94.1779 6.50082 93.815 4.99065 93.0891 4.04679C92.0004 3.10293 90.3672 2.53662 88.3712 2.53662V2.53662ZM89.097 8.76608C88.7341 11.0313 87.101 11.0313 85.4678 11.0313H84.3791L85.1049 6.68959C85.1049 6.50082 85.2864 6.31205 85.6493 6.31205H86.0122C87.101 6.31205 88.1897 6.31205 88.7341 7.06714C89.097 7.25591 89.097 7.82222 89.097 8.76608" fill="#139AD6"/>
<path d="M43.9134 2.53662H37.7438C37.3808 2.53662 37.0179 2.91416 36.8365 3.29171L34.296 19.9036C34.296 20.2811 34.4775 20.4699 34.8404 20.4699H37.7438C38.1067 20.4699 38.4696 20.0924 38.6511 19.7148L39.3769 15.1843C39.3769 14.8068 39.7398 14.4292 40.2842 14.4292H42.2803C46.4539 14.4292 48.8128 12.3527 49.3572 8.19977C49.7202 6.50082 49.3572 4.99065 48.6314 4.04679C47.5426 3.10293 46.0909 2.53662 43.9134 2.53662V2.53662ZM44.6393 8.76608C44.2763 11.0313 42.6432 11.0313 41.0101 11.0313H40.1028L40.8286 6.68959C40.8286 6.50082 41.0101 6.31205 41.373 6.31205H41.7359C42.8247 6.31205 43.9134 6.31205 44.4578 7.06714C44.6393 7.25591 44.8207 7.82222 44.6393 8.76608Z" fill="#263B80"/>
<path d="M62.6038 8.57725H59.7005C59.519 8.57725 59.1561 8.76602 59.1561 8.95479L58.9746 9.89865L58.7932 9.52111C58.0673 8.57725 56.7971 8.19971 55.3454 8.19971C52.0791 8.19971 49.1758 10.8425 48.6314 14.4292C48.2685 16.3169 48.8128 18.0158 49.7201 19.1485C50.6274 20.2811 51.8977 20.6586 53.5308 20.6586C56.2527 20.6586 57.7044 18.9597 57.7044 18.9597L57.5229 19.9036C57.5229 20.2811 57.7044 20.4699 58.0673 20.4699H60.7892C61.1521 20.4699 61.5151 20.0923 61.6965 19.7148L63.3297 9.14357C63.1482 8.95479 62.7853 8.57725 62.6038 8.57725V8.57725ZM58.4302 14.6179C58.0673 16.3169 56.7971 17.6383 54.9825 17.6383C54.0752 17.6383 53.3494 17.2608 52.9864 16.8832C52.6235 16.3169 52.442 15.5618 52.442 14.6179C52.6235 12.919 54.0752 11.5976 55.7083 11.5976C56.6156 11.5976 57.16 11.9751 57.7044 12.3527C58.2488 12.919 58.4302 13.8629 58.4302 14.6179Z" fill="#263B80"/>
<path d="M106.88 8.57725H103.977C103.795 8.57725 103.432 8.76602 103.432 8.95479L103.251 9.89865L103.069 9.52111C102.344 8.57725 101.073 8.19971 99.6217 8.19971C96.3554 8.19971 93.452 10.8425 92.9076 14.4292C92.5447 16.3169 93.0891 18.0158 93.9964 19.1485C94.9037 20.2811 96.1739 20.6586 97.8071 20.6586C100.529 20.6586 101.981 18.9597 101.981 18.9597L101.799 19.9036C101.799 20.2811 101.981 20.4699 102.344 20.4699H105.065C105.428 20.4699 105.791 20.0923 105.973 19.7148L107.606 9.14357C107.424 8.95479 107.243 8.57725 106.88 8.57725V8.57725ZM102.706 14.6179C102.344 16.3169 101.073 17.6383 99.2587 17.6383C98.3514 17.6383 97.6256 17.2608 97.2627 16.8832C96.8997 16.3169 96.7183 15.5618 96.7183 14.6179C96.8998 12.919 98.3514 11.5976 99.9846 11.5976C100.892 11.5976 101.436 11.9751 101.981 12.3527C102.706 12.919 102.888 13.8629 102.706 14.6179Z" fill="#139AD6"/>
<path d="M78.3909 8.57703H75.3061C74.9432 8.57703 74.7617 8.7658 74.5802 8.95457L70.5881 15.3728L68.7735 9.33211C68.592 8.95457 68.4106 8.7658 67.8662 8.7658H64.9628C64.5999 8.7658 64.4185 9.14334 64.4185 9.52088L67.6847 19.5257L64.5999 24.0562C64.4185 24.4338 64.5999 25.0001 64.9628 25.0001H67.8662C68.2291 25.0001 68.4106 24.8113 68.592 24.6225L78.5724 9.70965C79.1167 9.14334 78.7538 8.57703 78.3909 8.57703" fill="#263B80"/>
<path d="M110.328 3.1026L107.787 20.0921C107.787 20.4697 107.969 20.6585 108.332 20.6585H110.872C111.235 20.6585 111.598 20.2809 111.78 19.9034L114.32 3.29138C114.32 2.91383 114.139 2.72506 113.776 2.72506H110.872C110.691 2.53628 110.509 2.72506 110.328 3.1026" fill="#139AD6"/>
<path d="M17.1482 1.86411C16.1044 0.621372 14.1659 0 11.4819 0H4.02611C3.57876 0 3.13142 0.466029 2.9823 0.932057L0 21.282C0 21.748 0.29823 22.0587 0.59646 22.0587H5.21903L6.41195 14.4469V14.7576C6.56106 14.2915 7.00841 13.8255 7.45575 13.8255H9.69248C14.0168 13.8255 17.2974 11.9614 18.3412 6.83508V6.36905C18.192 6.36905 18.192 6.36905 18.3412 6.36905C18.4903 4.3496 18.192 3.10686 17.1482 1.86411" fill="#263B80"/>
<path d="M18.027 6.51965V6.98079C16.9927 12.2071 13.7419 13.8979 9.4568 13.8979H7.24036C6.79707 13.8979 6.35378 14.3591 6.20602 14.8202L4.72839 24.1967C4.72839 24.5042 4.87616 24.8116 5.31944 24.8116H9.16128C9.60457 24.8116 10.0479 24.5042 10.0479 24.043V23.8893L10.7867 19.1242V18.8168C10.7867 18.3556 11.23 18.0482 11.6732 18.0482H12.2643C15.9584 18.0482 18.9136 16.5111 19.6524 11.8996C19.948 10.0551 19.8002 8.36422 18.9136 7.28822C18.7659 6.98079 18.4703 6.67337 18.027 6.51965" fill="#139AD6"/>
<path d="M16.9928 6.05782C16.845 6.05782 16.6973 5.90411 16.5495 5.90411C16.4018 5.90411 16.254 5.90411 16.1062 5.7504C15.5152 5.59668 14.9241 5.59668 14.1853 5.59668H8.42256C8.2748 5.59668 8.12704 5.59668 7.97927 5.7504C7.68375 5.90411 7.53598 6.21154 7.53598 6.51897L6.35388 14.5121V14.8196C6.50164 14.3584 6.94493 13.8973 7.38822 13.8973H9.60467C13.8898 13.8973 17.1406 12.0527 18.1749 6.98011C18.1749 6.8264 18.1749 6.67268 18.3227 6.51897C18.0272 6.36526 17.8794 6.21154 17.5839 6.21154C17.1406 6.05782 17.1406 6.05782 16.9928 6.05782" fill="#232C65"/>
</svg>
