<svg width="243" height="52" viewBox="0 0 243 52" fill="none" xmlns="http://www.w3.org/2000/svg">
<path d="M187.541 5.90967H174.448C173.678 5.90967 172.908 6.68014 172.523 7.45062L167.131 41.3516C167.131 42.1221 167.516 42.5073 168.287 42.5073H175.218C175.989 42.5073 176.374 42.1221 176.374 41.3516L177.914 31.7206C177.914 30.9502 178.684 30.1797 179.839 30.1797H184.076C192.933 30.1797 197.939 25.9421 199.094 17.4668C199.864 13.9997 199.094 10.9178 197.554 8.99157C195.243 7.06538 191.777 5.90967 187.541 5.90967ZM189.082 18.6225C188.312 23.2454 184.846 23.2454 181.38 23.2454H179.069L180.61 14.3849C180.61 13.9997 180.995 13.6144 181.765 13.6144H182.535C184.846 13.6144 187.156 13.6144 188.312 15.1554C189.082 15.5406 189.082 16.6963 189.082 18.6225Z" fill="#139AD6"/>
<path d="M93.193 5.90967H80.0998C79.3296 5.90967 78.5594 6.68014 78.1743 7.45062L72.783 41.3516C72.783 42.1221 73.1681 42.5073 73.9382 42.5073H80.0998C80.87 42.5073 81.6401 41.7368 82.0252 40.9664L83.5656 31.7206C83.5656 30.9502 84.3358 30.1797 85.4911 30.1797H89.7271C98.5843 30.1797 103.591 25.9421 104.746 17.4668C105.516 13.9997 104.746 10.9178 103.205 8.99157C100.895 7.06538 97.8141 5.90967 93.193 5.90967ZM94.7334 18.6225C93.9632 23.2454 90.4973 23.2454 87.0315 23.2454H85.106L86.6464 14.3849C86.6464 13.9997 87.0315 13.6144 87.8017 13.6144H88.5719C90.8824 13.6144 93.193 13.6144 94.3483 15.1554C94.7334 15.5406 95.1185 16.6963 94.7334 18.6225Z" fill="#263B80"/>
<path d="M132.858 18.2373H126.696C126.311 18.2373 125.541 18.6225 125.541 19.0078L125.156 20.9339L124.771 20.1635C123.23 18.2373 120.535 17.4668 117.454 17.4668C110.522 17.4668 104.361 22.8601 103.206 30.1797C102.435 34.0321 103.591 37.4992 105.516 39.8107C107.442 42.1221 110.137 42.8926 113.603 42.8926C119.38 42.8926 122.46 39.4254 122.46 39.4254L122.075 41.3516C122.075 42.1221 122.46 42.5073 123.23 42.5073H129.007C129.777 42.5073 130.547 41.7369 130.932 40.9664L134.398 19.393C134.013 19.0078 133.243 18.2373 132.858 18.2373ZM124.001 30.5649C123.23 34.0321 120.535 36.7288 116.684 36.7288C114.758 36.7288 113.218 35.9583 112.448 35.1878C111.678 34.0321 111.293 32.4911 111.293 30.5649C111.678 27.0978 114.758 24.4011 118.224 24.4011C120.15 24.4011 121.305 25.1716 122.46 25.9421C123.616 27.0978 124.001 29.024 124.001 30.5649Z" fill="#263B80"/>
<path d="M226.821 18.2373H220.659C220.274 18.2373 219.504 18.6225 219.504 19.0078L219.119 20.9339L218.734 20.1635C217.194 18.2373 214.498 17.4668 211.417 17.4668C204.485 17.4668 198.324 22.8601 197.169 30.1797C196.398 34.0321 197.554 37.4992 199.479 39.8107C201.405 42.1221 204.1 42.8926 207.566 42.8926C213.343 42.8926 216.423 39.4254 216.423 39.4254L216.038 41.3516C216.038 42.1221 216.423 42.5073 217.194 42.5073H222.97C223.74 42.5073 224.51 41.7369 224.896 40.9664L228.361 19.393C227.976 19.0078 227.591 18.2373 226.821 18.2373ZM217.964 30.5649C217.194 34.0321 214.498 36.7288 210.647 36.7288C208.722 36.7288 207.181 35.9583 206.411 35.1878C205.641 34.0321 205.256 32.4911 205.256 30.5649C205.641 27.0978 208.722 24.4011 212.187 24.4011C214.113 24.4011 215.268 25.1716 216.423 25.9421C217.964 27.0978 218.349 29.024 217.964 30.5649Z" fill="#139AD6"/>
<path d="M166.361 18.2363H159.814C159.044 18.2363 158.659 18.6216 158.274 19.0068L149.802 32.1049L145.951 19.7773C145.566 19.0068 145.181 18.6216 144.026 18.6216H137.864C137.094 18.6216 136.709 19.392 136.709 20.1625L143.641 40.5801L137.094 49.8258C136.709 50.5962 137.094 51.752 137.864 51.752H144.026C144.796 51.752 145.181 51.3667 145.566 50.9815L166.746 20.5478C167.901 19.392 167.131 18.2363 166.361 18.2363Z" fill="#263B80"/>
<path d="M234.138 7.06468L228.747 41.7364C228.747 42.5069 229.132 42.8921 229.902 42.8921H235.293C236.063 42.8921 236.834 42.1216 237.219 41.3511L242.61 7.44993C242.61 6.67944 242.225 6.2942 241.455 6.2942H235.293C234.908 5.90896 234.523 6.2942 234.138 7.06468Z" fill="#139AD6"/>
<path d="M36.392 4.53713C34.1768 2.00099 30.0629 0.73291 24.3668 0.73291H8.5442C7.59485 0.73291 6.64549 1.68397 6.32904 2.63502L0 44.1644C0 45.1155 0.632904 45.7495 1.26581 45.7495H11.0758L13.6074 30.2156V30.8496C13.9239 29.8986 14.8732 28.9475 15.8226 28.9475H20.5694C29.7465 28.9475 36.7084 25.1433 38.9236 14.6817V13.7307C38.6071 13.7307 38.6071 13.7307 38.9236 13.7307C39.24 9.60942 38.6071 7.07328 36.392 4.53713Z" fill="#263B80"/>
<path d="M38.2571 14.0376V14.9787C36.062 25.6443 29.1632 29.0949 20.0693 29.0949H15.3656C14.4248 29.0949 13.4841 30.036 13.1705 30.9771L10.0347 50.1124C10.0347 50.7398 10.3482 51.3672 11.289 51.3672H19.4421C20.3829 51.3672 21.3236 50.7398 21.3236 49.7987V49.485L22.8915 39.7605V39.1331C22.8915 38.192 23.8323 37.5646 24.773 37.5646H26.0274C33.8669 37.5646 40.1386 34.4277 41.7065 25.0169C42.3336 21.2526 42.0201 17.8019 40.1386 15.6061C39.825 14.9787 39.1978 14.3513 38.2571 14.0376Z" fill="#139AD6"/>
<path d="M36.0619 13.0959C35.7484 13.0959 35.4348 12.7822 35.1212 12.7822C34.8076 12.7822 34.494 12.7822 34.1804 12.4685C32.9261 12.1548 31.6718 12.1548 30.1039 12.1548H17.8742C17.5606 12.1548 17.247 12.1548 16.9334 12.4685C16.3063 12.7822 15.9927 13.4096 15.9927 14.037L13.484 30.3492V30.9766C13.7976 30.0355 14.7383 29.0944 15.6791 29.0944H20.3828C29.4767 29.0944 36.3755 25.33 38.5706 14.9781C38.5706 14.6644 38.5706 14.3507 38.8842 14.037C38.257 13.7233 37.9434 13.4096 37.3163 13.4096C36.3755 13.0959 36.3755 13.0959 36.0619 13.0959Z" fill="#232C65"/>
</svg>
