<svg width="647" height="442" viewBox="0 0 647 442" fill="none" xmlns="http://www.w3.org/2000/svg">
<path d="M463.811 9.03162C360.473 -11.3671 276.005 6.58377 250.451 60.0692C224.841 113.718 245.902 168.386 153.122 190.458C77.0786 208.041 -12.1631 239.047 1.37197 325.905C14.2331 408.316 84.0427 423.492 173.453 426.838C268.592 430.428 370.582 372.169 459.15 400.605C541.371 427.001 634.151 432.876 646.339 356.585C653.471 311.912 600.791 296.98 590.794 262.18C576.922 213.957 604.666 195.884 613.034 163.654C633.758 83.5685 562.882 31.7558 463.811 9.03162Z" fill="white" fill-opacity="0.79"/>
<path d="M305.758 442H154.359C137.59 442 124 428.401 124 411.622V56.311C124 39.452 137.59 25.8535 154.359 25.8535H305.758C322.527 25.8535 336.117 39.452 336.117 56.2315V411.622C336.117 428.401 322.527 442 305.758 442Z" fill="#FAFAFA"/>
<path d="M305.758 33.6468C318.235 33.6468 328.408 43.8258 328.408 56.311V411.622C328.408 424.107 318.235 434.286 305.758 434.286H154.359C141.882 434.286 131.709 424.107 131.709 411.622V56.311C131.709 43.8258 141.882 33.6468 154.359 33.6468H305.758ZM305.758 25.8535H154.359C137.59 25.8535 124 39.452 124 56.311V411.622C124 428.401 137.59 442 154.359 442H305.758C322.527 442 336.117 428.401 336.117 411.622V56.311C336.117 39.452 322.527 25.8535 305.758 25.8535Z" fill="#FCBF24"/>
<path d="M268.564 46.7682H191.553C186.705 46.7682 182.732 42.792 182.732 37.9411V26.8873H277.465V37.9411C277.465 42.792 273.491 46.7682 268.564 46.7682Z" fill="#FCBF24"/>
</svg>
