<svg width="463" height="323" viewBox="0 0 463 323" fill="none" xmlns="http://www.w3.org/2000/svg">
<path d="M326.173 5.74732C253.501 -8.56477 194.099 4.02987 176.129 41.5562C158.119 79.197 172.93 117.553 107.683 133.039C54.2052 145.376 -8.55366 167.13 0.964835 228.071C10.0094 285.892 59.1027 296.54 121.98 298.888C188.886 301.407 260.61 260.531 322.895 280.482C380.717 299.002 445.964 303.124 454.535 249.597C459.551 218.253 422.504 207.777 415.473 183.36C405.718 149.527 425.229 136.846 431.114 114.233C445.688 58.0437 395.844 21.691 326.173 5.74732Z" fill="white" fill-opacity="0.79"/>
<path d="M215.43 323H108.946C97.1517 323 87.5933 313.436 87.5933 301.634V51.7315C87.5933 39.8739 97.1517 30.3096 108.946 30.3096H215.43C227.224 30.3096 236.783 39.8739 236.783 51.6755V301.634C236.783 313.436 227.224 323 215.43 323Z" fill="#FAFAFA"/>
<path d="M215.43 35.7909C224.206 35.7909 231.361 42.9502 231.361 51.7315V301.634C231.361 310.415 224.206 317.575 215.43 317.575H108.946C100.17 317.575 93.0153 310.415 93.0153 301.634V51.7315C93.0153 42.9502 100.17 35.7909 108.946 35.7909H215.43ZM215.43 30.3096H108.946C97.1517 30.3096 87.5933 39.8739 87.5933 51.7315V301.634C87.5933 313.436 97.1517 323 108.946 323H215.43C227.224 323 236.783 313.436 236.783 301.634V51.7315C236.783 39.8739 227.224 30.3096 215.43 30.3096Z" fill="#4B576E"/>
<path d="M189.27 45.0197H135.106C131.696 45.0197 128.901 42.2231 128.901 38.8112V31.0367H195.53V38.8112C195.53 42.2231 192.736 45.0197 189.27 45.0197Z" fill="#4B576E"/>
<g filter="url(#filter0_d)">
<path d="M229.796 115.326H227.895V92.7293H229.851C230.969 92.7293 231.864 93.6242 231.864 94.7429V113.312C231.808 114.431 230.913 115.326 229.796 115.326Z" fill="white"/>
<path d="M229.796 143.515H227.895V120.919H229.851C230.969 120.919 231.864 121.814 231.864 122.932V141.502C231.808 142.62 230.913 143.515 229.796 143.515Z" fill="white"/>
<path d="M442.148 72.0347V265.111C442.148 275.738 433.484 284.407 422.864 284.407H250.757" stroke="white" stroke-width="1.5" stroke-miterlimit="10" stroke-linecap="round" stroke-linejoin="round"/>
<path d="M108.946 94.2394V265.111C108.946 271.934 114.48 277.472 121.299 277.472H422.64C429.46 277.472 434.993 271.934 434.993 265.111V94.2394H108.946Z" fill="#FDFDFD" stroke="#CFCFCF" stroke-miterlimit="10"/>
<path d="M435.497 107.719V82.0464C435.497 76.0617 430.634 71.2516 424.653 71.2516H119.119C113.138 71.2516 108.275 76.1176 108.275 82.0464V107.719H435.497Z" fill="#CFCFCF"/>
<path d="M247.123 94.4073V87.9752L243.937 93.2887H243.155L239.969 88.0311V94.4073H238.236V84.6752H239.745L243.602 91.1074L247.403 84.6752H248.912V94.4073H247.123Z" fill="white"/>
<path d="M256.067 93.904C255.285 93.4565 254.67 92.8972 254.167 92.1141C253.719 91.3311 253.496 90.4921 253.496 89.5413C253.496 88.5905 253.719 87.7515 254.167 86.9684C254.614 86.1854 255.229 85.6261 256.067 85.1786C256.85 84.7312 257.744 84.5074 258.75 84.5074C259.756 84.5074 260.651 84.7312 261.433 85.1786C262.216 85.6261 262.831 86.1854 263.334 86.9684C263.781 87.7515 264.005 88.5905 264.005 89.5413C264.005 90.4921 263.781 91.3311 263.334 92.1141C262.887 92.8972 262.272 93.4565 261.433 93.904C260.651 94.3514 259.756 94.5751 258.75 94.5751C257.8 94.5751 256.906 94.3514 256.067 93.904ZM260.539 92.5616C261.042 92.2819 261.489 91.8904 261.769 91.3311C262.048 90.8277 262.216 90.2125 262.216 89.5972C262.216 88.926 262.048 88.3667 261.769 87.8633C261.489 87.36 261.042 86.9125 260.539 86.6328C260.036 86.3532 259.421 86.1854 258.806 86.1854C258.135 86.1854 257.576 86.3532 257.073 86.6328C256.57 86.9125 256.123 87.36 255.844 87.8633C255.564 88.3667 255.396 88.982 255.396 89.5972C255.396 90.2684 255.564 90.8277 255.844 91.3311C256.123 91.8345 256.57 92.2819 257.073 92.5616C257.576 92.8412 258.191 93.009 258.806 93.009C259.421 92.9531 259.98 92.8412 260.539 92.5616Z" fill="white"/>
<path d="M277.364 84.6752V94.4073H275.855L270.488 87.8074V94.4073H268.7V84.6752H270.209L275.575 91.2752V84.6752H277.364Z" fill="white"/>
<path d="M284.686 86.2413H281.444V84.7311H289.717V86.2413H286.475V94.4632H284.686V86.2413Z" fill="white"/>
<path d="M302.518 84.6752V94.4073H300.729V90.2125H295.698V94.4073H293.854V84.6752H295.642V88.7023H300.673V84.6752H302.518Z" fill="white"/>
<path d="M324.709 235.411H301.064C298.884 235.411 297.095 233.621 297.095 231.44V222.211C297.095 220.03 298.884 218.24 301.064 218.24H324.709C326.889 218.24 328.677 220.03 328.677 222.211V231.44C328.733 233.621 326.945 235.411 324.709 235.411Z" fill="#FFE178"/>
<path d="M134.994 145.641C134.603 145.417 134.323 145.081 134.155 144.634C133.932 144.186 133.82 143.627 133.82 143.012C133.82 142.397 133.932 141.837 134.155 141.39C134.379 140.942 134.659 140.607 134.994 140.383C135.385 140.159 135.776 140.047 136.224 140.047C136.671 140.047 137.118 140.159 137.453 140.383C137.845 140.607 138.124 140.942 138.348 141.39C138.571 141.837 138.683 142.397 138.683 143.012C138.683 143.627 138.571 144.186 138.348 144.634C138.124 145.081 137.845 145.417 137.453 145.641C137.062 145.864 136.671 145.976 136.224 145.976C135.776 145.976 135.329 145.864 134.994 145.641ZM137.23 144.522C137.453 144.186 137.565 143.683 137.565 142.956C137.565 142.229 137.453 141.781 137.23 141.39C137.006 141.054 136.671 140.886 136.224 140.886C135.832 140.886 135.497 141.054 135.217 141.39C134.994 141.725 134.882 142.229 134.882 142.956C134.882 143.683 134.994 144.131 135.217 144.522C135.441 144.858 135.776 145.025 136.224 145.025C136.671 145.025 137.006 144.858 137.23 144.522Z" fill="#CFCFCF"/>
<path d="M142.205 140.047V145.864H141.143V140.942H139.913V140.047H142.205Z" fill="#CFCFCF"/>
<path d="M177.42 145.641C177.028 145.417 176.749 145.081 176.525 144.634C176.302 144.186 176.19 143.627 176.19 143.012C176.19 142.397 176.302 141.837 176.525 141.39C176.749 140.942 177.028 140.607 177.42 140.383C177.811 140.159 178.202 140.047 178.649 140.047C179.097 140.047 179.544 140.159 179.879 140.383C180.27 140.607 180.55 140.942 180.773 141.39C180.997 141.837 181.109 142.397 181.109 143.012C181.109 143.627 180.997 144.186 180.773 144.634C180.55 145.081 180.27 145.417 179.879 145.641C179.488 145.864 179.097 145.976 178.649 145.976C178.202 145.976 177.811 145.864 177.42 145.641ZM179.656 144.522C179.879 144.186 179.991 143.683 179.991 142.956C179.991 142.229 179.879 141.781 179.656 141.39C179.432 141.054 179.097 140.886 178.649 140.886C178.258 140.886 177.923 141.054 177.643 141.39C177.42 141.725 177.308 142.229 177.308 142.956C177.308 143.683 177.42 144.131 177.643 144.522C177.867 144.858 178.202 145.025 178.649 145.025C179.097 145.025 179.432 144.858 179.656 144.522Z" fill="#CFCFCF"/>
<path d="M186.866 144.969V145.864H182.562V145.137L184.854 142.956C185.133 142.732 185.301 142.508 185.357 142.285C185.469 142.117 185.469 141.893 185.469 141.725C185.469 141.446 185.357 141.222 185.189 141.11C185.022 140.942 184.742 140.886 184.407 140.886C183.792 140.886 183.345 141.11 183.065 141.502L182.283 140.942C182.506 140.663 182.842 140.383 183.177 140.215C183.568 140.047 184.016 139.936 184.463 139.936C185.078 139.936 185.581 140.103 185.972 140.383C186.363 140.663 186.531 141.11 186.531 141.614C186.531 141.949 186.475 142.229 186.307 142.508C186.196 142.788 185.916 143.124 185.525 143.459L183.96 144.969H186.866Z" fill="#CFCFCF"/>
<path d="M227.615 145.641C227.224 145.417 226.945 145.081 226.721 144.634C226.498 144.186 226.386 143.627 226.386 143.012C226.386 142.397 226.498 141.837 226.721 141.39C226.945 140.942 227.224 140.607 227.615 140.383C228.007 140.159 228.398 140.047 228.845 140.047C229.292 140.047 229.74 140.159 230.075 140.383C230.466 140.607 230.746 140.942 230.969 141.39C231.193 141.837 231.305 142.397 231.305 143.012C231.305 143.627 231.193 144.186 230.969 144.634C230.746 145.081 230.466 145.417 230.075 145.641C229.684 145.864 229.292 145.976 228.845 145.976C228.398 145.976 228.007 145.864 227.615 145.641ZM229.851 144.522C230.075 144.186 230.187 143.683 230.187 142.956C230.187 142.229 230.075 141.781 229.851 141.39C229.628 141.054 229.292 140.886 228.845 140.886C228.454 140.886 228.119 141.054 227.839 141.39C227.615 141.725 227.504 142.229 227.504 142.956C227.504 143.683 227.615 144.131 227.839 144.522C228.063 144.858 228.398 145.025 228.845 145.025C229.292 145.025 229.628 144.858 229.851 144.522Z" fill="#CFCFCF"/>
<path d="M236.503 143.012C236.783 143.292 236.95 143.683 236.95 144.131C236.95 144.466 236.838 144.802 236.671 145.081C236.503 145.361 236.224 145.585 235.888 145.753C235.553 145.92 235.106 145.976 234.603 145.976C234.211 145.976 233.764 145.92 233.373 145.808C232.982 145.697 232.646 145.529 232.367 145.305L232.814 144.466C233.037 144.634 233.261 144.802 233.596 144.914C233.876 145.025 234.211 145.081 234.547 145.081C234.938 145.081 235.217 145.025 235.441 144.858C235.665 144.69 235.776 144.466 235.776 144.186C235.776 143.907 235.665 143.683 235.441 143.571C235.217 143.403 234.938 143.347 234.491 143.347H233.932V142.62L235.273 141.054H232.646V140.159H236.615V140.886L235.217 142.564C235.832 142.509 236.224 142.732 236.503 143.012Z" fill="#CFCFCF"/>
<path d="M263.893 145.641C263.501 145.417 263.222 145.081 263.054 144.634C262.831 144.186 262.719 143.627 262.719 143.012C262.719 142.397 262.831 141.837 263.054 141.39C263.278 140.942 263.557 140.607 263.893 140.383C264.284 140.159 264.675 140.047 265.122 140.047C265.57 140.047 266.017 140.159 266.352 140.383C266.743 140.607 267.023 140.942 267.246 141.39C267.47 141.837 267.582 142.397 267.582 143.012C267.582 143.627 267.47 144.186 267.246 144.634C267.023 145.081 266.743 145.417 266.352 145.641C265.961 145.864 265.57 145.976 265.122 145.976C264.675 145.976 264.228 145.864 263.893 145.641ZM266.128 144.522C266.352 144.186 266.464 143.683 266.464 142.956C266.464 142.229 266.352 141.781 266.128 141.39C265.905 141.054 265.57 140.886 265.122 140.886C264.731 140.886 264.396 141.054 264.116 141.39C263.893 141.725 263.781 142.229 263.781 142.956C263.781 143.683 263.893 144.131 264.116 144.522C264.34 144.858 264.675 145.025 265.122 145.025C265.57 145.025 265.905 144.858 266.128 144.522Z" fill="#CFCFCF"/>
<path d="M274.345 144.578H273.339V145.92H272.277V144.578H269.091V143.851L271.942 140.103H273.116L270.433 143.683H272.333V142.509H273.339V143.683H274.345V144.578Z" fill="#CFCFCF"/>
<path d="M308.051 145.641C307.66 145.417 307.381 145.081 307.213 144.634C306.989 144.186 306.877 143.627 306.877 143.012C306.877 142.397 306.989 141.837 307.213 141.39C307.436 140.942 307.716 140.607 308.051 140.383C308.443 140.159 308.834 140.047 309.281 140.047C309.728 140.047 310.175 140.159 310.511 140.383C310.902 140.607 311.182 140.942 311.405 141.39C311.629 141.837 311.741 142.397 311.741 143.012C311.741 143.627 311.629 144.186 311.405 144.634C311.182 145.081 310.902 145.417 310.511 145.641C310.119 145.864 309.728 145.976 309.281 145.976C308.834 145.976 308.443 145.864 308.051 145.641ZM310.287 144.522C310.511 144.186 310.623 143.683 310.623 142.956C310.623 142.229 310.511 141.781 310.287 141.39C310.064 141.054 309.728 140.886 309.281 140.886C308.89 140.886 308.554 141.054 308.275 141.39C308.051 141.725 307.94 142.229 307.94 142.956C307.94 143.683 308.051 144.131 308.275 144.522C308.498 144.858 308.834 145.025 309.281 145.025C309.728 145.025 310.064 144.858 310.287 144.522Z" fill="#CFCFCF"/>
<path d="M316.995 142.788C317.386 143.124 317.61 143.515 317.61 144.075C317.61 144.41 317.498 144.746 317.33 145.025C317.162 145.305 316.883 145.529 316.548 145.697C316.212 145.864 315.765 145.92 315.262 145.92C314.871 145.92 314.424 145.864 314.032 145.753C313.641 145.641 313.306 145.473 313.026 145.249L313.473 144.41C313.697 144.578 313.976 144.746 314.256 144.858C314.535 144.969 314.871 145.025 315.206 145.025C315.597 145.025 315.877 144.969 316.1 144.802C316.324 144.634 316.436 144.41 316.436 144.13C316.436 143.851 316.324 143.627 316.1 143.459C315.877 143.292 315.486 143.236 314.871 143.236H313.473L313.753 140.047H317.162V140.942H314.647L314.535 142.285H315.094C315.989 142.285 316.604 142.453 316.995 142.788Z" fill="#CFCFCF"/>
<path d="M358.415 145.641C358.023 145.417 357.744 145.081 357.52 144.634C357.297 144.186 357.185 143.627 357.185 143.012C357.185 142.397 357.297 141.837 357.52 141.39C357.744 140.942 358.023 140.607 358.415 140.383C358.806 140.159 359.197 140.047 359.644 140.047C360.091 140.047 360.539 140.159 360.874 140.383C361.265 140.607 361.545 140.942 361.768 141.39C361.992 141.837 362.104 142.397 362.104 143.012C362.104 143.627 361.992 144.186 361.768 144.634C361.545 145.081 361.265 145.417 360.874 145.641C360.483 145.864 360.091 145.976 359.644 145.976C359.197 145.976 358.806 145.864 358.415 145.641ZM360.65 144.522C360.874 144.186 360.986 143.683 360.986 142.956C360.986 142.229 360.874 141.781 360.65 141.39C360.427 141.054 360.091 140.886 359.644 140.886C359.253 140.886 358.918 141.054 358.638 141.39C358.415 141.725 358.303 142.229 358.303 142.956C358.303 143.683 358.415 144.131 358.638 144.522C358.862 144.858 359.197 145.025 359.644 145.025C360.091 145.025 360.427 144.858 360.65 144.522Z" fill="#CFCFCF"/>
<path d="M367.358 142.508C367.638 142.676 367.917 142.844 368.085 143.124C368.253 143.403 368.364 143.683 368.364 144.075C368.364 144.466 368.253 144.802 368.085 145.081C367.917 145.361 367.638 145.585 367.302 145.753C366.967 145.92 366.632 145.976 366.24 145.976C365.458 145.976 364.843 145.753 364.396 145.249C363.948 144.746 363.725 144.019 363.725 143.124C363.725 142.453 363.837 141.893 364.06 141.446C364.284 140.998 364.619 140.607 365.066 140.383C365.514 140.159 366.017 140.047 366.576 140.047C366.855 140.047 367.135 140.103 367.414 140.159C367.694 140.215 367.917 140.327 368.085 140.439L367.694 141.278C367.414 141.11 367.023 140.998 366.576 140.998C366.017 140.998 365.569 141.166 365.234 141.502C364.899 141.837 364.787 142.341 364.787 143.012C364.955 142.788 365.178 142.676 365.458 142.564C365.737 142.453 366.017 142.397 366.352 142.397C366.743 142.285 367.079 142.341 367.358 142.508ZM366.967 144.858C367.19 144.69 367.302 144.41 367.302 144.13C367.302 143.851 367.19 143.571 366.967 143.403C366.743 143.236 366.464 143.124 366.128 143.124C365.793 143.124 365.514 143.236 365.29 143.403C365.066 143.571 364.955 143.851 364.955 144.13C364.955 144.41 365.066 144.634 365.29 144.858C365.514 145.025 365.793 145.137 366.184 145.137C366.464 145.137 366.743 145.025 366.967 144.858Z" fill="#CFCFCF"/>
<path d="M401.846 145.641C401.455 145.417 401.176 145.081 400.952 144.634C400.728 144.186 400.617 143.627 400.617 143.012C400.617 142.397 400.728 141.837 400.952 141.39C401.176 140.942 401.455 140.607 401.846 140.383C402.238 140.159 402.629 140.047 403.076 140.047C403.523 140.047 403.971 140.159 404.306 140.383C404.697 140.607 404.977 140.942 405.2 141.39C405.424 141.837 405.536 142.397 405.536 143.012C405.536 143.627 405.424 144.186 405.2 144.634C404.977 145.081 404.697 145.417 404.306 145.641C403.915 145.864 403.523 145.976 403.076 145.976C402.629 145.976 402.182 145.864 401.846 145.641ZM404.082 144.522C404.306 144.186 404.418 143.683 404.418 142.956C404.418 142.229 404.306 141.781 404.082 141.39C403.859 141.054 403.523 140.886 403.076 140.886C402.685 140.886 402.35 141.054 402.07 141.39C401.846 141.725 401.735 142.229 401.735 142.956C401.735 143.683 401.846 144.131 402.07 144.522C402.294 144.858 402.629 145.025 403.076 145.025C403.523 145.025 403.859 144.858 404.082 144.522Z" fill="#CFCFCF"/>
<path d="M411.461 140.047V140.775L409.169 145.864H407.995L410.175 140.942H407.883V141.949H406.877V140.047H411.461Z" fill="#CFCFCF"/>
<path d="M134.994 173.439C134.603 173.215 134.323 172.879 134.155 172.432C133.932 171.985 133.82 171.425 133.82 170.81C133.82 170.195 133.932 169.635 134.155 169.188C134.379 168.74 134.659 168.405 134.994 168.181C135.385 167.957 135.776 167.846 136.224 167.846C136.671 167.846 137.118 167.957 137.453 168.181C137.845 168.405 138.124 168.74 138.348 169.188C138.571 169.635 138.683 170.195 138.683 170.81C138.683 171.425 138.571 171.985 138.348 172.432C138.124 172.879 137.845 173.215 137.453 173.439C137.062 173.662 136.671 173.774 136.224 173.774C135.776 173.774 135.329 173.662 134.994 173.439ZM137.23 172.32C137.453 171.985 137.565 171.481 137.565 170.754C137.565 170.083 137.453 169.579 137.23 169.188C137.006 168.852 136.671 168.685 136.224 168.685C135.832 168.685 135.497 168.852 135.217 169.188C134.994 169.524 134.882 170.027 134.882 170.754C134.882 171.425 134.994 171.929 135.217 172.32C135.441 172.656 135.776 172.823 136.224 172.823C136.671 172.823 137.006 172.656 137.23 172.32Z" fill="#CFCFCF"/>
<path d="M144.72 171.201C144.888 171.425 144.944 171.705 144.944 172.04C144.944 172.376 144.832 172.712 144.664 172.991C144.441 173.271 144.161 173.439 143.826 173.606C143.49 173.774 143.043 173.83 142.596 173.83C142.093 173.83 141.702 173.774 141.366 173.606C141.031 173.439 140.751 173.271 140.528 172.991C140.36 172.712 140.248 172.432 140.248 172.04C140.248 171.705 140.304 171.425 140.472 171.201C140.64 170.978 140.863 170.754 141.143 170.642C140.919 170.53 140.751 170.362 140.584 170.139C140.472 169.915 140.416 169.691 140.416 169.412C140.416 169.076 140.528 168.796 140.695 168.573C140.863 168.349 141.143 168.125 141.478 168.013C141.813 167.901 142.205 167.79 142.596 167.79C143.043 167.79 143.434 167.846 143.714 168.013C143.993 168.181 144.273 168.349 144.496 168.573C144.72 168.796 144.776 169.076 144.776 169.412C144.776 169.691 144.72 169.915 144.608 170.139C144.496 170.362 144.273 170.53 144.049 170.642C144.329 170.754 144.552 170.922 144.72 171.201ZM143.546 172.656C143.77 172.488 143.882 172.264 143.882 171.984C143.882 171.705 143.77 171.481 143.546 171.313C143.323 171.145 142.987 171.09 142.596 171.09C142.205 171.09 141.869 171.145 141.646 171.313C141.422 171.481 141.31 171.705 141.31 171.984C141.31 172.264 141.422 172.488 141.646 172.656C141.869 172.823 142.205 172.879 142.596 172.879C142.987 172.935 143.323 172.823 143.546 172.656ZM141.758 168.852C141.534 169.02 141.478 169.188 141.478 169.468C141.478 169.691 141.59 169.915 141.758 170.083C141.981 170.251 142.205 170.307 142.54 170.307C142.875 170.307 143.155 170.251 143.379 170.083C143.602 169.915 143.658 169.747 143.658 169.468C143.658 169.188 143.546 169.02 143.379 168.852C143.155 168.685 142.931 168.629 142.54 168.629C142.261 168.629 141.981 168.685 141.758 168.852Z" fill="#CFCFCF"/>
<path d="M177.42 173.439C177.028 173.215 176.749 172.879 176.525 172.432C176.302 171.985 176.19 171.425 176.19 170.81C176.19 170.195 176.302 169.635 176.525 169.188C176.749 168.74 177.028 168.405 177.42 168.181C177.811 167.957 178.202 167.846 178.649 167.846C179.097 167.846 179.544 167.957 179.879 168.181C180.27 168.405 180.55 168.74 180.773 169.188C180.997 169.635 181.109 170.195 181.109 170.81C181.109 171.425 180.997 171.985 180.773 172.432C180.55 172.879 180.27 173.215 179.879 173.439C179.488 173.662 179.097 173.774 178.649 173.774C178.202 173.774 177.811 173.662 177.42 173.439ZM179.656 172.32C179.879 171.985 179.991 171.481 179.991 170.754C179.991 170.083 179.879 169.579 179.656 169.188C179.432 168.852 179.097 168.685 178.649 168.685C178.258 168.685 177.923 168.852 177.643 169.188C177.42 169.524 177.308 170.027 177.308 170.754C177.308 171.425 177.42 171.929 177.643 172.32C177.867 172.656 178.202 172.823 178.649 172.823C179.097 172.823 179.432 172.656 179.656 172.32Z" fill="#CFCFCF"/>
<path d="M186.531 168.517C186.978 169.02 187.202 169.747 187.202 170.642C187.202 171.313 187.09 171.873 186.866 172.32C186.643 172.767 186.307 173.159 185.86 173.383C185.413 173.606 184.91 173.718 184.351 173.718C184.071 173.718 183.792 173.662 183.513 173.606C183.233 173.551 183.009 173.439 182.842 173.327L183.233 172.488C183.513 172.656 183.904 172.768 184.351 172.768C184.91 172.768 185.357 172.6 185.692 172.264C186.028 171.929 186.14 171.425 186.14 170.754C185.972 170.978 185.748 171.09 185.469 171.201C185.189 171.313 184.91 171.369 184.575 171.369C184.183 171.369 183.848 171.313 183.568 171.145C183.289 170.978 183.009 170.81 182.842 170.53C182.674 170.251 182.562 169.971 182.562 169.579C182.562 169.188 182.674 168.852 182.842 168.573C183.009 168.293 183.289 168.069 183.624 167.901C183.96 167.734 184.295 167.678 184.686 167.678C185.469 167.79 186.084 168.013 186.531 168.517ZM185.581 170.307C185.804 170.139 185.916 169.859 185.916 169.579C185.916 169.3 185.804 169.076 185.581 168.852C185.357 168.685 185.078 168.573 184.686 168.573C184.351 168.573 184.071 168.685 183.848 168.852C183.624 169.02 183.513 169.3 183.513 169.579C183.513 169.859 183.624 170.139 183.848 170.307C184.071 170.474 184.351 170.586 184.686 170.586C185.078 170.586 185.413 170.53 185.581 170.307Z" fill="#CFCFCF"/>
<path d="M228.454 167.846V173.662H227.392V168.74H226.162V167.846H228.454Z" fill="#CFCFCF"/>
<path d="M231.64 173.439C231.249 173.215 230.969 172.879 230.746 172.432C230.522 171.985 230.41 171.425 230.41 170.81C230.41 170.195 230.522 169.635 230.746 169.188C230.969 168.74 231.249 168.405 231.64 168.181C232.031 167.957 232.423 167.846 232.87 167.846C233.317 167.846 233.764 167.957 234.1 168.181C234.491 168.405 234.77 168.74 234.994 169.188C235.218 169.635 235.329 170.195 235.329 170.81C235.329 171.425 235.218 171.985 234.994 172.432C234.77 172.879 234.491 173.215 234.1 173.439C233.708 173.662 233.317 173.774 232.87 173.774C232.423 173.774 231.976 173.662 231.64 173.439ZM233.876 172.32C234.1 171.985 234.211 171.481 234.211 170.754C234.211 170.083 234.1 169.579 233.876 169.188C233.652 168.852 233.317 168.685 232.87 168.685C232.479 168.685 232.143 168.852 231.864 169.188C231.64 169.524 231.528 170.027 231.528 170.754C231.528 171.425 231.64 171.929 231.864 172.32C232.087 172.656 232.423 172.823 232.87 172.823C233.261 172.823 233.597 172.656 233.876 172.32Z" fill="#CFCFCF"/>
<path d="M264.731 167.846V173.662H263.669V168.74H262.439V167.846H264.731Z" fill="#CFCFCF"/>
<path d="M268.7 167.846V173.662H267.638V168.74H266.408V167.846H268.7Z" fill="#CFCFCF"/>
<path d="M308.89 167.846V173.662H307.828V168.74H306.598V167.846H308.89Z" fill="#CFCFCF"/>
<path d="M315.094 172.767V173.662H310.79V172.935L313.082 170.754C313.361 170.53 313.529 170.306 313.585 170.083C313.697 169.915 313.697 169.691 313.697 169.523C313.697 169.244 313.585 169.02 313.417 168.908C313.25 168.74 312.97 168.684 312.635 168.684C312.02 168.684 311.573 168.908 311.293 169.3L310.511 168.74C310.734 168.461 311.07 168.181 311.405 168.013C311.796 167.846 312.244 167.734 312.691 167.734C313.306 167.734 313.809 167.901 314.2 168.181C314.591 168.461 314.759 168.908 314.759 169.412C314.759 169.747 314.703 170.027 314.535 170.306C314.424 170.586 314.144 170.922 313.753 171.257L312.188 172.767H315.094Z" fill="#CFCFCF"/>
<path d="M359.253 167.846V173.662H358.191V168.74H356.961V167.846H359.253Z" fill="#CFCFCF"/>
<path d="M364.955 170.81C365.234 171.09 365.402 171.481 365.402 171.929C365.402 172.264 365.29 172.6 365.122 172.879C364.955 173.159 364.675 173.383 364.34 173.551C364.004 173.718 363.557 173.774 363.054 173.774C362.663 173.774 362.216 173.718 361.824 173.606C361.433 173.495 361.098 173.327 360.818 173.103L361.265 172.264C361.489 172.432 361.712 172.6 362.048 172.712C362.327 172.823 362.663 172.879 362.998 172.879C363.389 172.879 363.669 172.823 363.892 172.656C364.116 172.488 364.228 172.264 364.228 171.984C364.228 171.705 364.116 171.481 363.892 171.369C363.669 171.257 363.389 171.145 362.942 171.145H362.383V170.418L363.725 168.852H361.098V167.957H365.066V168.685L363.669 170.362C364.284 170.307 364.675 170.53 364.955 170.81Z" fill="#CFCFCF"/>
<path d="M402.685 167.846V173.662H401.623V168.74H400.393V167.846H402.685Z" fill="#CFCFCF"/>
<path d="M409.84 172.376H408.834V173.718H407.772V172.376H404.585V171.649L407.436 167.901H408.61L405.927 171.481H407.827V170.306H408.834V171.481H409.84V172.376Z" fill="#CFCFCF"/>
<path d="M135.832 194.469V200.286H134.77V195.364H133.541V194.469H135.832Z" fill="#CFCFCF"/>
<path d="M141.478 197.21C141.869 197.545 142.093 197.937 142.093 198.496C142.093 198.832 141.981 199.167 141.813 199.447C141.646 199.727 141.366 199.95 141.031 200.118C140.695 200.286 140.248 200.342 139.745 200.342C139.354 200.342 138.907 200.286 138.515 200.174C138.124 200.062 137.789 199.894 137.509 199.671L137.956 198.832C138.18 198.999 138.46 199.167 138.739 199.279C139.018 199.391 139.354 199.447 139.689 199.447C140.081 199.447 140.36 199.391 140.584 199.223C140.807 199.055 140.919 198.832 140.919 198.552C140.919 198.272 140.807 198.049 140.584 197.881C140.36 197.713 139.969 197.657 139.354 197.657H137.956L138.236 194.469H141.646V195.364H139.13L139.018 196.706H139.577C140.472 196.762 141.087 196.93 141.478 197.21Z" fill="#CFCFCF"/>
<path d="M178.258 194.469V200.286H177.196V195.364H175.966V194.469H178.258Z" fill="#CFCFCF"/>
<path d="M183.959 196.93C184.239 197.098 184.518 197.266 184.686 197.545C184.854 197.825 184.966 198.105 184.966 198.496C184.966 198.888 184.854 199.223 184.686 199.503C184.518 199.783 184.239 200.006 183.904 200.174C183.568 200.342 183.233 200.398 182.842 200.398C182.059 200.398 181.444 200.174 180.997 199.671C180.55 199.167 180.326 198.44 180.326 197.545C180.326 196.874 180.438 196.315 180.662 195.867C180.885 195.42 181.221 195.028 181.668 194.805C182.115 194.581 182.618 194.469 183.177 194.469C183.456 194.469 183.736 194.525 184.015 194.581C184.295 194.637 184.518 194.749 184.686 194.861L184.295 195.699C184.015 195.532 183.624 195.42 183.177 195.42C182.618 195.42 182.171 195.588 181.835 195.923C181.5 196.259 181.388 196.762 181.388 197.433C181.556 197.21 181.779 197.098 182.059 196.986C182.338 196.874 182.618 196.818 182.953 196.818C183.289 196.706 183.624 196.818 183.959 196.93ZM183.568 199.279C183.792 199.111 183.904 198.832 183.904 198.552C183.904 198.272 183.792 197.993 183.568 197.825C183.345 197.657 183.065 197.545 182.73 197.545C182.394 197.545 182.115 197.657 181.891 197.825C181.668 197.993 181.556 198.272 181.556 198.552C181.556 198.832 181.668 199.055 181.891 199.279C182.115 199.447 182.394 199.559 182.786 199.559C183.065 199.559 183.345 199.447 183.568 199.279Z" fill="#CFCFCF"/>
<path d="M228.454 194.469V200.286H227.392V195.364H226.162V194.469H228.454Z" fill="#CFCFCF"/>
<path d="M234.826 194.469V195.196L232.534 200.286H231.36L233.54 195.364H231.249V196.371H230.242V194.469H234.826Z" fill="#CFCFCF"/>
<path d="M264.731 194.469V200.286H263.669V195.364H262.439V194.469H264.731Z" fill="#CFCFCF"/>
<path d="M271.215 197.825C271.383 198.049 271.439 198.328 271.439 198.664C271.439 198.999 271.327 199.335 271.159 199.615C270.935 199.894 270.656 200.062 270.321 200.23C269.985 200.398 269.538 200.454 269.091 200.454C268.588 200.454 268.196 200.398 267.861 200.23C267.526 200.062 267.246 199.894 267.023 199.615C266.855 199.335 266.743 199.055 266.743 198.664C266.743 198.328 266.799 198.049 266.967 197.825C267.134 197.601 267.358 197.377 267.638 197.266C267.414 197.154 267.246 196.986 267.079 196.762C266.967 196.538 266.911 196.315 266.911 196.035C266.911 195.699 267.023 195.42 267.19 195.196C267.358 194.972 267.638 194.749 267.973 194.637C268.308 194.525 268.7 194.413 269.091 194.413C269.538 194.413 269.929 194.469 270.209 194.637C270.544 194.749 270.768 194.972 270.991 195.196C271.159 195.42 271.271 195.699 271.271 196.035C271.271 196.315 271.215 196.538 271.103 196.762C270.991 196.986 270.768 197.154 270.544 197.266C270.824 197.377 271.047 197.601 271.215 197.825ZM269.985 199.335C270.209 199.167 270.321 198.943 270.321 198.664C270.321 198.384 270.209 198.16 269.985 197.993C269.762 197.825 269.426 197.769 269.035 197.769C268.644 197.769 268.308 197.825 268.085 197.993C267.861 198.16 267.749 198.384 267.749 198.664C267.749 198.943 267.861 199.167 268.085 199.335C268.308 199.503 268.644 199.559 269.035 199.559C269.426 199.559 269.762 199.503 269.985 199.335ZM268.252 195.476C268.029 195.644 267.973 195.811 267.973 196.091C267.973 196.315 268.085 196.538 268.252 196.706C268.476 196.874 268.7 196.93 269.035 196.93C269.37 196.93 269.65 196.874 269.873 196.706C270.097 196.538 270.153 196.371 270.153 196.091C270.153 195.811 270.041 195.644 269.873 195.476C269.65 195.308 269.426 195.252 269.035 195.252C268.7 195.252 268.42 195.308 268.252 195.476Z" fill="#CFCFCF"/>
<path d="M308.89 194.469V200.286H307.828V195.364H306.598V194.469H308.89Z" fill="#CFCFCF"/>
<path d="M314.703 195.14C315.15 195.644 315.374 196.371 315.374 197.266C315.374 197.937 315.262 198.496 315.038 198.944C314.815 199.391 314.479 199.783 314.032 200.006C313.585 200.23 313.082 200.342 312.523 200.342C312.244 200.342 311.964 200.286 311.685 200.23C311.405 200.174 311.182 200.062 311.014 199.95L311.405 199.111C311.685 199.279 312.076 199.391 312.523 199.391C313.082 199.391 313.529 199.223 313.865 198.888C314.2 198.552 314.312 198.049 314.312 197.377C314.144 197.601 313.921 197.713 313.641 197.825C313.362 197.937 313.082 197.993 312.747 197.993C312.355 197.993 312.02 197.937 311.741 197.769C311.461 197.601 311.182 197.433 311.014 197.154C310.846 196.874 310.734 196.594 310.734 196.203C310.734 195.811 310.846 195.476 311.014 195.196C311.182 194.916 311.461 194.693 311.796 194.525C312.132 194.357 312.467 194.301 312.858 194.301C313.641 194.413 314.256 194.637 314.703 195.14ZM313.809 196.986C314.032 196.818 314.144 196.538 314.144 196.259C314.144 195.979 314.032 195.755 313.809 195.532C313.585 195.364 313.306 195.252 312.914 195.252C312.579 195.252 312.299 195.364 312.076 195.532C311.852 195.699 311.741 195.979 311.741 196.259C311.741 196.538 311.852 196.818 312.076 196.986C312.299 197.154 312.579 197.266 312.914 197.266C313.306 197.266 313.585 197.154 313.809 196.986Z" fill="#CFCFCF"/>
<path d="M361.489 199.391V200.286H357.185V199.559L359.477 197.377C359.756 197.154 359.924 196.93 359.98 196.706C360.091 196.538 360.091 196.315 360.091 196.147C360.091 195.867 359.98 195.644 359.812 195.532C359.644 195.364 359.365 195.308 359.029 195.308C358.415 195.308 357.967 195.532 357.688 195.923L356.905 195.364C357.129 195.084 357.464 194.805 357.8 194.637C358.191 194.469 358.638 194.357 359.085 194.357C359.7 194.357 360.203 194.525 360.594 194.805C360.986 195.084 361.153 195.532 361.153 196.035C361.153 196.371 361.098 196.65 360.93 196.93C360.762 197.21 360.539 197.545 360.147 197.881L358.582 199.391H361.489Z" fill="#CFCFCF"/>
<path d="M364.06 200.062C363.669 199.838 363.389 199.503 363.166 199.055C362.942 198.608 362.83 198.049 362.83 197.433C362.83 196.818 362.942 196.259 363.166 195.811C363.389 195.364 363.669 195.028 364.06 194.805C364.451 194.581 364.843 194.469 365.29 194.469C365.737 194.469 366.184 194.581 366.52 194.805C366.911 195.028 367.19 195.364 367.414 195.811C367.637 196.259 367.749 196.818 367.749 197.433C367.749 198.049 367.637 198.608 367.414 199.055C367.19 199.503 366.911 199.838 366.52 200.062C366.128 200.286 365.737 200.398 365.29 200.398C364.843 200.398 364.451 200.286 364.06 200.062ZM366.296 198.944C366.52 198.608 366.631 198.105 366.631 197.377C366.631 196.65 366.52 196.203 366.296 195.811C366.072 195.476 365.737 195.308 365.29 195.308C364.899 195.308 364.563 195.476 364.284 195.811C364.06 196.147 363.948 196.65 363.948 197.377C363.948 198.105 364.06 198.552 364.284 198.944C364.507 199.279 364.843 199.447 365.29 199.447C365.737 199.447 366.072 199.279 366.296 198.944Z" fill="#CFCFCF"/>
<path d="M404.865 199.391V200.286H400.561V199.559L402.852 197.377C403.132 197.154 403.3 196.93 403.356 196.706C403.467 196.538 403.467 196.315 403.467 196.147C403.467 195.867 403.356 195.644 403.188 195.532C403.02 195.364 402.741 195.308 402.405 195.308C401.79 195.308 401.343 195.532 401.064 195.923L400.281 195.364C400.505 195.084 400.84 194.805 401.176 194.637C401.567 194.469 402.014 194.357 402.461 194.357C403.076 194.357 403.579 194.525 403.97 194.805C404.362 195.084 404.529 195.532 404.529 196.035C404.529 196.371 404.473 196.65 404.306 196.93C404.138 197.21 403.915 197.545 403.523 197.881L401.958 199.391H404.865Z" fill="#CFCFCF"/>
<path d="M408.33 194.469V200.286H407.268V195.364H406.039V194.469H408.33Z" fill="#CFCFCF"/>
<path d="M138.012 227.189V228.084H133.708V227.357L136 225.175C136.279 224.952 136.447 224.728 136.503 224.504C136.615 224.336 136.615 224.113 136.615 223.945C136.615 223.665 136.503 223.442 136.335 223.33C136.168 223.162 135.888 223.106 135.553 223.106C134.938 223.106 134.491 223.33 134.211 223.721L133.429 223.162C133.652 222.882 133.988 222.603 134.323 222.435C134.714 222.267 135.162 222.155 135.609 222.155C136.224 222.155 136.727 222.323 137.118 222.603C137.509 222.882 137.677 223.33 137.677 223.833C137.677 224.169 137.621 224.448 137.453 224.728C137.286 225.008 137.062 225.343 136.671 225.679L135.106 227.189H138.012Z" fill="#CFCFCF"/>
<path d="M143.714 227.189V228.084H139.41V227.357L141.701 225.175C141.981 224.952 142.149 224.728 142.204 224.504C142.316 224.336 142.316 224.113 142.316 223.945C142.316 223.665 142.204 223.442 142.037 223.33C141.869 223.162 141.59 223.106 141.254 223.106C140.639 223.106 140.192 223.33 139.913 223.721L139.13 223.162C139.354 222.882 139.689 222.603 140.024 222.435C140.416 222.267 140.863 222.155 141.31 222.155C141.925 222.155 142.428 222.323 142.819 222.603C143.211 222.882 143.378 223.33 143.378 223.833C143.378 224.169 143.322 224.448 143.155 224.728C143.043 225.008 142.763 225.343 142.372 225.679L140.807 227.189H143.714Z" fill="#CFCFCF"/>
<path d="M180.494 227.189V228.084H176.19V227.357L178.482 225.175C178.761 224.952 178.929 224.728 178.985 224.504C179.097 224.336 179.097 224.113 179.097 223.945C179.097 223.665 178.985 223.442 178.817 223.33C178.649 223.162 178.37 223.106 178.034 223.106C177.42 223.106 176.972 223.33 176.693 223.721L175.91 223.162C176.134 222.882 176.469 222.603 176.805 222.435C177.196 222.267 177.643 222.155 178.09 222.155C178.705 222.155 179.208 222.323 179.6 222.603C179.991 222.882 180.159 223.33 180.159 223.833C180.159 224.169 180.103 224.448 179.935 224.728C179.823 225.008 179.544 225.343 179.152 225.679L177.587 227.189H180.494Z" fill="#CFCFCF"/>
<path d="M185.636 225.231C185.916 225.511 186.084 225.903 186.084 226.35C186.084 226.686 185.972 227.021 185.804 227.301C185.636 227.581 185.357 227.804 185.022 227.972C184.686 228.14 184.239 228.196 183.736 228.196C183.345 228.196 182.897 228.14 182.506 228.028C182.115 227.916 181.779 227.748 181.5 227.525L181.947 226.686C182.171 226.853 182.394 227.021 182.73 227.133C183.009 227.245 183.345 227.301 183.68 227.301C184.071 227.301 184.351 227.245 184.574 227.077C184.798 226.909 184.91 226.686 184.91 226.406C184.91 226.126 184.798 225.903 184.574 225.791C184.351 225.623 184.071 225.567 183.624 225.567H183.065V224.84L184.407 223.274H181.779V222.379H185.748V223.106L184.351 224.784C184.966 224.784 185.357 224.952 185.636 225.231Z" fill="#CFCFCF"/>
<path d="M230.634 227.189V228.084H226.33V227.357L228.622 225.175C228.901 224.952 229.069 224.728 229.125 224.504C229.236 224.336 229.236 224.113 229.236 223.945C229.236 223.665 229.125 223.442 228.957 223.33C228.789 223.162 228.51 223.106 228.174 223.106C227.56 223.106 227.112 223.33 226.833 223.721L226.05 223.162C226.274 222.882 226.609 222.603 226.945 222.435C227.336 222.267 227.783 222.155 228.23 222.155C228.845 222.155 229.348 222.323 229.74 222.603C230.131 222.882 230.298 223.33 230.298 223.833C230.298 224.169 230.243 224.448 230.075 224.728C229.963 225.008 229.684 225.343 229.292 225.679L227.727 227.189H230.634Z" fill="#CFCFCF"/>
<path d="M237.174 226.797H236.168V228.14H235.106V226.797H231.919V226.07L234.77 222.323H235.944L233.261 225.903H235.161V224.728H236.168V225.903H237.174V226.797Z" fill="#CFCFCF"/>
<path d="M266.911 227.189V228.084H262.607V227.357L264.899 225.175C265.178 224.952 265.346 224.728 265.402 224.504C265.514 224.336 265.514 224.113 265.514 223.945C265.514 223.665 265.402 223.442 265.234 223.33C265.066 223.162 264.787 223.106 264.451 223.106C263.837 223.106 263.389 223.33 263.11 223.721L262.327 223.162C262.551 222.882 262.886 222.603 263.222 222.435C263.613 222.267 264.06 222.155 264.507 222.155C265.122 222.155 265.625 222.323 266.017 222.603C266.408 222.882 266.576 223.33 266.576 223.833C266.576 224.169 266.52 224.448 266.352 224.728C266.184 225.008 265.961 225.343 265.569 225.679L264.004 227.189H266.911Z" fill="#CFCFCF"/>
<path d="M272.053 225.008C272.445 225.343 272.668 225.735 272.668 226.294C272.668 226.63 272.556 226.965 272.389 227.245C272.221 227.525 271.942 227.748 271.606 227.916C271.271 228.084 270.824 228.14 270.321 228.14C269.929 228.14 269.482 228.084 269.091 227.972C268.7 227.86 268.364 227.692 268.085 227.469L268.532 226.63C268.755 226.797 269.035 226.965 269.314 227.077C269.594 227.189 269.929 227.245 270.265 227.245C270.656 227.245 270.935 227.189 271.159 227.021C271.383 226.853 271.494 226.63 271.494 226.35C271.494 226.07 271.383 225.847 271.159 225.679C270.935 225.511 270.544 225.455 269.929 225.455H268.532L268.811 222.267H272.221V223.162H269.706L269.594 224.504H270.153C271.047 224.56 271.662 224.728 272.053 225.008Z" fill="#CFCFCF"/>
<path d="M361.489 227.189V228.084H357.185V227.357L359.477 225.175C359.756 224.952 359.924 224.728 359.98 224.504C360.091 224.336 360.091 224.113 360.091 223.945C360.091 223.665 359.98 223.442 359.812 223.33C359.644 223.162 359.365 223.106 359.029 223.106C358.414 223.106 357.967 223.33 357.688 223.721L356.905 223.162C357.129 222.882 357.464 222.603 357.8 222.435C358.191 222.267 358.638 222.155 359.085 222.155C359.7 222.155 360.203 222.323 360.594 222.603C360.986 222.882 361.153 223.33 361.153 223.833C361.153 224.169 361.098 224.448 360.93 224.728C360.762 225.008 360.539 225.343 360.147 225.679L358.582 227.189H361.489Z" fill="#CFCFCF"/>
<path d="M367.302 222.323V223.05L365.01 228.14H363.836L366.016 223.218H363.725V224.225H362.719V222.323H367.302Z" fill="#CFCFCF"/>
<path d="M404.865 227.189V228.084H400.561V227.357L402.853 225.175C403.132 224.952 403.3 224.728 403.356 224.504C403.467 224.336 403.467 224.113 403.467 223.945C403.467 223.665 403.356 223.442 403.188 223.33C403.02 223.162 402.741 223.106 402.405 223.106C401.79 223.106 401.343 223.33 401.064 223.721L400.281 223.162C400.505 222.882 400.84 222.603 401.176 222.435C401.567 222.267 402.014 222.155 402.461 222.155C403.076 222.155 403.579 222.323 403.97 222.603C404.362 222.882 404.529 223.33 404.529 223.833C404.529 224.169 404.474 224.448 404.306 224.728C404.138 225.008 403.915 225.343 403.523 225.679L401.958 227.189H404.865Z" fill="#CFCFCF"/>
<path d="M410.846 225.623C411.013 225.847 411.069 226.126 411.069 226.462C411.069 226.797 410.958 227.133 410.79 227.413C410.566 227.692 410.287 227.86 409.951 228.028C409.616 228.196 409.169 228.252 408.722 228.252C408.219 228.252 407.827 228.196 407.492 228.028C407.157 227.86 406.877 227.692 406.654 227.413C406.486 227.133 406.374 226.853 406.374 226.462C406.374 226.126 406.43 225.847 406.598 225.623C406.765 225.399 406.989 225.175 407.268 225.064C407.045 224.952 406.877 224.784 406.709 224.56C406.598 224.336 406.542 224.113 406.542 223.833C406.542 223.497 406.654 223.218 406.821 222.994C406.989 222.77 407.268 222.547 407.604 222.435C407.939 222.323 408.33 222.211 408.722 222.211C409.169 222.211 409.56 222.267 409.84 222.435C410.175 222.547 410.399 222.77 410.622 222.994C410.79 223.218 410.902 223.497 410.902 223.833C410.902 224.113 410.846 224.336 410.734 224.56C410.622 224.784 410.399 224.952 410.175 225.064C410.455 225.175 410.678 225.399 410.846 225.623ZM409.616 227.133C409.84 226.965 409.951 226.742 409.951 226.462C409.951 226.182 409.84 225.958 409.616 225.791C409.392 225.623 409.057 225.567 408.666 225.567C408.275 225.567 407.939 225.623 407.716 225.791C407.492 225.958 407.38 226.182 407.38 226.462C407.38 226.742 407.492 226.965 407.716 227.133C407.939 227.301 408.275 227.357 408.666 227.357C409.057 227.357 409.392 227.301 409.616 227.133ZM407.883 223.274C407.66 223.442 407.604 223.609 407.604 223.889C407.604 224.113 407.716 224.336 407.883 224.504C408.107 224.672 408.33 224.728 408.666 224.728C409.001 224.728 409.281 224.672 409.504 224.504C409.728 224.336 409.784 224.169 409.784 223.889C409.784 223.609 409.672 223.442 409.504 223.274C409.281 223.106 409.057 223.05 408.666 223.05C408.33 223.05 408.051 223.162 407.883 223.274Z" fill="#CFCFCF"/>
<path d="M138.012 253.868V254.763H133.708V254.036L136 251.855C136.279 251.631 136.447 251.407 136.503 251.184C136.615 251.016 136.615 250.792 136.615 250.624C136.615 250.345 136.503 250.121 136.335 250.009C136.168 249.841 135.888 249.785 135.553 249.785C134.938 249.785 134.491 250.009 134.211 250.401L133.429 249.841C133.652 249.562 133.988 249.282 134.323 249.114C134.714 248.946 135.162 248.835 135.609 248.835C136.224 248.835 136.727 249.002 137.118 249.282C137.509 249.562 137.677 250.009 137.677 250.513C137.677 250.848 137.621 251.128 137.453 251.407C137.342 251.687 137.062 252.023 136.671 252.358L135.106 253.868H138.012Z" fill="#CFCFCF"/>
<path d="M143.322 249.618C143.77 250.121 143.993 250.848 143.993 251.743C143.993 252.414 143.881 252.974 143.658 253.421C143.434 253.868 143.099 254.26 142.652 254.484C142.205 254.707 141.701 254.819 141.142 254.819C140.863 254.819 140.583 254.763 140.304 254.707C140.025 254.651 139.801 254.54 139.633 254.428L140.025 253.589C140.304 253.757 140.695 253.868 141.142 253.868C141.701 253.868 142.149 253.701 142.484 253.365C142.819 253.029 142.931 252.526 142.931 251.855C142.763 252.079 142.54 252.19 142.26 252.302C141.981 252.414 141.701 252.47 141.366 252.47C140.975 252.47 140.639 252.414 140.36 252.246C140.08 252.079 139.801 251.911 139.633 251.631C139.466 251.352 139.354 251.072 139.354 250.68C139.354 250.289 139.466 249.953 139.633 249.674C139.801 249.394 140.08 249.17 140.416 249.002C140.751 248.835 141.087 248.779 141.478 248.779C142.26 248.835 142.875 249.114 143.322 249.618ZM142.372 251.407C142.596 251.24 142.708 250.96 142.708 250.68C142.708 250.401 142.596 250.177 142.372 249.953C142.149 249.785 141.869 249.674 141.478 249.674C141.142 249.674 140.863 249.785 140.639 249.953C140.416 250.121 140.304 250.401 140.304 250.68C140.304 250.96 140.416 251.24 140.639 251.407C140.863 251.575 141.142 251.687 141.478 251.687C141.869 251.687 142.149 251.575 142.372 251.407Z" fill="#CFCFCF"/>
<path d="M179.991 251.911C180.27 252.191 180.438 252.582 180.438 253.029C180.438 253.365 180.326 253.701 180.159 253.98C179.991 254.26 179.711 254.484 179.376 254.651C179.041 254.819 178.593 254.875 178.09 254.875C177.699 254.875 177.252 254.819 176.861 254.707C176.469 254.596 176.134 254.428 175.854 254.204L176.302 253.365C176.525 253.533 176.749 253.701 177.084 253.813C177.364 253.924 177.699 253.98 178.034 253.98C178.426 253.98 178.705 253.924 178.929 253.757C179.152 253.589 179.264 253.365 179.264 253.085C179.264 252.806 179.152 252.582 178.929 252.47C178.705 252.302 178.426 252.246 177.979 252.246H177.42V251.519L178.761 249.953H176.134V249.058H180.103V249.785L178.705 251.463C179.264 251.407 179.711 251.575 179.991 251.911Z" fill="#CFCFCF"/>
<path d="M183.121 254.484C182.73 254.26 182.45 253.924 182.227 253.477C182.003 253.029 181.891 252.47 181.891 251.855C181.891 251.24 182.003 250.68 182.227 250.233C182.45 249.785 182.73 249.45 183.121 249.226C183.512 249.002 183.904 248.891 184.351 248.891C184.798 248.891 185.245 249.002 185.581 249.226C185.972 249.45 186.251 249.785 186.475 250.233C186.699 250.68 186.81 251.24 186.81 251.855C186.81 252.47 186.699 253.029 186.475 253.477C186.251 253.924 185.972 254.26 185.581 254.484C185.189 254.707 184.798 254.819 184.351 254.819C183.904 254.875 183.512 254.763 183.121 254.484ZM185.357 253.421C185.581 253.085 185.692 252.582 185.692 251.855C185.692 251.128 185.581 250.68 185.357 250.289C185.133 249.953 184.798 249.785 184.351 249.785C183.96 249.785 183.624 249.953 183.345 250.289C183.121 250.624 183.009 251.128 183.009 251.855C183.009 252.582 183.121 253.029 183.345 253.421C183.568 253.757 183.904 253.924 184.351 253.924C184.798 253.924 185.133 253.757 185.357 253.421Z" fill="#CFCFCF"/>
<path d="M230.131 253.029C230.41 253.309 230.578 253.701 230.578 254.148C230.578 254.484 230.466 254.819 230.298 255.099C230.131 255.379 229.851 255.602 229.516 255.77C229.181 255.938 228.733 255.994 228.23 255.994C227.839 255.994 227.392 255.938 227.001 255.826C226.609 255.714 226.274 255.546 225.994 255.323L226.442 254.484C226.665 254.651 226.889 254.819 227.224 254.931C227.504 255.043 227.839 255.099 228.174 255.099C228.566 255.099 228.845 255.043 229.069 254.875C229.292 254.707 229.404 254.484 229.404 254.204C229.404 253.924 229.292 253.701 229.069 253.589C228.845 253.421 228.566 253.365 228.118 253.365H227.559V252.638L228.901 251.072H226.274V250.177H230.243V250.904L228.845 252.582C229.46 252.582 229.851 252.75 230.131 253.029Z" fill="#CFCFCF"/>
<path d="M234.155 250.121V255.938H233.093V251.016H231.808V250.121H234.155Z" fill="#CFCFCF"/>
<path d="M141.534 126.456V120.639L138.683 125.449H137.677L134.826 120.751V126.456H132.702V116.724H134.547L138.18 122.765L141.757 116.724H143.602V126.456H141.534Z" fill="#AAACAF"/>
<path d="M178.705 118.57H175.575V116.724H184.072V118.57H180.941V126.456H178.705V118.57Z" fill="#AAACAF"/>
<path d="M235.329 116.724L232.143 126.456H229.739L227.615 119.856L225.435 126.456H223.032L219.846 116.724H222.193L224.373 123.548L226.665 116.724H228.733L230.969 123.604L233.261 116.724H235.329Z" fill="#AAACAF"/>
<path d="M266.687 118.57H263.557V116.724H272.053V118.57H268.923V126.456H266.687V118.57Z" fill="#AAACAF"/>
<path d="M310.902 118.57V121.143H315.43V122.932H310.902V126.456H308.666V116.724H315.989V118.514H310.902V118.57Z" fill="#AAACAF"/>
<path d="M353.607 126.344C352.881 126.121 352.322 125.841 351.875 125.505L352.657 123.827C353.048 124.107 353.551 124.387 354.166 124.555C354.725 124.722 355.34 124.834 355.899 124.834C356.514 124.834 357.017 124.722 357.297 124.555C357.576 124.387 357.744 124.107 357.744 123.771C357.744 123.548 357.632 123.324 357.464 123.212C357.297 123.044 357.073 122.933 356.793 122.821C356.514 122.709 356.123 122.653 355.62 122.541C354.893 122.373 354.278 122.205 353.775 122.038C353.328 121.87 352.881 121.59 352.545 121.199C352.21 120.807 352.042 120.304 352.042 119.633C352.042 119.073 352.21 118.57 352.489 118.122C352.769 117.675 353.272 117.283 353.887 117.004C354.502 116.724 355.228 116.612 356.123 116.612C356.738 116.612 357.352 116.668 357.967 116.836C358.582 117.004 359.085 117.172 359.532 117.451L358.862 119.185C357.967 118.682 357.073 118.402 356.179 118.402C355.564 118.402 355.061 118.514 354.781 118.682C354.502 118.905 354.334 119.129 354.334 119.465C354.334 119.8 354.502 120.024 354.837 120.192C355.172 120.36 355.731 120.527 356.402 120.695C357.129 120.863 357.744 121.031 358.247 121.199C358.694 121.366 359.141 121.646 359.477 122.038C359.812 122.429 359.98 122.933 359.98 123.604C359.98 124.163 359.812 124.666 359.532 125.114C359.197 125.561 358.75 125.953 358.135 126.232C357.52 126.512 356.738 126.624 355.843 126.624C355.061 126.624 354.334 126.512 353.607 126.344Z" fill="#AAACAF"/>
<path d="M397.599 126.344C396.872 126.121 396.313 125.841 395.866 125.505L396.648 123.827C397.04 124.107 397.543 124.387 398.157 124.555C398.716 124.722 399.331 124.834 399.89 124.834C400.505 124.834 401.008 124.722 401.288 124.555C401.567 124.387 401.735 124.107 401.735 123.771C401.735 123.548 401.623 123.324 401.455 123.212C401.288 123.044 401.064 122.933 400.785 122.821C400.505 122.709 400.114 122.653 399.611 122.541C398.884 122.373 398.269 122.205 397.766 122.038C397.319 121.87 396.872 121.59 396.536 121.199C396.201 120.807 396.033 120.304 396.033 119.633C396.033 119.073 396.201 118.57 396.481 118.122C396.76 117.675 397.263 117.283 397.878 117.004C398.493 116.724 399.22 116.612 400.114 116.612C400.729 116.612 401.344 116.668 401.959 116.836C402.573 117.004 403.076 117.172 403.524 117.451L402.853 119.185C401.959 118.682 401.064 118.402 400.17 118.402C399.555 118.402 399.052 118.514 398.772 118.682C398.493 118.905 398.325 119.129 398.325 119.465C398.325 119.8 398.493 120.024 398.828 120.192C399.164 120.36 399.723 120.527 400.393 120.695C401.12 120.863 401.735 121.031 402.238 121.199C402.685 121.366 403.132 121.646 403.468 122.038C403.803 122.429 403.971 122.933 403.971 123.604C403.971 124.163 403.803 124.666 403.524 125.114C403.188 125.561 402.741 125.953 402.126 126.232C401.511 126.512 400.729 126.624 399.834 126.624C399.052 126.624 398.325 126.512 397.599 126.344Z" fill="#AAACAF"/>
<path d="M381.947 94.631C384.51 94.631 386.587 92.5525 386.587 89.9886C386.587 87.4248 384.51 85.3463 381.947 85.3463C379.385 85.3463 377.308 87.4248 377.308 89.9886C377.308 92.5525 379.385 94.631 381.947 94.631Z" fill="white"/>
<path d="M397.04 94.631C399.602 94.631 401.679 92.5525 401.679 89.9886C401.679 87.4248 399.602 85.3463 397.04 85.3463C394.477 85.3463 392.4 87.4248 392.4 89.9886C392.4 92.5525 394.477 94.631 397.04 94.631Z" fill="white"/>
<path d="M412.076 94.631C414.638 94.631 416.715 92.5525 416.715 89.9886C416.715 87.4248 414.638 85.3463 412.076 85.3463C409.514 85.3463 407.437 87.4248 407.437 89.9886C407.437 92.5525 409.514 94.631 412.076 94.631Z" fill="#FFCA43"/>
</g>
<defs>
<filter id="filter0_d" x="88.2751" y="66.2516" width="374.623" height="253.906" filterUnits="userSpaceOnUse" color-interpolation-filters="sRGB">
<feFlood flood-opacity="0" result="BackgroundImageFix"/>
<feColorMatrix in="SourceAlpha" type="matrix" values="0 0 0 0 0 0 0 0 0 0 0 0 0 0 0 0 0 0 127 0"/>
<feOffset dy="15"/>
<feGaussianBlur stdDeviation="10"/>
<feColorMatrix type="matrix" values="0 0 0 0 0 0 0 0 0 0 0 0 0 0 0 0 0 0 0.05 0"/>
<feBlend mode="normal" in2="BackgroundImageFix" result="effect1_dropShadow"/>
<feBlend mode="normal" in="SourceGraphic" in2="effect1_dropShadow" result="shape"/>
</filter>
</defs>
</svg>
