<svg width="571" height="514" viewBox="0 0 571 514" fill="none" xmlns="http://www.w3.org/2000/svg">
<g opacity="0.5">
<circle cx="69" cy="365" r="3" fill="#2C3647" fill-opacity="0.4"/>
<circle cx="91" cy="365" r="3" fill="#2C3647" fill-opacity="0.4"/>
<circle cx="102" cy="365" r="3" fill="#2C3647" fill-opacity="0.4"/>
<circle cx="113" cy="365" r="3" fill="#2C3647" fill-opacity="0.4"/>
<circle cx="135" cy="365" r="3" fill="#2C3647" fill-opacity="0.4"/>
<circle cx="146" cy="365" r="3" fill="#2C3647" fill-opacity="0.4"/>
<circle cx="157" cy="365" r="3" fill="#2C3647" fill-opacity="0.4"/>
<circle cx="179" cy="365" r="3" fill="#2C3647" fill-opacity="0.4"/>
<circle cx="190" cy="365" r="3" fill="#2C3647" fill-opacity="0.4"/>
<circle cx="201" cy="365" r="3" fill="#2C3647" fill-opacity="0.3"/>
<circle cx="212" cy="365" r="3" fill="#2C3647" fill-opacity="0.2"/>
<circle cx="69" cy="354" r="3" fill="#2C3647" fill-opacity="0.3"/>
<circle cx="80" cy="354" r="3" fill="#2C3647" fill-opacity="0.3"/>
<circle cx="91" cy="354" r="3" fill="#2C3647" fill-opacity="0.3"/>
<circle cx="102" cy="354" r="3" fill="#2C3647" fill-opacity="0.3"/>
<circle cx="113" cy="354" r="3" fill="#2C3647" fill-opacity="0.3"/>
<circle cx="124" cy="354" r="3" fill="#2C3647" fill-opacity="0.3"/>
<circle cx="135" cy="354" r="3" fill="#2C3647" fill-opacity="0.3"/>
<circle cx="146" cy="354" r="3" fill="#2C3647" fill-opacity="0.3"/>
<circle cx="157" cy="354" r="3" fill="#2C3647" fill-opacity="0.3"/>
<circle cx="168" cy="354" r="3" fill="#2C3647" fill-opacity="0.3"/>
<circle cx="179" cy="354" r="3" fill="#2C3647" fill-opacity="0.3"/>
<circle cx="190" cy="354" r="3" fill="#2C3647" fill-opacity="0.3"/>
<circle cx="201" cy="354" r="3" fill="#2C3647" fill-opacity="0.3"/>
<circle cx="223" cy="354" r="3" fill="#2C3647" fill-opacity="0.1"/>
<circle cx="80" cy="343" r="3" fill="#2C3647" fill-opacity="0.2"/>
<circle cx="83" cy="321" r="3" fill="#2C3647" fill-opacity="0.2"/>
<circle cx="102" cy="343" r="3" fill="#2C3647" fill-opacity="0.2"/>
<circle cx="124" cy="343" r="3" fill="#2C3647" fill-opacity="0.2"/>
<circle cx="146" cy="343" r="3" fill="#2C3647" fill-opacity="0.2"/>
<circle cx="168" cy="343" r="3" fill="#2C3647" fill-opacity="0.2"/>
<circle cx="190" cy="343" r="3" fill="#2C3647" fill-opacity="0.2"/>
<circle cx="212" cy="343" r="3" fill="#2C3647" fill-opacity="0.2"/>
<circle cx="69" cy="332" r="3" fill="#2C3647" fill-opacity="0.1"/>
<circle cx="72" cy="310" r="3" fill="#2C3647" fill-opacity="0.1"/>
<circle cx="91" cy="332" r="3" fill="#2C3647" fill-opacity="0.1"/>
<circle cx="113" cy="332" r="3" fill="#2C3647" fill-opacity="0.1"/>
<circle cx="135" cy="332" r="3" fill="#2C3647" fill-opacity="0.1"/>
<circle cx="157" cy="332" r="3" fill="#2C3647" fill-opacity="0.1"/>
<circle cx="179" cy="332" r="3" fill="#2C3647" fill-opacity="0.1"/>
<circle cx="201" cy="332" r="3" fill="#2C3647" fill-opacity="0.1"/>
<circle cx="223" cy="332" r="3" fill="#2C3647" fill-opacity="0.1"/>
<circle cx="58" cy="354" r="3" fill="#2C3647" fill-opacity="0.3"/>
<circle cx="58" cy="343" r="3" fill="#2C3647" fill-opacity="0.2"/>
<circle cx="61" cy="321" r="3" fill="#2C3647" fill-opacity="0.2"/>
<circle cx="47" cy="365" r="3" fill="#2C3647" fill-opacity="0.4"/>
<circle cx="47" cy="354" r="3" fill="#2C3647" fill-opacity="0.3"/>
<circle cx="47" cy="332" r="3" fill="#2C3647" fill-opacity="0.1"/>
<circle cx="50" cy="310" r="3" fill="#2C3647" fill-opacity="0.1"/>
<circle cx="36" cy="365" r="3" fill="#2C3647" fill-opacity="0.4"/>
<circle cx="36" cy="354" r="3" fill="#2C3647" fill-opacity="0.3"/>
<circle cx="36" cy="343" r="3" fill="#2C3647" fill-opacity="0.2"/>
<circle cx="69" cy="387" r="3" fill="#2C3647" fill-opacity="0.4"/>
<circle cx="80" cy="387" r="3" fill="#2C3647" fill-opacity="0.4"/>
<circle cx="91" cy="387" r="3" fill="#2C3647" fill-opacity="0.4"/>
<circle cx="102" cy="387" r="3" fill="#2C3647" fill-opacity="0.4"/>
<circle cx="113" cy="387" r="3" fill="#2C3647" fill-opacity="0.4"/>
<circle cx="124" cy="387" r="3" fill="#2C3647" fill-opacity="0.4"/>
<circle cx="135" cy="387" r="3" fill="#2C3647" fill-opacity="0.4"/>
<circle cx="146" cy="387" r="3" fill="#2C3647" fill-opacity="0.4"/>
<circle cx="157" cy="387" r="3" fill="#2C3647" fill-opacity="0.4"/>
<circle cx="168" cy="387" r="3" fill="#2C3647" fill-opacity="0.4"/>
<circle cx="179" cy="387" r="3" fill="#2C3647" fill-opacity="0.4"/>
<circle cx="190" cy="387" r="3" fill="#2C3647" fill-opacity="0.4"/>
<circle cx="201" cy="387" r="3" fill="#2C3647" fill-opacity="0.3"/>
<circle cx="212" cy="387" r="3" fill="#2C3647" fill-opacity="0.2"/>
<circle cx="58" cy="387" r="3" fill="#2C3647" fill-opacity="0.4"/>
<circle cx="47" cy="387" r="3" fill="#2C3647" fill-opacity="0.4"/>
<circle cx="36" cy="387" r="3" fill="#2C3647" fill-opacity="0.5"/>
<circle cx="80" cy="409" r="3" fill="#2C3647" fill-opacity="0.2"/>
<circle cx="102" cy="409" r="3" fill="#2C3647" fill-opacity="0.2"/>
<circle cx="124" cy="409" r="3" fill="#2C3647" fill-opacity="0.2"/>
<circle cx="146" cy="409" r="3" fill="#2C3647" fill-opacity="0.2"/>
<circle cx="168" cy="409" r="3" fill="#2C3647" fill-opacity="0.2"/>
<circle cx="190" cy="409" r="3" fill="#2C3647" fill-opacity="0.2"/>
<circle cx="212" cy="409" r="3" fill="#2C3647" fill-opacity="0.2"/>
<circle cx="58" cy="409" r="3" fill="#2C3647" fill-opacity="0.2"/>
<circle cx="36" cy="409" r="3" fill="#2C3647" fill-opacity="0.2"/>
<circle cx="69" cy="376" r="3" fill="#2C3647" fill-opacity="0.5"/>
<circle cx="80" cy="376" r="3" fill="#2C3647" fill-opacity="0.5"/>
<circle cx="91" cy="376" r="3" fill="#2C3647" fill-opacity="0.5"/>
<circle cx="102" cy="376" r="3" fill="#2C3647" fill-opacity="0.5"/>
<circle cx="124" cy="376" r="3" fill="#2C3647" fill-opacity="0.5"/>
<circle cx="135" cy="376" r="3" fill="#2C3647" fill-opacity="0.5"/>
<circle cx="146" cy="376" r="3" fill="#2C3647" fill-opacity="0.5"/>
<circle cx="157" cy="376" r="3" fill="#2C3647" fill-opacity="0.5"/>
<circle cx="168" cy="376" r="3" fill="#2C3647" fill-opacity="0.5"/>
<circle cx="190" cy="376" r="3" fill="#2C3647" fill-opacity="0.4"/>
<circle cx="201" cy="376" r="3" fill="#2C3647" fill-opacity="0.3"/>
<circle cx="223" cy="376" r="3" fill="#2C3647" fill-opacity="0.1"/>
<circle cx="58" cy="376" r="3" fill="#2C3647" fill-opacity="0.5"/>
<circle cx="36" cy="376" r="3" fill="#2C3647" fill-opacity="0.4"/>
<circle cx="69" cy="398" r="3" fill="#2C3647" fill-opacity="0.3"/>
<circle cx="91" cy="398" r="3" fill="#2C3647" fill-opacity="0.3"/>
<circle cx="113" cy="398" r="3" fill="#2C3647" fill-opacity="0.3"/>
<circle cx="124" cy="398" r="3" fill="#2C3647" fill-opacity="0.3"/>
<circle cx="135" cy="398" r="3" fill="#2C3647" fill-opacity="0.3"/>
<circle cx="157" cy="398" r="3" fill="#2C3647" fill-opacity="0.3"/>
<circle cx="168" cy="398" r="3" fill="#2C3647" fill-opacity="0.3"/>
<circle cx="190" cy="398" r="3" fill="#2C3647" fill-opacity="0.3"/>
<circle cx="201" cy="398" r="3" fill="#2C3647" fill-opacity="0.3"/>
<circle cx="223" cy="398" r="3" fill="#2C3647" fill-opacity="0.1"/>
<circle cx="47" cy="398" r="3" fill="#2C3647" fill-opacity="0.3"/>
<circle cx="69" cy="420" r="3" fill="#2C3647" fill-opacity="0.1"/>
<circle cx="81" cy="432" r="3" fill="#2C3647" fill-opacity="0.1"/>
<circle cx="97" cy="442" r="3" fill="#2C3647" fill-opacity="0.1"/>
<circle cx="91" cy="420" r="3" fill="#2C3647" fill-opacity="0.1"/>
<circle cx="103" cy="432" r="3" fill="#2C3647" fill-opacity="0.1"/>
<circle cx="119" cy="442" r="3" fill="#2C3647" fill-opacity="0.1"/>
<circle cx="113" cy="420" r="3" fill="#2C3647" fill-opacity="0.1"/>
<circle cx="125" cy="432" r="3" fill="#2C3647" fill-opacity="0.1"/>
<circle cx="141" cy="442" r="3" fill="#2C3647" fill-opacity="0.1"/>
<circle cx="135" cy="420" r="3" fill="#2C3647" fill-opacity="0.1"/>
<circle cx="147" cy="432" r="3" fill="#2C3647" fill-opacity="0.1"/>
<circle cx="157" cy="420" r="3" fill="#2C3647" fill-opacity="0.1"/>
<circle cx="169" cy="432" r="3" fill="#2C3647" fill-opacity="0.1"/>
<circle cx="179" cy="420" r="3" fill="#2C3647" fill-opacity="0.1"/>
<circle cx="201" cy="420" r="3" fill="#2C3647" fill-opacity="0.1"/>
<circle cx="223" cy="420" r="3" fill="#2C3647" fill-opacity="0.1"/>
<circle cx="47" cy="420" r="3" fill="#2C3647" fill-opacity="0.1"/>
<circle cx="25" cy="365" r="3" fill="#2C3647" fill-opacity="0.3"/>
<circle cx="25" cy="332" r="3" fill="#2C3647" fill-opacity="0.1"/>
<circle cx="39" cy="324" r="3" fill="#2C3647" fill-opacity="0.1"/>
<circle cx="14" cy="354" r="3" fill="#2C3647" fill-opacity="0.2"/>
<circle cx="25" cy="387" r="3" fill="#2C3647" fill-opacity="0.3"/>
<circle cx="14" cy="387" r="3" fill="#2C3647" fill-opacity="0.2"/>
<circle cx="14" cy="409" r="3" fill="#2C3647" fill-opacity="0.2"/>
<circle cx="25" cy="376" r="3" fill="#2C3647" fill-opacity="0.3"/>
<circle cx="14" cy="376" r="3" fill="#2C3647" fill-opacity="0.2"/>
<circle cx="25" cy="398" r="3" fill="#2C3647" fill-opacity="0.3"/>
<circle cx="25" cy="420" r="3" fill="#2C3647" fill-opacity="0.1"/>
<circle cx="3" cy="354" r="3" fill="#2C3647" fill-opacity="0.1"/>
<circle cx="3" cy="332" r="3" fill="#2C3647" fill-opacity="0.1"/>
<circle cx="3" cy="376" r="3" fill="#2C3647" fill-opacity="0.1"/>
<circle cx="3" cy="398" r="3" fill="#2C3647" fill-opacity="0.1"/>
<circle cx="3" cy="420" r="3" fill="#2C3647" fill-opacity="0.1"/>
</g>
<g opacity="0.5">
<circle cx="370" cy="96" r="3" fill="#2C3647" fill-opacity="0.4"/>
<circle cx="392" cy="96" r="3" fill="#2C3647" fill-opacity="0.4"/>
<circle cx="403" cy="96" r="3" fill="#2C3647" fill-opacity="0.4"/>
<circle cx="414" cy="96" r="3" fill="#2C3647" fill-opacity="0.4"/>
<circle cx="436" cy="96" r="3" fill="#2C3647" fill-opacity="0.4"/>
<circle cx="447" cy="96" r="3" fill="#2C3647" fill-opacity="0.4"/>
<circle cx="458" cy="96" r="3" fill="#2C3647" fill-opacity="0.4"/>
<circle cx="480" cy="96" r="3" fill="#2C3647" fill-opacity="0.4"/>
<circle cx="491" cy="96" r="3" fill="#2C3647" fill-opacity="0.4"/>
<circle cx="502" cy="96" r="3" fill="#2C3647" fill-opacity="0.3"/>
<circle cx="513" cy="96" r="3" fill="#2C3647" fill-opacity="0.2"/>
<circle cx="370" cy="85" r="3" fill="#2C3647" fill-opacity="0.3"/>
<circle cx="381" cy="85" r="3" fill="#2C3647" fill-opacity="0.3"/>
<circle cx="392" cy="85" r="3" fill="#2C3647" fill-opacity="0.3"/>
<circle cx="403" cy="85" r="3" fill="#2C3647" fill-opacity="0.3"/>
<circle cx="414" cy="85" r="3" fill="#2C3647" fill-opacity="0.3"/>
<circle cx="425" cy="85" r="3" fill="#2C3647" fill-opacity="0.3"/>
<circle cx="436" cy="85" r="3" fill="#2C3647" fill-opacity="0.3"/>
<circle cx="447" cy="85" r="3" fill="#2C3647" fill-opacity="0.3"/>
<circle cx="458" cy="85" r="3" fill="#2C3647" fill-opacity="0.3"/>
<circle cx="469" cy="85" r="3" fill="#2C3647" fill-opacity="0.3"/>
<circle cx="480" cy="85" r="3" fill="#2C3647" fill-opacity="0.3"/>
<circle cx="491" cy="85" r="3" fill="#2C3647" fill-opacity="0.3"/>
<circle cx="502" cy="85" r="3" fill="#2C3647" fill-opacity="0.3"/>
<circle cx="524" cy="85" r="3" fill="#2C3647" fill-opacity="0.1"/>
<circle cx="381" cy="74" r="3" fill="#2C3647" fill-opacity="0.2"/>
<circle cx="403" cy="74" r="3" fill="#2C3647" fill-opacity="0.2"/>
<circle cx="425" cy="74" r="3" fill="#2C3647" fill-opacity="0.2"/>
<circle cx="447" cy="74" r="3" fill="#2C3647" fill-opacity="0.2"/>
<circle cx="469" cy="74" r="3" fill="#2C3647" fill-opacity="0.2"/>
<circle cx="491" cy="74" r="3" fill="#2C3647" fill-opacity="0.2"/>
<circle cx="513" cy="74" r="3" fill="#2C3647" fill-opacity="0.2"/>
<circle cx="370" cy="63" r="3" fill="#2C3647" fill-opacity="0.1"/>
<circle cx="392" cy="63" r="3" fill="#2C3647" fill-opacity="0.1"/>
<circle cx="414" cy="63" r="3" fill="#2C3647" fill-opacity="0.1"/>
<circle cx="436" cy="63" r="3" fill="#2C3647" fill-opacity="0.1"/>
<circle cx="426" cy="52" r="3" fill="#2C3647" fill-opacity="0.1"/>
<circle cx="458" cy="63" r="3" fill="#2C3647" fill-opacity="0.1"/>
<circle cx="448" cy="52" r="3" fill="#2C3647" fill-opacity="0.1"/>
<circle cx="461" cy="41" r="3" fill="#2C3647" fill-opacity="0.1"/>
<circle cx="480" cy="63" r="3" fill="#2C3647" fill-opacity="0.1"/>
<circle cx="470" cy="52" r="3" fill="#2C3647" fill-opacity="0.1"/>
<circle cx="483" cy="41" r="3" fill="#2C3647" fill-opacity="0.1"/>
<circle cx="502" cy="63" r="3" fill="#2C3647" fill-opacity="0.1"/>
<circle cx="492" cy="52" r="3" fill="#2C3647" fill-opacity="0.1"/>
<circle cx="524" cy="63" r="3" fill="#2C3647" fill-opacity="0.1"/>
<circle cx="359" cy="85" r="3" fill="#2C3647" fill-opacity="0.3"/>
<circle cx="359" cy="74" r="3" fill="#2C3647" fill-opacity="0.2"/>
<circle cx="348" cy="96" r="3" fill="#2C3647" fill-opacity="0.4"/>
<circle cx="348" cy="85" r="3" fill="#2C3647" fill-opacity="0.3"/>
<circle cx="348" cy="63" r="3" fill="#2C3647" fill-opacity="0.1"/>
<circle cx="337" cy="96" r="3" fill="#2C3647" fill-opacity="0.4"/>
<circle cx="337" cy="85" r="3" fill="#2C3647" fill-opacity="0.3"/>
<circle cx="337" cy="74" r="3" fill="#2C3647" fill-opacity="0.2"/>
<circle cx="370" cy="118" r="3" fill="#2C3647" fill-opacity="0.4"/>
<circle cx="381" cy="118" r="3" fill="#2C3647" fill-opacity="0.4"/>
<circle cx="392" cy="118" r="3" fill="#2C3647" fill-opacity="0.4"/>
<circle cx="403" cy="118" r="3" fill="#2C3647" fill-opacity="0.4"/>
<circle cx="414" cy="118" r="3" fill="#2C3647" fill-opacity="0.4"/>
<circle cx="425" cy="118" r="3" fill="#2C3647" fill-opacity="0.4"/>
<circle cx="436" cy="118" r="3" fill="#2C3647" fill-opacity="0.4"/>
<circle cx="447" cy="118" r="3" fill="#2C3647" fill-opacity="0.4"/>
<circle cx="458" cy="118" r="3" fill="#2C3647" fill-opacity="0.4"/>
<circle cx="469" cy="118" r="3" fill="#2C3647" fill-opacity="0.4"/>
<circle cx="480" cy="118" r="3" fill="#2C3647" fill-opacity="0.4"/>
<circle cx="491" cy="118" r="3" fill="#2C3647" fill-opacity="0.4"/>
<circle cx="502" cy="118" r="3" fill="#2C3647" fill-opacity="0.3"/>
<circle cx="513" cy="118" r="3" fill="#2C3647" fill-opacity="0.2"/>
<circle cx="359" cy="118" r="3" fill="#2C3647" fill-opacity="0.4"/>
<circle cx="348" cy="118" r="3" fill="#2C3647" fill-opacity="0.4"/>
<circle cx="337" cy="118" r="3" fill="#2C3647" fill-opacity="0.5"/>
<circle cx="381" cy="140" r="3" fill="#2C3647" fill-opacity="0.2"/>
<circle cx="403" cy="140" r="3" fill="#2C3647" fill-opacity="0.2"/>
<circle cx="425" cy="140" r="3" fill="#2C3647" fill-opacity="0.2"/>
<circle cx="447" cy="140" r="3" fill="#2C3647" fill-opacity="0.2"/>
<circle cx="469" cy="140" r="3" fill="#2C3647" fill-opacity="0.2"/>
<circle cx="491" cy="140" r="3" fill="#2C3647" fill-opacity="0.2"/>
<circle cx="513" cy="140" r="3" fill="#2C3647" fill-opacity="0.2"/>
<circle cx="359" cy="140" r="3" fill="#2C3647" fill-opacity="0.2"/>
<circle cx="337" cy="140" r="3" fill="#2C3647" fill-opacity="0.2"/>
<circle cx="370" cy="107" r="3" fill="#2C3647" fill-opacity="0.5"/>
<circle cx="381" cy="107" r="3" fill="#2C3647" fill-opacity="0.5"/>
<circle cx="392" cy="107" r="3" fill="#2C3647" fill-opacity="0.5"/>
<circle cx="403" cy="107" r="3" fill="#2C3647" fill-opacity="0.5"/>
<circle cx="425" cy="107" r="3" fill="#2C3647" fill-opacity="0.5"/>
<circle cx="436" cy="107" r="3" fill="#2C3647" fill-opacity="0.5"/>
<circle cx="447" cy="107" r="3" fill="#2C3647" fill-opacity="0.5"/>
<circle cx="458" cy="107" r="3" fill="#2C3647" fill-opacity="0.5"/>
<circle cx="469" cy="107" r="3" fill="#2C3647" fill-opacity="0.5"/>
<circle cx="491" cy="107" r="3" fill="#2C3647" fill-opacity="0.4"/>
<circle cx="502" cy="107" r="3" fill="#2C3647" fill-opacity="0.3"/>
<circle cx="524" cy="107" r="3" fill="#2C3647" fill-opacity="0.1"/>
<circle cx="359" cy="107" r="3" fill="#2C3647" fill-opacity="0.5"/>
<circle cx="337" cy="107" r="3" fill="#2C3647" fill-opacity="0.4"/>
<circle cx="370" cy="129" r="3" fill="#2C3647" fill-opacity="0.3"/>
<circle cx="392" cy="129" r="3" fill="#2C3647" fill-opacity="0.3"/>
<circle cx="414" cy="129" r="3" fill="#2C3647" fill-opacity="0.3"/>
<circle cx="425" cy="129" r="3" fill="#2C3647" fill-opacity="0.3"/>
<circle cx="436" cy="129" r="3" fill="#2C3647" fill-opacity="0.3"/>
<circle cx="458" cy="129" r="3" fill="#2C3647" fill-opacity="0.3"/>
<circle cx="469" cy="129" r="3" fill="#2C3647" fill-opacity="0.3"/>
<circle cx="491" cy="129" r="3" fill="#2C3647" fill-opacity="0.3"/>
<circle cx="502" cy="129" r="3" fill="#2C3647" fill-opacity="0.3"/>
<circle cx="524" cy="129" r="3" fill="#2C3647" fill-opacity="0.1"/>
<circle cx="348" cy="129" r="3" fill="#2C3647" fill-opacity="0.3"/>
<circle cx="370" cy="151" r="3" fill="#2C3647" fill-opacity="0.1"/>
<circle cx="392" cy="151" r="3" fill="#2C3647" fill-opacity="0.1"/>
<circle cx="414" cy="151" r="3" fill="#2C3647" fill-opacity="0.1"/>
<circle cx="436" cy="151" r="3" fill="#2C3647" fill-opacity="0.1"/>
<circle cx="458" cy="151" r="3" fill="#2C3647" fill-opacity="0.1"/>
<circle cx="480" cy="151" r="3" fill="#2C3647" fill-opacity="0.1"/>
<circle cx="502" cy="151" r="3" fill="#2C3647" fill-opacity="0.1"/>
<circle cx="524" cy="151" r="3" fill="#2C3647" fill-opacity="0.1"/>
<circle cx="348" cy="151" r="3" fill="#2C3647" fill-opacity="0.1"/>
<circle cx="326" cy="96" r="3" fill="#2C3647" fill-opacity="0.3"/>
<circle cx="326" cy="63" r="3" fill="#2C3647" fill-opacity="0.1"/>
<circle cx="315" cy="85" r="3" fill="#2C3647" fill-opacity="0.2"/>
<circle cx="326" cy="118" r="3" fill="#2C3647" fill-opacity="0.3"/>
<circle cx="315" cy="118" r="3" fill="#2C3647" fill-opacity="0.2"/>
<circle cx="315" cy="140" r="3" fill="#2C3647" fill-opacity="0.2"/>
<circle cx="326" cy="107" r="3" fill="#2C3647" fill-opacity="0.3"/>
<circle cx="315" cy="107" r="3" fill="#2C3647" fill-opacity="0.2"/>
<circle cx="326" cy="129" r="3" fill="#2C3647" fill-opacity="0.3"/>
<circle cx="326" cy="151" r="3" fill="#2C3647" fill-opacity="0.1"/>
<circle cx="304" cy="85" r="3" fill="#2C3647" fill-opacity="0.1"/>
<circle cx="304" cy="63" r="3" fill="#2C3647" fill-opacity="0.1"/>
<circle cx="304" cy="107" r="3" fill="#2C3647" fill-opacity="0.1"/>
<circle cx="304" cy="129" r="3" fill="#2C3647" fill-opacity="0.1"/>
<circle cx="304" cy="151" r="3" fill="#2C3647" fill-opacity="0.1"/>
</g>
<g opacity="0.15">
<circle cx="161" cy="57" r="3" fill="#2C3647" fill-opacity="0.4"/>
<circle cx="183" cy="57" r="3" fill="#2C3647" fill-opacity="0.4"/>
<circle cx="194" cy="57" r="3" fill="#2C3647" fill-opacity="0.4"/>
<circle cx="205" cy="57" r="3" fill="#2C3647" fill-opacity="0.4"/>
<circle cx="227" cy="57" r="3" fill="#2C3647" fill-opacity="0.4"/>
<circle cx="238" cy="57" r="3" fill="#2C3647" fill-opacity="0.4"/>
<circle cx="249" cy="57" r="3" fill="#2C3647" fill-opacity="0.4"/>
<circle cx="271" cy="57" r="3" fill="#2C3647" fill-opacity="0.4"/>
<circle cx="282" cy="57" r="3" fill="#2C3647" fill-opacity="0.4"/>
<circle cx="293" cy="57" r="3" fill="#2C3647" fill-opacity="0.3"/>
<circle cx="304" cy="57" r="3" fill="#2C3647" fill-opacity="0.2"/>
<circle cx="161" cy="46" r="3" fill="#2C3647" fill-opacity="0.3"/>
<circle cx="172" cy="46" r="3" fill="#2C3647" fill-opacity="0.3"/>
<circle cx="183" cy="46" r="3" fill="#2C3647" fill-opacity="0.3"/>
<circle cx="194" cy="46" r="3" fill="#2C3647" fill-opacity="0.3"/>
<circle cx="205" cy="46" r="3" fill="#2C3647" fill-opacity="0.3"/>
<circle cx="216" cy="46" r="3" fill="#2C3647" fill-opacity="0.3"/>
<circle cx="227" cy="46" r="3" fill="#2C3647" fill-opacity="0.3"/>
<circle cx="238" cy="46" r="3" fill="#2C3647" fill-opacity="0.3"/>
<circle cx="249" cy="46" r="3" fill="#2C3647" fill-opacity="0.3"/>
<circle cx="260" cy="46" r="3" fill="#2C3647" fill-opacity="0.3"/>
<circle cx="271" cy="46" r="3" fill="#2C3647" fill-opacity="0.3"/>
<circle cx="282" cy="46" r="3" fill="#2C3647" fill-opacity="0.3"/>
<circle cx="293" cy="46" r="3" fill="#2C3647" fill-opacity="0.3"/>
<circle cx="315" cy="46" r="3" fill="#2C3647" fill-opacity="0.1"/>
<circle cx="172" cy="35" r="3" fill="#2C3647" fill-opacity="0.2"/>
<circle cx="194" cy="35" r="3" fill="#2C3647" fill-opacity="0.2"/>
<circle cx="216" cy="35" r="3" fill="#2C3647" fill-opacity="0.2"/>
<circle cx="238" cy="35" r="3" fill="#2C3647" fill-opacity="0.2"/>
<circle cx="260" cy="35" r="3" fill="#2C3647" fill-opacity="0.2"/>
<circle cx="282" cy="35" r="3" fill="#2C3647" fill-opacity="0.2"/>
<circle cx="304" cy="35" r="3" fill="#2C3647" fill-opacity="0.2"/>
<circle cx="161" cy="24" r="3" fill="#2C3647" fill-opacity="0.1"/>
<circle cx="183" cy="24" r="3" fill="#2C3647" fill-opacity="0.1"/>
<circle cx="205" cy="24" r="3" fill="#2C3647" fill-opacity="0.1"/>
<circle cx="227" cy="24" r="3" fill="#2C3647" fill-opacity="0.1"/>
<circle cx="249" cy="24" r="3" fill="#2C3647" fill-opacity="0.1"/>
<circle cx="271" cy="24" r="3" fill="#2C3647" fill-opacity="0.1"/>
<circle cx="293" cy="24" r="3" fill="#2C3647" fill-opacity="0.1"/>
<circle cx="315" cy="24" r="3" fill="#2C3647" fill-opacity="0.1"/>
<circle cx="150" cy="46" r="3" fill="#2C3647" fill-opacity="0.3"/>
<circle cx="150" cy="35" r="3" fill="#2C3647" fill-opacity="0.2"/>
<circle cx="139" cy="57" r="3" fill="#2C3647" fill-opacity="0.4"/>
<circle cx="139" cy="46" r="3" fill="#2C3647" fill-opacity="0.3"/>
<circle cx="139" cy="24" r="3" fill="#2C3647" fill-opacity="0.1"/>
<circle cx="128" cy="57" r="3" fill="#2C3647" fill-opacity="0.4"/>
<circle cx="128" cy="46" r="3" fill="#2C3647" fill-opacity="0.3"/>
<circle cx="128" cy="35" r="3" fill="#2C3647" fill-opacity="0.2"/>
<circle cx="161" cy="79" r="3" fill="#2C3647" fill-opacity="0.4"/>
<circle cx="172" cy="79" r="3" fill="#2C3647" fill-opacity="0.4"/>
<circle cx="183" cy="79" r="3" fill="#2C3647" fill-opacity="0.4"/>
<circle cx="194" cy="79" r="3" fill="#2C3647" fill-opacity="0.4"/>
<circle cx="205" cy="79" r="3" fill="#2C3647" fill-opacity="0.4"/>
<circle cx="216" cy="79" r="3" fill="#2C3647" fill-opacity="0.4"/>
<circle cx="227" cy="79" r="3" fill="#2C3647" fill-opacity="0.4"/>
<circle cx="238" cy="79" r="3" fill="#2C3647" fill-opacity="0.4"/>
<circle cx="249" cy="79" r="3" fill="#2C3647" fill-opacity="0.4"/>
<circle cx="260" cy="79" r="3" fill="#2C3647" fill-opacity="0.4"/>
<circle cx="271" cy="79" r="3" fill="#2C3647" fill-opacity="0.4"/>
<circle cx="282" cy="79" r="3" fill="#2C3647" fill-opacity="0.4"/>
<circle cx="293" cy="79" r="3" fill="#2C3647" fill-opacity="0.3"/>
<circle cx="304" cy="79" r="3" fill="#2C3647" fill-opacity="0.2"/>
<circle cx="150" cy="79" r="3" fill="#2C3647" fill-opacity="0.4"/>
<circle cx="139" cy="79" r="3" fill="#2C3647" fill-opacity="0.4"/>
<circle cx="128" cy="79" r="3" fill="#2C3647" fill-opacity="0.5"/>
<circle cx="172" cy="101" r="3" fill="#2C3647" fill-opacity="0.2"/>
<circle cx="194" cy="101" r="3" fill="#2C3647" fill-opacity="0.2"/>
<circle cx="216" cy="101" r="3" fill="#2C3647" fill-opacity="0.2"/>
<circle cx="238" cy="101" r="3" fill="#2C3647" fill-opacity="0.2"/>
<circle cx="260" cy="101" r="3" fill="#2C3647" fill-opacity="0.2"/>
<circle cx="282" cy="101" r="3" fill="#2C3647" fill-opacity="0.2"/>
<circle cx="304" cy="101" r="3" fill="#2C3647" fill-opacity="0.2"/>
<circle cx="150" cy="101" r="3" fill="#2C3647" fill-opacity="0.2"/>
<circle cx="128" cy="101" r="3" fill="#2C3647" fill-opacity="0.2"/>
<circle cx="161" cy="68" r="3" fill="#2C3647" fill-opacity="0.5"/>
<circle cx="172" cy="68" r="3" fill="#2C3647" fill-opacity="0.5"/>
<circle cx="183" cy="68" r="3" fill="#2C3647" fill-opacity="0.5"/>
<circle cx="194" cy="68" r="3" fill="#2C3647" fill-opacity="0.5"/>
<circle cx="216" cy="68" r="3" fill="#2C3647" fill-opacity="0.5"/>
<circle cx="227" cy="68" r="3" fill="#2C3647" fill-opacity="0.5"/>
<circle cx="238" cy="68" r="3" fill="#2C3647" fill-opacity="0.5"/>
<circle cx="249" cy="68" r="3" fill="#2C3647" fill-opacity="0.5"/>
<circle cx="260" cy="68" r="3" fill="#2C3647" fill-opacity="0.5"/>
<circle cx="282" cy="68" r="3" fill="#2C3647" fill-opacity="0.4"/>
<circle cx="293" cy="68" r="3" fill="#2C3647" fill-opacity="0.3"/>
<circle cx="315" cy="68" r="3" fill="#2C3647" fill-opacity="0.1"/>
<circle cx="150" cy="68" r="3" fill="#2C3647" fill-opacity="0.5"/>
<circle cx="128" cy="68" r="3" fill="#2C3647" fill-opacity="0.4"/>
<circle cx="161" cy="90" r="3" fill="#2C3647" fill-opacity="0.3"/>
<circle cx="183" cy="90" r="3" fill="#2C3647" fill-opacity="0.3"/>
<circle cx="205" cy="90" r="3" fill="#2C3647" fill-opacity="0.3"/>
<circle cx="216" cy="90" r="3" fill="#2C3647" fill-opacity="0.3"/>
<circle cx="227" cy="90" r="3" fill="#2C3647" fill-opacity="0.3"/>
<circle cx="249" cy="90" r="3" fill="#2C3647" fill-opacity="0.3"/>
<circle cx="260" cy="90" r="3" fill="#2C3647" fill-opacity="0.3"/>
<circle cx="282" cy="90" r="3" fill="#2C3647" fill-opacity="0.3"/>
<circle cx="293" cy="90" r="3" fill="#2C3647" fill-opacity="0.3"/>
<circle cx="315" cy="90" r="3" fill="#2C3647" fill-opacity="0.1"/>
<circle cx="139" cy="90" r="3" fill="#2C3647" fill-opacity="0.3"/>
<circle cx="161" cy="112" r="3" fill="#2C3647" fill-opacity="0.1"/>
<circle cx="183" cy="112" r="3" fill="#2C3647" fill-opacity="0.1"/>
<circle cx="205" cy="112" r="3" fill="#2C3647" fill-opacity="0.1"/>
<circle cx="227" cy="112" r="3" fill="#2C3647" fill-opacity="0.1"/>
<circle cx="249" cy="112" r="3" fill="#2C3647" fill-opacity="0.1"/>
<circle cx="271" cy="112" r="3" fill="#2C3647" fill-opacity="0.1"/>
<circle cx="293" cy="112" r="3" fill="#2C3647" fill-opacity="0.1"/>
<circle cx="315" cy="112" r="3" fill="#2C3647" fill-opacity="0.1"/>
<circle cx="139" cy="112" r="3" fill="#2C3647" fill-opacity="0.1"/>
<circle cx="117" cy="57" r="3" fill="#2C3647" fill-opacity="0.3"/>
<circle cx="117" cy="24" r="3" fill="#2C3647" fill-opacity="0.1"/>
<circle cx="106" cy="46" r="3" fill="#2C3647" fill-opacity="0.2"/>
<circle cx="117" cy="79" r="3" fill="#2C3647" fill-opacity="0.3"/>
<circle cx="106" cy="79" r="3" fill="#2C3647" fill-opacity="0.2"/>
<circle cx="106" cy="101" r="3" fill="#2C3647" fill-opacity="0.2"/>
<circle cx="117" cy="68" r="3" fill="#2C3647" fill-opacity="0.3"/>
<circle cx="106" cy="68" r="3" fill="#2C3647" fill-opacity="0.2"/>
<circle cx="117" cy="90" r="3" fill="#2C3647" fill-opacity="0.3"/>
<circle cx="117" cy="112" r="3" fill="#2C3647" fill-opacity="0.1"/>
<circle cx="95" cy="46" r="3" fill="#2C3647" fill-opacity="0.1"/>
<circle cx="95" cy="24" r="3" fill="#2C3647" fill-opacity="0.1"/>
<circle cx="95" cy="68" r="3" fill="#2C3647" fill-opacity="0.1"/>
<circle cx="95" cy="90" r="3" fill="#2C3647" fill-opacity="0.1"/>
<circle cx="95" cy="112" r="3" fill="#2C3647" fill-opacity="0.1"/>
</g>
<g opacity="0.15">
<circle cx="116" cy="87" r="3" fill="#2C3647" fill-opacity="0.4"/>
<circle cx="138" cy="87" r="3" fill="#2C3647" fill-opacity="0.4"/>
<circle cx="149" cy="87" r="3" fill="#2C3647" fill-opacity="0.4"/>
<circle cx="160" cy="87" r="3" fill="#2C3647" fill-opacity="0.4"/>
<circle cx="182" cy="87" r="3" fill="#2C3647" fill-opacity="0.4"/>
<circle cx="193" cy="87" r="3" fill="#2C3647" fill-opacity="0.4"/>
<circle cx="204" cy="87" r="3" fill="#2C3647" fill-opacity="0.4"/>
<circle cx="226" cy="87" r="3" fill="#2C3647" fill-opacity="0.4"/>
<circle cx="237" cy="87" r="3" fill="#2C3647" fill-opacity="0.4"/>
<circle cx="248" cy="87" r="3" fill="#2C3647" fill-opacity="0.3"/>
<circle cx="259" cy="87" r="3" fill="#2C3647" fill-opacity="0.2"/>
<circle cx="116" cy="76" r="3" fill="#2C3647" fill-opacity="0.3"/>
<circle cx="127" cy="76" r="3" fill="#2C3647" fill-opacity="0.3"/>
<circle cx="138" cy="76" r="3" fill="#2C3647" fill-opacity="0.3"/>
<circle cx="149" cy="76" r="3" fill="#2C3647" fill-opacity="0.3"/>
<circle cx="160" cy="76" r="3" fill="#2C3647" fill-opacity="0.3"/>
<circle cx="171" cy="76" r="3" fill="#2C3647" fill-opacity="0.3"/>
<circle cx="182" cy="76" r="3" fill="#2C3647" fill-opacity="0.3"/>
<circle cx="193" cy="76" r="3" fill="#2C3647" fill-opacity="0.3"/>
<circle cx="204" cy="76" r="3" fill="#2C3647" fill-opacity="0.3"/>
<circle cx="215" cy="76" r="3" fill="#2C3647" fill-opacity="0.3"/>
<circle cx="226" cy="76" r="3" fill="#2C3647" fill-opacity="0.3"/>
<circle cx="237" cy="76" r="3" fill="#2C3647" fill-opacity="0.3"/>
<circle cx="248" cy="76" r="3" fill="#2C3647" fill-opacity="0.3"/>
<circle cx="270" cy="76" r="3" fill="#2C3647" fill-opacity="0.1"/>
<circle cx="127" cy="65" r="3" fill="#2C3647" fill-opacity="0.2"/>
<circle cx="149" cy="65" r="3" fill="#2C3647" fill-opacity="0.2"/>
<circle cx="171" cy="65" r="3" fill="#2C3647" fill-opacity="0.2"/>
<circle cx="193" cy="65" r="3" fill="#2C3647" fill-opacity="0.2"/>
<circle cx="215" cy="65" r="3" fill="#2C3647" fill-opacity="0.2"/>
<circle cx="237" cy="65" r="3" fill="#2C3647" fill-opacity="0.2"/>
<circle cx="259" cy="65" r="3" fill="#2C3647" fill-opacity="0.2"/>
<circle cx="116" cy="54" r="3" fill="#2C3647" fill-opacity="0.1"/>
<circle cx="138" cy="54" r="3" fill="#2C3647" fill-opacity="0.1"/>
<circle cx="160" cy="54" r="3" fill="#2C3647" fill-opacity="0.1"/>
<circle cx="182" cy="54" r="3" fill="#2C3647" fill-opacity="0.1"/>
<circle cx="204" cy="54" r="3" fill="#2C3647" fill-opacity="0.1"/>
<circle cx="226" cy="54" r="3" fill="#2C3647" fill-opacity="0.1"/>
<circle cx="248" cy="54" r="3" fill="#2C3647" fill-opacity="0.1"/>
<circle cx="270" cy="54" r="3" fill="#2C3647" fill-opacity="0.1"/>
<circle cx="105" cy="76" r="3" fill="#2C3647" fill-opacity="0.3"/>
<circle cx="105" cy="65" r="3" fill="#2C3647" fill-opacity="0.2"/>
<circle cx="94" cy="87" r="3" fill="#2C3647" fill-opacity="0.4"/>
<circle cx="94" cy="76" r="3" fill="#2C3647" fill-opacity="0.3"/>
<circle cx="94" cy="54" r="3" fill="#2C3647" fill-opacity="0.1"/>
<circle cx="83" cy="87" r="3" fill="#2C3647" fill-opacity="0.4"/>
<circle cx="83" cy="76" r="3" fill="#2C3647" fill-opacity="0.3"/>
<circle cx="83" cy="65" r="3" fill="#2C3647" fill-opacity="0.2"/>
<circle cx="116" cy="109" r="3" fill="#2C3647" fill-opacity="0.4"/>
<circle cx="127" cy="109" r="3" fill="#2C3647" fill-opacity="0.4"/>
<circle cx="138" cy="109" r="3" fill="#2C3647" fill-opacity="0.4"/>
<circle cx="149" cy="109" r="3" fill="#2C3647" fill-opacity="0.4"/>
<circle cx="160" cy="109" r="3" fill="#2C3647" fill-opacity="0.4"/>
<circle cx="171" cy="109" r="3" fill="#2C3647" fill-opacity="0.4"/>
<circle cx="182" cy="109" r="3" fill="#2C3647" fill-opacity="0.4"/>
<circle cx="193" cy="109" r="3" fill="#2C3647" fill-opacity="0.4"/>
<circle cx="204" cy="109" r="3" fill="#2C3647" fill-opacity="0.4"/>
<circle cx="215" cy="109" r="3" fill="#2C3647" fill-opacity="0.4"/>
<circle cx="226" cy="109" r="3" fill="#2C3647" fill-opacity="0.4"/>
<circle cx="237" cy="109" r="3" fill="#2C3647" fill-opacity="0.4"/>
<circle cx="248" cy="109" r="3" fill="#2C3647" fill-opacity="0.3"/>
<circle cx="259" cy="109" r="3" fill="#2C3647" fill-opacity="0.2"/>
<circle cx="105" cy="109" r="3" fill="#2C3647" fill-opacity="0.4"/>
<circle cx="94" cy="109" r="3" fill="#2C3647" fill-opacity="0.4"/>
<circle cx="83" cy="109" r="3" fill="#2C3647" fill-opacity="0.5"/>
<circle cx="127" cy="131" r="3" fill="#2C3647" fill-opacity="0.2"/>
<circle cx="149" cy="131" r="3" fill="#2C3647" fill-opacity="0.2"/>
<circle cx="171" cy="131" r="3" fill="#2C3647" fill-opacity="0.2"/>
<circle cx="193" cy="131" r="3" fill="#2C3647" fill-opacity="0.2"/>
<circle cx="215" cy="131" r="3" fill="#2C3647" fill-opacity="0.2"/>
<circle cx="237" cy="131" r="3" fill="#2C3647" fill-opacity="0.2"/>
<circle cx="259" cy="131" r="3" fill="#2C3647" fill-opacity="0.2"/>
<circle cx="105" cy="131" r="3" fill="#2C3647" fill-opacity="0.2"/>
<circle cx="83" cy="131" r="3" fill="#2C3647" fill-opacity="0.2"/>
<circle cx="116" cy="98" r="3" fill="#2C3647" fill-opacity="0.5"/>
<circle cx="127" cy="98" r="3" fill="#2C3647" fill-opacity="0.5"/>
<circle cx="138" cy="98" r="3" fill="#2C3647" fill-opacity="0.5"/>
<circle cx="149" cy="98" r="3" fill="#2C3647" fill-opacity="0.5"/>
<circle cx="171" cy="98" r="3" fill="#2C3647" fill-opacity="0.5"/>
<circle cx="182" cy="98" r="3" fill="#2C3647" fill-opacity="0.5"/>
<circle cx="193" cy="98" r="3" fill="#2C3647" fill-opacity="0.5"/>
<circle cx="204" cy="98" r="3" fill="#2C3647" fill-opacity="0.5"/>
<circle cx="215" cy="98" r="3" fill="#2C3647" fill-opacity="0.5"/>
<circle cx="237" cy="98" r="3" fill="#2C3647" fill-opacity="0.4"/>
<circle cx="248" cy="98" r="3" fill="#2C3647" fill-opacity="0.3"/>
<circle cx="270" cy="98" r="3" fill="#2C3647" fill-opacity="0.1"/>
<circle cx="105" cy="98" r="3" fill="#2C3647" fill-opacity="0.5"/>
<circle cx="83" cy="98" r="3" fill="#2C3647" fill-opacity="0.4"/>
<circle cx="116" cy="120" r="3" fill="#2C3647" fill-opacity="0.3"/>
<circle cx="138" cy="120" r="3" fill="#2C3647" fill-opacity="0.3"/>
<circle cx="160" cy="120" r="3" fill="#2C3647" fill-opacity="0.3"/>
<circle cx="171" cy="120" r="3" fill="#2C3647" fill-opacity="0.3"/>
<circle cx="182" cy="120" r="3" fill="#2C3647" fill-opacity="0.3"/>
<circle cx="204" cy="120" r="3" fill="#2C3647" fill-opacity="0.3"/>
<circle cx="215" cy="120" r="3" fill="#2C3647" fill-opacity="0.3"/>
<circle cx="237" cy="120" r="3" fill="#2C3647" fill-opacity="0.3"/>
<circle cx="248" cy="120" r="3" fill="#2C3647" fill-opacity="0.3"/>
<circle cx="270" cy="120" r="3" fill="#2C3647" fill-opacity="0.1"/>
<circle cx="94" cy="120" r="3" fill="#2C3647" fill-opacity="0.3"/>
<circle cx="116" cy="142" r="3" fill="#2C3647" fill-opacity="0.1"/>
<circle cx="138" cy="142" r="3" fill="#2C3647" fill-opacity="0.1"/>
<circle cx="160" cy="142" r="3" fill="#2C3647" fill-opacity="0.1"/>
<circle cx="182" cy="142" r="3" fill="#2C3647" fill-opacity="0.1"/>
<circle cx="204" cy="142" r="3" fill="#2C3647" fill-opacity="0.1"/>
<circle cx="226" cy="142" r="3" fill="#2C3647" fill-opacity="0.1"/>
<circle cx="248" cy="142" r="3" fill="#2C3647" fill-opacity="0.1"/>
<circle cx="270" cy="142" r="3" fill="#2C3647" fill-opacity="0.1"/>
<circle cx="94" cy="142" r="3" fill="#2C3647" fill-opacity="0.1"/>
<circle cx="72" cy="87" r="3" fill="#2C3647" fill-opacity="0.3"/>
<circle cx="72" cy="54" r="3" fill="#2C3647" fill-opacity="0.1"/>
<circle cx="61" cy="76" r="3" fill="#2C3647" fill-opacity="0.2"/>
<circle cx="72" cy="109" r="3" fill="#2C3647" fill-opacity="0.3"/>
<circle cx="61" cy="109" r="3" fill="#2C3647" fill-opacity="0.2"/>
<circle cx="61" cy="131" r="3" fill="#2C3647" fill-opacity="0.2"/>
<circle cx="72" cy="98" r="3" fill="#2C3647" fill-opacity="0.3"/>
<circle cx="61" cy="98" r="3" fill="#2C3647" fill-opacity="0.2"/>
<circle cx="72" cy="120" r="3" fill="#2C3647" fill-opacity="0.3"/>
<circle cx="72" cy="142" r="3" fill="#2C3647" fill-opacity="0.1"/>
<circle cx="50" cy="76" r="3" fill="#2C3647" fill-opacity="0.1"/>
<circle cx="50" cy="54" r="3" fill="#2C3647" fill-opacity="0.1"/>
<circle cx="50" cy="98" r="3" fill="#2C3647" fill-opacity="0.1"/>
<circle cx="50" cy="120" r="3" fill="#2C3647" fill-opacity="0.1"/>
<circle cx="50" cy="142" r="3" fill="#2C3647" fill-opacity="0.1"/>
</g>
<circle cx="389.5" cy="365.5" r="147.5" stroke="#FFC01E" stroke-opacity="0.2" stroke-width="2"/>
<circle cx="389.5" cy="365.5" r="105.581" stroke="#AA7D0B" stroke-opacity="0.2" stroke-width="2"/>
<path d="M196.5 328.446C205.613 328.446 213 335.913 213 345.124C213 354.335 205.613 361.803 196.5 361.803C187.387 361.803 180 354.335 180 345.124C180 335.913 187.387 328.446 196.5 328.446Z" fill="#B6CAE5"/>
<path d="M180.5 0.940674C189.613 0.940674 197 8.40788 197 17.6191C197 26.8304 189.613 34.2976 180.5 34.2976C171.387 34.2976 164 26.8304 164 17.6191C164 8.40788 171.387 0.940674 180.5 0.940674Z" fill="#B6CAE5"/>
<path d="M119.5 130.325C128.613 130.325 136 137.793 136 147.004C136 156.215 128.613 163.682 119.5 163.682C110.387 163.682 103 156.215 103 147.004C103 137.793 110.387 130.325 119.5 130.325Z" fill="#52D1BC"/>
<path d="M362.5 24.1893C367.747 24.1893 372 28.4886 372 33.7921C372 39.0956 367.747 43.3949 362.5 43.3949C357.253 43.3949 353 39.0956 353 33.7921C353 28.4886 357.253 24.1893 362.5 24.1893Z" fill="#B6CAE5"/>
<path d="M506.5 161.661C511.747 161.661 516 165.96 516 171.263C516 176.567 511.747 180.866 506.5 180.866C501.253 180.866 497 176.567 497 171.263C497 165.96 501.253 161.661 506.5 161.661Z" fill="#52D1BC"/>
<path d="M221 25.2003C225.971 25.2003 230 29.2733 230 34.2976C230 39.3219 225.971 43.3949 221 43.3949C216.029 43.3949 212 39.3219 212 34.2976C212 29.2733 216.029 25.2003 221 25.2003Z" fill="#52D1BC"/>
<path d="M243.842 156.931C246.891 150.408 250.758 144.111 255.613 138.172C293.766 91.4987 368.737 95.4303 412.697 133.054C461.451 174.779 456.943 245.004 455.946 257.002C452.48 298.743 430.809 366.688 380.961 380.53C357.805 386.96 335.709 379.729 316.431 366.316C301.207 355.723 281.132 356.712 266.601 369.13C261.105 373.827 254.978 377.797 248.171 380.609C232.766 386.972 219.052 385.267 213.112 384.454C166.808 378.112 121.577 325.395 122.003 276.102C122.494 219.539 183.029 176.153 243.842 156.931Z" fill="#ECF3FE"/>
<path d="M415.254 231.562V342.768C415.254 342.903 415.248 343.038 415.242 343.18C415.242 343.245 415.236 343.309 415.229 343.374C415.229 343.432 415.223 343.496 415.217 343.561C415.217 343.587 415.211 343.612 415.211 343.637C415.205 343.683 415.197 343.722 415.191 343.76C415.185 343.857 415.165 343.953 415.153 344.05C415.14 344.14 415.12 344.237 415.101 344.327C415.094 344.372 415.081 344.417 415.069 344.462C415.069 344.494 415.062 344.533 415.049 344.565C415.043 344.609 415.029 344.655 415.017 344.7C414.997 344.784 414.972 344.867 414.952 344.945C414.952 344.957 414.946 344.977 414.939 344.989C414.894 345.132 414.855 345.273 414.804 345.408C414.804 345.414 414.804 345.421 414.798 345.428C414.772 345.498 414.746 345.569 414.721 345.634C414.695 345.699 414.669 345.757 414.65 345.815C414.644 345.835 414.63 345.853 414.63 345.867C414.553 346.041 414.476 346.221 414.385 346.389C414.359 346.441 414.327 346.506 414.295 346.564C414.263 346.622 414.231 346.673 414.198 346.731C414.166 346.783 414.14 346.84 414.102 346.892C414.037 347.001 413.967 347.111 413.895 347.214C413.85 347.284 413.805 347.343 413.766 347.407C413.657 347.548 413.553 347.691 413.438 347.826C413.354 347.928 413.271 348.025 413.187 348.115C413.103 348.212 413.013 348.302 412.923 348.393C412.885 348.437 412.839 348.477 412.794 348.521C412.756 348.56 412.717 348.598 412.672 348.63C412.626 348.676 412.575 348.721 412.523 348.765C412.511 348.778 412.491 348.791 412.478 348.804C412.355 348.913 412.226 349.017 412.098 349.113C412.084 349.119 412.072 349.133 412.059 349.145C411.956 349.216 411.852 349.294 411.743 349.365C411.705 349.39 411.673 349.416 411.641 349.435C411.582 349.474 411.524 349.512 411.467 349.545C411.421 349.577 411.377 349.603 411.325 349.629C411.273 349.662 411.222 349.694 411.17 349.72C410.81 349.926 410.43 350.1 410.036 350.241C410.01 350.247 409.992 350.261 409.966 350.267C409.94 350.273 409.907 350.287 409.881 350.293C409.791 350.325 409.701 350.357 409.604 350.383C409.443 350.435 409.282 350.474 409.121 350.512C409.037 350.532 408.954 350.55 408.87 350.57C408.818 350.583 408.761 350.59 408.709 350.596C408.645 350.609 408.574 350.622 408.51 350.635C408.497 350.635 408.49 350.635 408.484 350.641C408.432 350.647 408.381 350.653 408.323 350.661C408.297 350.661 408.271 350.667 408.246 350.667C408.201 350.673 408.149 350.679 408.105 350.685C408.079 350.685 408.053 350.692 408.021 350.692C407.924 350.698 407.821 350.705 407.724 350.711C407.582 350.718 407.44 350.724 407.299 350.724H210.829C210.687 350.724 210.545 350.718 210.404 350.711C210.307 350.705 210.204 350.699 210.108 350.692C209.999 350.685 209.889 350.672 209.78 350.653C209.715 350.647 209.651 350.641 209.593 350.627C209.438 350.608 209.283 350.575 209.136 350.543C209.091 350.537 209.052 350.523 209.007 350.511C208.846 350.473 208.685 350.434 208.524 350.382C208.428 350.35 208.337 350.324 208.247 350.292C207.815 350.143 207.396 349.956 206.997 349.745C206.9 349.686 206.804 349.628 206.707 349.57C206.598 349.506 206.488 349.435 206.385 349.363C205.747 348.931 205.18 348.416 204.69 347.823C204.574 347.688 204.465 347.546 204.362 347.399C204.008 346.909 203.711 346.381 203.479 345.814C203.427 345.685 203.377 345.543 203.325 345.408C203.273 345.273 203.234 345.131 203.19 344.989C203.151 344.847 203.113 344.706 203.081 344.565C203.048 344.43 203.022 344.301 202.997 344.165C202.99 344.146 202.99 344.12 202.984 344.101C202.964 343.972 202.946 343.837 202.932 343.708C202.926 343.702 202.926 343.688 202.926 343.676C202.913 343.573 202.906 343.476 202.9 343.374C202.88 343.174 202.874 342.974 202.874 342.768V231.562C202.874 230.608 203.041 229.694 203.351 228.843C203.841 227.496 204.684 226.317 205.773 225.422C205.787 225.41 205.806 225.396 205.825 225.384L206.238 225.068C207.533 224.147 209.117 223.606 210.831 223.606H407.301C407.494 223.606 407.681 223.612 407.868 223.632C407.9 223.626 407.938 223.632 407.971 223.638C408.151 223.651 408.338 223.67 408.512 223.696C408.55 223.703 408.596 223.709 408.634 223.716C408.789 223.742 408.944 223.774 409.091 223.813C409.13 223.819 409.168 223.825 409.207 223.839C409.394 223.883 409.575 223.935 409.755 223.993C409.922 224.045 410.096 224.11 410.257 224.174C410.489 224.264 410.714 224.374 410.933 224.49C411.056 224.548 411.178 224.612 411.294 224.683C411.5 224.799 411.7 224.928 411.887 225.069C411.893 225.063 411.893 225.069 411.893 225.069L412.305 225.385C412.325 225.398 412.344 225.411 412.357 225.423C412.466 225.507 412.564 225.598 412.66 225.687C412.737 225.752 412.809 225.822 412.879 225.894C413.099 226.107 413.304 226.332 413.498 226.577C413.589 226.686 413.672 226.796 413.75 226.905C414.085 227.362 414.369 227.859 414.594 228.387C414.658 228.529 414.717 228.677 414.775 228.825C414.775 228.832 414.781 228.838 414.781 228.845C414.871 229.083 414.942 229.328 415.006 229.573C415.038 229.696 415.064 229.812 415.09 229.933C415.11 230.03 415.129 230.12 415.142 230.217C415.161 230.313 415.174 230.41 415.187 230.507C415.207 230.623 415.219 230.738 415.225 230.855C415.238 230.951 415.245 231.054 415.245 231.15C415.248 231.285 415.254 231.427 415.254 231.562Z" fill="#DFE5EA"/>
<path d="M414.778 228.844H203.349C203.839 227.497 204.682 226.319 205.771 225.423C205.785 225.411 205.803 225.397 205.823 225.385L206.235 225.069L304.189 150.711C307.069 148.521 311.057 148.521 313.936 150.711L411.885 225.068C411.891 225.062 411.891 225.068 411.891 225.068L412.303 225.384C412.323 225.397 412.342 225.41 412.355 225.422C412.464 225.507 412.562 225.597 412.658 225.686C412.735 225.751 412.807 225.821 412.877 225.893C413.097 226.106 413.302 226.331 413.496 226.576C413.587 226.685 413.67 226.795 413.748 226.904C414.083 227.361 414.367 227.858 414.592 228.386C414.656 228.528 414.714 228.676 414.773 228.824C414.772 228.831 414.778 228.837 414.778 228.844Z" fill="#FFB800"/>
<path d="M400.006 344.935H215.499V177.522C215.499 169.657 221.875 163.28 229.741 163.28H385.763C393.629 163.28 400.006 169.656 400.006 177.522V344.935V344.935Z" fill="white"/>
<path d="M375.54 203.477H239.965C238.065 203.477 236.511 201.923 236.511 200.024V198.555C236.511 196.656 238.065 195.102 239.965 195.102H375.54C377.439 195.102 378.992 196.656 378.992 198.555V200.024C378.992 201.923 377.439 203.477 375.54 203.477Z" fill="#E4ECF9"/>
<path d="M375.54 221.368H239.965C238.065 221.368 236.511 219.815 236.511 217.915V216.447C236.511 214.548 238.065 212.993 239.965 212.993H375.54C377.439 212.993 378.992 214.548 378.992 216.447V217.915C378.992 219.815 377.439 221.368 375.54 221.368Z" fill="#E4ECF9"/>
<path d="M375.54 239.26H239.965C238.065 239.26 236.511 237.706 236.511 235.807V234.339C236.511 232.439 238.065 230.886 239.965 230.886H375.54C377.439 230.886 378.992 232.439 378.992 234.339V235.807C378.992 237.706 377.439 239.26 375.54 239.26Z" fill="#E4ECF9"/>
<path d="M375.54 257.152H239.965C238.065 257.152 236.511 255.598 236.511 253.699V252.23C236.511 250.331 238.065 248.777 239.965 248.777H375.54C377.439 248.777 378.992 250.331 378.992 252.23V253.699C378.992 255.598 377.439 257.152 375.54 257.152Z" fill="#E4ECF9"/>
<path d="M375.54 275.044H239.965C238.065 275.044 236.511 273.49 236.511 271.591V270.123C236.511 268.223 238.065 266.67 239.965 266.67H375.54C377.439 266.67 378.992 268.223 378.992 270.123V271.591C378.992 273.489 377.439 275.044 375.54 275.044Z" fill="#E4ECF9"/>
<path d="M309.067 290.148V290.155C308.757 290.49 308.391 290.799 307.971 291.057L211.266 350.725H210.828C210.023 350.725 209.249 350.609 208.521 350.383C208.418 350.351 208.314 350.319 208.218 350.287C206.949 349.848 205.821 349.095 204.938 348.115C204.854 348.025 204.771 347.928 204.687 347.826C204.442 347.536 204.223 347.22 204.024 346.891C203.953 346.782 203.895 346.672 203.83 346.563C203.772 346.446 203.708 346.331 203.657 346.215C203.154 345.171 202.871 344.005 202.871 342.768V231.562C202.871 230.608 203.038 229.694 203.348 228.843C203.838 227.496 204.681 226.317 205.77 225.422C205.784 225.41 205.802 225.396 205.822 225.384L206.234 225.068C207.529 224.147 209.114 223.606 210.828 223.606H212.644L221.135 228.844L299.409 277.142L302.353 278.958L307.971 282.424C308.39 282.682 308.757 282.991 309.067 283.326V283.332C310.812 285.246 310.812 288.242 309.067 290.148Z" fill="#FFD465"/>
<path d="M415.254 231.562V342.768C415.254 342.903 415.248 343.038 415.242 343.18C415.242 343.245 415.236 343.309 415.229 343.374C415.229 343.432 415.223 343.496 415.217 343.561C415.217 343.586 415.211 343.612 415.211 343.637C415.205 343.683 415.197 343.721 415.191 343.76C415.185 343.856 415.165 343.953 415.153 344.05C415.14 344.14 415.12 344.237 415.101 344.327C415.101 344.339 415.094 344.359 415.094 344.372C415.088 344.397 415.082 344.43 415.069 344.462C415.069 344.494 415.062 344.532 415.049 344.565C415.043 344.609 415.029 344.655 415.017 344.7C414.997 344.784 414.978 344.861 414.952 344.945C414.952 344.957 414.946 344.977 414.939 344.989C414.9 345.132 414.855 345.273 414.804 345.408C414.804 345.414 414.804 345.421 414.798 345.428C414.772 345.498 414.752 345.563 414.721 345.634C414.701 345.692 414.676 345.751 414.65 345.815C414.644 345.827 414.638 345.847 414.63 345.867C414.553 346.041 414.476 346.221 414.385 346.389C414.359 346.441 414.327 346.506 414.295 346.564C414.263 346.622 414.23 346.673 414.198 346.731C414.166 346.783 414.14 346.84 414.102 346.892C414.037 347.001 413.967 347.111 413.895 347.214C413.85 347.284 413.805 347.343 413.766 347.407C413.657 347.555 413.547 347.69 413.438 347.825C413.354 347.928 413.271 348.025 413.187 348.115C413.103 348.212 413.013 348.302 412.923 348.392C412.885 348.437 412.839 348.477 412.794 348.521C412.756 348.56 412.717 348.598 412.672 348.63C412.626 348.676 412.575 348.721 412.523 348.765C412.511 348.778 412.491 348.791 412.478 348.804C412.355 348.913 412.226 349.017 412.098 349.113C412.084 349.119 412.072 349.133 412.059 349.145C411.956 349.216 411.852 349.294 411.743 349.364C411.705 349.39 411.673 349.416 411.641 349.435C411.582 349.473 411.524 349.512 411.467 349.545C411.421 349.577 411.377 349.603 411.325 349.629C411.273 349.661 411.222 349.694 411.17 349.72C410.81 349.926 410.43 350.1 410.036 350.241C410.01 350.247 409.984 350.261 409.966 350.267C409.94 350.273 409.907 350.287 409.881 350.293C409.791 350.325 409.701 350.357 409.604 350.383C409.443 350.435 409.282 350.474 409.121 350.512C409.037 350.532 408.954 350.55 408.87 350.57C408.818 350.583 408.761 350.59 408.709 350.596C408.645 350.609 408.574 350.622 408.51 350.634H408.49C408.432 350.641 408.374 350.654 408.323 350.66C408.297 350.66 408.271 350.667 408.246 350.667C408.201 350.673 408.156 350.679 408.105 350.685C408.079 350.685 408.053 350.692 408.021 350.692C407.924 350.698 407.821 350.705 407.724 350.711C407.582 350.718 407.44 350.724 407.299 350.724H406.861L310.155 291.056C309.737 290.798 309.369 290.489 309.067 290.154V290.147C307.315 288.233 307.315 285.251 309.067 283.331V283.325C309.37 282.99 309.737 282.681 310.155 282.423L315.766 278.957L318.71 277.141L396.99 228.843L405.48 223.605H407.297C407.49 223.605 407.677 223.611 407.864 223.631C407.896 223.625 407.934 223.631 407.967 223.637C408.147 223.65 408.334 223.669 408.508 223.695C408.546 223.702 408.592 223.708 408.63 223.715C408.785 223.741 408.94 223.773 409.087 223.812C409.125 223.818 409.164 223.824 409.203 223.838C409.39 223.882 409.571 223.934 409.751 223.992C409.918 224.044 410.092 224.109 410.253 224.173C410.485 224.263 410.71 224.372 410.929 224.489C411.052 224.547 411.174 224.611 411.29 224.682C411.496 224.798 411.696 224.927 411.883 225.068C411.889 225.062 411.889 225.068 411.889 225.068L412.301 225.384C412.321 225.397 412.339 225.41 412.353 225.422C412.462 225.506 412.56 225.597 412.656 225.686C412.733 225.75 412.805 225.821 412.875 225.893C413.094 226.106 413.3 226.331 413.494 226.576C413.585 226.685 413.668 226.795 413.746 226.904C414.081 227.361 414.364 227.857 414.59 228.386C414.654 228.528 414.712 228.676 414.77 228.824C414.77 228.831 414.777 228.837 414.777 228.844C414.867 229.082 414.938 229.327 415.002 229.572C415.034 229.695 415.06 229.811 415.086 229.932C415.106 230.029 415.125 230.119 415.138 230.216C415.157 230.312 415.17 230.409 415.183 230.506C415.202 230.622 415.215 230.737 415.221 230.853C415.234 230.95 415.241 231.053 415.241 231.149C415.248 231.285 415.254 231.427 415.254 231.562Z" fill="#FFD465"/>
<path opacity="0.29" d="M415.254 341.263V342.42C415.254 347.006 411.692 350.725 407.298 350.725H210.829C206.435 350.725 202.872 347.006 202.872 342.42V341.263L303.925 274.777C307.063 272.713 311.058 272.713 314.195 274.777L415.254 341.263Z" fill="#474747"/>
<path d="M415.254 341.661V342.769C415.254 347.163 411.692 350.725 407.298 350.725H210.829C206.435 350.725 202.872 347.162 202.872 342.769V341.661L303.925 277.966C307.063 275.989 311.058 275.989 314.195 277.966L415.254 341.661Z" fill="#FFB800"/>
<path d="M299.091 185.585H239.965C238.065 185.585 236.511 184.031 236.511 182.132V180.664C236.511 178.764 238.065 177.211 239.965 177.211H299.091C300.991 177.211 302.544 178.764 302.544 180.664V182.132C302.544 184.03 300.991 185.585 299.091 185.585Z" fill="#FFD465"/>
<path d="M230.279 335.418C230.261 335.418 230.244 335.417 230.226 335.417C227.871 335.323 225.5 335.12 223.179 334.811C222.465 334.717 221.963 334.062 222.057 333.348C222.152 332.634 222.808 332.128 223.522 332.227C225.764 332.524 228.054 332.721 230.33 332.811C231.049 332.839 231.609 333.446 231.581 334.166C231.552 334.868 230.975 335.418 230.279 335.418ZM237.228 335.385C236.538 335.385 235.961 334.842 235.927 334.144C235.892 333.424 236.446 332.812 237.166 332.778C239.414 332.669 241.707 332.46 243.98 332.156C244.696 332.059 245.35 332.562 245.446 333.276C245.541 333.99 245.04 334.645 244.326 334.741C241.98 335.054 239.614 335.27 237.293 335.384C237.271 335.384 237.249 335.385 237.228 335.385ZM216.509 333.585C216.412 333.585 216.314 333.574 216.216 333.552C213.929 333.026 211.638 332.385 209.403 331.643C208.719 331.417 208.349 330.678 208.575 329.995C208.802 329.312 209.541 328.941 210.223 329.168C212.38 329.884 214.593 330.504 216.8 331.011C217.502 331.173 217.94 331.872 217.778 332.574C217.64 333.177 217.103 333.585 216.509 333.585ZM251.002 333.559C250.401 333.559 249.86 333.141 249.728 332.529C249.577 331.825 250.025 331.132 250.729 330.981C252.94 330.505 255.177 329.936 257.375 329.288C258.066 329.085 258.792 329.479 258.994 330.171C259.198 330.861 258.803 331.586 258.112 331.79C255.851 332.456 253.552 333.041 251.277 333.53C251.185 333.55 251.094 333.559 251.002 333.559ZM264.344 329.644C263.815 329.644 263.318 329.32 263.121 328.796C262.87 328.121 263.213 327.37 263.888 327.119C266.019 326.324 268.154 325.444 270.237 324.5C270.892 324.202 271.666 324.493 271.963 325.149C272.26 325.805 271.969 326.578 271.313 326.875C269.177 327.842 266.984 328.747 264.799 329.561C264.649 329.617 264.495 329.644 264.344 329.644ZM203.312 329.231C203.141 329.231 202.966 329.197 202.799 329.126C200.688 328.221 198.544 327.207 196.423 326.11C195.783 325.78 195.533 324.993 195.863 324.353C196.195 323.715 196.982 323.462 197.62 323.794C199.685 324.861 201.773 325.849 203.826 326.728C204.488 327.012 204.794 327.779 204.511 328.441C204.3 328.935 203.818 329.231 203.312 329.231ZM277.01 323.901C276.546 323.901 276.097 323.654 275.861 323.218C275.518 322.585 275.754 321.793 276.388 321.451C278.221 320.459 279.966 319.435 281.573 318.408C282.178 318.022 282.985 318.197 283.373 318.805C283.761 319.411 283.583 320.218 282.977 320.605C281.316 321.667 279.516 322.723 277.627 323.745C277.431 323.851 277.219 323.901 277.01 323.901ZM190.954 322.853C190.723 322.853 190.489 322.791 190.279 322.664C188.259 321.438 186.275 320.139 184.382 318.804C183.793 318.388 183.653 317.575 184.069 316.986C184.484 316.399 185.297 316.259 185.886 316.673C187.73 317.974 189.663 319.239 191.632 320.433C192.247 320.807 192.444 321.609 192.07 322.224C191.824 322.629 191.394 322.853 190.954 322.853ZM179.595 314.821C179.303 314.821 179.009 314.724 178.766 314.523C176.999 313.067 175.305 311.555 173.728 310.028C173.599 309.937 173.488 309.824 173.4 309.697C172.989 309.191 173.015 308.444 173.481 307.966C173.913 307.523 174.584 307.454 175.091 307.763C177.203 308.235 179.347 308.594 181.469 308.829C182.185 308.908 182.701 309.553 182.622 310.269C182.543 310.985 181.904 311.502 181.183 311.421C180.377 311.332 179.568 311.226 178.759 311.103C179.306 311.578 179.862 312.048 180.426 312.513C180.981 312.971 181.06 313.792 180.602 314.349C180.344 314.659 179.971 314.821 179.595 314.821ZM188.266 311.782C187.552 311.782 186.969 311.205 186.963 310.489C186.957 309.769 187.535 309.18 188.255 309.173C190.071 309.157 191.905 309.053 193.708 308.86C194.077 308.821 194.512 308.774 195.052 308.71C195.763 308.615 196.416 309.135 196.502 309.849C196.587 310.565 196.077 311.214 195.362 311.299C194.809 311.365 194.363 311.413 194.038 311.448C192.098 311.654 190.178 311.764 188.278 311.782C188.274 311.782 188.27 311.782 188.266 311.782ZM202.082 310.171C201.478 310.171 200.936 309.749 200.807 309.136C200.659 308.432 201.11 307.74 201.815 307.591C204.086 307.114 206.315 306.538 208.441 305.882C209.132 305.672 209.86 306.057 210.072 306.744C210.284 307.433 209.898 308.162 209.21 308.374C207.008 309.053 204.701 309.649 202.352 310.143C202.261 310.163 202.171 310.171 202.082 310.171ZM167.801 308.327C167.658 308.327 167.512 308.303 167.369 308.253C165.158 307.476 162.954 306.561 160.816 305.537C160.167 305.225 159.893 304.447 160.205 303.797C160.516 303.148 161.295 302.876 161.944 303.185C163.995 304.17 166.11 305.047 168.233 305.793C168.912 306.032 169.269 306.776 169.031 307.455C168.844 307.991 168.339 308.327 167.801 308.327ZM215.363 306.043C214.857 306.043 214.376 305.747 214.164 305.254C213.88 304.592 214.186 303.826 214.847 303.541C216.996 302.618 219.032 301.587 220.901 300.477C221.518 300.11 222.319 300.313 222.688 300.932C223.055 301.551 222.852 302.351 222.233 302.719C220.267 303.887 218.129 304.97 215.878 305.938C215.708 306.009 215.534 306.043 215.363 306.043ZM169.683 305.093C169.311 305.093 168.941 304.934 168.684 304.628C167.117 302.763 165.687 300.847 164.433 298.934C164.039 298.331 164.207 297.522 164.809 297.129C165.412 296.734 166.22 296.903 166.614 297.505C167.811 299.332 169.179 301.164 170.68 302.952C171.143 303.503 171.071 304.325 170.52 304.789C170.276 304.992 169.979 305.093 169.683 305.093ZM155.282 302.326C155.048 302.326 154.811 302.263 154.597 302.131C152.596 300.893 150.637 299.533 148.775 298.086C148.206 297.645 148.103 296.826 148.545 296.258C148.986 295.689 149.806 295.586 150.375 296.027C152.165 297.416 154.048 298.724 155.971 299.913C156.584 300.292 156.773 301.096 156.394 301.707C156.146 302.107 155.72 302.326 155.282 302.326ZM227.242 298.895C226.871 298.895 226.501 298.736 226.243 298.43C225.78 297.879 225.852 297.056 226.403 296.593C228.157 295.121 229.735 293.517 231.092 291.828C231.544 291.267 232.365 291.178 232.925 291.628C233.486 292.079 233.576 292.899 233.124 293.462C231.661 295.283 229.963 297.008 228.079 298.59C227.836 298.796 227.538 298.895 227.242 298.895ZM144.317 293.815C143.992 293.815 143.666 293.695 143.413 293.451C141.71 291.812 140.081 290.067 138.576 288.266C138.114 287.713 138.187 286.891 138.74 286.43C139.292 285.968 140.115 286.04 140.576 286.594C142.022 288.323 143.585 289.998 145.221 291.572C145.74 292.071 145.756 292.896 145.256 293.415C145.001 293.681 144.659 293.815 144.317 293.815ZM162.132 293.46C161.641 293.46 161.171 293.182 160.949 292.706C159.915 290.484 159.085 288.22 158.483 285.977C158.296 285.281 158.708 284.566 159.404 284.38C160.1 284.189 160.814 284.606 161.001 285.301C161.565 287.399 162.343 289.519 163.313 291.605C163.617 292.259 163.334 293.034 162.68 293.339C162.503 293.421 162.316 293.46 162.132 293.46ZM235.843 288.11C235.649 288.11 235.453 288.066 235.267 287.975C234.621 287.655 234.356 286.874 234.676 286.228C235.592 284.375 236.327 282.395 236.861 280.345L236.955 279.977C237.13 279.278 237.839 278.852 238.537 279.029C239.236 279.203 239.66 279.911 239.486 280.61L239.386 281.003C238.807 283.225 238.009 285.372 237.014 287.383C236.785 287.843 236.323 288.11 235.843 288.11ZM135.42 283.165C134.997 283.165 134.583 282.959 134.332 282.58C133.026 280.611 131.823 278.549 130.754 276.449C130.427 275.807 130.682 275.022 131.324 274.695C131.965 274.367 132.751 274.623 133.077 275.265C134.101 277.276 135.255 279.253 136.505 281.14C136.903 281.74 136.739 282.549 136.138 282.947C135.917 283.094 135.667 283.165 135.42 283.165ZM158.602 280.104C157.921 280.104 157.347 279.575 157.302 278.885C157.255 278.143 157.23 277.389 157.23 276.642C157.23 274.992 157.349 273.323 157.585 271.681C157.688 270.968 158.344 270.474 159.06 270.576C159.773 270.678 160.268 271.339 160.166 272.051C159.948 273.57 159.837 275.115 159.837 276.641C159.837 277.332 159.86 278.03 159.905 278.715C159.951 279.435 159.406 280.054 158.688 280.1C158.66 280.103 158.63 280.104 158.602 280.104ZM239.203 274.723C239.184 274.723 239.165 274.722 239.146 274.722C238.427 274.691 237.869 274.082 237.9 273.363C237.922 272.859 237.932 272.355 237.932 271.852C237.932 270.142 237.808 268.4 237.561 266.669C237.459 265.955 237.954 265.296 238.668 265.194C239.38 265.092 240.04 265.588 240.142 266.301C240.406 268.153 240.54 270.02 240.54 271.851C240.54 272.392 240.529 272.933 240.506 273.475C240.475 274.176 239.897 274.723 239.203 274.723ZM129.122 270.799C128.593 270.799 128.096 270.475 127.9 269.95C127.081 267.755 126.373 265.476 125.793 263.174C125.618 262.476 126.042 261.767 126.739 261.592C127.438 261.418 128.146 261.84 128.322 262.539C128.878 264.747 129.557 266.934 130.343 269.039C130.595 269.714 130.252 270.464 129.577 270.717C129.427 270.773 129.273 270.799 129.122 270.799ZM160.515 266.422C160.376 266.422 160.235 266.4 160.096 266.352C159.414 266.121 159.049 265.38 159.281 264.698C160.026 262.505 160.974 260.296 162.1 258.131C162.433 257.492 163.219 257.244 163.859 257.576C164.498 257.908 164.747 258.696 164.414 259.335C163.349 261.382 162.453 263.469 161.749 265.538C161.565 266.08 161.058 266.422 160.515 266.422ZM237.282 261.023C236.732 261.023 236.22 260.672 236.041 260.118C235.358 257.997 234.49 255.902 233.463 253.894C233.135 253.252 233.389 252.467 234.03 252.139C234.671 251.811 235.457 252.065 235.785 252.706C236.876 254.839 237.797 257.064 238.524 259.318C238.745 260.003 238.369 260.738 237.683 260.959C237.55 261.003 237.415 261.023 237.282 261.023ZM125.722 257.339C125.083 257.339 124.524 256.869 124.432 256.219C124.105 253.909 123.891 251.535 123.796 249.164C123.768 248.444 124.328 247.837 125.047 247.809C125.785 247.784 126.373 248.341 126.402 249.06C126.493 251.344 126.699 253.63 127.014 255.852C127.114 256.566 126.618 257.225 125.905 257.326C125.844 257.335 125.783 257.339 125.722 257.339ZM166.876 254.101C166.616 254.101 166.355 254.025 166.126 253.864C165.537 253.449 165.396 252.636 165.81 252.047C167.167 250.121 168.667 248.255 170.27 246.5C170.756 245.968 171.58 245.931 172.112 246.416C172.643 246.902 172.681 247.726 172.195 248.258C170.666 249.932 169.235 251.712 167.942 253.547C167.689 253.909 167.286 254.101 166.876 254.101ZM230.981 248.689C230.579 248.689 230.183 248.504 229.928 248.155C228.59 246.33 227.107 244.616 225.521 243.063C225.007 242.559 224.997 241.733 225.501 241.218C226.005 240.704 226.829 240.694 227.345 241.199C229.034 242.851 230.611 244.673 232.033 246.614C232.459 247.196 232.332 248.011 231.751 248.437C231.518 248.607 231.248 248.689 230.981 248.689ZM176.239 243.856C175.869 243.856 175.501 243.699 175.244 243.395C174.778 242.846 174.846 242.023 175.395 241.557C177.23 240.001 179.16 238.577 181.129 237.324C181.736 236.937 182.543 237.116 182.928 237.724C183.315 238.331 183.136 239.137 182.529 239.524C180.658 240.714 178.826 242.067 177.081 243.547C176.836 243.755 176.536 243.856 176.239 243.856ZM125.162 243.463C125.137 243.463 125.111 243.462 125.086 243.461C124.368 243.42 123.818 242.804 123.859 242.084C123.996 239.692 124.25 237.322 124.616 235.041C124.729 234.33 125.397 233.845 126.109 233.958C126.82 234.072 127.304 234.74 127.191 235.452C126.84 237.647 126.596 239.93 126.463 242.234C126.423 242.928 125.847 243.463 125.162 243.463ZM221.057 239.032C220.805 239.032 220.551 238.96 220.326 238.807C218.448 237.533 216.473 236.458 214.456 235.61C213.792 235.33 213.48 234.566 213.759 233.902C214.038 233.238 214.805 232.926 215.466 233.206C217.641 234.12 219.769 235.278 221.79 236.649C222.386 237.053 222.541 237.864 222.136 238.46C221.885 238.832 221.475 239.032 221.057 239.032ZM187.95 236.448C187.449 236.448 186.971 236.157 186.756 235.668C186.466 235.008 186.766 234.239 187.425 233.949C189.661 232.967 191.944 232.189 194.211 231.637C194.911 231.466 195.616 231.896 195.787 232.596C195.957 233.296 195.527 234.001 194.828 234.171C192.71 234.686 190.571 235.415 188.475 236.336C188.303 236.412 188.125 236.448 187.95 236.448ZM208.314 233.727C208.237 233.727 208.158 233.72 208.079 233.705C206.298 233.38 204.467 233.215 202.639 233.215C202.271 233.209 201.839 233.222 201.439 233.238C200.717 233.277 200.114 232.704 200.086 231.985C200.058 231.266 200.618 230.659 201.338 230.632C201.771 230.616 202.235 230.624 202.639 230.607C204.624 230.607 206.61 230.786 208.546 231.14C209.254 231.27 209.724 231.949 209.595 232.657C209.481 233.286 208.931 233.727 208.314 233.727ZM127.402 229.762C127.285 229.762 127.166 229.746 127.048 229.713C126.354 229.518 125.951 228.798 126.145 228.105C126.782 225.843 127.55 223.585 128.43 221.396C128.698 220.727 129.458 220.404 130.127 220.672C130.795 220.941 131.119 221.7 130.851 222.369C130.005 224.471 129.267 226.638 128.656 228.811C128.494 229.386 127.971 229.762 127.402 229.762ZM132.569 216.887C132.364 216.887 132.154 216.838 131.96 216.735C131.323 216.397 131.081 215.608 131.419 214.972C132.516 212.904 133.741 210.859 135.058 208.893C135.46 208.296 136.27 208.135 136.867 208.537C137.466 208.938 137.625 209.748 137.224 210.346C135.956 212.237 134.777 214.204 133.722 216.194C133.488 216.636 133.037 216.887 132.569 216.887ZM140.297 205.35C140.005 205.35 139.711 205.252 139.468 205.051C138.913 204.592 138.834 203.77 139.293 203.215C140.785 201.41 142.389 199.65 144.062 197.983C144.572 197.475 145.398 197.476 145.906 197.986C146.415 198.496 146.413 199.322 145.903 199.831C144.289 201.439 142.742 203.137 141.304 204.877C141.046 205.189 140.673 205.35 140.297 205.35ZM150.134 195.539C149.758 195.539 149.385 195.377 149.128 195.064C148.669 194.508 148.747 193.687 149.303 193.229C151.107 191.74 153.009 190.31 154.957 188.979C155.551 188.573 156.364 188.725 156.77 189.319C157.176 189.914 157.023 190.725 156.429 191.131C154.545 192.419 152.706 193.801 150.962 195.239C150.721 195.441 150.427 195.539 150.134 195.539ZM161.607 187.693C161.151 187.693 160.707 187.453 160.469 187.026C160.116 186.398 160.34 185.604 160.968 185.252C163.008 184.108 165.131 183.036 167.28 182.066C167.936 181.768 168.709 182.06 169.005 182.717C169.302 183.373 169.01 184.146 168.354 184.442C166.274 185.381 164.218 186.419 162.243 187.526C162.042 187.64 161.823 187.693 161.607 187.693ZM174.273 181.965C173.736 181.965 173.232 181.63 173.043 181.096C172.803 180.417 173.16 179.672 173.839 179.432C176.043 178.653 178.314 177.956 180.589 177.36C181.283 177.178 181.998 177.595 182.181 178.292C182.363 178.989 181.946 179.701 181.249 179.884C179.044 180.461 176.844 181.137 174.708 181.891C174.564 181.941 174.417 181.965 174.273 181.965Z" fill="#F4B545"/>
<path opacity="0.1" d="M433.802 235.604C433.722 234.352 432.633 233.393 431.382 233.473L343.469 239.061C342.218 239.14 341.258 240.23 341.338 241.482L343.608 277.193C343.688 278.445 344.777 279.403 346.029 279.324L433.942 273.737C435.193 273.657 436.152 272.567 436.072 271.316L433.802 235.604Z" fill="#232323"/>
<path d="M436.164 270.453L348.251 276.041C347 276.121 345.91 275.161 345.83 273.91L343.56 238.199C343.48 236.948 344.44 235.859 345.691 235.779L433.604 230.191C434.855 230.111 435.945 231.07 436.025 232.322L438.295 268.032C438.375 269.284 437.416 270.373 436.164 270.453Z" fill="white"/>
<path d="M426.862 240.926L388.5 243.365C387.51 243.428 386.648 242.669 386.586 241.679L386.579 241.589C386.516 240.599 387.275 239.737 388.265 239.675L426.628 237.237C427.617 237.173 428.479 237.933 428.542 238.922L428.548 239.013C428.61 240.002 427.852 240.864 426.862 240.926Z" fill="#3B82F4"/>
<path d="M427.373 248.976L389.011 251.414C388.021 251.477 387.159 250.718 387.097 249.729L387.09 249.638C387.027 248.649 387.786 247.787 388.776 247.724L427.139 245.286C428.128 245.223 428.99 245.982 429.052 246.971L429.059 247.062C429.122 248.051 428.364 248.912 427.373 248.976Z" fill="#ECF3FE"/>
<path d="M427.885 257.024L389.522 259.462C388.533 259.525 387.671 258.766 387.609 257.777L387.602 257.686C387.539 256.697 388.298 255.835 389.288 255.772L427.651 253.334C428.64 253.271 429.502 254.03 429.564 255.019L429.571 255.11C429.634 256.099 428.875 256.961 427.885 257.024Z" fill="#ECF3FE"/>
<path d="M428.397 265.073L390.034 267.511C389.045 267.574 388.183 266.815 388.121 265.826L388.114 265.735C388.051 264.746 388.81 263.884 389.8 263.821L428.163 261.383C429.152 261.32 430.014 262.079 430.076 263.069L430.083 263.159C430.145 264.149 429.387 265.009 428.397 265.073Z" fill="#ECF3FE"/>
<path d="M377.439 266.707C384.051 260.095 384.051 249.374 377.439 242.762C370.827 236.15 360.106 236.15 353.494 242.762C346.881 249.374 346.881 260.095 353.494 266.707C360.106 273.32 370.827 273.32 377.439 266.707Z" fill="#ECF3FE"/>
<path d="M374.38 265.16C373.509 265.926 372.537 266.581 371.483 267.103C370.95 267.37 370.395 267.601 369.823 267.794C369.218 268.001 368.59 268.163 367.947 268.282C367.425 268.379 366.888 268.446 366.344 268.48C365.799 268.514 365.259 268.516 364.726 268.486C362.24 268.349 359.915 267.531 357.952 266.205C358.822 264.322 360.427 262.828 362.416 262.124H362.418C362.419 262.121 362.421 262.121 362.423 262.121C362.763 262 363.117 261.902 363.48 261.832C363.495 261.828 363.509 261.826 363.524 261.822C363.842 261.759 364.169 261.718 364.502 261.697L367.314 261.518C367.646 261.497 367.976 261.497 368.3 261.519C368.314 261.518 368.329 261.52 368.344 261.523C368.714 261.547 369.076 261.599 369.431 261.677H369.435V261.679C371.496 262.121 373.28 263.402 374.38 265.16Z" fill="#727272"/>
<path d="M372.969 248.432L373.546 257.492C373.673 259.488 372.159 261.209 370.164 261.335L361.648 261.876C359.654 262.003 357.934 260.488 357.806 258.492L357.23 249.432C356.718 241.387 364.611 241.249 364.611 241.249C364.611 241.249 366.654 241.026 368.723 241.875C370.575 242.633 372.448 244.254 372.895 247.666C372.927 247.911 372.952 248.168 372.969 248.432Z" fill="#302F2F"/>
<path d="M368.253 260.118L368.422 262.782C368.494 263.911 367.458 264.906 366.121 264.991C364.783 265.076 363.631 264.22 363.559 263.091L363.39 260.428C363.36 259.961 363.52 259.519 363.811 259.152C363.879 259.066 363.954 258.985 364.036 258.909C364.19 258.763 364.371 258.635 364.568 258.531C364.899 258.356 365.281 258.245 365.691 258.219C366.101 258.193 366.495 258.254 366.845 258.387C367.054 258.466 367.248 258.569 367.42 258.695C367.428 258.7 367.439 258.707 367.447 258.713C367.528 258.773 367.604 258.838 367.674 258.907C368.01 259.233 368.224 259.653 368.253 260.118Z" fill="#F4B698"/>
<path opacity="0.28" d="M371.832 250.564L372.08 254.444C372.253 257.17 370.659 259.619 368.289 260.665L368.355 261.687C367.692 261.98 366.969 262.163 366.207 262.211L365.687 262.244C364.925 262.293 364.184 262.202 363.49 261.996L363.425 260.973C360.942 260.236 359.05 258.008 358.878 255.283L358.631 251.404C358.523 249.582 359.206 247.886 360.378 246.655C361.445 245.532 362.915 244.794 364.57 244.689L365.091 244.656C366.578 244.561 367.982 244.993 369.121 245.789C369.121 245.789 369.121 245.789 369.122 245.789C370.645 246.856 371.696 248.576 371.832 250.564Z" fill="black"/>
<path d="M371.769 249.571L372.078 254.444C372.164 255.778 371.824 257.043 371.182 258.11C371.18 258.112 371.178 258.114 371.178 258.114C371.028 258.361 370.861 258.597 370.682 258.822C370.33 259.26 369.923 259.65 369.468 259.982C369.102 260.248 368.709 260.478 368.288 260.665C367.626 260.957 366.902 261.139 366.141 261.188L365.621 261.221C364.86 261.27 364.119 261.182 363.427 260.974C360.943 260.237 359.051 258.01 358.878 255.283L358.569 250.436C358.565 250.368 358.563 250.301 358.561 250.233C358.495 248.382 359.239 246.672 360.482 245.46C360.677 245.269 360.886 245.09 361.107 244.923C362.062 244.205 363.229 243.746 364.505 243.665L365.024 243.632C366.459 243.54 367.819 243.941 368.936 244.687C369.531 245.083 370.058 245.576 370.49 246.147C370.668 246.381 370.828 246.626 370.974 246.882C371.426 247.684 371.707 248.593 371.769 249.571Z" fill="#F4B698"/>
<path d="M374.472 251.976C374.561 253.379 373.496 254.588 372.093 254.678L371.77 249.598C372.122 249.575 372.463 249.626 372.775 249.736C372.778 249.737 372.779 249.738 372.779 249.738C373.712 250.067 374.406 250.927 374.472 251.976Z" fill="#F4B698"/>
<path d="M373.504 252.037C373.559 252.905 372.9 253.655 372.032 253.71L371.831 250.564C372.701 250.509 373.449 251.169 373.504 252.037Z" fill="#E29586"/>
<path d="M369.434 261.675V261.677L367.948 268.28C367.425 268.378 366.888 268.445 366.344 268.479C365.799 268.513 365.259 268.515 364.726 268.485L362.416 262.122V262.12L363.758 262.035L363.809 262.081L366.067 264.137L368.049 261.812L368.094 261.76L369.434 261.675Z" fill="#565656"/>
<path d="M358.568 250.437L358.891 255.517C357.489 255.606 356.279 254.542 356.19 253.138C356.113 251.931 356.89 250.868 358.002 250.537C358.041 250.526 358.08 250.515 358.12 250.506C358.14 250.502 358.161 250.498 358.183 250.494C358.309 250.465 358.436 250.445 358.568 250.437Z" fill="#F4B698"/>
<path d="M357.158 253.076C357.213 253.945 357.962 254.604 358.831 254.549L358.63 251.403C357.762 251.458 357.103 252.208 357.158 253.076Z" fill="#E29586"/>
<path d="M371.483 267.103C370.95 267.37 370.395 267.601 369.823 267.793L369.786 267.211L371.483 267.103Z" fill="#565656"/>
<path opacity="0.2" d="M366.066 264.137L368.038 265.355L369.434 261.674L366.066 264.137Z" fill="#363636"/>
<path d="M369.434 261.674L367.997 265.233L366.066 264.137L368.092 261.759L368.357 261.451L369.434 261.674Z" fill="#EEEEEE"/>
<path opacity="0.2" d="M362.416 262.12L364.247 265.596L366.066 264.137L362.416 262.12Z" fill="#363636"/>
<path d="M366.066 264.137L364.291 265.468L362.416 262.12L363.456 261.762L363.757 262.035L366.066 264.137Z" fill="#EEEEEE"/>
<path d="M372.958 248.263C368.248 248.905 368.426 244.595 368.787 242.472C370.638 243.23 372.513 244.851 372.958 248.263Z" fill="#302F2F"/>
<path d="M370.306 244.696C370.159 244.967 368.715 248.007 365.779 248.194C362.843 248.381 358.294 250.44 358.338 253.372C358.38 256.305 354.093 244.678 362.95 243.187C371.807 241.696 370.306 244.696 370.306 244.696Z" fill="#302F2F"/>
<path opacity="0.1" d="M441.685 228.75L433.248 193.976C432.952 192.757 431.713 192.002 430.494 192.298L344.887 213.069C343.668 213.365 342.913 214.604 343.209 215.823L351.647 250.597C351.943 251.816 353.182 252.571 354.401 252.275L440.007 231.504C441.225 231.209 441.98 229.969 441.685 228.75Z" fill="#232323"/>
<path d="M441.931 228.356L356.325 249.127C355.106 249.423 353.867 248.667 353.571 247.449L345.134 212.675C344.838 211.456 345.594 210.217 346.812 209.921L432.418 189.15C433.637 188.854 434.876 189.61 435.172 190.828L443.61 225.602C443.906 226.821 443.151 228.06 441.931 228.356Z" fill="#F4B545"/>
<path d="M381.29 237.054C387.842 230.502 387.842 219.88 381.29 213.328C374.739 206.777 364.117 206.777 357.565 213.328C351.014 219.88 351.014 230.502 357.565 237.053C364.117 243.605 374.739 243.605 381.29 237.054Z" fill="#FFDCA4"/>
<path d="M372.803 239.975C372.709 239.998 372.619 240.02 372.528 240.031L372.523 240.032C369.696 240.629 366.886 240.34 364.366 239.361C364.853 237.237 366.22 235.367 368.145 234.275L368.15 234.274C368.468 234.093 368.802 233.933 369.148 233.801C369.465 233.677 369.795 233.57 370.137 233.487L372.899 232.817C373.236 232.735 373.579 232.678 373.917 232.644L373.923 232.643C374.29 232.601 374.66 232.59 375.026 232.605C376.585 232.668 378.077 233.193 379.313 234.09C379.784 234.428 380.217 234.827 380.605 235.263C378.881 237.288 376.584 238.853 373.883 239.687C373.762 239.727 373.639 239.761 373.51 239.793C373.492 239.802 373.472 239.807 373.452 239.812L373.447 239.813C373.423 239.825 373.398 239.83 373.368 239.833C373.349 239.842 373.324 239.849 373.298 239.85C373.207 239.883 373.107 239.907 373.009 239.931L372.939 239.947L372.855 239.968L372.83 239.974L372.803 239.975Z" fill="#F4B545"/>
<path d="M361.654 224.127C361.654 224.127 358.521 214.996 363.584 213.574C368.646 212.151 370.418 210.35 371.745 210.485C373.072 210.62 376.069 218.879 376.145 220.612C376.223 222.344 361.654 224.127 361.654 224.127Z" fill="#E09F36"/>
<path d="M373.585 231.269L374.22 233.882C374.489 234.989 373.635 236.157 372.323 236.475C371.012 236.794 369.718 236.147 369.449 235.039L368.814 232.426C368.703 231.969 368.783 231.502 369.01 231.087C369.062 230.991 369.122 230.896 369.189 230.808C369.318 230.635 369.474 230.478 369.651 230.339C369.948 230.108 370.308 229.93 370.711 229.833C371.114 229.735 371.514 229.728 371.884 229.797C372.105 229.839 372.316 229.907 372.508 230.001C372.518 230.005 372.529 230.01 372.538 230.015C372.629 230.061 372.716 230.112 372.798 230.168C373.188 230.433 373.474 230.812 373.585 231.269Z" fill="#F4CB95"/>
<path d="M375.464 221.165L376.387 224.971C377.036 227.645 375.882 230.352 373.715 231.805L373.959 232.809C373.352 233.215 372.667 233.523 371.92 233.704L371.411 233.828C370.663 234.009 369.913 234.05 369.188 233.966L368.944 232.962C366.352 232.665 364.086 230.786 363.437 228.113L362.514 224.307C362.088 222.519 362.468 220.718 363.417 219.291C364.277 217.992 365.608 217.001 367.232 216.608L367.742 216.484C369.201 216.13 370.669 216.313 371.938 216.903C371.938 216.903 371.938 216.903 371.939 216.903C373.638 217.694 374.981 219.215 375.464 221.165Z" fill="#D8A471"/>
<path d="M375.225 220.192L376.385 224.973C376.676 226.169 376.608 227.374 376.246 228.467C376.19 228.639 376.121 228.808 376.051 228.971C375.966 229.174 375.874 229.367 375.767 229.557C375.277 230.451 374.575 231.223 373.717 231.804C373.108 232.208 372.422 232.52 371.674 232.701L371.168 232.823C370.42 233.005 369.667 233.042 368.946 232.961C366.352 232.664 364.086 230.783 363.438 228.113L362.235 223.153C361.848 221.334 362.288 219.503 363.309 218.086C363.473 217.857 363.646 217.644 363.836 217.446C364.658 216.564 365.735 215.907 366.989 215.603L367.496 215.48C368.468 215.244 369.449 215.243 370.372 215.458C370.558 215.499 370.739 215.54 370.918 215.6C371.136 215.668 371.349 215.745 371.561 215.839C373.335 216.617 374.737 218.178 375.225 220.192Z" fill="#F4CB95"/>
<path d="M378.33 222.103C378.664 223.479 377.818 224.866 376.443 225.199L375.234 220.217C375.58 220.132 375.926 220.123 376.256 220.178C376.259 220.178 376.26 220.179 376.26 220.179C377.242 220.342 378.08 221.074 378.33 222.103Z" fill="#EDC28E"/>
<path d="M377.381 222.333C377.587 223.184 377.064 224.043 376.212 224.25L375.464 221.165C376.315 220.958 377.174 221.481 377.381 222.333Z" fill="#D8A471"/>
<path d="M362.285 223.358L363.493 228.34C362.118 228.674 360.732 227.83 360.399 226.454C360.111 225.27 360.697 224.079 361.74 223.556C361.777 223.538 361.813 223.52 361.852 223.505C361.871 223.497 361.891 223.49 361.912 223.481C362.031 223.432 362.155 223.39 362.285 223.358Z" fill="#EDC28E"/>
<path d="M361.347 226.224C361.554 227.076 362.412 227.599 363.264 227.392L362.515 224.307C361.663 224.514 361.139 225.371 361.347 226.224Z" fill="#D8A471"/>
<path d="M375.225 220.192L376.385 224.973C376.676 226.169 376.608 227.374 376.246 228.467C376.19 228.639 376.121 228.808 376.051 228.971C375.101 219.655 373.27 218.716 371.134 219.253C368.835 219.823 367.625 217.119 367.625 217.119L370.918 215.601C371.136 215.669 371.349 215.746 371.561 215.84C373.335 216.617 374.737 218.178 375.225 220.192Z" fill="#E5B67F"/>
<path d="M374.65 235.643L375.506 236.532L373.883 239.687C373.762 239.726 373.639 239.761 373.51 239.793C373.492 239.802 373.472 239.807 373.452 239.812L373.447 239.813C373.423 239.825 373.398 239.83 373.368 239.833L374.13 234.992L374.132 234.98L374.259 234.183L374.263 234.177L374.275 234.095L373.962 232.806L375.829 234.725L374.712 235.594L374.65 235.643Z" fill="#CC8E2B"/>
<path d="M372.938 239.948L373.008 239.932C373.106 239.908 373.206 239.884 373.297 239.851C373.323 239.85 373.348 239.843 373.367 239.834C373.398 239.832 373.423 239.826 373.446 239.814L373.451 239.813L373.638 239.243L374.626 236.175L374.433 235.376L374.873 234.681L374.323 233.67C374.323 233.67 374.3 233.765 374.235 233.933L374.228 233.945L374.23 233.955C374.061 234.427 373.64 235.395 372.87 236.071C372.699 236.212 372.523 236.349 372.313 236.458C371.99 236.448 371.682 236.385 371.396 236.292C370.503 236.009 369.793 235.415 369.47 235.101L369.462 235.092C369.328 234.973 369.263 234.899 369.263 234.899L369.238 236.05L369.947 236.465L370.141 237.264L372.106 239.222L372.849 239.966L372.855 239.97L372.938 239.948Z" fill="white"/>
<path d="M374.711 235.596L375.505 236.532L373.509 239.793C373.491 239.802 373.471 239.807 373.451 239.812L373.446 239.813C373.422 239.825 373.397 239.83 373.367 239.833C373.348 239.842 373.323 239.849 373.297 239.85L374.034 235.204L374.033 235.198L374.229 233.954L374.227 233.944L374.234 233.931L373.922 232.643L375.828 234.726L374.609 235.479L374.711 235.596Z" fill="#E09F36"/>
<path d="M372.803 239.975C372.709 239.998 372.619 240.02 372.528 240.031L372.523 240.032L369.522 237.984L369.875 236.801L369.798 236.788L368.406 236.528L369.186 233.966L369.459 235.091L369.499 235.256L369.506 235.264L369.531 235.3L369.538 235.308L370.033 235.981L370.034 235.987L372.937 239.948L372.853 239.969L372.828 239.975H372.803Z" fill="#CC8E2B"/>
<path d="M372.803 239.975L369.522 237.985L369.799 236.788L369.835 236.638L368.407 236.528L369.148 233.802L369.187 233.966L369.46 235.091L369.468 235.1L370.221 236.125L370.222 236.13L373.008 239.931L372.938 239.948L372.854 239.968L372.829 239.974L372.803 239.975Z" fill="#E09F36"/>
<path d="M371.144 214.594C371.144 214.594 367.805 214.411 367.203 214.556C366.6 214.702 365.841 214.962 364.718 215.539C363.593 216.117 362.11 217.849 362.11 217.849L361.928 218.573C361.788 218.813 361.649 219.082 361.654 219.148C361.659 219.21 361.665 219.415 361.669 219.602L361.518 220.199C361.554 220.175 361.64 220.124 361.743 220.053L362.026 220.523C362.044 220.511 362.419 219.473 363.361 218.63C364.602 217.814 366.401 217.247 367.927 217.882C370.699 219.037 374.842 216.966 374.842 216.966L371.144 214.594Z" fill="#E09F36"/>
<path d="M427.557 200.541L390.201 209.604C389.237 209.838 388.257 209.241 388.023 208.277L388.001 208.189C387.767 207.225 388.365 206.245 389.328 206.011L426.685 196.948C427.648 196.714 428.629 197.311 428.862 198.275L428.884 198.363C429.118 199.327 428.521 200.307 427.557 200.541Z" fill="#E29D2D"/>
<path d="M429.458 208.378L392.102 217.442C391.138 217.675 390.158 217.078 389.924 216.115L389.902 216.026C389.669 215.063 390.266 214.082 391.23 213.849L428.586 204.785C429.55 204.551 430.53 205.148 430.764 206.112L430.786 206.2C431.019 207.164 430.422 208.144 429.458 208.378Z" fill="#FFDCA4"/>
<path d="M431.36 216.215L394.003 225.279C393.04 225.513 392.059 224.916 391.826 223.952L391.804 223.864C391.57 222.9 392.167 221.92 393.131 221.686L430.488 212.622C431.451 212.389 432.432 212.986 432.665 213.949L432.687 214.038C432.922 215.001 432.324 215.982 431.36 216.215Z" fill="#FFDCA4"/>
<path d="M433.261 224.054L395.905 233.117C394.941 233.351 393.961 232.754 393.727 231.79L393.705 231.702C393.472 230.738 394.069 229.758 395.032 229.524L432.389 220.461C433.353 220.227 434.333 220.824 434.567 221.788L434.588 221.876C434.823 222.839 434.226 223.819 433.261 224.054Z" fill="#FFDCA4"/>
<path d="M373.107 338.768C372.488 338.768 371.868 338.755 371.249 338.73C370.529 338.701 369.969 338.093 369.998 337.374C370.027 336.655 370.645 336.098 371.354 336.124C373.587 336.215 375.837 336.131 378.093 335.873C378.806 335.789 379.456 336.305 379.537 337.019C379.619 337.735 379.105 338.382 378.39 338.463C376.626 338.665 374.848 338.768 373.107 338.768ZM364.409 337.871C364.32 337.871 364.23 337.861 364.138 337.843C361.812 337.352 359.506 336.657 357.282 335.779C356.613 335.513 356.285 334.756 356.549 334.087C356.815 333.417 357.572 333.091 358.242 333.354C360.327 334.179 362.493 334.83 364.676 335.291C365.38 335.441 365.831 336.132 365.684 336.837C365.554 337.45 365.013 337.871 364.409 337.871ZM385.067 337.185C384.488 337.185 383.96 336.798 383.807 336.212C383.624 335.516 384.041 334.803 384.737 334.62C386.884 334.059 389.048 333.336 391.169 332.473C391.838 332.202 392.597 332.524 392.868 333.189C393.139 333.857 392.819 334.617 392.152 334.888C389.925 335.794 387.653 336.553 385.399 337.143C385.288 337.172 385.177 337.185 385.067 337.185ZM351.533 332.802C351.306 332.802 351.077 332.743 350.868 332.618C348.871 331.43 346.903 330.053 345.019 328.53C344.46 328.077 344.373 327.256 344.826 326.696C345.28 326.135 346.1 326.049 346.66 326.503C348.446 327.949 350.31 329.253 352.2 330.378C352.819 330.746 353.023 331.547 352.654 332.166C352.41 332.575 351.977 332.802 351.533 332.802ZM397.932 331.98C397.473 331.98 397.028 331.738 396.791 331.308C396.442 330.677 396.669 329.884 397.298 329.535C399.265 328.445 401.2 327.221 403.048 325.899C403.633 325.481 404.447 325.616 404.868 326.202C405.286 326.787 405.151 327.603 404.566 328.021C402.636 329.4 400.617 330.676 398.564 331.815C398.363 331.927 398.146 331.98 397.932 331.98ZM340.728 324.107C340.386 324.107 340.043 323.973 339.788 323.706C338.188 322.039 336.634 320.226 335.165 318.317C334.727 317.745 334.834 316.926 335.405 316.488C335.976 316.049 336.794 316.156 337.234 316.727C338.644 318.561 340.135 320.302 341.67 321.899C342.169 322.419 342.152 323.244 341.633 323.744C341.378 323.987 341.052 324.107 340.728 324.107ZM409.224 323.913C408.868 323.913 408.513 323.767 408.255 323.482C407.772 322.947 407.816 322.123 408.35 321.641C410.048 320.11 411.656 318.483 413.13 316.803C413.605 316.263 414.429 316.208 414.97 316.682C415.511 317.158 415.565 317.981 415.09 318.522C413.549 320.278 411.87 321.978 410.097 323.576C409.847 323.802 409.536 323.913 409.224 323.913ZM413.706 316.166C413.044 316.166 412.476 315.662 412.41 314.988C412.339 314.272 412.864 313.634 413.58 313.565C414.829 313.442 416.084 313.243 417.334 312.968C416.995 312.534 416.954 311.915 417.278 311.434C418.57 309.517 419.703 307.546 420.646 305.575C420.957 304.925 421.735 304.648 422.384 304.962C423.034 305.273 423.309 306.051 422.997 306.7C422.094 308.589 421.026 310.476 419.821 312.318C419.919 312.288 420.018 312.258 420.116 312.227C420.808 312.015 421.536 312.397 421.751 313.083C421.965 313.77 421.583 314.502 420.895 314.717C418.564 315.445 416.187 315.931 413.832 316.162C413.791 316.164 413.748 316.166 413.706 316.166ZM406.771 316.066C406.715 316.066 406.66 316.062 406.604 316.055C404.322 315.761 401.961 315.21 399.591 314.416C398.908 314.187 398.54 313.448 398.768 312.766C398.997 312.083 399.734 311.714 400.418 311.944C402.628 312.684 404.821 313.197 406.935 313.469C407.65 313.562 408.154 314.215 408.062 314.928C407.978 315.587 407.418 316.066 406.771 316.066ZM332.237 313.106C331.802 313.106 331.376 312.888 331.129 312.492C329.865 310.465 328.699 308.384 327.666 306.306C327.346 305.661 327.607 304.879 328.252 304.558C328.896 304.237 329.679 304.501 330 305.145C330.997 307.148 332.12 309.155 333.34 311.112C333.721 311.722 333.535 312.527 332.923 312.908C332.711 313.042 332.473 313.106 332.237 313.106ZM426.912 312.087C426.445 312.087 425.993 311.836 425.759 311.395C425.421 310.759 425.663 309.969 426.298 309.632C428.247 308.597 430.146 307.368 431.948 305.98C432.519 305.541 433.338 305.646 433.776 306.216C434.216 306.788 434.11 307.606 433.54 308.045C431.623 309.522 429.599 310.83 427.523 311.934C427.329 312.038 427.119 312.087 426.912 312.087ZM393.629 311.715C393.419 311.715 393.206 311.664 393.009 311.557C390.844 310.385 388.832 309.038 387.028 307.557C386.471 307.1 386.39 306.278 386.848 305.722C387.306 305.165 388.128 305.085 388.683 305.543C390.359 306.918 392.233 308.172 394.252 309.265C394.885 309.609 395.12 310.399 394.776 311.033C394.541 311.468 394.093 311.715 393.629 311.715ZM437.897 303.659C437.574 303.659 437.251 303.539 436.999 303.299C436.476 302.803 436.456 301.979 436.951 301.456C438.483 299.842 439.924 298.083 441.234 296.228C441.649 295.641 442.461 295.499 443.051 295.914C443.64 296.329 443.78 297.142 443.364 297.731C441.982 299.69 440.461 301.548 438.842 303.252C438.587 303.522 438.242 303.659 437.897 303.659ZM383.024 302.875C382.63 302.875 382.241 302.697 381.984 302.36C380.464 300.358 379.267 298.213 378.424 295.985C378.169 295.311 378.51 294.558 379.183 294.303C379.855 294.05 380.608 294.387 380.864 295.061C381.617 297.054 382.693 298.979 384.061 300.78C384.496 301.354 384.384 302.172 383.811 302.608C383.576 302.789 383.299 302.875 383.024 302.875ZM424.272 300.943C424.158 300.943 424.042 300.929 423.927 300.896C423.232 300.706 422.824 299.988 423.014 299.294C423.624 297.069 423.985 294.861 424.083 292.731C424.117 292.012 424.702 291.461 425.447 291.489C426.167 291.522 426.722 292.133 426.689 292.853C426.581 295.175 426.19 297.573 425.529 299.984C425.37 300.563 424.845 300.943 424.272 300.943ZM445.902 292.343C445.701 292.343 445.496 292.296 445.305 292.196C444.666 291.866 444.415 291.08 444.746 290.44C445.772 288.454 446.682 286.362 447.452 284.226C447.697 283.548 448.444 283.197 449.121 283.441C449.799 283.686 450.15 284.433 449.906 285.11C449.098 287.353 448.14 289.548 447.061 291.637C446.83 292.086 446.374 292.343 445.902 292.343ZM378.236 290.053C377.545 290.053 376.969 289.51 376.934 288.812C376.915 288.41 376.904 288.007 376.904 287.605C376.904 285.616 377.144 283.579 377.619 281.552C377.783 280.849 378.49 280.414 379.185 280.579C379.886 280.743 380.322 281.444 380.158 282.145C379.73 283.977 379.513 285.814 379.513 287.605C379.513 287.966 379.522 288.325 379.54 288.685C379.575 289.405 379.021 290.015 378.3 290.051C378.279 290.052 378.257 290.053 378.236 290.053ZM424.833 287.18C424.225 287.18 423.68 286.752 423.556 286.132C423.13 284.004 422.474 281.848 421.604 279.723C421.33 279.057 421.65 278.295 422.317 278.022C422.983 277.751 423.745 278.069 424.018 278.736C424.949 281.014 425.656 283.33 426.114 285.621C426.255 286.327 425.796 287.014 425.091 287.156C425.005 287.172 424.918 287.18 424.833 287.18ZM381.282 276.64C381.083 276.64 380.881 276.594 380.692 276.499C380.051 276.172 379.794 275.388 380.121 274.745C381.223 272.58 382.569 270.548 384.122 268.707C384.587 268.157 385.409 268.087 385.961 268.553C386.511 269.018 386.579 269.84 386.115 270.391C384.692 272.077 383.457 273.94 382.446 275.927C382.215 276.379 381.757 276.64 381.282 276.64ZM419.616 274.363C419.186 274.363 418.764 274.151 418.516 273.762C417.268 271.811 415.874 270.051 414.377 268.533C413.871 268.02 413.877 267.194 414.389 266.689C414.902 266.183 415.728 266.188 416.234 266.701C417.86 268.349 419.366 270.252 420.713 272.355C421.101 272.962 420.923 273.769 420.317 274.156C420.1 274.296 419.856 274.363 419.616 274.363ZM390.214 266.145C389.804 266.145 389.402 265.952 389.148 265.593C388.732 265.004 388.873 264.191 389.461 263.776C391.567 262.291 393.781 261.195 396.044 260.52C396.734 260.317 397.46 260.706 397.666 261.397C397.872 262.087 397.48 262.813 396.79 263.019C394.798 263.614 392.838 264.585 390.964 265.907C390.736 266.068 390.474 266.145 390.214 266.145ZM409.826 264.674C409.61 264.674 409.392 264.621 409.191 264.507C407.215 263.401 405.175 262.71 403.125 262.456C402.411 262.367 401.903 261.715 401.992 261.001C402.082 260.286 402.726 259.779 403.447 259.868C405.834 260.165 408.194 260.96 410.465 262.233C411.093 262.584 411.318 263.379 410.966 264.006C410.727 264.433 410.283 264.674 409.826 264.674Z" fill="#52D1BD"/>
<path opacity="0.1" d="M470.035 286.751C479.957 276.83 479.957 260.743 470.035 250.821C460.113 240.899 444.026 240.899 434.104 250.821C424.182 260.743 424.182 276.83 434.104 286.751C444.026 296.673 460.113 296.673 470.035 286.751Z" fill="#232323"/>
<path d="M457.474 291.157C471.506 291.157 482.881 279.782 482.881 265.75C482.881 251.718 471.506 240.343 457.474 240.343C443.442 240.343 432.067 251.718 432.067 265.75C432.067 279.782 443.442 291.157 457.474 291.157Z" fill="#F4B545"/>
<path d="M462.001 258.388L462.602 256.393L467.424 256.736L463.716 269.636C463.487 270.452 463.362 270.994 463.343 271.262C463.324 271.541 463.378 271.766 463.507 271.934C463.635 272.102 463.797 272.193 463.992 272.207C464.651 272.254 465.53 271.885 466.632 271.1C467.735 270.316 468.725 269.211 469.604 267.786C470.483 266.362 470.984 264.773 471.109 263.019C471.213 261.558 471.034 260.161 470.572 258.832C470.11 257.502 469.389 256.324 468.409 255.3C467.43 254.275 466.188 253.44 464.686 252.795C463.183 252.149 461.458 251.758 459.509 251.619C457.524 251.477 455.685 251.606 453.992 252.006C452.299 252.406 450.79 253.045 449.467 253.924C448.144 254.802 447.012 255.925 446.071 257.29C445.24 258.479 444.575 259.815 444.078 261.297C443.58 262.78 443.276 264.306 443.164 265.877C443.014 267.971 443.296 269.916 444.006 271.711C444.717 273.505 445.826 275.047 447.331 276.335C448.837 277.624 450.698 278.594 452.916 279.248C455.134 279.901 457.672 280.182 460.531 280.093C462.803 279.985 464.748 279.61 466.367 278.966C467.985 278.322 469.386 277.357 470.567 276.07L474.458 276.347C473.732 277.605 472.825 278.71 471.735 279.66C470.645 280.611 469.393 281.387 467.98 281.991C466.566 282.595 465 283.018 463.281 283.263C461.562 283.509 459.705 283.559 457.707 283.417C454.711 283.204 452.042 282.62 449.698 281.663C447.354 280.707 445.416 279.431 443.884 277.834C442.351 276.238 441.238 274.384 440.544 272.272C439.849 270.16 439.591 267.863 439.767 265.378C439.952 262.784 440.556 260.391 441.581 258.199C442.606 256.008 443.992 254.139 445.735 252.593C447.479 251.046 449.557 249.887 451.968 249.116C454.379 248.345 456.997 248.06 459.823 248.261C462.137 248.426 464.235 248.915 466.117 249.727C467.999 250.541 469.583 251.63 470.869 252.994C472.156 254.359 473.099 255.934 473.7 257.722C474.301 259.508 474.528 261.45 474.378 263.544C474.262 265.176 473.856 266.753 473.16 268.277C472.464 269.801 471.526 271.148 470.348 272.318C469.169 273.49 467.817 274.384 466.292 275.004C464.766 275.624 463.151 275.873 461.447 275.751C460.461 275.681 459.706 275.459 459.181 275.085C458.657 274.711 458.33 274.152 458.199 273.409C457.065 274.381 455.8 274.955 454.404 275.13C453.009 275.307 451.684 275.084 450.431 274.461C449.179 273.839 448.197 272.874 447.489 271.562C446.781 270.252 446.491 268.676 446.622 266.837C446.758 264.925 447.303 263.073 448.257 261.28C449.211 259.488 450.487 258.055 452.088 256.981C453.688 255.908 455.444 255.439 457.356 255.575C459.546 255.735 461.095 256.672 462.001 258.388ZM451.335 267.14C451.231 268.601 451.455 269.744 452.009 270.566C452.562 271.389 453.333 271.835 454.319 271.906C455.464 271.987 456.504 271.602 457.44 270.751C458.375 269.9 459.118 268.793 459.668 267.43C460.218 266.068 460.54 264.735 460.632 263.432C460.678 262.787 460.643 262.199 460.528 261.672C460.413 261.143 460.22 260.674 459.95 260.263C459.679 259.852 459.34 259.532 458.935 259.3C458.529 259.069 458.059 258.934 457.523 258.896C456.451 258.82 455.456 259.168 454.538 259.942C453.62 260.714 452.882 261.751 452.325 263.052C451.766 264.352 451.436 265.715 451.335 267.14Z" fill="white"/>
<path d="M382.797 124.897L385.543 123.454C386.165 123.127 386.892 123.655 386.774 124.348L386.249 127.405C386.203 127.68 386.293 127.961 386.493 128.156L388.715 130.321C389.218 130.811 388.94 131.667 388.244 131.768L385.174 132.214C384.898 132.255 384.659 132.428 384.536 132.679L383.163 135.461C382.851 136.091 381.953 136.091 381.642 135.461L380.269 132.679C380.145 132.428 379.906 132.255 379.63 132.214L376.56 131.768C375.865 131.667 375.587 130.812 376.09 130.321L378.311 128.156C378.511 127.961 378.602 127.68 378.555 127.405L378.031 124.348C377.913 123.655 378.639 123.127 379.261 123.454L382.007 124.897C382.255 125.028 382.55 125.028 382.797 124.897Z" fill="#4786D1"/>
<path d="M159.449 345.745C155.424 345.745 152.149 342.471 152.149 338.446C152.149 334.421 155.424 331.146 159.449 331.146C163.474 331.146 166.749 334.421 166.749 338.446C166.749 342.471 163.474 345.745 159.449 345.745ZM159.449 333.153C156.531 333.153 154.158 335.527 154.158 338.445C154.158 341.363 156.532 343.736 159.449 343.736C162.366 343.736 164.741 341.362 164.741 338.445C164.741 335.528 162.366 333.153 159.449 333.153Z" fill="#4786D1"/>
<path d="M162.075 341.073C163.526 339.621 163.526 337.267 162.075 335.815C160.623 334.363 158.269 334.363 156.817 335.815C155.365 337.267 155.365 339.621 156.817 341.073C158.269 342.524 160.623 342.524 162.075 341.073Z" fill="#4786D1"/>
<path d="M310.376 382.056C312.229 382.056 313.732 380.554 313.732 378.701C313.732 376.848 312.229 375.346 310.376 375.346C308.523 375.346 307.021 376.848 307.021 378.701C307.021 380.554 308.523 382.056 310.376 382.056Z" fill="#4786D1"/>
<path d="M254.681 115.537C256.534 115.537 258.036 114.034 258.036 112.181C258.036 110.328 256.534 108.826 254.681 108.826C252.828 108.826 251.325 110.328 251.325 112.181C251.325 114.034 252.828 115.537 254.681 115.537Z" fill="#4786D1"/>
</svg>
