<svg width="315" height="349" viewBox="0 0 315 349" fill="none" xmlns="http://www.w3.org/2000/svg">
<path d="M127.394 1.6362H288.886C302.397 1.6362 313.364 12.6104 313.364 26.1294V96.5873C313.364 110.106 302.397 121.081 288.886 121.081H244.222" stroke="#FBB910" stroke-width="1.5" stroke-miterlimit="10"/>
<path d="M285.31 111.299H49.9068C40.7672 111.299 33.2966 103.903 33.2966 94.6787V27.9585C33.2966 18.8133 40.6877 11.3381 49.9068 11.3381H285.31C294.449 11.3381 301.92 18.7338 301.92 27.9585V94.6787C301.92 103.824 294.449 111.299 285.31 111.299Z" fill="white"/>
<path d="M40.2109 82.9887C62.0255 82.9887 79.7097 65.2936 79.7097 43.4656C79.7097 21.6375 62.0255 3.94238 40.2109 3.94238C18.3964 3.94238 0.712158 21.6375 0.712158 43.4656C0.712158 65.2936 18.3964 82.9887 40.2109 82.9887Z" fill="#CFCFCF"/>
<path d="M46.092 45.1356C48.5557 43.5451 50.2247 40.7618 50.2247 37.5808C50.2247 32.6504 46.251 28.5947 41.2441 28.5947C36.3167 28.5947 32.2635 32.5708 32.2635 37.5808C32.2635 40.7618 33.9324 43.5451 36.3961 45.1356C30.4356 47.1236 26.2234 52.7698 26.2234 59.3703C26.2234 60.086 25.8261 61.6764 25.9055 62.3922C29.7998 65.8912 35.5219 67.2431 41.1646 67.2431C46.8867 67.2431 52.1321 65.096 56.0263 61.5174C56.1058 60.8017 56.1852 60.1655 56.1852 59.4498C56.2647 52.7698 51.9731 47.2032 46.092 45.1356Z" fill="white"/>
<path d="M63.7353 43.6246C63.7353 55.7917 57.3773 67.6407 39.734 67.6407C26.4618 67.6407 15.7328 56.905 15.7328 43.6246C15.7328 30.3442 26.4618 19.6085 39.734 19.6085C52.9268 19.6085 63.7353 30.3442 63.7353 43.6246Z" stroke="white" stroke-width="1.1146" stroke-miterlimit="10"/>
<path d="M266.315 40.5232C266.077 40.5232 265.839 40.4437 265.68 40.2846L259.401 34.2408C259.004 33.8432 259.004 33.2865 259.322 32.8889C259.64 32.4913 260.275 32.4913 260.673 32.8889L266.315 38.2965L278.316 25.8113C278.634 25.4137 279.27 25.4137 279.667 25.8113C280.064 26.209 280.064 26.7656 279.747 27.1632L266.951 40.2051C266.792 40.4437 266.554 40.5232 266.315 40.5232Z" fill="#FBB910"/>
<path d="M267.11 49.5889C259.957 49.5889 253.917 43.7837 253.6 36.6265C253.282 29.4694 258.924 23.6642 266.077 23.6642C268.302 23.6642 270.607 24.2209 272.594 25.3342C273.071 25.5728 273.23 26.1294 272.991 26.6066C272.753 27.0837 272.197 27.2428 271.72 26.9247C270.051 25.9704 268.064 25.4933 266.156 25.4933C260.037 25.4933 255.268 30.5032 255.507 36.6265C255.745 42.7499 260.911 47.7598 267.031 47.7598C273.15 47.7598 277.919 42.7499 277.68 36.6265C277.68 35.7518 277.521 34.7975 277.283 33.9227C277.124 33.4456 277.442 32.8889 277.919 32.8094C278.396 32.6504 278.952 32.9685 279.111 33.5251C279.429 34.5589 279.588 35.5927 279.588 36.7061C279.906 43.7837 274.263 49.5889 267.11 49.5889Z" fill="#FBB910"/>
<path d="M89.9619 30.6623H93.8561C94.8098 30.6623 95.684 30.8213 96.3993 31.219C97.1145 31.6166 97.7504 32.1732 98.1477 32.8094C98.5451 33.5251 98.7835 34.3204 98.7835 35.1951C98.7835 36.0699 98.5451 36.8651 98.1477 37.5808C97.7504 38.2965 97.1145 38.8532 96.3993 39.1713C95.684 39.5689 94.8098 39.728 93.8561 39.728H89.9619V30.6623ZM93.7766 38.6942C94.4919 38.6942 95.2072 38.5351 95.7635 38.2965C96.3198 37.9785 96.7967 37.5808 97.0351 37.1037C97.353 36.547 97.5119 35.9904 97.5119 35.2747C97.5119 34.5589 97.353 34.0023 97.0351 33.4456C96.7172 32.889 96.3198 32.4913 95.7635 32.2528C95.2072 31.9347 94.5714 31.8551 93.7766 31.8551H91.3129V38.7737H93.7766V38.6942Z" fill="#FBB910"/>
<path d="M106.493 37.5808H101.645L100.611 39.887H99.2604L103.393 30.7418H104.665L108.797 39.887H107.446L106.493 37.5808ZM106.016 36.547L104.029 32.0142L102.042 36.547H106.016Z" fill="#FBB910"/>
<path d="M111.658 31.8551H108.479V30.7418H116.029V31.8551H112.85V39.887H111.579V31.8551H111.658Z" fill="#FBB910"/>
<path d="M124.136 38.6942V39.8075H117.46V30.6623H123.897V31.7756H118.732V34.5589H123.341V35.6723H118.732V38.6146H124.136V38.6942Z" fill="#FBB910"/>
<path d="M132.401 28.8333H133.514L129.222 41.1594H128.11L132.401 28.8333Z" fill="#FBB910"/>
<path d="M140.031 30.6623V39.8075H138.759V31.8551H136.693V30.7418H140.031V30.6623Z" fill="#FBB910"/>
<path d="M148.455 38.6942V39.8075H141.859V38.9327L145.594 35.3542C146.071 34.9566 146.389 34.5589 146.548 34.2408C146.707 33.9227 146.786 33.6047 146.786 33.2866C146.786 32.8094 146.627 32.4118 146.309 32.1732C145.991 31.9347 145.514 31.7756 144.879 31.7756C143.845 31.7756 143.051 32.0937 142.494 32.8094L141.62 32.0142C142.018 31.537 142.415 31.219 143.051 30.9804C143.607 30.7418 144.243 30.5828 144.958 30.5828C145.912 30.5828 146.707 30.8213 147.263 31.2985C147.819 31.7756 148.137 32.4118 148.137 33.1275C148.137 33.6047 148.058 34.0818 147.819 34.4794C147.581 34.9566 147.183 35.4337 146.627 35.9904L143.845 38.6942H148.455Z" fill="#FBB910"/>
<path d="M149.806 34.3999C149.647 34.2408 149.568 34.0023 149.568 33.7637C149.568 33.5251 149.647 33.2866 149.806 33.1275C149.965 32.9685 150.203 32.8889 150.442 32.8889C150.68 32.8889 150.919 32.9685 151.078 33.1275C151.237 33.2866 151.316 33.5251 151.316 33.7637C151.316 34.0023 151.237 34.2408 151.078 34.3999C150.919 34.5589 150.68 34.6385 150.442 34.6385C150.203 34.6385 149.965 34.5589 149.806 34.3999ZM149.806 39.728C149.647 39.5689 149.568 39.3304 149.568 39.0918C149.568 38.8532 149.647 38.6146 149.806 38.4556C149.965 38.2965 150.203 38.217 150.442 38.217C150.68 38.217 150.919 38.2965 151.078 38.4556C151.237 38.6146 151.316 38.8532 151.316 39.0918C151.316 39.3304 151.237 39.5689 151.078 39.728C150.919 39.887 150.68 39.9665 150.442 39.9665C150.203 39.9665 149.965 39.887 149.806 39.728Z" fill="#FBB910"/>
<path d="M154.336 39.4099C153.78 39.0123 153.303 38.5351 152.985 37.8194C152.667 37.1037 152.508 36.3085 152.508 35.2746C152.508 34.3204 152.667 33.4456 152.985 32.7299C153.303 32.0142 153.78 31.4575 154.336 31.1394C154.892 30.7418 155.528 30.5828 156.243 30.5828C156.959 30.5828 157.595 30.7418 158.151 31.1394C158.707 31.537 159.184 32.0142 159.502 32.7299C159.82 33.4456 159.979 34.2408 159.979 35.2746C159.979 36.2289 159.82 37.1037 159.502 37.8194C159.184 38.5351 158.707 39.0918 158.151 39.4099C157.595 39.8075 156.959 39.9665 156.243 39.9665C155.528 39.9665 154.892 39.8075 154.336 39.4099ZM158.071 37.8989C158.548 37.2627 158.707 36.388 158.707 35.2746C158.707 34.1613 158.469 33.2866 158.071 32.6504C157.595 32.0142 157.038 31.7756 156.323 31.7756C155.608 31.7756 154.972 32.0937 154.575 32.6504C154.098 33.2866 153.939 34.1613 153.939 35.2746C153.939 36.388 154.177 37.2627 154.575 37.8989C155.051 38.5351 155.608 38.7737 156.323 38.7737C157.038 38.7737 157.595 38.5351 158.071 37.8989Z" fill="#FBB910"/>
<path d="M163.078 39.4099C162.522 39.0123 162.045 38.5351 161.727 37.8194C161.409 37.1037 161.25 36.3085 161.25 35.2746C161.25 34.3204 161.409 33.4456 161.727 32.7299C162.045 32.0142 162.522 31.4575 163.078 31.1394C163.635 30.7418 164.27 30.5828 164.986 30.5828C165.701 30.5828 166.337 30.7418 166.893 31.1394C167.449 31.537 167.926 32.0142 168.244 32.7299C168.562 33.4456 168.721 34.2408 168.721 35.2746C168.721 36.2289 168.562 37.1037 168.244 37.8194C167.926 38.5351 167.449 39.0918 166.893 39.4099C166.337 39.8075 165.701 39.9665 164.986 39.9665C164.27 39.9665 163.635 39.8075 163.078 39.4099ZM166.814 37.8989C167.29 37.2627 167.449 36.388 167.449 35.2746C167.449 34.1613 167.211 33.2866 166.814 32.6504C166.337 32.0142 165.78 31.7756 165.065 31.7756C164.35 31.7756 163.714 32.0937 163.317 32.6504C162.84 33.2866 162.681 34.1613 162.681 35.2746C162.681 36.388 162.919 37.2627 163.317 37.8989C163.794 38.5351 164.35 38.7737 165.065 38.7737C165.78 38.7737 166.337 38.5351 166.814 37.8989Z" fill="#FBB910"/>
<path d="M180.642 31.5371C181.357 32.0937 181.675 32.889 181.675 33.9228C181.675 34.9566 181.357 35.6723 180.642 36.3085C179.927 36.8651 179.053 37.1832 177.861 37.1832H175.556V39.9665H174.284V30.6623H177.861C179.053 30.6623 180.006 30.9804 180.642 31.5371ZM179.688 35.4337C180.086 35.1156 180.324 34.5589 180.324 33.9228C180.324 33.2866 180.086 32.7299 179.688 32.4118C179.212 32.0937 178.655 31.8551 177.781 31.8551H175.556V35.9904H177.781C178.655 35.9904 179.291 35.7518 179.688 35.4337Z" fill="#FBB910"/>
<path d="M192.086 39.887V33.207L188.748 38.7737H188.113L184.775 33.207V39.887H183.503V30.6623H184.616L188.431 37.1037L192.166 30.6623H193.279V39.8075H192.086V39.887Z" fill="#FBB910"/>
<path d="M100.929 58.9727H93.6972L92.3461 62.3126H88.6108L95.5251 46.726H99.1014L106.095 62.3126H102.28L100.929 58.9727ZM99.7372 56.2689L97.2735 50.3046L94.8098 56.2689H99.7372Z" fill="black"/>
<path d="M121.831 46.726L115.076 62.3126H111.499L104.824 46.726H108.718L113.486 57.8593L118.334 46.726H121.831Z" fill="black"/>
<path d="M132.878 58.9727H125.646L124.295 62.3126H120.56L127.474 46.726H131.05L138.044 62.3126H134.229L132.878 58.9727ZM131.765 56.2689L129.302 50.3046L126.838 56.2689H131.765Z" fill="black"/>
<path d="M139.713 46.726H143.289V62.3126H139.713V46.726Z" fill="black"/>
<path d="M147.024 46.726H150.601V59.3703H158.389V62.3126H146.945V46.726H147.024Z" fill="black"/>
<path d="M170.867 58.9727H163.635L162.284 62.3126H158.548L165.462 46.726H169.039L176.033 62.3126H172.218L170.867 58.9727ZM169.754 56.2689L167.29 50.3046L164.827 56.2689H169.754Z" fill="black"/>
<path d="M191.212 55.6327C191.689 56.2689 192.007 57.1436 192.007 58.0979C192.007 59.4498 191.451 60.4836 190.417 61.2788C189.384 61.9946 187.795 62.3922 185.808 62.3922H177.781V46.726H185.411C187.318 46.726 188.748 47.1237 189.782 47.8394C190.815 48.5551 191.292 49.5889 191.292 50.7817C191.292 51.577 191.133 52.2132 190.735 52.8494C190.338 53.406 189.861 53.8832 189.225 54.2808C190.02 54.5193 190.656 54.9965 191.212 55.6327ZM181.198 49.4298V53.0879H184.775C185.649 53.0879 186.364 52.9289 186.841 52.6108C187.318 52.2927 187.556 51.8155 187.556 51.2589C187.556 50.6227 187.318 50.2251 186.841 49.907C186.364 49.5889 185.728 49.4298 184.775 49.4298H181.198ZM187.556 59.1317C188.033 58.8136 188.272 58.3365 188.272 57.7003C188.272 56.4279 187.318 55.7917 185.411 55.7917H181.198V59.6088H185.411C186.364 59.6088 187.08 59.4498 187.556 59.1317Z" fill="black"/>
<path d="M194.709 46.726H198.285V59.3703H206.074V62.3126H194.63V46.726H194.709Z" fill="black"/>
<path d="M220.22 59.4498V62.3126H208.14V46.726H219.902V49.5889H211.717V53.0084H218.949V55.7917H211.717V59.3703H220.22V59.4498Z" fill="black"/>
<path d="M285.469 72.2531H86.306V79.4102H285.469V72.2531Z" fill="#D9D9D9"/>
<path d="M285.469 85.4539H86.306V92.6111H285.469V85.4539Z" fill="#D9D9D9"/>
<path d="M157.356 103.983V300.804L126.997 347.723" stroke="url(#paint0_linear)" stroke-width="1.5" stroke-miterlimit="10"/>
<path d="M157.356 106.846C160.077 106.846 162.283 104.638 162.283 101.915C162.283 99.1923 160.077 96.9849 157.356 96.9849C154.635 96.9849 152.429 99.1923 152.429 101.915C152.429 104.638 154.635 106.846 157.356 106.846Z" fill="url(#paint1_linear)"/>
<defs>
<linearGradient id="paint0_linear" x1="126.511" y1="226.034" x2="157.921" y2="226.034" gradientUnits="userSpaceOnUse">
<stop stop-color="#EEBE26"/>
<stop offset="0.5746" stop-color="#EEBE27"/>
<stop offset="0.7815" stop-color="#F1BA2B"/>
<stop offset="0.9285" stop-color="#F6B430"/>
<stop offset="1" stop-color="#F9AF34"/>
</linearGradient>
<linearGradient id="paint1_linear" x1="152.387" y1="101.938" x2="162.262" y2="101.938" gradientUnits="userSpaceOnUse">
<stop stop-color="#EEBE26"/>
<stop offset="0.5746" stop-color="#EEBE27"/>
<stop offset="0.7815" stop-color="#F1BA2B"/>
<stop offset="0.9285" stop-color="#F6B430"/>
<stop offset="1" stop-color="#F9AF34"/>
</linearGradient>
</defs>
</svg>
