<svg width="222" height="245" viewBox="0 0 222 245" fill="none" xmlns="http://www.w3.org/2000/svg">
<path d="M89.6411 1H203.224C212.726 1 220.44 8.71857 220.44 18.227V67.7824C220.44 77.2908 212.726 85.0093 203.224 85.0093H171.81" stroke="#FFE178" stroke-width="1.5" stroke-miterlimit="10"/>
<path d="M200.708 78.1297H35.1412C28.7131 78.1297 23.4587 72.9281 23.4587 66.44V19.5133C23.4587 13.0812 28.6572 7.82361 35.1412 7.82361H200.708C207.137 7.82361 212.391 13.0253 212.391 19.5133V66.44C212.391 72.8721 207.137 78.1297 200.708 78.1297Z" fill="white"/>
<path d="M28.3219 58.2181C43.6648 58.2181 56.1027 45.7725 56.1027 30.42C56.1027 15.0676 43.6648 2.62201 28.3219 2.62201C12.9789 2.62201 0.541016 15.0676 0.541016 30.42C0.541016 45.7725 12.9789 58.2181 28.3219 58.2181Z" fill="#CFCFCF"/>
<path d="M32.4582 31.5946C34.191 30.476 35.3648 28.5184 35.3648 26.2811C35.3648 22.8133 32.57 19.9608 29.0485 19.9608C25.5828 19.9608 22.7321 22.7574 22.7321 26.2811C22.7321 28.5184 23.9059 30.476 25.6387 31.5946C21.4464 32.9929 18.4839 36.964 18.4839 41.6064C18.4839 42.1098 18.2044 43.2284 18.2603 43.7318C20.9993 46.1928 25.0239 47.1436 28.9926 47.1436C33.0171 47.1436 36.7064 45.6334 39.4453 43.1165C39.5012 42.6131 39.5571 42.1657 39.5571 41.6623C39.613 36.964 36.5946 33.0488 32.4582 31.5946Z" fill="white"/>
<path d="M44.8673 30.5319C44.8673 39.0894 40.3955 47.4232 27.9864 47.4232C18.6516 47.4232 11.1055 39.8725 11.1055 30.5319C11.1055 21.1913 18.6516 13.6405 27.9864 13.6405C37.2653 13.6405 44.8673 21.1913 44.8673 30.5319Z" stroke="white" stroke-width="1.1146" stroke-miterlimit="10"/>
<path d="M187.349 28.3506C187.181 28.3506 187.014 28.2946 186.902 28.1828L182.486 23.932C182.206 23.6523 182.207 23.2608 182.43 22.9811C182.654 22.7015 183.101 22.7015 183.38 22.9811L187.349 26.7845L195.789 18.0032C196.013 17.7235 196.46 17.7235 196.74 18.0032C197.019 18.2829 197.019 18.6744 196.796 18.954L187.796 28.1268C187.684 28.2946 187.517 28.3506 187.349 28.3506Z" fill="#FFE178"/>
<path d="M187.908 34.7268C182.877 34.7268 178.629 30.6438 178.405 25.6099C178.182 20.5761 182.151 16.493 187.181 16.493C188.746 16.493 190.367 16.8846 191.765 17.6676C192.1 17.8354 192.212 18.2269 192.044 18.5625C191.877 18.8981 191.485 19.01 191.15 18.7862C189.976 18.1151 188.579 17.7795 187.237 17.7795C182.933 17.7795 179.579 21.3032 179.747 25.6099C179.915 29.9166 183.548 33.4403 187.852 33.4403C192.156 33.4403 195.51 29.9166 195.342 25.6099C195.342 24.9947 195.231 24.3235 195.063 23.7082C194.951 23.3726 195.175 22.9811 195.51 22.9252C195.845 22.8133 196.237 23.037 196.348 23.4286C196.572 24.1557 196.684 24.8828 196.684 25.6658C196.907 30.6438 192.939 34.7268 187.908 34.7268Z" fill="#FFE178"/>
<path d="M63.3135 21.415H66.0524C66.7232 21.415 67.3381 21.5269 67.8411 21.8066C68.3442 22.0862 68.7914 22.4777 69.0709 22.9252C69.3504 23.4286 69.5181 23.9879 69.5181 24.6031C69.5181 25.2184 69.3504 25.7777 69.0709 26.2811C68.7914 26.7845 68.3442 27.176 67.8411 27.3997C67.3381 27.6794 66.7232 27.7912 66.0524 27.7912H63.3135V21.415ZM65.9965 27.0641C66.4996 27.0641 67.0027 26.9523 67.394 26.7845C67.7853 26.5608 68.1206 26.2811 68.2883 25.9455C68.5119 25.554 68.6237 25.1625 68.6237 24.6591C68.6237 24.1557 68.5119 23.7642 68.2883 23.3726C68.0647 22.9811 67.7853 22.7015 67.394 22.5337C67.0027 22.3099 66.5555 22.254 65.9965 22.254H64.2637V27.1201H65.9965V27.0641Z" fill="#FFE178"/>
<path d="M74.9402 26.2811H71.5304L70.8038 27.9031H69.8535L72.7602 21.4709H73.6545L76.5612 27.9031H75.6109L74.9402 26.2811ZM74.6048 25.554L73.2074 22.3659L71.8099 25.554H74.6048Z" fill="#FFE178"/>
<path d="M78.5733 22.254H76.3374V21.4709H81.6476V22.254H79.4117V27.9031H78.5174V22.254H78.5733Z" fill="#FFE178"/>
<path d="M87.3492 27.0641V27.8472H82.6538V21.415H87.1815V22.1981H83.5482V24.1557H86.7902V24.9387H83.5482V27.0082H87.3492V27.0641Z" fill="#FFE178"/>
<path d="M93.1625 20.1287H93.945L90.9266 28.7981H90.144L93.1625 20.1287Z" fill="#FFE178"/>
<path d="M98.5286 21.415V27.8472H97.6342V22.254H96.1809V21.471H98.5286V21.415Z" fill="#FFE178"/>
<path d="M104.454 27.0642V27.8472H99.8142V27.232L102.441 24.715C102.777 24.4354 103 24.1557 103.112 23.932C103.224 23.7083 103.28 23.4845 103.28 23.2608C103.28 22.9252 103.168 22.6456 102.944 22.4778C102.721 22.31 102.385 22.1981 101.938 22.1981C101.212 22.1981 100.653 22.4218 100.261 22.9252L99.6465 22.3659C99.926 22.0303 100.205 21.8066 100.653 21.6388C101.044 21.471 101.491 21.3591 101.994 21.3591C102.665 21.3591 103.224 21.5269 103.615 21.8625C104.006 22.1981 104.23 22.6456 104.23 23.1489C104.23 23.4845 104.174 23.8201 104.006 24.0998C103.839 24.4354 103.559 24.771 103.168 25.1625L101.212 27.0642H104.454Z" fill="#FFE178"/>
<path d="M105.404 24.0438C105.292 23.932 105.236 23.7642 105.236 23.5964C105.236 23.4286 105.292 23.2608 105.404 23.1489C105.516 23.0371 105.684 22.9811 105.851 22.9811C106.019 22.9811 106.187 23.0371 106.298 23.1489C106.41 23.2608 106.466 23.4286 106.466 23.5964C106.466 23.7642 106.41 23.932 106.298 24.0438C106.187 24.1557 106.019 24.2116 105.851 24.2116C105.684 24.2116 105.516 24.1557 105.404 24.0438ZM105.404 27.7913C105.292 27.6794 105.236 27.5116 105.236 27.3438C105.236 27.176 105.292 27.0082 105.404 26.8964C105.516 26.7845 105.684 26.7286 105.851 26.7286C106.019 26.7286 106.187 26.7845 106.298 26.8964C106.41 27.0082 106.466 27.176 106.466 27.3438C106.466 27.5116 106.41 27.6794 106.298 27.7913C106.187 27.9031 106.019 27.9591 105.851 27.9591C105.684 27.9591 105.516 27.9031 105.404 27.7913Z" fill="#FFE178"/>
<path d="M108.59 27.5675C108.199 27.2879 107.863 26.9523 107.64 26.4489C107.416 25.9455 107.304 25.3862 107.304 24.6591C107.304 23.9879 107.416 23.3727 107.64 22.8693C107.863 22.3659 108.199 21.9744 108.59 21.7507C108.981 21.471 109.429 21.3591 109.932 21.3591C110.435 21.3591 110.882 21.471 111.273 21.7507C111.664 22.0303 112 22.3659 112.223 22.8693C112.447 23.3727 112.559 23.932 112.559 24.6591C112.559 25.3303 112.447 25.9455 112.223 26.4489C112 26.9523 111.664 27.3438 111.273 27.5675C110.882 27.8472 110.435 27.9591 109.932 27.9591C109.429 27.9591 108.981 27.8472 108.59 27.5675ZM111.217 26.5048C111.553 26.0574 111.664 25.4421 111.664 24.6591C111.664 23.8761 111.497 23.2608 111.217 22.8134C110.882 22.3659 110.491 22.1981 109.988 22.1981C109.484 22.1981 109.037 22.4218 108.758 22.8134C108.422 23.2608 108.311 23.8761 108.311 24.6591C108.311 25.4421 108.478 26.0574 108.758 26.5048C109.093 26.9523 109.484 27.1201 109.988 27.1201C110.491 27.1201 110.882 26.9523 111.217 26.5048Z" fill="#FFE178"/>
<path d="M114.739 27.5675C114.347 27.2879 114.012 26.9523 113.789 26.4489C113.565 25.9455 113.453 25.3862 113.453 24.6591C113.453 23.9879 113.565 23.3727 113.789 22.8693C114.012 22.3659 114.347 21.9744 114.739 21.7507C115.13 21.471 115.577 21.3591 116.08 21.3591C116.583 21.3591 117.031 21.471 117.422 21.7507C117.813 22.0303 118.148 22.3659 118.372 22.8693C118.596 23.3727 118.707 23.932 118.707 24.6591C118.707 25.3303 118.596 25.9455 118.372 26.4489C118.148 26.9523 117.813 27.3438 117.422 27.5675C117.031 27.8472 116.583 27.9591 116.08 27.9591C115.577 27.9591 115.13 27.8472 114.739 27.5675ZM117.366 26.5048C117.701 26.0574 117.813 25.4421 117.813 24.6591C117.813 23.8761 117.645 23.2608 117.366 22.8134C117.031 22.3659 116.639 22.1981 116.136 22.1981C115.633 22.1981 115.186 22.4218 114.906 22.8134C114.571 23.2608 114.459 23.8761 114.459 24.6591C114.459 25.4421 114.627 26.0574 114.906 26.5048C115.242 26.9523 115.633 27.1201 116.136 27.1201C116.639 27.1201 117.031 26.9523 117.366 26.5048Z" fill="#FFE178"/>
<path d="M127.092 22.0303C127.595 22.4218 127.819 22.9811 127.819 23.7082C127.819 24.4353 127.595 24.9387 127.092 25.3862C126.589 25.7777 125.974 26.0014 125.136 26.0014H123.515V27.959H122.62V21.415H125.136C125.974 21.415 126.645 21.6388 127.092 22.0303ZM126.421 24.7709C126.701 24.5472 126.869 24.1557 126.869 23.7082C126.869 23.2608 126.701 22.8693 126.421 22.6455C126.086 22.4218 125.695 22.254 125.08 22.254H123.515V25.1625H125.08C125.695 25.1625 126.142 24.9947 126.421 24.7709Z" fill="#FFE178"/>
<path d="M135.141 27.9031V23.2049L132.793 27.1201H132.346L129.999 23.2049V27.9031H129.104V21.415H129.887L132.57 25.9455L135.197 21.415H135.98V27.8472H135.141V27.9031Z" fill="#FFE178"/>
<path d="M71.0273 41.3267H65.9407L64.9904 43.6758H62.3633L67.2263 32.7132H69.7417L74.6606 43.6758H71.9776L71.0273 41.3267ZM70.1889 39.425L68.4561 35.2301L66.7232 39.425H70.1889Z" fill="black"/>
<path d="M85.7283 32.7132L80.9771 43.6758H78.4617L73.7664 32.7132H76.5053L79.8591 40.5436L83.2689 32.7132H85.7283Z" fill="black"/>
<path d="M93.498 41.3267H88.4114L87.4612 43.6758H84.834L89.697 32.7132H92.2124L97.1313 43.6758H94.4483L93.498 41.3267ZM92.7155 39.425L90.9827 35.2301L89.2499 39.425H92.7155Z" fill="black"/>
<path d="M98.3052 32.7132H100.821V43.6758H98.3052V32.7132Z" fill="black"/>
<path d="M103.448 32.7132H105.963V41.6063H111.441V43.6758H103.392V32.7132H103.448Z" fill="black"/>
<path d="M120.217 41.3267H115.13L114.18 43.6758H111.553L116.416 32.7132H118.931L123.85 43.6758H121.167L120.217 41.3267ZM119.434 39.425L117.701 35.2301L115.969 39.425H119.434Z" fill="black"/>
<path d="M134.526 38.9775C134.862 39.425 135.085 40.0402 135.085 40.7114C135.085 41.6623 134.694 42.3894 133.967 42.9487C133.241 43.4521 132.123 43.7317 130.725 43.7317H125.08V32.7132H130.446C131.787 32.7132 132.794 32.9929 133.52 33.4962C134.247 33.9996 134.582 34.7267 134.582 35.5657C134.582 36.125 134.471 36.5725 134.191 37.0199C133.912 37.4115 133.576 37.747 133.129 38.0267C133.688 38.1945 134.135 38.5301 134.526 38.9775ZM127.483 34.6149V37.1877H129.999C130.614 37.1877 131.117 37.0759 131.452 36.8521C131.787 36.6284 131.955 36.2928 131.955 35.9013C131.955 35.4538 131.787 35.1742 131.452 34.9505C131.117 34.7267 130.67 34.6149 129.999 34.6149H127.483ZM131.955 41.4385C132.291 41.2148 132.458 40.8792 132.458 40.4318C132.458 39.5369 131.787 39.0894 130.446 39.0894H127.483V41.7741H130.446C131.117 41.7741 131.62 41.6623 131.955 41.4385Z" fill="black"/>
<path d="M136.986 32.7132H139.501V41.6063H144.979V43.6758H136.93V32.7132H136.986Z" fill="black"/>
<path d="M154.929 41.6623V43.6758H146.432V32.7132H154.705V34.7267H148.948V37.1318H154.034V39.0894H148.948V41.6063H154.929V41.6623Z" fill="black"/>
<path d="M200.82 50.6672H60.7422V55.7011H200.82V50.6672Z" fill="#D9D9D9"/>
<path d="M200.82 59.952H60.7422V64.9858H200.82V59.952Z" fill="#D9D9D9"/>
<path d="M110.714 72.984V211.415L89.3616 244.415" stroke="#FFE178" stroke-width="1.5" stroke-miterlimit="10"/>
<path d="M110.714 74.9976C112.628 74.9976 114.18 73.445 114.18 71.5298C114.18 69.6146 112.628 68.0621 110.714 68.0621C108.8 68.0621 107.249 69.6146 107.249 71.5298C107.249 73.445 108.8 74.9976 110.714 74.9976Z" fill="#FFE178"/>
</svg>
