<svg width="211" height="244" viewBox="0 0 211 244" fill="none" xmlns="http://www.w3.org/2000/svg">
<path d="M151.952 229.878C150.035 230.478 147.997 229.358 147.438 227.438L123.865 149.523C123.266 147.603 124.385 145.563 126.302 145.003C128.22 144.403 130.258 145.523 130.817 147.443L154.389 225.358C154.949 227.278 153.87 229.278 151.952 229.878Z" fill="#484A50"/>
<path d="M84.3516 235.878C82.4338 235.238 81.395 233.198 82.0343 231.278L107.445 153.962C108.084 152.042 110.121 151.002 112.039 151.642C113.957 152.282 114.996 154.322 114.356 156.242L88.9462 233.598C88.3069 235.478 86.2693 236.518 84.3516 235.878Z" fill="#484A50"/>
<path d="M198.458 237.118C196.34 237.758 194.103 236.558 193.504 234.438L167.614 148.763C166.975 146.643 168.173 144.403 170.291 143.803C172.408 143.163 174.646 144.363 175.245 146.483L201.135 232.158C201.734 234.238 200.536 236.478 198.458 237.118Z" fill="#484A50"/>
<path d="M124.145 243.717C122.067 243.037 120.909 240.758 121.588 238.678L149.515 153.643C150.195 151.563 152.472 150.403 154.549 151.083C156.627 151.763 157.786 154.042 157.106 156.122L129.179 241.158C128.5 243.277 126.223 244.437 124.145 243.717Z" fill="#484A50"/>
<path d="M89.3058 165.642C101.691 183.401 190.827 213.479 208.926 121.604C221.951 55.4879 163.379 48.6483 145.959 81.6065C128.58 114.525 64.415 130.004 89.3058 165.642Z" fill="#7C95B3"/>
<path opacity="0.5" d="M91.783 159.562C103.05 175.561 184.075 202.6 200.536 120.004C212.362 60.5677 159.104 54.4081 143.283 84.0464C127.461 113.685 69.1694 127.524 91.783 159.562Z" fill="#484A50"/>
<path d="M85.6302 90.9661L80.0368 95.6858L78.8382 96.5658L61.2588 68.5673C61.099 68.2874 61.099 67.9274 61.2588 67.6474L61.4985 67.2874C61.7382 66.8874 62.1377 66.5675 62.5772 66.3675L68.2506 64.0876C68.4903 63.9676 68.8099 64.0876 68.9298 64.3276L85.6302 90.9661Z" fill="#CEE9F1"/>
<path d="M80.0368 95.6859L78.8382 96.5659L61.2588 68.5675C61.099 68.2875 61.099 67.9275 61.2588 67.6475C61.2588 67.6475 61.6583 66.8476 61.938 66.7676C62.3775 68.0475 80.0368 95.6859 80.0368 95.6859Z" fill="#A9A9AC"/>
<path d="M36.0881 190.28C36.0881 190.28 32.1727 197.04 29.376 196.4C26.5793 195.76 17.43 191.92 14.2737 192.6C11.1174 193.28 6.76248 199.2 10.1585 201.04C13.5945 202.84 39.3243 211.399 41.6017 210.999C43.879 210.599 49.4325 197.8 49.4325 197.8L36.0881 190.28Z" fill="#F5A179"/>
<path d="M82.6737 225.719C82.6737 225.719 83.3929 228.518 80.5562 228.838C77.6796 229.158 67.8111 228.478 65.0543 230.198C62.2976 231.878 60.1001 238.878 63.9357 239.478C67.7712 240.078 94.8594 239.758 96.8971 238.638C98.9347 237.518 96.1379 225.998 96.1379 225.998L82.6737 225.719Z" fill="#F5A179"/>
<path d="M67.1318 153.883C67.1318 153.883 68.5302 220.639 69.569 226.719C70.5678 232.759 100.293 231.599 101.611 226.079C102.89 220.559 98.4152 165.003 99.0545 163.723C99.6538 162.403 77.2001 141.324 67.1318 153.883Z" fill="#9AA2B2"/>
<path d="M69.569 226.718C68.5701 220.679 67.1318 153.883 67.1318 153.883C77.2 141.323 99.6538 162.402 99.0545 163.682C98.8946 164.042 99.0944 168.802 99.4939 175.521C99.4939 175.521 99.4939 175.521 99.4939 175.481C97.4164 172.481 87.4281 169.522 85.0708 169.482C74.5232 169.282 75.2024 194.2 80.3563 230.598C74.643 230.318 69.9286 229.038 69.569 226.718Z" fill="#757F8E"/>
<path d="M115.515 87.2864C115.515 87.2864 109.043 97.9258 104.049 95.446C95.5785 91.2062 92.9815 67.6475 80.4762 66.8076C67.6911 65.9676 71.207 70.9273 73.3645 70.6874C75.8815 70.4474 77.0801 72.2073 77.2799 76.0471C77.3998 78.4469 82.7535 78.1669 83.0731 81.0868C83.8722 87.8864 89.1061 101.446 91.1437 104.965C95.4187 112.285 107.525 117.845 116.874 108.045C125.583 98.9258 130.817 92.1661 130.817 92.1661L115.515 87.2864Z" fill="#F5A179"/>
<g opacity="0.4">
<path opacity="0.4" d="M121.109 89.0862C120.11 92.006 118.552 94.7259 116.194 96.9657C111.16 101.685 103.01 102.205 96.7371 100.126C91.9427 98.5656 88.4667 95.3658 85.71 91.486C87.5878 97.1657 89.945 102.885 91.1436 104.965C95.4186 112.285 107.524 117.845 116.873 108.045C125.583 98.9256 130.817 92.166 130.817 92.166L121.109 89.0862Z" fill="#F5A179"/>
</g>
<path d="M196.3 113.285C199.177 101.686 200.176 79.4868 186.352 68.4874C175.365 59.7279 153.71 54.7682 136.85 64.0077C127.062 69.3674 114.956 88.1263 114.956 88.1263L123.066 93.326L107.884 120.404L109.602 156.922C109.602 156.922 127.501 176.881 153.271 167.322C177.323 158.402 189.908 138.963 196.3 113.285Z" fill="#484A50"/>
<path opacity="0.4" d="M157.106 85.0464C153.99 90.766 147.877 105.645 147.717 109.245C139.127 108.045 145.52 94.5658 148.237 90.806C154.23 82.4865 161.381 78.4067 161.381 78.4067C161.381 78.4067 158.625 82.2065 157.106 85.0464Z" fill="#FFE178"/>
<path opacity="0.4" d="M192.545 89.0864C192.545 89.0864 189.588 132.804 124.265 123.804C124.265 123.804 126.063 147.963 158.105 142.923C189.029 138.084 195.182 109.685 192.545 89.0864Z" fill="#FFE178"/>
<path d="M153.83 50.9282L150.554 65.6874C150.554 65.6874 160.622 75.0069 168.093 63.6075L170.091 50.2483C170.051 50.2483 157.466 47.2884 153.83 50.9282Z" fill="#F5A179"/>
<path opacity="0.4" d="M154.789 57.5279C154.07 57.0879 153.351 56.6879 152.592 56.3679L153.79 50.9282C157.426 47.2884 170.051 50.2483 170.051 50.2483L168.053 63.6075C166.375 66.1674 164.578 67.6873 162.78 68.4872C161.341 64.0875 158.984 60.1277 154.789 57.5279Z" fill="#F5A179"/>
<path d="M147.358 31.9293C147.358 31.9293 145.999 43.9286 151.673 51.5682C154.39 55.208 158.265 54.368 166.336 52.3682C172.688 50.7683 174.686 49.0483 178.162 41.6888C184.354 41.6088 185.953 24.6497 171.33 21.2899C160.303 18.7301 149.835 12.1304 147.358 31.9293Z" fill="#F5A179"/>
<path d="M163.539 162.722C163.539 163.642 132.455 178.841 110.681 169.001C88.9063 159.162 76.3211 152.842 73.1648 154.482C70.0085 156.122 60.6994 199.6 58.462 203.879C56.1847 208.119 35.8085 194.6 30.0952 187.24C30.0952 187.24 47.5947 138.443 60.0601 127.404C68.2106 120.164 94.8594 118.044 122.387 123.884C148.956 134.603 163.699 152.162 163.539 162.722Z" fill="#9AA2B2"/>
<path d="M120.629 167.242C127.861 166.922 135.652 166.002 141.165 160.802C146.559 155.722 147.358 150.043 143.402 143.723C139.167 136.923 122.107 141.883 114.836 139.443C107.125 136.843 99.2541 133.044 94.4997 121.804C93.8605 120.244 99.0943 118.884 97.656 118.044C105.767 118.804 114.277 120.644 122.387 123.884C148.996 134.563 163.739 152.122 163.619 162.722C163.619 163.642 132.535 178.841 110.761 169.002C109.003 168.202 107.285 167.442 105.647 166.682C110.561 167.282 115.635 167.482 120.629 167.242Z" fill="#757F8E"/>
<path d="M65.8534 176.601C62.6971 188.68 59.6207 201.64 58.4221 203.84C57.5431 205.519 53.8275 204.44 49.3127 202.04C54.3868 193.32 60.9791 185.441 65.8534 176.601Z" fill="#757F8E"/>
<path d="M17.9095 189C20.9059 191.12 20.9859 200.2 18.5887 204.48C18.5887 204.48 43.1998 217.679 44.1587 217.879C45.0776 218.079 43.7592 221.279 40.9225 219.879C38.0858 218.479 5.88354 204.32 0.769531 196.12C0.769531 196.16 8.16088 182.081 17.9095 189Z" fill="#4B576E"/>
<path d="M62.2574 226.238C65.8932 226.638 70.4079 234.518 70.3679 239.438C70.3679 239.438 98.2952 238.958 99.2142 238.678C100.133 238.398 100.533 241.838 97.3763 241.998C94.22 242.158 59.1811 245.477 50.7509 240.798C50.7509 240.838 50.3913 224.918 62.2574 226.238Z" fill="#4B576E"/>
<path d="M152.951 2.65107C137.969 -7.30837 140.126 17.0503 147.558 22.6899C156.347 29.3696 163.859 26.5697 172.688 24.0099C174.606 23.4499 177.363 28.4496 176.164 34.2893C182.437 25.3698 184.315 43.5688 177.123 41.0889C175.765 44.8087 176.324 44.3287 174.606 47.8085C176.883 47.0486 180.519 45.5686 185.154 36.8891C188.11 31.2894 189.748 26.9297 188.749 20.5701C188.35 18.0902 187.551 9.69067 180.879 10.8506C175.725 0.411194 164.897 10.6106 152.951 2.65107Z" fill="#FFE178"/>
<path d="M149.555 103.445C149.555 103.445 164.578 114.085 179.28 113.285C179.28 113.285 149.595 137.403 123.626 136.043C95.7782 134.564 83.7124 103.525 80.9556 102.845C78.2388 102.165 67.0519 96.8057 67.6911 88.0062C68.3304 79.2067 77.3199 93.1259 78.9979 90.886C80.6759 88.6461 81.3551 84.0064 83.5126 88.3261C85.6701 92.6459 86.3892 95.5657 89.2659 98.2056C98.6149 106.845 129.818 130.724 149.555 103.445Z" fill="#F5A179"/>
</svg>
