<svg width="764" height="361" viewBox="0 0 764 361" fill="none" xmlns="http://www.w3.org/2000/svg">
<path opacity="0.3" d="M540.849 7.41543C420.545 -9.80487 322.22 5.38686 292.516 50.5563C262.716 95.861 287.237 142.067 179.218 160.685C90.73 175.561 -13.1621 201.752 2.57767 275.096C17.5496 344.699 98.7918 357.546 202.876 360.341C313.63 363.362 432.302 314.18 535.379 338.162C631.065 360.477 739.084 365.435 753.24 300.972C761.542 263.241 700.214 250.618 688.602 221.227C672.478 180.475 704.725 165.238 714.467 138.01C738.652 70.3912 656.162 26.6192 540.849 7.41543Z" fill="#FFE178"/>
<ellipse cx="132.913" cy="114.682" rx="21.8759" ry="21.884" fill="#FEF3D8"/>
<ellipse cx="738.147" cy="189.619" rx="25.8534" ry="25.8629" fill="#FEF3D8"/>
<path opacity="0.3" d="M613.52 336.681C613.52 342.217 505.888 346.732 373.19 346.786C240.438 346.786 132.913 342.325 132.913 336.788C132.913 331.252 240.545 326.737 373.297 326.684C505.995 326.684 613.574 331.091 613.52 336.681Z" fill="#C2C1C1"/>
<path d="M556.88 33.4277L594.264 325.447C594.264 325.447 597.599 336.735 585.496 336.735C561.829 336.735 510.137 336.735 498.411 336.735C492.871 336.735 530.631 108.999 530.631 108.999L556.88 33.4277Z" fill="#4B576E"/>
<path d="M508.9 335.122C508.739 335.982 507.932 336.735 507.018 336.735H153.299C152.385 336.735 151.793 336.036 151.954 335.122L196.492 55.2499C196.653 54.3899 197.46 53.6375 198.375 53.6375H552.147C553.007 53.6375 553.653 54.3362 553.491 55.2499L508.9 335.122Z" fill="#FFD66D"/>
<path d="M556.88 33.4276C557.687 28.214 554.298 23.9678 549.027 23.9678H211.176C205.905 23.9678 200.956 28.214 200.096 33.4276L196.976 53.1536C196.169 58.3673 199.773 62.6135 205.044 62.6135H542.895C548.166 62.6135 552.954 58.3673 553.76 53.1536L556.88 33.4276Z" fill="#FFD66D"/>
<path d="M517.937 37.9963C517.937 40.8451 515.624 43.1563 512.773 43.1563C509.922 43.1563 507.609 40.8451 507.609 37.9963C507.609 35.1476 509.922 32.8364 512.773 32.8364C515.624 32.8364 517.937 35.1476 517.937 37.9963Z" fill="white"/>
<path d="M525.682 23.9679H520.303C520.303 20.7967 519.443 17.7868 517.829 15.583L522.186 12.4656C524.391 15.583 525.682 19.668 525.682 23.9679Z" fill="#13273E"/>
<path d="M525.682 23.9679H520.303C520.303 20.7967 519.443 17.7868 517.829 15.583L522.186 12.4656C524.391 15.583 525.682 19.668 525.682 23.9679Z" fill="#13273E"/>
<path d="M478.563 37.9963C478.563 40.8451 476.25 43.1563 473.399 43.1563C470.548 43.1563 468.235 40.8451 468.235 37.9963C468.235 35.1476 470.548 32.8364 473.399 32.8364C476.25 32.8364 478.563 35.1476 478.563 37.9963Z" fill="white"/>
<path d="M486.255 23.9679H480.876C480.876 20.7967 480.015 17.7868 478.402 15.583L482.759 12.4656C485.018 15.583 486.255 19.668 486.255 23.9679Z" fill="#13273E"/>
<path d="M486.255 23.9679H480.876C480.876 20.7967 480.015 17.7868 478.402 15.583L482.759 12.4656C485.018 15.583 486.255 19.668 486.255 23.9679Z" fill="#13273E"/>
<path d="M439.135 37.9963C439.135 40.8451 436.822 43.1563 433.972 43.1563C431.121 43.1563 428.808 40.8451 428.808 37.9963C428.808 35.1476 431.121 32.8364 433.972 32.8364C436.822 32.8364 439.135 35.1476 439.135 37.9963Z" fill="white"/>
<path d="M446.827 23.9679H441.448C441.448 20.7967 440.588 17.7868 438.974 15.583L443.331 12.4656C445.59 15.583 446.827 19.668 446.827 23.9679Z" fill="#13273E"/>
<path d="M446.827 23.9679H441.448C441.448 20.7967 440.588 17.7868 438.974 15.583L443.331 12.4656C445.59 15.583 446.827 19.668 446.827 23.9679Z" fill="#13273E"/>
<path d="M399.708 37.9963C399.708 40.8451 397.395 43.1563 394.544 43.1563C391.693 43.1563 389.38 40.8451 389.38 37.9963C389.38 35.1476 391.693 32.8364 394.544 32.8364C397.395 32.8364 399.708 35.1476 399.708 37.9963Z" fill="white"/>
<path d="M407.4 23.9679H402.021C402.021 20.7967 401.16 17.7868 399.546 15.583L403.903 12.4656C406.162 15.583 407.4 19.668 407.4 23.9679Z" fill="#13273E"/>
<path d="M407.4 23.9679H402.021C402.021 20.7967 401.16 17.7868 399.546 15.583L403.903 12.4656C406.162 15.583 407.4 19.668 407.4 23.9679Z" fill="#13273E"/>
<path d="M355.116 43.1563C357.968 43.1563 360.28 40.8461 360.28 37.9963C360.28 35.1466 357.968 32.8364 355.116 32.8364C352.265 32.8364 349.953 35.1466 349.953 37.9963C349.953 40.8461 352.265 43.1563 355.116 43.1563Z" fill="white"/>
<path d="M368.026 23.9679H362.647C362.647 20.7967 361.786 17.7868 360.173 15.583L364.53 12.4656C366.735 15.583 368.026 19.668 368.026 23.9679Z" fill="#13273E"/>
<path d="M368.026 23.9679H362.647C362.647 20.7967 361.786 17.7868 360.173 15.583L364.53 12.4656C366.735 15.583 368.026 19.668 368.026 23.9679Z" fill="#13273E"/>
<path d="M315.689 43.1563C318.541 43.1563 320.853 40.8461 320.853 37.9963C320.853 35.1466 318.541 32.8364 315.689 32.8364C312.837 32.8364 310.525 35.1466 310.525 37.9963C310.525 40.8461 312.837 43.1563 315.689 43.1563Z" fill="white"/>
<path d="M328.598 23.9679H323.219C323.219 20.7967 322.359 17.7868 320.745 15.583L325.102 12.4656C327.361 15.583 328.598 19.668 328.598 23.9679Z" fill="#13273E"/>
<path d="M328.598 23.9679H323.219C323.219 20.7967 322.359 17.7868 320.745 15.583L325.102 12.4656C327.361 15.583 328.598 19.668 328.598 23.9679Z" fill="#13273E"/>
<path d="M281.479 37.9963C281.479 40.8451 279.166 43.1563 276.315 43.1563C273.464 43.1563 271.151 40.8451 271.151 37.9963C271.151 35.1476 273.464 32.8364 276.315 32.8364C279.166 32.8364 281.479 35.1476 281.479 37.9963Z" fill="white"/>
<path d="M289.171 23.9679H283.792C283.792 20.7967 282.931 17.7868 281.318 15.583L285.675 12.4656C287.934 15.583 289.171 19.668 289.171 23.9679Z" fill="#13273E"/>
<path d="M289.171 23.9679H283.792C283.792 20.7967 282.931 17.7868 281.318 15.583L285.675 12.4656C287.934 15.583 289.171 19.668 289.171 23.9679Z" fill="#13273E"/>
<path d="M242.051 37.9963C242.051 40.8451 239.738 43.1563 236.888 43.1563C234.037 43.1563 231.724 40.8451 231.724 37.9963C231.724 35.1476 234.037 32.8364 236.888 32.8364C239.738 32.8364 242.051 35.1476 242.051 37.9963Z" fill="white"/>
<path d="M249.743 23.9679H244.364C244.364 20.7967 243.504 17.7868 241.89 15.583L246.247 12.4656C248.506 15.583 249.743 19.668 249.743 23.9679Z" fill="#13273E"/>
<path d="M249.743 23.9679H244.364C244.364 20.7967 243.504 17.7868 241.89 15.583L246.247 12.4656C248.506 15.583 249.743 19.668 249.743 23.9679Z" fill="#13273E"/>
<path opacity="0.2" d="M304.393 64.0647H280.887L306.598 23.9678H330.104L304.393 64.0647Z" fill="#EEEDED"/>
<path opacity="0.2" d="M227.528 336.735H168.253L191.758 298.68H251.088L227.528 336.735Z" fill="#EEEDED"/>
<path d="M512.773 40.6838C505.673 40.6838 499.917 33.1589 499.917 23.9677C499.917 14.7766 505.673 7.25171 512.773 7.25171C516.377 7.25171 519.712 9.07918 522.132 12.4654C522.993 13.6479 522.724 15.3141 521.541 16.2278C520.357 17.0878 518.69 16.8191 517.775 15.6366C516.377 13.7016 514.548 12.6266 512.719 12.6266C508.631 12.6266 505.189 17.8403 505.189 24.0215C505.189 30.2027 508.631 35.4163 512.719 35.4163C514.225 35.4163 515.409 36.5988 515.409 38.1038C515.462 39.5013 514.279 40.6838 512.773 40.6838Z" fill="#13273E"/>
<path d="M512.773 40.6838C505.673 40.6838 499.917 33.1589 499.917 23.9677C499.917 14.7766 505.673 7.25171 512.773 7.25171C516.377 7.25171 519.712 9.07918 522.132 12.4654C522.993 13.6479 522.724 15.3141 521.541 16.2278C520.357 17.0878 518.69 16.8191 517.775 15.6366C516.377 13.7016 514.548 12.6266 512.719 12.6266C508.631 12.6266 505.189 17.8403 505.189 24.0215C505.189 30.2027 508.631 35.4163 512.719 35.4163C514.225 35.4163 515.409 36.5988 515.409 38.1038C515.462 39.5013 514.279 40.6838 512.773 40.6838Z" fill="#4B576E"/>
<path d="M473.345 40.6838C466.245 40.6838 460.436 33.1589 460.436 23.9677C460.49 14.7766 466.245 7.25171 473.345 7.25171C476.949 7.25171 480.284 9.07918 482.705 12.4654C483.565 13.6479 483.296 15.3141 482.113 16.2278C480.93 17.0878 479.262 16.8191 478.348 15.6366C476.949 13.7016 475.12 12.6266 473.292 12.6266C469.204 12.6266 465.761 17.8403 465.761 24.0215C465.761 30.2027 469.204 35.4163 473.292 35.4163C474.744 35.4163 475.981 36.5988 475.981 38.1038C476.035 39.5013 474.852 40.6838 473.345 40.6838Z" fill="#13273E"/>
<path d="M473.345 40.6838C466.245 40.6838 460.436 33.1589 460.436 23.9677C460.49 14.7766 466.245 7.25171 473.345 7.25171C476.949 7.25171 480.284 9.07918 482.705 12.4654C483.565 13.6479 483.296 15.3141 482.113 16.2278C480.93 17.0878 479.262 16.8191 478.348 15.6366C476.949 13.7016 475.12 12.6266 473.292 12.6266C469.204 12.6266 465.761 17.8403 465.761 24.0215C465.761 30.2027 469.204 35.4163 473.292 35.4163C474.744 35.4163 475.981 36.5988 475.981 38.1038C476.035 39.5013 474.852 40.6838 473.345 40.6838Z" fill="#4B576E"/>
<path d="M433.972 40.6838C426.871 40.6838 421.062 33.1589 421.062 23.9677C421.062 14.7229 426.818 7.25171 433.972 7.25171C437.576 7.25171 440.91 9.07918 443.331 12.4654C444.192 13.6479 443.923 15.3141 442.739 16.2278C441.556 17.0878 439.889 16.8191 438.974 15.6366C437.576 13.7016 435.747 12.6266 433.918 12.6266C429.83 12.6266 426.387 17.8403 426.387 24.0215C426.387 30.2027 429.83 35.4163 433.918 35.4163C435.37 35.4163 436.607 36.5988 436.607 38.1038C436.607 39.5013 435.424 40.6838 433.972 40.6838Z" fill="#13273E"/>
<path d="M433.972 40.6838C426.871 40.6838 421.062 33.1589 421.062 23.9677C421.062 14.7229 426.818 7.25171 433.972 7.25171C437.576 7.25171 440.91 9.07918 443.331 12.4654C444.192 13.6479 443.923 15.3141 442.739 16.2278C441.556 17.0878 439.889 16.8191 438.974 15.6366C437.576 13.7016 435.747 12.6266 433.918 12.6266C429.83 12.6266 426.387 17.8403 426.387 24.0215C426.387 30.2027 429.83 35.4163 433.918 35.4163C435.37 35.4163 436.607 36.5988 436.607 38.1038C436.607 39.5013 435.424 40.6838 433.972 40.6838Z" fill="#4B576E"/>
<path d="M394.544 40.6838C387.444 40.6838 381.635 33.1589 381.635 23.9677C381.635 14.7229 387.39 7.25171 394.544 7.25171C398.148 7.25171 401.483 9.07918 403.903 12.4654C404.764 13.6479 404.495 15.3141 403.312 16.2278C402.128 17.0878 400.461 16.8191 399.6 15.6366C398.202 13.7016 396.373 12.6266 394.544 12.6266C390.456 12.6266 387.013 17.8403 387.013 24.0215C387.013 30.2027 390.456 35.4163 394.544 35.4163C396.05 35.4163 397.233 36.5988 397.233 38.1038C397.233 39.5013 395.996 40.6838 394.544 40.6838Z" fill="#13273E"/>
<path d="M394.544 40.6838C387.444 40.6838 381.635 33.1589 381.635 23.9677C381.635 14.7229 387.39 7.25171 394.544 7.25171C398.148 7.25171 401.483 9.07918 403.903 12.4654C404.764 13.6479 404.495 15.3141 403.312 16.2278C402.128 17.0878 400.461 16.8191 399.6 15.6366C398.202 13.7016 396.373 12.6266 394.544 12.6266C390.456 12.6266 387.013 17.8403 387.013 24.0215C387.013 30.2027 390.456 35.4163 394.544 35.4163C396.05 35.4163 397.233 36.5988 397.233 38.1038C397.233 39.5013 395.996 40.6838 394.544 40.6838Z" fill="#4B576E"/>
<path d="M355.116 40.6838C348.016 40.6838 342.207 33.1589 342.207 23.9677C342.207 14.7229 347.962 7.25171 355.116 7.25171C358.72 7.25171 362.055 9.07918 364.476 12.4654C365.336 13.6479 365.068 15.3141 363.884 16.2278C362.701 17.0878 361.033 16.8191 360.119 15.6366C358.72 13.7016 356.892 12.6266 355.063 12.6266C350.975 12.6266 347.532 17.8403 347.532 24.0215C347.532 30.2027 350.975 35.4163 355.063 35.4163C356.515 35.4163 357.752 36.5988 357.752 38.1038C357.806 39.5013 356.623 40.6838 355.116 40.6838Z" fill="#13273E"/>
<path d="M355.116 40.6838C348.016 40.6838 342.207 33.1589 342.207 23.9677C342.207 14.7229 347.962 7.25171 355.116 7.25171C358.72 7.25171 362.055 9.07918 364.476 12.4654C365.336 13.6479 365.068 15.3141 363.884 16.2278C362.701 17.0878 361.033 16.8191 360.119 15.6366C358.72 13.7016 356.892 12.6266 355.063 12.6266C350.975 12.6266 347.532 17.8403 347.532 24.0215C347.532 30.2027 350.975 35.4163 355.063 35.4163C356.515 35.4163 357.752 36.5988 357.752 38.1038C357.806 39.5013 356.623 40.6838 355.116 40.6838Z" fill="#4B576E"/>
<path d="M315.689 40.6838C308.589 40.6838 302.78 33.1589 302.78 23.9677C302.78 14.7229 308.535 7.25171 315.689 7.25171C319.293 7.25171 322.628 9.07918 325.048 12.4654C325.909 13.6479 325.64 15.3141 324.457 16.2278C323.273 17.0878 321.606 16.8191 320.691 15.6366C319.293 13.7016 317.464 12.6266 315.635 12.6266C311.547 12.6266 308.105 17.8403 308.105 24.0215C308.105 30.2027 311.547 35.4163 315.635 35.4163C317.088 35.4163 318.325 36.5988 318.325 38.1038C318.378 39.5013 317.195 40.6838 315.689 40.6838Z" fill="#13273E"/>
<path d="M315.689 40.6838C308.589 40.6838 302.78 33.1589 302.78 23.9677C302.78 14.7229 308.535 7.25171 315.689 7.25171C319.293 7.25171 322.628 9.07918 325.048 12.4654C325.909 13.6479 325.64 15.3141 324.457 16.2278C323.273 17.0878 321.606 16.8191 320.691 15.6366C319.293 13.7016 317.464 12.6266 315.635 12.6266C311.547 12.6266 308.105 17.8403 308.105 24.0215C308.105 30.2027 311.547 35.4163 315.635 35.4163C317.088 35.4163 318.325 36.5988 318.325 38.1038C318.378 39.5013 317.195 40.6838 315.689 40.6838Z" fill="#4B576E"/>
<path d="M276.315 40.6838C269.215 40.6838 263.406 33.1589 263.406 23.9677C263.406 14.7229 269.161 7.25171 276.315 7.25171C279.919 7.25171 283.254 9.07918 285.675 12.4654C286.535 13.6479 286.266 15.3141 285.083 16.2278C283.9 17.0878 282.232 16.8191 281.318 15.6366C279.919 13.7016 278.09 12.6266 276.261 12.6266C272.173 12.6266 268.731 17.8403 268.731 24.0215C268.731 30.2027 272.173 35.4163 276.261 35.4163C277.714 35.4163 278.951 36.5988 278.951 38.1038C278.951 39.5013 277.768 40.6838 276.315 40.6838Z" fill="#13273E"/>
<path d="M276.315 40.6838C269.215 40.6838 263.406 33.1589 263.406 23.9677C263.406 14.7229 269.161 7.25171 276.315 7.25171C279.919 7.25171 283.254 9.07918 285.675 12.4654C286.535 13.6479 286.266 15.3141 285.083 16.2278C283.9 17.0878 282.232 16.8191 281.318 15.6366C279.919 13.7016 278.09 12.6266 276.261 12.6266C272.173 12.6266 268.731 17.8403 268.731 24.0215C268.731 30.2027 272.173 35.4163 276.261 35.4163C277.714 35.4163 278.951 36.5988 278.951 38.1038C278.951 39.5013 277.768 40.6838 276.315 40.6838Z" fill="#4B576E"/>
<path d="M236.888 40.6838C229.788 40.6838 223.978 33.1589 223.978 23.9677C223.978 14.7229 229.734 7.25171 236.888 7.25171C240.492 7.25171 243.827 9.07918 246.247 12.4654C247.108 13.6479 246.839 15.3141 245.655 16.2278C244.472 17.0878 242.805 16.8191 241.89 15.6366C240.492 13.7016 238.663 12.6266 236.834 12.6266C232.746 12.6266 229.303 17.8403 229.303 24.0215C229.303 30.2027 232.746 35.4163 236.834 35.4163C238.286 35.4163 239.523 36.5988 239.523 38.1038C239.577 39.5013 238.34 40.6838 236.888 40.6838Z" fill="#13273E"/>
<path d="M236.888 40.6838C229.788 40.6838 223.978 33.1589 223.978 23.9677C223.978 14.7229 229.734 7.25171 236.888 7.25171C240.492 7.25171 243.827 9.07918 246.247 12.4654C247.108 13.6479 246.839 15.3141 245.655 16.2278C244.472 17.0878 242.805 16.8191 241.89 15.6366C240.492 13.7016 238.663 12.6266 236.834 12.6266C232.746 12.6266 229.303 17.8403 229.303 24.0215C229.303 30.2027 232.746 35.4163 236.834 35.4163C238.286 35.4163 239.523 36.5988 239.523 38.1038C239.577 39.5013 238.34 40.6838 236.888 40.6838Z" fill="#4B576E"/>
<path d="M505.027 293.252C504.866 294.112 504.059 294.864 503.145 294.864H165.079C164.165 294.864 163.573 294.165 163.734 293.252L199.343 65.6772C199.504 64.8172 200.311 64.0647 201.225 64.0647H540.259C541.12 64.0647 541.765 64.7634 541.604 65.6772L505.027 293.252Z" fill="#EEEDED"/>
<path d="M200.365 58.5286H542.626L537.785 87.9295H195.631L200.365 58.5286Z" fill="#EEEDED"/>
<path d="M240.438 110.934C240.707 110.934 240.922 111.042 241.029 111.149C241.137 111.257 241.137 111.364 241.137 111.525L236.404 140.819C236.35 141.249 235.812 141.625 235.328 141.625H194.663C194.394 141.625 194.179 141.517 194.071 141.41C193.964 141.302 193.964 141.195 193.964 141.034L198.697 111.74C198.751 111.31 199.289 110.934 199.773 110.934H240.438ZM240.438 110.397H199.773C199.02 110.397 198.267 110.934 198.159 111.633L193.426 140.926C193.318 141.625 193.856 142.162 194.663 142.162H235.328C236.081 142.162 236.834 141.625 236.941 140.926L241.675 111.633C241.729 110.988 241.191 110.397 240.438 110.397Z" fill="white"/>
<path d="M242.428 106.903C242.32 107.602 241.567 108.139 240.814 108.139H200.15C199.343 108.139 198.805 107.602 198.912 106.903L199.934 100.614C200.042 99.9157 200.795 99.3782 201.548 99.3782H242.213C242.966 99.3782 243.558 99.9157 243.45 100.614L242.428 106.903Z" fill="#B7B7B7"/>
<path d="M282.824 140.926C282.716 141.625 281.963 142.162 281.21 142.162H240.545C239.792 142.162 239.201 141.625 239.308 140.926L244.042 111.633C244.149 110.934 244.902 110.397 245.655 110.397H286.32C287.073 110.397 287.665 110.934 287.557 111.633L282.824 140.926Z" fill="#9EBEDD"/>
<path d="M288.31 106.903C288.203 107.602 287.45 108.139 286.697 108.139H246.032C245.225 108.139 244.687 107.602 244.795 106.903L245.817 100.614C245.924 99.9157 246.677 99.3782 247.43 99.3782H288.095C288.848 99.3782 289.44 99.9157 289.332 100.614L288.31 106.903Z" fill="#B7B7B7"/>
<path d="M328.706 140.926C328.598 141.625 327.845 142.162 327.092 142.162H286.428C285.675 142.162 285.083 141.625 285.19 140.926L289.924 111.633C290.031 110.934 290.784 110.397 291.538 110.397H332.202C333.009 110.397 333.547 110.934 333.439 111.633L328.706 140.926Z" fill="white"/>
<path d="M334.246 106.903C334.139 107.602 333.386 108.139 332.632 108.139H291.968C291.215 108.139 290.623 107.602 290.731 106.903L291.753 100.614C291.86 99.9157 292.613 99.3782 293.366 99.3782H334.031C334.784 99.3782 335.376 99.9157 335.268 100.614L334.246 106.903Z" fill="#B7B7B7"/>
<path d="M374.642 140.926C374.534 141.625 373.781 142.162 373.028 142.162H332.364C331.557 142.162 331.019 141.625 331.126 140.926L335.86 111.633C335.967 110.934 336.721 110.397 337.474 110.397H378.138C378.891 110.397 379.483 110.934 379.375 111.633L374.642 140.926Z" fill="white"/>
<path d="M380.129 106.903C380.021 107.602 379.268 108.139 378.515 108.139H337.85C337.043 108.139 336.505 107.602 336.613 106.903L337.635 100.614C337.743 99.9157 338.496 99.3782 339.249 99.3782H379.913C380.72 99.3782 381.258 99.9157 381.151 100.614L380.129 106.903Z" fill="#B7B7B7"/>
<path d="M372.921 125.822H359.581L361.464 114.213H374.803L372.921 125.822Z" fill="#EEEDED"/>
<path d="M420.524 140.926C420.417 141.625 419.664 142.162 418.911 142.162H378.246C377.493 142.162 376.901 141.625 377.009 140.926L381.742 111.633C381.85 110.934 382.603 110.397 383.356 110.397H424.021C424.774 110.397 425.365 110.934 425.258 111.633L420.524 140.926Z" fill="white"/>
<path d="M426.011 106.903C425.903 107.602 425.15 108.139 424.397 108.139H383.732C382.979 108.139 382.388 107.602 382.495 106.903L383.517 100.614C383.625 99.9157 384.378 99.3782 385.131 99.3782H425.796C426.603 99.3782 427.14 99.9157 427.033 100.614L426.011 106.903Z" fill="#B7B7B7"/>
<path d="M418.803 125.822H405.463L407.346 114.213H420.686L418.803 125.822Z" fill="#EEEDED"/>
<path d="M280.995 125.822H267.655L269.538 114.213H282.877L280.995 125.822Z" fill="#C2C1C1"/>
<path d="M326.931 125.822H313.591L315.42 114.213H328.814L326.931 125.822Z" fill="#EEEDED"/>
<path d="M466.46 140.926C466.353 141.625 465.6 142.162 464.847 142.162H424.182C423.429 142.162 422.837 141.625 422.945 140.926L427.678 111.633C427.786 110.934 428.539 110.397 429.292 110.397H469.957C470.71 110.397 471.301 110.934 471.194 111.633L466.46 140.926Z" fill="white"/>
<path d="M471.947 106.903C471.839 107.602 471.086 108.139 470.333 108.139H429.669C428.862 108.139 428.324 107.602 428.431 106.903L429.453 100.614C429.561 99.9157 430.314 99.3782 431.067 99.3782H471.732C472.485 99.3782 473.077 99.9157 472.969 100.614L471.947 106.903Z" fill="#B7B7B7"/>
<path d="M464.739 125.822H451.399L453.282 114.213H466.622L464.739 125.822Z" fill="#EEEDED"/>
<path d="M512.343 140.926C512.235 141.625 511.482 142.162 510.729 142.162H470.064C469.311 142.162 468.72 141.625 468.827 140.926L473.561 111.633C473.668 110.934 474.421 110.397 475.174 110.397H515.893C516.7 110.397 517.237 110.934 517.13 111.633L512.343 140.926Z" fill="white"/>
<path d="M517.829 106.903C517.722 107.602 516.969 108.139 516.215 108.139H475.551C474.798 108.139 474.206 107.602 474.314 106.903L475.336 100.614C475.443 99.9157 476.196 99.3782 476.949 99.3782H517.614C518.421 99.3782 518.959 99.9157 518.851 100.614L517.829 106.903Z" fill="#B7B7B7"/>
<path d="M510.622 125.822H497.282L499.164 114.213H512.504L510.622 125.822Z" fill="#F6AE9B"/>
<path d="M231.347 175.379C231.24 176.078 230.487 176.616 229.734 176.616H189.069C188.262 176.616 187.724 176.078 187.832 175.379L192.565 146.086C192.673 145.387 193.426 144.85 194.179 144.85H234.844C235.597 144.85 236.188 145.387 236.081 146.086L231.347 175.379Z" fill="white"/>
<path d="M229.626 160.276H216.286L218.169 148.612H231.509L229.626 160.276Z" fill="#EEEDED"/>
<path d="M277.23 175.379C277.122 176.078 276.369 176.616 275.616 176.616H234.951C234.198 176.616 233.607 176.078 233.714 175.379L238.448 146.086C238.555 145.387 239.308 144.85 240.061 144.85H280.726C281.479 144.85 282.071 145.387 281.963 146.086L277.23 175.379Z" fill="white"/>
<path d="M275.562 160.276H262.169L264.051 148.612H277.391L275.562 160.276Z" fill="#EEEDED"/>
<path d="M323.166 175.379C323.058 176.078 322.305 176.616 321.552 176.616H280.887C280.134 176.616 279.543 176.078 279.65 175.379L284.384 146.086C284.491 145.387 285.244 144.85 285.997 144.85H326.662C327.415 144.85 328.007 145.387 327.899 146.086L323.166 175.379Z" fill="white"/>
<path d="M321.444 160.276H308.105L309.987 148.612H323.327L321.444 160.276Z" fill="#C2C1C1"/>
<path d="M329.136 82.9309H203.108L204.991 71.321H331.019L329.136 82.9309Z" fill="white"/>
<path d="M517.56 82.9309H487.277L489.159 71.321H519.443L517.56 82.9309Z" fill="white"/>
<path d="M241.191 89.488H202.194L203.108 84.7043H242.105L241.191 89.488Z" fill="white"/>
<path d="M290.247 89.488H243.45L244.418 84.7043H291.215L290.247 89.488Z" fill="white"/>
<path d="M369.048 175.379C368.94 176.078 368.187 176.616 367.434 176.616H326.77C325.963 176.616 325.425 176.078 325.532 175.379L330.266 146.086C330.374 145.387 331.127 144.85 331.88 144.85H372.544C373.351 144.85 373.889 145.387 373.782 146.086L369.048 175.379Z" fill="white"/>
<path d="M367.327 160.276H353.987L355.869 148.612H369.209L367.327 160.276Z" fill="#C2C1C1"/>
<path d="M414.984 175.379C414.876 176.078 414.123 176.616 413.37 176.616H372.706C371.953 176.616 371.361 176.078 371.468 175.379L376.202 146.086C376.31 145.387 377.063 144.85 377.816 144.85H418.48C419.287 144.85 419.825 145.387 419.717 146.086L414.984 175.379Z" fill="white"/>
<path d="M413.263 160.276H399.923L401.806 148.612H415.145L413.263 160.276Z" fill="#C2C1C1"/>
<path d="M460.866 175.379C460.759 176.078 460.006 176.616 459.253 176.616H418.588C417.781 176.616 417.243 176.078 417.351 175.379L422.084 146.086C422.192 145.387 422.945 144.85 423.698 144.85H464.363C465.17 144.85 465.707 145.387 465.6 146.086L460.866 175.379Z" fill="white"/>
<path d="M459.145 160.276H445.805L447.688 148.612H461.028L459.145 160.276Z" fill="#C2C1C1"/>
<path d="M506.802 175.379C506.695 176.078 505.942 176.616 505.189 176.616H464.524C463.771 176.616 463.179 176.078 463.287 175.379L468.02 146.086C468.128 145.387 468.881 144.85 469.634 144.85H510.299C511.052 144.85 511.644 145.387 511.536 146.086L506.802 175.379Z" fill="white"/>
<path d="M505.081 160.276H491.741L493.624 148.612H506.964L505.081 160.276Z" fill="#F6AE9B"/>
<path d="M225.807 209.833C225.699 210.531 224.946 211.069 224.193 211.069H183.529C182.722 211.069 182.184 210.531 182.292 209.833L187.025 180.539C187.133 179.84 187.886 179.303 188.639 179.303H229.303C230.056 179.303 230.648 179.84 230.54 180.539L225.807 209.833Z" fill="white"/>
<path d="M224.086 194.729H210.692L212.575 183.066H225.969L224.086 194.729Z" fill="#EEEDED"/>
<path d="M271.689 209.833C271.582 210.531 270.829 211.069 270.076 211.069H229.411C228.604 211.069 228.066 210.531 228.174 209.833L232.907 180.539C233.015 179.84 233.768 179.303 234.521 179.303H275.186C275.993 179.303 276.53 179.84 276.423 180.539L271.689 209.833Z" fill="white"/>
<path d="M269.968 194.729H256.628L258.511 183.066H271.851L269.968 194.729Z" fill="#EEEDED"/>
<path d="M317.625 209.833C317.518 210.531 316.765 211.069 316.012 211.069H275.347C274.54 211.069 274.002 210.531 274.11 209.833L278.843 180.539C278.951 179.84 279.704 179.303 280.457 179.303H321.122C321.929 179.303 322.466 179.84 322.359 180.539L317.625 209.833Z" fill="white"/>
<path d="M315.904 194.729H302.51L304.393 183.066H317.787L315.904 194.729Z" fill="#EEEDED"/>
<path d="M363.508 209.833C363.4 210.531 362.647 211.069 361.894 211.069H321.229C320.476 211.069 319.885 210.531 319.992 209.833L324.726 180.539C324.833 179.84 325.586 179.303 326.339 179.303H367.004C367.757 179.303 368.349 179.84 368.241 180.539L363.508 209.833Z" fill="white"/>
<path d="M361.787 194.729H348.447L350.329 183.066H363.669L361.787 194.729Z" fill="#EEEDED"/>
<path d="M409.444 209.833C409.336 210.531 408.583 211.069 407.83 211.069H367.165C366.412 211.069 365.821 210.531 365.928 209.833L370.662 180.539C370.769 179.84 371.522 179.303 372.275 179.303H412.94C413.693 179.303 414.285 179.84 414.177 180.539L409.444 209.833Z" fill="white"/>
<path d="M407.722 194.729H394.329L396.211 183.066H409.551L407.722 194.729Z" fill="#EEEDED"/>
<path d="M455.326 209.833C455.219 210.531 454.465 211.069 453.712 211.069H413.048C412.241 211.069 411.703 210.531 411.811 209.833L416.544 180.539C416.652 179.84 417.405 179.303 418.158 179.303H458.822C459.629 179.303 460.167 179.84 460.06 180.539L455.326 209.833Z" fill="white"/>
<path d="M453.605 194.729H440.265L442.148 183.066H455.487L453.605 194.729Z" fill="#EEEDED"/>
<path d="M501.208 209.833C501.101 210.531 500.348 211.069 499.594 211.069H458.93C458.123 211.069 457.585 210.531 457.693 209.833L462.426 180.539C462.534 179.84 463.287 179.303 464.04 179.303H504.704C505.458 179.303 506.049 179.84 505.942 180.539L501.208 209.833Z" fill="white"/>
<path d="M499.487 194.729H486.147L488.03 183.066H501.37L499.487 194.729Z" fill="#F6AE9B"/>
<path d="M220.213 244.286C220.105 244.985 219.352 245.522 218.599 245.522H177.935C177.182 245.522 176.59 244.985 176.697 244.286L181.431 214.993C181.539 214.294 182.292 213.756 183.045 213.756H223.709C224.516 213.756 225.054 214.294 224.946 214.993L220.213 244.286Z" fill="white"/>
<path d="M218.492 229.182H205.152L207.035 217.519H220.374L218.492 229.182Z" fill="#EEEDED"/>
<path d="M266.149 244.286C266.042 244.985 265.288 245.522 264.535 245.522H223.871C223.118 245.522 222.526 244.985 222.634 244.286L227.367 214.993C227.475 214.294 228.228 213.756 228.981 213.756H269.645C270.452 213.756 270.99 214.294 270.883 214.993L266.149 244.286Z" fill="#F6AE9B"/>
<path d="M264.428 229.182H251.088L252.917 217.519H266.311L264.428 229.182Z" fill="#E98379"/>
<path d="M312.031 244.286C311.924 244.985 311.171 245.522 310.417 245.522H269.753C268.946 245.522 268.408 244.985 268.516 244.286L273.249 214.993C273.357 214.294 274.11 213.756 274.863 213.756H315.527C316.28 213.756 316.872 214.294 316.765 214.993L312.031 244.286Z" fill="white"/>
<path d="M310.31 229.182H296.97L298.853 217.519H312.193L310.31 229.182Z" fill="#EEEDED"/>
<path d="M357.967 244.286C357.86 244.985 357.107 245.522 356.354 245.522H315.689C314.936 245.522 314.344 244.985 314.452 244.286L319.185 214.993C319.293 214.294 320.046 213.756 320.799 213.756H361.464C362.217 213.756 362.808 214.294 362.701 214.993L357.967 244.286Z" fill="white"/>
<path d="M356.246 229.182H342.853L344.735 217.519H358.129L356.246 229.182Z" fill="#EEEDED"/>
<path d="M403.85 244.286C403.742 244.985 402.989 245.522 402.236 245.522H361.571C360.818 245.522 360.226 244.985 360.334 244.286L365.067 214.993C365.175 214.294 365.928 213.756 366.681 213.756H407.346C408.153 213.756 408.691 214.294 408.583 214.993L403.85 244.286Z" fill="white"/>
<path d="M402.128 229.182H388.789L390.671 217.519H404.011L402.128 229.182Z" fill="#EEEDED"/>
<path d="M449.786 244.286C449.678 244.985 448.925 245.522 448.172 245.522H407.507C406.7 245.522 406.162 244.985 406.27 244.286L411.003 214.993C411.111 214.294 411.864 213.756 412.617 213.756H453.282C454.089 213.756 454.627 214.294 454.519 214.993L449.786 244.286Z" fill="#B7B7B7"/>
<path d="M448.064 229.182H434.671L436.554 217.519H449.947L448.064 229.182Z" fill="#C2C1C1"/>
<path d="M495.668 244.286C495.56 244.985 494.807 245.522 494.054 245.522H453.389C452.636 245.522 452.045 244.985 452.152 244.286L456.886 214.993C456.993 214.294 457.746 213.756 458.499 213.756H499.164C499.917 213.756 500.509 214.294 500.401 214.993L495.668 244.286Z" fill="#B7B7B7"/>
<path d="M493.947 229.182H480.607L482.49 217.519H495.829L493.947 229.182Z" fill="#C2C1C1"/>
<path d="M214.673 278.739C214.565 279.438 213.812 279.976 213.059 279.976H172.394C171.587 279.976 171.05 279.438 171.157 278.739L175.891 249.446C175.998 248.747 176.751 248.21 177.504 248.21H218.169C218.922 248.21 219.514 248.747 219.406 249.446L214.673 278.739Z" fill="white"/>
<path d="M212.951 263.636H199.612L201.494 251.972H214.834L212.951 263.636Z" fill="#EEEDED"/>
<path d="M260.555 278.739C260.448 279.438 259.694 279.976 258.941 279.976H218.277C217.524 279.976 216.932 279.438 217.04 278.739L221.773 249.446C221.881 248.747 222.634 248.21 223.387 248.21H264.051C264.804 248.21 265.396 248.747 265.289 249.446L260.555 278.739Z" fill="white"/>
<path d="M258.834 263.636H245.494L247.377 251.972H260.716L258.834 263.636Z" fill="#EEEDED"/>
<path d="M306.491 278.739C306.384 279.438 305.63 279.976 304.877 279.976H264.213C263.46 279.976 262.868 279.438 262.976 278.739L267.709 249.446C267.817 248.747 268.57 248.21 269.323 248.21H309.987C310.74 248.21 311.332 248.747 311.225 249.446L306.491 278.739Z" fill="white"/>
<path d="M304.77 263.636H291.43L293.313 251.972H306.652L304.77 263.636Z" fill="#EEEDED"/>
<path d="M352.373 278.739C352.266 279.438 351.513 279.976 350.759 279.976H310.095C309.342 279.976 308.75 279.438 308.858 278.739L313.591 249.446C313.699 248.747 314.452 248.21 315.205 248.21H355.869C356.623 248.21 357.214 248.747 357.107 249.446L352.373 278.739Z" stroke="white" stroke-miterlimit="10"/>
<path d="M398.309 278.739C398.202 279.438 397.449 279.976 396.696 279.976H356.031C355.224 279.976 354.686 279.438 354.794 278.739L359.527 249.446C359.635 248.747 360.388 248.21 361.141 248.21H401.805C402.559 248.21 403.15 248.747 403.043 249.446L398.309 278.739Z" stroke="white" stroke-miterlimit="10"/>
<path d="M447.688 248.747C447.957 248.747 448.172 248.855 448.28 248.962C448.387 249.07 448.387 249.177 448.387 249.338L443.654 278.632C443.6 279.062 443.062 279.438 442.578 279.438H401.913C401.644 279.438 401.429 279.331 401.322 279.223C401.214 279.116 401.214 279.008 401.214 278.847L405.947 249.553C406.001 249.123 406.539 248.747 407.023 248.747H447.688ZM447.688 248.21H407.023C406.27 248.21 405.517 248.747 405.409 249.446L400.676 278.739C400.568 279.438 401.106 279.976 401.913 279.976H442.578C443.385 279.976 444.084 279.438 444.192 278.739L448.925 249.446C449.033 248.747 448.495 248.21 447.688 248.21Z" fill="white"/>
<path d="M493.624 248.747C493.893 248.747 494.108 248.855 494.216 248.962C494.323 249.07 494.323 249.177 494.323 249.338L489.59 278.632C489.536 279.062 488.998 279.438 488.514 279.438H447.849C447.58 279.438 447.419 279.331 447.258 279.223C447.15 279.116 447.15 278.954 447.15 278.847L451.883 249.553C451.937 249.123 452.475 248.747 452.959 248.747H493.624ZM493.624 248.21H452.959C452.206 248.21 451.453 248.747 451.346 249.446L446.612 278.739C446.504 279.438 447.042 279.976 447.849 279.976H488.514C489.267 279.976 490.02 279.438 490.128 278.739L494.861 249.446C494.969 248.747 494.377 248.21 493.624 248.21Z" fill="white"/>
</svg>
