<svg width="1152" height="544" viewBox="0 0 1152 544" fill="none" xmlns="http://www.w3.org/2000/svg">
<path opacity="0.3" d="M815.375 11.4048C633.896 -14.5721 485.571 8.34471 440.762 76.4832C395.809 144.826 432.799 214.528 269.852 242.613C136.367 265.054 -20.3554 304.564 3.38818 415.204C25.9735 520.2 148.528 539.58 305.54 543.797C472.613 548.353 651.631 474.162 807.123 510.339C951.466 544 1114.41 551.481 1135.77 454.237C1148.29 397.319 1055.78 378.278 1038.26 333.941C1013.94 272.466 1062.58 249.482 1077.28 208.408C1113.76 106.404 989.326 40.3739 815.375 11.4048Z" fill="#FCBF24"/>
<ellipse cx="200" cy="173.218" rx="33" ry="33.0122" fill="#FEF3D8"/>
<ellipse cx="1113" cy="286.26" rx="39" ry="39.0145" fill="#FEF3D8"/>
<path opacity="0.3" d="M925 508.104C925 516.456 762.636 523.267 562.459 523.348C362.202 523.348 200 516.618 200 508.267C200 499.915 362.364 493.104 562.622 493.023C762.798 493.023 925.081 499.672 925 508.104Z" fill="#C2C1C1"/>
<path d="M839.558 50.6443L895.951 491.158C895.951 491.158 900.982 508.185 882.725 508.185C847.023 508.185 769.046 508.185 751.357 508.185C743 508.185 799.961 164.644 799.961 164.644L839.558 50.6443Z" fill="#4B576E"/>
<path d="M767.18 505.753C766.936 507.05 765.719 508.186 764.34 508.186H230.753C229.373 508.186 228.481 507.131 228.724 505.753L295.909 83.5633C296.153 82.266 297.37 81.1309 298.749 81.1309H832.418C833.716 81.1309 834.69 82.1849 834.446 83.5633L767.18 505.753Z" fill="#FCBF2A"/>
<path d="M839.558 50.6443C840.775 42.7794 835.663 36.374 827.711 36.374H318.061C310.109 36.374 302.644 42.7794 301.346 50.6443L296.64 80.4011C295.422 88.266 300.859 94.6714 308.811 94.6714H818.461C826.413 94.6714 833.635 88.266 834.852 80.4011L839.558 50.6443Z" fill="#FCBF2A"/>
<path d="M780.811 57.5362C780.811 61.8335 777.322 65.32 773.022 65.32C768.721 65.32 765.232 61.8335 765.232 57.5362C765.232 53.2389 768.721 49.7524 773.022 49.7524C777.322 49.7524 780.811 53.2389 780.811 57.5362Z" fill="white"/>
<path d="M792.496 36.3741H784.382C784.382 31.5903 783.083 27.0497 780.649 23.7254L787.222 19.0227C790.548 23.7254 792.496 29.8876 792.496 36.3741Z" fill="#13273E"/>
<path d="M792.496 36.3741H784.382C784.382 31.5903 783.083 27.0497 780.649 23.7254L787.222 19.0227C790.548 23.7254 792.496 29.8876 792.496 36.3741Z" fill="#13273E"/>
<path d="M721.416 57.5362C721.416 61.8335 717.927 65.32 713.626 65.32C709.326 65.32 705.837 61.8335 705.837 57.5362C705.837 53.2389 709.326 49.7524 713.626 49.7524C717.927 49.7524 721.416 53.2389 721.416 57.5362Z" fill="white"/>
<path d="M733.019 36.3741H724.905C724.905 31.5903 723.607 27.0497 721.172 23.7254L727.745 19.0227C731.153 23.7254 733.019 29.8876 733.019 36.3741Z" fill="#13273E"/>
<path d="M733.019 36.3741H724.905C724.905 31.5903 723.607 27.0497 721.172 23.7254L727.745 19.0227C731.153 23.7254 733.019 29.8876 733.019 36.3741Z" fill="#13273E"/>
<path d="M661.939 57.5362C661.939 61.8335 658.45 65.32 654.149 65.32C649.849 65.32 646.36 61.8335 646.36 57.5362C646.36 53.2389 649.849 49.7524 654.149 49.7524C658.45 49.7524 661.939 53.2389 661.939 57.5362Z" fill="white"/>
<path d="M673.542 36.3741H665.428C665.428 31.5903 664.13 27.0497 661.696 23.7254L668.268 19.0227C671.676 23.7254 673.542 29.8876 673.542 36.3741Z" fill="#13273E"/>
<path d="M673.542 36.3741H665.428C665.428 31.5903 664.13 27.0497 661.696 23.7254L668.268 19.0227C671.676 23.7254 673.542 29.8876 673.542 36.3741Z" fill="#13273E"/>
<path d="M602.462 57.5362C602.462 61.8335 598.973 65.32 594.673 65.32C590.372 65.32 586.883 61.8335 586.883 57.5362C586.883 53.2389 590.372 49.7524 594.673 49.7524C598.973 49.7524 602.462 53.2389 602.462 57.5362Z" fill="white"/>
<path d="M614.065 36.3741H605.951C605.951 31.5903 604.653 27.0497 602.219 23.7254L608.791 19.0227C612.199 23.7254 614.065 29.8876 614.065 36.3741Z" fill="#13273E"/>
<path d="M614.065 36.3741H605.951C605.951 31.5903 604.653 27.0497 602.219 23.7254L608.791 19.0227C612.199 23.7254 614.065 29.8876 614.065 36.3741Z" fill="#13273E"/>
<path d="M535.196 65.32C539.498 65.32 542.985 61.8351 542.985 57.5362C542.985 53.2374 539.498 49.7524 535.196 49.7524C530.894 49.7524 527.406 53.2374 527.406 57.5362C527.406 61.8351 530.894 65.32 535.196 65.32Z" fill="white"/>
<path d="M554.67 36.3741H546.556C546.556 31.5903 545.257 27.0497 542.823 23.7254L549.396 19.0227C552.722 23.7254 554.67 29.8876 554.67 36.3741Z" fill="#13273E"/>
<path d="M554.67 36.3741H546.556C546.556 31.5903 545.257 27.0497 542.823 23.7254L549.396 19.0227C552.722 23.7254 554.67 29.8876 554.67 36.3741Z" fill="#13273E"/>
<path d="M475.719 65.32C480.021 65.32 483.509 61.8351 483.509 57.5362C483.509 53.2374 480.021 49.7524 475.719 49.7524C471.417 49.7524 467.929 53.2374 467.929 57.5362C467.929 61.8351 471.417 65.32 475.719 65.32Z" fill="white"/>
<path d="M495.193 36.3741H487.079C487.079 31.5903 485.781 27.0497 483.346 23.7254L489.919 19.0227C493.327 23.7254 495.193 29.8876 495.193 36.3741Z" fill="#13273E"/>
<path d="M495.193 36.3741H487.079C487.079 31.5903 485.781 27.0497 483.346 23.7254L489.919 19.0227C493.327 23.7254 495.193 29.8876 495.193 36.3741Z" fill="#13273E"/>
<path d="M424.113 57.5362C424.113 61.8335 420.624 65.32 416.323 65.32C412.023 65.32 408.534 61.8335 408.534 57.5362C408.534 53.2389 412.023 49.7524 416.323 49.7524C420.624 49.7524 424.113 53.2389 424.113 57.5362Z" fill="white"/>
<path d="M435.716 36.3741H427.602C427.602 31.5903 426.304 27.0497 423.87 23.7254L430.442 19.0227C433.85 23.7254 435.716 29.8876 435.716 36.3741Z" fill="#13273E"/>
<path d="M435.716 36.3741H427.602C427.602 31.5903 426.304 27.0497 423.87 23.7254L430.442 19.0227C433.85 23.7254 435.716 29.8876 435.716 36.3741Z" fill="#13273E"/>
<path d="M364.636 57.5362C364.636 61.8335 361.147 65.32 356.847 65.32C352.546 65.32 349.057 61.8335 349.057 57.5362C349.057 53.2389 352.546 49.7524 356.847 49.7524C361.147 49.7524 364.636 53.2389 364.636 57.5362Z" fill="white"/>
<path d="M376.24 36.3741H368.125C368.125 31.5903 366.827 27.0497 364.393 23.7254L370.965 19.0227C374.373 23.7254 376.24 29.8876 376.24 36.3741Z" fill="#13273E"/>
<path d="M376.24 36.3741H368.125C368.125 31.5903 366.827 27.0497 364.393 23.7254L370.965 19.0227C374.373 23.7254 376.24 29.8876 376.24 36.3741Z" fill="#13273E"/>
<path opacity="0.2" d="M458.679 96.8606H423.22L462.006 36.374H497.465L458.679 96.8606Z" fill="#EEEDED"/>
<path opacity="0.2" d="M342.728 508.186H253.31L288.769 450.78H378.268L342.728 508.186Z" fill="#EEEDED"/>
<path d="M773.022 61.5902C762.311 61.5902 753.629 50.2389 753.629 36.374C753.629 22.5091 762.311 11.1577 773.022 11.1577C778.458 11.1577 783.489 13.9145 787.14 19.0226C788.439 20.8064 788.033 23.3199 786.248 24.6983C784.463 25.9956 781.947 25.5902 780.568 23.8064C778.458 20.8875 775.699 19.2658 772.941 19.2658C766.774 19.2658 761.581 27.1307 761.581 36.4551C761.581 45.7794 766.774 53.6443 772.941 53.6443C775.213 53.6443 776.998 55.4281 776.998 57.6983C777.079 59.8065 775.294 61.5902 773.022 61.5902Z" fill="#13273E"/>
<path d="M773.022 61.5902C762.311 61.5902 753.629 50.2389 753.629 36.374C753.629 22.5091 762.311 11.1577 773.022 11.1577C778.458 11.1577 783.489 13.9145 787.14 19.0226C788.439 20.8064 788.033 23.3199 786.248 24.6983C784.463 25.9956 781.947 25.5902 780.568 23.8064C778.458 20.8875 775.699 19.2658 772.941 19.2658C766.774 19.2658 761.581 27.1307 761.581 36.4551C761.581 45.7794 766.774 53.6443 772.941 53.6443C775.213 53.6443 776.998 55.4281 776.998 57.6983C777.079 59.8065 775.294 61.5902 773.022 61.5902Z" fill="#4B576E"/>
<path d="M713.545 61.5902C702.834 61.5902 694.071 50.2389 694.071 36.374C694.152 22.5091 702.834 11.1577 713.545 11.1577C718.981 11.1577 724.012 13.9145 727.664 19.0226C728.962 20.8064 728.556 23.3199 726.771 24.6983C724.986 25.9956 722.471 25.5902 721.091 23.8064C718.981 20.8875 716.223 19.2658 713.464 19.2658C707.297 19.2658 702.104 27.1307 702.104 36.4551C702.104 45.7794 707.297 53.6443 713.464 53.6443C715.655 53.6443 717.521 55.4281 717.521 57.6983C717.602 59.8065 715.817 61.5902 713.545 61.5902Z" fill="#13273E"/>
<path d="M713.545 61.5902C702.834 61.5902 694.071 50.2389 694.071 36.374C694.152 22.5091 702.834 11.1577 713.545 11.1577C718.981 11.1577 724.012 13.9145 727.664 19.0226C728.962 20.8064 728.556 23.3199 726.771 24.6983C724.986 25.9956 722.471 25.5902 721.091 23.8064C718.981 20.8875 716.223 19.2658 713.464 19.2658C707.297 19.2658 702.104 27.1307 702.104 36.4551C702.104 45.7794 707.297 53.6443 713.464 53.6443C715.655 53.6443 717.521 55.4281 717.521 57.6983C717.602 59.8065 715.817 61.5902 713.545 61.5902Z" fill="#4B576E"/>
<path d="M654.149 61.5902C643.439 61.5902 634.675 50.2389 634.675 36.374C634.675 22.428 643.358 11.1577 654.149 11.1577C659.586 11.1577 664.617 13.9145 668.268 19.0226C669.566 20.8064 669.161 23.3199 667.375 24.6983C665.59 25.9956 663.075 25.5902 661.696 23.8064C659.586 20.8875 656.827 19.2658 654.068 19.2658C647.901 19.2658 642.708 27.1307 642.708 36.4551C642.708 45.7794 647.901 53.6443 654.068 53.6443C656.259 53.6443 658.125 55.4281 658.125 57.6983C658.125 59.8065 656.34 61.5902 654.149 61.5902Z" fill="#13273E"/>
<path d="M654.149 61.5902C643.439 61.5902 634.675 50.2389 634.675 36.374C634.675 22.428 643.358 11.1577 654.149 11.1577C659.586 11.1577 664.617 13.9145 668.268 19.0226C669.566 20.8064 669.161 23.3199 667.375 24.6983C665.59 25.9956 663.075 25.5902 661.696 23.8064C659.586 20.8875 656.827 19.2658 654.068 19.2658C647.901 19.2658 642.708 27.1307 642.708 36.4551C642.708 45.7794 647.901 53.6443 654.068 53.6443C656.259 53.6443 658.125 55.4281 658.125 57.6983C658.125 59.8065 656.34 61.5902 654.149 61.5902Z" fill="#4B576E"/>
<path d="M594.673 61.5902C583.962 61.5902 575.199 50.2389 575.199 36.374C575.199 22.428 583.881 11.1577 594.673 11.1577C600.109 11.1577 605.14 13.9145 608.791 19.0226C610.09 20.8064 609.684 23.3199 607.899 24.6983C606.114 25.9956 603.598 25.5902 602.3 23.8064C600.19 20.8875 597.431 19.2658 594.673 19.2658C588.506 19.2658 583.313 27.1307 583.313 36.4551C583.313 45.7794 588.506 53.6443 594.673 53.6443C596.945 53.6443 598.73 55.4281 598.73 57.6983C598.73 59.8065 596.863 61.5902 594.673 61.5902Z" fill="#13273E"/>
<path d="M594.673 61.5902C583.962 61.5902 575.199 50.2389 575.199 36.374C575.199 22.428 583.881 11.1577 594.673 11.1577C600.109 11.1577 605.14 13.9145 608.791 19.0226C610.09 20.8064 609.684 23.3199 607.899 24.6983C606.114 25.9956 603.598 25.5902 602.3 23.8064C600.19 20.8875 597.431 19.2658 594.673 19.2658C588.506 19.2658 583.313 27.1307 583.313 36.4551C583.313 45.7794 588.506 53.6443 594.673 53.6443C596.945 53.6443 598.73 55.4281 598.73 57.6983C598.73 59.8065 596.863 61.5902 594.673 61.5902Z" fill="#4B576E"/>
<path d="M535.196 61.5902C524.485 61.5902 515.722 50.2389 515.722 36.374C515.722 22.428 524.404 11.1577 535.196 11.1577C540.632 11.1577 545.663 13.9145 549.315 19.0226C550.613 20.8064 550.207 23.3199 548.422 24.6983C546.637 25.9956 544.121 25.5902 542.742 23.8064C540.632 20.8875 537.874 19.2658 535.115 19.2658C528.948 19.2658 523.755 27.1307 523.755 36.4551C523.755 45.7794 528.948 53.6443 535.115 53.6443C537.306 53.6443 539.172 55.4281 539.172 57.6983C539.253 59.8065 537.468 61.5902 535.196 61.5902Z" fill="#13273E"/>
<path d="M535.196 61.5902C524.485 61.5902 515.722 50.2389 515.722 36.374C515.722 22.428 524.404 11.1577 535.196 11.1577C540.632 11.1577 545.663 13.9145 549.315 19.0226C550.613 20.8064 550.207 23.3199 548.422 24.6983C546.637 25.9956 544.121 25.5902 542.742 23.8064C540.632 20.8875 537.874 19.2658 535.115 19.2658C528.948 19.2658 523.755 27.1307 523.755 36.4551C523.755 45.7794 528.948 53.6443 535.115 53.6443C537.306 53.6443 539.172 55.4281 539.172 57.6983C539.253 59.8065 537.468 61.5902 535.196 61.5902Z" fill="#4B576E"/>
<path d="M475.719 61.5902C465.008 61.5902 456.245 50.2389 456.245 36.374C456.245 22.428 464.927 11.1577 475.719 11.1577C481.156 11.1577 486.186 13.9145 489.838 19.0226C491.136 20.8064 490.73 23.3199 488.945 24.6983C487.16 25.9956 484.645 25.5902 483.265 23.8064C481.156 20.8875 478.397 19.2658 475.638 19.2658C469.471 19.2658 464.278 27.1307 464.278 36.4551C464.278 45.7794 469.471 53.6443 475.638 53.6443C477.829 53.6443 479.695 55.4281 479.695 57.6983C479.776 59.8065 477.991 61.5902 475.719 61.5902Z" fill="#13273E"/>
<path d="M475.719 61.5902C465.008 61.5902 456.245 50.2389 456.245 36.374C456.245 22.428 464.927 11.1577 475.719 11.1577C481.156 11.1577 486.186 13.9145 489.838 19.0226C491.136 20.8064 490.73 23.3199 488.945 24.6983C487.16 25.9956 484.645 25.5902 483.265 23.8064C481.156 20.8875 478.397 19.2658 475.638 19.2658C469.471 19.2658 464.278 27.1307 464.278 36.4551C464.278 45.7794 469.471 53.6443 475.638 53.6443C477.829 53.6443 479.695 55.4281 479.695 57.6983C479.776 59.8065 477.991 61.5902 475.719 61.5902Z" fill="#4B576E"/>
<path d="M416.323 61.5902C405.613 61.5902 396.849 50.2389 396.849 36.374C396.849 22.428 405.532 11.1577 416.323 11.1577C421.76 11.1577 426.791 13.9145 430.442 19.0226C431.74 20.8064 431.335 23.3199 429.55 24.6983C427.764 25.9956 425.249 25.5902 423.87 23.8064C421.76 20.8875 419.001 19.2658 416.242 19.2658C410.076 19.2658 404.882 27.1307 404.882 36.4551C404.882 45.7794 410.076 53.6443 416.242 53.6443C418.433 53.6443 420.299 55.4281 420.299 57.6983C420.299 59.8065 418.514 61.5902 416.323 61.5902Z" fill="#13273E"/>
<path d="M416.323 61.5902C405.613 61.5902 396.849 50.2389 396.849 36.374C396.849 22.428 405.532 11.1577 416.323 11.1577C421.76 11.1577 426.791 13.9145 430.442 19.0226C431.74 20.8064 431.335 23.3199 429.55 24.6983C427.764 25.9956 425.249 25.5902 423.87 23.8064C421.76 20.8875 419.001 19.2658 416.242 19.2658C410.076 19.2658 404.882 27.1307 404.882 36.4551C404.882 45.7794 410.076 53.6443 416.242 53.6443C418.433 53.6443 420.299 55.4281 420.299 57.6983C420.299 59.8065 418.514 61.5902 416.323 61.5902Z" fill="#4B576E"/>
<path d="M356.847 61.5902C346.136 61.5902 337.373 50.2389 337.373 36.374C337.373 22.428 346.055 11.1577 356.847 11.1577C362.283 11.1577 367.314 13.9145 370.965 19.0226C372.264 20.8064 371.858 23.3199 370.073 24.6983C368.288 25.9956 365.772 25.5902 364.393 23.8064C362.283 20.8875 359.524 19.2658 356.766 19.2658C350.599 19.2658 345.406 27.1307 345.406 36.4551C345.406 45.7794 350.599 53.6443 356.766 53.6443C358.956 53.6443 360.823 55.4281 360.823 57.6983C360.904 59.8065 359.037 61.5902 356.847 61.5902Z" fill="#13273E"/>
<path d="M356.847 61.5902C346.136 61.5902 337.373 50.2389 337.373 36.374C337.373 22.428 346.055 11.1577 356.847 11.1577C362.283 11.1577 367.314 13.9145 370.965 19.0226C372.264 20.8064 371.858 23.3199 370.073 24.6983C368.288 25.9956 365.772 25.5902 364.393 23.8064C362.283 20.8875 359.524 19.2658 356.766 19.2658C350.599 19.2658 345.406 27.1307 345.406 36.4551C345.406 45.7794 350.599 53.6443 356.766 53.6443C358.956 53.6443 360.823 55.4281 360.823 57.6983C360.904 59.8065 359.037 61.5902 356.847 61.5902Z" fill="#4B576E"/>
<path d="M761.337 442.591C761.094 443.888 759.877 445.023 758.497 445.023H248.523C247.143 445.023 246.251 443.969 246.494 442.591L300.21 99.293C300.453 97.9957 301.67 96.8606 303.05 96.8606H814.485C815.783 96.8606 816.757 97.9147 816.514 99.293L761.337 442.591Z" fill="#EEEDED"/>
<path d="M301.752 88.5093H818.055L810.753 132.861H294.611L301.752 88.5093Z" fill="#EEEDED"/>
<path d="M362.202 167.563C362.608 167.563 362.932 167.726 363.095 167.888C363.257 168.05 363.257 168.212 363.257 168.455L356.116 212.645C356.035 213.293 355.224 213.861 354.494 213.861H293.151C292.745 213.861 292.42 213.699 292.258 213.536C292.096 213.374 292.096 213.212 292.096 212.969L299.236 168.78C299.317 168.131 300.129 167.563 300.859 167.563H362.202ZM362.202 166.753H300.859C299.723 166.753 298.587 167.563 298.425 168.618L291.284 212.807C291.122 213.861 291.933 214.672 293.151 214.672H354.494C355.63 214.672 356.766 213.861 356.928 212.807L364.068 168.618C364.149 167.645 363.338 166.753 362.202 166.753Z" fill="white"/>
<path d="M365.204 161.482C365.042 162.536 363.906 163.347 362.77 163.347H301.427C300.21 163.347 299.398 162.536 299.561 161.482L301.102 151.996C301.265 150.942 302.401 150.131 303.537 150.131H364.88C366.016 150.131 366.908 150.942 366.746 151.996L365.204 161.482Z" fill="#FCBF2A"/>
<path d="M426.142 212.807C425.979 213.861 424.843 214.672 423.707 214.672H362.364C361.228 214.672 360.336 213.861 360.498 212.807L367.639 168.618C367.801 167.563 368.937 166.753 370.073 166.753H431.416C432.552 166.753 433.444 167.563 433.282 168.618L426.142 212.807Z" fill="#9EBEDD"/>
<path d="M434.418 161.482C434.256 162.536 433.12 163.347 431.984 163.347H370.641C369.424 163.347 368.612 162.536 368.774 161.482L370.316 151.996C370.478 150.942 371.614 150.131 372.75 150.131H434.093C435.229 150.131 436.122 150.942 435.96 151.996L434.418 161.482Z" fill="#FCBF2A"/>
<path d="M495.355 212.807C495.193 213.861 494.057 214.672 492.921 214.672H431.578C430.442 214.672 429.55 213.861 429.712 212.807L436.852 168.618C437.015 167.563 438.151 166.753 439.286 166.753H500.629C501.847 166.753 502.658 167.563 502.496 168.618L495.355 212.807Z" fill="white"/>
<path d="M503.713 161.482C503.551 162.536 502.415 163.347 501.279 163.347H439.936C438.8 163.347 437.907 162.536 438.069 161.482L439.611 151.996C439.773 150.942 440.909 150.131 442.045 150.131H503.388C504.524 150.131 505.417 150.942 505.255 151.996L503.713 161.482Z" fill="#FCBF2A"/>
<path d="M564.65 212.807C564.488 213.861 563.352 214.672 562.216 214.672H500.873C499.656 214.672 498.844 213.861 499.007 212.807L506.147 168.618C506.309 167.563 507.445 166.753 508.581 166.753H569.924C571.06 166.753 571.953 167.563 571.791 168.618L564.65 212.807Z" fill="white"/>
<path d="M572.927 161.482C572.764 162.536 571.628 163.347 570.492 163.347H509.149C507.932 163.347 507.121 162.536 507.283 161.482L508.825 151.996C508.987 150.942 510.123 150.131 511.259 150.131H572.602C573.819 150.131 574.631 150.942 574.468 151.996L572.927 161.482Z" fill="#FCBF2A"/>
<path d="M562.054 190.023H541.931L544.771 172.509H564.894L562.054 190.023Z" fill="#EEEDED"/>
<path d="M633.864 212.807C633.702 213.861 632.566 214.672 631.43 214.672H570.087C568.951 214.672 568.058 213.861 568.22 212.807L575.361 168.618C575.523 167.563 576.659 166.753 577.795 166.753H639.138C640.274 166.753 641.167 167.563 641.004 168.618L633.864 212.807Z" fill="white"/>
<path d="M642.14 161.482C641.978 162.536 640.842 163.347 639.706 163.347H578.363C577.227 163.347 576.335 162.536 576.497 161.482L578.039 151.996C578.201 150.942 579.337 150.131 580.473 150.131H641.816C643.033 150.131 643.844 150.942 643.682 151.996L642.14 161.482Z" fill="#FCBF2A"/>
<path d="M631.268 190.023H611.144L613.984 172.509H634.107L631.268 190.023Z" fill="#EEEDED"/>
<path d="M423.383 190.023H403.26L406.1 172.509H426.223L423.383 190.023Z" fill="#C2C1C1"/>
<path d="M492.678 190.023H472.555L475.313 172.509H495.518L492.678 190.023Z" fill="#EEEDED"/>
<path d="M703.159 212.807C702.997 213.861 701.861 214.672 700.725 214.672H639.382C638.246 214.672 637.353 213.861 637.515 212.807L644.656 168.618C644.818 167.563 645.954 166.753 647.09 166.753H708.433C709.569 166.753 710.462 167.563 710.299 168.618L703.159 212.807Z" fill="white"/>
<path d="M711.435 161.482C711.273 162.536 710.137 163.347 709.001 163.347H647.658C646.441 163.347 645.63 162.536 645.792 161.482L647.334 151.996C647.496 150.942 648.632 150.131 649.768 150.131H711.111C712.247 150.131 713.139 150.942 712.977 151.996L711.435 161.482Z" fill="#FCBF2A"/>
<path d="M700.562 190.023H680.439L683.279 172.509H703.402L700.562 190.023Z" fill="#EEEDED"/>
<path d="M772.373 212.807C772.21 213.861 771.074 214.672 769.938 214.672H708.595C707.459 214.672 706.567 213.861 706.729 212.807L713.87 168.618C714.032 167.563 715.168 166.753 716.304 166.753H777.728C778.945 166.753 779.757 167.563 779.594 168.618L772.373 212.807Z" fill="white"/>
<path d="M780.649 161.482C780.487 162.536 779.351 163.347 778.215 163.347H716.872C715.736 163.347 714.843 162.536 715.006 161.482L716.547 151.996C716.71 150.942 717.846 150.131 718.982 150.131H780.325C781.542 150.131 782.353 150.942 782.191 151.996L780.649 161.482Z" fill="#FCBF2A"/>
<path d="M769.776 190.023H749.653L752.493 172.509H772.616L769.776 190.023Z" fill="#F6AE9B"/>
<path d="M348.489 264.78C348.327 265.834 347.191 266.645 346.055 266.645H284.712C283.495 266.645 282.683 265.834 282.846 264.78L289.986 220.59C290.148 219.536 291.284 218.726 292.42 218.726H353.763C354.899 218.726 355.792 219.536 355.63 220.59L348.489 264.78Z" fill="white"/>
<path d="M345.893 241.996H325.769L328.609 224.401H348.733L345.893 241.996Z" fill="#EEEDED"/>
<path d="M417.703 264.78C417.541 265.834 416.405 266.645 415.269 266.645H353.926C352.79 266.645 351.897 265.834 352.059 264.78L359.2 220.59C359.362 219.536 360.498 218.726 361.634 218.726H422.977C424.113 218.726 425.006 219.536 424.843 220.59L417.703 264.78Z" fill="white"/>
<path d="M415.187 241.996H394.983L397.823 224.401H417.946L415.187 241.996Z" fill="#EEEDED"/>
<path d="M486.998 264.78C486.835 265.834 485.699 266.645 484.563 266.645H423.22C422.084 266.645 421.192 265.834 421.354 264.78L428.495 220.59C428.657 219.536 429.793 218.726 430.929 218.726H492.272C493.408 218.726 494.3 219.536 494.138 220.59L486.998 264.78Z" fill="#9EBEDD"/>
<path d="M484.401 241.996H464.278L467.118 224.401H487.241L484.401 241.996Z" fill="#C2C1C1"/>
<path d="M496.004 125.32H305.89L308.73 107.807H498.844L496.004 125.32Z" fill="white"/>
<path d="M780.243 125.32H734.561L737.401 107.807H783.083L780.243 125.32Z" fill="white"/>
<path d="M363.338 135.212H304.51L305.89 127.996H364.717L363.338 135.212Z" fill="white"/>
<path d="M437.339 135.212H366.746L368.206 127.996H438.8L437.339 135.212Z" fill="white"/>
<path d="M556.212 264.78C556.049 265.834 554.913 266.645 553.777 266.645H492.434C491.217 266.645 490.406 265.834 490.568 264.78L497.708 220.59C497.871 219.536 499.007 218.726 500.143 218.726H561.486C562.703 218.726 563.514 219.536 563.352 220.59L556.212 264.78Z" fill="#9EBEDD"/>
<path d="M553.615 241.996H533.492L536.332 224.401H556.455L553.615 241.996Z" fill="#C2C1C1"/>
<path d="M625.506 264.78C625.344 265.834 624.208 266.645 623.072 266.645H561.729C560.593 266.645 559.701 265.834 559.863 264.78L567.003 220.59C567.166 219.536 568.302 218.726 569.438 218.726H630.781C631.998 218.726 632.809 219.536 632.647 220.59L625.506 264.78Z" fill="#9EBEDD"/>
<path d="M622.91 241.996H602.787L605.627 224.401H625.75L622.91 241.996Z" fill="#C2C1C1"/>
<path d="M694.72 264.78C694.558 265.834 693.422 266.645 692.286 266.645H630.943C629.726 266.645 628.914 265.834 629.077 264.78L636.217 220.59C636.379 219.536 637.515 218.726 638.651 218.726H699.994C701.212 218.726 702.023 219.536 701.861 220.59L694.72 264.78Z" fill="#9EBEDD"/>
<path d="M692.124 241.996H672.001L674.841 224.401H694.964L692.124 241.996Z" fill="#C2C1C1"/>
<path d="M764.015 264.78C763.853 265.834 762.717 266.645 761.581 266.645H700.238C699.102 266.645 698.209 265.834 698.372 264.78L705.512 220.59C705.674 219.536 706.81 218.726 707.946 218.726H769.289C770.425 218.726 771.318 219.536 771.156 220.59L764.015 264.78Z" fill="white"/>
<path d="M761.419 241.996H741.295L744.135 224.401H764.259L761.419 241.996Z" fill="#F6AE9B"/>
<path d="M340.132 316.753C339.969 317.807 338.833 318.618 337.697 318.618H276.354C275.137 318.618 274.326 317.807 274.488 316.753L281.628 272.563C281.791 271.509 282.927 270.699 284.063 270.699H345.406C346.542 270.699 347.434 271.509 347.272 272.563L340.132 316.753Z" fill="white"/>
<path d="M337.535 293.969H317.331L320.171 276.374H340.375L337.535 293.969Z" fill="#EEEDED"/>
<path d="M409.345 316.753C409.183 317.807 408.047 318.618 406.911 318.618H345.568C344.351 318.618 343.539 317.807 343.702 316.753L350.842 272.563C351.004 271.509 352.14 270.699 353.276 270.699H414.619C415.837 270.699 416.648 271.509 416.486 272.563L409.345 316.753Z" fill="white"/>
<path d="M406.749 293.969H386.626L389.466 276.374H409.589L406.749 293.969Z" fill="#EEEDED"/>
<path d="M478.64 316.753C478.478 317.807 477.342 318.618 476.206 318.618H414.863C413.646 318.618 412.834 317.807 412.997 316.753L420.137 272.563C420.299 271.509 421.435 270.699 422.571 270.699H483.914C485.131 270.699 485.943 271.509 485.781 272.563L478.64 316.753Z" fill="white"/>
<path d="M476.044 293.969H455.839L458.679 276.374H478.884L476.044 293.969Z" fill="#EEEDED"/>
<path d="M547.854 316.753C547.692 317.807 546.556 318.618 545.42 318.618H484.077C482.941 318.618 482.048 317.807 482.21 316.753L489.351 272.563C489.513 271.509 490.649 270.699 491.785 270.699H553.128C554.264 270.699 555.157 271.509 554.994 272.563L547.854 316.753Z" fill="white"/>
<path d="M545.257 293.969H525.134L527.974 276.374H548.097L545.257 293.969Z" fill="#EEEDED"/>
<path d="M617.149 316.753C616.987 317.807 615.851 318.618 614.715 318.618H553.372C552.236 318.618 551.343 317.807 551.505 316.753L558.646 272.563C558.808 271.509 559.944 270.699 561.08 270.699H622.423C623.559 270.699 624.452 271.509 624.289 272.563L617.149 316.753Z" fill="white"/>
<path d="M614.552 293.969H594.348L597.188 276.374H617.311L614.552 293.969Z" fill="#EEEDED"/>
<path d="M686.363 316.753C686.2 317.807 685.064 318.618 683.928 318.618H622.585C621.368 318.618 620.557 317.807 620.719 316.753L627.86 272.563C628.022 271.509 629.158 270.699 630.294 270.699H691.637C692.854 270.699 693.665 271.509 693.503 272.563L686.363 316.753Z" fill="white"/>
<path d="M683.766 293.969H663.643L666.483 276.374H686.606L683.766 293.969Z" fill="#EEEDED"/>
<path d="M755.576 316.753C755.414 317.807 754.278 318.618 753.142 318.618H691.799C690.582 318.618 689.771 317.807 689.933 316.753L697.073 272.563C697.236 271.509 698.372 270.699 699.508 270.699H760.851C761.987 270.699 762.879 271.509 762.717 272.563L755.576 316.753Z" fill="white"/>
<path d="M752.98 293.969H732.857L735.697 276.374H755.82L752.98 293.969Z" fill="#F6AE9B"/>
<path d="M331.693 368.726C331.531 369.78 330.395 370.591 329.259 370.591H267.916C266.78 370.591 265.887 369.78 266.049 368.726L273.19 324.537C273.352 323.483 274.488 322.672 275.624 322.672H336.967C338.184 322.672 338.996 323.483 338.833 324.537L331.693 368.726Z" fill="white"/>
<path d="M329.096 345.942H308.973L311.813 328.347H331.936L329.096 345.942Z" fill="#EEEDED"/>
<path d="M400.988 368.726C400.825 369.78 399.689 370.591 398.553 370.591H337.21C336.074 370.591 335.182 369.78 335.344 368.726L342.485 324.537C342.647 323.483 343.783 322.672 344.919 322.672H406.262C407.479 322.672 408.29 323.483 408.128 324.537L400.988 368.726Z" fill="#F6AE9B"/>
<path d="M398.391 345.942H378.268L381.027 328.347H401.231L398.391 345.942Z" fill="#E98379"/>
<path d="M470.201 368.726C470.039 369.78 468.903 370.591 467.767 370.591H406.424C405.207 370.591 404.396 369.78 404.558 368.726L411.698 324.537C411.861 323.483 412.997 322.672 414.133 322.672H475.476C476.612 322.672 477.504 323.483 477.342 324.537L470.201 368.726Z" fill="white"/>
<path d="M467.605 345.942H447.482L450.322 328.347H470.445L467.605 345.942Z" fill="#EEEDED"/>
<path d="M539.496 368.726C539.334 369.78 538.198 370.591 537.062 370.591H475.719C474.583 370.591 473.691 369.78 473.853 368.726L480.993 324.537C481.156 323.483 482.292 322.672 483.427 322.672H544.771C545.906 322.672 546.799 323.483 546.637 324.537L539.496 368.726Z" fill="white"/>
<path d="M536.9 345.942H516.696L519.536 328.347H539.74L536.9 345.942Z" fill="#EEEDED"/>
<path d="M608.71 368.726C608.548 369.78 607.412 370.591 606.276 370.591H544.933C543.797 370.591 542.904 369.78 543.067 368.726L550.207 324.537C550.369 323.483 551.505 322.672 552.641 322.672H613.984C615.202 322.672 616.013 323.483 615.851 324.537L608.71 368.726Z" fill="white"/>
<path d="M606.114 345.942H585.991L588.83 328.347H608.954L606.114 345.942Z" fill="#EEEDED"/>
<path d="M678.005 368.726C677.843 369.78 676.707 370.591 675.571 370.591H614.228C613.011 370.591 612.199 369.78 612.362 368.726L619.502 324.537C619.664 323.483 620.8 322.672 621.936 322.672H683.279C684.496 322.672 685.308 323.483 685.146 324.537L678.005 368.726Z" fill="#FCBF2A"/>
<path d="M675.409 345.942H655.204L658.044 328.347H678.249L675.409 345.942Z" fill="#C2C1C1"/>
<path d="M747.219 368.726C747.057 369.78 745.921 370.591 744.785 370.591H683.442C682.306 370.591 681.413 369.78 681.575 368.726L688.716 324.537C688.878 323.483 690.014 322.672 691.15 322.672H752.493C753.629 322.672 754.522 323.483 754.359 324.537L747.219 368.726Z" fill="#FCBF2A"/>
<path d="M744.622 345.942H724.499L727.339 328.347H747.462L744.622 345.942Z" fill="#C2C1C1"/>
<path d="M323.335 420.699C323.173 421.753 322.037 422.564 320.901 422.564H259.558C258.341 422.564 257.529 421.753 257.692 420.699L264.832 376.51C264.994 375.456 266.13 374.645 267.266 374.645H328.609C329.745 374.645 330.638 375.456 330.476 376.51L323.335 420.699Z" fill="white"/>
<path d="M320.739 397.915H300.616L303.455 380.32H323.579L320.739 397.915Z" fill="#EEEDED"/>
<path d="M392.549 420.699C392.387 421.753 391.251 422.564 390.115 422.564H328.772C327.636 422.564 326.743 421.753 326.905 420.699L334.046 376.51C334.208 375.456 335.344 374.645 336.48 374.645H397.823C398.959 374.645 399.852 375.456 399.689 376.51L392.549 420.699Z" fill="white"/>
<path d="M389.952 397.915H369.829L372.669 380.32H392.792L389.952 397.915Z" fill="#EEEDED"/>
<path d="M461.844 420.699C461.682 421.753 460.546 422.564 459.41 422.564H398.067C396.931 422.564 396.038 421.753 396.2 420.699L403.341 376.51C403.503 375.456 404.639 374.645 405.775 374.645H467.118C468.254 374.645 469.147 375.456 468.984 376.51L461.844 420.699Z" fill="white"/>
<path d="M459.247 397.915H439.124L441.964 380.32H462.087L459.247 397.915Z" fill="#EEEDED"/>
<path d="M531.058 420.699C530.895 421.753 529.759 422.564 528.623 422.564H467.28C466.144 422.564 465.252 421.753 465.414 420.699L472.555 376.51C472.717 375.456 473.853 374.645 474.989 374.645H536.332C537.468 374.645 538.36 375.456 538.198 376.51L531.058 420.699Z" stroke="white" stroke-miterlimit="10"/>
<path d="M600.353 420.699C600.19 421.753 599.054 422.564 597.918 422.564H536.575C535.358 422.564 534.547 421.753 534.709 420.699L541.849 376.51C542.012 375.456 543.148 374.645 544.284 374.645H605.627C606.763 374.645 607.655 375.456 607.493 376.51L600.353 420.699Z" stroke="white" stroke-miterlimit="10"/>
<path d="M674.841 375.456C675.246 375.456 675.571 375.618 675.733 375.78C675.895 375.942 675.895 376.104 675.895 376.347L668.755 420.537C668.674 421.185 667.862 421.753 667.132 421.753H605.789C605.383 421.753 605.059 421.591 604.896 421.429C604.734 421.267 604.734 421.104 604.734 420.861L611.875 376.672C611.956 376.023 612.767 375.456 613.498 375.456H674.841ZM674.841 374.645H613.498C612.362 374.645 611.226 375.456 611.063 376.51L603.923 420.699C603.761 421.753 604.572 422.564 605.789 422.564H667.132C668.349 422.564 669.404 421.753 669.566 420.699L676.707 376.51C676.869 375.456 676.058 374.645 674.841 374.645Z" fill="white"/>
<path d="M744.135 375.456C744.541 375.456 744.866 375.618 745.028 375.78C745.19 375.942 745.19 376.104 745.19 376.347L738.05 420.537C737.969 421.185 737.157 421.753 736.427 421.753H675.084C674.678 421.753 674.435 421.591 674.191 421.429C674.029 421.267 674.029 421.023 674.029 420.861L681.17 376.672C681.251 376.023 682.062 375.456 682.792 375.456H744.135ZM744.135 374.645H682.792C681.656 374.645 680.521 375.456 680.358 376.51L673.218 420.699C673.055 421.753 673.867 422.564 675.084 422.564H736.427C737.563 422.564 738.699 421.753 738.861 420.699L746.002 376.51C746.164 375.456 745.271 374.645 744.135 374.645Z" fill="white"/>
<path d="M896.99 496.334C894.097 497.239 891.024 495.55 890.18 492.653L854.621 375.117C853.717 372.221 855.404 369.144 858.297 368.299C861.19 367.394 864.264 369.083 865.108 371.98L900.667 489.516C901.51 492.412 899.883 495.429 896.99 496.334Z" fill="#484A50"/>
<path d="M795.014 505.384C792.121 504.419 790.554 501.342 791.518 498.446L829.85 381.814C830.814 378.918 833.888 377.35 836.781 378.315C839.674 379.28 841.241 382.358 840.276 385.254L801.945 501.945C800.981 504.781 797.907 506.35 795.014 505.384Z" fill="#484A50"/>
<path d="M967.144 507.255C963.95 508.22 960.575 506.41 959.671 503.212L920.616 373.971C919.652 370.773 921.46 367.394 924.654 366.489C927.848 365.524 931.223 367.334 932.127 370.531L971.182 499.773C972.086 502.911 970.278 506.29 967.144 507.255Z" fill="#484A50"/>
<path d="M855.042 517.211C851.908 516.185 850.161 512.746 851.185 509.608L893.314 381.332C894.338 378.194 897.774 376.445 900.908 377.47C904.042 378.496 905.79 381.935 904.765 385.073L862.636 513.349C861.612 516.547 858.176 518.297 855.042 517.211Z" fill="#484A50"/>
<path d="M802.487 399.433C821.171 426.222 955.633 471.596 982.935 333.002C1002.58 233.265 914.227 222.947 887.95 272.665C861.732 322.322 764.939 345.673 802.487 399.433Z" fill="#7C95B3"/>
<path opacity="0.5" d="M806.224 390.262C823.22 414.396 945.447 455.184 970.278 330.588C988.118 240.928 907.778 231.636 883.912 276.346C860.045 321.055 772.111 341.932 806.224 390.262Z" fill="#484A50"/>
<path d="M796.942 286.784L788.505 293.904L786.697 295.231L760.178 252.995C759.937 252.573 759.937 252.03 760.178 251.607L760.54 251.064C760.901 250.461 761.504 249.978 762.167 249.677L770.725 246.237C771.087 246.056 771.569 246.237 771.75 246.599L796.942 286.784Z" fill="#CEE9F1"/>
<path d="M788.505 293.904L786.697 295.231L760.178 252.995C759.937 252.573 759.937 252.03 760.178 251.607C760.178 251.607 760.781 250.401 761.202 250.28C761.865 252.211 788.505 293.904 788.505 293.904Z" fill="#A9A9AC"/>
<path d="M722.208 436.6C722.208 436.6 716.302 446.797 712.083 445.832C707.864 444.866 694.062 439.074 689.301 440.1C684.539 441.126 677.97 450.055 683.093 452.831C688.276 455.546 727.09 468.458 730.525 467.855C733.961 467.251 742.338 447.944 742.338 447.944L722.208 436.6Z" fill="#F5A179"/>
<path d="M792.482 490.059C792.482 490.059 793.567 494.282 789.288 494.765C784.949 495.248 770.062 494.222 765.904 496.817C761.745 499.351 758.43 509.91 764.216 510.815C770.002 511.72 810.865 511.237 813.938 509.548C817.012 507.858 812.793 490.481 812.793 490.481L792.482 490.059Z" fill="#F5A179"/>
<path d="M769.038 381.694C769.038 381.694 771.147 482.397 772.714 491.568C774.221 500.679 819.061 498.929 821.05 490.602C822.979 482.276 816.229 398.468 817.193 396.537C818.097 394.546 784.226 362.749 769.038 381.694Z" fill="#9AA2B2"/>
<path d="M772.714 491.567C771.207 482.456 769.038 381.694 769.038 381.694C784.226 362.748 818.097 394.546 817.193 396.476C816.952 397.019 817.253 404.199 817.856 414.336C817.856 414.336 817.856 414.336 817.856 414.276C814.722 409.75 799.655 405.286 796.099 405.225C780.187 404.924 781.212 442.513 788.987 497.42C780.368 496.998 773.256 495.067 772.714 491.567Z" fill="#757F8E"/>
<path d="M842.024 281.233C842.024 281.233 832.261 297.282 824.727 293.542C811.95 287.146 808.032 251.607 789.168 250.34C769.881 249.073 775.185 256.555 778.44 256.193C782.237 255.831 784.045 258.486 784.346 264.278C784.527 267.898 792.603 267.476 793.085 271.881C794.291 282.138 802.186 302.592 805.26 307.902C811.709 318.943 829.97 327.33 844.073 312.548C857.212 298.791 865.108 288.594 865.108 288.594L842.024 281.233Z" fill="#F5A179"/>
<g opacity="0.4">
<path opacity="0.4" d="M850.462 283.948C848.955 288.353 846.605 292.455 843.049 295.834C835.455 302.954 823.16 303.738 813.697 300.601C806.465 298.248 801.222 293.421 797.063 287.568C799.896 296.136 803.452 304.764 805.26 307.902C811.709 318.943 829.97 327.33 844.073 312.548C857.212 298.791 865.108 288.594 865.108 288.594L850.462 283.948Z" fill="#F5A179"/>
</g>
<path d="M963.89 320.452C968.229 302.954 969.736 269.467 948.882 252.874C932.308 239.661 899.642 232.179 874.208 246.117C859.442 254.202 841.18 282.5 841.18 282.5L853.415 290.344L830.513 331.192L833.104 386.279C833.104 386.279 860.105 416.387 898.979 401.967C935.261 388.512 954.246 359.188 963.89 320.452Z" fill="#484A50"/>
<path opacity="0.4" d="M904.765 277.854C900.064 286.482 890.843 308.927 890.602 314.358C877.644 312.548 887.287 292.214 891.385 286.542C900.426 273.992 911.214 267.838 911.214 267.838C911.214 267.838 907.055 273.57 904.765 277.854Z" fill="url(#paint0_linear)"/>
<path opacity="0.4" d="M958.224 283.948C958.224 283.948 953.764 349.896 855.223 336.32C855.223 336.32 857.935 372.764 906.272 365.161C952.92 357.861 962.202 315.022 958.224 283.948Z" fill="url(#paint1_linear)"/>
<path d="M899.823 226.387L894.881 248.651C894.881 248.651 910.069 262.709 921.339 245.513L924.353 225.361C924.292 225.361 905.307 220.896 899.823 226.387Z" fill="#F5A179"/>
<path opacity="0.4" d="M901.269 236.342C900.184 235.678 899.1 235.075 897.954 234.592L899.763 226.387C905.247 220.896 924.292 225.361 924.292 225.361L921.279 245.513C918.748 249.375 916.035 251.668 913.323 252.874C911.154 246.237 907.598 240.264 901.269 236.342Z" fill="#F5A179"/>
<path d="M890.059 197.727C890.059 197.727 888.01 215.828 896.568 227.352C900.667 232.843 906.513 231.576 918.687 228.559C928.27 226.145 931.284 223.551 936.527 212.449C945.869 212.328 948.28 186.745 926.221 181.677C909.587 177.815 893.796 167.86 890.059 197.727Z" fill="#F5A179"/>
<path d="M914.468 395.028C914.468 396.416 867.579 419.344 834.732 404.501C801.885 389.658 782.9 380.125 778.138 382.599C773.377 385.073 759.334 450.659 755.959 457.115C752.524 463.511 721.786 443.117 713.167 432.015C713.167 432.015 739.566 358.404 758.37 341.751C770.665 330.83 810.865 327.632 852.391 336.441C892.47 352.611 914.709 379.099 914.468 395.028Z" fill="#9AA2B2"/>
<path d="M849.739 401.846C860.648 401.364 872.4 399.976 880.717 392.132C888.854 384.469 890.059 375.901 884.092 366.368C877.704 356.111 851.969 363.593 841 359.912C829.368 355.99 817.494 350.258 810.322 333.304C809.358 330.95 817.253 328.899 815.084 327.632C827.318 328.778 840.156 331.554 852.391 336.441C892.53 352.551 914.77 379.039 914.589 395.028C914.589 396.416 867.699 419.344 834.852 404.501C832.2 403.294 829.609 402.148 827.138 401.002C834.551 401.907 842.205 402.208 849.739 401.846Z" fill="#757F8E"/>
<path d="M767.109 415.965C762.348 434.187 757.707 453.736 755.899 457.055C754.573 459.589 748.968 457.96 742.157 454.339C749.811 441.186 759.756 429.3 767.109 415.965Z" fill="#757F8E"/>
<path d="M694.785 434.67C699.305 437.867 699.426 451.564 695.81 458.02C695.81 458.02 732.936 477.931 734.382 478.233C735.769 478.535 733.78 483.362 729.501 481.25C725.221 479.138 676.644 457.779 668.93 445.41C668.93 445.47 680.079 424.231 694.785 434.67Z" fill="#4B576E"/>
<path d="M761.685 490.843C767.169 491.447 773.98 503.333 773.919 510.754C773.919 510.754 816.048 510.03 817.434 509.608C818.82 509.186 819.423 514.375 814.662 514.616C809.9 514.857 757.044 519.865 744.327 512.806C744.327 512.866 743.785 488.852 761.685 490.843Z" fill="#4B576E"/>
<path d="M898.497 153.56C875.896 138.536 879.15 175.281 890.361 183.789C903.62 193.865 914.951 189.641 928.27 185.78C931.163 184.935 935.322 192.477 933.514 201.286C942.976 187.831 945.809 215.285 934.96 211.544C932.911 217.155 933.755 216.431 931.163 221.68C934.599 220.534 940.083 218.301 947.074 205.208C951.534 196.761 954.005 190.184 952.499 180.591C951.896 176.85 950.691 164.179 940.625 165.929C932.851 150.181 916.518 165.567 898.497 153.56Z" fill="#FFD366"/>
<path d="M893.374 305.609C893.374 305.609 916.035 321.659 938.215 320.452C938.215 320.452 893.434 356.835 854.259 354.783C812.251 352.551 794.049 305.73 789.891 304.704C785.793 303.678 768.917 295.593 769.881 282.319C770.846 269.045 784.406 290.042 786.938 286.663C789.469 283.284 790.494 276.285 793.748 282.802C797.003 289.318 798.088 293.723 802.427 297.705C816.53 310.738 863.601 346.759 893.374 305.609Z" fill="#F5A179"/>
<defs>
<linearGradient id="paint0_linear" x1="897.59" y1="314.356" x2="897.59" y2="267.864" gradientUnits="userSpaceOnUse">
<stop stop-color="#F7A734"/>
<stop offset="1" stop-color="#FFE091"/>
</linearGradient>
<linearGradient id="paint1_linear" x1="855.25" y1="325.062" x2="959.06" y2="325.062" gradientUnits="userSpaceOnUse">
<stop stop-color="#F7A734"/>
<stop offset="1" stop-color="#FFE091"/>
</linearGradient>
</defs>
</svg>
