<svg width="425" height="411" viewBox="0 0 425 411" fill="none" xmlns="http://www.w3.org/2000/svg">
<path d="M304.667 35.4393C236.787 19.404 181.302 33.5151 164.516 75.5596C147.693 117.732 161.528 160.707 100.583 178.057C50.6312 191.88 -7.98968 216.253 0.901219 284.531C9.34942 349.314 55.2058 361.244 113.937 363.874C176.432 366.696 243.427 320.9 301.605 343.253C355.615 364.002 416.56 368.621 424.565 308.649C429.251 273.531 394.646 261.793 388.08 234.437C378.967 196.53 397.192 182.323 402.689 156.987C416.302 94.0322 369.744 53.3026 304.667 35.4393Z" fill="#FAFAFA"/>
<g filter="url(#filter0_d)">
<path d="M249.326 375.26H114.579C99.6421 375.26 87.5028 363.122 87.5028 348.187V32.0729C87.5028 17.1379 99.6421 5 114.579 5H249.326C264.262 5 276.401 17.1379 276.401 32.0729V348.187C276.401 363.122 264.262 375.26 249.326 375.26Z" fill="#FAFAFA"/>
</g>
<path d="M249.326 10.119C261.412 10.119 271.229 19.9349 271.229 32.0201V348.134C271.229 360.219 261.412 370.035 249.326 370.035H114.579C102.492 370.035 92.6752 360.219 92.6752 348.134V32.0201C92.6752 19.9349 102.492 10.119 114.579 10.119H249.326ZM249.326 5H114.579C99.6421 5 87.5028 17.1379 87.5028 32.0729V348.187C87.5028 363.122 99.6421 375.26 114.579 375.26H249.326C264.262 375.26 276.401 363.122 276.401 348.187V32.0729C276.401 17.1379 264.262 5 249.326 5Z" fill="#FFE178"/>
<path d="M216.233 23.6292H147.672C143.344 23.6292 139.807 20.0933 139.807 15.7659V5.94995H224.15V15.7659C224.097 20.0933 220.613 23.6292 216.233 23.6292Z" fill="#FFE178"/>
<path d="M215.652 334.572H119.329C115.159 334.572 111.781 331.194 111.781 327.025V246.598C111.781 242.429 115.159 239.051 119.329 239.051H215.652C219.822 239.051 223.199 242.429 223.199 246.598V327.025C223.147 331.194 219.769 334.572 215.652 334.572Z" fill="#E4E7EA"/>
<path d="M152.475 280.531H130.36C128.724 280.531 127.352 279.212 127.352 277.523V255.411C127.352 253.775 128.671 252.403 130.36 252.403H152.475C154.111 252.403 155.483 253.722 155.483 255.411V277.523C155.483 279.212 154.164 280.531 152.475 280.531Z" fill="white"/>
<path d="M165.089 261.322H190.529" stroke="#010202" stroke-width="1.3" stroke-miterlimit="10" stroke-linecap="round" stroke-linejoin="round"/>
<path d="M165.089 270.346H206.099" stroke="#010202" stroke-width="1.3" stroke-miterlimit="10" stroke-linecap="round" stroke-linejoin="round"/>
<path d="M127.352 292.247H155.483" stroke="white" stroke-width="1.3" stroke-miterlimit="10" stroke-linecap="round" stroke-linejoin="round"/>
<path d="M127.352 301.588H206.099" stroke="white" stroke-width="1.3" stroke-miterlimit="10" stroke-linecap="round" stroke-linejoin="round"/>
<path d="M127.352 311.879H206.099" stroke="white" stroke-width="1.3" stroke-miterlimit="10" stroke-linecap="round" stroke-linejoin="round"/>
<path d="M136.219 218.786H60.6907C57.9462 218.786 55.7822 216.569 55.7822 213.878V161.263C55.7822 158.519 57.999 156.355 60.6907 156.355H136.219C138.963 156.355 141.127 158.571 141.127 161.263V213.878C141.18 216.622 138.963 218.786 136.219 218.786Z" fill="#4B576E"/>
<path d="M111.623 182.478C111.623 175.037 105.606 168.968 98.1116 168.968C90.6696 168.968 84.6 174.984 84.6 182.478C84.6 184.958 85.2861 187.28 86.4473 189.286L86.5 189.338C87.0278 190.235 87.6084 191.027 88.2946 191.766L98.0588 204.695L107.823 191.766C108.509 191.027 109.143 190.235 109.67 189.338L109.723 189.286C110.937 187.28 111.623 184.958 111.623 182.478ZM98.1644 188.336C94.892 188.336 92.253 185.697 92.253 182.425C92.253 179.153 94.892 176.514 98.1644 176.514C101.437 176.514 104.076 179.153 104.076 182.425C104.076 185.697 101.437 188.336 98.1644 188.336Z" fill="white"/>
<path d="M247.056 147.119H116.796C112.626 147.119 109.248 143.742 109.248 139.573V59.1986C109.248 55.0295 112.626 51.6519 116.796 51.6519H247.056C251.226 51.6519 254.604 55.0295 254.604 59.1986V139.625C254.604 143.742 251.226 147.119 247.056 147.119Z" fill="white"/>
<path d="M143.238 99.0426H123.868C122.443 99.0426 121.229 97.8815 121.229 96.4039V76.9834C121.229 75.5585 122.39 74.3447 123.868 74.3447H143.291C144.716 74.3447 145.93 75.5057 145.93 76.9834V96.4039C145.877 97.8815 144.716 99.0426 143.238 99.0426Z" fill="#E4E7EA"/>
<path d="M174.642 99.0426H155.219C153.794 99.0426 152.58 97.8815 152.58 96.4039V76.9834C152.58 75.5585 153.741 74.3447 155.219 74.3447H174.642C176.067 74.3447 177.281 75.5057 177.281 76.9834V96.4039C177.281 97.8815 176.12 99.0426 174.642 99.0426Z" fill="#E4E7EA"/>
<path d="M206.099 99.0426H186.676C185.251 99.0426 184.037 97.8815 184.037 96.4039V76.9834C184.037 75.5585 185.198 74.3447 186.676 74.3447H206.099C207.524 74.3447 208.738 75.5057 208.738 76.9834V96.4039C208.685 97.8815 207.524 99.0426 206.099 99.0426Z" fill="#E4E7EA"/>
<path d="M237.503 99.0426H218.08C216.655 99.0426 215.441 97.8815 215.441 96.4039V76.9834C215.441 75.5585 216.602 74.3447 218.08 74.3447H237.503C238.928 74.3447 240.142 75.5057 240.142 76.9834V96.4039C240.142 97.8815 238.928 99.0426 237.503 99.0426Z" fill="#FDE1B9"/>
<path d="M143.238 132.343H123.868C122.443 132.343 121.229 131.182 121.229 129.704V110.283C121.229 108.859 122.39 107.645 123.868 107.645H143.291C144.716 107.645 145.93 108.806 145.93 110.283V129.704C145.877 131.129 144.716 132.343 143.238 132.343Z" fill="#E4E7EA"/>
<path d="M174.642 132.343H155.219C153.794 132.343 152.58 131.182 152.58 129.704V110.283C152.58 108.859 153.741 107.645 155.219 107.645H174.642C176.067 107.645 177.281 108.806 177.281 110.283V129.704C177.281 131.129 176.12 132.343 174.642 132.343Z" fill="#E4E7EA"/>
<path d="M206.099 132.343H186.676C185.251 132.343 184.037 131.182 184.037 129.704V110.283C184.037 108.859 185.198 107.645 186.676 107.645H206.099C207.524 107.645 208.738 108.806 208.738 110.283V129.704C208.685 131.129 207.524 132.343 206.099 132.343Z" fill="#E4E7EA"/>
<path d="M237.503 132.343H218.08C216.655 132.343 215.441 131.182 215.441 129.704V110.283C215.441 108.859 216.602 107.645 218.08 107.645H237.503C238.928 107.645 240.142 108.806 240.142 110.283V129.704C240.142 131.129 238.928 132.343 237.503 132.343Z" fill="#E4E7EA"/>
<path d="M122.179 68.3284V61.2566H122.971C123.182 61.2566 123.287 61.3622 123.34 61.5205L123.446 62.2066C123.71 61.8899 123.974 61.6261 124.29 61.4677C124.607 61.2566 124.976 61.1511 125.399 61.1511C125.874 61.1511 126.243 61.2566 126.56 61.5205C126.876 61.7844 127.088 62.1538 127.193 62.576C127.299 62.3121 127.404 62.101 127.615 61.9427C127.827 61.7844 127.985 61.6261 128.143 61.5205C128.354 61.415 128.565 61.3094 128.777 61.2566C128.988 61.2039 129.252 61.1511 129.463 61.1511C129.832 61.1511 130.202 61.2039 130.465 61.3094C130.782 61.415 130.993 61.6261 131.204 61.8372C131.416 62.0483 131.574 62.3649 131.679 62.6816C131.785 62.9982 131.838 63.4204 131.838 63.8426V68.3812H130.465V63.8426C130.465 63.3148 130.36 62.8926 130.096 62.6288C129.832 62.3649 129.515 62.2066 129.093 62.2066C128.882 62.2066 128.724 62.2594 128.513 62.3121C128.354 62.3649 128.196 62.4705 128.038 62.6288C127.879 62.7871 127.827 62.9454 127.721 63.1565C127.668 63.3676 127.615 63.5787 127.615 63.8426V68.3812H126.243V63.8426C126.243 63.3148 126.138 62.8926 125.926 62.6288C125.715 62.3649 125.399 62.2594 124.976 62.2594C124.66 62.2594 124.396 62.3121 124.185 62.4705C123.921 62.6288 123.71 62.8399 123.499 63.1037V68.3812H122.179V68.3284Z" fill="#4B576E"/>
<path d="M137.432 61.1511C137.96 61.1511 138.435 61.2566 138.857 61.415C139.28 61.5733 139.649 61.8372 139.913 62.1538C140.23 62.4704 140.441 62.8399 140.599 63.3148C140.758 63.7898 140.863 64.2647 140.863 64.8453C140.863 65.4258 140.758 65.9007 140.599 66.3757C140.441 66.8507 140.23 67.2201 139.913 67.5367C139.596 67.8534 139.28 68.1172 138.857 68.2756C138.435 68.4339 137.96 68.5394 137.432 68.5394C136.905 68.5394 136.43 68.4339 136.007 68.2756C135.585 68.1172 135.216 67.8534 134.952 67.5367C134.635 67.2201 134.424 66.8507 134.266 66.3757C134.107 65.9007 134.002 65.4258 134.002 64.8453C134.002 64.2647 134.107 63.7898 134.266 63.3148C134.424 62.8399 134.635 62.4704 134.952 62.1538C135.268 61.8372 135.585 61.5733 136.007 61.415C136.43 61.2566 136.905 61.1511 137.432 61.1511ZM137.432 67.3784C138.119 67.3784 138.594 67.1673 138.91 66.6923C139.227 66.2174 139.385 65.5841 139.385 64.7925C139.385 64.0009 139.227 63.3148 138.91 62.8926C138.594 62.4177 138.066 62.2066 137.432 62.2066C136.746 62.2066 136.271 62.4177 135.902 62.8926C135.585 63.3676 135.427 64.0009 135.427 64.7925C135.427 65.5841 135.585 66.2702 135.902 66.6923C136.271 67.1673 136.746 67.3784 137.432 67.3784Z" fill="#4B576E"/>
<path d="M144.347 62.2593C144.505 62.101 144.663 61.9427 144.822 61.8372C144.98 61.6788 145.191 61.5733 145.349 61.4677C145.56 61.3622 145.719 61.3094 145.983 61.2566C146.247 61.2039 146.405 61.1511 146.669 61.1511C147.038 61.1511 147.408 61.2039 147.724 61.3622C148.041 61.4677 148.252 61.6788 148.463 61.8899C148.674 62.101 148.833 62.4177 148.938 62.7343C149.044 63.051 149.097 63.4204 149.097 63.8426V68.3811H147.724V63.8426C147.724 63.3148 147.619 62.9454 147.355 62.6815C147.144 62.4177 146.774 62.2593 146.299 62.2593C145.93 62.2593 145.613 62.3649 145.297 62.5232C144.98 62.6815 144.716 62.8926 144.452 63.2093V68.4339H143.08V61.3622H143.872C144.083 61.3622 144.188 61.4677 144.241 61.6261L144.347 62.2593Z" fill="#4B576E"/>
<path d="M153.689 68.4862C153.108 68.4862 152.686 68.3279 152.369 68.0112C152.052 67.6946 151.894 67.2196 151.894 66.6391V62.4173H151.05C150.997 62.4173 150.891 62.4173 150.838 62.3645C150.786 62.3117 150.733 62.259 150.733 62.1534V61.6257L151.894 61.4674L152.211 59.3565C152.211 59.3037 152.264 59.1981 152.316 59.1454C152.369 59.0926 152.422 59.0926 152.527 59.0926H153.214V61.4674H155.219V62.4701H153.214V66.6391C153.214 66.903 153.266 67.1141 153.425 67.2724C153.583 67.4307 153.741 67.4835 153.952 67.4835C154.058 67.4835 154.164 67.4835 154.269 67.4307C154.375 67.378 154.428 67.378 154.48 67.3252C154.533 67.2724 154.586 67.2724 154.639 67.2196C154.691 67.1669 154.744 67.1669 154.744 67.1669C154.797 67.1669 154.85 67.1669 154.85 67.2196C154.85 67.2196 154.903 67.2724 154.955 67.3252L155.378 67.9585C155.166 68.1696 154.903 68.3279 154.586 68.4334C154.375 68.4334 154.058 68.4862 153.689 68.4862Z" fill="#4B576E"/>
<path d="M158.597 62.1538C158.914 61.8372 159.23 61.6261 159.6 61.415C159.969 61.2039 160.392 61.1511 160.867 61.1511C161.236 61.1511 161.605 61.2039 161.922 61.3622C162.239 61.5205 162.45 61.6788 162.661 61.8899C162.872 62.101 163.03 62.4177 163.136 62.7343C163.242 63.051 163.294 63.4204 163.294 63.8426V68.3811H161.869V63.8426C161.869 63.3148 161.764 62.9454 161.5 62.6815C161.289 62.4177 160.919 62.2594 160.444 62.2594C160.075 62.2594 159.758 62.3649 159.441 62.5232C159.125 62.6815 158.861 62.8926 158.597 63.2093V68.4339H157.225V58.143H158.597V62.1538Z" fill="#4B576E"/>
<path d="M249.642 218.786H164.456C161.711 218.786 159.547 216.569 159.547 213.878V161.263C159.547 158.519 161.764 156.355 164.456 156.355H249.642C252.387 156.355 254.551 158.571 254.551 161.263V213.878C254.604 216.622 252.387 218.786 249.642 218.786Z" fill="white"/>
<path d="M241.672 177.623H174.114C172.689 177.623 171.475 176.462 171.475 174.984V166.013C171.475 164.588 172.636 163.374 174.114 163.374H241.672C243.097 163.374 244.311 164.535 244.311 166.013V174.984C244.259 176.462 243.097 177.623 241.672 177.623Z" fill="#E4E7EA"/>
<path d="M172.425 186.911H205.624" stroke="#010202" stroke-width="1.3" stroke-miterlimit="10" stroke-linecap="round" stroke-linejoin="round"/>
<path d="M172.425 194.985H243.309" stroke="#010202" stroke-width="1.3" stroke-miterlimit="10" stroke-linecap="round" stroke-linejoin="round"/>
<path d="M172.425 203.904H243.309" stroke="#010202" stroke-width="1.3" stroke-miterlimit="10" stroke-linecap="round" stroke-linejoin="round"/>
<path d="M295.349 314.254H245.948C242.622 314.254 239.931 311.562 239.931 308.238V265.385C239.931 262.061 242.622 259.369 245.948 259.369H295.349C298.675 259.369 301.366 262.061 301.366 265.385V308.238C301.366 311.562 298.675 314.254 295.349 314.254Z" fill="#4B576E"/>
<path d="M282.841 284.436L280.835 284.067C280.624 283.17 280.254 282.325 279.779 281.534L280.941 279.845C281.363 279.212 281.31 278.367 280.782 277.84L279.568 276.626C279.041 276.098 278.196 276.045 277.563 276.468L275.874 277.629C275.082 277.154 274.238 276.837 273.34 276.573L272.971 274.515C272.865 273.776 272.232 273.248 271.493 273.248H269.751C269.012 273.248 268.326 273.776 268.221 274.515L267.851 276.52C266.954 276.731 266.109 277.101 265.318 277.576L263.629 276.468C262.995 276.045 262.151 276.098 261.623 276.626L260.409 277.84C259.881 278.367 259.829 279.212 260.251 279.845L261.412 281.534C260.937 282.325 260.62 283.17 260.356 284.067L258.351 284.436C257.612 284.542 257.084 285.228 257.084 285.967V287.656C257.084 288.394 257.612 289.081 258.351 289.186L260.356 289.556C260.568 290.453 260.937 291.297 261.412 292.089L260.251 293.777C259.829 294.411 259.881 295.255 260.409 295.783L261.623 296.997C262.151 297.524 262.995 297.577 263.629 297.155L265.318 295.994C266.109 296.469 266.954 296.786 267.851 297.049L268.221 299.055C268.326 299.794 269.012 300.321 269.751 300.321H271.493C272.232 300.321 272.918 299.794 273.024 299.055L273.393 297.049C274.29 296.838 275.135 296.469 275.927 295.994L277.563 297.155C278.196 297.577 279.041 297.524 279.568 296.997L280.782 295.783C281.31 295.255 281.363 294.411 280.941 293.777L279.779 292.089C280.254 291.297 280.571 290.453 280.835 289.556L282.841 289.186C283.58 289.081 284.107 288.394 284.107 287.656V285.967C284.107 285.175 283.58 284.542 282.841 284.436ZM270.649 292.141C267.693 292.141 265.318 289.767 265.318 286.758C265.318 283.803 267.693 281.428 270.701 281.428C273.657 281.428 276.085 283.803 276.085 286.811C276.085 286.811 276.085 286.811 276.085 286.864C275.979 289.767 273.604 292.141 270.649 292.141Z" fill="white"/>
<defs>
<filter id="filter0_d" x="67.5028" y="0" width="228.899" height="410.26" filterUnits="userSpaceOnUse" color-interpolation-filters="sRGB">
<feFlood flood-opacity="0" result="BackgroundImageFix"/>
<feColorMatrix in="SourceAlpha" type="matrix" values="0 0 0 0 0 0 0 0 0 0 0 0 0 0 0 0 0 0 127 0"/>
<feOffset dy="15"/>
<feGaussianBlur stdDeviation="10"/>
<feColorMatrix type="matrix" values="0 0 0 0 0 0 0 0 0 0 0 0 0 0 0 0 0 0 0.05 0"/>
<feBlend mode="normal" in2="BackgroundImageFix" result="effect1_dropShadow"/>
<feBlend mode="normal" in="SourceGraphic" in2="effect1_dropShadow" result="shape"/>
</filter>
</defs>
</svg>
