<svg width="647" height="427" viewBox="0 0 647 427" fill="none" xmlns="http://www.w3.org/2000/svg">
<path d="M463.811 8.19153C360.473 -12.2072 276.005 5.74368 250.451 59.2291C224.841 112.878 245.902 167.546 153.122 189.618C77.0786 207.201 -12.1631 238.207 1.37197 325.065C14.2331 407.476 84.0427 422.652 173.453 425.998C268.592 429.588 370.582 371.329 459.15 399.765C541.371 426.161 634.151 432.036 646.339 355.745C653.471 311.071 600.791 296.14 590.794 261.339C576.922 213.117 604.666 195.044 613.034 162.814C633.758 82.7284 562.882 30.9157 463.811 8.19153Z" fill="white"/>
<path d="M463.811 8.19153C360.473 -12.2072 276.005 5.74368 250.451 59.2291C224.841 112.878 245.902 167.546 153.122 189.618C77.0786 207.201 -12.1631 238.207 1.37197 325.065C14.2331 407.476 84.0427 422.652 173.453 425.998C268.592 429.588 370.582 371.329 459.15 399.765C541.371 426.161 634.151 432.036 646.339 355.745C653.471 311.071 600.791 296.14 590.794 261.339C576.922 213.117 604.666 195.044 613.034 162.814C633.758 82.7284 562.882 30.9157 463.811 8.19153Z" fill="white" fill-opacity="0.1"/>
<path d="M463.811 8.19153C360.473 -12.2072 276.005 5.74368 250.451 59.2291C224.841 112.878 245.902 167.546 153.122 189.618C77.0786 207.201 -12.1631 238.207 1.37197 325.065C14.2331 407.476 84.0427 422.652 173.453 425.998C268.592 429.588 370.582 371.329 459.15 399.765C541.371 426.161 634.151 432.036 646.339 355.745C653.471 311.071 600.791 296.14 590.794 261.339C576.922 213.117 604.666 195.044 613.034 162.814C633.758 82.7284 562.882 30.9157 463.811 8.19153Z" fill="white" fill-opacity="0.1"/>
<path d="M463.811 8.19153C360.473 -12.2072 276.005 5.74368 250.451 59.2291C224.841 112.878 245.902 167.546 153.122 189.618C77.0786 207.201 -12.1631 238.207 1.37197 325.065C14.2331 407.476 84.0427 422.652 173.453 425.998C268.592 429.588 370.582 371.329 459.15 399.765C541.371 426.161 634.151 432.036 646.339 355.745C653.471 311.071 600.791 296.14 590.794 261.339C576.922 213.117 604.666 195.044 613.034 162.814C633.758 82.7284 562.882 30.9157 463.811 8.19153Z" fill="white" fill-opacity="0.1"/>
</svg>
