<svg width="444" height="293" viewBox="0 0 444 293" fill="none" xmlns="http://www.w3.org/2000/svg">
<path d="M318.139 5.88905C247.335 -8.08746 189.46 4.21187 171.951 40.8583C154.404 77.6165 168.835 115.074 105.265 130.196C53.1623 142.244 -7.98318 163.488 1.29062 223C10.1026 279.465 57.9339 289.864 119.195 292.156C184.381 294.616 254.261 254.699 314.945 274.182C371.28 292.268 434.85 296.293 443.2 244.021C448.087 213.412 411.993 203.182 405.143 179.338C395.638 146.297 414.648 133.914 420.381 111.831C434.581 56.9592 386.018 21.4589 318.139 5.88905Z" fill="white"/>
<path d="M318.139 5.88905C247.335 -8.08746 189.46 4.21187 171.951 40.8583C154.404 77.6165 168.835 115.074 105.265 130.196C53.1623 142.244 -7.98318 163.488 1.29062 223C10.1026 279.465 57.9339 289.864 119.195 292.156C184.381 294.616 254.261 254.699 314.945 274.182C371.28 292.268 434.85 296.293 443.2 244.021C448.087 213.412 411.993 203.182 405.143 179.338C395.638 146.297 414.648 133.914 420.381 111.831C434.581 56.9592 386.018 21.4589 318.139 5.88905Z" fill="white" fill-opacity="0.1"/>
<path d="M318.139 5.88905C247.335 -8.08746 189.46 4.21187 171.951 40.8583C154.404 77.6165 168.835 115.074 105.265 130.196C53.1623 142.244 -7.98318 163.488 1.29062 223C10.1026 279.465 57.9339 289.864 119.195 292.156C184.381 294.616 254.261 254.699 314.945 274.182C371.28 292.268 434.85 296.293 443.2 244.021C448.087 213.412 411.993 203.182 405.143 179.338C395.638 146.297 414.648 133.914 420.381 111.831C434.581 56.9592 386.018 21.4589 318.139 5.88905Z" fill="white" fill-opacity="0.1"/>
<path d="M318.139 5.88905C247.335 -8.08746 189.46 4.21187 171.951 40.8583C154.404 77.6165 168.835 115.074 105.265 130.196C53.1623 142.244 -7.98318 163.488 1.29062 223C10.1026 279.465 57.9339 289.864 119.195 292.156C184.381 294.616 254.261 254.699 314.945 274.182C371.28 292.268 434.85 296.293 443.2 244.021C448.087 213.412 411.993 203.182 405.143 179.338C395.638 146.297 414.648 133.914 420.381 111.831C434.581 56.9592 386.018 21.4589 318.139 5.88905Z" fill="white" fill-opacity="0.1"/>
</svg>
