<svg width="523" height="406" viewBox="0 0 523 406" fill="none" xmlns="http://www.w3.org/2000/svg">
<path d="M324.023 59.7281C251.83 45.4639 192.82 58.0164 174.967 95.4172C157.076 132.932 171.789 171.16 106.973 186.594C53.8478 198.89 -8.49726 220.572 0.958473 281.309C9.94338 338.936 58.713 349.549 121.176 351.888C187.641 354.399 258.892 313.66 320.766 333.544C378.207 352.002 443.024 356.11 451.538 302.762C456.521 271.523 419.718 261.082 412.734 236.747C403.043 203.027 422.425 190.388 428.271 167.851C442.749 111.85 393.234 75.6185 324.023 59.7281Z" fill="white"/>
<path d="M324.023 59.7281C251.83 45.4639 192.82 58.0164 174.967 95.4172C157.076 132.932 171.789 171.16 106.973 186.594C53.8478 198.89 -8.49726 220.572 0.958473 281.309C9.94338 338.936 58.713 349.549 121.176 351.888C187.641 354.399 258.892 313.66 320.766 333.544C378.207 352.002 443.024 356.11 451.538 302.762C456.521 271.523 419.718 261.082 412.734 236.747C403.043 203.027 422.425 190.388 428.271 167.851C442.749 111.85 393.234 75.6185 324.023 59.7281Z" fill="white" fill-opacity="0.1"/>
<path d="M324.023 59.7281C251.83 45.4639 192.82 58.0164 174.967 95.4172C157.076 132.932 171.789 171.16 106.973 186.594C53.8478 198.89 -8.49726 220.572 0.958473 281.309C9.94338 338.936 58.713 349.549 121.176 351.888C187.641 354.399 258.892 313.66 320.766 333.544C378.207 352.002 443.024 356.11 451.538 302.762C456.521 271.523 419.718 261.082 412.734 236.747C403.043 203.027 422.425 190.388 428.271 167.851C442.749 111.85 393.234 75.6185 324.023 59.7281Z" fill="white" fill-opacity="0.1"/>
<path d="M324.023 59.7281C251.83 45.4639 192.82 58.0164 174.967 95.4172C157.076 132.932 171.789 171.16 106.973 186.594C53.8478 198.89 -8.49726 220.572 0.958473 281.309C9.94338 338.936 58.713 349.549 121.176 351.888C187.641 354.399 258.892 313.66 320.766 333.544C378.207 352.002 443.024 356.11 451.538 302.762C456.521 271.523 419.718 261.082 412.734 236.747C403.043 203.027 422.425 190.388 428.271 167.851C442.749 111.85 393.234 75.6185 324.023 59.7281Z" fill="white" fill-opacity="0.1"/>
<g filter="url(#filter0_d)">
<path d="M210.82 135.611L208.448 135.794L206.495 107.99L208.866 107.807C210.236 107.674 211.415 108.718 211.548 110.089L213.18 132.868C213.232 134.297 212.259 135.489 210.82 135.611Z" fill="white"/>
<path d="M213.364 170.258L210.992 170.442L209.039 142.638L211.41 142.455C212.78 142.322 213.959 143.366 214.092 144.737L215.724 167.516C215.707 168.934 214.733 170.125 213.364 170.258Z" fill="white"/>
<path d="M467.876 63.6641L484.926 300.883C485.858 313.961 475.994 325.359 462.93 326.294L251.517 341.503" stroke="white" stroke-width="1.5" stroke-miterlimit="10" stroke-linecap="round" stroke-linejoin="round"/>
<path d="M60.5261 120.395L75.6031 330.37C76.2269 338.781 83.4389 345.064 91.8412 344.439L461.96 317.83C470.363 317.205 476.652 309.915 476.017 301.573L460.94 91.5987L60.5261 120.395Z" fill="#FDFDFD" stroke="#CFCFCF" stroke-miterlimit="10"/>
<path d="M462.88 108.1L460.613 76.5543C460.097 69.2267 453.683 63.7121 446.363 64.2291L71.0018 91.2633C63.6814 91.7803 58.1023 98.1903 58.6178 105.518L60.8852 137.063L462.88 108.1Z" fill="#CFCFCF"/>
<path d="M230.263 108.435L229.699 100.531L226.252 107.358L225.25 107.409L220.859 101.228L221.435 109.063L219.351 109.222L218.516 97.2966L220.312 97.1618L225.607 104.768L229.716 96.4858L231.511 96.351L232.416 108.287L230.263 108.435Z" fill="white"/>
<path d="M241.286 106.955C240.294 106.51 239.485 105.811 238.848 104.926C238.211 104.041 237.884 102.994 237.786 101.842C237.689 100.69 237.938 99.5938 238.382 98.6006C238.896 97.6187 239.595 96.8088 240.537 96.2513C241.49 95.6247 242.536 95.2973 243.756 95.2112C244.976 95.125 246.082 95.3045 247.144 95.7608C248.136 96.2058 248.945 96.9053 249.582 97.7899C250.219 98.6745 250.546 99.7219 250.643 100.874C250.741 102.026 250.492 103.122 250.047 104.115C249.534 105.097 248.835 105.907 247.893 106.465C246.94 107.091 245.894 107.419 244.674 107.505C243.373 107.649 242.267 107.469 241.286 106.955ZM246.585 104.903C247.217 104.508 247.663 103.942 247.983 103.283C248.302 102.625 248.426 101.864 248.341 101.069C248.257 100.274 248.024 99.5257 247.618 98.9627C247.224 98.3306 246.658 97.8836 246 97.5639C245.343 97.2441 244.582 97.1207 243.788 97.2049C242.994 97.2892 242.327 97.465 241.684 97.9289C241.052 98.3236 240.606 98.8904 240.286 99.5488C239.967 100.207 239.844 100.968 239.928 101.763C240.012 102.558 240.245 103.306 240.651 103.869C241.056 104.432 241.611 104.948 242.269 105.268C242.927 105.588 243.687 105.711 244.481 105.627C245.275 105.543 245.954 105.298 246.585 104.903Z" fill="white"/>
<path d="M266.547 93.7937L267.382 105.719L265.587 105.854L258.449 98.2327L259.049 106.356L256.827 106.492L255.992 94.567L257.788 94.4322L264.925 102.053L264.325 93.9304L266.547 93.7937Z" fill="white"/>
<path d="M275.717 94.9959L271.769 95.2787L271.645 93.4121L281.763 92.7099L281.887 94.5765L277.939 94.8592L278.651 104.918L276.429 105.055L275.717 94.9959Z" fill="white"/>
<path d="M297.486 91.5663L298.321 103.492L296.099 103.628L295.72 98.5242L289.55 98.9436L289.929 104.048L287.708 104.184L286.873 92.2592L289.094 92.1225L289.427 97.077L295.597 96.6576L295.264 91.703L297.486 91.5663Z" fill="white"/>
<path d="M338.021 274.856L308.946 276.956C306.218 277.153 303.848 275.135 303.721 272.415L302.934 261.067C302.738 258.337 304.754 255.965 307.471 255.838L336.546 253.737C339.274 253.541 341.643 255.559 341.771 258.278L342.557 269.626C342.765 272.287 340.749 274.659 338.021 274.856Z" fill="#FFCA43"/>
<path d="M97.0778 181.231C96.6275 180.945 96.1884 180.589 95.9211 180.049C95.6539 179.508 95.4782 178.841 95.3829 178.115C95.2988 177.32 95.3997 176.697 95.6388 176.097C95.878 175.496 96.1638 175.046 96.6347 174.767C97.0477 174.408 97.5653 174.279 98.1408 174.23C98.7163 174.181 99.2694 174.271 99.7198 174.557C100.17 174.844 100.609 175.199 100.876 175.739C101.144 176.28 101.319 176.948 101.415 177.673C101.51 178.399 101.398 179.091 101.159 179.691C100.92 180.292 100.634 180.743 100.163 181.021C99.75 181.38 99.2324 181.509 98.6568 181.558C98.0122 181.596 97.5282 181.517 97.0778 181.231ZM99.6733 179.663C99.9592 179.213 100.06 178.59 99.9871 177.726C99.9142 176.862 99.7273 176.263 99.4377 175.861C99.0789 175.448 98.6865 175.242 98.1801 175.302C97.6737 175.362 97.2832 175.582 96.9973 176.033C96.7114 176.484 96.6105 177.107 96.6834 177.971C96.7563 178.835 96.9432 179.434 97.2329 179.836C97.5917 180.249 97.9841 180.455 98.4905 180.395C99.066 180.346 99.4565 180.125 99.6733 179.663Z" fill="#CFCFCF"/>
<path d="M105.45 173.783L105.988 180.973L104.63 181.036L104.188 174.999L102.68 175.109L102.583 173.957L105.45 173.783Z" fill="#CFCFCF"/>
<path d="M149.194 177.466C148.744 177.18 148.305 176.825 148.038 176.284C147.77 175.744 147.595 175.076 147.499 174.35C147.415 173.555 147.516 172.932 147.755 172.332C147.994 171.732 148.28 171.281 148.751 171.002C149.164 170.643 149.682 170.514 150.257 170.465C150.833 170.417 151.386 170.506 151.836 170.793C152.287 171.079 152.726 171.434 152.993 171.975C153.26 172.515 153.436 173.183 153.531 173.908C153.615 174.703 153.514 175.326 153.275 175.927C153.036 176.527 152.75 176.978 152.279 177.256C151.866 177.616 151.349 177.745 150.773 177.793C150.198 177.842 149.645 177.752 149.194 177.466ZM151.859 175.91C152.145 175.459 152.246 174.836 152.173 173.972C152.1 173.108 151.913 172.51 151.623 172.107C151.264 171.694 150.872 171.488 150.366 171.548C149.859 171.608 149.469 171.829 149.183 172.28C148.897 172.73 148.796 173.353 148.869 174.217C148.942 175.081 149.129 175.68 149.418 176.082C149.777 176.495 150.17 176.701 150.676 176.641C151.182 176.581 151.573 176.361 151.859 175.91Z" fill="#CFCFCF"/>
<path d="M160.735 175.859L160.833 177.011L155.526 177.357L155.453 176.493L158.123 173.589C158.387 173.276 158.65 172.964 158.684 172.756C158.798 172.491 158.831 172.283 158.796 172.064C158.783 171.707 158.609 171.466 158.424 171.294C158.17 171.11 157.824 171.054 157.387 171.125C156.673 171.152 156.122 171.488 155.756 171.997L154.797 171.344C155.072 170.963 155.404 170.662 155.875 170.383C156.335 170.173 156.864 169.975 157.439 169.927C158.233 169.842 158.844 170.013 159.352 170.379C159.861 170.746 160.139 171.217 160.177 171.862C160.19 172.219 160.122 172.635 159.997 172.969C159.872 173.304 159.586 173.755 159.162 174.183L157.351 176.162L160.735 175.859Z" fill="#CFCFCF"/>
<path d="M210.853 173.047C210.403 172.761 209.963 172.406 209.696 171.865C209.429 171.325 209.253 170.657 209.158 169.932C209.074 169.137 209.175 168.514 209.414 167.914C209.653 167.313 209.939 166.862 210.41 166.584C210.823 166.225 211.34 166.096 211.916 166.047C212.491 165.998 213.044 166.088 213.495 166.374C213.945 166.66 214.384 167.016 214.651 167.556C214.919 168.097 215.094 168.764 215.19 169.49C215.274 170.285 215.173 170.908 214.934 171.508C214.695 172.108 214.409 172.559 213.938 172.838C213.525 173.197 213.007 173.326 212.432 173.375C211.787 173.412 211.314 173.264 210.853 173.047ZM213.448 171.48C213.734 171.029 213.835 170.406 213.762 169.542C213.689 168.678 213.502 168.08 213.213 167.678C212.854 167.264 212.461 167.059 211.955 167.119C211.449 167.179 211.058 167.399 210.772 167.85C210.486 168.301 210.385 168.923 210.458 169.788C210.531 170.652 210.718 171.25 211.008 171.652C211.367 172.065 211.759 172.271 212.265 172.211C212.841 172.163 213.232 171.942 213.448 171.48Z" fill="#CFCFCF"/>
<path d="M221.508 169.023C221.878 169.368 222.087 169.828 222.136 170.404C222.138 170.83 222.082 171.176 221.876 171.569C221.682 171.893 221.419 172.205 220.959 172.414C220.568 172.635 220.051 172.764 219.406 172.802C218.9 172.862 218.416 172.783 217.932 172.704C217.448 172.626 217.055 172.42 216.663 172.214L217.188 171.163C217.442 171.347 217.765 171.541 218.18 171.608C218.584 171.745 218.941 171.732 219.367 171.73C219.873 171.67 220.172 171.577 220.424 171.333C220.677 171.09 220.791 170.825 220.766 170.537C220.742 170.249 220.579 169.938 220.325 169.755C220.071 169.572 219.656 169.504 219.15 169.564L218.505 169.602L218.444 168.668L219.908 166.633L216.674 166.89L216.577 165.738L221.457 165.393L221.53 166.257L219.963 168.489C220.596 168.52 221.138 168.679 221.508 169.023Z" fill="#CFCFCF"/>
<path d="M255.361 169.825C254.911 169.538 254.472 169.183 254.204 168.643C253.937 168.102 253.762 167.434 253.666 166.709C253.582 165.914 253.683 165.291 253.922 164.691C254.161 164.09 254.447 163.64 254.918 163.361C255.331 163.002 255.848 162.873 256.424 162.824C256.999 162.775 257.553 162.865 258.003 163.151C258.453 163.437 258.892 163.793 259.16 164.333C259.427 164.874 259.603 165.541 259.698 166.267C259.793 166.993 259.681 167.685 259.442 168.285C259.203 168.885 258.917 169.336 258.446 169.615C258.033 169.974 257.516 170.103 256.94 170.152C256.365 170.2 255.881 170.122 255.361 169.825ZM258.026 168.268C258.312 167.818 258.412 167.195 258.339 166.331C258.267 165.467 258.08 164.868 257.79 164.466C257.431 164.053 257.039 163.847 256.532 163.907C256.026 163.967 255.636 164.187 255.35 164.638C255.064 165.089 254.963 165.712 255.036 166.576C255.109 167.44 255.296 168.038 255.585 168.44C255.944 168.854 256.336 169.06 256.843 169C257.349 168.94 257.74 168.719 258.026 168.268Z" fill="#CFCFCF"/>
<path d="M268.132 167.635L266.843 167.71L266.931 169.357L265.641 169.432L265.553 167.784L261.605 168.067L261.543 167.134L264.746 162.256L266.185 162.134L263.165 166.758L265.536 166.574L265.415 165.134L266.635 165.048L266.757 166.488L268.046 166.413L268.132 167.635Z" fill="#CFCFCF"/>
<path d="M309.63 165.912C309.18 165.626 308.741 165.27 308.474 164.73C308.206 164.189 308.031 163.522 307.935 162.796C307.851 162.001 307.952 161.378 308.191 160.778C308.43 160.178 308.716 159.727 309.187 159.448C309.6 159.089 310.118 158.96 310.693 158.911C311.269 158.863 311.822 158.952 312.272 159.238C312.722 159.525 313.161 159.88 313.429 160.42C313.696 160.961 313.872 161.629 313.967 162.354C314.051 163.149 313.95 163.772 313.711 164.372C313.472 164.973 313.186 165.424 312.715 165.702C312.302 166.061 311.785 166.19 311.209 166.239C310.634 166.288 310.15 166.209 309.63 165.912ZM312.295 164.356C312.581 163.905 312.681 163.282 312.609 162.418C312.536 161.554 312.349 160.955 312.059 160.553C311.7 160.14 311.308 159.934 310.801 159.994C310.295 160.054 309.905 160.275 309.619 160.725C309.333 161.176 309.232 161.799 309.305 162.663C309.378 163.527 309.565 164.126 309.854 164.528C310.213 164.941 310.606 165.147 311.112 165.087C311.687 165.038 312.009 164.806 312.295 164.356Z" fill="#CFCFCF"/>
<path d="M320.319 161.68C320.827 162.047 321.106 162.518 321.132 163.232C321.134 163.659 321.067 164.074 320.872 164.398C320.667 164.79 320.414 165.034 319.944 165.312C319.553 165.533 319.035 165.662 318.391 165.699C317.884 165.759 317.4 165.681 316.916 165.602C316.432 165.524 316.04 165.318 315.648 165.112L316.104 164.05C316.358 164.233 316.681 164.428 317.096 164.495C317.499 164.632 317.856 164.618 318.282 164.617C318.789 164.557 319.088 164.463 319.34 164.22C319.592 163.977 319.706 163.711 319.693 163.354C319.68 162.997 319.517 162.686 319.183 162.561C318.86 162.367 318.364 162.357 317.651 162.383L315.924 162.529L315.999 158.564L320.235 158.257L320.332 159.41L317.247 159.619L317.185 161.314L317.899 161.287C319.05 161.19 319.811 161.314 320.319 161.68Z" fill="#CFCFCF"/>
<path d="M371.507 161.457C371.057 161.171 370.618 160.816 370.35 160.275C370.083 159.735 369.907 159.067 369.812 158.341C369.728 157.546 369.829 156.924 370.068 156.323C370.307 155.723 370.593 155.272 371.064 154.993C371.477 154.634 371.994 154.505 372.57 154.457C373.146 154.408 373.699 154.498 374.149 154.784C374.599 155.07 375.038 155.425 375.306 155.966C375.573 156.506 375.749 157.174 375.844 157.9C375.928 158.695 375.827 159.317 375.588 159.918C375.349 160.518 375.063 160.969 374.592 161.248C374.179 161.607 373.662 161.736 373.086 161.784C372.511 161.833 371.957 161.743 371.507 161.457ZM374.172 159.901C374.458 159.45 374.558 158.827 374.485 157.963C374.413 157.099 374.226 156.501 373.936 156.099C373.577 155.685 373.185 155.48 372.678 155.539C372.172 155.599 371.782 155.82 371.496 156.271C371.21 156.722 371.109 157.344 371.182 158.208C371.255 159.073 371.442 159.671 371.731 160.073C372.09 160.486 372.482 160.692 372.989 160.632C373.495 160.572 373.886 160.352 374.172 159.901Z" fill="#CFCFCF"/>
<path d="M382.252 156.879C382.656 157.015 382.968 157.279 383.2 157.601C383.431 157.923 383.583 158.302 383.585 158.729C383.656 159.166 383.508 159.639 383.314 159.963C383.12 160.287 382.787 160.588 382.466 160.82C382.075 161.04 381.627 161.181 381.131 161.171C380.13 161.222 379.392 160.96 378.768 160.433C378.155 159.836 377.863 159.007 377.766 157.855C377.682 157.061 377.794 156.369 378.033 155.768C378.272 155.168 378.696 154.739 379.178 154.392C379.66 154.044 380.258 153.857 380.972 153.83C381.329 153.817 381.686 153.804 382.032 153.86C382.377 153.916 382.643 154.031 382.908 154.145L382.452 155.207C382.06 155.001 381.645 154.934 381.069 154.983C380.356 155.009 379.885 155.287 379.53 155.727C379.175 156.166 379.005 156.778 379.089 157.573C379.272 157.319 379.524 157.075 379.823 156.982C380.133 156.819 380.501 156.737 380.927 156.735C381.434 156.675 381.86 156.673 382.252 156.879ZM381.931 159.739C382.183 159.495 382.297 159.23 382.226 158.792C382.213 158.435 382.051 158.125 381.796 157.941C381.542 157.758 381.139 157.622 380.701 157.693C380.275 157.694 379.965 157.857 379.713 158.1C379.461 158.343 379.336 158.678 379.349 159.036C379.362 159.393 379.536 159.634 379.778 159.886C380.033 160.07 380.436 160.206 380.873 160.135C381.369 160.145 381.748 159.993 381.931 159.739Z" fill="#CFCFCF"/>
<path d="M424.843 157.606C424.393 157.319 423.954 156.964 423.687 156.424C423.42 155.883 423.244 155.215 423.149 154.49C423.064 153.695 423.165 153.072 423.404 152.472C423.644 151.871 423.929 151.42 424.4 151.142C424.813 150.783 425.331 150.653 425.906 150.605C426.482 150.556 427.035 150.646 427.485 150.932C427.936 151.218 428.375 151.573 428.642 152.114C428.909 152.655 429.085 153.322 429.18 154.048C429.264 154.843 429.164 155.466 428.924 156.066C428.685 156.666 428.399 157.117 427.929 157.396C427.516 157.755 426.998 157.884 426.422 157.933C425.847 157.981 425.294 157.892 424.843 157.606ZM427.508 156.049C427.794 155.599 427.895 154.976 427.822 154.112C427.749 153.247 427.562 152.649 427.272 152.247C426.914 151.834 426.521 151.628 426.015 151.688C425.508 151.748 425.118 151.968 424.832 152.419C424.546 152.87 424.445 153.493 424.518 154.357C424.591 155.221 424.778 155.819 425.068 156.221C425.426 156.635 425.819 156.841 426.325 156.781C426.832 156.721 427.222 156.5 427.508 156.049Z" fill="#CFCFCF"/>
<path d="M436.162 149.926L436.235 150.79L433.903 157.301L432.464 157.422L434.751 151.188L431.954 151.374L432.04 152.595L430.82 152.681L430.637 150.308L436.162 149.926Z" fill="#CFCFCF"/>
<path d="M99.4814 215.431C99.031 215.144 98.5919 214.789 98.3247 214.249C98.0575 213.708 97.8818 213.04 97.7865 212.315C97.7023 211.52 97.8032 210.897 98.0424 210.297C98.2815 209.696 98.5674 209.245 99.0383 208.967C99.4512 208.608 99.9688 208.479 100.544 208.43C101.12 208.381 101.673 208.471 102.123 208.757C102.574 209.043 103.013 209.399 103.28 209.939C103.547 210.48 103.723 211.147 103.818 211.873C103.914 212.599 103.801 213.291 103.562 213.891C103.323 214.491 103.037 214.942 102.566 215.221C102.153 215.58 101.636 215.709 101.06 215.758C100.496 215.737 99.9429 215.647 99.4814 215.431ZM102.146 213.874C102.432 213.424 102.533 212.801 102.46 211.937C102.387 211.073 102.2 210.474 101.91 210.072C101.552 209.659 101.159 209.453 100.653 209.513C100.146 209.573 99.7559 209.793 99.47 210.244C99.1841 210.695 99.0832 211.318 99.1561 212.182C99.229 213.046 99.4159 213.644 99.7056 214.046C100.064 214.46 100.457 214.666 100.963 214.606C101.47 214.546 101.871 214.256 102.146 213.874Z" fill="#CFCFCF"/>
<path d="M111.279 211.804C111.521 212.056 111.604 212.425 111.686 212.793C111.688 213.22 111.621 213.635 111.426 213.959C111.232 214.282 110.899 214.583 110.44 214.793C109.98 215.002 109.532 215.143 108.887 215.18C108.311 215.229 107.758 215.139 107.355 215.002C106.951 214.866 106.559 214.66 106.258 214.327C106.026 214.006 105.875 213.626 105.804 213.188C105.791 212.831 105.847 212.485 106.041 212.161C106.235 211.838 106.487 211.595 106.867 211.443C106.532 211.318 106.347 211.146 106.174 210.905C106 210.663 105.906 210.364 105.893 210.007C105.891 209.58 105.947 209.234 106.142 208.911C106.336 208.587 106.657 208.355 107.048 208.135C107.438 207.914 107.876 207.843 108.451 207.794C108.958 207.734 109.441 207.813 109.845 207.949C110.249 208.086 110.572 208.28 110.804 208.602C111.047 208.855 111.198 209.234 111.2 209.661C111.213 210.018 111.168 210.295 111.054 210.56C110.94 210.826 110.688 211.069 110.447 211.243C110.724 211.288 111.036 211.552 111.279 211.804ZM109.905 213.712C110.157 213.469 110.271 213.203 110.258 212.846C110.245 212.489 110.071 212.247 109.748 212.053C109.425 211.858 109.079 211.802 108.573 211.862C108.066 211.922 107.698 212.004 107.446 212.247C107.194 212.491 107.08 212.756 107.093 213.113C107.106 213.471 107.269 213.781 107.603 213.906C107.926 214.101 108.272 214.157 108.778 214.097C109.274 214.106 109.653 213.955 109.905 213.712ZM107.444 209.193C107.203 209.367 107.089 209.633 107.102 209.99C107.126 210.278 107.3 210.519 107.485 210.691C107.739 210.875 108.085 210.931 108.511 210.929C108.937 210.927 109.247 210.764 109.488 210.59C109.729 210.416 109.843 210.151 109.819 209.863C109.795 209.575 109.632 209.264 109.367 209.15C109.113 208.967 108.767 208.911 108.33 208.982C107.995 208.857 107.696 208.95 107.444 209.193Z" fill="#CFCFCF"/>
<path d="M151.667 211.677C151.217 211.39 150.778 211.035 150.51 210.495C150.243 209.954 150.067 209.286 149.972 208.561C149.888 207.766 149.989 207.143 150.228 206.543C150.467 205.942 150.753 205.492 151.224 205.213C151.637 204.854 152.154 204.725 152.73 204.676C153.305 204.628 153.859 204.717 154.309 205.003C154.759 205.29 155.198 205.645 155.466 206.185C155.733 206.726 155.909 207.394 156.004 208.119C156.088 208.914 155.987 209.537 155.748 210.137C155.509 210.738 155.223 211.188 154.752 211.467C154.339 211.826 153.822 211.955 153.246 212.004C152.601 212.041 152.129 211.894 151.667 211.677ZM154.262 210.109C154.548 209.659 154.649 209.036 154.576 208.172C154.503 207.308 154.316 206.709 154.027 206.307C153.668 205.894 153.276 205.688 152.769 205.748C152.263 205.808 151.872 206.028 151.586 206.479C151.301 206.93 151.2 207.553 151.273 208.417C151.346 209.281 151.532 209.879 151.822 210.281C152.181 210.695 152.573 210.9 153.08 210.841C153.655 210.792 154.046 210.571 154.262 210.109Z" fill="#CFCFCF"/>
<path d="M162.356 204.817C162.969 205.414 163.26 206.243 163.358 207.395C163.442 208.189 163.33 208.881 163.09 209.482C162.851 210.082 162.427 210.511 161.945 210.858C161.463 211.206 160.865 211.393 160.151 211.42C159.794 211.433 159.437 211.446 159.092 211.39C158.746 211.334 158.481 211.22 158.215 211.105L158.671 210.043C159.064 210.249 159.478 210.316 160.054 210.268C160.768 210.241 161.239 209.963 161.594 209.523C161.949 209.084 162.119 208.472 162.035 207.677C161.852 207.931 161.599 208.175 161.3 208.268C160.99 208.431 160.622 208.513 160.196 208.515C159.69 208.575 159.275 208.508 158.882 208.302C158.49 208.096 158.167 207.902 157.935 207.58C157.703 207.258 157.552 206.879 157.55 206.452C157.479 206.015 157.627 205.541 157.821 205.218C158.026 204.825 158.348 204.593 158.669 204.361C159.06 204.141 159.508 204 160.003 204.01C160.994 204.028 161.812 204.232 162.356 204.817ZM161.41 207.15C161.663 206.907 161.788 206.572 161.775 206.215C161.762 205.857 161.588 205.616 161.345 205.364C161.091 205.18 160.687 205.044 160.25 205.115C159.824 205.117 159.514 205.279 159.262 205.523C159.009 205.766 158.895 206.031 158.966 206.469C158.979 206.826 159.142 207.137 159.396 207.32C159.65 207.503 160.054 207.64 160.491 207.569C160.79 207.475 161.158 207.393 161.41 207.15Z" fill="#CFCFCF"/>
<path d="M213.813 200.305L214.352 207.495L212.993 207.559L212.552 201.521L211.044 201.632L210.947 200.479L213.813 200.305Z" fill="#CFCFCF"/>
<path d="M218.217 206.844C217.766 206.558 217.327 206.202 217.06 205.662C216.793 205.121 216.617 204.454 216.522 203.728C216.438 202.933 216.539 202.31 216.778 201.71C217.017 201.11 217.303 200.659 217.774 200.38C218.187 200.021 218.704 199.892 219.28 199.843C219.855 199.795 220.408 199.884 220.859 200.171C221.309 200.457 221.748 200.812 222.015 201.353C222.283 201.893 222.458 202.561 222.554 203.286C222.638 204.081 222.537 204.704 222.298 205.304C222.059 205.905 221.773 206.355 221.302 206.634C220.889 206.993 220.371 207.122 219.796 207.171C219.22 207.22 218.667 207.13 218.217 206.844ZM220.881 205.288C221.167 204.837 221.268 204.214 221.195 203.35C221.122 202.486 220.935 201.887 220.646 201.485C220.287 201.072 219.895 200.866 219.388 200.926C218.882 200.986 218.491 201.207 218.205 201.658C217.919 202.108 217.819 202.731 217.892 203.595C217.964 204.459 218.151 205.058 218.441 205.46C218.8 205.873 219.192 206.079 219.699 206.019C220.205 205.959 220.595 205.738 220.881 205.288Z" fill="#CFCFCF"/>
<path d="M258.391 197.094L258.929 204.283L257.571 204.347L257.13 198.309L255.622 198.42L255.524 197.268L258.391 197.094Z" fill="#CFCFCF"/>
<path d="M263.271 196.749L263.809 203.939L262.451 204.003L262.009 197.965L260.501 198.076L260.404 196.924L263.271 196.749Z" fill="#CFCFCF"/>
<path d="M312.66 193.181L313.198 200.371L311.84 200.434L311.398 194.397L309.89 194.507L309.793 193.355L312.66 193.181Z" fill="#CFCFCF"/>
<path d="M320.709 198.678L320.806 199.83L315.499 200.176L315.426 199.312L318.096 196.407C318.36 196.095 318.623 195.782 318.657 195.575C318.771 195.309 318.804 195.102 318.769 194.883C318.756 194.526 318.582 194.284 318.397 194.112C318.143 193.929 317.797 193.873 317.36 193.944C316.646 193.97 316.095 194.307 315.729 194.816L314.77 194.163C315.045 193.781 315.377 193.48 315.848 193.202C316.308 192.992 316.837 192.794 317.412 192.745C318.206 192.661 318.817 192.831 319.326 193.198C319.834 193.564 320.112 194.036 320.15 194.681C320.163 195.038 320.096 195.453 319.97 195.788C319.845 196.123 319.559 196.574 319.135 197.002L317.325 198.981L320.709 198.678Z" fill="#CFCFCF"/>
<path d="M374.537 188.726L375.075 195.916L373.717 195.979L373.275 189.942L371.767 190.052L371.67 188.9L374.537 188.726Z" fill="#CFCFCF"/>
<path d="M381.758 191.887C382.128 192.231 382.337 192.691 382.386 193.267C382.388 193.693 382.332 194.039 382.126 194.432C381.932 194.756 381.668 195.068 381.209 195.278C380.818 195.498 380.301 195.627 379.656 195.665C379.15 195.725 378.666 195.646 378.182 195.568C377.698 195.489 377.305 195.283 376.913 195.078L377.438 194.027C377.692 194.21 378.015 194.404 378.43 194.472C378.834 194.608 379.191 194.595 379.617 194.593C380.123 194.533 380.422 194.44 380.674 194.197C380.927 193.954 381.041 193.688 381.016 193.4C380.992 193.112 380.829 192.801 380.575 192.618C380.321 192.435 379.906 192.368 379.4 192.427L378.755 192.465L378.693 191.532L380.158 189.497L376.924 189.753L376.827 188.601L381.707 188.257L381.78 189.121L380.213 191.352C380.857 191.315 381.388 191.543 381.758 191.887Z" fill="#CFCFCF"/>
<path d="M427.804 184.864L428.343 192.054L426.984 192.117L426.543 186.08L425.035 186.19L424.938 185.038L427.804 184.864Z" fill="#CFCFCF"/>
<path d="M437.083 189.779L435.793 189.854L435.881 191.501L434.592 191.576L434.504 189.929L430.556 190.211L430.494 189.278L433.697 184.4L435.135 184.279L432.116 188.902L434.487 188.719L434.366 187.278L435.586 187.192L435.707 188.632L436.997 188.558L437.083 189.779Z" fill="#CFCFCF"/>
<path d="M102.39 241.259L102.928 248.449L101.57 248.512L101.128 242.475L99.6204 242.585L99.5231 241.433L102.39 241.259Z" fill="#CFCFCF"/>
<path d="M109.517 244.121C110.026 244.487 110.304 244.958 110.33 245.673C110.332 246.099 110.265 246.514 110.071 246.838C109.865 247.231 109.613 247.474 109.142 247.753C108.752 247.973 108.234 248.102 107.589 248.14C107.083 248.2 106.599 248.121 106.115 248.043C105.631 247.964 105.239 247.758 104.846 247.553L105.302 246.49C105.556 246.674 105.879 246.868 106.294 246.935C106.698 247.072 107.055 247.059 107.481 247.057C107.987 246.997 108.286 246.904 108.538 246.66C108.791 246.417 108.905 246.152 108.892 245.794C108.878 245.437 108.716 245.127 108.381 245.001C108.058 244.807 107.563 244.798 106.849 244.824L105.123 244.97L105.197 241.005L109.433 240.698L109.53 241.85L106.445 242.06L106.384 243.754L107.098 243.728C108.249 243.631 109.009 243.754 109.517 244.121Z" fill="#CFCFCF"/>
<path d="M154.506 237.494L155.045 244.684L153.686 244.748L153.245 238.71L151.737 238.821L151.64 237.668L154.506 237.494Z" fill="#CFCFCF"/>
<path d="M161.69 240.01C162.094 240.146 162.406 240.41 162.638 240.732C162.869 241.053 163.021 241.433 163.023 241.859C163.094 242.297 162.946 242.77 162.752 243.094C162.546 243.487 162.225 243.719 161.903 243.95C161.513 244.171 161.064 244.311 160.569 244.302C159.568 244.353 158.83 244.091 158.206 243.563C157.593 242.967 157.301 242.138 157.204 240.986C157.12 240.191 157.232 239.499 157.471 238.899C157.71 238.299 158.134 237.87 158.616 237.522C159.098 237.175 159.696 236.987 160.41 236.961C160.767 236.948 161.124 236.935 161.47 236.991C161.815 237.047 162.081 237.161 162.346 237.275L161.89 238.338C161.498 238.132 161.083 238.065 160.507 238.113C159.794 238.14 159.323 238.418 158.968 238.858C158.613 239.297 158.443 239.909 158.527 240.704C158.71 240.449 158.962 240.206 159.261 240.113C159.571 239.95 159.939 239.868 160.365 239.866C160.872 239.806 161.298 239.804 161.69 240.01ZM161.438 242.881C161.69 242.638 161.804 242.372 161.733 241.934C161.72 241.577 161.558 241.267 161.304 241.083C161.049 240.9 160.646 240.764 160.209 240.835C159.782 240.837 159.472 240.999 159.22 241.242C158.968 241.486 158.843 241.82 158.856 242.178C158.869 242.535 159.043 242.776 159.286 243.028C159.54 243.212 159.943 243.348 160.381 243.277C160.876 243.287 161.186 243.124 161.438 242.881Z" fill="#CFCFCF"/>
<path d="M216.165 233.075L216.703 240.265L215.345 240.328L214.904 234.291L213.396 234.401L213.298 233.249L216.165 233.075Z" fill="#CFCFCF"/>
<path d="M223.991 232.499L224.064 233.363L221.732 239.874L220.294 239.995L222.58 233.762L219.783 233.947L219.869 235.168L218.649 235.254L218.466 232.881L223.991 232.499Z" fill="#CFCFCF"/>
<path d="M260.673 229.852L261.212 237.042L259.853 237.105L259.412 231.068L257.904 231.178L257.807 230.026L260.673 229.852Z" fill="#CFCFCF"/>
<path d="M268.978 233.331C269.221 233.583 269.303 233.952 269.385 234.32C269.387 234.747 269.32 235.162 269.126 235.485C268.931 235.809 268.599 236.11 268.139 236.32C267.68 236.529 267.231 236.669 266.586 236.707C266.011 236.755 265.458 236.666 265.054 236.529C264.581 236.381 264.258 236.187 263.957 235.854C263.725 235.532 263.574 235.153 263.503 234.715C263.49 234.358 263.546 234.012 263.74 233.688C263.935 233.365 264.187 233.122 264.566 232.97C264.232 232.845 264.047 232.673 263.873 232.431C263.699 232.19 263.606 231.891 263.593 231.534C263.591 231.107 263.647 230.761 263.841 230.438C264.035 230.114 264.357 229.882 264.747 229.661C265.138 229.441 265.575 229.37 266.151 229.321C266.657 229.261 267.141 229.34 267.545 229.476C267.948 229.613 268.271 229.807 268.503 230.129C268.746 230.381 268.898 230.761 268.899 231.187C268.913 231.545 268.868 231.822 268.754 232.087C268.64 232.353 268.387 232.596 268.146 232.77C268.412 232.884 268.735 233.078 268.978 233.331ZM267.593 235.308C267.846 235.065 267.96 234.799 267.947 234.442C267.934 234.085 267.76 233.843 267.436 233.649C267.113 233.454 266.767 233.398 266.261 233.458C265.755 233.518 265.387 233.6 265.134 233.843C264.882 234.087 264.768 234.352 264.781 234.709C264.794 235.067 264.957 235.377 265.291 235.502C265.626 235.628 265.96 235.753 266.467 235.693C266.973 235.633 267.352 235.482 267.593 235.308ZM265.144 230.72C264.902 230.894 264.788 231.16 264.802 231.517C264.826 231.805 265 232.046 265.185 232.218C265.439 232.401 265.785 232.458 266.211 232.456C266.637 232.454 266.947 232.291 267.188 232.117C267.429 231.943 267.543 231.678 267.519 231.39C267.494 231.102 267.332 230.791 267.066 230.677C266.812 230.494 266.466 230.438 266.029 230.509C265.684 230.453 265.385 230.546 265.144 230.72Z" fill="#CFCFCF"/>
<path d="M315.011 225.951L315.55 233.14L314.191 233.204L313.75 227.167L312.242 227.277L312.145 226.125L315.011 225.951Z" fill="#CFCFCF"/>
<path d="M322.197 226.265C322.81 226.861 323.101 227.69 323.199 228.842C323.283 229.637 323.171 230.329 322.931 230.929C322.692 231.53 322.268 231.958 321.786 232.306C321.304 232.654 320.706 232.841 319.992 232.867C319.635 232.88 319.278 232.893 318.933 232.837C318.587 232.781 318.322 232.667 318.056 232.553L318.512 231.491C318.905 231.696 319.319 231.764 319.895 231.715C320.609 231.689 321.08 231.41 321.435 230.971C321.79 230.531 321.96 229.919 321.876 229.125C321.693 229.379 321.44 229.622 321.141 229.716C320.831 229.878 320.463 229.961 320.037 229.963C319.531 230.022 319.116 229.955 318.723 229.749C318.32 229.613 318.008 229.349 317.776 229.028C317.544 228.706 317.393 228.326 317.391 227.9C317.32 227.462 317.468 226.989 317.662 226.665C317.867 226.273 318.189 226.041 318.51 225.809C318.901 225.588 319.349 225.448 319.844 225.457C320.846 225.406 321.584 225.668 322.197 226.265ZM321.194 228.517C321.446 228.274 321.571 227.939 321.558 227.582C321.545 227.224 321.371 226.983 321.128 226.731C320.874 226.547 320.47 226.411 320.033 226.482C319.607 226.484 319.297 226.647 319.045 226.89C318.792 227.133 318.678 227.398 318.749 227.836C318.763 228.193 318.925 228.504 319.179 228.687C319.433 228.87 319.837 229.007 320.274 228.936C320.631 228.923 320.941 228.76 321.194 228.517Z" fill="#CFCFCF"/>
<path d="M379.988 227.326L380.086 228.478L374.779 228.824L374.706 227.96L377.376 225.055C377.64 224.743 377.903 224.43 377.937 224.223C378.051 223.957 378.084 223.75 378.049 223.531C378.036 223.174 377.862 222.932 377.677 222.76C377.423 222.577 377.077 222.521 376.64 222.592C375.926 222.618 375.375 222.955 375.008 223.464L374.05 222.811C374.325 222.429 374.657 222.128 375.128 221.85C375.588 221.64 376.116 221.442 376.692 221.393C377.486 221.309 378.097 221.479 378.605 221.846C379.114 222.212 379.392 222.684 379.43 223.329C379.443 223.686 379.375 224.101 379.25 224.436C379.125 224.771 378.839 225.222 378.415 225.65L376.604 227.629L379.988 227.326Z" fill="#CFCFCF"/>
<path d="M383.237 227.853C382.786 227.567 382.347 227.212 382.08 226.671C381.813 226.131 381.637 225.463 381.542 224.737C381.457 223.942 381.558 223.32 381.798 222.719C382.037 222.119 382.323 221.668 382.793 221.389C383.206 221.03 383.724 220.901 384.299 220.853C384.875 220.804 385.428 220.894 385.878 221.18C386.329 221.466 386.768 221.821 387.035 222.362C387.302 222.902 387.478 223.57 387.573 224.296C387.658 225.09 387.557 225.713 387.318 226.314C387.078 226.914 386.793 227.365 386.322 227.643C385.909 228.003 385.391 228.132 384.816 228.18C384.24 228.229 383.756 228.15 383.237 227.853ZM385.901 226.297C386.187 225.846 386.288 225.223 386.215 224.359C386.142 223.495 385.955 222.897 385.666 222.495C385.307 222.081 384.914 221.876 384.408 221.935C383.902 221.995 383.511 222.216 383.225 222.667C382.939 223.118 382.838 223.74 382.911 224.604C382.984 225.468 383.171 226.067 383.461 226.469C383.82 226.882 384.212 227.088 384.718 227.028C385.283 227.049 385.615 226.748 385.901 226.297Z" fill="#CFCFCF"/>
<path d="M433.324 223.476L433.422 224.628L428.115 224.974L428.042 224.11L430.712 221.205C430.976 220.893 431.239 220.58 431.273 220.373C431.387 220.107 431.42 219.9 431.385 219.681C431.372 219.324 431.198 219.082 431.013 218.91C430.759 218.727 430.413 218.671 429.976 218.742C429.262 218.768 428.711 219.105 428.345 219.614L427.386 218.961C427.661 218.579 427.993 218.278 428.464 218C428.924 217.79 429.453 217.592 430.028 217.543C430.822 217.459 431.433 217.629 431.942 217.996C432.45 218.362 432.728 218.833 432.766 219.479C432.779 219.836 432.711 220.251 432.586 220.586C432.461 220.921 432.175 221.372 431.751 221.8L429.941 223.779L433.324 223.476Z" fill="#CFCFCF"/>
<path d="M437.119 217.13L437.657 224.32L436.299 224.383L435.858 218.346L434.35 218.456L434.252 217.304L437.119 217.13Z" fill="#CFCFCF"/>
<path d="M107.974 281.229L108.071 282.382L102.764 282.728L102.692 281.864L105.362 278.959C105.625 278.647 105.889 278.334 105.922 278.127C106.036 277.861 106.07 277.654 106.034 277.435C106.021 277.077 105.847 276.836 105.662 276.664C105.408 276.481 105.063 276.425 104.625 276.496C103.912 276.522 103.36 276.859 102.994 277.368L102.035 276.715C102.31 276.333 102.643 276.032 103.114 275.753C103.573 275.544 104.102 275.346 104.678 275.297C105.472 275.213 106.083 275.383 106.591 275.75C107.099 276.116 107.378 276.587 107.415 277.233C107.428 277.59 107.361 278.005 107.236 278.34C107.111 278.675 106.825 279.125 106.401 279.554L104.59 281.533L107.974 281.229Z" fill="#CFCFCF"/>
<path d="M114.937 280.726L115.034 281.878L109.728 282.225L109.655 281.36L112.325 278.456C112.588 278.143 112.852 277.831 112.885 277.624C112.999 277.358 113.033 277.15 112.997 276.931C112.984 276.574 112.811 276.333 112.626 276.161C112.371 275.978 112.026 275.922 111.588 275.993C110.875 276.019 110.323 276.356 109.957 276.864L108.999 276.212C109.273 275.83 109.606 275.529 110.077 275.25C110.536 275.041 111.065 274.842 111.641 274.794C112.435 274.71 113.046 274.88 113.554 275.246C114.062 275.613 114.341 276.084 114.378 276.729C114.391 277.087 114.324 277.502 114.199 277.837C114.074 278.171 113.788 278.622 113.364 279.051L111.553 281.029L114.937 280.726Z" fill="#CFCFCF"/>
<path d="M160.09 277.466L160.188 278.618L154.881 278.964L154.808 278.1L157.478 275.195C157.742 274.883 158.005 274.57 158.039 274.363C158.153 274.097 158.186 273.89 158.151 273.671C158.138 273.314 157.964 273.072 157.779 272.9C157.525 272.717 157.179 272.661 156.742 272.732C156.028 272.758 155.477 273.095 155.111 273.604L154.152 272.951C154.427 272.569 154.759 272.268 155.23 271.99C155.69 271.78 156.219 271.582 156.794 271.533C157.588 271.449 158.199 271.619 158.707 271.986C159.216 272.352 159.494 272.824 159.532 273.469C159.545 273.826 159.477 274.241 159.352 274.576C159.227 274.911 158.941 275.362 158.517 275.79L156.706 277.769L160.09 277.466Z" fill="#CFCFCF"/>
<path d="M166.295 274.636C166.665 274.981 166.875 275.441 166.923 276.017C166.925 276.443 166.869 276.789 166.664 277.182C166.469 277.506 166.206 277.818 165.746 278.027C165.286 278.237 164.838 278.377 164.193 278.415C163.687 278.474 163.203 278.396 162.719 278.317C162.235 278.239 161.843 278.033 161.45 277.827L161.975 276.776C162.229 276.96 162.553 277.154 162.967 277.221C163.371 277.358 163.728 277.345 164.154 277.343C164.66 277.283 164.959 277.189 165.212 276.946C165.464 276.703 165.578 276.438 165.554 276.15C165.529 275.862 165.367 275.551 165.113 275.368C164.858 275.184 164.444 275.117 163.937 275.177L163.292 275.214L163.231 274.281L164.696 272.246L161.461 272.503L161.364 271.35L166.245 271.006L166.318 271.87L164.75 274.102C165.395 274.064 165.925 274.292 166.295 274.636Z" fill="#CFCFCF"/>
<path d="M221.749 273.046L221.846 274.198L216.539 274.545L216.466 273.681L219.136 270.776C219.4 270.464 219.663 270.151 219.697 269.944C219.811 269.678 219.845 269.47 219.809 269.252C219.796 268.894 219.622 268.653 219.437 268.481C219.183 268.298 218.837 268.242 218.4 268.313C217.686 268.339 217.135 268.676 216.769 269.184L215.81 268.532C216.085 268.15 216.417 267.849 216.888 267.57C217.348 267.361 217.877 267.163 218.452 267.114C219.246 267.03 219.857 267.2 220.366 267.566C220.874 267.933 221.152 268.404 221.19 269.05C221.203 269.407 221.136 269.822 221.011 270.157C220.885 270.492 220.6 270.942 220.175 271.371L218.365 273.349L221.749 273.046Z" fill="#CFCFCF"/>
<path d="M229.723 271.996L228.434 272.071L228.522 273.718L227.232 273.793L227.144 272.145L223.196 272.428L223.134 271.495L226.337 266.617L227.776 266.495L224.756 271.119L227.128 270.935L227.006 269.495L228.226 269.409L228.348 270.849L229.637 270.774L229.723 271.996Z" fill="#CFCFCF"/>
<path d="M266.327 269.835L266.424 270.987L261.117 271.333L261.044 270.469L263.714 267.564C263.978 267.252 264.241 266.94 264.275 266.732C264.389 266.466 264.422 266.259 264.387 266.04C264.374 265.683 264.2 265.442 264.015 265.269C263.761 265.086 263.415 265.03 262.978 265.101C262.264 265.127 261.713 265.464 261.347 265.973L260.388 265.32C260.663 264.939 260.995 264.637 261.466 264.359C261.926 264.149 262.455 263.951 263.03 263.902C263.824 263.818 264.435 263.988 264.944 264.355C265.452 264.721 265.73 265.193 265.768 265.838C265.781 266.195 265.714 266.61 265.588 266.945C265.463 267.28 265.177 267.731 264.753 268.159L262.943 270.138L266.327 269.835Z" fill="#CFCFCF"/>
<path d="M272.369 266.695C272.877 267.062 273.156 267.533 273.182 268.247C273.184 268.674 273.116 269.089 272.922 269.413C272.717 269.805 272.464 270.049 271.993 270.327C271.603 270.548 271.085 270.677 270.441 270.714C269.934 270.774 269.45 270.696 268.966 270.617C268.482 270.539 268.09 270.333 267.697 270.127L268.153 269.065C268.408 269.248 268.731 269.443 269.146 269.51C269.549 269.647 269.906 269.633 270.332 269.632C270.839 269.572 271.138 269.478 271.39 269.235C271.642 268.992 271.756 268.726 271.743 268.369C271.73 268.012 271.567 267.701 271.233 267.576C270.909 267.381 270.414 267.372 269.7 267.398L267.974 267.544L268.048 263.579L272.285 263.272L272.382 264.424L269.297 264.634L269.235 266.329L269.949 266.302C271.1 266.205 271.861 266.328 272.369 266.695Z" fill="#CFCFCF"/>
<path d="M382.472 261.467L382.57 262.62L377.263 262.966L377.19 262.102L379.86 259.197C380.123 258.885 380.387 258.572 380.42 258.365C380.534 258.099 380.568 257.892 380.533 257.673C380.519 257.315 380.346 257.074 380.161 256.902C379.907 256.719 379.561 256.663 379.124 256.734C378.41 256.76 377.859 257.097 377.492 257.606L376.534 256.953C376.808 256.571 377.141 256.27 377.612 255.991C378.072 255.782 378.6 255.584 379.176 255.535C379.97 255.451 380.581 255.621 381.089 255.988C381.598 256.354 381.876 256.825 381.913 257.471C381.927 257.828 381.859 258.243 381.734 258.578C381.609 258.913 381.323 259.363 380.899 259.792L379.088 261.771L382.472 261.467Z" fill="#CFCFCF"/>
<path d="M389.133 254.948L389.206 255.812L386.874 262.323L385.436 262.444L387.722 256.21L384.925 256.396L385.011 257.617L383.791 257.703L383.608 255.33L389.133 254.948Z" fill="#CFCFCF"/>
<path d="M435.74 257.605L435.837 258.757L430.53 259.104L430.457 258.24L433.127 255.335C433.391 255.023 433.654 254.71 433.688 254.503C433.802 254.237 433.835 254.029 433.8 253.811C433.787 253.453 433.613 253.212 433.428 253.04C433.174 252.857 432.828 252.801 432.391 252.872C431.677 252.898 431.126 253.235 430.76 253.743L429.801 253.091C430.076 252.709 430.408 252.408 430.879 252.129C431.339 251.92 431.868 251.722 432.443 251.673C433.237 251.589 433.848 251.759 434.357 252.125C434.865 252.492 435.143 252.963 435.181 253.609C435.194 253.966 435.127 254.381 435.001 254.716C434.876 255.051 434.59 255.501 434.166 255.93L432.356 257.908L435.74 257.605Z" fill="#CFCFCF"/>
<path d="M442.948 255.152C443.191 255.404 443.273 255.773 443.355 256.141C443.357 256.568 443.29 256.983 443.096 257.306C442.901 257.63 442.569 257.931 442.109 258.141C441.649 258.35 441.201 258.49 440.556 258.528C439.981 258.576 439.428 258.487 439.024 258.35C438.62 258.214 438.228 258.008 437.927 257.675C437.695 257.353 437.544 256.974 437.473 256.536C437.46 256.179 437.516 255.833 437.71 255.509C437.905 255.186 438.157 254.942 438.536 254.791C438.202 254.666 438.017 254.494 437.843 254.252C437.669 254.011 437.576 253.712 437.563 253.355C437.561 252.928 437.617 252.582 437.811 252.259C438.005 251.935 438.327 251.703 438.717 251.482C439.108 251.262 439.545 251.19 440.121 251.142C440.627 251.082 441.111 251.161 441.515 251.297C441.918 251.434 442.241 251.628 442.473 251.95C442.716 252.202 442.867 252.582 442.869 253.008C442.882 253.366 442.838 253.642 442.724 253.908C442.61 254.174 442.357 254.417 442.116 254.591C442.382 254.705 442.705 254.899 442.948 255.152ZM441.563 257.129C441.816 256.886 441.93 256.62 441.917 256.263C441.903 255.906 441.73 255.664 441.406 255.47C441.083 255.275 440.737 255.219 440.231 255.279C439.725 255.339 439.357 255.421 439.104 255.664C438.852 255.908 438.738 256.173 438.751 256.53C438.764 256.888 438.927 257.198 439.261 257.323C439.596 257.449 439.93 257.574 440.437 257.514C440.943 257.454 441.322 257.303 441.563 257.129ZM439.113 252.541C438.872 252.715 438.758 252.98 438.772 253.338C438.796 253.626 438.97 253.867 439.155 254.039C439.409 254.222 439.754 254.278 440.181 254.277C440.607 254.275 440.917 254.112 441.158 253.938C441.399 253.764 441.513 253.498 441.489 253.21C441.464 252.922 441.302 252.612 441.036 252.498C440.782 252.315 440.436 252.258 439.999 252.33C439.665 252.204 439.355 252.367 439.113 252.541Z" fill="#CFCFCF"/>
<path d="M110.326 314L110.423 315.152L105.116 315.499L105.043 314.635L107.713 311.73C107.977 311.418 108.24 311.105 108.274 310.898C108.388 310.632 108.421 310.424 108.386 310.206C108.373 309.848 108.199 309.607 108.014 309.435C107.76 309.252 107.414 309.196 106.977 309.267C106.263 309.293 105.712 309.63 105.346 310.138L104.387 309.486C104.662 309.104 104.994 308.803 105.465 308.524C105.925 308.315 106.454 308.117 107.029 308.068C107.823 307.984 108.434 308.154 108.943 308.52C109.451 308.887 109.729 309.358 109.767 310.004C109.78 310.361 109.713 310.776 109.587 311.111C109.462 311.446 109.176 311.896 108.752 312.325L106.942 314.303L110.326 314Z" fill="#CFCFCF"/>
<path d="M116.425 308.313C117.038 308.91 117.33 309.738 117.427 310.89C117.511 311.685 117.399 312.377 117.16 312.978C116.921 313.578 116.497 314.006 116.015 314.354C115.533 314.702 114.935 314.889 114.221 314.915C113.864 314.929 113.507 314.942 113.161 314.886C112.816 314.829 112.55 314.715 112.285 314.601L112.741 313.539C113.133 313.745 113.548 313.812 114.124 313.763C114.837 313.737 115.308 313.458 115.663 313.019C116.018 312.579 116.188 311.968 116.104 311.173C115.921 311.427 115.669 311.67 115.37 311.764C115.06 311.927 114.692 312.009 114.266 312.011C113.759 312.071 113.344 312.003 112.952 311.798C112.548 311.661 112.236 311.397 112.005 311.076C111.773 310.754 111.621 310.374 111.62 309.948C111.548 309.51 111.696 309.037 111.89 308.714C112.096 308.321 112.417 308.089 112.739 307.857C113.129 307.636 113.578 307.496 114.073 307.505C115.074 307.455 115.813 307.717 116.425 308.313ZM115.422 310.565C115.674 310.322 115.8 309.987 115.786 309.63C115.773 309.273 115.6 309.031 115.357 308.779C115.102 308.596 114.699 308.459 114.262 308.53C113.836 308.532 113.525 308.695 113.273 308.938C113.021 309.181 112.907 309.447 112.978 309.884C112.991 310.242 113.154 310.552 113.408 310.735C113.662 310.919 114.066 311.055 114.503 310.984C114.86 310.971 115.159 310.877 115.422 310.565Z" fill="#CFCFCF"/>
<path d="M161.683 307.91C162.053 308.254 162.263 308.714 162.311 309.291C162.313 309.717 162.257 310.063 162.052 310.456C161.857 310.779 161.594 311.092 161.134 311.301C160.675 311.511 160.226 311.651 159.581 311.688C159.075 311.748 158.591 311.67 158.107 311.591C157.623 311.513 157.231 311.307 156.838 311.101L157.363 310.05C157.617 310.233 157.941 310.428 158.356 310.495C158.759 310.632 159.116 310.619 159.542 310.617C160.049 310.557 160.347 310.463 160.6 310.22C160.852 309.977 160.966 309.711 160.942 309.423C160.917 309.135 160.755 308.825 160.501 308.642C160.247 308.458 159.832 308.391 159.325 308.451L158.681 308.488L158.619 307.555L160.084 305.52L156.849 305.776L156.752 304.624L161.633 304.28L161.706 305.144L160.138 307.375C160.783 307.338 161.313 307.566 161.683 307.91Z" fill="#CFCFCF"/>
<path d="M165.76 310.774C165.309 310.487 164.87 310.132 164.603 309.592C164.336 309.051 164.16 308.383 164.065 307.658C163.98 306.863 164.081 306.24 164.32 305.64C164.56 305.039 164.845 304.589 165.316 304.31C165.729 303.951 166.247 303.822 166.822 303.773C167.398 303.724 167.951 303.814 168.401 304.1C168.852 304.386 169.291 304.742 169.558 305.282C169.825 305.823 170.001 306.49 170.096 307.216C170.18 308.011 170.08 308.634 169.84 309.234C169.601 309.834 169.315 310.285 168.845 310.564C168.432 310.923 167.914 311.052 167.338 311.101C166.763 311.149 166.21 311.06 165.76 310.774ZM168.424 309.217C168.71 308.767 168.811 308.144 168.738 307.28C168.665 306.416 168.478 305.817 168.188 305.415C167.83 305.002 167.437 304.796 166.931 304.856C166.424 304.916 166.034 305.136 165.748 305.587C165.462 306.038 165.361 306.661 165.434 307.525C165.507 308.389 165.694 308.987 165.984 309.39C166.342 309.803 166.735 310.009 167.241 309.949C167.736 309.958 168.138 309.668 168.424 309.217Z" fill="#CFCFCF"/>
<path d="M223.405 304.851C223.775 305.195 223.984 305.655 224.033 306.231C224.035 306.658 223.979 307.004 223.773 307.397C223.579 307.72 223.316 308.032 222.856 308.242C222.465 308.463 221.948 308.592 221.303 308.629C220.797 308.689 220.313 308.61 219.829 308.532C219.345 308.453 218.952 308.248 218.56 308.042L219.085 306.991C219.339 307.174 219.662 307.369 220.077 307.436C220.492 307.503 220.838 307.559 221.264 307.557C221.77 307.498 222.069 307.404 222.321 307.161C222.574 306.918 222.688 306.652 222.663 306.364C222.639 306.076 222.477 305.766 222.222 305.582C221.968 305.399 221.553 305.332 221.047 305.392L220.402 305.429L220.341 304.496L221.806 302.461L218.571 302.717L218.474 301.565L223.355 301.221L223.427 302.085L221.86 304.316C222.493 304.348 223.035 304.507 223.405 304.851Z" fill="#CFCFCF"/>
<path d="M228.027 300.843L228.565 308.032L227.207 308.096L226.765 302.059L225.257 302.169L225.16 301.017L228.027 300.843Z" fill="#CFCFCF"/>
<path d="M103.4 157.113L102.861 149.923L99.8026 156.103L98.5825 156.189L94.6547 150.651L95.1463 157.691L92.5565 157.91L91.7209 145.985L94.0229 145.791L99.0402 152.925L102.921 145.175L105.212 145.049L106.116 156.985L103.4 157.113Z" fill="#AAACAF"/>
<path d="M148.348 144.16L144.538 144.465L144.402 142.241L154.808 141.515L154.944 143.739L151.134 144.044L151.833 153.745L149.036 153.93L148.348 144.16Z" fill="#AAACAF"/>
<path d="M217.778 136.883L214.735 149.102L211.788 149.334L208.598 141.43L206.47 149.749L203.523 149.981L198.74 138.339L201.606 138.165L204.889 146.368L207.131 137.783L209.71 137.634L213.051 145.917L215.235 137.252L217.778 136.883Z" fill="#AAACAF"/>
<path d="M256.391 136.325L252.581 136.63L252.445 134.406L262.851 133.68L262.987 135.904L259.177 136.209L259.876 145.91L257.079 146.096L256.391 136.325Z" fill="#AAACAF"/>
<path d="M310.729 132.423L310.927 135.58L316.452 135.199L316.589 137.422L311.064 137.804L311.348 142.183L308.55 142.368L307.715 130.443L316.762 129.78L316.899 132.004L310.729 132.423Z" fill="#AAACAF"/>
<path d="M363.854 138.197C362.967 137.982 362.229 137.72 361.651 137.342L362.425 135.195C362.933 135.562 363.602 135.812 364.282 135.994C364.962 136.175 365.734 136.229 366.448 136.203C367.242 136.119 367.829 136.001 368.161 135.7C368.483 135.468 368.677 135.144 368.675 134.718C368.651 134.43 368.546 134.2 368.292 134.017C368.038 133.833 367.773 133.719 367.427 133.663C367.081 133.607 366.609 133.459 365.986 133.358C365.088 133.213 364.338 133.02 363.727 132.85C363.116 132.68 362.597 132.382 362.18 131.889C361.763 131.395 361.496 130.854 361.423 129.99C361.397 129.276 361.498 128.653 361.875 128.075C362.184 127.486 362.757 127.011 363.458 126.627C364.159 126.244 365.113 126.044 366.195 125.935C366.99 125.851 367.692 125.894 368.453 126.017C369.213 126.141 369.813 126.38 370.402 126.689L369.697 128.847C368.578 128.31 367.414 128.05 366.332 128.159C365.538 128.243 365.02 128.372 364.618 128.662C364.217 128.952 364.091 129.287 364.162 129.725C364.164 130.151 364.407 130.403 364.869 130.62C365.342 130.768 365.953 130.938 366.851 131.084C367.75 131.23 368.5 131.422 369.111 131.593C369.722 131.763 370.241 132.06 370.669 132.485C371.097 132.909 371.353 133.519 371.437 134.314C371.474 134.959 371.362 135.651 370.985 136.229C370.677 136.818 370.103 137.293 369.402 137.677C368.632 138.049 367.747 138.26 366.665 138.369C365.732 138.431 364.822 138.354 363.854 138.197Z" fill="#AAACAF"/>
<path d="M417.905 134.32C417.017 134.105 416.279 133.843 415.702 133.465L416.475 131.318C416.983 131.684 417.652 131.935 418.333 132.116C419.082 132.309 419.784 132.352 420.498 132.326C421.292 132.242 421.879 132.124 422.212 131.823C422.533 131.591 422.727 131.267 422.726 130.841C422.701 130.553 422.597 130.323 422.342 130.139C422.088 129.956 421.823 129.842 421.477 129.786C421.132 129.73 420.659 129.582 420.037 129.481C419.138 129.335 418.389 129.143 417.777 128.972C417.166 128.802 416.647 128.505 416.23 128.011C415.814 127.517 415.546 126.977 415.473 126.113C415.447 125.398 415.548 124.776 415.926 124.198C416.234 123.608 416.808 123.133 417.508 122.75C418.209 122.366 419.164 122.166 420.246 122.058C421.04 121.974 421.742 122.016 422.503 122.14C423.263 122.263 423.863 122.503 424.452 122.811L423.747 124.97C422.628 124.433 421.464 124.173 420.382 124.282C419.588 124.366 419.07 124.495 418.669 124.785C418.267 125.075 418.142 125.409 418.213 125.847C418.215 126.274 418.458 126.526 418.919 126.743C419.392 126.891 420.003 127.061 420.902 127.207C421.8 127.352 422.55 127.545 423.161 127.715C423.772 127.885 424.291 128.183 424.719 128.607C425.147 129.032 425.403 129.642 425.487 130.436C425.525 131.082 425.413 131.774 425.035 132.352C424.727 132.941 424.153 133.416 423.453 133.799C422.683 134.172 421.797 134.383 420.715 134.492C419.783 134.553 418.804 134.465 417.905 134.32Z" fill="#AAACAF"/>
<path d="M394.647 96.5969C397.739 97.0987 400.653 94.9958 401.155 91.9001C401.656 88.8043 399.555 85.8879 396.463 85.3862C393.37 84.8844 390.456 86.9872 389.955 90.083C389.453 93.1788 391.554 96.0952 394.647 96.5969Z" fill="white"/>
<path d="M413.097 95.2564C416.19 95.7582 419.103 93.6553 419.605 90.5594C420.106 87.4636 418.006 84.5471 414.913 84.0454C411.82 83.5436 408.906 85.6465 408.405 88.7423C407.903 91.8382 410.004 94.7546 413.097 95.2564Z" fill="white"/>
<path d="M431.616 93.9272C434.709 94.4289 437.623 92.3261 438.124 89.2303C438.626 86.1344 436.525 83.218 433.432 82.7163C430.339 82.2145 427.426 84.3174 426.924 87.4132C426.423 90.509 428.523 93.4254 431.616 93.9272Z" fill="#FFCA43"/>
</g>
<defs>
<filter id="filter0_d" x="52.5847" y="60.914" width="439.152" height="294.068" filterUnits="userSpaceOnUse" color-interpolation-filters="sRGB">
<feFlood flood-opacity="0" result="BackgroundImageFix"/>
<feColorMatrix in="SourceAlpha" type="matrix" values="0 0 0 0 0 0 0 0 0 0 0 0 0 0 0 0 0 0 127 0"/>
<feOffset dy="4"/>
<feGaussianBlur stdDeviation="3"/>
<feColorMatrix type="matrix" values="0 0 0 0 0 0 0 0 0 0 0 0 0 0 0 0 0 0 0.06 0"/>
<feBlend mode="normal" in2="BackgroundImageFix" result="effect1_dropShadow"/>
<feBlend mode="normal" in="SourceGraphic" in2="effect1_dropShadow" result="shape"/>
</filter>
</defs>
</svg>
