<svg width="749" height="582" viewBox="0 0 749 582" fill="none" xmlns="http://www.w3.org/2000/svg">
<path d="M463.811 97.4635C360.473 77.0648 276.005 95.0157 250.451 148.501C224.841 202.15 245.902 256.818 153.122 278.89C77.0786 296.473 -12.1631 327.479 1.37197 414.337C14.2331 496.748 84.0427 511.924 173.453 515.27C268.592 518.86 370.582 460.601 459.15 489.037C541.371 515.433 634.151 521.308 646.339 445.017C653.471 400.343 600.791 385.412 590.794 350.611C576.922 302.389 604.666 284.316 613.034 252.086C633.758 172 562.882 120.188 463.811 97.4635Z" fill="white"/>
<path d="M463.811 97.4635C360.473 77.0648 276.005 95.0157 250.451 148.501C224.841 202.15 245.902 256.818 153.122 278.89C77.0786 296.473 -12.1631 327.479 1.37197 414.337C14.2331 496.748 84.0427 511.924 173.453 515.27C268.592 518.86 370.582 460.601 459.15 489.037C541.371 515.433 634.151 521.308 646.339 445.017C653.471 400.343 600.791 385.412 590.794 350.611C576.922 302.389 604.666 284.316 613.034 252.086C633.758 172 562.882 120.188 463.811 97.4635Z" fill="white" fill-opacity="0.1"/>
<path d="M463.811 97.4635C360.473 77.0648 276.005 95.0157 250.451 148.501C224.841 202.15 245.902 256.818 153.122 278.89C77.0786 296.473 -12.1631 327.479 1.37197 414.337C14.2331 496.748 84.0427 511.924 173.453 515.27C268.592 518.86 370.582 460.601 459.15 489.037C541.371 515.433 634.151 521.308 646.339 445.017C653.471 400.343 600.791 385.412 590.794 350.611C576.922 302.389 604.666 284.316 613.034 252.086C633.758 172 562.882 120.188 463.811 97.4635Z" fill="white" fill-opacity="0.1"/>
<path d="M463.811 97.4635C360.473 77.0648 276.005 95.0157 250.451 148.501C224.841 202.15 245.902 256.818 153.122 278.89C77.0786 296.473 -12.1631 327.479 1.37197 414.337C14.2331 496.748 84.0427 511.924 173.453 515.27C268.592 518.86 370.582 460.601 459.15 489.037C541.371 515.433 634.151 521.308 646.339 445.017C653.471 400.343 600.791 385.412 590.794 350.611C576.922 302.389 604.666 284.316 613.034 252.086C633.758 172 562.882 120.188 463.811 97.4635Z" fill="white" fill-opacity="0.1"/>
<g filter="url(#filter0_d)">
<path d="M301.436 194.492L298.039 194.755L295.24 154.928L298.637 154.666C300.599 154.475 302.288 155.97 302.479 157.934L304.816 190.564C304.891 192.611 303.497 194.318 301.436 194.492Z" fill="white"/>
<path d="M305.079 244.123L301.683 244.385L298.884 204.559L302.281 204.296C304.243 204.106 305.932 205.601 306.122 207.565L308.46 240.195C308.436 242.226 307.041 243.932 305.079 244.123Z" fill="white"/>
<path d="M669.649 91.4345L694.072 431.233C695.407 449.966 681.277 466.292 662.564 467.631L359.732 489.418" stroke="white" stroke-width="1.5" stroke-miterlimit="10" stroke-linecap="round" stroke-linejoin="round"/>
<path d="M86.1515 172.697L107.748 473.47C108.642 485.518 118.972 494.519 131.008 493.623L661.176 455.508C673.211 454.612 682.22 444.17 681.31 432.222L659.714 131.449L86.1515 172.697Z" fill="#FDFDFD" stroke="#CFCFCF" stroke-miterlimit="10"/>
<path d="M662.493 155.085L659.245 109.899C658.507 99.4025 649.319 91.5032 638.833 92.2438L101.157 130.968C90.6712 131.709 82.6795 140.891 83.4179 151.387L86.6659 196.573L662.493 155.085Z" fill="#CFCFCF"/>
<path d="M329.287 155.566L328.478 144.244L323.541 154.023L322.106 154.096L315.816 145.242L316.641 156.464L313.656 156.692L312.46 139.61L315.032 139.417L322.617 150.313L328.503 138.449L331.075 138.256L332.37 155.354L329.287 155.566Z" fill="white"/>
<path d="M345.076 153.446C343.655 152.808 342.496 151.806 341.584 150.539C340.671 149.272 340.203 147.772 340.063 146.121C339.924 144.471 340.28 142.901 340.917 141.478C341.653 140.072 342.654 138.912 344.003 138.113C345.368 137.216 346.867 136.747 348.615 136.623C350.362 136.5 351.947 136.757 353.467 137.41C354.888 138.048 356.047 139.05 356.96 140.317C357.873 141.584 358.341 143.084 358.48 144.735C358.619 146.385 358.263 147.955 357.626 149.378C356.89 150.784 355.889 151.944 354.54 152.743C353.175 153.641 351.677 154.11 349.929 154.233C348.066 154.439 346.482 154.182 345.076 153.446ZM352.667 150.506C353.572 149.941 354.211 149.129 354.669 148.186C355.127 147.243 355.303 146.152 355.183 145.014C355.062 143.875 354.728 142.803 354.147 141.997C353.582 141.092 352.771 140.451 351.829 139.993C350.887 139.535 349.798 139.358 348.66 139.479C347.523 139.6 346.567 139.852 345.646 140.516C344.742 141.082 344.102 141.893 343.644 142.836C343.187 143.78 343.01 144.87 343.131 146.009C343.251 147.147 343.586 148.219 344.166 149.025C344.747 149.832 345.542 150.571 346.484 151.029C347.426 151.487 348.516 151.664 349.653 151.543C350.791 151.422 351.762 151.071 352.667 150.506Z" fill="white"/>
<path d="M381.261 134.593L382.457 151.675L379.885 151.868L369.661 140.951L370.52 152.587L367.338 152.782L366.141 135.7L368.713 135.507L378.938 146.424L378.078 134.789L381.261 134.593Z" fill="white"/>
<path d="M394.396 136.315L388.74 136.72L388.564 134.046L403.057 133.04L403.234 135.714L397.578 136.119L398.598 150.527L395.416 150.723L394.396 136.315Z" fill="white"/>
<path d="M425.578 131.402L426.774 148.484L423.592 148.68L423.049 141.369L414.211 141.97L414.754 149.281L411.572 149.477L410.375 132.395L413.558 132.199L414.034 139.296L422.872 138.695L422.395 131.598L425.578 131.402Z" fill="white"/>
<path d="M483.642 393.95L441.993 396.959C438.086 397.24 434.692 394.35 434.51 390.455L433.383 374.199C433.102 370.288 435.989 366.891 439.881 366.708L481.529 363.7C485.437 363.418 488.831 366.309 489.013 370.204L490.14 386.46C490.437 390.272 487.549 393.669 483.642 393.95Z" fill="url(#paint0_linear)"/>
<path d="M138.509 259.84C137.864 259.43 137.235 258.921 136.852 258.147C136.469 257.373 136.218 256.416 136.081 255.377C135.961 254.238 136.105 253.346 136.448 252.486C136.79 251.626 137.2 250.98 137.874 250.581C138.466 250.066 139.207 249.882 140.032 249.812C140.856 249.742 141.648 249.871 142.293 250.281C142.938 250.69 143.568 251.199 143.95 251.974C144.333 252.748 144.585 253.704 144.721 254.744C144.858 255.783 144.697 256.775 144.355 257.635C144.012 258.495 143.603 259.14 142.928 259.54C142.337 260.054 141.595 260.239 140.771 260.309C139.847 260.362 139.154 260.25 138.509 259.84ZM142.227 257.595C142.636 256.949 142.781 256.057 142.676 254.819C142.572 253.581 142.304 252.724 141.889 252.148C141.375 251.556 140.813 251.261 140.088 251.347C139.363 251.433 138.803 251.749 138.394 252.395C137.984 253.04 137.84 253.932 137.944 255.17C138.048 256.408 138.316 257.265 138.731 257.841C139.245 258.433 139.807 258.728 140.532 258.642C141.357 258.573 141.916 258.256 142.227 257.595Z" fill="#CFCFCF"/>
<path d="M150.501 249.171L151.272 259.47L149.326 259.561L148.694 250.913L146.534 251.071L146.395 249.421L150.501 249.171Z" fill="#CFCFCF"/>
<path d="M213.162 254.447C212.517 254.037 211.888 253.528 211.505 252.754C211.122 251.98 210.871 251.023 210.734 249.984C210.614 248.845 210.758 247.953 211.101 247.093C211.443 246.233 211.853 245.587 212.527 245.188C213.119 244.674 213.86 244.489 214.685 244.419C215.509 244.349 216.301 244.478 216.946 244.888C217.591 245.298 218.22 245.807 218.603 246.581C218.986 247.355 219.238 248.312 219.374 249.351C219.495 250.49 219.35 251.382 219.008 252.242C218.665 253.102 218.255 253.748 217.581 254.147C216.989 254.661 216.248 254.846 215.424 254.916C214.599 254.986 213.807 254.857 213.162 254.447ZM216.979 252.218C217.388 251.572 217.533 250.68 217.428 249.442C217.324 248.205 217.056 247.347 216.641 246.771C216.127 246.179 215.565 245.884 214.84 245.97C214.114 246.056 213.555 246.372 213.146 247.018C212.736 247.664 212.592 248.556 212.696 249.793C212.8 251.031 213.068 251.889 213.483 252.465C213.997 253.057 214.559 253.351 215.284 253.266C216.01 253.18 216.569 252.864 216.979 252.218Z" fill="#CFCFCF"/>
<path d="M229.694 252.145L229.833 253.795L222.231 254.291L222.127 253.054L225.952 248.893C226.329 248.445 226.706 247.998 226.754 247.701C226.918 247.32 226.966 247.023 226.915 246.709C226.896 246.198 226.647 245.852 226.382 245.606C226.018 245.343 225.523 245.263 224.897 245.365C223.874 245.402 223.085 245.884 222.56 246.613L221.187 245.678C221.58 245.132 222.057 244.7 222.731 244.301C223.39 244.001 224.147 243.717 224.972 243.647C226.109 243.527 226.984 243.77 227.713 244.296C228.441 244.821 228.839 245.496 228.893 246.42C228.912 246.932 228.815 247.526 228.636 248.006C228.457 248.486 228.047 249.131 227.44 249.745L224.846 252.579L229.694 252.145Z" fill="#CFCFCF"/>
<path d="M301.483 248.118C300.838 247.708 300.209 247.199 299.826 246.425C299.443 245.65 299.192 244.694 299.055 243.655C298.934 242.516 299.079 241.624 299.421 240.764C299.764 239.904 300.174 239.258 300.848 238.859C301.44 238.345 302.181 238.16 303.005 238.09C303.83 238.02 304.622 238.149 305.267 238.559C305.912 238.969 306.541 239.478 306.924 240.252C307.307 241.026 307.558 241.983 307.695 243.022C307.816 244.161 307.671 245.053 307.328 245.913C306.986 246.773 306.576 247.418 305.902 247.817C305.31 248.332 304.569 248.517 303.745 248.586C302.821 248.64 302.144 248.428 301.483 248.118ZM305.201 245.873C305.61 245.227 305.755 244.335 305.65 243.097C305.546 241.859 305.278 241.002 304.863 240.426C304.349 239.834 303.787 239.539 303.062 239.625C302.336 239.711 301.777 240.027 301.367 240.673C300.958 241.318 300.813 242.211 300.918 243.448C301.022 244.686 301.29 245.543 301.705 246.119C302.219 246.711 302.781 247.006 303.506 246.92C304.331 246.85 304.89 246.534 305.201 245.873Z" fill="#CFCFCF"/>
<path d="M316.746 242.354C317.276 242.847 317.575 243.506 317.645 244.331C317.648 244.942 317.567 245.437 317.273 246C316.995 246.464 316.617 246.911 315.959 247.211C315.399 247.527 314.658 247.712 313.735 247.766C313.009 247.851 312.316 247.739 311.623 247.627C310.93 247.514 310.367 247.219 309.805 246.925L310.557 245.419C310.921 245.682 311.385 245.96 311.979 246.057C312.557 246.252 313.068 246.233 313.678 246.231C314.404 246.145 314.832 246.011 315.193 245.663C315.555 245.314 315.718 244.934 315.683 244.521C315.648 244.109 315.415 243.664 315.051 243.401C314.687 243.139 314.093 243.042 313.368 243.128L312.444 243.182L312.356 241.845L314.454 238.93L309.821 239.297L309.682 237.647L316.673 237.154L316.778 238.391L314.532 241.588C315.439 241.633 316.216 241.861 316.746 242.354Z" fill="#CFCFCF"/>
<path d="M365.238 243.501C364.593 243.091 363.964 242.582 363.581 241.808C363.198 241.034 362.947 240.077 362.81 239.038C362.69 237.899 362.834 237.007 363.177 236.147C363.519 235.287 363.929 234.642 364.603 234.242C365.195 233.728 365.936 233.543 366.76 233.473C367.585 233.404 368.377 233.532 369.022 233.942C369.667 234.352 370.296 234.861 370.679 235.635C371.062 236.41 371.313 237.366 371.45 238.405C371.587 239.445 371.426 240.436 371.084 241.296C370.741 242.156 370.331 242.802 369.657 243.201C369.065 243.715 368.324 243.9 367.5 243.97C366.675 244.04 365.982 243.927 365.238 243.501ZM369.055 241.272C369.464 240.626 369.609 239.734 369.504 238.497C369.4 237.259 369.132 236.402 368.717 235.826C368.203 235.234 367.641 234.939 366.916 235.025C366.19 235.11 365.631 235.427 365.221 236.072C364.812 236.718 364.668 237.61 364.772 238.848C364.876 240.085 365.144 240.943 365.559 241.519C366.073 242.111 366.635 242.405 367.36 242.32C368.086 242.234 368.645 241.918 369.055 241.272Z" fill="#CFCFCF"/>
<path d="M383.531 240.365L381.684 240.472L381.81 242.832L379.963 242.939L379.837 240.579L374.182 240.984L374.093 239.647L378.681 232.66L380.742 232.485L376.417 239.108L379.813 238.846L379.639 236.783L381.387 236.659L381.561 238.722L383.408 238.615L383.531 240.365Z" fill="#CFCFCF"/>
<path d="M442.974 237.897C442.329 237.487 441.7 236.978 441.317 236.203C440.934 235.429 440.683 234.473 440.546 233.433C440.426 232.295 440.57 231.403 440.913 230.543C441.255 229.683 441.665 229.037 442.339 228.638C442.931 228.123 443.672 227.938 444.496 227.869C445.321 227.799 446.113 227.928 446.758 228.338C447.403 228.747 448.032 229.256 448.415 230.031C448.798 230.805 449.05 231.761 449.186 232.801C449.307 233.939 449.162 234.832 448.82 235.692C448.477 236.552 448.068 237.197 447.393 237.596C446.802 238.111 446.06 238.296 445.236 238.365C444.411 238.435 443.718 238.323 442.974 237.897ZM446.791 235.668C447.2 235.022 447.345 234.13 447.24 232.892C447.136 231.654 446.868 230.797 446.453 230.221C445.939 229.629 445.377 229.334 444.652 229.42C443.926 229.506 443.367 229.822 442.958 230.468C442.548 231.113 442.404 232.005 442.508 233.243C442.612 234.481 442.88 235.338 443.295 235.914C443.809 236.506 444.371 236.801 445.097 236.715C445.921 236.645 446.381 236.313 446.791 235.668Z" fill="#CFCFCF"/>
<path d="M458.285 231.835C459.013 232.36 459.412 233.035 459.45 234.058C459.452 234.669 459.356 235.264 459.078 235.728C458.783 236.29 458.422 236.638 457.747 237.038C457.188 237.354 456.446 237.539 455.523 237.592C454.798 237.678 454.104 237.566 453.411 237.453C452.718 237.341 452.156 237.046 451.594 236.751L452.247 235.23C452.611 235.492 453.074 235.771 453.668 235.867C454.246 236.063 454.757 236.044 455.368 236.041C456.093 235.955 456.521 235.821 456.883 235.473C457.244 235.125 457.407 234.744 457.388 234.233C457.37 233.721 457.137 233.276 456.658 233.097C456.195 232.818 455.485 232.805 454.463 232.842L451.99 233.051L452.096 227.372L458.164 226.932L458.304 228.583L453.884 228.883L453.796 231.31L454.819 231.272C456.468 231.133 457.557 231.31 458.285 231.835Z" fill="#CFCFCF"/>
<path d="M531.608 231.516C530.963 231.106 530.334 230.597 529.951 229.823C529.568 229.048 529.317 228.092 529.18 227.052C529.06 225.914 529.204 225.022 529.547 224.162C529.889 223.302 530.299 222.656 530.973 222.257C531.565 221.742 532.306 221.558 533.131 221.488C533.955 221.418 534.747 221.547 535.392 221.957C536.037 222.366 536.666 222.875 537.049 223.65C537.432 224.424 537.684 225.38 537.82 226.42C537.941 227.558 537.796 228.451 537.454 229.311C537.111 230.171 536.702 230.816 536.027 231.215C535.436 231.73 534.694 231.915 533.87 231.984C533.045 232.054 532.253 231.926 531.608 231.516ZM535.425 229.287C535.834 228.641 535.979 227.749 535.874 226.511C535.77 225.273 535.502 224.416 535.087 223.84C534.573 223.248 534.011 222.953 533.286 223.039C532.561 223.125 532.001 223.441 531.592 224.087C531.182 224.732 531.038 225.624 531.142 226.862C531.247 228.1 531.514 228.957 531.929 229.533C532.443 230.125 533.005 230.42 533.731 230.334C534.456 230.248 535.015 229.932 535.425 229.287Z" fill="#CFCFCF"/>
<path d="M547 224.958C547.578 225.153 548.025 225.531 548.357 225.992C548.689 226.453 548.906 226.996 548.908 227.607C549.01 228.234 548.799 228.912 548.52 229.375C548.242 229.839 547.766 230.27 547.305 230.602C546.746 230.919 546.103 231.119 545.394 231.106C543.959 231.178 542.902 230.803 542.008 230.048C541.13 229.193 540.713 228.007 540.573 226.356C540.453 225.218 540.613 224.227 540.956 223.367C541.298 222.507 541.906 221.893 542.596 221.395C543.287 220.896 544.144 220.628 545.166 220.591C545.677 220.572 546.188 220.553 546.684 220.634C547.179 220.714 547.559 220.877 547.939 221.041L547.286 222.563C546.724 222.268 546.13 222.172 545.305 222.241C544.283 222.279 543.608 222.678 543.1 223.308C542.591 223.937 542.348 224.813 542.468 225.952C542.731 225.587 543.092 225.239 543.52 225.105C543.964 224.872 544.492 224.754 545.102 224.751C545.827 224.666 546.438 224.663 547 224.958ZM546.54 229.054C546.901 228.706 547.064 228.325 546.962 227.698C546.944 227.187 546.711 226.742 546.347 226.479C545.983 226.217 545.405 226.021 544.778 226.123C544.168 226.126 543.724 226.359 543.362 226.707C543.001 227.055 542.822 227.535 542.84 228.047C542.859 228.558 543.108 228.904 543.456 229.266C543.82 229.528 544.398 229.724 545.025 229.622C545.734 229.635 546.277 229.418 546.54 229.054Z" fill="#CFCFCF"/>
<path d="M608.009 225.998C607.364 225.589 606.735 225.08 606.352 224.305C605.969 223.531 605.717 222.575 605.581 221.535C605.46 220.396 605.605 219.504 605.947 218.644C606.29 217.784 606.699 217.139 607.374 216.739C607.965 216.225 608.707 216.04 609.531 215.97C610.356 215.901 611.148 216.029 611.793 216.439C612.438 216.849 613.067 217.358 613.45 218.132C613.833 218.906 614.084 219.863 614.221 220.902C614.341 222.041 614.197 222.933 613.854 223.793C613.512 224.653 613.102 225.299 612.428 225.698C611.836 226.213 611.095 226.397 610.27 226.467C609.446 226.537 608.654 226.408 608.009 225.998ZM611.825 223.769C612.235 223.124 612.379 222.231 612.275 220.994C612.171 219.756 611.903 218.899 611.488 218.323C610.974 217.73 610.412 217.436 609.687 217.522C608.961 217.607 608.402 217.924 607.992 218.569C607.583 219.215 607.438 220.107 607.543 221.345C607.647 222.583 607.915 223.44 608.33 224.016C608.844 224.608 609.406 224.903 610.131 224.817C610.857 224.731 611.416 224.415 611.825 223.769Z" fill="#CFCFCF"/>
<path d="M624.222 214.998L624.326 216.236L620.986 225.562L618.925 225.736L622.201 216.806L618.194 217.072L618.317 218.821L616.569 218.944L616.307 215.545L624.222 214.998Z" fill="#CFCFCF"/>
<path d="M141.952 308.828C141.307 308.418 140.678 307.91 140.295 307.135C139.912 306.361 139.661 305.405 139.524 304.365C139.404 303.227 139.548 302.334 139.891 301.474C140.233 300.614 140.643 299.969 141.317 299.569C141.909 299.055 142.65 298.87 143.475 298.8C144.299 298.731 145.091 298.859 145.736 299.269C146.381 299.679 147.01 300.188 147.393 300.962C147.776 301.737 148.028 302.693 148.164 303.732C148.301 304.772 148.14 305.763 147.798 306.623C147.455 307.483 147.046 308.129 146.371 308.528C145.78 309.042 145.038 309.227 144.214 309.297C143.405 309.268 142.613 309.139 141.952 308.828ZM145.769 306.599C146.178 305.953 146.323 305.061 146.218 303.824C146.114 302.586 145.846 301.729 145.431 301.153C144.917 300.561 144.355 300.266 143.63 300.352C142.905 300.437 142.345 300.754 141.936 301.399C141.526 302.045 141.382 302.937 141.486 304.175C141.591 305.413 141.858 306.27 142.273 306.846C142.787 307.438 143.349 307.733 144.075 307.647C144.8 307.561 145.375 307.146 145.769 306.599Z" fill="#CFCFCF"/>
<path d="M158.851 303.634C159.199 303.995 159.317 304.523 159.434 305.051C159.437 305.662 159.341 306.256 159.062 306.72C158.784 307.183 158.308 307.615 157.649 307.915C156.991 308.215 156.348 308.416 155.425 308.469C154.601 308.539 153.808 308.411 153.23 308.215C152.652 308.019 152.09 307.725 151.659 307.248C151.327 306.787 151.11 306.243 151.008 305.616C150.99 305.105 151.07 304.609 151.348 304.146C151.627 303.682 151.988 303.334 152.531 303.117C152.052 302.937 151.787 302.691 151.538 302.345C151.289 302 151.155 301.571 151.137 301.059C151.134 300.448 151.214 299.953 151.493 299.489C151.771 299.026 152.231 298.694 152.791 298.377C153.35 298.061 153.976 297.959 154.801 297.89C155.526 297.804 156.219 297.917 156.797 298.112C157.376 298.308 157.839 298.586 158.171 299.047C158.519 299.409 158.735 299.953 158.738 300.563C158.757 301.075 158.693 301.472 158.529 301.852C158.366 302.232 158.005 302.581 157.66 302.83C158.056 302.894 158.503 303.272 158.851 303.634ZM156.884 306.366C157.245 306.018 157.408 305.638 157.389 305.126C157.371 304.614 157.122 304.269 156.659 303.99C156.196 303.711 155.7 303.631 154.975 303.717C154.25 303.803 153.722 303.92 153.361 304.269C153 304.617 152.836 304.997 152.855 305.509C152.874 306.021 153.107 306.466 153.586 306.645C154.049 306.924 154.544 307.004 155.27 306.918C155.979 306.932 156.522 306.715 156.884 306.366ZM153.358 299.894C153.013 300.143 152.85 300.523 152.868 301.035C152.903 301.448 153.152 301.793 153.417 302.04C153.781 302.302 154.276 302.383 154.887 302.38C155.497 302.377 155.941 302.144 156.286 301.895C156.632 301.646 156.795 301.265 156.76 300.853C156.725 300.44 156.492 299.995 156.112 299.832C155.748 299.57 155.253 299.489 154.627 299.591C154.148 299.412 153.719 299.545 153.358 299.894Z" fill="#CFCFCF"/>
<path d="M216.704 303.451C216.059 303.041 215.43 302.532 215.047 301.758C214.664 300.984 214.413 300.028 214.276 298.988C214.156 297.849 214.3 296.957 214.643 296.097C214.985 295.237 215.395 294.592 216.069 294.193C216.661 293.678 217.402 293.493 218.227 293.424C219.051 293.354 219.843 293.483 220.488 293.892C221.134 294.302 221.763 294.811 222.145 295.585C222.528 296.36 222.78 297.316 222.916 298.356C223.037 299.494 222.892 300.386 222.55 301.246C222.207 302.106 221.798 302.752 221.123 303.151C220.532 303.665 219.79 303.85 218.966 303.92C218.043 303.974 217.365 303.762 216.704 303.451ZM220.422 301.206C220.831 300.56 220.976 299.668 220.871 298.431C220.767 297.193 220.499 296.336 220.084 295.76C219.57 295.168 219.008 294.873 218.283 294.959C217.558 295.044 216.998 295.361 216.589 296.006C216.179 296.652 216.035 297.544 216.139 298.782C216.244 300.019 216.511 300.877 216.926 301.453C217.44 302.045 218.002 302.339 218.728 302.254C219.552 302.184 220.111 301.868 220.422 301.206Z" fill="#CFCFCF"/>
<path d="M232.015 293.626C232.893 294.48 233.311 295.667 233.45 297.317C233.57 298.456 233.41 299.447 233.067 300.307C232.725 301.167 232.117 301.781 231.426 302.279C230.736 302.777 229.879 303.045 228.857 303.083C228.346 303.102 227.834 303.121 227.339 303.04C226.844 302.96 226.464 302.796 226.084 302.633L226.737 301.111C227.299 301.406 227.893 301.502 228.718 301.433C229.74 301.395 230.415 300.996 230.923 300.366C231.432 299.737 231.675 298.861 231.555 297.722C231.292 298.086 230.931 298.435 230.503 298.569C230.059 298.802 229.531 298.92 228.921 298.922C228.196 299.008 227.601 298.912 227.039 298.617C226.477 298.322 226.014 298.044 225.682 297.583C225.35 297.122 225.133 296.578 225.131 295.968C225.029 295.341 225.24 294.663 225.519 294.199C225.813 293.637 226.274 293.305 226.734 292.972C227.293 292.656 227.936 292.455 228.645 292.469C230.064 292.495 231.236 292.787 232.015 293.626ZM230.661 296.967C231.022 296.618 231.201 296.139 231.183 295.627C231.164 295.115 230.915 294.77 230.567 294.408C230.203 294.146 229.625 293.95 228.998 294.052C228.388 294.055 227.944 294.288 227.583 294.636C227.221 294.984 227.058 295.365 227.16 295.992C227.178 296.503 227.411 296.948 227.775 297.211C228.139 297.473 228.718 297.669 229.344 297.567C229.772 297.433 230.299 297.315 230.661 296.967Z" fill="#CFCFCF"/>
<path d="M305.724 287.163L306.495 297.461L304.549 297.552L303.917 288.904L301.757 289.062L301.618 287.412L305.724 287.163Z" fill="#CFCFCF"/>
<path d="M312.031 296.528C311.386 296.119 310.757 295.61 310.374 294.835C309.992 294.061 309.74 293.105 309.603 292.065C309.483 290.927 309.627 290.035 309.97 289.175C310.313 288.315 310.722 287.669 311.397 287.27C311.988 286.755 312.729 286.571 313.554 286.501C314.378 286.431 315.171 286.56 315.816 286.97C316.461 287.379 317.09 287.888 317.472 288.663C317.855 289.437 318.107 290.393 318.243 291.433C318.364 292.571 318.219 293.463 317.877 294.323C317.534 295.183 317.125 295.829 316.45 296.228C315.859 296.743 315.117 296.928 314.293 296.997C313.469 297.067 312.676 296.938 312.031 296.528ZM315.848 294.299C316.258 293.654 316.402 292.762 316.298 291.524C316.193 290.286 315.925 289.429 315.511 288.853C314.997 288.261 314.434 287.966 313.709 288.052C312.984 288.138 312.424 288.454 312.015 289.1C311.605 289.745 311.461 290.637 311.565 291.875C311.67 293.113 311.938 293.97 312.352 294.546C312.866 295.138 313.428 295.433 314.154 295.347C314.879 295.261 315.439 294.945 315.848 294.299Z" fill="#CFCFCF"/>
<path d="M369.578 282.562L370.349 292.861L368.403 292.952L367.771 284.304L365.611 284.462L365.472 282.812L369.578 282.562Z" fill="#CFCFCF"/>
<path d="M376.568 282.069L377.339 292.368L375.393 292.459L374.761 283.811L372.601 283.969L372.462 282.319L376.568 282.069Z" fill="#CFCFCF"/>
<path d="M447.314 276.958L448.085 287.256L446.139 287.347L445.507 278.699L443.347 278.857L443.208 277.207L447.314 276.958Z" fill="#CFCFCF"/>
<path d="M458.844 284.831L458.983 286.481L451.381 286.977L451.277 285.74L455.101 281.579C455.479 281.131 455.856 280.684 455.904 280.387C456.068 280.006 456.116 279.709 456.065 279.395C456.046 278.884 455.797 278.538 455.532 278.292C455.168 278.029 454.673 277.949 454.047 278.051C453.024 278.088 452.235 278.57 451.71 279.299L450.337 278.364C450.73 277.818 451.207 277.386 451.881 276.987C452.54 276.687 453.297 276.403 454.122 276.333C455.259 276.213 456.134 276.456 456.862 276.982C457.591 277.507 457.989 278.182 458.043 279.106C458.062 279.618 457.965 280.212 457.786 280.692C457.607 281.172 457.197 281.817 456.59 282.431L453.996 285.265L458.844 284.831Z" fill="#CFCFCF"/>
<path d="M535.948 270.576L536.719 280.875L534.773 280.966L534.141 272.318L531.981 272.476L531.842 270.826L535.948 270.576Z" fill="#CFCFCF"/>
<path d="M546.292 275.104C546.822 275.597 547.122 276.256 547.191 277.081C547.194 277.692 547.114 278.187 546.819 278.75C546.541 279.213 546.164 279.661 545.505 279.961C544.946 280.277 544.204 280.462 543.281 280.516C542.556 280.601 541.862 280.489 541.169 280.376C540.476 280.264 539.914 279.969 539.352 279.674L540.104 278.169C540.468 278.431 540.931 278.71 541.525 278.806C542.103 279.002 542.614 278.983 543.225 278.98C543.95 278.895 544.378 278.761 544.74 278.412C545.101 278.064 545.264 277.684 545.229 277.271C545.195 276.859 544.962 276.414 544.598 276.151C544.234 275.889 543.639 275.792 542.914 275.878L541.991 275.932L541.902 274.595L544 271.68L539.367 272.047L539.228 270.397L546.219 269.904L546.324 271.141L544.078 274.338C545.002 274.284 545.762 274.611 546.292 275.104Z" fill="#CFCFCF"/>
<path d="M612.249 265.044L613.021 275.343L611.075 275.434L610.443 266.786L608.283 266.944L608.143 265.294L612.249 265.044Z" fill="#CFCFCF"/>
<path d="M625.54 272.084L623.693 272.192L623.819 274.552L621.972 274.659L621.846 272.299L616.191 272.704L616.102 271.367L620.69 264.38L622.751 264.205L618.426 270.828L621.822 270.565L621.648 268.503L623.396 268.379L623.57 270.442L625.417 270.335L625.54 272.084Z" fill="#CFCFCF"/>
<path d="M146.118 345.826L146.89 356.124L144.944 356.215L144.311 347.567L142.151 347.725L142.012 346.075L146.118 345.826Z" fill="#CFCFCF"/>
<path d="M156.328 349.925C157.056 350.45 157.455 351.125 157.493 352.148C157.495 352.759 157.399 353.354 157.121 353.817C156.826 354.38 156.465 354.728 155.79 355.127C155.231 355.443 154.49 355.628 153.566 355.682C152.841 355.768 152.148 355.655 151.454 355.543C150.761 355.43 150.199 355.136 149.637 354.841L150.29 353.319C150.654 353.582 151.117 353.86 151.711 353.957C152.289 354.152 152.801 354.133 153.411 354.131C154.136 354.045 154.565 353.911 154.926 353.563C155.287 353.214 155.45 352.834 155.432 352.322C155.413 351.811 155.18 351.366 154.701 351.186C154.238 350.908 153.529 350.894 152.506 350.932L150.033 351.141L150.14 345.461L156.208 345.022L156.347 346.672L151.928 346.972L151.839 349.4L152.862 349.362C154.511 349.223 155.6 349.399 156.328 349.925Z" fill="#CFCFCF"/>
<path d="M220.771 340.433L221.542 350.732L219.597 350.823L218.964 342.175L216.804 342.333L216.665 340.682L220.771 340.433Z" fill="#CFCFCF"/>
<path d="M231.061 344.036C231.64 344.232 232.087 344.609 232.418 345.07C232.75 345.531 232.967 346.075 232.97 346.686C233.072 347.313 232.86 347.99 232.582 348.454C232.287 349.016 231.827 349.349 231.367 349.681C230.807 349.997 230.165 350.198 229.456 350.185C228.021 350.257 226.964 349.882 226.07 349.127C225.192 348.272 224.774 347.085 224.635 345.435C224.514 344.296 224.675 343.305 225.017 342.445C225.36 341.585 225.968 340.972 226.658 340.473C227.349 339.975 228.205 339.707 229.228 339.669C229.739 339.651 230.25 339.632 230.745 339.712C231.241 339.793 231.621 339.956 232.001 340.119L231.348 341.641C230.786 341.346 230.191 341.25 229.367 341.32C228.344 341.357 227.67 341.757 227.161 342.386C226.653 343.016 226.409 343.892 226.53 345.03C226.792 344.666 227.154 344.318 227.582 344.184C228.026 343.951 228.553 343.833 229.164 343.83C229.889 343.744 230.499 343.742 231.061 344.036ZM230.7 348.149C231.062 347.8 231.225 347.42 231.123 346.793C231.104 346.281 230.871 345.837 230.507 345.574C230.143 345.311 229.565 345.116 228.939 345.218C228.329 345.22 227.884 345.454 227.523 345.802C227.162 346.15 226.982 346.63 227.001 347.141C227.02 347.653 227.269 347.999 227.617 348.36C227.981 348.623 228.559 348.818 229.185 348.717C229.895 348.73 230.339 348.497 230.7 348.149Z" fill="#CFCFCF"/>
<path d="M309.092 334.103L309.863 344.401L307.917 344.493L307.285 335.845L305.125 336.003L304.986 334.352L309.092 334.103Z" fill="#CFCFCF"/>
<path d="M320.303 333.278L320.407 334.515L317.067 343.842L315.006 344.016L318.282 335.086L314.275 335.352L314.398 337.101L312.651 337.224L312.388 333.825L320.303 333.278Z" fill="#CFCFCF"/>
<path d="M372.847 329.486L373.619 339.785L371.673 339.876L371.04 331.228L368.88 331.386L368.741 329.736L372.847 329.486Z" fill="#CFCFCF"/>
<path d="M384.743 334.469C385.091 334.831 385.209 335.359 385.327 335.886C385.33 336.497 385.233 337.092 384.955 337.555C384.677 338.019 384.2 338.45 383.542 338.75C382.883 339.05 382.241 339.251 381.318 339.305C380.493 339.375 379.701 339.246 379.123 339.051C378.445 338.839 377.982 338.56 377.551 338.084C377.22 337.623 377.003 337.079 376.901 336.452C376.882 335.94 376.962 335.445 377.241 334.981C377.519 334.518 377.88 334.169 378.424 333.952C377.945 333.773 377.68 333.526 377.431 333.181C377.182 332.835 377.048 332.407 377.029 331.895C377.027 331.284 377.107 330.788 377.385 330.325C377.663 329.862 378.124 329.529 378.683 329.213C379.243 328.897 379.869 328.795 380.693 328.725C381.419 328.64 382.112 328.752 382.69 328.948C383.268 329.143 383.731 329.422 384.063 329.883C384.411 330.244 384.628 330.788 384.631 331.399C384.65 331.911 384.585 332.307 384.422 332.688C384.259 333.068 383.898 333.416 383.552 333.666C383.932 333.829 384.395 334.108 384.743 334.469ZM382.76 337.301C383.121 336.953 383.285 336.572 383.266 336.061C383.247 335.549 382.998 335.203 382.535 334.925C382.072 334.646 381.577 334.566 380.852 334.652C380.126 334.737 379.599 334.855 379.238 335.204C378.876 335.552 378.713 335.932 378.732 336.444C378.751 336.956 378.983 337.4 379.463 337.58C379.942 337.759 380.421 337.939 381.146 337.853C381.872 337.767 382.415 337.55 382.76 337.301ZM379.251 330.729C378.905 330.979 378.742 331.359 378.761 331.871C378.796 332.283 379.045 332.629 379.31 332.875C379.674 333.138 380.169 333.218 380.779 333.216C381.39 333.213 381.834 332.98 382.179 332.731C382.524 332.481 382.688 332.101 382.653 331.688C382.618 331.276 382.385 330.831 382.005 330.668C381.641 330.405 381.146 330.325 380.519 330.427C380.024 330.346 379.596 330.48 379.251 330.729Z" fill="#CFCFCF"/>
<path d="M450.682 323.898L451.454 334.196L449.508 334.287L448.875 325.639L446.715 325.797L446.576 324.147L450.682 323.898Z" fill="#CFCFCF"/>
<path d="M460.975 324.348C461.853 325.202 462.271 326.389 462.41 328.039C462.53 329.178 462.37 330.169 462.027 331.029C461.685 331.889 461.077 332.503 460.387 333.001C459.696 333.5 458.839 333.768 457.817 333.805C457.306 333.824 456.795 333.843 456.299 333.762C455.804 333.682 455.424 333.519 455.044 333.355L455.697 331.833C456.259 332.128 456.853 332.224 457.678 332.155C458.7 332.117 459.375 331.718 459.883 331.088C460.392 330.459 460.635 329.583 460.515 328.444C460.253 328.808 459.891 329.157 459.463 329.291C459.019 329.524 458.491 329.642 457.881 329.644C457.156 329.73 456.561 329.634 455.999 329.339C455.421 329.144 454.974 328.766 454.642 328.305C454.31 327.844 454.094 327.3 454.091 326.69C453.989 326.063 454.201 325.385 454.479 324.921C454.773 324.359 455.234 324.026 455.694 323.694C456.253 323.378 456.896 323.177 457.605 323.19C459.04 323.118 460.097 323.493 460.975 324.348ZM459.538 327.573C459.899 327.225 460.078 326.746 460.06 326.234C460.041 325.722 459.792 325.377 459.444 325.015C459.08 324.752 458.502 324.557 457.876 324.659C457.265 324.661 456.821 324.894 456.46 325.243C456.098 325.591 455.935 325.971 456.037 326.598C456.056 327.11 456.288 327.555 456.652 327.817C457.016 328.08 457.595 328.275 458.221 328.174C458.732 328.155 459.176 327.922 459.538 327.573Z" fill="#CFCFCF"/>
<path d="M543.757 325.867L543.896 327.517L536.294 328.013L536.19 326.776L540.015 322.615C540.392 322.168 540.77 321.72 540.818 321.423C540.981 321.042 541.029 320.745 540.978 320.431C540.96 319.92 540.711 319.574 540.446 319.328C540.082 319.065 539.586 318.985 538.96 319.087C537.938 319.124 537.148 319.606 536.623 320.335L535.25 319.4C535.644 318.854 536.12 318.422 536.795 318.023C537.453 317.723 538.21 317.439 539.035 317.369C540.172 317.249 541.048 317.493 541.776 318.018C542.504 318.543 542.903 319.218 542.956 320.142C542.975 320.654 542.879 321.248 542.699 321.728C542.52 322.208 542.111 322.853 541.503 323.467L538.909 326.301L543.757 325.867Z" fill="#CFCFCF"/>
<path d="M548.41 326.623C547.765 326.213 547.136 325.704 546.753 324.93C546.37 324.155 546.118 323.199 545.982 322.159C545.861 321.021 546.006 320.129 546.348 319.269C546.691 318.409 547.1 317.763 547.775 317.364C548.366 316.85 549.108 316.665 549.932 316.595C550.757 316.525 551.549 316.654 552.194 317.064C552.839 317.474 553.468 317.983 553.851 318.757C554.234 319.531 554.485 320.487 554.622 321.527C554.742 322.665 554.598 323.558 554.255 324.418C553.913 325.278 553.503 325.923 552.829 326.322C552.237 326.837 551.496 327.022 550.671 327.091C549.847 327.161 549.154 327.049 548.41 326.623ZM552.226 324.393C552.636 323.748 552.78 322.856 552.676 321.618C552.572 320.38 552.304 319.523 551.889 318.947C551.375 318.355 550.813 318.06 550.088 318.146C549.362 318.232 548.803 318.548 548.393 319.194C547.984 319.839 547.839 320.731 547.944 321.969C548.048 323.207 548.316 324.064 548.731 324.64C549.245 325.232 549.807 325.527 550.532 325.441C551.341 325.471 551.817 325.039 552.226 324.393Z" fill="#CFCFCF"/>
<path d="M620.157 320.352L620.296 322.003L612.695 322.499L612.59 321.261L616.415 317.1C616.792 316.653 617.17 316.205 617.218 315.908C617.381 315.527 617.429 315.23 617.379 314.917C617.36 314.405 617.111 314.059 616.846 313.813C616.482 313.55 615.987 313.47 615.36 313.572C614.338 313.609 613.548 314.092 613.024 314.82L611.651 313.885C612.044 313.339 612.521 312.908 613.195 312.508C613.853 312.208 614.611 311.924 615.435 311.855C616.573 311.734 617.448 311.978 618.176 312.503C618.904 313.028 619.303 313.703 619.357 314.627C619.375 315.139 619.279 315.734 619.1 316.213C618.92 316.693 618.511 317.338 617.903 317.952L615.31 320.787L620.157 320.352Z" fill="#CFCFCF"/>
<path d="M625.592 311.263L626.364 321.561L624.418 321.653L623.786 313.004L621.626 313.162L621.486 311.512L625.592 311.263Z" fill="#CFCFCF"/>
<path d="M154.117 403.08L154.256 404.731L146.655 405.227L146.55 403.989L150.375 399.828C150.752 399.381 151.13 398.933 151.178 398.636C151.341 398.256 151.389 397.958 151.338 397.645C151.32 397.133 151.071 396.787 150.806 396.541C150.442 396.278 149.947 396.198 149.32 396.3C148.298 396.337 147.508 396.82 146.984 397.548L145.61 396.614C146.004 396.067 146.48 395.636 147.155 395.236C147.813 394.936 148.571 394.652 149.395 394.583C150.533 394.462 151.408 394.706 152.136 395.231C152.864 395.756 153.263 396.431 153.316 397.355C153.335 397.867 153.239 398.462 153.06 398.941C152.88 399.421 152.471 400.066 151.863 400.68L149.27 403.515L154.117 403.08Z" fill="#CFCFCF"/>
<path d="M164.091 402.359L164.23 404.01L156.629 404.506L156.524 403.268L160.349 399.107C160.726 398.66 161.104 398.212 161.152 397.915C161.315 397.535 161.363 397.237 161.313 396.924C161.294 396.412 161.045 396.067 160.78 395.82C160.416 395.558 159.921 395.477 159.294 395.579C158.272 395.617 157.482 396.099 156.958 396.828L155.585 395.893C155.978 395.346 156.454 394.915 157.129 394.516C157.787 394.215 158.545 393.931 159.369 393.862C160.507 393.741 161.382 393.985 162.11 394.51C162.838 395.035 163.237 395.71 163.29 396.634C163.309 397.146 163.213 397.741 163.034 398.22C162.854 398.7 162.445 399.346 161.837 399.959L159.244 402.794L164.091 402.359Z" fill="#CFCFCF"/>
<path d="M228.77 397.689L228.909 399.339L221.307 399.835L221.203 398.597L225.028 394.437C225.405 393.989 225.782 393.542 225.831 393.244C225.994 392.864 226.042 392.567 225.991 392.253C225.972 391.742 225.724 391.396 225.459 391.15C225.094 390.887 224.599 390.807 223.973 390.908C222.951 390.946 222.161 391.428 221.636 392.157L220.263 391.222C220.657 390.676 221.133 390.244 221.808 389.845C222.466 389.545 223.223 389.261 224.048 389.191C225.185 389.071 226.061 389.314 226.789 389.839C227.517 390.364 227.916 391.04 227.969 391.964C227.988 392.476 227.892 393.07 227.712 393.55C227.533 394.029 227.123 394.675 226.516 395.289L223.922 398.123L228.77 397.689Z" fill="#CFCFCF"/>
<path d="M237.658 393.636C238.188 394.129 238.488 394.788 238.557 395.613C238.56 396.224 238.48 396.72 238.185 397.283C237.907 397.746 237.53 398.193 236.871 398.494C236.213 398.794 235.57 398.995 234.647 399.048C233.922 399.134 233.228 399.021 232.535 398.909C231.842 398.796 231.28 398.502 230.718 398.207L231.47 396.701C231.834 396.964 232.297 397.243 232.891 397.339C233.469 397.535 233.98 397.516 234.591 397.513C235.316 397.427 235.744 397.293 236.106 396.945C236.467 396.597 236.63 396.216 236.595 395.804C236.56 395.391 236.328 394.946 235.964 394.684C235.599 394.421 235.005 394.325 234.28 394.411L233.356 394.464L233.268 393.127L235.366 390.212L230.733 390.58L230.594 388.929L237.585 388.436L237.69 389.674L235.444 392.87C236.368 392.816 237.128 393.143 237.658 393.636Z" fill="#CFCFCF"/>
<path d="M317.091 391.359L317.23 393.009L309.629 393.505L309.524 392.267L313.349 388.106C313.726 387.659 314.104 387.212 314.152 386.914C314.315 386.534 314.363 386.236 314.312 385.923C314.294 385.411 314.045 385.066 313.78 384.819C313.416 384.557 312.92 384.476 312.294 384.578C311.272 384.616 310.482 385.098 309.957 385.827L308.584 384.892C308.978 384.345 309.454 383.914 310.129 383.515C310.787 383.215 311.544 382.931 312.369 382.861C313.506 382.74 314.382 382.984 315.11 383.509C315.838 384.034 316.237 384.709 316.29 385.634C316.309 386.145 316.213 386.74 316.033 387.22C315.854 387.699 315.445 388.345 314.837 388.958L312.244 391.793L317.091 391.359Z" fill="#CFCFCF"/>
<path d="M328.513 389.854L326.667 389.961L326.792 392.321L324.946 392.429L324.82 390.068L319.164 390.473L319.076 389.136L323.663 382.149L325.724 381.975L321.399 388.597L324.796 388.335L324.621 386.272L326.369 386.149L326.543 388.212L328.39 388.104L328.513 389.854Z" fill="#CFCFCF"/>
<path d="M380.945 386.758L381.084 388.408L373.483 388.904L373.378 387.667L377.203 383.506C377.58 383.059 377.958 382.611 378.006 382.314C378.169 381.933 378.217 381.636 378.166 381.323C378.148 380.811 377.899 380.465 377.634 380.219C377.27 379.956 376.774 379.876 376.148 379.978C375.126 380.015 374.336 380.498 373.811 381.226L372.438 380.291C372.832 379.745 373.308 379.314 373.983 378.914C374.641 378.614 375.399 378.33 376.223 378.261C377.36 378.14 378.236 378.384 378.964 378.909C379.692 379.434 380.091 380.109 380.144 381.033C380.163 381.545 380.067 382.14 379.887 382.619C379.708 383.099 379.299 383.744 378.691 384.358L376.098 387.192L380.945 386.758Z" fill="#CFCFCF"/>
<path d="M389.6 382.261C390.328 382.786 390.727 383.461 390.764 384.485C390.767 385.095 390.671 385.69 390.392 386.154C390.098 386.716 389.737 387.065 389.062 387.464C388.503 387.78 387.761 387.965 386.838 388.018C386.112 388.104 385.419 387.992 384.726 387.879C384.033 387.767 383.471 387.472 382.908 387.177L383.562 385.656C383.926 385.918 384.389 386.197 384.983 386.293C385.561 386.489 386.072 386.47 386.683 386.467C387.408 386.381 387.836 386.247 388.197 385.899C388.559 385.551 388.722 385.17 388.703 384.659C388.685 384.147 388.452 383.702 387.973 383.523C387.509 383.244 386.8 383.231 385.778 383.268L383.304 383.477L383.411 377.798L389.479 377.358L389.618 379.008L385.199 379.309L385.111 381.736L386.134 381.698C387.782 381.559 388.872 381.736 389.6 382.261Z" fill="#CFCFCF"/>
<path d="M547.315 374.773L547.454 376.423L539.853 376.919L539.748 375.681L543.573 371.521C543.95 371.073 544.328 370.626 544.376 370.328C544.539 369.948 544.587 369.651 544.536 369.337C544.518 368.825 544.269 368.48 544.004 368.233C543.64 367.971 543.144 367.89 542.518 367.992C541.496 368.03 540.706 368.512 540.181 369.241L538.808 368.306C539.202 367.759 539.678 367.328 540.353 366.929C541.011 366.629 541.769 366.345 542.593 366.275C543.731 366.154 544.606 366.398 545.334 366.923C546.062 367.448 546.461 368.123 546.514 369.048C546.533 369.559 546.437 370.154 546.257 370.634C546.078 371.113 545.669 371.759 545.061 372.372L542.468 375.207L547.315 374.773Z" fill="#CFCFCF"/>
<path d="M556.856 365.434L556.96 366.672L553.62 375.998L551.559 376.172L554.835 367.242L550.828 367.508L550.951 369.257L549.204 369.381L548.941 365.981L556.856 365.434Z" fill="#CFCFCF"/>
<path d="M623.617 369.241L623.756 370.891L616.154 371.387L616.05 370.149L619.874 365.988C620.252 365.541 620.629 365.093 620.677 364.796C620.841 364.416 620.889 364.118 620.838 363.805C620.819 363.293 620.57 362.948 620.305 362.701C619.941 362.439 619.446 362.358 618.82 362.46C617.797 362.498 617.008 362.98 616.483 363.709L615.11 362.774C615.503 362.227 615.98 361.796 616.654 361.397C617.313 361.097 618.07 360.813 618.895 360.743C620.032 360.622 620.907 360.866 621.635 361.391C622.364 361.916 622.762 362.591 622.816 363.515C622.835 364.027 622.738 364.622 622.559 365.101C622.38 365.581 621.97 366.227 621.363 366.84L618.769 369.675L623.617 369.241Z" fill="#CFCFCF"/>
<path d="M633.942 365.726C634.29 366.088 634.407 366.615 634.525 367.143C634.528 367.754 634.432 368.349 634.153 368.812C633.875 369.276 633.399 369.707 632.74 370.007C632.082 370.307 631.439 370.508 630.516 370.562C629.691 370.632 628.899 370.503 628.321 370.308C627.743 370.112 627.181 369.817 626.75 369.34C626.418 368.88 626.201 368.336 626.099 367.709C626.081 367.197 626.161 366.701 626.439 366.238C626.717 365.774 627.079 365.426 627.622 365.209C627.143 365.03 626.878 364.783 626.629 364.438C626.38 364.092 626.246 363.663 626.228 363.152C626.225 362.541 626.305 362.045 626.583 361.582C626.862 361.118 627.322 360.786 627.881 360.47C628.441 360.154 629.067 360.052 629.892 359.982C630.617 359.896 631.31 360.009 631.888 360.204C632.467 360.4 632.93 360.679 633.262 361.139C633.61 361.501 633.826 362.045 633.829 362.656C633.848 363.167 633.784 363.564 633.62 363.944C633.457 364.325 633.096 364.673 632.75 364.922C633.131 365.086 633.594 365.364 633.942 365.726ZM631.958 368.558C632.32 368.21 632.483 367.829 632.464 367.317C632.446 366.806 632.197 366.46 631.733 366.182C631.27 365.903 630.775 365.823 630.05 365.908C629.324 365.994 628.797 366.112 628.436 366.46C628.075 366.809 627.911 367.189 627.93 367.701C627.949 368.212 628.182 368.657 628.661 368.837C629.14 369.016 629.619 369.196 630.344 369.11C631.07 369.024 631.613 368.807 631.958 368.558ZM628.449 361.986C628.104 362.235 627.94 362.616 627.959 363.127C627.994 363.54 628.243 363.886 628.508 364.132C628.872 364.395 629.367 364.475 629.978 364.472C630.588 364.47 631.032 364.237 631.377 363.987C631.723 363.738 631.886 363.358 631.851 362.945C631.816 362.533 631.583 362.088 631.203 361.924C630.839 361.662 630.344 361.582 629.718 361.683C629.239 361.504 628.794 361.737 628.449 361.986Z" fill="#CFCFCF"/>
<path d="M157.485 450.022L157.625 451.672L150.023 452.168L149.919 450.931L153.743 446.77C154.121 446.322 154.498 445.875 154.546 445.578C154.709 445.197 154.758 444.9 154.707 444.586C154.688 444.075 154.439 443.729 154.174 443.483C153.81 443.22 153.315 443.14 152.688 443.242C151.666 443.279 150.876 443.761 150.352 444.49L148.979 443.555C149.372 443.009 149.849 442.577 150.523 442.178C151.181 441.878 151.939 441.594 152.763 441.524C153.901 441.404 154.776 441.647 155.504 442.172C156.232 442.698 156.631 443.373 156.685 444.297C156.703 444.809 156.607 445.403 156.428 445.883C156.249 446.362 155.839 447.008 155.231 447.622L152.638 450.456L157.485 450.022Z" fill="#CFCFCF"/>
<path d="M166.223 441.876C167.101 442.73 167.519 443.917 167.658 445.567C167.778 446.706 167.618 447.697 167.275 448.557C166.933 449.417 166.325 450.031 165.635 450.529C164.944 451.027 164.088 451.295 163.065 451.333C162.554 451.352 162.043 451.37 161.547 451.29C161.052 451.21 160.672 451.046 160.292 450.883L160.945 449.361C161.507 449.656 162.101 449.752 162.926 449.683C163.948 449.645 164.623 449.246 165.131 448.616C165.64 447.987 165.883 447.111 165.763 445.972C165.501 446.336 165.139 446.685 164.711 446.819C164.267 447.052 163.739 447.17 163.129 447.172C162.404 447.258 161.81 447.162 161.247 446.867C160.669 446.671 160.222 446.294 159.89 445.833C159.558 445.372 159.342 444.828 159.339 444.217C159.237 443.591 159.448 442.913 159.727 442.449C160.021 441.887 160.482 441.554 160.942 441.222C161.501 440.906 162.144 440.705 162.853 440.718C164.288 440.646 165.345 441.021 166.223 441.876ZM164.786 445.101C165.147 444.753 165.326 444.274 165.308 443.762C165.289 443.25 165.04 442.905 164.692 442.543C164.328 442.28 163.75 442.085 163.123 442.187C162.513 442.189 162.069 442.422 161.708 442.771C161.346 443.119 161.183 443.499 161.285 444.126C161.303 444.638 161.536 445.083 161.9 445.345C162.264 445.608 162.843 445.803 163.469 445.702C163.98 445.683 164.408 445.549 164.786 445.101Z" fill="#CFCFCF"/>
<path d="M231.052 441.299C231.582 441.791 231.881 442.45 231.951 443.276C231.954 443.886 231.873 444.382 231.579 444.945C231.301 445.408 230.923 445.856 230.265 446.156C229.606 446.456 228.964 446.657 228.041 446.71C227.315 446.796 226.622 446.684 225.929 446.571C225.236 446.459 224.673 446.164 224.111 445.869L224.863 444.364C225.227 444.626 225.69 444.905 226.285 445.001C226.863 445.197 227.374 445.178 227.984 445.175C228.71 445.09 229.138 444.956 229.499 444.607C229.861 444.259 230.024 443.879 229.989 443.466C229.954 443.053 229.721 442.609 229.357 442.346C228.993 442.084 228.399 441.987 227.674 442.073L226.75 442.127L226.662 440.79L228.76 437.875L224.127 438.242L223.988 436.592L230.979 436.098L231.084 437.336L228.838 440.532C229.761 440.479 230.522 440.806 231.052 441.299Z" fill="#CFCFCF"/>
<path d="M236.89 445.4C236.245 444.99 235.616 444.481 235.233 443.707C234.851 442.933 234.599 441.976 234.462 440.937C234.342 439.798 234.486 438.906 234.829 438.046C235.172 437.186 235.581 436.54 236.256 436.141C236.847 435.627 237.588 435.442 238.413 435.372C239.237 435.303 240.03 435.431 240.675 435.841C241.32 436.251 241.949 436.76 242.332 437.534C242.714 438.308 242.966 439.265 243.102 440.304C243.223 441.443 243.079 442.335 242.736 443.195C242.393 444.055 241.984 444.7 241.309 445.1C240.718 445.614 239.976 445.799 239.152 445.869C238.328 445.938 237.535 445.81 236.89 445.4ZM240.707 443.171C241.117 442.525 241.261 441.633 241.157 440.395C241.052 439.158 240.784 438.3 240.37 437.724C239.856 437.132 239.294 436.838 238.568 436.923C237.843 437.009 237.283 437.325 236.874 437.971C236.464 438.617 236.32 439.509 236.424 440.746C236.529 441.984 236.797 442.841 237.211 443.417C237.725 444.009 238.287 444.304 239.013 444.218C239.722 444.232 240.298 443.816 240.707 443.171Z" fill="#CFCFCF"/>
<path d="M319.463 436.916C319.993 437.409 320.293 438.068 320.363 438.893C320.366 439.504 320.285 440 319.991 440.563C319.713 441.026 319.335 441.473 318.677 441.774C318.117 442.09 317.376 442.275 316.453 442.328C315.727 442.414 315.034 442.301 314.341 442.189C313.647 442.077 313.085 441.782 312.523 441.487L313.275 439.981C313.639 440.244 314.102 440.523 314.697 440.619C315.291 440.715 315.786 440.796 316.396 440.793C317.122 440.707 317.55 440.573 317.911 440.225C318.272 439.877 318.436 439.496 318.401 439.084C318.366 438.671 318.133 438.226 317.769 437.964C317.405 437.701 316.811 437.605 316.086 437.691L315.162 437.744L315.074 436.407L317.172 433.493L312.539 433.86L312.4 432.209L319.391 431.716L319.495 432.954L317.25 436.15C318.157 436.196 318.933 436.423 319.463 436.916Z" fill="#CFCFCF"/>
<path d="M326.084 431.175L326.855 441.473L324.909 441.565L324.277 432.916L322.117 433.075L321.978 431.424L326.084 431.175Z" fill="#CFCFCF"/>
<path d="M147.564 225.292L146.793 214.994L142.412 223.846L140.664 223.969L135.038 216.037L135.742 226.121L132.032 226.435L130.835 209.353L134.133 209.074L141.32 219.294L146.879 208.192L150.16 208.013L151.456 225.11L147.564 225.292Z" fill="#AAACAF"/>
<path d="M211.95 206.739L206.492 207.176L206.297 203.99L221.203 202.95L221.398 206.135L215.941 206.572L216.942 220.469L212.935 220.734L211.95 206.739Z" fill="#AAACAF"/>
<path d="M311.403 196.315L307.043 213.817L302.822 214.15L298.253 202.829L295.205 214.745L290.984 215.077L284.132 198.401L288.238 198.152L292.941 209.901L296.152 197.605L299.846 197.39L304.632 209.255L307.76 196.843L311.403 196.315Z" fill="#AAACAF"/>
<path d="M366.713 195.516L361.255 195.953L361.06 192.767L375.966 191.727L376.161 194.912L370.704 195.349L371.705 209.246L367.698 209.511L366.713 195.516Z" fill="#AAACAF"/>
<path d="M444.548 189.927L444.832 194.449L452.746 193.902L452.942 197.088L445.027 197.635L445.434 203.906L441.427 204.172L440.23 187.09L453.191 186.141L453.386 189.326L444.548 189.927Z" fill="#AAACAF"/>
<path d="M520.646 198.197C519.375 197.889 518.318 197.514 517.49 196.973L518.598 193.897C519.327 194.422 520.285 194.781 521.259 195.041C522.233 195.301 523.339 195.379 524.361 195.341C525.499 195.22 526.339 195.052 526.816 194.62C527.276 194.288 527.554 193.825 527.552 193.214C527.517 192.801 527.367 192.472 527.003 192.209C526.639 191.947 526.259 191.783 525.764 191.703C525.269 191.623 524.591 191.411 523.7 191.266C522.413 191.057 521.339 190.782 520.464 190.538C519.589 190.294 518.845 189.868 518.248 189.161C517.651 188.454 517.268 187.679 517.164 186.442C517.126 185.418 517.271 184.526 517.811 183.698C518.253 182.854 519.075 182.174 520.078 181.625C521.082 181.075 522.45 180.789 523.999 180.633C525.137 180.512 526.143 180.574 527.233 180.751C528.322 180.928 529.181 181.27 530.024 181.712L529.015 184.804C527.412 184.035 525.745 183.663 524.195 183.818C523.057 183.939 522.316 184.124 521.741 184.539C521.165 184.955 520.986 185.434 521.087 186.061C521.09 186.672 521.438 187.033 522.099 187.344C522.776 187.556 523.652 187.8 524.939 188.008C526.227 188.217 527.3 188.493 528.175 188.737C529.05 188.981 529.795 189.407 530.408 190.015C531.02 190.623 531.387 191.496 531.508 192.635C531.561 193.559 531.401 194.55 530.86 195.378C530.418 196.222 529.597 196.903 528.593 197.452C527.49 197.985 526.222 198.288 524.672 198.443C523.336 198.532 522.033 198.422 520.646 198.197Z" fill="#AAACAF"/>
<path d="M598.069 192.643C596.798 192.335 595.741 191.96 594.914 191.419L596.022 188.343C596.75 188.868 597.708 189.227 598.682 189.487C599.755 189.763 600.762 189.825 601.784 189.787C602.922 189.666 603.762 189.498 604.239 189.066C604.699 188.734 604.977 188.271 604.975 187.66C604.94 187.247 604.79 186.918 604.426 186.655C604.062 186.393 603.682 186.229 603.187 186.149C602.692 186.068 602.014 185.857 601.123 185.712C599.836 185.503 598.762 185.227 597.887 184.984C597.012 184.74 596.268 184.314 595.671 183.607C595.074 182.9 594.691 182.125 594.587 180.888C594.549 179.864 594.694 178.972 595.234 178.144C595.676 177.3 596.498 176.62 597.501 176.07C598.505 175.521 599.873 175.234 601.422 175.079C602.56 174.958 603.566 175.02 604.656 175.197C605.745 175.373 606.604 175.716 607.448 176.158L606.439 179.25C604.835 178.481 603.168 178.109 601.618 178.264C600.48 178.385 599.739 178.57 599.164 178.985C598.588 179.4 598.409 179.88 598.511 180.507C598.513 181.118 598.861 181.479 599.522 181.79C600.2 182.002 601.075 182.245 602.362 182.454C603.65 182.663 604.723 182.939 605.598 183.183C606.474 183.427 607.218 183.853 607.831 184.461C608.444 185.069 608.81 185.942 608.931 187.081C608.984 188.005 608.824 188.996 608.283 189.824C607.841 190.668 607.02 191.349 606.016 191.898C604.913 192.431 603.645 192.734 602.095 192.889C600.759 192.978 599.357 192.852 598.069 192.643Z" fill="#AAACAF"/>
<path d="M564.753 138.608C569.184 139.327 573.357 136.315 574.076 131.88C574.794 127.446 571.785 123.268 567.355 122.55C562.925 121.831 558.751 124.843 558.033 129.278C557.314 133.712 560.323 137.89 564.753 138.608Z" fill="white"/>
<path d="M591.182 136.688C595.612 137.407 599.786 134.395 600.504 129.96C601.222 125.525 598.214 121.348 593.783 120.629C589.353 119.91 585.18 122.923 584.461 127.357C583.743 131.792 586.752 135.969 591.182 136.688Z" fill="white"/>
<path d="M617.71 134.784C622.14 135.503 626.313 132.491 627.032 128.056C627.75 123.622 624.741 119.444 620.311 118.725C615.881 118.006 611.707 121.019 610.989 125.453C610.271 129.888 613.28 134.065 617.71 134.784Z" fill="#FBB910"/>
</g>
<defs>
<filter id="filter0_d" x="77.3705" y="88.6844" width="623.538" height="415.5" filterUnits="userSpaceOnUse" color-interpolation-filters="sRGB">
<feFlood flood-opacity="0" result="BackgroundImageFix"/>
<feColorMatrix in="SourceAlpha" type="matrix" values="0 0 0 0 0 0 0 0 0 0 0 0 0 0 0 0 0 0 127 0"/>
<feOffset dy="4"/>
<feGaussianBlur stdDeviation="3"/>
<feColorMatrix type="matrix" values="0 0 0 0 0 0 0 0 0 0 0 0 0 0 0 0 0 0 0.06 0"/>
<feBlend mode="normal" in2="BackgroundImageFix" result="effect1_dropShadow"/>
<feBlend mode="normal" in="SourceGraphic" in2="effect1_dropShadow" result="shape"/>
</filter>
<linearGradient id="paint0_linear" x1="433.879" y1="382.231" x2="489.56" y2="378.238" gradientUnits="userSpaceOnUse">
<stop stop-color="#EEBE26"/>
<stop offset="0.5746" stop-color="#EEBE27"/>
<stop offset="0.7815" stop-color="#F1BA2B"/>
<stop offset="0.9285" stop-color="#F6B430"/>
<stop offset="1" stop-color="#F9AF34"/>
</linearGradient>
</defs>
</svg>
