<svg width="307" height="196" viewBox="0 0 307 196" fill="none" xmlns="http://www.w3.org/2000/svg">
<rect width="306.769" height="195.122" fill="white"/>
<rect x="129.386" y="31.303" width="101.213" height="14.6081" fill="#C4C4C4"/>
<rect x="129.386" y="52.1716" width="52.1716" height="9.39089" fill="#C4C4C4"/>
<rect x="129.386" y="76.1706" width="76.1705" height="8.34746" fill="#C4C4C4"/>
<rect x="130.429" y="92.8655" width="100.169" height="8.34746" fill="#C4C4C4"/>
<g clip-path="url(#clip0)">
<path d="M140.926 152.537L141.244 150.46H139.251V149.112C139.251 148.543 139.53 147.989 140.422 147.989H141.328V146.221C141.328 146.221 140.506 146.081 139.72 146.081C138.079 146.081 137.006 147.076 137.006 148.877V150.46H135.181V152.537H137.006V157.559H139.251V152.537L140.926 152.537Z" fill="#999898"/>
</g>
<rect x="130.929" y="144.494" width="15.6949" height="15.6949" stroke="#999898"/>
<g clip-path="url(#clip1)">
<path d="M159.12 157.558V150.518H156.659V157.558H159.12ZM157.89 149.556C158.748 149.556 159.282 149.015 159.282 148.34C159.266 147.649 158.748 147.123 157.906 147.123C157.064 147.123 156.514 147.649 156.514 148.34C156.514 149.015 157.048 149.556 157.874 149.556H157.89H157.89ZM160.481 157.558H162.942V153.626C162.942 153.416 162.958 153.206 163.023 153.055C163.201 152.635 163.605 152.199 164.285 152.199C165.175 152.199 165.532 152.845 165.532 153.791V157.558H167.992V153.521C167.992 151.359 166.778 150.352 165.159 150.352C163.832 150.352 163.249 151.058 162.925 151.539H162.942V150.518H160.481C160.514 151.178 160.481 157.558 160.481 157.558L160.481 157.558Z" fill="#999898"/>
</g>
<rect x="154.928" y="144.494" width="15.6949" height="15.6949" stroke="#999898"/>
<path d="M191.959 148.931C191.616 149.079 191.243 149.185 190.858 149.227C191.257 148.99 191.556 148.615 191.699 148.173C191.324 148.396 190.914 148.552 190.486 148.635C190.307 148.444 190.091 148.291 189.851 148.187C189.61 148.083 189.351 148.03 189.09 148.031C188.03 148.031 187.178 148.889 187.178 149.943C187.178 150.091 187.196 150.239 187.226 150.381C185.64 150.298 184.225 149.541 183.285 148.38C183.113 148.673 183.023 149.006 183.025 149.345C183.025 150.009 183.362 150.594 183.876 150.938C183.573 150.926 183.277 150.843 183.012 150.695V150.719C183.012 151.648 183.669 152.418 184.544 152.595C184.38 152.638 184.211 152.659 184.041 152.66C183.917 152.66 183.799 152.648 183.68 152.631C183.922 153.388 184.627 153.939 185.467 153.957C184.81 154.471 183.987 154.774 183.094 154.774C182.934 154.774 182.786 154.768 182.632 154.75C183.48 155.294 184.485 155.608 185.568 155.608C189.083 155.608 191.006 152.696 191.006 150.168C191.006 150.085 191.006 150.002 191.001 149.919C191.373 149.647 191.699 149.31 191.959 148.931Z" fill="#999898"/>
<rect x="178.927" y="144.494" width="15.6949" height="15.6949" stroke="#999898"/>
<g clip-path="url(#clip2)">
<path d="M213.207 149.558H213.903H213.207ZM208.686 147.471H212.86C213.597 147.471 214.305 147.764 214.827 148.286C215.349 148.808 215.642 149.515 215.642 150.253V154.427C215.642 155.165 215.349 155.873 214.827 156.395C214.305 156.916 213.597 157.21 212.86 157.21H208.686C207.948 157.21 207.24 156.916 206.718 156.395C206.196 155.873 205.903 155.165 205.903 154.427V150.253C205.903 149.515 206.196 148.808 206.718 148.286C207.24 147.764 207.948 147.471 208.686 147.471V147.471ZM210.773 154.427C210.219 154.427 209.688 154.207 209.297 153.816C208.906 153.425 208.686 152.894 208.686 152.34C208.686 151.787 208.906 151.256 209.297 150.865C209.688 150.473 210.219 150.253 210.773 150.253C211.326 150.253 211.857 150.473 212.248 150.865C212.64 151.256 212.86 151.787 212.86 152.34C212.86 152.894 212.64 153.425 212.248 153.816C211.857 154.207 211.326 154.427 210.773 154.427Z" stroke="#999898"/>
</g>
<rect x="202.926" y="144.494" width="15.6949" height="15.6949" stroke="#999898"/>
<path d="M230.599 151.061C230.599 150.579 230.687 150.123 230.862 149.698C231.029 149.285 231.277 148.906 231.593 148.581C231.908 148.261 232.269 147.984 232.665 147.758C233.071 147.524 233.511 147.348 233.971 147.235C234.436 147.119 234.915 147.06 235.396 147.061C236.139 147.061 236.83 147.21 237.471 147.508C238.104 147.8 238.642 148.248 239.03 148.805C239.431 149.372 239.63 150.013 239.63 150.729C239.63 151.157 239.585 151.577 239.495 151.987C239.406 152.397 239.264 152.795 239.073 153.172C238.891 153.538 238.654 153.875 238.368 154.174C238.08 154.469 237.732 154.704 237.345 154.865C236.925 155.04 236.47 155.128 236.011 155.123C235.692 155.123 235.374 155.052 235.06 154.909C234.746 154.766 234.52 154.57 234.384 154.319C234.337 154.493 234.271 154.745 234.185 155.074C234.101 155.402 234.045 155.614 234.02 155.71C233.994 155.806 233.946 155.965 233.876 156.186C233.828 156.349 233.767 156.508 233.692 156.662L233.468 157.08C233.371 157.259 233.263 157.432 233.143 157.599C233.025 157.761 232.879 157.955 232.705 158.178L232.608 158.211L232.543 158.144C232.473 157.442 232.438 157.022 232.438 156.883C232.438 156.472 232.489 156.011 232.591 155.5C232.691 154.988 232.848 154.346 233.06 153.573C233.272 152.801 233.394 152.347 233.426 152.213C233.277 151.923 233.201 151.545 233.201 151.08C233.201 150.709 233.323 150.362 233.568 150.035C233.813 149.709 234.123 149.546 234.498 149.546C234.786 149.546 235.009 149.636 235.169 149.818C235.329 149.999 235.408 150.227 235.408 150.505C235.408 150.8 235.304 151.227 235.097 151.785C234.89 152.344 234.787 152.761 234.787 153.038C234.787 153.319 234.892 153.553 235.104 153.737C235.312 153.922 235.588 154.021 235.872 154.016C236.131 154.016 236.37 153.96 236.592 153.848C236.811 153.739 237.001 153.583 237.146 153.394C237.463 152.981 237.688 152.512 237.809 152.015C237.872 151.753 237.92 151.505 237.95 151.271C237.982 151.036 237.996 150.815 237.996 150.604C237.996 149.831 237.738 149.229 237.224 148.798C236.709 148.366 236.037 148.152 235.211 148.152C234.271 148.152 233.485 148.441 232.856 149.02C232.226 149.598 231.909 150.332 231.909 151.222C231.909 151.419 231.94 151.608 231.999 151.792C232.057 151.975 232.121 152.12 232.189 152.228C232.257 152.334 232.321 152.437 232.379 152.533C232.438 152.628 232.468 152.696 232.468 152.737C232.468 152.863 232.434 153.025 232.364 153.227C232.292 153.428 232.206 153.529 232.103 153.529C232.093 153.529 232.053 153.522 231.982 153.508C231.738 153.438 231.518 153.309 231.344 153.133C231.159 152.95 231.013 152.735 230.914 152.499C230.816 152.265 230.739 152.022 230.685 151.775C230.626 151.541 230.597 151.301 230.599 151.061Z" fill="#999898"/>
<rect x="226.925" y="144.494" width="15.6949" height="15.6949" stroke="#999898"/>
<path d="M261.85 155.36V156.854H265.032V151.957V147.061H261.765V152.246C261.765 152.804 261.565 153.29 261.249 153.705C260.932 154.121 260.471 154.328 259.867 154.328C259.543 154.328 259.283 154.273 259.086 154.163C258.889 154.052 258.731 153.9 258.611 153.705C258.492 153.511 258.411 153.29 258.369 153.044C258.327 152.797 258.305 152.538 258.305 152.265V147.061H254.824L252.511 149.539V152.246C252.511 152.246 254.824 150.747 254.824 151.204V153.005C254.824 153.498 254.891 153.981 255.025 154.455C255.158 154.928 255.376 155.35 255.679 155.72C255.981 156.089 256.375 156.391 256.86 156.625C257.345 156.858 257.94 156.975 258.643 156.975C259.009 156.975 259.357 156.93 259.687 156.839C260.018 156.748 260.32 156.631 260.595 156.488C260.869 156.346 261.108 156.177 261.312 155.982C261.516 155.788 261.681 155.58 261.85 155.36Z" fill="#999898"/>
<rect x="250.924" y="144.494" width="15.6949" height="15.6949" stroke="#999898"/>
<circle cx="63.6494" cy="57.3888" r="46.9544" fill="#C4C4C4"/>
<path d="M73.9085 46.0849H52.3442C50.8576 46.0849 49.6487 47.2938 49.6487 48.7804V64.9536C49.6487 66.4402 50.8576 67.6492 52.3442 67.6492H73.9085C75.3951 67.6492 76.604 66.4402 76.604 64.9536V48.7804C76.604 47.2938 75.3951 46.0849 73.9085 46.0849ZM55.7136 50.1282C56.2498 50.1282 56.764 50.3412 57.1432 50.7203C57.5223 51.0995 57.7353 51.6137 57.7353 52.1498C57.7353 52.686 57.5223 53.2002 57.1432 53.5794C56.764 53.9585 56.2498 54.1715 55.7136 54.1715C55.1775 54.1715 54.6632 53.9585 54.2841 53.5794C53.905 53.2002 53.692 52.686 53.692 52.1498C53.692 51.6137 53.905 51.0995 54.2841 50.7203C54.6632 50.3412 55.1775 50.1282 55.7136 50.1282ZM63.1263 63.6059H53.692L59.083 56.867L61.1047 59.5626L65.148 54.1715L72.5607 63.6059H63.1263Z" fill="#8C8A8A"/>
<defs>
<clipPath id="clip0">
<rect width="11.4778" height="11.4778" fill="white" transform="translate(132.516 146.08)"/>
</clipPath>
<clipPath id="clip1">
<rect width="11.4778" height="10.4343" fill="white" transform="translate(156.515 147.124)"/>
</clipPath>
<clipPath id="clip2">
<rect width="10.4343" height="10.4343" fill="white" transform="translate(205.556 147.124)"/>
</clipPath>
</defs>
</svg>
