<svg width="307" height="197" viewBox="0 0 307 197" fill="none" xmlns="http://www.w3.org/2000/svg">
<rect y="0.939087" width="306.769" height="195.122" fill="white"/>
<rect x="10.4343" y="15.5471" width="84.518" height="14.6081" fill="#C4C4C4"/>
<rect x="10.4343" y="37.4592" width="38.607" height="9.39089" fill="#C4C4C4"/>
<rect x="10.4343" y="103.195" width="100.169" height="8.34746" fill="#C4C4C4"/>
<rect x="10.4343" y="117.803" width="83.4746" height="8.34746" fill="#C4C4C4"/>
<rect x="10.4343" y="88.5874" width="91.822" height="8.34746" fill="#C4C4C4"/>
<rect x="10.4343" y="73.9793" width="91.822" height="8.34746" fill="#C4C4C4"/>
<rect x="10.4343" y="167.888" width="126.255" height="10.4343" fill="#C4C4C4"/>
<line x1="209.186" y1="164.758" x2="209.186" y2="176.236" stroke="#C4C4C4"/>
<g clip-path="url(#clip0)">
<path d="M163.881 173.301L164.2 171.224H162.207V169.876C162.207 169.308 162.485 168.754 163.378 168.754H164.284V166.985C164.284 166.985 163.462 166.845 162.675 166.845C161.034 166.845 159.961 167.84 159.961 169.641V171.224H158.137V173.301H159.961V178.323H162.207V173.301L163.881 173.301Z" fill="#999898"/>
</g>
<rect x="153.885" y="165.258" width="15.6949" height="15.6949" stroke="#999898"/>
<g clip-path="url(#clip1)">
<path d="M182.075 178.322V171.282H179.615V178.322H182.075ZM180.845 170.32C181.703 170.32 182.237 169.78 182.237 169.104C182.221 168.413 181.703 167.888 180.861 167.888C180.02 167.888 179.47 168.413 179.47 169.104C179.47 169.78 180.003 170.32 180.829 170.32H180.845H180.845ZM183.437 178.322H185.897V174.391C185.897 174.18 185.913 173.97 185.978 173.82C186.156 173.399 186.561 172.964 187.241 172.964C188.131 172.964 188.487 173.609 188.487 174.556V178.322H190.947V174.285C190.947 172.123 189.733 171.117 188.115 171.117C186.787 171.117 186.205 171.822 185.881 172.303H185.897V171.282H183.437C183.469 171.942 183.437 178.322 183.437 178.322L183.437 178.322Z" fill="#999898"/>
</g>
<rect x="177.883" y="165.258" width="15.6949" height="15.6949" stroke="#999898"/>
<path d="M214.914 169.695C214.571 169.843 214.198 169.949 213.814 169.991C214.213 169.754 214.512 169.379 214.654 168.937C214.28 169.16 213.869 169.316 213.442 169.399C213.263 169.208 213.046 169.056 212.806 168.952C212.566 168.848 212.307 168.794 212.045 168.795C210.986 168.795 210.134 169.654 210.134 170.707C210.134 170.855 210.152 171.003 210.181 171.145C208.595 171.063 207.18 170.305 206.24 169.145C206.069 169.437 205.979 169.771 205.98 170.11C205.98 170.773 206.317 171.358 206.832 171.703C206.529 171.691 206.232 171.607 205.968 171.459V171.483C205.968 172.412 206.624 173.182 207.5 173.359C207.335 173.402 207.166 173.424 206.997 173.424C206.872 173.424 206.754 173.412 206.636 173.395C206.878 174.153 207.583 174.703 208.422 174.721C207.765 175.236 206.943 175.538 206.049 175.538C205.889 175.538 205.741 175.533 205.588 175.515C206.435 176.058 207.44 176.372 208.523 176.372C212.038 176.372 213.962 173.46 213.962 170.932C213.962 170.85 213.962 170.767 213.956 170.684C214.328 170.411 214.654 170.074 214.914 169.695Z" fill="#999898"/>
<rect x="201.882" y="165.258" width="15.6949" height="15.6949" stroke="#999898"/>
<g clip-path="url(#clip2)">
<path d="M236.163 170.322H236.858H236.163ZM231.641 168.235H235.815C236.553 168.235 237.261 168.528 237.782 169.05C238.304 169.572 238.597 170.28 238.597 171.018V175.191C238.597 175.929 238.304 176.637 237.782 177.159C237.261 177.681 236.553 177.974 235.815 177.974H231.641C230.903 177.974 230.196 177.681 229.674 177.159C229.152 176.637 228.859 175.929 228.859 175.191V171.018C228.859 170.28 229.152 169.572 229.674 169.05C230.196 168.528 230.903 168.235 231.641 168.235V168.235ZM233.728 175.191C233.175 175.191 232.644 174.972 232.252 174.58C231.861 174.189 231.641 173.658 231.641 173.105C231.641 172.551 231.861 172.02 232.252 171.629C232.644 171.238 233.175 171.018 233.728 171.018C234.282 171.018 234.812 171.238 235.204 171.629C235.595 172.02 235.815 172.551 235.815 173.105C235.815 173.658 235.595 174.189 235.204 174.58C234.812 174.972 234.282 175.191 233.728 175.191Z" stroke="#999898"/>
</g>
<rect x="225.881" y="165.258" width="15.6949" height="15.6949" stroke="#999898"/>
<path d="M253.554 171C253.554 170.518 253.643 170.062 253.818 169.637C253.985 169.224 254.233 168.845 254.549 168.521C254.864 168.2 255.225 167.923 255.621 167.697C256.027 167.464 256.467 167.287 256.926 167.174C257.391 167.058 257.87 167 258.351 167C259.094 167 259.785 167.149 260.426 167.447C261.059 167.739 261.598 168.187 261.986 168.744C262.386 169.311 262.585 169.953 262.585 170.668C262.585 171.096 262.541 171.516 262.45 171.926C262.361 172.336 262.219 172.734 262.029 173.111C261.847 173.477 261.609 173.814 261.323 174.113C261.036 174.408 260.688 174.643 260.3 174.804C259.88 174.979 259.426 175.067 258.967 175.062C258.648 175.062 258.33 174.991 258.015 174.848C257.701 174.705 257.475 174.509 257.34 174.258C257.292 174.433 257.227 174.684 257.14 175.013C257.057 175.342 257.001 175.553 256.976 175.65C256.95 175.745 256.902 175.904 256.831 176.125C256.783 176.288 256.722 176.447 256.648 176.601L256.423 177.019C256.326 177.198 256.218 177.372 256.099 177.538C255.981 177.701 255.835 177.894 255.66 178.118L255.563 178.15L255.499 178.083C255.429 177.381 255.393 176.961 255.393 176.823C255.393 176.412 255.445 175.951 255.546 175.439C255.646 174.928 255.804 174.285 256.016 173.512C256.228 172.74 256.349 172.286 256.382 172.152C256.232 171.862 256.157 171.484 256.157 171.02C256.157 170.648 256.279 170.301 256.523 169.974C256.768 169.648 257.078 169.485 257.454 169.485C257.741 169.485 257.965 169.575 258.124 169.757C258.285 169.938 258.363 170.166 258.363 170.444C258.363 170.739 258.26 171.166 258.053 171.724C257.845 172.283 257.742 172.7 257.742 172.977C257.742 173.258 257.848 173.493 258.059 173.677C258.268 173.861 258.543 173.961 258.828 173.955C259.086 173.955 259.326 173.899 259.548 173.787C259.767 173.678 259.956 173.523 260.102 173.333C260.418 172.92 260.644 172.451 260.765 171.954C260.827 171.693 260.876 171.444 260.906 171.21C260.938 170.976 260.951 170.754 260.951 170.543C260.951 169.77 260.693 169.168 260.18 168.737C259.664 168.306 258.992 168.091 258.166 168.091C257.226 168.091 256.44 168.38 255.811 168.959C255.181 169.537 254.864 170.271 254.864 171.161C254.864 171.358 254.896 171.548 254.955 171.731C255.013 171.914 255.076 172.059 255.145 172.167C255.212 172.273 255.276 172.377 255.334 172.472C255.393 172.567 255.424 172.636 255.424 172.677C255.424 172.802 255.389 172.965 255.319 173.166C255.247 173.367 255.162 173.468 255.059 173.468C255.049 173.468 255.008 173.461 254.938 173.447C254.694 173.378 254.474 173.248 254.299 173.072C254.115 172.889 253.969 172.674 253.87 172.439C253.771 172.204 253.694 171.962 253.64 171.714C253.582 171.48 253.553 171.24 253.554 171Z" fill="#999898"/>
<rect x="249.88" y="165.258" width="15.6949" height="15.6949" stroke="#999898"/>
<path d="M284.805 176.299V177.793H287.987V172.896V168H284.721V173.185C284.721 173.743 284.52 174.229 284.204 174.644C283.888 175.06 283.427 175.267 282.822 175.267C282.499 175.267 282.238 175.212 282.042 175.102C281.845 174.992 281.686 174.839 281.567 174.644C281.447 174.45 281.366 174.229 281.324 173.983C281.282 173.736 281.261 173.477 281.261 173.204V168H277.78L275.466 170.479V173.185C275.466 173.185 277.78 171.687 277.78 172.143V173.944C277.78 174.437 277.847 174.92 277.98 175.394C278.114 175.867 278.332 176.289 278.634 176.659C278.937 177.029 279.33 177.33 279.816 177.564C280.301 177.797 280.895 177.914 281.598 177.914C281.964 177.914 282.312 177.869 282.643 177.778C282.973 177.687 283.276 177.57 283.55 177.428C283.824 177.285 284.063 177.116 284.267 176.922C284.471 176.727 284.637 176.519 284.805 176.299Z" fill="#999898"/>
<rect x="273.879" y="165.258" width="15.6949" height="15.6949" stroke="#999898"/>
<circle cx="257.206" cy="105.804" r="39.1287" fill="#C4C4C4"/>
<path d="M267.987 95.0219H246.423C244.936 95.0219 243.727 96.2308 243.727 97.7174V113.891C243.727 115.377 244.936 116.586 246.423 116.586H267.987C269.473 116.586 270.682 115.377 270.682 113.891V97.7174C270.682 96.2308 269.473 95.0219 267.987 95.0219ZM249.792 99.0652C250.328 99.0652 250.842 99.2782 251.221 99.6573C251.601 100.036 251.814 100.551 251.814 101.087C251.814 101.623 251.601 102.137 251.221 102.516C250.842 102.895 250.328 103.108 249.792 103.108C249.256 103.108 248.742 102.895 248.362 102.516C247.983 102.137 247.77 101.623 247.77 101.087C247.77 100.551 247.983 100.036 248.362 99.6573C248.742 99.2782 249.256 99.0652 249.792 99.0652ZM257.205 112.543H247.77L253.161 105.804L255.183 108.5L259.226 103.108L266.639 112.543H257.205Z" fill="#8C8A8A"/>
<line x1="10.4343" y1="59.9147" x2="163.819" y2="59.9147" stroke="#C4C4C4"/>
<defs>
<clipPath id="clip0">
<rect width="11.4778" height="11.4778" fill="white" transform="translate(155.471 166.845)"/>
</clipPath>
<clipPath id="clip1">
<rect width="11.4778" height="10.4343" fill="white" transform="translate(179.47 167.888)"/>
</clipPath>
<clipPath id="clip2">
<rect width="10.4343" height="10.4343" fill="white" transform="translate(228.512 167.888)"/>
</clipPath>
</defs>
</svg>
