<svg width="307" height="196" viewBox="0 0 307 196" fill="none" xmlns="http://www.w3.org/2000/svg">
<rect width="306.769" height="195.122" fill="white"/>
<rect x="16" y="14.5471" width="67.8231" height="14.6081" fill="#C4C4C4"/>
<rect x="16" y="37.5027" width="84.518" height="7.30403" fill="#C4C4C4"/>
<rect x="146.429" y="122.021" width="105.387" height="7.30403" fill="#C4C4C4"/>
<rect x="146.429" y="107.413" width="90.7786" height="7.30403" fill="#C4C4C4"/>
<rect x="146.429" y="92.8046" width="83.4746" height="7.30403" fill="#C4C4C4"/>
<rect x="220.513" y="165.845" width="76.1705" height="7.30403" fill="#C4C4C4"/>
<rect x="113.039" y="165.845" width="89.7352" height="7.30403" fill="#C4C4C4"/>
<rect x="16" y="165.845" width="78.2574" height="7.30403" fill="#C4C4C4"/>
<line x1="104.148" y1="163.758" x2="104.148" y2="175.236" stroke="#C4C4C4"/>
<line x1="211.622" y1="163.758" x2="211.622" y2="175.236" stroke="#C4C4C4"/>
<line x1="130.234" y1="92.8046" x2="130.234" y2="142.889" stroke="#C4C4C4"/>
<rect x="16" y="93.848" width="95.9958" height="49.0413" fill="#C4C4C4"/>
<path d="M74.257 107.586H52.6927C51.2061 107.586 49.9972 108.795 49.9972 110.282V126.455C49.9972 127.942 51.2061 129.151 52.6927 129.151H74.257C75.7436 129.151 76.9525 127.942 76.9525 126.455V110.282C76.9525 108.795 75.7436 107.586 74.257 107.586ZM56.0621 111.63C56.5983 111.63 57.1125 111.843 57.4917 112.222C57.8708 112.601 58.0838 113.115 58.0838 113.651C58.0838 114.188 57.8708 114.702 57.4917 115.081C57.1125 115.46 56.5983 115.673 56.0621 115.673C55.526 115.673 55.0118 115.46 54.6326 115.081C54.2535 114.702 54.0405 114.188 54.0405 113.651C54.0405 113.115 54.2535 112.601 54.6326 112.222C55.0118 111.843 55.526 111.63 56.0621 111.63ZM63.4749 125.107H54.0405L59.4316 118.369L61.4532 121.064L65.4965 115.673L72.9092 125.107H63.4749Z" fill="#8C8A8A"/>
<g clip-path="url(#clip0)">
<path d="M26.4965 69.0013L26.8153 66.9241H24.8221V65.5762C24.8221 65.0081 25.1005 64.4539 25.9932 64.4539H26.8993V62.6856C26.8993 62.6856 26.0772 62.5454 25.2909 62.5454C23.6496 62.5454 22.5768 63.5404 22.5768 65.3413V66.9245H20.7522V69.0016H22.5768V74.0231H24.8221V69.0016L26.4965 69.0013Z" fill="#999898"/>
<path d="M29.4355 77.9998C29.4355 77.5177 29.5242 77.0623 29.6989 76.6372C29.8659 76.2243 30.114 75.8454 30.43 75.5206C30.7453 75.2001 31.1062 74.9229 31.5021 74.6971C31.9083 74.4636 32.3481 74.2874 32.8077 74.1741C33.2728 74.0581 33.7518 73.9996 34.2326 74C34.9754 74 35.6667 74.1493 36.3078 74.4468C36.9405 74.7388 37.479 75.1869 37.867 75.7443C38.2675 76.3113 38.4664 76.9526 38.4664 77.6676C38.4664 78.0964 38.422 78.5159 38.3314 78.9261C38.2424 79.3361 38.1009 79.7342 37.9101 80.1115C37.7282 80.4767 37.4904 80.8144 37.2045 81.1134C36.9171 81.4077 36.569 81.6427 36.1819 81.8037C35.7617 81.9787 35.3071 82.0668 34.8483 82.0621C34.5294 82.0621 34.2111 81.9909 33.8968 81.8477C33.5825 81.7052 33.3568 81.5094 33.2212 81.2584C33.1736 81.4326 33.1083 81.6841 33.0216 82.0132C32.9381 82.3416 32.8821 82.5535 32.8573 82.6495C32.8312 82.745 32.7829 82.9042 32.7125 83.1248C32.6647 83.288 32.6035 83.4473 32.5292 83.6013L32.3049 84.0189C32.2079 84.1981 32.0994 84.3716 31.9801 84.5382C31.8621 84.7005 31.716 84.8945 31.5419 85.1175L31.4447 85.1504L31.3802 85.0835C31.3104 84.3814 31.2745 83.9613 31.2745 83.8225C31.2745 83.4117 31.326 82.9507 31.4278 82.4389C31.5275 81.9277 31.6854 81.2851 31.8973 80.5124C32.1093 79.7403 32.2306 79.2861 32.2632 79.1517C32.1138 78.8623 32.0382 78.4843 32.0382 78.0196C32.0382 77.6484 32.1601 77.3008 32.4047 76.9736C32.6499 76.6477 32.9597 76.4848 33.3353 76.4848C33.6229 76.4848 33.8459 76.5752 34.0057 76.7568C34.1661 76.9377 34.2444 77.1657 34.2444 77.444C34.2444 77.7389 34.1413 78.1658 33.934 78.7241C33.7266 79.283 33.6235 79.7001 33.6235 79.977C33.6235 80.2577 33.7292 80.4926 33.9405 80.6766C34.149 80.8607 34.4248 80.9605 34.7094 80.9548C34.9676 80.9548 35.2069 80.8991 35.4293 80.7869C35.6482 80.678 35.8377 80.5226 35.983 80.3327C36.2994 79.9202 36.525 79.4513 36.6462 78.954C36.7088 78.6925 36.7571 78.444 36.7871 78.2104C36.8191 77.9756 36.8327 77.7538 36.8327 77.5431C36.8327 76.7704 36.5745 76.1681 36.0613 75.7368C35.5454 75.3056 34.8737 75.0912 34.0474 75.0912C33.1077 75.0912 32.3219 75.3799 31.6925 75.9593C31.0626 76.5368 30.7456 77.2711 30.7456 78.1615C30.7456 78.3579 30.7769 78.5475 30.8363 78.7309C30.8943 78.9137 30.9576 79.0593 31.026 79.1672C31.0939 79.2731 31.1578 79.3766 31.2158 79.472C31.2745 79.5675 31.3052 79.6356 31.3052 79.6765C31.3052 79.8017 31.2706 79.9646 31.2008 80.166C31.1284 80.3674 31.043 80.4678 30.94 80.4678C30.9302 80.4678 30.8897 80.461 30.8193 80.4467C30.5754 80.3775 30.3551 80.2482 30.1809 80.0718C29.9959 79.8891 29.85 79.674 29.7511 79.4386C29.6525 79.2039 29.5757 78.9616 29.5215 78.7142C29.4631 78.4802 29.4342 78.2403 29.4355 77.9998Z" fill="#999898"/>
</g>
<rect x="16.5" y="60.9582" width="15.6949" height="15.6949" stroke="#999898"/>
<g clip-path="url(#clip1)">
<path d="M40.5169 74.0224V66.9823H38.0565V74.0224H40.5169ZM39.287 66.0206C40.145 66.0206 40.6791 65.48 40.6791 64.8044C40.6631 64.1136 40.1451 63.588 39.3033 63.588C38.4617 63.588 37.9114 64.1136 37.9114 64.8044C37.9114 65.48 38.4453 66.0206 39.271 66.0206H39.287H39.287ZM41.8787 74.0224H44.3391V70.0909C44.3391 69.8805 44.3551 69.6703 44.4201 69.5199C44.5979 69.0995 45.0028 68.6641 45.6824 68.6641C46.5728 68.6641 46.9289 69.3097 46.9289 70.2561V74.0223H49.3892V69.9856C49.3892 67.8232 48.1753 66.8171 46.5565 66.8171C45.2293 66.8171 44.6465 67.5227 44.3228 68.0032H44.3392V66.9822H41.8788C41.9111 67.6428 41.8788 74.0222 41.8788 74.0222L41.8787 74.0224Z" fill="#999898"/>
</g>
<rect x="36.3252" y="60.9582" width="15.6949" height="15.6949" stroke="#999898"/>
<path d="M69.1826 65.3954C68.8396 65.5434 68.4664 65.6498 68.0819 65.6913C68.4811 65.4542 68.78 65.0795 68.9226 64.6377C68.548 64.8605 68.1377 65.0167 67.7098 65.0995C67.531 64.9083 67.3147 64.756 67.0744 64.652C66.8341 64.5481 66.575 64.4948 66.3132 64.4953C65.254 64.4953 64.4021 65.3539 64.4021 66.4075C64.4021 66.5555 64.42 66.7035 64.4492 66.8458C62.8631 66.7629 61.4486 66.0052 60.5082 64.845C60.3368 65.1377 60.247 65.471 60.2481 65.8101C60.2481 66.4737 60.5855 67.0588 61.1 67.4029C60.7968 67.3909 60.5007 67.3076 60.2358 67.1597V67.1832C60.2358 68.1124 60.8926 68.8824 61.768 69.0595C61.6037 69.1022 61.4346 69.1241 61.2648 69.1245C61.1404 69.1245 61.0227 69.1122 60.9039 69.0954C61.146 69.8531 61.851 70.4035 62.6905 70.4214C62.0337 70.9359 61.211 71.2385 60.3176 71.2385C60.1574 71.2385 60.0094 71.2329 59.8558 71.215C60.7032 71.7586 61.7086 72.0724 62.7914 72.0724C66.3065 72.0724 68.2299 69.1604 68.2299 66.6328C68.2299 66.5499 68.2299 66.467 68.2243 66.384C68.5964 66.1116 68.9226 65.7743 69.1826 65.3954Z" fill="#999898"/>
<rect x="56.1505" y="60.9582" width="15.6949" height="15.6949" stroke="#999898"/>
<g clip-path="url(#clip2)">
<path d="M86.257 66.0224H86.9527H86.257ZM81.7355 63.9355H85.9092C86.6472 63.9355 87.3549 64.2287 87.8767 64.7505C88.3985 65.2723 88.6917 65.9801 88.6917 66.718V70.8918C88.6917 71.6297 88.3985 72.3375 87.8767 72.8593C87.3549 73.3811 86.6472 73.6742 85.9092 73.6742H81.7355C80.9975 73.6742 80.2898 73.3811 79.768 72.8593C79.2462 72.3375 78.953 71.6297 78.953 70.8918V66.718C78.953 65.9801 79.2462 65.2723 79.768 64.7505C80.2898 64.2287 80.9975 63.9355 81.7355 63.9355V63.9355ZM83.8224 70.8918C83.2689 70.8918 82.7381 70.6719 82.3467 70.2805C81.9554 69.8892 81.7355 69.3584 81.7355 68.8049C81.7355 68.2514 81.9554 67.7206 82.3467 67.3293C82.7381 66.9379 83.2689 66.718 83.8224 66.718C84.3758 66.718 84.9066 66.9379 85.298 67.3293C85.6894 67.7206 85.9092 68.2514 85.9092 68.8049C85.9092 69.3584 85.6894 69.8892 85.298 70.2805C84.9066 70.6719 84.3758 70.8918 83.8224 70.8918Z" stroke="#999898"/>
</g>
<rect x="75.9757" y="60.9582" width="15.6949" height="15.6949" stroke="#999898"/>
<rect x="95.8009" y="60.9582" width="15.6949" height="15.6949" stroke="#999898"/>
<path d="M99.5541 66.9998C99.5541 66.5177 99.6427 66.0623 99.8175 65.6372C99.9845 65.2243 100.233 64.8454 100.549 64.5206C100.864 64.2001 101.225 63.9229 101.621 63.6971C102.027 63.4636 102.467 63.2874 102.926 63.1741C103.391 63.0581 103.87 62.9996 104.351 63C105.094 63 105.785 63.1493 106.426 63.4468C107.059 63.7388 107.598 64.1869 107.986 64.7443C108.386 65.3113 108.585 65.9526 108.585 66.6676C108.585 67.0964 108.541 67.5159 108.45 67.9261C108.361 68.3361 108.219 68.7342 108.029 69.1115C107.847 69.4767 107.609 69.8144 107.323 70.1134C107.036 70.4077 106.688 70.6427 106.3 70.8037C105.88 70.9787 105.426 71.0668 104.967 71.0621C104.648 71.0621 104.33 70.9909 104.015 70.8477C103.701 70.7052 103.475 70.5094 103.34 70.2584C103.292 70.4326 103.227 70.6841 103.14 71.0132C103.057 71.3416 103.001 71.5535 102.976 71.6495C102.95 71.745 102.902 71.9042 102.831 72.1248C102.783 72.288 102.722 72.4473 102.648 72.6013L102.423 73.0189C102.326 73.1981 102.218 73.3716 102.099 73.5382C101.981 73.7005 101.835 73.8945 101.66 74.1175L101.563 74.1504L101.499 74.0835C101.429 73.3814 101.393 72.9613 101.393 72.8225C101.393 72.4117 101.445 71.9507 101.546 71.4389C101.646 70.9277 101.804 70.2851 102.016 69.5124C102.228 68.7403 102.349 68.2861 102.382 68.1517C102.232 67.8623 102.157 67.4843 102.157 67.0196C102.157 66.6484 102.279 66.3008 102.523 65.9736C102.768 65.6477 103.078 65.4848 103.454 65.4848C103.741 65.4848 103.965 65.5752 104.124 65.7568C104.285 65.9377 104.363 66.1657 104.363 66.444C104.363 66.7389 104.26 67.1658 104.053 67.7241C103.845 68.283 103.742 68.7001 103.742 68.977C103.742 69.2577 103.848 69.4926 104.059 69.6766C104.268 69.8607 104.543 69.9605 104.828 69.9548C105.086 69.9548 105.326 69.8991 105.548 69.7869C105.767 69.678 105.956 69.5226 106.102 69.3327C106.418 68.9202 106.644 68.4513 106.765 67.954C106.827 67.6925 106.876 67.444 106.906 67.2104C106.938 66.9756 106.951 66.7538 106.951 66.5431C106.951 65.7704 106.693 65.1681 106.18 64.7368C105.664 64.3056 104.992 64.0912 104.166 64.0912C103.226 64.0912 102.44 64.3799 101.811 64.9593C101.181 65.5368 100.864 66.2711 100.864 67.1615C100.864 67.3579 100.896 67.5475 100.955 67.7309C101.013 67.9137 101.076 68.0593 101.145 68.1672C101.212 68.2731 101.276 68.3766 101.334 68.472C101.393 68.5675 101.424 68.6356 101.424 68.6765C101.424 68.8017 101.389 68.9646 101.319 69.166C101.247 69.3674 101.162 69.4678 101.059 69.4678C101.049 69.4678 101.008 69.461 100.938 69.4467C100.694 69.3775 100.474 69.2482 100.299 69.0718C100.115 68.8891 99.9686 68.674 99.8697 68.4386C99.7711 68.2039 99.6943 67.9616 99.6401 67.7142C99.5817 67.4802 99.5528 67.2403 99.5541 66.9998Z" fill="#999898"/>
<rect x="95.8802" y="61.2578" width="15.6949" height="15.6949" stroke="#999898"/>
<path d="M126.775 72.2989V73.7929H129.957V68.8964V64H126.69V69.1849C126.69 69.7429 126.49 70.2294 126.173 70.6446C125.857 71.0598 125.396 71.2674 124.791 71.2674C124.468 71.2674 124.208 71.2122 124.011 71.102C123.814 70.9917 123.656 70.8392 123.536 70.6446C123.417 70.45 123.336 70.2294 123.294 69.9829C123.251 69.7364 123.23 69.4769 123.23 69.2044V64H119.749L117.435 66.4786V69.1849C117.435 69.1849 119.749 67.6866 119.749 68.1432V69.944C119.749 70.437 119.816 70.9203 119.95 71.3939C120.083 71.8675 120.301 72.2891 120.604 72.6589C120.906 73.0287 121.3 73.3304 121.785 73.5639C122.27 73.7974 122.865 73.9142 123.568 73.9142C123.933 73.9142 124.282 73.8688 124.612 73.778C124.943 73.6872 125.245 73.5704 125.519 73.4277C125.794 73.2849 126.033 73.1163 126.237 72.9216C126.441 72.727 126.606 72.5194 126.775 72.2989Z" fill="#999898"/>
<rect x="115.935" y="61.5" width="15.6949" height="15.6949" stroke="#999898"/>
<defs>
<clipPath id="clip0">
<rect width="11.4778" height="11.4778" fill="white" transform="translate(18.0869 62.545)"/>
</clipPath>
<clipPath id="clip1">
<rect width="11.4778" height="10.4343" fill="white" transform="translate(37.9121 63.5884)"/>
</clipPath>
<clipPath id="clip2">
<rect width="10.4343" height="10.4343" fill="white" transform="translate(78.606 63.5884)"/>
</clipPath>
</defs>
</svg>
