<svg width="478" height="437" viewBox="0 0 478 437" fill="none" xmlns="http://www.w3.org/2000/svg">
<path d="M342.186 8.32384C265.946 -12.4044 203.628 5.83646 184.775 60.1858C165.881 114.701 181.419 170.253 112.969 192.68C56.8663 210.548 -8.97358 242.055 1.0122 330.316C10.5008 414.058 62.0042 429.479 127.968 432.879C198.159 436.527 273.405 377.327 338.747 406.222C399.408 433.045 467.858 439.014 476.849 361.491C482.112 316.096 443.246 300.923 435.87 265.561C425.636 216.559 446.105 198.194 452.279 165.444C467.568 84.0647 415.277 31.4151 342.186 8.32384Z" fill="url(#paint0_linear)" fill-opacity="0.4"/>
<path d="M136.255 76.3967H134.49V122.455H136.255V76.3967Z" fill="#303A4B"/>
<path d="M136.255 57.4768H134.49V73.5835H136.255V57.4768Z" fill="#474A4F"/>
<path d="M403.284 228.914H405.049V178.167C405.049 178.057 406.208 161.674 391.204 154.779L390.432 156.379C404.387 162.777 403.339 177.505 403.284 178.112V228.914Z" fill="#474A4F"/>
<path d="M188.877 279.992L198.31 280.213C198.475 280.213 198.641 280.158 198.751 280.103L234.826 258.756C237.032 257.487 240.397 257.322 242.327 258.425L324.13 306.911C324.185 306.966 324.24 306.966 324.295 306.966L351.434 316.343C351.82 316.453 352.041 316.839 352.041 317.281V324.286C352.261 325.279 351.655 326.382 350.276 327.209L305.21 353.962C303.004 355.231 299.639 355.396 297.708 354.293L189.208 289.866C188.271 289.37 187.94 288.597 187.94 287.935V280.985C187.995 280.379 188.381 279.992 188.877 279.992Z" fill="#474A4F"/>
<path d="M297.322 354.955L188.822 290.583C187.719 289.921 187.057 288.983 187.167 287.88V280.93C187.167 280.434 187.333 279.992 187.664 279.661C187.995 279.33 188.436 279.055 188.933 279.165L198.365 279.33L234.44 257.983C236.922 256.549 240.618 256.384 242.769 257.653L324.626 306.138L351.765 315.515C352.537 315.736 352.923 316.453 352.923 317.281V324.176C353.199 325.61 352.372 326.989 350.717 327.926L305.651 354.679C304.327 355.451 302.617 355.948 300.963 355.948C299.584 355.837 298.315 355.506 297.322 354.955ZM235.267 259.473L199.192 280.82C198.917 280.985 198.641 281.096 198.255 281.04L188.822 280.82V279.882L188.767 287.77C188.767 288.321 189.208 288.708 189.595 288.928L298.094 353.3C299.694 354.238 302.728 354.127 304.713 352.969L349.779 326.216C350.772 325.665 351.269 324.893 351.103 324.286L351.048 317.06L324.02 307.738C323.909 307.683 323.799 307.627 323.689 307.572L241.886 259.032C241.114 258.59 240.121 258.37 239.073 258.37C237.749 258.48 236.37 258.811 235.267 259.473Z" fill="#474A4F"/>
<path d="M189.208 282.144L297.763 346.405C299.694 347.508 303.059 347.398 305.265 346.074L350.331 319.321C352.537 318.053 352.813 316.012 350.938 314.853L242.327 250.702C240.397 249.599 237.032 249.709 234.826 251.033L189.76 277.786C187.609 279.055 187.333 281.04 189.208 282.144Z" fill="white"/>
<path d="M297.322 347.232L188.822 282.916C187.719 282.254 187.057 281.316 187.057 280.213C187.057 278.944 187.885 277.786 189.319 276.959L234.384 250.206C236.867 248.772 240.507 248.606 242.714 249.875L351.213 314.192C352.317 314.853 352.979 315.791 352.979 316.894C352.979 318.163 352.151 319.321 350.717 320.149L305.651 346.901C304.327 347.674 302.617 348.06 300.963 348.06C299.584 348.17 298.315 347.839 297.322 347.232ZM235.267 251.806L190.201 278.558C189.264 279.055 188.767 279.717 188.767 280.323C188.767 280.93 189.208 281.261 189.594 281.482L298.094 345.798C299.694 346.736 302.728 346.626 304.713 345.467L349.779 318.715C350.717 318.218 351.213 317.556 351.213 316.95C351.213 316.398 350.772 316.012 350.386 315.791L241.941 251.475C241.169 251.033 240.176 250.868 239.128 250.868C237.749 250.813 236.37 251.144 235.267 251.806Z" fill="#474A4F"/>
<path d="M301.68 347.729H300.356V354.348H301.68V347.729Z" fill="#606B7C"/>
<path d="M347.849 321.473H346.525V328.092H347.849V321.473Z" fill="#5698D2"/>
<path d="M143.26 27.4698C143.15 27.3595 143.205 27.194 143.315 27.1388L151.368 22.5054C151.81 22.1744 152.361 22.1744 153.023 22.5606L396.279 166.639C397.548 167.411 398.651 169.507 398.651 171.272V362.291C398.651 363.229 398.375 363.891 397.989 364.222L389.494 369.021L381.055 358.595L384.364 357.106L153.023 220.089C151.754 219.316 150.651 217.22 150.651 215.455V37.8399L143.26 27.4698Z" fill="white"/>
<path d="M379.621 358.32L382.434 357.051L152.637 220.806C151.038 219.868 149.824 217.496 149.824 215.345V38.1708L142.598 28.0765C142.433 27.8007 142.322 27.4698 142.433 27.1388C142.488 26.8079 142.708 26.5321 143.039 26.3666L150.927 21.8986C151.699 21.2919 152.637 21.2919 153.575 21.8435L396.72 166.032C398.32 166.969 399.534 169.341 399.534 171.493V362.512C399.534 363.67 399.147 364.608 398.43 365.104L389.329 370.289L379.621 358.32ZM151.81 23.3328L144.363 27.5801L151.589 37.5089V215.4C151.589 216.834 152.527 218.654 153.52 219.261L386.24 357.161L382.434 358.926L389.66 367.918L397.382 363.56C397.548 363.45 397.713 363.063 397.713 362.401V171.382C397.713 169.948 396.775 168.128 395.783 167.521L152.692 23.3328C152.582 23.2776 152.417 23.1673 152.251 23.1673C152.03 23.1673 151.92 23.2225 151.81 23.3328Z" fill="#474A4F"/>
<path d="M144.529 224.998L387.729 369.186C388.998 369.958 390.101 369.131 390.101 367.311V176.236C390.101 174.471 388.998 172.375 387.729 171.603L144.529 27.4145C143.26 26.6423 142.157 27.4697 142.157 29.29V220.309C142.212 222.129 143.26 224.17 144.529 224.998Z" fill="#474A4F"/>
<path d="M387.343 369.848L144.088 225.66C142.488 224.722 141.274 222.35 141.274 220.199V29.29C141.274 28.0213 141.716 27.0284 142.543 26.532C143.315 26.1459 144.143 26.1459 144.97 26.6423L388.171 170.831C389.77 171.768 390.984 174.14 390.984 176.291V367.311C390.984 368.579 390.543 369.572 389.715 370.069C389.384 370.234 389.053 370.344 388.612 370.344C388.281 370.289 387.84 370.124 387.343 369.848ZM143.426 28.0765C143.26 28.1868 143.04 28.5729 143.04 29.3451V220.364C143.04 221.798 143.977 223.619 144.97 224.226L388.171 368.414C388.281 368.469 388.667 368.69 388.833 368.524C388.998 368.414 389.219 368.028 389.219 367.366V176.236C389.219 174.802 388.281 172.982 387.288 172.375L144.088 28.1868C143.977 28.1316 143.757 28.0213 143.591 28.0213C143.536 28.0213 143.536 28.0765 143.426 28.0765Z" fill="#474A4F"/>
<path d="M144.86 221.357L387.398 365.049C387.784 365.27 388.06 365.049 388.06 364.442V175.243C388.06 174.747 387.729 174.14 387.398 173.92L144.86 30.2828C144.474 30.0622 144.198 30.2828 144.198 30.8896V220.144C144.198 220.53 144.529 221.137 144.86 221.357Z" fill="#FEDAA4"/>
<path d="M386.957 365.877L144.474 222.185C143.812 221.799 143.37 220.916 143.37 220.089V30.7794C143.37 30.1726 143.591 29.6762 144.032 29.4555C144.418 29.2349 144.97 29.2349 145.301 29.5107L387.84 173.203C388.502 173.589 388.943 174.471 388.943 175.299V364.553C388.943 365.159 388.722 365.656 388.281 365.877C388.115 365.987 387.895 366.042 387.674 366.042C387.509 366.097 387.233 366.042 386.957 365.877ZM145.025 220.033C145.025 220.254 145.191 220.585 145.301 220.64L387.233 364.056V175.299C387.233 175.078 387.067 174.747 386.957 174.692L145.025 31.2758V220.033Z" fill="#474A4F"/>
<path d="M142.212 220.53V209.608L390.156 356.554V367.476C390.156 369.186 389.053 369.848 387.619 368.965L144.694 225.053C143.37 224.225 142.212 222.24 142.212 220.53Z" fill="#474A4F"/>
<path d="M387.178 369.738L144.363 225.825C142.653 224.832 141.385 222.516 141.385 220.53V208.064L390.598 355.782L391.039 356.058V367.476C391.039 368.579 390.598 369.517 389.88 369.903C389.549 370.069 389.219 370.179 388.777 370.179C388.281 370.289 387.729 370.124 387.178 369.738ZM143.039 211.098V220.475C143.039 221.799 143.977 223.564 145.135 224.226L388.005 368.138C388.391 368.359 388.777 368.414 388.943 368.304C389.163 368.193 389.274 367.862 389.274 367.366V356.885L143.039 211.098Z" fill="#474A4F"/>
<path d="M281.546 299.96L282.208 298.802L250.767 280.158L250.105 281.316L281.546 299.96Z" fill="#5698D2"/>
<path d="M390.763 174.471L399.092 169.341L398.155 167.797L389.881 172.927L390.763 174.471Z" fill="#474A4F"/>
<path d="M158.76 36.3504L167.089 31.2205L166.207 29.676L157.822 34.8059L158.76 36.3504Z" fill="#474A4F"/>
<path d="M390.763 355.507L399.092 350.321L398.155 348.832L389.881 353.962L390.763 355.507Z" fill="#474A4F"/>
<path d="M331.852 337.69L332.514 336.476L327.219 333.332L326.612 334.49L331.852 337.69Z" fill="#606B7C"/>
<path d="M301.459 343.15C302.397 343.15 303.224 342.93 304.051 342.378L313.484 336.421L312.546 334.932L303.169 340.889C302.176 341.496 300.907 341.551 299.914 340.944L206.473 286.281L205.646 287.77L299.087 342.433C299.749 342.93 300.632 343.15 301.459 343.15Z" fill="#606B7C"/>
<path d="M202.943 286.226L203.77 284.626L196.875 280.654C196.6 280.489 196.6 280.268 196.6 280.158C196.6 280.048 196.6 279.772 196.875 279.662L206.528 273.87L205.591 272.38L195.938 278.172C195.165 278.613 194.779 279.441 194.835 280.268C194.835 281.096 195.276 281.868 195.993 282.364L202.943 286.226Z" fill="#606B7C"/>
<path d="M391.26 348.942L399.589 343.757L398.651 342.268L390.322 347.398L391.26 348.942Z" fill="#474A4F"/>
<path d="M164.166 39.4395L172.495 34.3096L171.612 32.8203L163.283 37.9502L164.166 39.4395Z" fill="#474A4F"/>
<path d="M391.204 183.517L399.589 178.443L398.651 176.898L390.322 182.028L391.204 183.517Z" fill="#474A4F"/>
<path d="M238.411 148.711L201.233 126.703V111.313L238.411 133.322V148.711Z" fill="#FCCC53"/>
<path d="M239.404 150.311L200.351 127.199V109.658L239.404 132.77V150.311ZM202.171 126.096L237.528 147.057V133.874L202.171 112.913V126.096Z" fill="white"/>
<path d="M195.441 186L171.116 171.548V165.26L195.441 179.711V186Z" fill="#FCCC53"/>
<path d="M196.379 187.654L170.178 172.154V163.715L196.379 179.215V187.654ZM171.998 170.996L194.504 184.345V180.208L171.998 166.859V170.996Z" fill="white"/>
<path d="M238.632 211.594L201.233 189.42V183.187L238.632 205.306V211.594Z" fill="#FCCC53"/>
<path d="M239.569 213.249L200.351 190.026V181.587L239.569 204.809V213.249ZM202.171 188.868L237.749 209.884V205.747L202.171 184.786V188.868Z" fill="white"/>
<path d="M238.632 198.576L171.116 158.585V143.195L238.632 183.186V198.576Z" fill="white"/>
<path d="M239.569 200.231L170.178 159.137V141.541L239.569 182.635V200.231ZM171.998 157.978L237.694 196.921V183.738L172.053 144.795L171.998 157.978Z" fill="white"/>
<path d="M238.411 176.071L171.116 136.135V129.46L238.411 169.341V176.071Z" fill="#FCCC53"/>
<path d="M239.404 177.726L170.233 136.742V127.861L239.404 168.845V177.726ZM171.998 131.116V135.639L237.473 174.416V169.893" fill="white"/>
<path d="M238.411 162.17L201.233 140.162V133.322L238.411 155.386V162.17Z" fill="#FCCC53"/>
<path d="M239.404 163.77L200.351 140.658V131.667L239.404 154.779V163.77ZM202.171 139.555L237.528 160.516V155.882L202.171 134.921V139.555Z" fill="white"/>
<path d="M171.171 122.345L195.496 136.797V107.948L171.171 93.4963V122.345Z" fill="white"/>
<path d="M196.379 138.397L170.178 122.897V91.8416L196.379 107.342V138.397ZM171.998 121.738L194.504 135.087V108.445L171.998 95.096V121.738Z" fill="white"/>
<path d="M277.464 231.286L249.774 214.793V206.519L277.464 222.957V231.286Z" fill="#FEE4A4"/>
<path d="M278.402 232.886L248.891 215.4V204.864L278.402 222.35V232.886ZM250.656 214.242L276.471 229.631V223.508L250.656 208.119V214.242Z" fill="white"/>
<path d="M251.098 183.628L360.37 247.944V232.113L251.098 167.742V183.628Z" fill="#FEE4A4"/>
<path d="M361.252 249.544L250.105 184.124V166.142L361.197 231.617V249.544H361.252ZM251.98 183.021L359.377 246.29V232.61L251.98 169.341V183.021Z" fill="white"/>
<path d="M250.491 196.315L359.763 260.631V254.894L250.491 190.578V196.315Z" fill="white"/>
<path d="M360.701 262.231L249.609 196.811V188.978L360.701 254.453V262.231ZM251.429 195.708L358.825 258.976V255.446L251.429 192.178V195.708Z" fill="white"/>
<path d="M382.654 152.904L329.204 121.242L330.142 119.642L383.482 151.304L382.654 152.904Z" fill="#474A4F"/>
<path d="M389.439 376.578L388.501 374.978L398.761 368.524C400.857 367.2 402.236 364.718 402.236 362.126V320.7H404.112V362.181C404.112 365.435 402.457 368.469 399.754 370.179L389.439 376.578Z" fill="#474A4F"/>
<g filter="url(#filter0_d)">
<path d="M357.943 279.441L289.71 239.008C287.779 237.905 286.235 234.816 286.235 232.168C286.235 229.576 287.834 228.362 289.71 229.466L357.943 269.898C359.873 271.001 361.418 274.09 361.418 276.738C361.418 279.385 359.818 280.544 357.943 279.441Z" fill="#FCCC53"/>
<path d="M359.322 280.764C358.715 280.764 358.053 280.599 357.446 280.213L289.268 239.781C287.062 238.512 285.352 235.147 285.352 232.113C285.352 230.348 285.959 229.024 287.007 228.418C287.945 227.811 289.103 227.921 290.206 228.583L358.384 269.015C360.59 270.284 362.355 273.649 362.355 276.683C362.355 278.448 361.749 279.772 360.701 280.378C360.259 280.654 359.763 280.764 359.322 280.764ZM288.386 230.017C288.22 230.017 288.11 230.072 287.945 230.127C287.503 230.403 287.172 231.231 287.172 232.224C287.172 234.485 288.607 237.243 290.206 238.236L358.384 278.668C358.715 278.834 359.322 279.11 359.708 278.834C360.149 278.558 360.48 277.731 360.48 276.738C360.48 274.476 359.046 271.663 357.446 270.725L289.268 230.293C289.048 230.183 288.717 230.017 288.386 230.017Z" fill="white"/>
<path d="M351.71 272.325L318.173 292.183C305.265 299.85 295.557 312.04 290.813 326.547L278.788 363.615C272.555 382.866 259.537 399.083 242.438 409.177L215.189 425.118L162.456 393.291L190.201 376.798C207.025 366.814 219.712 350.928 226 332.118L238.687 294.058C243.486 279.827 253.029 267.912 265.66 260.355L298.094 240.994L351.71 272.325Z" fill="white"/>
<path d="M353.034 274.145L319.496 294.003C306.589 301.67 296.881 313.86 292.137 328.368L280.112 365.435C273.879 384.686 260.861 400.903 243.762 410.997L216.513 426.939L163.724 395.111L191.47 378.618C208.294 368.634 220.98 352.748 227.269 333.939L239.956 295.878C244.754 281.647 254.297 269.732 266.929 262.175L299.363 242.814L353.034 274.145Z" fill="white"/>
<path d="M215.189 426.221L160.635 393.291L189.705 375.971C206.253 366.097 218.884 350.432 225.118 331.787L237.804 293.727C242.658 279.275 252.367 267.14 265.164 259.528L298.039 239.946L353.53 272.38L318.559 293.065C305.872 300.567 296.274 312.592 291.641 326.933L279.616 364.001C273.272 383.472 260.199 399.91 242.879 410.06L215.189 426.221ZM164.276 393.291L215.189 424.07L241.997 408.35C258.986 398.366 271.728 382.369 277.961 363.339L289.986 326.271C294.785 311.544 304.658 299.133 317.731 291.41L349.834 272.38L297.984 242.042L266.101 261.127C253.635 268.519 244.258 280.378 239.514 294.334L226.828 332.394C220.484 351.424 207.577 367.476 190.643 377.57L164.276 393.291Z" fill="#606B7C"/>
<path d="M321.647 283.412L279.726 258.535L284.525 255.667L326.446 280.544L321.647 283.412Z" fill="white"/>
<path d="M321.647 284.515L321.206 284.239L277.906 258.59L284.525 254.619L284.966 254.894L328.322 280.544L321.647 284.515ZM281.546 258.535L321.647 282.254L324.571 280.489L284.47 256.715L281.546 258.535Z" fill="#606B7C"/>
<path d="M330.969 277.731L288.993 252.854L293.792 250.04L335.713 274.918L330.969 277.731Z" fill="white"/>
<path d="M330.969 278.889L330.528 278.613L287.228 252.964L293.847 248.992L294.288 249.268L337.589 274.918L330.969 278.889ZM290.868 252.909L330.969 276.627L333.893 274.862L293.792 251.088L290.868 252.909Z" fill="#606B7C"/>
<path d="M312.326 289.149L270.404 264.272L275.203 261.458L317.125 286.336L312.326 289.149Z" fill="white"/>
<path d="M312.325 290.252L311.884 289.976L268.583 264.327L275.203 260.355L275.644 260.631L318.945 286.281L312.325 290.252ZM272.169 264.272L312.27 288.046L315.194 286.281L275.037 262.562L272.169 264.272Z" fill="#606B7C"/>
<path d="M256.89 273.649C255.786 274.807 254.683 276.076 253.635 277.4L295.778 302.167C296.881 300.898 297.874 299.629 299.087 298.471L256.89 273.649Z" fill="white"/>
<path d="M295.943 303.325L252.146 277.62L252.808 276.793C253.801 275.524 254.904 274.256 256.117 272.987L256.614 272.49L300.466 298.25L299.639 299.188C298.535 300.291 297.432 301.56 296.384 302.828C296.384 302.773 295.943 303.325 295.943 303.325ZM255.014 277.124L295.612 300.898C296.274 300.126 296.936 299.298 297.653 298.636L257.055 274.862C256.283 275.579 255.621 276.352 255.014 277.124Z" fill="#606B7C"/>
<path d="M247.623 287.604L289.655 312.261C290.427 310.827 291.254 309.448 292.137 308.069L250.05 283.357C249.222 284.846 248.395 286.225 247.623 287.604Z" fill="white"/>
<path d="M289.986 313.585L246.354 287.991L246.795 287.218C247.568 285.784 248.395 284.35 249.277 282.916L249.719 282.144L293.406 307.793L292.854 308.62C291.916 309.944 291.199 311.378 290.372 312.757C290.427 312.868 289.986 313.585 289.986 313.585ZM248.891 287.273L289.324 310.992C289.82 310.165 290.317 309.227 290.813 308.4L250.326 284.681C249.829 285.508 249.333 286.446 248.891 287.273Z" fill="#606B7C"/>
<path d="M238.246 314.247L279.34 338.682L280.884 333.884L239.79 309.503L238.246 314.247Z" fill="white"/>
<path d="M279.836 340.061L237.142 314.688L239.349 308.124L281.987 333.442L279.836 340.061ZM239.349 313.86L278.788 337.248L279.726 334.325L240.286 310.937L239.349 313.86Z" fill="#606B7C"/>
<path d="M234.715 325.72L275.754 350.101L277.299 345.412L236.26 320.976L234.715 325.72Z" fill="white"/>
<path d="M276.251 351.535L233.557 326.161L235.763 319.652L278.402 344.971L276.251 351.535ZM235.708 325.279L275.148 348.667L276.085 345.743L236.701 322.355L235.708 325.279Z" fill="#606B7C"/>
<path d="M230.744 336.531L271.838 360.967L273.327 356.223L232.343 331.843L230.744 336.531Z" fill="white"/>
<path d="M271.342 361.684L230.247 337.248C229.861 337.028 229.696 336.586 229.806 336.145L231.406 331.346C231.571 330.795 232.233 330.574 232.729 330.85L273.769 355.23C274.155 355.451 274.32 355.892 274.21 356.334L272.61 361.188C272.5 361.739 271.838 362.015 271.342 361.684ZM232.509 336.421L270.349 358.871C270.845 359.147 271.507 358.926 271.672 358.375L272.059 357.216C272.169 356.775 272.003 356.389 271.617 356.113L233.778 333.663C233.281 333.387 232.619 333.608 232.454 334.159L232.068 335.318C231.957 335.759 232.123 336.2 232.509 336.421Z" fill="#606B7C"/>
<path d="M264.171 389.54L213.092 358.375C212.651 358.099 212.486 357.602 212.817 357.106L212.872 357.051C213.148 356.609 213.699 356.444 214.14 356.72L265.219 387.885C265.66 388.161 265.825 388.657 265.494 389.154L265.439 389.209C265.163 389.65 264.612 389.816 264.171 389.54Z" fill="#606B7C"/>
<path d="M241.224 384.355L212.486 366.759C212.045 366.483 211.934 365.987 212.155 365.545V365.49C212.431 365.049 212.982 364.883 213.424 365.159L242.162 382.7C242.603 382.976 242.769 383.472 242.438 383.969L242.383 384.024C242.272 384.52 241.666 384.631 241.224 384.355Z" fill="#606B7C"/>
<path d="M290.427 327.375L237.804 295.216L238.742 293.617L291.365 325.72L290.427 327.375Z" fill="#606B7C"/>
<path d="M236.646 388.823L207.908 371.282C207.466 371.006 207.356 370.51 207.577 370.069V370.014C207.852 369.572 208.404 369.407 208.845 369.683L237.584 387.223C238.025 387.499 238.19 388.051 237.859 388.492C237.639 388.933 237.087 389.044 236.646 388.823Z" fill="#606B7C"/>
<path d="M263.509 391.967L210.886 359.864L211.824 358.264L264.447 390.422L263.509 391.967Z" fill="#606B7C"/>
<path opacity="0.2" d="M235.984 391.305L205.646 372.771L206.584 371.172L236.811 389.706L235.984 391.305Z" fill="#606B7C"/>
<path d="M257.11 362.898L228.372 345.412C227.931 345.136 227.765 344.64 228.096 344.143L228.151 344.088C228.427 343.647 228.979 343.481 229.42 343.757L258.158 361.298C258.6 361.574 258.71 362.07 258.489 362.512V362.567C258.158 363.063 257.552 363.174 257.11 362.898Z" fill="#606B7C"/>
</g>
<g filter="url(#filter1_d)">
<path d="M69.7317 299.684C70.3385 300.622 71.3314 301.56 72.6552 302.332L155.395 351.369C159.863 353.962 166.648 354.293 170.509 351.976L206.749 330.464C208.349 329.526 209.231 328.202 209.342 326.878C209.728 324.617 209.121 322.079 209.121 322.079L206.694 322.19C206.363 321.969 206.032 321.693 205.591 321.417L122.851 272.49C118.383 269.898 111.598 269.567 107.737 271.884L71.552 293.396L68.794 293.231C68.794 293.231 67.6908 296.32 69.5663 299.464C69.5663 299.464 69.5663 299.519 69.6214 299.519C69.6214 299.519 69.6766 299.629 69.7317 299.684Z" fill="#474A4F"/>
<path d="M164 353.962C160.966 353.962 157.712 353.19 155.23 351.7L72.4896 302.718C71.1658 301.946 70.1178 300.953 69.4558 299.96L69.3455 299.85C69.2904 299.795 69.2904 299.739 69.2352 299.684C67.3046 296.375 68.2975 293.175 68.4078 293.065L68.5181 292.789L71.4416 292.955L107.571 271.498C111.543 269.126 118.493 269.401 123.127 272.104L205.922 321.197C206.253 321.362 206.529 321.583 206.859 321.804L209.507 321.638L209.617 321.969C209.617 322.079 210.224 324.672 209.838 326.933V326.989C209.673 328.478 208.735 329.857 207.025 330.85L170.785 352.362C168.965 353.465 166.537 353.962 164 353.962ZM70.0626 299.464C70.6694 300.401 71.6622 301.229 72.8206 302.001L155.616 351.038C159.973 353.631 166.537 353.907 170.344 351.645L206.584 330.133C208.018 329.305 208.845 328.092 209.011 326.878L209.066 326.658C209.287 325.058 209.011 323.348 208.9 322.631L207.135 322.741L207.025 323.017L206.529 322.686C206.142 322.41 205.867 322.19 205.536 322.024L122.74 272.932C118.438 270.339 111.819 270.063 108.013 272.325L71.6622 293.782L69.1249 293.672C68.9594 294.499 68.5733 296.816 69.8971 299.243C69.9523 299.409 69.9523 299.409 70.0626 299.464L69.7316 299.739L70.0626 299.464Z" fill="#474A4F"/>
<path d="M71.4417 289.645L107.682 268.133C111.543 265.871 118.383 266.092 122.796 268.74L205.591 317.832C210.059 320.425 210.555 324.506 206.694 326.823L170.399 348.335C166.538 350.597 159.753 350.376 155.285 347.729L72.5449 298.691C68.0769 295.989 67.5253 291.907 71.4417 289.645Z" fill="white"/>
<path d="M163.835 350.266C160.801 350.266 157.546 349.494 155.064 348.005L72.3241 298.967C69.8419 297.533 68.3525 295.492 68.3525 293.507C68.3525 291.852 69.3454 290.307 71.1657 289.204L107.406 267.692C111.377 265.32 118.328 265.596 122.961 268.298L205.756 317.336C208.238 318.77 209.728 320.811 209.728 322.797C209.728 324.451 208.735 325.996 206.915 327.099L170.674 348.611C168.799 349.715 166.372 350.266 163.835 350.266ZM114.191 267.03C111.763 267.03 109.557 267.526 107.847 268.519L71.6621 290.031C70.0625 290.969 69.2351 292.238 69.2351 293.562C69.2351 295.217 70.5038 296.926 72.7102 298.25L155.45 347.288C159.808 349.88 166.372 350.156 170.178 347.894L206.418 326.382C208.018 325.444 208.845 324.176 208.845 322.852C208.845 321.142 207.576 319.487 205.37 318.163L122.575 269.126C120.148 267.747 117.114 267.03 114.191 267.03Z" fill="#474A4F"/>
<path d="M108.068 271.056L105.365 272.656C104.538 273.153 104.538 273.98 105.365 274.532C106.192 275.028 106.192 275.855 105.365 276.407L85.1765 288.377C84.3491 288.873 82.9149 288.873 82.0324 288.377C81.205 287.88 79.7708 287.88 78.8882 288.377L73.2619 291.741C71.3313 292.9 71.3313 294.775 73.2619 295.934L157.05 345.357C160.635 347.453 166.482 347.453 170.068 345.357L204.874 324.672C206.804 323.514 206.804 321.638 204.874 320.48L121.031 271.001C117.5 268.96 111.598 268.96 108.068 271.056Z" fill="#FCCC53"/>
<path d="M163.504 347.398C161.077 347.398 158.65 346.791 156.829 345.798L73.0413 296.32C71.9381 295.713 71.3313 294.83 71.3313 293.893C71.3313 292.955 71.9381 292.017 73.0413 291.466L78.6676 288.101C79.6605 287.494 81.2601 287.494 82.253 288.101C83.0252 288.542 84.2939 288.542 85.011 288.101L105.2 276.076C105.475 275.91 105.641 275.69 105.641 275.469C105.641 275.304 105.475 275.083 105.2 274.918C104.648 274.587 104.372 274.145 104.372 273.649C104.372 273.152 104.703 272.656 105.2 272.38L107.902 270.781C111.598 268.574 117.666 268.574 121.361 270.781L205.15 320.204C206.253 320.811 206.86 321.693 206.86 322.631C206.86 323.569 206.253 324.506 205.15 325.058L170.344 345.743C168.413 346.846 165.876 347.398 163.504 347.398ZM80.4879 288.487C79.9914 288.487 79.495 288.597 79.164 288.818L73.4825 292.183C72.7103 292.679 72.2139 293.286 72.2139 293.948C72.2139 294.61 72.6551 295.216 73.4825 295.713L157.271 345.136C160.746 347.232 166.427 347.177 169.902 345.136L204.708 324.451C205.48 323.955 205.977 323.348 205.977 322.686C205.977 322.079 205.536 321.417 204.708 320.921L120.92 271.498C117.445 269.402 111.764 269.457 108.289 271.498L105.586 273.042C105.31 273.208 105.144 273.428 105.144 273.594C105.144 273.759 105.31 273.98 105.586 274.2C106.192 274.531 106.413 274.973 106.413 275.469C106.413 275.966 106.082 276.462 105.586 276.738L85.3971 288.763C84.4042 289.369 82.8046 289.369 81.8117 288.763C81.4807 288.542 80.9843 288.487 80.4879 288.487Z" fill="#474A4F"/>
<path d="M98.47 277.124C97.9735 276.848 97.9735 276.352 98.47 276.021C98.9664 275.745 99.7387 275.745 100.235 276.021C100.732 276.296 100.732 276.793 100.235 277.124C99.7387 277.455 98.9113 277.455 98.47 277.124Z" fill="#474A4F"/>
<path d="M85.2317 283.909L95.7121 277.676C96.1534 277.4 96.8705 277.455 97.4221 277.731C97.9185 278.007 97.9737 278.503 97.5324 278.724L87.052 284.957C86.6107 285.233 85.8936 285.177 85.3972 284.902C84.8456 284.571 84.7904 284.184 85.2317 283.909Z" fill="#474A4F"/>
<path d="M162.345 353.3H162.842L162.897 350.101H162.4L162.345 353.3Z" fill="#606B7C"/>
<path d="M207.245 330.133L206.804 329.967C207.301 328.313 206.804 326.713 206.804 326.658L207.245 326.492C207.301 326.658 207.797 328.313 207.245 330.133Z" fill="#606B7C"/>
<path d="M205.867 331.015L205.425 330.85C205.922 329.195 205.425 327.595 205.425 327.54L205.867 327.375C205.867 327.485 206.363 329.14 205.867 331.015Z" fill="#606B7C"/>
<path d="M96.7599 315.736C96.5944 315.736 96.4289 315.681 96.2634 315.57L91.2439 312.537C90.7474 312.206 90.3062 311.544 90.3062 311.047V310.937C90.3062 310.661 90.4165 310.441 90.6371 310.275C90.8578 310.165 91.1887 310.165 91.4645 310.33L96.4841 313.364C96.9805 313.695 97.4218 314.357 97.4218 314.853V314.964C97.4218 315.24 97.3115 315.46 97.0908 315.626C97.0357 315.736 96.9254 315.736 96.7599 315.736ZM90.9129 310.661C90.8578 310.661 90.8578 310.661 90.8026 310.661C90.7474 310.716 90.7474 310.827 90.7474 310.882V310.992C90.7474 311.378 91.0784 311.93 91.4094 312.095L96.4841 315.129C96.6496 315.24 96.815 315.24 96.8702 315.184C96.9254 315.129 96.9254 315.019 96.9254 314.964V314.853C96.9254 314.467 96.5944 313.916 96.2634 313.75L91.1887 310.716C91.0784 310.661 90.9681 310.661 90.9129 310.661Z" fill="#606B7C"/>
<path d="M104.703 320.59C104.537 320.59 104.372 320.535 104.207 320.425L99.1318 317.391C98.6354 317.06 98.1941 316.398 98.1941 315.902V315.791C98.1941 315.515 98.3044 315.295 98.5251 315.129C98.7457 315.019 99.0767 315.019 99.3525 315.185L104.427 318.218C104.924 318.549 105.365 319.211 105.365 319.708V319.818C105.365 320.094 105.255 320.314 105.034 320.48C104.924 320.59 104.868 320.59 104.703 320.59ZM99.0215 315.515C98.9663 315.515 98.7457 315.515 98.6905 315.515C98.6354 315.571 98.6354 315.681 98.6354 315.736V315.846C98.6354 316.233 98.9663 316.784 99.2973 316.95L104.372 319.983C104.537 320.094 104.703 320.094 104.758 320.039C104.813 319.983 104.813 319.873 104.813 319.818V319.708C104.813 319.322 104.482 318.77 104.151 318.604L99.0215 315.515C98.9663 315.515 99.1318 315.515 99.0215 315.515Z" fill="#606B7C"/>
<path d="M185.016 342.268C184.795 342.158 184.685 341.937 184.685 341.606V341.496C184.685 340.944 185.071 340.227 185.623 340.006L190.642 336.973C190.973 336.807 191.249 336.752 191.47 336.917C191.69 337.028 191.801 337.248 191.801 337.579V337.69C191.801 338.296 191.415 338.958 190.863 339.179L185.843 342.213C185.678 342.323 185.512 342.378 185.347 342.378C185.237 342.433 185.126 342.378 185.016 342.268ZM190.973 337.414L185.954 340.448C185.568 340.668 185.292 341.22 185.292 341.551V341.661C185.292 341.716 185.292 341.827 185.347 341.882C185.402 341.937 185.512 341.937 185.733 341.827L190.753 338.793C191.139 338.572 191.415 338.021 191.415 337.69V337.579C191.415 337.524 191.415 337.414 191.359 337.359C191.359 337.359 191.304 337.359 191.249 337.359C191.194 337.304 191.084 337.359 190.973 337.414Z" fill="#606B7C"/>
<path d="M86.9414 310.055C86.7759 310.055 86.6104 309.999 86.445 309.889L83.5766 308.234C83.0802 307.903 82.6389 307.241 82.6389 306.745V306.635C82.6389 306.359 82.7492 306.138 82.9699 305.973C83.1905 305.862 83.5766 305.862 83.7973 306.028L86.6656 307.683C87.162 308.014 87.6033 308.676 87.6033 309.172V309.282C87.6033 309.558 87.493 309.779 87.2724 309.944C87.2172 309.999 87.1069 310.055 86.9414 310.055ZM83.2457 306.304C83.1905 306.304 83.1905 306.304 83.1354 306.304C83.0802 306.359 83.0802 306.469 83.0802 306.524V306.635C83.0802 307.021 83.4112 307.572 83.7421 307.738L86.6104 309.448C86.7759 309.558 86.9414 309.558 86.9966 309.503C87.0517 309.448 87.0517 309.338 87.0517 309.282V309.172C87.0517 308.786 86.7208 308.234 86.3898 308.069L83.5215 306.414C83.4112 306.359 83.356 306.304 83.2457 306.304Z" fill="#606B7C"/>
<path d="M85.0659 307.958V307.848C85.0659 307.407 85.452 307.241 85.8933 307.517L86.5001 307.903C86.9414 308.179 87.3275 308.731 87.3275 309.227V309.337C87.3275 309.779 86.9414 309.944 86.5001 309.668L85.8933 309.282C85.452 309.062 85.0659 308.455 85.0659 307.958Z" fill="#606B7C"/>
<path d="M85.5625 307.958C85.5625 308.344 85.8935 308.896 86.2244 309.062L86.8312 309.448C86.9967 309.558 87.1621 309.558 87.2173 309.503C87.2725 309.448 87.2725 309.337 87.2725 309.282V309.172C87.2725 308.786 86.9415 308.234 86.6105 308.069L86.0038 307.683C85.8383 307.572 85.6728 307.572 85.6177 307.627C85.5625 307.683 85.5625 307.793 85.5625 307.848V307.958Z" fill="#606B7C"/>
<path d="M164 350.101L164.055 353.41H164.552L164.496 350.101H164Z" fill="#606B7C"/>
<path d="M170.012 348.556L170.068 351.866H170.564L170.509 348.556H170.012Z" fill="#606B7C"/>
<path d="M157.767 352.417H158.263L158.318 349.218H157.822L157.767 352.417Z" fill="#606B7C"/>
<path d="M150.431 348.336H150.927L150.982 345.136H150.486L150.431 348.336Z" fill="#606B7C"/>
<path d="M173.598 329.25L172.771 328.754L173.101 328.147L173.929 328.643L173.598 329.25Z" fill="white"/>
<path d="M182.534 334.546L181.1 333.608L181.431 333.056L182.865 333.994L182.534 334.546ZM179.555 332.78L178.121 331.843L178.452 331.291L179.886 332.229L179.555 332.78ZM176.576 331.015L175.142 330.078L175.473 329.526L176.907 330.464L176.576 331.015Z" fill="white"/>
<path d="M184.906 335.869L184.023 335.428L184.354 334.821L185.126 335.318L184.906 335.869Z" fill="white"/>
<path d="M99.9594 306.304C99.4629 306.304 98.9665 306.193 98.5252 305.917L87.4932 299.409C87.0519 299.133 86.7209 298.747 86.7209 298.305C86.7209 297.974 86.8864 297.643 87.2725 297.478L121.196 277.4C121.858 277.014 122.961 277.069 123.788 277.51L134.82 284.019C135.262 284.295 135.593 284.681 135.593 285.122C135.593 285.453 135.427 285.784 134.986 285.949L101.063 306.028C100.842 306.138 100.345 306.304 99.9594 306.304ZM122.409 277.731C122.134 277.731 121.803 277.786 121.637 277.896L87.7138 297.974C87.6035 298.03 87.4932 298.14 87.4932 298.25C87.4932 298.361 87.6035 298.526 87.8793 298.691L98.9113 305.2C99.4629 305.531 100.345 305.586 100.842 305.311L134.765 285.232C134.876 285.177 134.986 285.067 134.986 284.957C134.986 284.846 134.876 284.681 134.6 284.515L123.568 278.006C123.182 277.786 122.851 277.731 122.409 277.731Z" fill="white"/>
<path d="M106.965 310.385C106.468 310.385 105.972 310.275 105.53 309.999L103.158 308.565C102.717 308.289 102.386 307.903 102.386 307.462C102.386 307.131 102.552 306.8 102.938 306.635L136.861 286.556C137.523 286.17 138.626 286.225 139.454 286.667L141.826 288.101C142.267 288.377 142.598 288.763 142.598 289.204C142.598 289.535 142.432 289.866 141.991 290.031L108.013 310.11C107.792 310.33 107.406 310.385 106.965 310.385ZM138.075 287.053C137.799 287.053 137.468 287.108 137.303 287.218L103.379 307.296C103.269 307.352 103.158 307.462 103.158 307.572C103.158 307.683 103.269 307.848 103.545 308.014L105.916 309.448C106.468 309.779 107.351 309.834 107.847 309.558L141.77 289.48C141.881 289.425 141.991 289.314 141.991 289.204C141.991 289.094 141.881 288.928 141.605 288.763L139.233 287.329C138.902 287.108 138.461 287.053 138.075 287.053Z" fill="white"/>
<path d="M129.58 323.789C129.084 323.789 128.587 323.679 128.146 323.403L125.774 321.969C125.333 321.693 125.002 321.307 125.002 320.866C125.002 320.535 125.167 320.204 125.609 320.038L159.532 299.96C160.194 299.574 161.297 299.629 162.125 300.07L164.497 301.505C164.938 301.78 165.269 302.167 165.269 302.608C165.269 302.939 165.103 303.27 164.662 303.435L130.739 323.513C130.408 323.679 129.966 323.789 129.58 323.789ZM160.635 300.401C160.36 300.401 160.029 300.457 159.863 300.567L125.94 320.645C125.829 320.7 125.719 320.811 125.719 320.921C125.719 321.031 125.829 321.197 126.105 321.362L128.477 322.796C129.029 323.127 129.911 323.183 130.408 322.907L164.331 302.828C164.441 302.773 164.552 302.663 164.552 302.553C164.552 302.442 164.441 302.277 164.166 302.111L161.794 300.677C161.463 300.512 161.021 300.401 160.635 300.401Z" fill="white"/>
<path d="M136.53 327.926C136.034 327.926 135.538 327.816 135.096 327.54L127.539 323.182C127.098 322.907 126.767 322.521 126.767 322.079C126.767 321.748 126.933 321.417 127.319 321.252L161.242 301.174C161.904 300.787 163.007 300.843 163.835 301.284L171.392 305.642C171.833 305.917 172.164 306.303 172.164 306.745C172.164 307.076 171.998 307.407 171.557 307.572L137.634 327.65C137.303 327.816 136.917 327.926 136.53 327.926ZM162.511 301.56C162.235 301.56 161.904 301.615 161.739 301.725L127.815 321.803C127.705 321.859 127.594 321.969 127.594 322.079C127.594 322.19 127.705 322.355 127.981 322.521L135.538 326.878C136.089 327.209 136.972 327.264 137.468 326.989L171.392 306.91C171.502 306.855 171.612 306.745 171.612 306.634C171.612 306.524 171.502 306.359 171.226 306.193L163.669 301.836C163.283 301.67 162.842 301.56 162.511 301.56Z" fill="white"/>
<path d="M122.409 319.597C121.913 319.597 121.417 319.487 120.975 319.211L110.495 312.978C110.054 312.702 109.723 312.316 109.723 311.875C109.723 311.544 109.888 311.213 110.329 311.047L125.002 302.332C125.664 301.946 126.767 302.001 127.595 302.442L138.075 308.676C138.516 308.951 138.847 309.337 138.847 309.779C138.847 310.11 138.682 310.441 138.296 310.606L123.623 319.321C123.292 319.487 122.851 319.597 122.409 319.597ZM126.105 302.773C125.829 302.773 125.498 302.829 125.333 302.939L110.66 311.654C110.55 311.709 110.44 311.82 110.44 311.93C110.44 312.04 110.55 312.206 110.826 312.371L121.306 318.604C121.858 318.935 122.74 318.991 123.237 318.715L137.909 309.999C138.02 309.944 138.13 309.834 138.13 309.724C138.13 309.613 138.02 309.448 137.744 309.282L127.264 303.049C126.933 302.829 126.546 302.773 126.105 302.773Z" fill="white"/>
<path d="M112.591 314.247L112.315 313.64L129.084 303.711L129.415 304.318L112.591 314.247Z" fill="white"/>
<path d="M131.897 302.663L131.566 302.111L148.39 292.183L148.666 292.734L131.897 302.663Z" fill="white"/>
</g>
<path d="M154.513 337.966C154.016 337.966 153.52 337.855 153.078 337.579L145.522 333.222C145.08 332.946 144.749 332.56 144.749 332.119C144.749 331.788 144.915 331.457 145.356 331.291L179.279 311.213C179.941 310.827 181.045 310.882 181.872 311.323L189.429 315.681C189.87 315.957 190.201 316.343 190.201 316.784C190.201 317.115 190.036 317.446 189.594 317.611L155.671 337.69C155.34 337.855 154.954 337.966 154.513 337.966ZM180.493 311.599C180.217 311.599 179.886 311.654 179.721 311.765L145.797 331.843C145.687 331.898 145.577 332.008 145.577 332.119C145.577 332.229 145.687 332.394 145.963 332.56L153.52 336.917C154.126 337.248 154.954 337.304 155.45 337.028L189.374 316.95C189.484 316.894 189.594 316.784 189.594 316.674C189.594 316.563 189.484 316.398 189.208 316.232L181.651 311.875C181.32 311.709 180.824 311.599 180.493 311.599Z" fill="white"/>
<path d="M202.392 378.894L200.792 377.902L201.895 376.964L206.859 379.942L205.756 380.88L204.101 379.887L200.406 383.031L198.696 381.983L202.392 378.894Z" fill="#606B7C"/>
<path d="M208.624 386.948C207.521 387.003 206.528 386.782 205.591 386.231C204.653 385.679 204.101 384.962 204.046 384.245C203.991 383.528 204.322 382.921 205.039 382.314C205.811 381.708 206.639 381.321 207.632 381.211C208.569 381.101 209.507 381.321 210.445 381.818L209.397 382.7C209.011 382.535 208.569 382.535 208.128 382.645C207.687 382.756 207.245 382.976 206.859 383.307C206.418 383.693 206.197 384.024 206.142 384.41C206.087 384.796 206.253 385.127 206.694 385.348C207.08 385.569 207.576 385.679 208.073 385.569C208.569 385.458 209.066 385.238 209.507 384.852C209.893 384.521 210.169 384.135 210.224 383.804C210.279 383.473 210.169 383.142 209.893 382.921L210.941 382.038C211.824 382.59 212.265 383.252 212.32 383.969C212.375 384.686 212.044 385.293 211.327 385.9C210.5 386.562 209.617 386.893 208.624 386.948Z" fill="#606B7C"/>
<path d="M214.582 386.175L212.982 385.182L214.085 384.245L219.05 387.223L217.946 388.161L216.292 387.168L212.596 390.312L210.886 389.264L214.582 386.175Z" fill="#606B7C"/>
<path d="M222.856 389.595C222.856 389.595 222.801 389.761 222.635 390.037L219.988 394.836L218.167 393.732C218.167 393.732 218.222 393.567 218.388 393.291L218.829 392.519L217.56 391.747L218.774 391.085L219.546 391.581L220.76 389.651L215.74 392.243L213.975 391.195L220.594 388.216L222.856 389.595Z" fill="#606B7C"/>
<path d="M225.559 391.25L227.269 392.298L223.573 395.442L226 396.932L224.952 397.869L220.815 395.387L225.559 391.25Z" fill="#606B7C"/>
<path d="M194.729 405.476C193.244 402.161 196.821 398.236 202.76 396.68C208.631 395.124 214.637 396.544 216.122 399.86C217.606 403.176 214.03 407.1 208.091 408.656C202.22 410.213 196.214 408.792 194.729 405.476ZM215.244 400.063C213.895 397.018 208.361 395.733 202.962 397.153C197.563 398.574 194.257 402.228 195.606 405.273C196.956 408.318 202.49 409.604 207.889 408.183C213.287 406.762 216.662 403.108 215.244 400.063Z" fill="#FCCC53" stroke="#FFE8AF" stroke-width="2" stroke-miterlimit="10"/>
<path d="M201.756 404.953C200.678 404.01 200.813 402.595 202.026 401.786C202.16 401.719 202.43 401.719 202.565 401.854C202.7 401.988 202.7 402.123 202.497 402.258C201.621 402.797 201.554 403.875 202.363 404.616C203.171 405.357 204.519 405.492 205.395 404.886C206.271 404.347 206.338 403.269 205.53 402.527C204.451 401.584 204.586 400.169 205.799 399.361C207.012 398.619 208.831 398.754 209.909 399.765C210.448 400.304 210.718 400.978 210.583 401.584C210.583 401.719 210.381 401.854 210.179 401.854C209.977 401.854 209.842 401.719 209.842 401.517C209.909 401.045 209.707 400.506 209.303 400.102C208.494 399.361 207.147 399.226 206.271 399.832C205.395 400.371 205.327 401.449 206.136 402.191C207.214 403.134 207.079 404.549 205.866 405.357C204.654 406.166 202.834 405.964 201.756 404.953Z" fill="#606B7C"/>
<path d="M200.678 405.558C200.543 405.423 200.543 405.289 200.746 405.154L210.314 399.022C210.448 398.955 210.718 398.955 210.853 399.089C210.987 399.224 210.987 399.359 210.785 399.494L201.217 405.625C201.082 405.693 200.813 405.693 200.678 405.558Z" fill="#606B7C"/>
<defs>
<filter id="filter0_d" x="154.635" y="226.019" width="213.72" height="210.92" filterUnits="userSpaceOnUse" color-interpolation-filters="sRGB">
<feFlood flood-opacity="0" result="BackgroundImageFix"/>
<feColorMatrix in="SourceAlpha" type="matrix" values="0 0 0 0 0 0 0 0 0 0 0 0 0 0 0 0 0 0 127 0"/>
<feOffset dy="4"/>
<feGaussianBlur stdDeviation="3"/>
<feColorMatrix type="matrix" values="0 0 0 0 0 0 0 0 0 0 0 0 0 0 0 0 0 0 0.08 0"/>
<feBlend mode="normal" in2="BackgroundImageFix" result="effect1_dropShadow"/>
<feBlend mode="normal" in="SourceGraphic" in2="effect1_dropShadow" result="shape"/>
</filter>
<filter id="filter1_d" x="62.0549" y="264.078" width="153.912" height="99.8842" filterUnits="userSpaceOnUse" color-interpolation-filters="sRGB">
<feFlood flood-opacity="0" result="BackgroundImageFix"/>
<feColorMatrix in="SourceAlpha" type="matrix" values="0 0 0 0 0 0 0 0 0 0 0 0 0 0 0 0 0 0 127 0"/>
<feOffset dy="4"/>
<feGaussianBlur stdDeviation="3"/>
<feColorMatrix type="matrix" values="0 0 0 0 0 0 0 0 0 0 0 0 0 0 0 0 0 0 0.08 0"/>
<feBlend mode="normal" in2="BackgroundImageFix" result="effect1_dropShadow"/>
<feBlend mode="normal" in="SourceGraphic" in2="effect1_dropShadow" result="shape"/>
</filter>
<linearGradient id="paint0_linear" x1="531.266" y1="480.168" x2="92.4518" y2="144.735" gradientUnits="userSpaceOnUse">
<stop stop-color="#FBEABE"/>
<stop offset="0.951937" stop-color="#FFE49E"/>
</linearGradient>
</defs>
</svg>
