<svg width="582" height="479" viewBox="0 0 582 479" fill="none" xmlns="http://www.w3.org/2000/svg">
<g opacity="0.5">
<circle cx="69" cy="344" r="3" fill="#2C3647" fill-opacity="0.4"/>
<circle cx="91" cy="344" r="3" fill="#2C3647" fill-opacity="0.4"/>
<circle cx="102" cy="344" r="3" fill="#2C3647" fill-opacity="0.4"/>
<circle cx="113" cy="344" r="3" fill="#2C3647" fill-opacity="0.4"/>
<circle cx="135" cy="344" r="3" fill="#2C3647" fill-opacity="0.4"/>
<circle cx="146" cy="344" r="3" fill="#2C3647" fill-opacity="0.4"/>
<circle cx="157" cy="344" r="3" fill="#2C3647" fill-opacity="0.4"/>
<circle cx="179" cy="344" r="3" fill="#2C3647" fill-opacity="0.4"/>
<circle cx="190" cy="344" r="3" fill="#2C3647" fill-opacity="0.4"/>
<circle cx="201" cy="344" r="3" fill="#2C3647" fill-opacity="0.3"/>
<circle cx="212" cy="344" r="3" fill="#2C3647" fill-opacity="0.2"/>
<circle cx="69" cy="333" r="3" fill="#2C3647" fill-opacity="0.3"/>
<circle cx="80" cy="333" r="3" fill="#2C3647" fill-opacity="0.3"/>
<circle cx="91" cy="333" r="3" fill="#2C3647" fill-opacity="0.3"/>
<circle cx="102" cy="333" r="3" fill="#2C3647" fill-opacity="0.3"/>
<circle cx="113" cy="333" r="3" fill="#2C3647" fill-opacity="0.3"/>
<circle cx="124" cy="333" r="3" fill="#2C3647" fill-opacity="0.3"/>
<circle cx="135" cy="333" r="3" fill="#2C3647" fill-opacity="0.3"/>
<circle cx="146" cy="333" r="3" fill="#2C3647" fill-opacity="0.3"/>
<circle cx="157" cy="333" r="3" fill="#2C3647" fill-opacity="0.3"/>
<circle cx="168" cy="333" r="3" fill="#2C3647" fill-opacity="0.3"/>
<circle cx="179" cy="333" r="3" fill="#2C3647" fill-opacity="0.3"/>
<circle cx="190" cy="333" r="3" fill="#2C3647" fill-opacity="0.3"/>
<circle cx="201" cy="333" r="3" fill="#2C3647" fill-opacity="0.3"/>
<circle cx="223" cy="333" r="3" fill="#2C3647" fill-opacity="0.1"/>
<circle cx="80" cy="322" r="3" fill="#2C3647" fill-opacity="0.2"/>
<circle cx="83" cy="300" r="3" fill="#2C3647" fill-opacity="0.2"/>
<circle cx="102" cy="322" r="3" fill="#2C3647" fill-opacity="0.2"/>
<circle cx="124" cy="322" r="3" fill="#2C3647" fill-opacity="0.2"/>
<circle cx="146" cy="322" r="3" fill="#2C3647" fill-opacity="0.2"/>
<circle cx="168" cy="322" r="3" fill="#2C3647" fill-opacity="0.2"/>
<circle cx="190" cy="322" r="3" fill="#2C3647" fill-opacity="0.2"/>
<circle cx="212" cy="322" r="3" fill="#2C3647" fill-opacity="0.2"/>
<circle cx="69" cy="311" r="3" fill="#2C3647" fill-opacity="0.1"/>
<circle cx="72" cy="289" r="3" fill="#2C3647" fill-opacity="0.1"/>
<circle cx="91" cy="311" r="3" fill="#2C3647" fill-opacity="0.1"/>
<circle cx="113" cy="311" r="3" fill="#2C3647" fill-opacity="0.1"/>
<circle cx="135" cy="311" r="3" fill="#2C3647" fill-opacity="0.1"/>
<circle cx="157" cy="311" r="3" fill="#2C3647" fill-opacity="0.1"/>
<circle cx="179" cy="311" r="3" fill="#2C3647" fill-opacity="0.1"/>
<circle cx="201" cy="311" r="3" fill="#2C3647" fill-opacity="0.1"/>
<circle cx="223" cy="311" r="3" fill="#2C3647" fill-opacity="0.1"/>
<circle cx="58" cy="333" r="3" fill="#2C3647" fill-opacity="0.3"/>
<circle cx="58" cy="322" r="3" fill="#2C3647" fill-opacity="0.2"/>
<circle cx="61" cy="300" r="3" fill="#2C3647" fill-opacity="0.2"/>
<circle cx="47" cy="344" r="3" fill="#2C3647" fill-opacity="0.4"/>
<circle cx="47" cy="333" r="3" fill="#2C3647" fill-opacity="0.3"/>
<circle cx="47" cy="311" r="3" fill="#2C3647" fill-opacity="0.1"/>
<circle cx="50" cy="289" r="3" fill="#2C3647" fill-opacity="0.1"/>
<circle cx="36" cy="344" r="3" fill="#2C3647" fill-opacity="0.4"/>
<circle cx="36" cy="333" r="3" fill="#2C3647" fill-opacity="0.3"/>
<circle cx="36" cy="322" r="3" fill="#2C3647" fill-opacity="0.2"/>
<circle cx="69" cy="366" r="3" fill="#2C3647" fill-opacity="0.4"/>
<circle cx="80" cy="366" r="3" fill="#2C3647" fill-opacity="0.4"/>
<circle cx="91" cy="366" r="3" fill="#2C3647" fill-opacity="0.4"/>
<circle cx="102" cy="366" r="3" fill="#2C3647" fill-opacity="0.4"/>
<circle cx="113" cy="366" r="3" fill="#2C3647" fill-opacity="0.4"/>
<circle cx="124" cy="366" r="3" fill="#2C3647" fill-opacity="0.4"/>
<circle cx="135" cy="366" r="3" fill="#2C3647" fill-opacity="0.4"/>
<circle cx="146" cy="366" r="3" fill="#2C3647" fill-opacity="0.4"/>
<circle cx="157" cy="366" r="3" fill="#2C3647" fill-opacity="0.4"/>
<circle cx="168" cy="366" r="3" fill="#2C3647" fill-opacity="0.4"/>
<circle cx="179" cy="366" r="3" fill="#2C3647" fill-opacity="0.4"/>
<circle cx="190" cy="366" r="3" fill="#2C3647" fill-opacity="0.4"/>
<circle cx="201" cy="366" r="3" fill="#2C3647" fill-opacity="0.3"/>
<circle cx="212" cy="366" r="3" fill="#2C3647" fill-opacity="0.2"/>
<circle cx="58" cy="366" r="3" fill="#2C3647" fill-opacity="0.4"/>
<circle cx="47" cy="366" r="3" fill="#2C3647" fill-opacity="0.4"/>
<circle cx="36" cy="366" r="3" fill="#2C3647" fill-opacity="0.5"/>
<circle cx="80" cy="388" r="3" fill="#2C3647" fill-opacity="0.2"/>
<circle cx="102" cy="388" r="3" fill="#2C3647" fill-opacity="0.2"/>
<circle cx="124" cy="388" r="3" fill="#2C3647" fill-opacity="0.2"/>
<circle cx="146" cy="388" r="3" fill="#2C3647" fill-opacity="0.2"/>
<circle cx="168" cy="388" r="3" fill="#2C3647" fill-opacity="0.2"/>
<circle cx="190" cy="388" r="3" fill="#2C3647" fill-opacity="0.2"/>
<circle cx="212" cy="388" r="3" fill="#2C3647" fill-opacity="0.2"/>
<circle cx="58" cy="388" r="3" fill="#2C3647" fill-opacity="0.2"/>
<circle cx="36" cy="388" r="3" fill="#2C3647" fill-opacity="0.2"/>
<circle cx="69" cy="355" r="3" fill="#2C3647" fill-opacity="0.5"/>
<circle cx="80" cy="355" r="3" fill="#2C3647" fill-opacity="0.5"/>
<circle cx="91" cy="355" r="3" fill="#2C3647" fill-opacity="0.5"/>
<circle cx="102" cy="355" r="3" fill="#2C3647" fill-opacity="0.5"/>
<circle cx="124" cy="355" r="3" fill="#2C3647" fill-opacity="0.5"/>
<circle cx="135" cy="355" r="3" fill="#2C3647" fill-opacity="0.5"/>
<circle cx="146" cy="355" r="3" fill="#2C3647" fill-opacity="0.5"/>
<circle cx="157" cy="355" r="3" fill="#2C3647" fill-opacity="0.5"/>
<circle cx="168" cy="355" r="3" fill="#2C3647" fill-opacity="0.5"/>
<circle cx="190" cy="355" r="3" fill="#2C3647" fill-opacity="0.4"/>
<circle cx="201" cy="355" r="3" fill="#2C3647" fill-opacity="0.3"/>
<circle cx="223" cy="355" r="3" fill="#2C3647" fill-opacity="0.1"/>
<circle cx="58" cy="355" r="3" fill="#2C3647" fill-opacity="0.5"/>
<circle cx="36" cy="355" r="3" fill="#2C3647" fill-opacity="0.4"/>
<circle cx="69" cy="377" r="3" fill="#2C3647" fill-opacity="0.3"/>
<circle cx="91" cy="377" r="3" fill="#2C3647" fill-opacity="0.3"/>
<circle cx="113" cy="377" r="3" fill="#2C3647" fill-opacity="0.3"/>
<circle cx="124" cy="377" r="3" fill="#2C3647" fill-opacity="0.3"/>
<circle cx="135" cy="377" r="3" fill="#2C3647" fill-opacity="0.3"/>
<circle cx="157" cy="377" r="3" fill="#2C3647" fill-opacity="0.3"/>
<circle cx="168" cy="377" r="3" fill="#2C3647" fill-opacity="0.3"/>
<circle cx="190" cy="377" r="3" fill="#2C3647" fill-opacity="0.3"/>
<circle cx="201" cy="377" r="3" fill="#2C3647" fill-opacity="0.3"/>
<circle cx="223" cy="377" r="3" fill="#2C3647" fill-opacity="0.1"/>
<circle cx="47" cy="377" r="3" fill="#2C3647" fill-opacity="0.3"/>
<circle cx="69" cy="399" r="3" fill="#2C3647" fill-opacity="0.1"/>
<circle cx="81" cy="411" r="3" fill="#2C3647" fill-opacity="0.1"/>
<circle cx="97" cy="421" r="3" fill="#2C3647" fill-opacity="0.1"/>
<circle cx="91" cy="399" r="3" fill="#2C3647" fill-opacity="0.1"/>
<circle cx="103" cy="411" r="3" fill="#2C3647" fill-opacity="0.1"/>
<circle cx="119" cy="421" r="3" fill="#2C3647" fill-opacity="0.1"/>
<circle cx="113" cy="399" r="3" fill="#2C3647" fill-opacity="0.1"/>
<circle cx="125" cy="411" r="3" fill="#2C3647" fill-opacity="0.1"/>
<circle cx="141" cy="421" r="3" fill="#2C3647" fill-opacity="0.1"/>
<circle cx="135" cy="399" r="3" fill="#2C3647" fill-opacity="0.1"/>
<circle cx="147" cy="411" r="3" fill="#2C3647" fill-opacity="0.1"/>
<circle cx="157" cy="399" r="3" fill="#2C3647" fill-opacity="0.1"/>
<circle cx="169" cy="411" r="3" fill="#2C3647" fill-opacity="0.1"/>
<circle cx="179" cy="399" r="3" fill="#2C3647" fill-opacity="0.1"/>
<circle cx="201" cy="399" r="3" fill="#2C3647" fill-opacity="0.1"/>
<circle cx="223" cy="399" r="3" fill="#2C3647" fill-opacity="0.1"/>
<circle cx="47" cy="399" r="3" fill="#2C3647" fill-opacity="0.1"/>
<circle cx="25" cy="344" r="3" fill="#2C3647" fill-opacity="0.3"/>
<circle cx="25" cy="311" r="3" fill="#2C3647" fill-opacity="0.1"/>
<circle cx="39" cy="303" r="3" fill="#2C3647" fill-opacity="0.1"/>
<circle cx="14" cy="333" r="3" fill="#2C3647" fill-opacity="0.2"/>
<circle cx="25" cy="366" r="3" fill="#2C3647" fill-opacity="0.3"/>
<circle cx="14" cy="366" r="3" fill="#2C3647" fill-opacity="0.2"/>
<circle cx="14" cy="388" r="3" fill="#2C3647" fill-opacity="0.2"/>
<circle cx="25" cy="355" r="3" fill="#2C3647" fill-opacity="0.3"/>
<circle cx="14" cy="355" r="3" fill="#2C3647" fill-opacity="0.2"/>
<circle cx="25" cy="377" r="3" fill="#2C3647" fill-opacity="0.3"/>
<circle cx="25" cy="399" r="3" fill="#2C3647" fill-opacity="0.1"/>
<circle cx="3" cy="333" r="3" fill="#2C3647" fill-opacity="0.1"/>
<circle cx="3" cy="311" r="3" fill="#2C3647" fill-opacity="0.1"/>
<circle cx="3" cy="355" r="3" fill="#2C3647" fill-opacity="0.1"/>
<circle cx="3" cy="377" r="3" fill="#2C3647" fill-opacity="0.1"/>
<circle cx="3" cy="399" r="3" fill="#2C3647" fill-opacity="0.1"/>
</g>
<g opacity="0.5">
<circle cx="370" cy="75" r="3" fill="#2C3647" fill-opacity="0.4"/>
<circle cx="392" cy="75" r="3" fill="#2C3647" fill-opacity="0.4"/>
<circle cx="403" cy="75" r="3" fill="#2C3647" fill-opacity="0.4"/>
<circle cx="414" cy="75" r="3" fill="#2C3647" fill-opacity="0.4"/>
<circle cx="436" cy="75" r="3" fill="#2C3647" fill-opacity="0.4"/>
<circle cx="447" cy="75" r="3" fill="#2C3647" fill-opacity="0.4"/>
<circle cx="458" cy="75" r="3" fill="#2C3647" fill-opacity="0.4"/>
<circle cx="480" cy="75" r="3" fill="#2C3647" fill-opacity="0.4"/>
<circle cx="491" cy="75" r="3" fill="#2C3647" fill-opacity="0.4"/>
<circle cx="502" cy="75" r="3" fill="#2C3647" fill-opacity="0.3"/>
<circle cx="513" cy="75" r="3" fill="#2C3647" fill-opacity="0.2"/>
<circle cx="370" cy="64" r="3" fill="#2C3647" fill-opacity="0.3"/>
<circle cx="381" cy="64" r="3" fill="#2C3647" fill-opacity="0.3"/>
<circle cx="392" cy="64" r="3" fill="#2C3647" fill-opacity="0.3"/>
<circle cx="403" cy="64" r="3" fill="#2C3647" fill-opacity="0.3"/>
<circle cx="414" cy="64" r="3" fill="#2C3647" fill-opacity="0.3"/>
<circle cx="425" cy="64" r="3" fill="#2C3647" fill-opacity="0.3"/>
<circle cx="436" cy="64" r="3" fill="#2C3647" fill-opacity="0.3"/>
<circle cx="447" cy="64" r="3" fill="#2C3647" fill-opacity="0.3"/>
<circle cx="458" cy="64" r="3" fill="#2C3647" fill-opacity="0.3"/>
<circle cx="469" cy="64" r="3" fill="#2C3647" fill-opacity="0.3"/>
<circle cx="480" cy="64" r="3" fill="#2C3647" fill-opacity="0.3"/>
<circle cx="491" cy="64" r="3" fill="#2C3647" fill-opacity="0.3"/>
<circle cx="502" cy="64" r="3" fill="#2C3647" fill-opacity="0.3"/>
<circle cx="524" cy="64" r="3" fill="#2C3647" fill-opacity="0.1"/>
<circle cx="381" cy="53" r="3" fill="#2C3647" fill-opacity="0.2"/>
<circle cx="403" cy="53" r="3" fill="#2C3647" fill-opacity="0.2"/>
<circle cx="425" cy="53" r="3" fill="#2C3647" fill-opacity="0.2"/>
<circle cx="447" cy="53" r="3" fill="#2C3647" fill-opacity="0.2"/>
<circle cx="469" cy="53" r="3" fill="#2C3647" fill-opacity="0.2"/>
<circle cx="491" cy="53" r="3" fill="#2C3647" fill-opacity="0.2"/>
<circle cx="513" cy="53" r="3" fill="#2C3647" fill-opacity="0.2"/>
<circle cx="370" cy="42" r="3" fill="#2C3647" fill-opacity="0.1"/>
<circle cx="392" cy="42" r="3" fill="#2C3647" fill-opacity="0.1"/>
<circle cx="414" cy="42" r="3" fill="#2C3647" fill-opacity="0.1"/>
<circle cx="436" cy="42" r="3" fill="#2C3647" fill-opacity="0.1"/>
<circle cx="426" cy="31" r="3" fill="#2C3647" fill-opacity="0.1"/>
<circle cx="458" cy="42" r="3" fill="#2C3647" fill-opacity="0.1"/>
<circle cx="448" cy="31" r="3" fill="#2C3647" fill-opacity="0.1"/>
<circle cx="461" cy="20" r="3" fill="#2C3647" fill-opacity="0.1"/>
<circle cx="480" cy="42" r="3" fill="#2C3647" fill-opacity="0.1"/>
<circle cx="470" cy="31" r="3" fill="#2C3647" fill-opacity="0.1"/>
<circle cx="483" cy="20" r="3" fill="#2C3647" fill-opacity="0.1"/>
<circle cx="502" cy="42" r="3" fill="#2C3647" fill-opacity="0.1"/>
<circle cx="492" cy="31" r="3" fill="#2C3647" fill-opacity="0.1"/>
<circle cx="524" cy="42" r="3" fill="#2C3647" fill-opacity="0.1"/>
<circle cx="359" cy="64" r="3" fill="#2C3647" fill-opacity="0.3"/>
<circle cx="359" cy="53" r="3" fill="#2C3647" fill-opacity="0.2"/>
<circle cx="348" cy="75" r="3" fill="#2C3647" fill-opacity="0.4"/>
<circle cx="348" cy="64" r="3" fill="#2C3647" fill-opacity="0.3"/>
<circle cx="348" cy="42" r="3" fill="#2C3647" fill-opacity="0.1"/>
<circle cx="337" cy="75" r="3" fill="#2C3647" fill-opacity="0.4"/>
<circle cx="337" cy="64" r="3" fill="#2C3647" fill-opacity="0.3"/>
<circle cx="337" cy="53" r="3" fill="#2C3647" fill-opacity="0.2"/>
<circle cx="370" cy="97" r="3" fill="#2C3647" fill-opacity="0.4"/>
<circle cx="381" cy="97" r="3" fill="#2C3647" fill-opacity="0.4"/>
<circle cx="392" cy="97" r="3" fill="#2C3647" fill-opacity="0.4"/>
<circle cx="403" cy="97" r="3" fill="#2C3647" fill-opacity="0.4"/>
<circle cx="414" cy="97" r="3" fill="#2C3647" fill-opacity="0.4"/>
<circle cx="425" cy="97" r="3" fill="#2C3647" fill-opacity="0.4"/>
<circle cx="436" cy="97" r="3" fill="#2C3647" fill-opacity="0.4"/>
<circle cx="447" cy="97" r="3" fill="#2C3647" fill-opacity="0.4"/>
<circle cx="458" cy="97" r="3" fill="#2C3647" fill-opacity="0.4"/>
<circle cx="469" cy="97" r="3" fill="#2C3647" fill-opacity="0.4"/>
<circle cx="480" cy="97" r="3" fill="#2C3647" fill-opacity="0.4"/>
<circle cx="491" cy="97" r="3" fill="#2C3647" fill-opacity="0.4"/>
<circle cx="502" cy="97" r="3" fill="#2C3647" fill-opacity="0.3"/>
<circle cx="513" cy="97" r="3" fill="#2C3647" fill-opacity="0.2"/>
<circle cx="359" cy="97" r="3" fill="#2C3647" fill-opacity="0.4"/>
<circle cx="348" cy="97" r="3" fill="#2C3647" fill-opacity="0.4"/>
<circle cx="337" cy="97" r="3" fill="#2C3647" fill-opacity="0.5"/>
<circle cx="381" cy="119" r="3" fill="#2C3647" fill-opacity="0.2"/>
<circle cx="403" cy="119" r="3" fill="#2C3647" fill-opacity="0.2"/>
<circle cx="425" cy="119" r="3" fill="#2C3647" fill-opacity="0.2"/>
<circle cx="447" cy="119" r="3" fill="#2C3647" fill-opacity="0.2"/>
<circle cx="469" cy="119" r="3" fill="#2C3647" fill-opacity="0.2"/>
<circle cx="491" cy="119" r="3" fill="#2C3647" fill-opacity="0.2"/>
<circle cx="513" cy="119" r="3" fill="#2C3647" fill-opacity="0.2"/>
<circle cx="359" cy="119" r="3" fill="#2C3647" fill-opacity="0.2"/>
<circle cx="337" cy="119" r="3" fill="#2C3647" fill-opacity="0.2"/>
<circle cx="370" cy="86" r="3" fill="#2C3647" fill-opacity="0.5"/>
<circle cx="381" cy="86" r="3" fill="#2C3647" fill-opacity="0.5"/>
<circle cx="392" cy="86" r="3" fill="#2C3647" fill-opacity="0.5"/>
<circle cx="403" cy="86" r="3" fill="#2C3647" fill-opacity="0.5"/>
<circle cx="425" cy="86" r="3" fill="#2C3647" fill-opacity="0.5"/>
<circle cx="436" cy="86" r="3" fill="#2C3647" fill-opacity="0.5"/>
<circle cx="447" cy="86" r="3" fill="#2C3647" fill-opacity="0.5"/>
<circle cx="458" cy="86" r="3" fill="#2C3647" fill-opacity="0.5"/>
<circle cx="469" cy="86" r="3" fill="#2C3647" fill-opacity="0.5"/>
<circle cx="491" cy="86" r="3" fill="#2C3647" fill-opacity="0.4"/>
<circle cx="502" cy="86" r="3" fill="#2C3647" fill-opacity="0.3"/>
<circle cx="524" cy="86" r="3" fill="#2C3647" fill-opacity="0.1"/>
<circle cx="359" cy="86" r="3" fill="#2C3647" fill-opacity="0.5"/>
<circle cx="337" cy="86" r="3" fill="#2C3647" fill-opacity="0.4"/>
<circle cx="370" cy="108" r="3" fill="#2C3647" fill-opacity="0.3"/>
<circle cx="392" cy="108" r="3" fill="#2C3647" fill-opacity="0.3"/>
<circle cx="414" cy="108" r="3" fill="#2C3647" fill-opacity="0.3"/>
<circle cx="425" cy="108" r="3" fill="#2C3647" fill-opacity="0.3"/>
<circle cx="436" cy="108" r="3" fill="#2C3647" fill-opacity="0.3"/>
<circle cx="458" cy="108" r="3" fill="#2C3647" fill-opacity="0.3"/>
<circle cx="469" cy="108" r="3" fill="#2C3647" fill-opacity="0.3"/>
<circle cx="491" cy="108" r="3" fill="#2C3647" fill-opacity="0.3"/>
<circle cx="502" cy="108" r="3" fill="#2C3647" fill-opacity="0.3"/>
<circle cx="524" cy="108" r="3" fill="#2C3647" fill-opacity="0.1"/>
<circle cx="348" cy="108" r="3" fill="#2C3647" fill-opacity="0.3"/>
<circle cx="370" cy="130" r="3" fill="#2C3647" fill-opacity="0.1"/>
<circle cx="392" cy="130" r="3" fill="#2C3647" fill-opacity="0.1"/>
<circle cx="414" cy="130" r="3" fill="#2C3647" fill-opacity="0.1"/>
<circle cx="436" cy="130" r="3" fill="#2C3647" fill-opacity="0.1"/>
<circle cx="458" cy="130" r="3" fill="#2C3647" fill-opacity="0.1"/>
<circle cx="480" cy="130" r="3" fill="#2C3647" fill-opacity="0.1"/>
<circle cx="502" cy="130" r="3" fill="#2C3647" fill-opacity="0.1"/>
<circle cx="524" cy="130" r="3" fill="#2C3647" fill-opacity="0.1"/>
<circle cx="348" cy="130" r="3" fill="#2C3647" fill-opacity="0.1"/>
<circle cx="326" cy="75" r="3" fill="#2C3647" fill-opacity="0.3"/>
<circle cx="326" cy="42" r="3" fill="#2C3647" fill-opacity="0.1"/>
<circle cx="315" cy="64" r="3" fill="#2C3647" fill-opacity="0.2"/>
<circle cx="326" cy="97" r="3" fill="#2C3647" fill-opacity="0.3"/>
<circle cx="315" cy="97" r="3" fill="#2C3647" fill-opacity="0.2"/>
<circle cx="315" cy="119" r="3" fill="#2C3647" fill-opacity="0.2"/>
<circle cx="326" cy="86" r="3" fill="#2C3647" fill-opacity="0.3"/>
<circle cx="315" cy="86" r="3" fill="#2C3647" fill-opacity="0.2"/>
<circle cx="326" cy="108" r="3" fill="#2C3647" fill-opacity="0.3"/>
<circle cx="326" cy="130" r="3" fill="#2C3647" fill-opacity="0.1"/>
<circle cx="304" cy="64" r="3" fill="#2C3647" fill-opacity="0.1"/>
<circle cx="304" cy="42" r="3" fill="#2C3647" fill-opacity="0.1"/>
<circle cx="304" cy="86" r="3" fill="#2C3647" fill-opacity="0.1"/>
<circle cx="304" cy="108" r="3" fill="#2C3647" fill-opacity="0.1"/>
<circle cx="304" cy="130" r="3" fill="#2C3647" fill-opacity="0.1"/>
</g>
<g opacity="0.15">
<circle cx="161" cy="36" r="3" fill="#2C3647" fill-opacity="0.4"/>
<circle cx="183" cy="36" r="3" fill="#2C3647" fill-opacity="0.4"/>
<circle cx="194" cy="36" r="3" fill="#2C3647" fill-opacity="0.4"/>
<circle cx="205" cy="36" r="3" fill="#2C3647" fill-opacity="0.4"/>
<circle cx="227" cy="36" r="3" fill="#2C3647" fill-opacity="0.4"/>
<circle cx="238" cy="36" r="3" fill="#2C3647" fill-opacity="0.4"/>
<circle cx="249" cy="36" r="3" fill="#2C3647" fill-opacity="0.4"/>
<circle cx="271" cy="36" r="3" fill="#2C3647" fill-opacity="0.4"/>
<circle cx="282" cy="36" r="3" fill="#2C3647" fill-opacity="0.4"/>
<circle cx="293" cy="36" r="3" fill="#2C3647" fill-opacity="0.3"/>
<circle cx="304" cy="36" r="3" fill="#2C3647" fill-opacity="0.2"/>
<circle cx="161" cy="25" r="3" fill="#2C3647" fill-opacity="0.3"/>
<circle cx="172" cy="25" r="3" fill="#2C3647" fill-opacity="0.3"/>
<circle cx="183" cy="25" r="3" fill="#2C3647" fill-opacity="0.3"/>
<circle cx="194" cy="25" r="3" fill="#2C3647" fill-opacity="0.3"/>
<circle cx="205" cy="25" r="3" fill="#2C3647" fill-opacity="0.3"/>
<circle cx="216" cy="25" r="3" fill="#2C3647" fill-opacity="0.3"/>
<circle cx="227" cy="25" r="3" fill="#2C3647" fill-opacity="0.3"/>
<circle cx="238" cy="25" r="3" fill="#2C3647" fill-opacity="0.3"/>
<circle cx="249" cy="25" r="3" fill="#2C3647" fill-opacity="0.3"/>
<circle cx="260" cy="25" r="3" fill="#2C3647" fill-opacity="0.3"/>
<circle cx="271" cy="25" r="3" fill="#2C3647" fill-opacity="0.3"/>
<circle cx="282" cy="25" r="3" fill="#2C3647" fill-opacity="0.3"/>
<circle cx="293" cy="25" r="3" fill="#2C3647" fill-opacity="0.3"/>
<circle cx="315" cy="25" r="3" fill="#2C3647" fill-opacity="0.1"/>
<circle cx="172" cy="14" r="3" fill="#2C3647" fill-opacity="0.2"/>
<circle cx="194" cy="14" r="3" fill="#2C3647" fill-opacity="0.2"/>
<circle cx="216" cy="14" r="3" fill="#2C3647" fill-opacity="0.2"/>
<circle cx="238" cy="14" r="3" fill="#2C3647" fill-opacity="0.2"/>
<circle cx="260" cy="14" r="3" fill="#2C3647" fill-opacity="0.2"/>
<circle cx="282" cy="14" r="3" fill="#2C3647" fill-opacity="0.2"/>
<circle cx="304" cy="14" r="3" fill="#2C3647" fill-opacity="0.2"/>
<circle cx="161" cy="3" r="3" fill="#2C3647" fill-opacity="0.1"/>
<circle cx="183" cy="3" r="3" fill="#2C3647" fill-opacity="0.1"/>
<circle cx="205" cy="3" r="3" fill="#2C3647" fill-opacity="0.1"/>
<circle cx="227" cy="3" r="3" fill="#2C3647" fill-opacity="0.1"/>
<circle cx="249" cy="3" r="3" fill="#2C3647" fill-opacity="0.1"/>
<circle cx="271" cy="3" r="3" fill="#2C3647" fill-opacity="0.1"/>
<circle cx="293" cy="3" r="3" fill="#2C3647" fill-opacity="0.1"/>
<circle cx="315" cy="3" r="3" fill="#2C3647" fill-opacity="0.1"/>
<circle cx="150" cy="25" r="3" fill="#2C3647" fill-opacity="0.3"/>
<circle cx="150" cy="14" r="3" fill="#2C3647" fill-opacity="0.2"/>
<circle cx="139" cy="36" r="3" fill="#2C3647" fill-opacity="0.4"/>
<circle cx="139" cy="25" r="3" fill="#2C3647" fill-opacity="0.3"/>
<circle cx="139" cy="3" r="3" fill="#2C3647" fill-opacity="0.1"/>
<circle cx="128" cy="36" r="3" fill="#2C3647" fill-opacity="0.4"/>
<circle cx="128" cy="25" r="3" fill="#2C3647" fill-opacity="0.3"/>
<circle cx="128" cy="14" r="3" fill="#2C3647" fill-opacity="0.2"/>
<circle cx="161" cy="58" r="3" fill="#2C3647" fill-opacity="0.4"/>
<circle cx="172" cy="58" r="3" fill="#2C3647" fill-opacity="0.4"/>
<circle cx="183" cy="58" r="3" fill="#2C3647" fill-opacity="0.4"/>
<circle cx="194" cy="58" r="3" fill="#2C3647" fill-opacity="0.4"/>
<circle cx="205" cy="58" r="3" fill="#2C3647" fill-opacity="0.4"/>
<circle cx="216" cy="58" r="3" fill="#2C3647" fill-opacity="0.4"/>
<circle cx="227" cy="58" r="3" fill="#2C3647" fill-opacity="0.4"/>
<circle cx="238" cy="58" r="3" fill="#2C3647" fill-opacity="0.4"/>
<circle cx="249" cy="58" r="3" fill="#2C3647" fill-opacity="0.4"/>
<circle cx="260" cy="58" r="3" fill="#2C3647" fill-opacity="0.4"/>
<circle cx="271" cy="58" r="3" fill="#2C3647" fill-opacity="0.4"/>
<circle cx="282" cy="58" r="3" fill="#2C3647" fill-opacity="0.4"/>
<circle cx="293" cy="58" r="3" fill="#2C3647" fill-opacity="0.3"/>
<circle cx="304" cy="58" r="3" fill="#2C3647" fill-opacity="0.2"/>
<circle cx="150" cy="58" r="3" fill="#2C3647" fill-opacity="0.4"/>
<circle cx="139" cy="58" r="3" fill="#2C3647" fill-opacity="0.4"/>
<circle cx="128" cy="58" r="3" fill="#2C3647" fill-opacity="0.5"/>
<circle cx="172" cy="80" r="3" fill="#2C3647" fill-opacity="0.2"/>
<circle cx="194" cy="80" r="3" fill="#2C3647" fill-opacity="0.2"/>
<circle cx="216" cy="80" r="3" fill="#2C3647" fill-opacity="0.2"/>
<circle cx="238" cy="80" r="3" fill="#2C3647" fill-opacity="0.2"/>
<circle cx="260" cy="80" r="3" fill="#2C3647" fill-opacity="0.2"/>
<circle cx="282" cy="80" r="3" fill="#2C3647" fill-opacity="0.2"/>
<circle cx="304" cy="80" r="3" fill="#2C3647" fill-opacity="0.2"/>
<circle cx="150" cy="80" r="3" fill="#2C3647" fill-opacity="0.2"/>
<circle cx="128" cy="80" r="3" fill="#2C3647" fill-opacity="0.2"/>
<circle cx="161" cy="47" r="3" fill="#2C3647" fill-opacity="0.5"/>
<circle cx="172" cy="47" r="3" fill="#2C3647" fill-opacity="0.5"/>
<circle cx="183" cy="47" r="3" fill="#2C3647" fill-opacity="0.5"/>
<circle cx="194" cy="47" r="3" fill="#2C3647" fill-opacity="0.5"/>
<circle cx="216" cy="47" r="3" fill="#2C3647" fill-opacity="0.5"/>
<circle cx="227" cy="47" r="3" fill="#2C3647" fill-opacity="0.5"/>
<circle cx="238" cy="47" r="3" fill="#2C3647" fill-opacity="0.5"/>
<circle cx="249" cy="47" r="3" fill="#2C3647" fill-opacity="0.5"/>
<circle cx="260" cy="47" r="3" fill="#2C3647" fill-opacity="0.5"/>
<circle cx="282" cy="47" r="3" fill="#2C3647" fill-opacity="0.4"/>
<circle cx="293" cy="47" r="3" fill="#2C3647" fill-opacity="0.3"/>
<circle cx="315" cy="47" r="3" fill="#2C3647" fill-opacity="0.1"/>
<circle cx="150" cy="47" r="3" fill="#2C3647" fill-opacity="0.5"/>
<circle cx="128" cy="47" r="3" fill="#2C3647" fill-opacity="0.4"/>
<circle cx="161" cy="69" r="3" fill="#2C3647" fill-opacity="0.3"/>
<circle cx="183" cy="69" r="3" fill="#2C3647" fill-opacity="0.3"/>
<circle cx="205" cy="69" r="3" fill="#2C3647" fill-opacity="0.3"/>
<circle cx="216" cy="69" r="3" fill="#2C3647" fill-opacity="0.3"/>
<circle cx="227" cy="69" r="3" fill="#2C3647" fill-opacity="0.3"/>
<circle cx="249" cy="69" r="3" fill="#2C3647" fill-opacity="0.3"/>
<circle cx="260" cy="69" r="3" fill="#2C3647" fill-opacity="0.3"/>
<circle cx="282" cy="69" r="3" fill="#2C3647" fill-opacity="0.3"/>
<circle cx="293" cy="69" r="3" fill="#2C3647" fill-opacity="0.3"/>
<circle cx="315" cy="69" r="3" fill="#2C3647" fill-opacity="0.1"/>
<circle cx="139" cy="69" r="3" fill="#2C3647" fill-opacity="0.3"/>
<circle cx="161" cy="91" r="3" fill="#2C3647" fill-opacity="0.1"/>
<circle cx="183" cy="91" r="3" fill="#2C3647" fill-opacity="0.1"/>
<circle cx="205" cy="91" r="3" fill="#2C3647" fill-opacity="0.1"/>
<circle cx="227" cy="91" r="3" fill="#2C3647" fill-opacity="0.1"/>
<circle cx="249" cy="91" r="3" fill="#2C3647" fill-opacity="0.1"/>
<circle cx="271" cy="91" r="3" fill="#2C3647" fill-opacity="0.1"/>
<circle cx="293" cy="91" r="3" fill="#2C3647" fill-opacity="0.1"/>
<circle cx="315" cy="91" r="3" fill="#2C3647" fill-opacity="0.1"/>
<circle cx="139" cy="91" r="3" fill="#2C3647" fill-opacity="0.1"/>
<circle cx="117" cy="36" r="3" fill="#2C3647" fill-opacity="0.3"/>
<circle cx="117" cy="3" r="3" fill="#2C3647" fill-opacity="0.1"/>
<circle cx="106" cy="25" r="3" fill="#2C3647" fill-opacity="0.2"/>
<circle cx="117" cy="58" r="3" fill="#2C3647" fill-opacity="0.3"/>
<circle cx="106" cy="58" r="3" fill="#2C3647" fill-opacity="0.2"/>
<circle cx="106" cy="80" r="3" fill="#2C3647" fill-opacity="0.2"/>
<circle cx="117" cy="47" r="3" fill="#2C3647" fill-opacity="0.3"/>
<circle cx="106" cy="47" r="3" fill="#2C3647" fill-opacity="0.2"/>
<circle cx="117" cy="69" r="3" fill="#2C3647" fill-opacity="0.3"/>
<circle cx="117" cy="91" r="3" fill="#2C3647" fill-opacity="0.1"/>
<circle cx="95" cy="25" r="3" fill="#2C3647" fill-opacity="0.1"/>
<circle cx="95" cy="3" r="3" fill="#2C3647" fill-opacity="0.1"/>
<circle cx="95" cy="47" r="3" fill="#2C3647" fill-opacity="0.1"/>
<circle cx="95" cy="69" r="3" fill="#2C3647" fill-opacity="0.1"/>
<circle cx="95" cy="91" r="3" fill="#2C3647" fill-opacity="0.1"/>
</g>
<g opacity="0.15">
<circle cx="116" cy="66" r="3" fill="#2C3647" fill-opacity="0.4"/>
<circle cx="138" cy="66" r="3" fill="#2C3647" fill-opacity="0.4"/>
<circle cx="149" cy="66" r="3" fill="#2C3647" fill-opacity="0.4"/>
<circle cx="160" cy="66" r="3" fill="#2C3647" fill-opacity="0.4"/>
<circle cx="182" cy="66" r="3" fill="#2C3647" fill-opacity="0.4"/>
<circle cx="193" cy="66" r="3" fill="#2C3647" fill-opacity="0.4"/>
<circle cx="204" cy="66" r="3" fill="#2C3647" fill-opacity="0.4"/>
<circle cx="226" cy="66" r="3" fill="#2C3647" fill-opacity="0.4"/>
<circle cx="237" cy="66" r="3" fill="#2C3647" fill-opacity="0.4"/>
<circle cx="248" cy="66" r="3" fill="#2C3647" fill-opacity="0.3"/>
<circle cx="259" cy="66" r="3" fill="#2C3647" fill-opacity="0.2"/>
<circle cx="116" cy="55" r="3" fill="#2C3647" fill-opacity="0.3"/>
<circle cx="127" cy="55" r="3" fill="#2C3647" fill-opacity="0.3"/>
<circle cx="138" cy="55" r="3" fill="#2C3647" fill-opacity="0.3"/>
<circle cx="149" cy="55" r="3" fill="#2C3647" fill-opacity="0.3"/>
<circle cx="160" cy="55" r="3" fill="#2C3647" fill-opacity="0.3"/>
<circle cx="171" cy="55" r="3" fill="#2C3647" fill-opacity="0.3"/>
<circle cx="182" cy="55" r="3" fill="#2C3647" fill-opacity="0.3"/>
<circle cx="193" cy="55" r="3" fill="#2C3647" fill-opacity="0.3"/>
<circle cx="204" cy="55" r="3" fill="#2C3647" fill-opacity="0.3"/>
<circle cx="215" cy="55" r="3" fill="#2C3647" fill-opacity="0.3"/>
<circle cx="226" cy="55" r="3" fill="#2C3647" fill-opacity="0.3"/>
<circle cx="237" cy="55" r="3" fill="#2C3647" fill-opacity="0.3"/>
<circle cx="248" cy="55" r="3" fill="#2C3647" fill-opacity="0.3"/>
<circle cx="270" cy="55" r="3" fill="#2C3647" fill-opacity="0.1"/>
<circle cx="127" cy="44" r="3" fill="#2C3647" fill-opacity="0.2"/>
<circle cx="149" cy="44" r="3" fill="#2C3647" fill-opacity="0.2"/>
<circle cx="171" cy="44" r="3" fill="#2C3647" fill-opacity="0.2"/>
<circle cx="193" cy="44" r="3" fill="#2C3647" fill-opacity="0.2"/>
<circle cx="215" cy="44" r="3" fill="#2C3647" fill-opacity="0.2"/>
<circle cx="237" cy="44" r="3" fill="#2C3647" fill-opacity="0.2"/>
<circle cx="259" cy="44" r="3" fill="#2C3647" fill-opacity="0.2"/>
<circle cx="116" cy="33" r="3" fill="#2C3647" fill-opacity="0.1"/>
<circle cx="138" cy="33" r="3" fill="#2C3647" fill-opacity="0.1"/>
<circle cx="160" cy="33" r="3" fill="#2C3647" fill-opacity="0.1"/>
<circle cx="182" cy="33" r="3" fill="#2C3647" fill-opacity="0.1"/>
<circle cx="204" cy="33" r="3" fill="#2C3647" fill-opacity="0.1"/>
<circle cx="226" cy="33" r="3" fill="#2C3647" fill-opacity="0.1"/>
<circle cx="248" cy="33" r="3" fill="#2C3647" fill-opacity="0.1"/>
<circle cx="270" cy="33" r="3" fill="#2C3647" fill-opacity="0.1"/>
<circle cx="105" cy="55" r="3" fill="#2C3647" fill-opacity="0.3"/>
<circle cx="105" cy="44" r="3" fill="#2C3647" fill-opacity="0.2"/>
<circle cx="94" cy="66" r="3" fill="#2C3647" fill-opacity="0.4"/>
<circle cx="94" cy="55" r="3" fill="#2C3647" fill-opacity="0.3"/>
<circle cx="94" cy="33" r="3" fill="#2C3647" fill-opacity="0.1"/>
<circle cx="83" cy="66" r="3" fill="#2C3647" fill-opacity="0.4"/>
<circle cx="83" cy="55" r="3" fill="#2C3647" fill-opacity="0.3"/>
<circle cx="83" cy="44" r="3" fill="#2C3647" fill-opacity="0.2"/>
<circle cx="116" cy="88" r="3" fill="#2C3647" fill-opacity="0.4"/>
<circle cx="127" cy="88" r="3" fill="#2C3647" fill-opacity="0.4"/>
<circle cx="138" cy="88" r="3" fill="#2C3647" fill-opacity="0.4"/>
<circle cx="149" cy="88" r="3" fill="#2C3647" fill-opacity="0.4"/>
<circle cx="160" cy="88" r="3" fill="#2C3647" fill-opacity="0.4"/>
<circle cx="171" cy="88" r="3" fill="#2C3647" fill-opacity="0.4"/>
<circle cx="182" cy="88" r="3" fill="#2C3647" fill-opacity="0.4"/>
<circle cx="193" cy="88" r="3" fill="#2C3647" fill-opacity="0.4"/>
<circle cx="204" cy="88" r="3" fill="#2C3647" fill-opacity="0.4"/>
<circle cx="215" cy="88" r="3" fill="#2C3647" fill-opacity="0.4"/>
<circle cx="226" cy="88" r="3" fill="#2C3647" fill-opacity="0.4"/>
<circle cx="237" cy="88" r="3" fill="#2C3647" fill-opacity="0.4"/>
<circle cx="248" cy="88" r="3" fill="#2C3647" fill-opacity="0.3"/>
<circle cx="259" cy="88" r="3" fill="#2C3647" fill-opacity="0.2"/>
<circle cx="105" cy="88" r="3" fill="#2C3647" fill-opacity="0.4"/>
<circle cx="94" cy="88" r="3" fill="#2C3647" fill-opacity="0.4"/>
<circle cx="83" cy="88" r="3" fill="#2C3647" fill-opacity="0.5"/>
<circle cx="127" cy="110" r="3" fill="#2C3647" fill-opacity="0.2"/>
<circle cx="149" cy="110" r="3" fill="#2C3647" fill-opacity="0.2"/>
<circle cx="171" cy="110" r="3" fill="#2C3647" fill-opacity="0.2"/>
<circle cx="193" cy="110" r="3" fill="#2C3647" fill-opacity="0.2"/>
<circle cx="215" cy="110" r="3" fill="#2C3647" fill-opacity="0.2"/>
<circle cx="237" cy="110" r="3" fill="#2C3647" fill-opacity="0.2"/>
<circle cx="259" cy="110" r="3" fill="#2C3647" fill-opacity="0.2"/>
<circle cx="105" cy="110" r="3" fill="#2C3647" fill-opacity="0.2"/>
<circle cx="83" cy="110" r="3" fill="#2C3647" fill-opacity="0.2"/>
<circle cx="116" cy="77" r="3" fill="#2C3647" fill-opacity="0.5"/>
<circle cx="127" cy="77" r="3" fill="#2C3647" fill-opacity="0.5"/>
<circle cx="138" cy="77" r="3" fill="#2C3647" fill-opacity="0.5"/>
<circle cx="149" cy="77" r="3" fill="#2C3647" fill-opacity="0.5"/>
<circle cx="171" cy="77" r="3" fill="#2C3647" fill-opacity="0.5"/>
<circle cx="182" cy="77" r="3" fill="#2C3647" fill-opacity="0.5"/>
<circle cx="193" cy="77" r="3" fill="#2C3647" fill-opacity="0.5"/>
<circle cx="204" cy="77" r="3" fill="#2C3647" fill-opacity="0.5"/>
<circle cx="215" cy="77" r="3" fill="#2C3647" fill-opacity="0.5"/>
<circle cx="237" cy="77" r="3" fill="#2C3647" fill-opacity="0.4"/>
<circle cx="248" cy="77" r="3" fill="#2C3647" fill-opacity="0.3"/>
<circle cx="270" cy="77" r="3" fill="#2C3647" fill-opacity="0.1"/>
<circle cx="105" cy="77" r="3" fill="#2C3647" fill-opacity="0.5"/>
<circle cx="83" cy="77" r="3" fill="#2C3647" fill-opacity="0.4"/>
<circle cx="116" cy="99" r="3" fill="#2C3647" fill-opacity="0.3"/>
<circle cx="138" cy="99" r="3" fill="#2C3647" fill-opacity="0.3"/>
<circle cx="160" cy="99" r="3" fill="#2C3647" fill-opacity="0.3"/>
<circle cx="171" cy="99" r="3" fill="#2C3647" fill-opacity="0.3"/>
<circle cx="182" cy="99" r="3" fill="#2C3647" fill-opacity="0.3"/>
<circle cx="204" cy="99" r="3" fill="#2C3647" fill-opacity="0.3"/>
<circle cx="215" cy="99" r="3" fill="#2C3647" fill-opacity="0.3"/>
<circle cx="237" cy="99" r="3" fill="#2C3647" fill-opacity="0.3"/>
<circle cx="248" cy="99" r="3" fill="#2C3647" fill-opacity="0.3"/>
<circle cx="270" cy="99" r="3" fill="#2C3647" fill-opacity="0.1"/>
<circle cx="94" cy="99" r="3" fill="#2C3647" fill-opacity="0.3"/>
<circle cx="116" cy="121" r="3" fill="#2C3647" fill-opacity="0.1"/>
<circle cx="138" cy="121" r="3" fill="#2C3647" fill-opacity="0.1"/>
<circle cx="160" cy="121" r="3" fill="#2C3647" fill-opacity="0.1"/>
<circle cx="182" cy="121" r="3" fill="#2C3647" fill-opacity="0.1"/>
<circle cx="204" cy="121" r="3" fill="#2C3647" fill-opacity="0.1"/>
<circle cx="226" cy="121" r="3" fill="#2C3647" fill-opacity="0.1"/>
<circle cx="248" cy="121" r="3" fill="#2C3647" fill-opacity="0.1"/>
<circle cx="270" cy="121" r="3" fill="#2C3647" fill-opacity="0.1"/>
<circle cx="94" cy="121" r="3" fill="#2C3647" fill-opacity="0.1"/>
<circle cx="72" cy="66" r="3" fill="#2C3647" fill-opacity="0.3"/>
<circle cx="72" cy="33" r="3" fill="#2C3647" fill-opacity="0.1"/>
<circle cx="61" cy="55" r="3" fill="#2C3647" fill-opacity="0.2"/>
<circle cx="72" cy="88" r="3" fill="#2C3647" fill-opacity="0.3"/>
<circle cx="61" cy="88" r="3" fill="#2C3647" fill-opacity="0.2"/>
<circle cx="61" cy="110" r="3" fill="#2C3647" fill-opacity="0.2"/>
<circle cx="72" cy="77" r="3" fill="#2C3647" fill-opacity="0.3"/>
<circle cx="61" cy="77" r="3" fill="#2C3647" fill-opacity="0.2"/>
<circle cx="72" cy="99" r="3" fill="#2C3647" fill-opacity="0.3"/>
<circle cx="72" cy="121" r="3" fill="#2C3647" fill-opacity="0.1"/>
<circle cx="50" cy="55" r="3" fill="#2C3647" fill-opacity="0.1"/>
<circle cx="50" cy="33" r="3" fill="#2C3647" fill-opacity="0.1"/>
<circle cx="50" cy="77" r="3" fill="#2C3647" fill-opacity="0.1"/>
<circle cx="50" cy="99" r="3" fill="#2C3647" fill-opacity="0.1"/>
<circle cx="50" cy="121" r="3" fill="#2C3647" fill-opacity="0.1"/>
</g>
<circle cx="160.5" cy="206.5" r="147.5" stroke="#FFC01E" stroke-opacity="0.2" stroke-width="2"/>
<circle cx="160.5" cy="206.5" r="105.581" stroke="#AA7D0B" stroke-opacity="0.2" stroke-width="2"/>
<path d="M102.586 222.633C106.965 200.437 117.793 180.013 133.661 163.901C158.994 138.177 201.521 104.968 260.404 95.2374C367.407 77.5544 496.562 142.664 504.275 225.365C510.114 287.98 444.222 337.994 433.758 345.936C335.867 420.236 160.46 408.659 112.027 316.528C106.329 305.691 92.3312 274.608 102.586 222.633Z" fill="#ECF3FE"/>
<path d="M275.023 419.633C387.402 419.633 478.502 417.939 478.502 415.848C478.502 413.758 387.402 412.063 275.023 412.063C162.645 412.063 71.5442 413.758 71.5442 415.848C71.5442 417.939 162.645 419.633 275.023 419.633Z" fill="#ECF3FE"/>
<path d="M417.692 316.726C419.317 315.977 420.028 314.05 419.279 312.424C418.53 310.797 416.605 310.086 414.98 310.836C413.354 311.585 412.644 313.512 413.393 315.138C414.142 316.765 416.067 317.476 417.692 316.726Z" fill="#444444"/>
<path d="M436.119 323.591C437.762 322.882 438.52 320.973 437.811 319.328C437.103 317.684 435.196 316.925 433.553 317.634C431.909 318.344 431.151 320.252 431.86 321.897C432.569 323.542 434.476 324.3 436.119 323.591Z" fill="#444444"/>
<path d="M455.913 329.28C456.939 327.813 456.582 325.79 455.116 324.764C453.649 323.737 451.629 324.094 450.603 325.561C449.577 327.029 449.934 329.051 451.4 330.078C452.866 331.105 454.887 330.748 455.913 329.28Z" fill="#444444"/>
<path d="M473.1 337.197C474.726 336.447 475.436 334.521 474.687 332.894C473.938 331.267 472.013 330.556 470.388 331.306C468.763 332.056 468.052 333.982 468.801 335.609C469.55 337.235 471.475 337.947 473.1 337.197Z" fill="#444444"/>
<path d="M411.726 332.826C413.37 332.117 414.127 330.208 413.419 328.563C412.71 326.919 410.803 326.16 409.16 326.869C407.516 327.579 406.759 329.487 407.467 331.132C408.176 332.777 410.083 333.535 411.726 332.826Z" fill="#444444"/>
<path d="M431.522 338.514C432.548 337.046 432.191 335.024 430.725 333.997C429.259 332.97 427.238 333.328 426.212 334.795C425.186 336.262 425.543 338.285 427.009 339.311C428.476 340.338 430.496 339.981 431.522 338.514Z" fill="#444444"/>
<path d="M448.709 346.429C450.335 345.68 451.045 343.753 450.296 342.127C449.547 340.5 447.622 339.789 445.997 340.538C444.372 341.288 443.661 343.214 444.41 344.841C445.159 346.468 447.084 347.179 448.709 346.429Z" fill="#444444"/>
<path d="M469.016 350.799C469.285 349.028 468.069 347.375 466.3 347.105C464.53 346.836 462.878 348.053 462.609 349.824C462.34 351.594 463.556 353.248 465.325 353.518C467.094 353.787 468.747 352.57 469.016 350.799Z" fill="#444444"/>
<path d="M407.131 347.746C408.157 346.278 407.8 344.256 406.334 343.229C404.868 342.202 402.847 342.559 401.821 344.027C400.795 345.494 401.152 347.516 402.618 348.543C404.085 349.57 406.105 349.213 407.131 347.746Z" fill="#444444"/>
<path d="M424.318 355.663C425.943 354.914 426.653 352.987 425.905 351.361C425.156 349.734 423.231 349.023 421.605 349.772C419.98 350.522 419.27 352.448 420.019 354.075C420.768 355.702 422.692 356.413 424.318 355.663Z" fill="#444444"/>
<path d="M444.625 360.033C444.894 358.262 443.678 356.608 441.908 356.339C440.139 356.069 438.487 357.286 438.218 359.057C437.948 360.828 439.164 362.482 440.934 362.751C442.703 363.021 444.355 361.803 444.625 360.033Z" fill="#444444"/>
<path d="M462.588 368.201C463.604 366.726 463.233 364.706 461.759 363.69C460.286 362.673 458.268 363.045 457.252 364.52C456.236 365.995 456.608 368.014 458.081 369.031C459.555 370.047 461.573 369.676 462.588 368.201Z" fill="#444444"/>
<path d="M399.926 364.898C401.551 364.148 402.262 362.222 401.513 360.595C400.764 358.968 398.839 358.257 397.214 359.007C395.588 359.756 394.878 361.683 395.627 363.309C396.376 364.936 398.301 365.647 399.926 364.898Z" fill="#444444"/>
<path d="M420.2 369.552C420.619 367.811 419.548 366.059 417.809 365.64C416.069 365.22 414.319 366.292 413.9 368.033C413.481 369.775 414.552 371.526 416.291 371.946C418.031 372.365 419.781 371.293 420.2 369.552Z" fill="#444444"/>
<path d="M438.196 377.435C439.211 375.96 438.84 373.941 437.367 372.924C435.893 371.907 433.875 372.279 432.859 373.754C431.844 375.229 432.215 377.248 433.689 378.265C435.162 379.281 437.18 378.91 438.196 377.435Z" fill="#444444"/>
<path d="M457.001 383.633C457.667 381.971 456.86 380.083 455.199 379.416C453.538 378.75 451.651 379.557 450.985 381.22C450.319 382.882 451.126 384.77 452.787 385.437C454.448 386.103 456.335 385.296 457.001 383.633Z" fill="#444444"/>
<path d="M127.508 146.756C128.66 145.385 128.483 143.339 127.114 142.186C125.745 141.033 123.701 141.21 122.549 142.58C121.397 143.951 121.573 145.997 122.942 147.15C124.312 148.303 126.356 148.126 127.508 146.756Z" fill="#D2E3FC"/>
<path d="M147.849 143.555C148.169 141.793 147.002 140.105 145.241 139.784C143.48 139.464 141.793 140.633 141.473 142.395C141.153 144.157 142.32 145.846 144.081 146.166C145.842 146.487 147.529 145.318 147.849 143.555Z" fill="#D2E3FC"/>
<path d="M167.239 142.585C167.955 140.943 167.206 139.032 165.566 138.315C163.926 137.599 162.016 138.349 161.3 139.99C160.584 141.632 161.333 143.544 162.973 144.26C164.614 144.977 166.524 144.227 167.239 142.585Z" fill="#D2E3FC"/>
<path d="M186.854 140.893C187.57 139.251 186.821 137.34 185.181 136.623C183.541 135.907 181.631 136.657 180.915 138.298C180.199 139.94 180.948 141.852 182.588 142.568C184.229 143.285 186.139 142.535 186.854 140.893Z" fill="#D2E3FC"/>
<path d="M127.322 164.858C129.054 164.406 130.091 162.634 129.64 160.901C129.188 159.168 127.418 158.129 125.686 158.582C123.955 159.034 122.917 160.805 123.369 162.538C123.82 164.271 125.59 165.31 127.322 164.858Z" fill="#D2E3FC"/>
<path d="M149.132 161.205C149.783 159.536 148.959 157.656 147.293 157.004C145.626 156.352 143.747 157.176 143.095 158.844C142.444 160.513 143.267 162.393 144.934 163.045C146.601 163.697 148.48 162.873 149.132 161.205Z" fill="#D2E3FC"/>
<path d="M168.205 160.425C169.357 159.054 169.181 157.009 167.812 155.856C166.442 154.703 164.398 154.879 163.246 156.25C162.094 157.62 162.27 159.666 163.64 160.819C165.009 161.972 167.053 161.796 168.205 160.425Z" fill="#D2E3FC"/>
<path d="M187.82 158.732C188.972 157.362 188.796 155.316 187.426 154.163C186.057 153.01 184.013 153.186 182.861 154.557C181.709 155.928 181.885 157.974 183.255 159.127C184.624 160.279 186.668 160.103 187.82 158.732Z" fill="#D2E3FC"/>
<path d="M130.445 180.861C131.596 179.49 131.42 177.445 130.051 176.292C128.681 175.139 126.637 175.315 125.485 176.686C124.333 178.056 124.51 180.102 125.879 181.255C127.248 182.408 129.293 182.232 130.445 180.861Z" fill="#D2E3FC"/>
<path d="M150.789 177.662C151.109 175.899 149.941 174.211 148.181 173.891C146.42 173.57 144.733 174.739 144.413 176.501C144.092 178.264 145.26 179.952 147.021 180.273C148.782 180.593 150.469 179.424 150.789 177.662Z" fill="#D2E3FC"/>
<path d="M170.176 176.692C170.892 175.05 170.143 173.138 168.502 172.422C166.862 171.705 164.952 172.455 164.236 174.097C163.521 175.739 164.27 177.65 165.91 178.367C167.55 179.083 169.46 178.333 170.176 176.692Z" fill="#D2E3FC"/>
<path d="M187.417 176.883C189.176 176.553 190.334 174.858 190.004 173.097C189.673 171.337 187.98 170.178 186.221 170.509C184.462 170.839 183.304 172.534 183.634 174.295C183.965 176.055 185.658 177.214 187.417 176.883Z" fill="#D2E3FC"/>
<path d="M130.478 198.89C132.175 198.321 133.09 196.484 132.523 194.785C131.955 193.087 130.119 192.17 128.422 192.739C126.724 193.307 125.809 195.145 126.377 196.843C126.945 198.542 128.781 199.458 130.478 198.89Z" fill="#D2E3FC"/>
<path d="M152.197 194.914C152.63 193.176 151.574 191.415 149.838 190.982C148.101 190.548 146.342 191.605 145.909 193.343C145.476 195.08 146.532 196.841 148.268 197.275C150.004 197.709 151.763 196.652 152.197 194.914Z" fill="#D2E3FC"/>
<path d="M171.427 194.15C172.375 192.63 171.913 190.63 170.395 189.681C168.877 188.732 166.878 189.195 165.93 190.714C164.982 192.233 165.444 194.234 166.962 195.183C168.48 196.132 170.479 195.669 171.427 194.15Z" fill="#D2E3FC"/>
<path d="M191.116 192.33C191.995 190.77 191.445 188.792 189.886 187.912C188.328 187.031 186.351 187.582 185.472 189.142C184.592 190.702 185.142 192.68 186.701 193.561C188.26 194.441 190.236 193.89 191.116 192.33Z" fill="#D2E3FC"/>
<path d="M221.45 270.079C221.45 270.079 221.628 262.748 223.973 262.242C226.317 261.736 224.734 265.632 224.734 265.632C224.734 265.632 228.172 259.394 231.008 261.389C233.845 263.383 235.337 267.044 230.422 270.612C225.507 274.179 225.221 274.107 225.221 274.107L221.45 270.079Z" fill="white"/>
<path d="M412.304 405.705H295.208C288.441 405.705 282.936 400.196 282.936 393.423V165.084C282.936 158.311 288.441 152.801 295.208 152.801H412.304C419.071 152.801 424.576 158.311 424.576 165.084V393.423C424.576 400.194 419.07 405.705 412.304 405.705ZM295.208 153.536C288.846 153.536 283.67 158.716 283.67 165.084V393.423C283.67 399.79 288.846 404.97 295.208 404.97H412.304C418.666 404.97 423.841 399.79 423.841 393.423V165.084C423.841 158.716 418.665 153.536 412.304 153.536H295.208V153.536Z" fill="#444444"/>
<path d="M272.652 402.268V173.929C272.652 167.349 277.982 162.014 284.556 162.014H401.653C408.227 162.014 413.557 167.349 413.557 173.929V402.268C413.557 408.848 408.227 414.183 401.653 414.183H284.556C277.982 414.183 272.652 408.848 272.652 402.268Z" fill="#FFB800"/>
<path d="M321.62 390.106H281.954C279.322 390.106 277.18 387.962 277.18 385.327V339.011C277.18 336.376 279.322 334.232 281.954 334.232H321.62C324.252 334.232 326.394 336.376 326.394 339.011V385.327C326.394 387.962 324.252 390.106 321.62 390.106ZM281.954 334.966C279.727 334.966 277.914 336.78 277.914 339.009V385.326C277.914 387.555 279.727 389.37 281.954 389.37H321.62C323.847 389.37 325.66 387.555 325.66 385.326V339.009C325.66 336.78 323.847 334.966 321.62 334.966H281.954Z" fill="#444444"/>
<path d="M398.345 241.046H287.865C283.687 241.046 280.302 237.657 280.302 233.476V177.671C280.302 173.49 283.687 170.101 287.865 170.101H398.345C402.523 170.101 405.909 173.49 405.909 177.671V233.476C405.909 237.657 402.522 241.046 398.345 241.046Z" fill="white"/>
<path d="M399.625 406.095H288.788C284.71 406.095 281.403 402.786 281.403 398.703V345.849C281.403 341.768 284.709 338.457 288.788 338.457H399.625C403.703 338.457 407.011 341.766 407.011 345.849V398.703C407.011 402.786 403.703 406.095 399.625 406.095Z" fill="white"/>
<path d="M316.027 205.863C321.764 200.121 321.764 190.811 316.027 185.069C310.29 179.328 300.989 179.328 295.252 185.069C289.515 190.811 289.515 200.121 295.252 205.863C300.989 211.605 310.29 211.605 316.027 205.863Z" fill="#E4ECF9"/>
<path d="M380.934 187.745H329.148C327.936 187.745 326.944 186.753 326.944 185.539C326.944 184.326 327.935 183.333 329.148 183.333H380.934C382.146 183.333 383.138 184.325 383.138 185.539C383.138 186.753 382.146 187.745 380.934 187.745Z" fill="#E4ECF9"/>
<path d="M358.897 197.671H329.148C327.936 197.671 326.944 196.679 326.944 195.465C326.944 194.252 327.935 193.259 329.148 193.259H358.897C360.109 193.259 361.101 194.251 361.101 195.465C361.101 196.678 360.11 197.671 358.897 197.671Z" fill="#E4ECF9"/>
<path d="M392.136 229.651H295.175C292.852 229.651 290.952 227.748 290.952 225.423C290.952 223.098 292.852 221.196 295.175 221.196H392.136C394.459 221.196 396.359 223.098 396.359 225.423C396.359 227.748 394.459 229.651 392.136 229.651Z" fill="#E4ECF9"/>
<path opacity="0.2" d="M356.108 331.474H245.627C241.45 331.474 238.064 328.085 238.064 323.904V268.099C238.064 263.918 241.45 260.529 245.627 260.529H356.108C360.285 260.529 363.671 263.918 363.671 268.099V323.904C363.672 328.084 360.285 331.474 356.108 331.474Z" fill="#3A7EC1"/>
<path d="M364.188 317.506H253.708C249.334 317.506 245.776 313.945 245.776 309.567V253.762C245.776 249.385 249.334 245.824 253.708 245.824H364.188C368.562 245.824 372.12 249.385 372.12 253.762V309.567C372.12 313.945 368.562 317.506 364.188 317.506ZM253.708 246.56C249.739 246.56 246.511 249.791 246.511 253.762V309.567C246.511 313.539 249.74 316.77 253.708 316.77H364.188C368.157 316.77 371.385 313.538 371.385 309.567V253.762C371.385 249.79 368.156 246.56 364.188 246.56H253.708Z" fill="#444444"/>
<path d="M346.192 321.917H235.711C231.534 321.917 228.148 318.528 228.148 314.347V258.542C228.148 254.361 231.534 250.972 235.711 250.972H346.192C350.369 250.972 353.755 254.361 353.755 258.542V314.347C353.756 318.528 350.369 321.917 346.192 321.917Z" fill="#FFE3AB"/>
<path d="M287.647 262.367V310.154C287.647 312.581 285.663 314.565 283.24 314.565H239.901C237.477 314.565 235.494 312.58 235.494 310.154V262.367C235.494 259.94 237.478 257.956 239.901 257.956H283.24C285.663 257.955 287.647 259.94 287.647 262.367Z" fill="#F9C067"/>
<path d="M287.647 291.079V310.154C287.647 312.581 285.663 314.565 283.24 314.565H239.901C237.477 314.565 235.494 312.58 235.494 310.154V294.417L251.118 284.492C251.853 284.029 252.811 284.165 253.388 284.812L259.915 292.164C260.609 292.939 261.817 292.957 262.53 292.197L275.873 277.931C276.64 277.107 277.969 277.203 278.612 278.126L287.647 291.079Z" fill="#E8A33F"/>
<path d="M263.684 275.282C264.103 273.504 263.003 271.722 261.227 271.303C259.45 270.883 257.67 271.984 257.251 273.762C256.831 275.54 257.931 277.321 259.708 277.741C261.484 278.161 263.264 277.06 263.684 275.282Z" fill="#E8A33F"/>
<path d="M303.443 270.829C305.882 268.389 305.882 264.432 303.443 261.992C301.005 259.552 297.052 259.552 294.614 261.992C292.176 264.432 292.176 268.389 294.614 270.829C297.052 273.269 301.005 273.269 303.443 270.829Z" fill="#F9C067"/>
<path d="M342.738 270.086H312.622C310.602 270.086 308.948 268.432 308.948 266.41C308.948 264.388 310.601 262.733 312.622 262.733H342.738C344.757 262.733 346.411 264.387 346.411 266.41C346.41 268.432 344.757 270.086 342.738 270.086Z" fill="#F9C067"/>
<path d="M305.109 287.723C305.901 284.364 303.823 280.999 300.468 280.206C297.112 279.413 293.749 281.492 292.957 284.851C292.165 288.209 294.243 291.575 297.598 292.368C300.954 293.161 304.316 291.081 305.109 287.723Z" fill="#F9C067"/>
<path d="M342.738 289.936H312.622C310.602 289.936 308.948 288.282 308.948 286.259C308.948 284.238 310.601 282.583 312.622 282.583H342.738C344.757 282.583 346.411 284.237 346.411 286.259C346.41 288.282 344.757 289.936 342.738 289.936Z" fill="#F9C067"/>
<path d="M299.032 312.359C302.48 312.359 305.275 309.561 305.275 306.11C305.275 302.659 302.48 299.862 299.032 299.862C295.584 299.862 292.789 302.659 292.789 306.11C292.789 309.561 295.584 312.359 299.032 312.359Z" fill="#F9C067"/>
<path d="M342.738 309.786H312.622C310.602 309.786 308.949 308.132 308.949 306.109C308.949 304.088 310.601 302.433 312.622 302.433H342.738C344.757 302.433 346.411 304.087 346.411 306.109C346.41 308.132 344.757 309.786 342.738 309.786Z" fill="#F9C067"/>
<path d="M332.454 399.847H292.789C290.365 399.847 288.382 397.861 288.382 395.436V349.119C288.382 346.693 290.366 344.708 292.789 344.708H332.454C334.879 344.708 336.862 346.694 336.862 349.119V395.436C336.862 397.861 334.878 399.847 332.454 399.847Z" fill="#52D1BD"/>
<path d="M347.145 378.527C349.985 378.527 352.287 376.222 352.287 373.38C352.287 370.538 349.985 368.233 347.145 368.233C344.305 368.233 342.003 370.538 342.003 373.38C342.003 376.222 344.305 378.527 347.145 378.527Z" fill="#52D1BD"/>
<path d="M361.468 378.527C364.308 378.527 366.61 376.222 366.61 373.38C366.61 370.538 364.308 368.233 361.468 368.233C358.628 368.233 356.326 370.538 356.326 373.38C356.326 376.222 358.628 378.527 361.468 378.527Z" fill="#52D1BD"/>
<path d="M375.792 378.527C378.632 378.527 380.934 376.222 380.934 373.38C380.934 370.538 378.632 368.233 375.792 368.233C372.952 368.233 370.649 370.538 370.649 373.38C370.649 376.222 372.952 378.527 375.792 378.527Z" fill="#52D1BD"/>
<path d="M385.708 373.747V361.729C385.708 360.266 387.462 359.52 388.516 360.534L393.972 365.789L400.994 372.552C401.671 373.204 401.671 374.29 400.994 374.943L393.972 381.705L388.516 386.96C387.462 387.975 385.708 387.227 385.708 385.765V373.747Z" fill="#52D1BD"/>
<path opacity="0.2" d="M235.36 274.107L228.148 287.681V274.497L235.36 274.107Z" fill="#707070"/>
<path d="M384.439 380.812C384.17 380.812 383.897 380.758 383.634 380.646C382.874 380.323 382.402 379.608 382.402 378.781V354.745C382.402 353.918 382.874 353.204 383.634 352.88C384.395 352.555 385.236 352.711 385.831 353.284L398.31 365.302C398.71 365.688 398.931 366.206 398.931 366.762C398.931 367.317 398.71 367.836 398.31 368.222L385.831 380.24C385.443 380.617 384.947 380.812 384.439 380.812ZM384.44 353.452C384.25 353.452 384.072 353.493 383.923 353.557C383.543 353.718 383.138 354.116 383.138 354.745V378.782C383.138 379.411 383.543 379.809 383.923 379.97C384.302 380.132 384.87 380.149 385.323 379.713L397.801 367.695C398.056 367.449 398.197 367.119 398.197 366.764C398.197 366.41 398.056 366.079 397.801 365.833L385.323 353.815C385.048 353.55 384.732 353.452 384.44 353.452Z" fill="#444444"/>
<path d="M180.377 387.59C180.377 387.59 180.244 388.461 180.032 389.843C179.771 391.553 179.392 394.042 179.007 396.61C178.225 401.776 177.41 407.275 177.442 407.44C177.504 407.753 170.637 406.282 170.637 406.282C170.637 406.282 170.445 402.375 170.27 398.394C170.137 395.298 170.013 392.159 169.998 390.77C169.991 390.461 169.994 390.237 170.001 390.123L180.377 387.59Z" fill="white"/>
<path d="M176.507 407.946C176.152 407.946 175.305 407.835 173.143 407.417C171.49 407.097 169.843 406.744 169.827 406.741L169.688 406.711L169.681 406.57C169.651 405.962 168.952 391.684 169.046 390.388L169.055 390.254L179.826 387.627L179.785 387.898C178.969 393.221 176.855 407.12 176.852 407.701C176.859 407.763 176.839 407.824 176.794 407.869C176.757 407.906 176.717 407.946 176.507 407.946ZM176.491 407.688C176.487 407.709 176.485 407.733 176.491 407.758C176.488 407.748 176.489 407.725 176.491 407.688ZM176.85 407.685C176.851 407.689 176.851 407.693 176.852 407.697C176.851 407.692 176.85 407.687 176.85 407.685ZM170.041 406.412C172.301 406.893 175.796 407.584 176.494 407.584C176.496 407.584 176.497 407.584 176.499 407.584C176.663 405.893 178.672 392.731 179.38 388.115L169.406 390.548C169.362 392.37 169.97 404.931 170.041 406.412Z" fill="#444444"/>
<path d="M169.803 404.779C170.742 406.054 173.394 408.323 178.724 404.002C178.724 404.002 183.405 409.184 187.16 408.446C190.915 407.708 191.266 409.358 191.224 410.006C191.183 410.654 188.304 415.029 180.836 413.773C173.525 412.542 163.388 416.23 169.01 404.854C169.166 404.543 169.596 404.498 169.803 404.779Z" fill="#3B82F4"/>
<path d="M178.823 407.421C178.6 407.292 178.522 407.002 178.651 406.778L179.742 404.887C179.871 404.663 180.161 404.586 180.385 404.715C180.609 404.844 180.686 405.134 180.557 405.358L179.466 407.249C179.337 407.473 179.047 407.551 178.823 407.421Z" fill="#444444"/>
<path d="M180.681 408.494C180.458 408.365 180.38 408.075 180.51 407.851L181.6 405.961C181.729 405.737 182.019 405.66 182.243 405.789C182.467 405.918 182.544 406.208 182.415 406.432L181.324 408.323C181.195 408.546 180.905 408.625 180.681 408.494Z" fill="#444444"/>
<path d="M182.43 409.421C182.255 409.229 182.268 408.93 182.46 408.755L184.07 407.283C184.261 407.108 184.56 407.121 184.734 407.313C184.908 407.504 184.896 407.804 184.704 407.978L183.094 409.451C182.903 409.625 182.604 409.612 182.43 409.421Z" fill="#444444"/>
<path opacity="0.3" d="M180.032 389.843C179.771 391.553 179.392 394.042 179.007 396.61L170.27 398.394C170.137 395.298 170.013 392.159 169.998 390.77C172.771 390.517 176.81 390.123 180.032 389.843Z" fill="#3A7EC1"/>
<path d="M132.746 387.826C132.746 387.826 129.333 390.685 125.727 393.715C121.742 397.071 117.522 400.64 117.438 400.784C117.28 401.06 113.096 395.413 113.096 395.413C113.096 395.413 117.453 389.943 120.49 386.209C121.882 384.499 122.994 383.153 123.288 382.864L132.746 387.826Z" fill="white"/>
<path d="M117.408 402.236C117.267 402.236 117.014 402.101 114.991 399.482C113.962 398.148 112.958 396.795 112.949 396.781L112.864 396.668L112.952 396.557C113.331 396.081 122.234 384.902 123.159 383.992L123.255 383.898L133.074 389.051L132.864 389.228C128.738 392.682 117.974 401.717 117.589 402.15C117.553 402.202 117.496 402.234 117.433 402.238C117.423 402.236 117.416 402.236 117.408 402.236ZM117.596 402.134C117.593 402.137 117.591 402.141 117.589 402.144C117.592 402.139 117.595 402.136 117.596 402.134ZM117.323 401.899C117.306 401.912 117.29 401.929 117.277 401.951C117.282 401.942 117.298 401.925 117.323 401.899ZM113.327 396.675C114.708 398.536 116.885 401.377 117.4 401.825C118.639 400.664 128.838 392.115 132.416 389.119L123.324 384.348C122.086 385.688 114.25 395.517 113.327 396.675Z" fill="#444444"/>
<path d="M113.966 394.179C113.829 395.758 114.322 399.215 121.175 399.498C121.175 399.498 121.268 406.482 124.573 408.412C127.878 410.342 127.052 411.813 126.592 412.272C126.133 412.732 121.083 414.11 116.309 408.229C111.634 402.47 101.591 398.532 113.322 393.713C113.643 393.581 113.996 393.833 113.966 394.179Z" fill="#3B82F4"/>
<path d="M119.717 401.968C119.649 401.719 119.796 401.458 120.046 401.39L122.148 400.812C122.397 400.744 122.658 400.892 122.726 401.141C122.794 401.391 122.647 401.652 122.397 401.72L120.295 402.298C120.046 402.366 119.786 402.218 119.717 401.968Z" fill="#444444"/>
<path d="M120.165 404.045C120.165 403.786 120.377 403.574 120.635 403.574H122.816C123.075 403.574 123.287 403.785 123.287 404.045C123.287 404.304 123.075 404.516 122.816 404.516H120.635C120.377 404.516 120.165 404.304 120.165 404.045Z" fill="#444444"/>
<path d="M121.005 406.183C121.04 405.927 121.278 405.745 121.534 405.781L123.695 406.078C123.951 406.114 124.132 406.352 124.096 406.608C124.06 406.864 123.823 407.046 123.566 407.01L121.406 406.713C121.15 406.679 120.969 406.439 121.005 406.183Z" fill="#444444"/>
<path opacity="0.3" d="M132.745 387.826C132.745 387.826 129.333 390.685 125.727 393.715C124.261 391.679 121.919 388.285 120.49 386.209C121.882 384.499 122.994 383.153 123.288 382.864L132.745 387.826Z" fill="#3A7EC1"/>
<path d="M197.874 289.404C197.874 289.404 202.847 301.056 202.042 311.099C201.989 311.762 201.389 312.243 200.73 312.153C194.196 311.269 165.418 303.268 156.666 306.256C156.018 306.476 155.327 306.071 155.195 305.399L151.047 302.882L189.182 277.151L197.874 289.404Z" fill="#FFB800"/>
<path d="M186.488 254.728C186.488 254.728 197.323 273.721 203.75 278.132L221.195 267.104L225.724 272.312C225.724 272.312 214.217 289.711 200.138 287.077C186.059 284.443 185.509 286.28 184.529 281.135C183.55 275.987 186.488 254.728 186.488 254.728Z" fill="#FFB800"/>
<path d="M191.604 301.328L191.579 301.894L191.468 304.176L189.033 355.73C189.033 355.73 181.592 394.35 181.041 395.085C180.491 395.819 168.371 395.085 168.371 395.085L168.532 362.752L168.554 358.326L170.758 335.719L159.006 358.878L132.745 391.226L121.727 383.322L140.641 349.871L156.361 312.578L159.619 304.851L163.034 296.749L178.401 299.212L189.133 300.928L191.604 301.328Z" fill="#F9C067"/>
<path d="M191.579 301.893L191.468 304.177L178.199 303.985L178.401 299.214L178.504 296.751L189.132 300.93L191.579 301.893Z" fill="#E8A33F"/>
<path d="M192.452 292.31C192.452 292.726 192.449 293.134 192.445 293.535C192.398 299.13 192.215 303.251 192.215 303.251C192.215 303.251 172.779 297.248 162.127 303.251C162.127 303.251 172.485 258.915 178.684 246.549C179.544 244.84 180.318 243.742 180.979 243.454L189.305 248.725C189.305 248.725 188.376 251.144 188.067 254.548C187.795 257.554 188.012 261.333 189.793 264.899C191.234 267.784 191.931 274.015 192.24 280.632C192.265 281.165 192.287 281.698 192.306 282.235C192.434 285.69 192.467 289.186 192.452 292.31Z" fill="white"/>
<path d="M222.962 272.814C222.962 272.814 225.777 266.043 228.147 266.422C230.516 266.8 227.632 269.86 227.632 269.86C227.632 269.86 233.092 265.289 235.014 268.176C236.937 271.062 237.006 275.014 231.134 276.561C225.263 278.107 225.023 277.935 225.023 277.935L222.962 272.814Z" fill="white"/>
<path d="M168.532 310.656L167.225 317.361C166.736 317.258 159.684 314.082 156.361 312.578L159.619 304.851L168.532 310.656Z" fill="#E8A33F"/>
<path d="M225.079 278.118C224.962 278.118 224.934 278.098 224.915 278.084L224.872 278.053L222.763 272.813L222.792 272.744C222.91 272.462 225.692 265.846 228.175 266.241C228.733 266.33 229.081 266.568 229.211 266.949C229.401 267.509 229.05 268.256 228.645 268.872C229.902 268.01 231.963 266.832 233.572 267.065C234.25 267.163 234.787 267.501 235.168 268.073C236.324 269.808 236.658 271.666 236.088 273.172C235.453 274.848 233.802 276.048 231.182 276.739C226.676 277.924 225.445 278.118 225.079 278.118ZM223.16 272.815L225.147 277.754C225.439 277.733 226.613 277.561 231.087 276.382C233.585 275.724 235.153 274.6 235.743 273.04C236.272 271.648 235.95 269.912 234.861 268.276C234.536 267.789 234.097 267.512 233.518 267.428C231.245 267.1 227.783 269.971 227.748 269.999L227.497 269.733C227.961 269.239 229.111 267.8 228.862 267.067C228.779 266.822 228.535 266.671 228.117 266.604C226.316 266.315 223.958 270.923 223.16 272.815Z" fill="#444444"/>
<path d="M187.348 261.183C186.068 261.183 184.075 260.814 181.263 259.311C181.173 259.264 181.14 259.152 181.188 259.063C181.235 258.974 181.347 258.939 181.436 258.988C186.672 261.786 188.947 260.535 188.971 260.523C189.058 260.472 189.17 260.502 189.221 260.59C189.272 260.677 189.242 260.789 189.154 260.84C189.107 260.867 188.533 261.183 187.348 261.183Z" fill="#444444"/>
<path d="M185.207 287.581C183.885 292.407 178.232 312.897 168.745 318.29C168.384 318.496 167.937 318.448 167.632 318.172C164.925 315.713 151.84 303.971 148.659 303.862C145.112 303.74 161.759 294.671 162.127 279.111C162.444 265.797 172.635 253.806 175.574 250.62C175.978 250.185 176.676 250.219 177.033 250.697C180.331 255.108 194.9 274.407 200.094 278.159C200.343 278.34 200.671 278.38 200.961 278.274C203.598 277.31 217.069 272.44 221.786 271.503C222.168 271.426 222.553 271.591 222.767 271.914L226.598 277.796C226.844 278.174 226.788 278.675 226.47 278.99C223.73 281.691 211.085 293.385 197.514 293.267C197.371 293.263 197.231 293.23 197.103 293.171L186.629 288.236L185.207 287.581Z" fill="#F9CD5C"/>
<path opacity="0.3" d="M189.305 248.725C189.305 248.725 188.376 251.144 188.067 254.548C183.002 252.751 180.046 248.839 178.683 246.549C179.542 244.84 180.317 243.742 180.978 243.454L189.305 248.725Z" fill="#3A7EC1"/>
<path d="M192.242 230.957C192.242 230.957 195.915 236.838 196.282 241.617C196.649 246.396 193.344 243.088 193.711 245.661C194.078 248.234 192.976 253.013 187.835 250.439C182.693 247.866 179.388 246.396 179.021 241.249C178.654 236.102 183.795 228.752 192.242 230.957Z" fill="white"/>
<path d="M189.123 251.094C189.107 251.094 189.091 251.092 189.074 251.087C188.616 250.961 188.126 250.769 187.617 250.513L187.085 250.248C182.254 247.836 179.064 246.243 178.701 241.172C178.418 237.205 181.272 232.052 186.376 230.643C186.475 230.615 186.575 230.673 186.603 230.771C186.629 230.869 186.573 230.97 186.475 230.997C181.549 232.357 178.796 237.323 179.068 241.145C179.416 246.006 182.364 247.479 187.25 249.917L187.782 250.183C188.27 250.427 188.738 250.611 189.173 250.732C189.271 250.758 189.328 250.86 189.301 250.958C189.278 251.041 189.204 251.094 189.123 251.094Z" fill="#444444"/>
<path d="M192.78 232.077C192.465 233.743 191.154 236.768 186.412 241.112C186.412 241.112 183.034 236.547 181.66 239.388C180.283 242.238 183.152 243.776 182.602 244.512C182.051 245.248 179.571 249.475 175.486 245.109C171.4 240.744 172.135 235 175.486 230.773C178.709 226.708 186.432 223.132 192.123 229.718C192.685 230.369 192.939 231.232 192.78 232.077Z" fill="#444444"/>
<path d="M179.251 227.925C179.021 227.649 176.909 216.024 168.049 221.951C159.188 227.879 166.672 241.434 164.835 244.328C162.999 247.223 168.002 245.982 168.599 242.858C168.599 242.858 171.261 232.566 175.44 232.749C179.617 232.933 179.251 227.925 179.251 227.925Z" fill="#444444"/>
<path d="M194.383 241.928C193.222 241.928 192.277 240.55 192.277 238.857C192.277 237.164 193.222 235.786 194.383 235.786C195.544 235.786 196.489 237.164 196.489 238.857C196.489 240.55 195.545 241.928 194.383 241.928ZM194.383 236.142C193.418 236.142 192.633 237.36 192.633 238.857C192.633 240.354 193.418 241.572 194.383 241.572C195.348 241.572 196.132 240.354 196.132 238.857C196.134 237.359 195.348 236.142 194.383 236.142Z" fill="#444444"/>
<path d="M194.377 239.848C194.821 239.848 195.18 239.488 195.18 239.044C195.18 238.6 194.821 238.24 194.377 238.24C193.934 238.24 193.574 238.6 193.574 239.044C193.574 239.488 193.934 239.848 194.377 239.848Z" fill="#444444"/>
<path d="M186.156 239.749L192.456 239.338L192.383 238.856L186.156 239.264V239.749Z" fill="#444444"/>
<path d="M185.206 287.58C184.688 287.359 176.057 282.764 176.057 282.764V286.746L184.93 288.588L185.206 287.58Z" fill="#FFB800"/>
<path d="M190.824 294.068C191.204 294.068 191.513 293.76 191.513 293.379C191.513 292.998 191.204 292.689 190.824 292.689C190.443 292.689 190.135 292.998 190.135 293.379C190.135 293.76 190.443 294.068 190.824 294.068Z" fill="#444444"/>
<path d="M190.548 299.95C190.929 299.95 191.237 299.641 191.237 299.26C191.237 298.879 190.929 298.571 190.548 298.571C190.168 298.571 189.859 298.879 189.859 299.26C189.859 299.641 190.168 299.95 190.548 299.95Z" fill="#444444"/>
<path d="M172.998 308.177L165.164 302.243L166.715 300.191L174.549 306.124L172.998 308.177ZM165.677 302.172L172.927 307.66L174.034 306.195L166.785 300.706L165.677 302.172Z" fill="#444444"/>
<path d="M164.545 303.451C164.501 303.451 164.456 303.434 164.422 303.402C164.347 303.334 164.341 303.217 164.409 303.142L164.779 302.734C164.847 302.659 164.964 302.653 165.039 302.722C165.114 302.79 165.12 302.906 165.052 302.982L164.681 303.389C164.644 303.431 164.595 303.451 164.545 303.451Z" fill="#444444"/>
<path d="M161.685 306.597C161.642 306.597 161.597 306.581 161.562 306.548C161.487 306.48 161.481 306.363 161.549 306.288L162.264 305.502C162.332 305.427 162.448 305.421 162.523 305.489C162.598 305.557 162.604 305.674 162.536 305.749L161.822 306.536C161.785 306.577 161.735 306.597 161.685 306.597ZM163.115 305.024C163.071 305.024 163.026 305.007 162.992 304.975C162.917 304.907 162.911 304.79 162.979 304.715L163.693 303.929C163.762 303.854 163.878 303.848 163.953 303.916C164.028 303.984 164.034 304.101 163.966 304.176L163.251 304.962C163.214 305.004 163.165 305.024 163.115 305.024Z" fill="#444444"/>
<path d="M161.023 308.144C160.981 308.144 160.94 308.131 160.905 308.102L160.335 307.626L160.835 307.076C160.903 307.001 161.02 306.995 161.095 307.063C161.17 307.131 161.175 307.248 161.107 307.323L160.865 307.589L161.141 307.82C161.218 307.885 161.23 308.001 161.164 308.079C161.128 308.122 161.075 308.144 161.023 308.144Z" fill="#444444"/>
<path d="M167.345 313.425C167.303 313.425 167.262 313.411 167.227 313.382L166.436 312.723C166.359 312.658 166.348 312.541 166.413 312.464C166.478 312.387 166.595 312.376 166.672 312.441L167.462 313.1C167.54 313.165 167.551 313.282 167.485 313.359C167.45 313.402 167.397 313.425 167.345 313.425ZM165.764 312.105C165.722 312.105 165.681 312.091 165.646 312.062L164.855 311.401C164.778 311.337 164.767 311.22 164.832 311.143C164.897 311.065 165.014 311.055 165.091 311.12L165.881 311.78C165.959 311.845 165.97 311.962 165.904 312.039C165.869 312.083 165.817 312.105 165.764 312.105ZM164.184 310.785C164.142 310.785 164.101 310.771 164.066 310.742L163.276 310.082C163.198 310.018 163.187 309.901 163.253 309.824C163.317 309.746 163.434 309.736 163.511 309.801L164.302 310.46C164.379 310.525 164.39 310.641 164.325 310.719C164.289 310.762 164.236 310.785 164.184 310.785ZM162.603 309.464C162.561 309.464 162.52 309.451 162.485 309.422L161.695 308.762C161.617 308.698 161.606 308.581 161.672 308.504C161.736 308.426 161.853 308.416 161.93 308.48L162.721 309.14C162.798 309.205 162.809 309.321 162.744 309.399C162.708 309.441 162.656 309.464 162.603 309.464Z" fill="#444444"/>
<path d="M168.601 314.53L168.016 314.042C167.939 313.977 167.927 313.861 167.993 313.783C168.058 313.706 168.174 313.695 168.252 313.76L168.512 313.978L168.692 313.69C168.746 313.603 168.86 313.578 168.945 313.631C169.032 313.685 169.057 313.798 169.004 313.884L168.601 314.53Z" fill="#444444"/>
<path d="M169.443 313.018C169.409 313.018 169.376 313.009 169.346 312.991C169.259 312.936 169.234 312.823 169.287 312.738L169.88 311.785C169.934 311.698 170.047 311.673 170.133 311.726C170.219 311.78 170.245 311.894 170.192 311.979L169.598 312.932C169.564 312.987 169.504 313.018 169.443 313.018ZM170.629 311.114C170.595 311.114 170.562 311.105 170.532 311.086C170.445 311.032 170.42 310.919 170.473 310.833L171.066 309.88C171.119 309.794 171.234 309.768 171.319 309.821C171.406 309.876 171.431 309.989 171.378 310.074L170.785 311.027C170.75 311.083 170.69 311.114 170.629 311.114Z" fill="#444444"/>
<path d="M171.816 309.208C171.783 309.208 171.749 309.199 171.719 309.18C171.633 309.126 171.607 309.013 171.661 308.928L171.953 308.46C172.006 308.373 172.12 308.348 172.205 308.401C172.292 308.455 172.317 308.568 172.264 308.654L171.972 309.122C171.938 309.178 171.878 309.208 171.816 309.208Z" fill="#444444"/>
<path d="M178.927 322.615C177.961 324.101 171.534 352.357 168.532 362.752L168.554 358.326L170.758 335.719C170.758 335.72 180.124 320.778 178.927 322.615Z" fill="#E8A33F"/>
<path d="M160.364 311.818L145.551 352.507L145.541 352.525L125.951 380.83C125.917 380.882 125.858 380.911 125.8 380.911C125.763 380.911 125.726 380.899 125.697 380.877C125.613 380.818 125.591 380.704 125.65 380.623L145.225 352.337L160.063 311.568C160.166 311.653 160.265 311.738 160.364 311.818Z" fill="#444444"/>
<path d="M145.817 345.868C145.731 345.868 145.654 345.807 145.637 345.72C145.617 345.621 145.682 345.524 145.781 345.504L150.74 344.523C150.84 344.504 150.936 344.568 150.956 344.668C150.975 344.767 150.911 344.864 150.811 344.884L145.853 345.864C145.841 345.867 145.828 345.868 145.817 345.868Z" fill="#444444"/>
<path d="M149.612 349.359C149.583 349.359 149.555 349.353 149.527 349.339L145.426 347.194C145.336 347.146 145.301 347.036 145.348 346.945C145.396 346.855 145.506 346.821 145.596 346.868L149.698 349.013C149.788 349.06 149.822 349.171 149.775 349.261C149.743 349.324 149.678 349.359 149.612 349.359Z" fill="#444444"/>
<path d="M171.312 359.418L172.278 391.825C172.278 391.925 172.201 392.009 172.098 392.012C172.094 392.012 172.094 392.012 172.094 392.012C171.995 392.012 171.911 391.935 171.911 391.836L170.945 359.411C170.967 359.066 171.137 356.481 171.364 352.986C171.768 346.807 172.363 337.783 172.671 333.283C172.804 333.118 172.939 332.945 173.079 332.764C172.803 336.679 172.253 345.042 171.837 351.364C171.544 355.86 171.319 359.319 171.312 359.418Z" fill="#444444"/>
<path d="M169.992 382.382C169.918 382.382 169.849 382.337 169.821 382.264C169.784 382.17 169.831 382.063 169.926 382.026L173.725 380.556C173.82 380.519 173.926 380.566 173.963 380.661C174 380.756 173.952 380.862 173.858 380.899L170.059 382.369C170.037 382.377 170.014 382.382 169.992 382.382Z" fill="#444444"/>
<path d="M173.792 384.587C173.787 384.587 173.782 384.587 173.776 384.586L169.977 384.265C169.875 384.257 169.8 384.168 169.81 384.066C169.818 383.964 169.907 383.892 170.008 383.899L173.807 384.22C173.909 384.228 173.984 384.317 173.974 384.418C173.966 384.515 173.886 384.587 173.792 384.587Z" fill="#444444"/>
<path d="M316.806 364.541L317.292 362.486L322.186 362.54L319.223 375.814C319.04 376.653 318.948 377.209 318.944 377.481C318.941 377.766 319.01 377.99 319.151 378.151C319.291 378.314 319.46 378.396 319.658 378.398C320.326 378.405 321.192 377.979 322.259 377.119C323.325 376.258 324.259 375.081 325.061 373.587C325.862 372.092 326.272 370.454 326.292 368.673C326.308 367.189 326.043 365.788 325.495 364.47C324.946 363.152 324.147 362.006 323.094 361.03C322.042 360.052 320.737 359.284 319.18 358.723C317.622 358.162 315.854 357.869 313.877 357.848C311.862 357.826 310.011 358.068 308.325 358.575C306.639 359.083 305.153 359.821 303.87 360.79C302.587 361.76 301.51 362.963 300.641 364.401C299.874 365.654 299.283 367.046 298.871 368.575C298.459 370.104 298.243 371.667 298.226 373.263C298.203 375.391 298.604 377.342 299.432 379.113C300.259 380.885 301.472 382.377 303.072 383.589C304.672 384.801 306.612 385.669 308.893 386.196C311.175 386.721 313.756 386.852 316.64 386.587C318.929 386.34 320.873 385.842 322.469 385.093C324.065 384.343 325.421 383.282 326.537 381.909L330.486 381.952C329.829 383.269 328.978 384.441 327.935 385.468C326.892 386.496 325.673 387.358 324.283 388.054C322.891 388.751 321.333 389.274 319.611 389.626C317.89 389.979 316.016 390.144 313.988 390.121C310.947 390.087 308.215 389.659 305.789 388.834C303.362 388.009 301.326 386.836 299.681 385.315C298.035 383.794 296.797 381.986 295.967 379.892C295.138 377.798 294.736 375.49 294.764 372.967C294.793 370.332 295.259 367.875 296.161 365.595C297.064 363.316 298.35 361.341 300.018 359.671C301.686 358.001 303.715 356.703 306.105 355.777C308.495 354.85 311.123 354.403 313.99 354.435C316.339 354.46 318.489 354.827 320.44 355.535C322.391 356.243 324.058 357.248 325.44 358.55C326.823 359.851 327.872 361.388 328.588 363.159C329.304 364.93 329.651 366.88 329.627 369.007C329.609 370.665 329.293 372.285 328.683 373.869C328.073 375.451 327.207 376.87 326.087 378.126C324.966 379.383 323.655 380.369 322.151 381.089C320.648 381.808 319.031 382.158 317.301 382.14C316.3 382.128 315.523 381.95 314.971 381.604C314.419 381.257 314.054 380.712 313.877 379.968C312.79 381.02 311.547 381.678 310.148 381.941C308.748 382.204 307.395 382.059 306.091 381.507C304.787 380.955 303.737 380.036 302.942 378.753C302.146 377.47 301.758 375.894 301.779 374.027C301.8 372.084 302.238 370.178 303.093 368.307C303.948 366.436 305.152 364.909 306.704 363.726C308.256 362.544 310.002 361.963 311.942 361.984C314.163 362.007 315.786 362.86 316.806 364.541ZM306.559 374.042C306.542 375.526 306.839 376.667 307.448 377.466C308.058 378.265 308.863 378.67 309.865 378.68C311.026 378.693 312.054 378.24 312.948 377.322C313.843 376.404 314.526 375.24 314.999 373.828C315.471 372.417 315.716 371.049 315.729 369.726C315.736 369.071 315.666 368.478 315.517 367.952C315.368 367.424 315.144 366.961 314.847 366.561C314.548 366.162 314.187 365.859 313.763 365.65C313.338 365.441 312.855 365.333 312.311 365.327C311.223 365.316 310.24 365.728 309.359 366.567C308.479 367.404 307.796 368.498 307.311 369.847C306.825 371.196 306.575 372.593 306.559 374.042Z" fill="white"/>
<path opacity="0.2" d="M243.253 156.497L231.302 132.513L213.252 194.03L269.251 162.9L243.253 156.497Z" fill="#3A7EC1"/>
<path d="M401.53 303.134C400.95 303.134 400.401 302.787 400.169 302.217C399.863 301.465 400.225 300.607 400.977 300.301C401.918 299.918 402.861 299.521 403.778 299.123C404.523 298.799 405.388 299.141 405.711 299.885C406.034 300.63 405.693 301.496 404.95 301.819C404.01 302.227 403.047 302.634 402.083 303.025C401.901 303.098 401.714 303.134 401.53 303.134ZM416.193 296.026C415.683 296.026 415.187 295.759 414.916 295.283C414.514 294.578 414.76 293.68 415.464 293.278C419.286 291.098 422.967 288.706 426.408 286.169C427.061 285.688 427.981 285.827 428.462 286.481C428.944 287.135 428.804 288.055 428.151 288.537C424.618 291.142 420.839 293.596 416.919 295.833C416.689 295.964 416.44 296.026 416.193 296.026ZM437.406 280.325C437.018 280.325 436.632 280.172 436.343 279.87C435.782 279.283 435.804 278.352 436.39 277.791C439.554 274.766 442.504 271.532 445.162 268.175C445.666 267.539 446.591 267.432 447.225 267.936C447.861 268.441 447.968 269.365 447.464 270.002C444.723 273.463 441.68 276.799 438.419 279.916C438.136 280.19 437.771 280.325 437.406 280.325ZM453.751 259.637C453.501 259.637 453.247 259.573 453.015 259.438C452.313 259.03 452.074 258.13 452.482 257.428C454.644 253.698 456.558 249.762 458.169 245.732C458.47 244.977 459.325 244.611 460.079 244.913C460.832 245.214 461.198 246.07 460.897 246.824C459.233 250.987 457.257 255.05 455.024 258.904C454.751 259.373 454.258 259.637 453.751 259.637ZM463.564 235.158C463.448 235.158 463.331 235.144 463.213 235.115C462.425 234.921 461.943 234.125 462.136 233.336C463.155 229.18 463.914 224.862 464.392 220.503C464.481 219.696 465.206 219.113 466.012 219.201C466.819 219.29 467.401 220.015 467.313 220.823C466.821 225.31 466.04 229.756 464.99 234.036C464.825 234.708 464.225 235.158 463.564 235.158ZM466.48 208.924C465.677 208.924 465.021 208.278 465.011 207.472C464.958 203.188 464.653 198.805 464.105 194.443C464.003 193.636 464.575 192.902 465.379 192.8C466.187 192.7 466.918 193.27 467.02 194.075C467.581 198.546 467.893 203.042 467.948 207.435C467.958 208.247 467.308 208.914 466.497 208.924C466.492 208.924 466.486 208.924 466.48 208.924ZM463.223 182.71C462.556 182.71 461.953 182.253 461.793 181.575C460.813 177.375 459.597 173.143 458.185 169C457.923 168.232 458.333 167.396 459.101 167.134C459.87 166.872 460.704 167.282 460.966 168.051C462.411 172.286 463.651 176.612 464.655 180.906C464.84 181.697 464.349 182.487 463.559 182.673C463.446 182.697 463.334 182.71 463.223 182.71ZM454.71 157.695C454.15 157.695 453.616 157.374 453.37 156.83C451.578 152.865 449.577 148.944 447.422 145.173C447.019 144.468 447.262 143.57 447.967 143.166C448.671 142.763 449.569 143.007 449.972 143.713C452.174 147.564 454.217 151.569 456.048 155.618C456.382 156.359 456.053 157.23 455.315 157.565C455.119 157.652 454.912 157.695 454.71 157.695ZM441.589 134.76C441.129 134.76 440.675 134.544 440.389 134.14C437.854 130.558 435.134 127.1 432.308 123.862C431.774 123.25 431.837 122.321 432.447 121.787C433.058 121.254 433.987 121.316 434.52 121.927C437.412 125.241 440.192 128.777 442.785 132.44C443.254 133.103 443.097 134.02 442.435 134.49C442.179 134.673 441.882 134.76 441.589 134.76ZM249.477 132.57C249.167 132.57 248.855 132.472 248.589 132.27C247.942 131.778 247.818 130.856 248.308 130.21C249.662 128.427 252.608 124.743 257.129 120.081C257.695 119.498 258.625 119.485 259.207 120.05C259.788 120.616 259.802 121.547 259.238 122.129C254.824 126.68 251.961 130.259 250.647 131.988C250.359 132.371 249.92 132.57 249.477 132.57ZM424.201 114.885C423.845 114.885 423.489 114.757 423.206 114.497C420.051 111.591 416.657 108.794 413.12 106.182C412.467 105.701 412.328 104.78 412.81 104.126C413.291 103.473 414.211 103.334 414.864 103.816C418.486 106.489 421.962 109.356 425.195 112.334C425.792 112.883 425.831 113.813 425.282 114.412C424.992 114.726 424.597 114.885 424.201 114.885ZM267.836 113.518C267.421 113.518 267.009 113.343 266.718 113.002C266.191 112.385 266.264 111.457 266.881 110.929C270.281 108.022 273.834 105.262 277.439 102.725C278.102 102.259 279.018 102.418 279.486 103.082C279.952 103.746 279.793 104.663 279.129 105.131C275.599 107.614 272.121 110.317 268.791 113.165C268.514 113.402 268.174 113.518 267.836 113.518ZM402.95 99.1864C402.698 99.1864 402.442 99.1217 402.209 98.9842C398.437 96.7747 394.53 94.7627 390.597 93.006C389.857 92.6745 389.524 91.8059 389.854 91.0644C390.184 90.3229 391.054 89.9902 391.794 90.3206C395.824 92.1212 399.827 94.1817 403.692 96.4467C404.392 96.8567 404.628 97.7576 404.218 98.4587C403.946 98.9265 403.454 99.1864 402.95 99.1864ZM289.466 98.334C288.952 98.334 288.453 98.0637 288.183 97.5844C287.785 96.8764 288.036 95.9801 288.743 95.5816C292.661 93.3744 296.694 91.3762 300.731 89.6426C301.476 89.3227 302.341 89.668 302.66 90.4141C302.98 91.1603 302.635 92.0254 301.89 92.3453C297.949 94.0385 294.01 95.9893 290.185 98.1445C289.957 98.2727 289.71 98.334 289.466 98.334ZM378.843 88.4391C378.696 88.4391 378.547 88.4171 378.401 88.3709C374.252 87.0623 369.997 85.9916 365.755 85.1889C364.958 85.0376 364.434 84.2684 364.585 83.4714C364.736 82.6733 365.505 82.149 366.301 82.3003C370.657 83.1249 375.025 84.2233 379.285 85.5666C380.059 85.8103 380.488 86.6361 380.245 87.4111C380.045 88.0371 379.467 88.4391 378.843 88.4391ZM313.728 87.9436C313.096 87.9436 312.512 87.5324 312.322 86.8949C312.089 86.1175 312.529 85.2975 313.307 85.0642C317.589 83.7798 321.971 82.7438 326.335 81.9849C327.133 81.8463 327.895 82.3811 328.033 83.1815C328.172 83.9819 327.636 84.7431 326.838 84.8817C322.59 85.6209 318.321 86.6292 314.152 87.8801C314.01 87.924 313.868 87.9436 313.728 87.9436ZM352.924 83.5384C352.891 83.5384 352.857 83.5373 352.824 83.535C351.185 83.4241 349.521 83.3502 347.874 83.3132C347.052 83.2947 346.22 83.2855 345.401 83.2855C345.4 83.2855 345.399 83.2855 345.398 83.2855C343.532 83.2855 341.644 83.334 339.787 83.4299C338.978 83.4714 338.285 82.8477 338.244 82.0369C338.202 81.2261 338.826 80.5343 339.636 80.4927C341.543 80.3945 343.482 80.3448 345.398 80.3448C345.399 80.3448 345.4 80.3448 345.401 80.3448C346.242 80.3448 347.096 80.3541 347.94 80.3737C349.629 80.4118 351.34 80.4881 353.021 80.6024C353.831 80.6567 354.443 81.3578 354.388 82.1686C354.336 82.9436 353.69 83.5384 352.924 83.5384Z" fill="#F9CD5C"/>
<path d="M223.5 329.798C232.613 329.798 240 337.265 240 346.477C240 355.688 232.613 363.155 223.5 363.155C214.387 363.155 207 355.688 207 346.477C207 337.265 214.387 329.798 223.5 329.798Z" fill="#B6CAE5"/>
<path d="M119.5 21C128.613 21 136 28.4672 136 37.6785C136 46.8897 128.613 54.3569 119.5 54.3569C110.387 54.3569 103 46.8897 103 37.6785C103 28.4672 110.387 21 119.5 21Z" fill="#B6CAE5"/>
<path d="M58.5 150.385C67.6127 150.385 75 157.852 75 167.063C75 176.275 67.6127 183.742 58.5 183.742C49.3873 183.742 42 176.275 42 167.063C42 157.852 49.3873 150.385 58.5 150.385Z" fill="#52D1BC"/>
<path d="M301.5 44.2488C306.747 44.2488 311 48.548 311 53.8514C311 59.1548 306.747 63.4541 301.5 63.4541C296.253 63.4541 292 59.1548 292 53.8514C292 48.548 296.253 44.2488 301.5 44.2488Z" fill="#B6CAE5"/>
<path d="M445.5 181.72C450.747 181.72 455 186.019 455 191.323C455 196.626 450.747 200.926 445.5 200.926C440.253 200.926 436 196.626 436 191.323C436 186.019 440.253 181.72 445.5 181.72Z" fill="#52D1BC"/>
<path d="M160 45.2595C164.971 45.2595 169 49.3325 169 54.3568C169 59.3811 164.971 63.4541 160 63.4541C155.029 63.4541 151 59.3811 151 54.3568C151 49.3325 155.029 45.2595 160 45.2595Z" fill="#52D1BC"/>
</svg>
