<svg width="58" height="26" viewBox="0 0 58 26" fill="none" xmlns="http://www.w3.org/2000/svg">
<path d="M52.583 9.41232C51.4252 9.41232 51.546 10.9253 51.498 12.5405H53.4271C53.4271 10.7199 53.4271 9.41232 52.583 9.41232ZM51.498 15.1816C51.498 16.643 52.1731 16.925 53.3066 16.925C54.609 16.925 56.3692 16.5145 57.0446 16.3864V19.9251C56.5142 20.1303 54.8984 20.617 53.3066 20.617C50.4367 20.617 46.9394 20.1299 46.9394 13.6173C46.9394 7.87368 49.6889 6.51476 52.5828 6.51476C55.5494 6.51476 57.6956 8.13014 57.6956 13.566V15.1816H51.498ZM40.1852 10.1045C39.9202 10.1045 39.3895 10.3353 39.1002 10.5151V17.0787C39.317 17.156 39.703 17.2072 39.8719 17.2072C40.6679 17.2072 41.1502 16.4892 41.1502 13.4894C41.1499 10.4379 40.9327 10.1045 40.1852 10.1045V10.1045ZM40.7156 20.6173C40.1369 20.6173 39.534 20.4379 39.0999 20.3352V25.2327H34.5177V6.77122H38.2315L38.907 7.61735C39.6063 6.9508 40.5953 6.51476 41.6322 6.51476C43.5131 6.51476 45.7319 7.07875 45.7319 13.4889C45.7319 20.515 42.4039 20.6173 40.7156 20.6173V20.6173ZM30.2964 5.10463C29.0184 5.10463 28.0296 4.00203 28.0296 2.66865C28.0296 1.33526 29.0184 0.232666 30.2964 0.232666C31.5748 0.232666 32.5636 1.33526 32.5636 2.66865C32.5636 4.00203 31.5748 5.10463 30.2964 5.10463ZM28.0055 20.361V6.77122H32.5877V20.361H28.0055ZM25.231 10.5918C24.5074 10.5918 23.9527 10.8996 23.7115 11.0534V20.361H19.1294V6.77122H22.771L23.4462 8.07879C23.7115 7.23266 24.435 6.51462 25.4962 6.51462C26.2197 6.51462 26.702 6.66852 26.9188 6.79662V10.8477C26.4607 10.7199 25.8579 10.5918 25.231 10.5918ZM16.5238 16.9251C16.8131 16.9251 17.8262 16.7715 18.1635 16.7198V20.1814C17.4644 20.3607 15.9207 20.6173 14.9079 20.6173C13.6055 20.6173 11.1698 20.4637 11.1698 16.6944V9.87389H9.48172V6.77122H11.1701L11.7489 3.69436L15.7522 2.66879V6.77136H18.1639L17.5611 9.87403H15.7523V15.8228C15.7521 16.7455 16.0173 16.9251 16.5238 16.9251ZM4.68112 10.6944C4.68112 11.2328 5.01892 11.4123 5.81463 11.7968L6.29707 12.0277C7.43045 12.5662 8.99784 13.438 8.99784 16.0022C8.99784 20.1047 6.1279 20.6174 4.07807 20.6174C2.75163 20.6174 1.35288 20.2841 0.412291 19.9767V16.4637C1.23214 16.6949 2.6553 17.0533 3.2821 17.0533C3.98148 17.0533 4.51208 16.951 4.51208 16.2842C4.51208 15.7714 4.1744 15.5408 3.42686 15.1819L2.84796 14.8998C1.76288 14.3612 0.219238 13.4384 0.219238 10.9511C0.219238 7.30996 2.89613 6.51531 5.13914 6.51531C6.82741 6.51531 7.93677 6.9254 8.51541 7.15633V10.5665C7.84005 10.3359 6.46571 10.0281 5.64573 10.0281C5.09111 10.0278 4.68112 10.1814 4.68112 10.6944V10.6944Z" fill="#359AD5"/>
</svg>
