<svg width="98" height="41" viewBox="0 0 98 41" fill="none" xmlns="http://www.w3.org/2000/svg">
<path d="M89.2826 15.0553C87.3086 15.0553 87.5146 17.536 87.4327 20.1844H90.7219C90.7219 17.1992 90.7219 15.0553 89.2826 15.0553ZM87.4327 24.5148C87.4327 26.9108 88.5838 27.3732 90.5165 27.3732C92.7372 27.3732 95.7384 26.7001 96.8899 26.4901V32.2922C95.9857 32.6288 93.2306 33.4268 90.5165 33.4268C85.6231 33.4268 79.6601 32.6281 79.6601 21.9499C79.6601 12.5325 84.3481 10.3044 89.2824 10.3044C94.3405 10.3044 98 12.953 98 21.8657V24.5148H87.4327ZM68.1438 16.1903C67.692 16.1903 66.7871 16.5687 66.2939 16.8634V27.6253C66.6636 27.752 67.3217 27.836 67.6097 27.836C68.9669 27.836 69.7892 26.6587 69.7892 21.7401C69.7888 16.7369 69.4184 16.1903 68.1438 16.1903ZM69.0483 33.4272C68.0615 33.4272 67.0335 33.133 66.2935 32.9646V40.9947H58.4806V10.7249H64.8128L65.9645 12.1122C67.1568 11.0193 68.8431 10.3044 70.6111 10.3044C73.8182 10.3044 77.6012 11.2291 77.6012 21.7394C77.6012 33.2595 71.9269 33.4272 69.0483 33.4272ZM51.283 7.99232C49.104 7.99232 47.4181 6.18448 47.4181 3.99824C47.4181 1.81199 49.104 0.00415039 51.283 0.00415039C53.4628 0.00415039 55.1486 1.81199 55.1486 3.99824C55.1486 6.18448 53.4628 7.99232 51.283 7.99232ZM47.3769 33.007V10.7249H55.1898V33.007H47.3769ZM42.6462 16.9892C41.4126 16.9892 40.4667 17.4939 40.0554 17.746V33.007H32.2427V10.7249H38.4519L39.6032 12.8688C40.0554 11.4815 41.2891 10.3042 43.0984 10.3042C44.3321 10.3042 45.1544 10.5565 45.5241 10.7665V17.4088C44.7429 17.1992 43.7152 16.9892 42.6462 16.9892ZM27.8 27.3734C28.2934 27.3734 30.0207 27.1215 30.5958 27.0369V32.7125C29.4038 33.0065 26.7718 33.4272 25.045 33.4272C22.8243 33.4272 18.6713 33.1753 18.6713 26.9952V15.8121H15.793V10.7249H18.6718L19.6586 5.68002L26.4845 3.99846V10.7251H30.5965L29.5687 15.8123H26.4847V25.566C26.4842 27.079 26.9365 27.3734 27.8 27.3734ZM7.60774 17.1574C7.60774 18.0402 8.18372 18.3344 9.54044 18.965L10.363 19.3436C12.2955 20.2265 14.968 21.6559 14.968 25.8602C14.968 32.5867 10.0746 33.4275 6.57952 33.4275C4.31788 33.4275 1.93295 32.8809 0.329194 32.3769V26.6168C1.72708 26.9959 4.15364 27.5837 5.22236 27.5837C6.41483 27.5837 7.31953 27.416 7.31953 26.3226C7.31953 25.4818 6.74377 25.1037 5.46918 24.5152L4.48213 24.0526C2.63201 23.1695 3.05176e-05 21.6566 3.05176e-05 17.5783C3.05176e-05 11.6082 4.56426 10.3053 8.3887 10.3053C11.2673 10.3053 13.1588 10.9777 14.1454 11.3563V16.9478C12.9939 16.5696 10.6506 16.0649 9.25245 16.0649C8.3068 16.0645 7.60774 16.3164 7.60774 17.1574Z" fill="#359AD5"/>
</svg>
