<svg width="100" height="25" viewBox="0 0 100 25" fill="none" xmlns="http://www.w3.org/2000/svg">
<path d="M20.83 0H4.79241C2.59278 0 0.787109 1.87841 0.787109 4.16667V20.8333C0.787109 23.1216 2.59278 25 4.79241 25H20.8136C23.0133 25 24.8189 23.1216 24.8189 20.8333V4.16667C24.8353 1.86134 23.0297 0 20.83 0ZM20.4525 19.1257C20.4525 19.86 19.878 20.4406 19.1721 20.4406H6.43393C5.72808 20.4406 5.15355 19.8429 5.15355 19.1257V5.85724C5.15355 5.12295 5.72808 4.52527 6.43393 4.52527H19.1885C19.8944 4.52527 20.4689 5.12295 20.4689 5.85724L20.4525 19.1257ZM16.086 15.1469C16.086 15.5567 15.7577 15.8982 15.3638 15.8982H10.2587C9.8647 15.8982 9.5364 15.5567 9.5364 15.1469V9.83607C9.5364 9.42623 9.8647 9.0847 10.2587 9.0847H15.3638C15.7577 9.0847 16.086 9.42623 16.086 9.83607C16.086 9.83607 16.086 15.1469 16.086 15.1469ZM35.9484 20.6967C34.5203 20.6967 33.1578 20.1332 32.1893 19.1257C31.3357 18.2377 30.8433 17.0765 30.8433 15.847H32.2878C32.2878 16.6667 32.6161 17.4522 33.2071 18.0499C33.8965 18.7671 34.8978 19.1769 35.9484 19.1769H35.9648C37.9839 19.1769 39.609 17.7083 39.609 15.9153C39.609 14.5663 38.8867 13.4904 35.3903 12.6537C33.9622 12.3122 33.0101 11.8511 32.3699 11.2193C31.6969 10.5362 31.3522 9.61407 31.3522 8.43579C31.3522 6.07923 33.3712 4.16667 35.8663 4.16667C37.0646 4.16667 38.1809 4.59358 39.0345 5.36202C39.9045 6.16462 40.3969 7.24044 40.3969 8.40164H38.9524C38.9524 6.88183 37.5735 5.65232 35.8663 5.65232C34.192 5.65232 32.7967 6.91598 32.7967 8.41871C32.7967 9.78483 33.2563 10.5874 35.7186 11.1851C38.345 11.8169 41.0371 12.8757 41.0535 15.9153C41.0535 17.2131 40.5118 18.4085 39.5433 19.3135C38.5912 20.2186 37.3109 20.6967 35.9484 20.6967ZM52.9545 24.9658V18.3914H52.9217C51.986 19.8771 50.3773 20.6455 48.6702 20.6455C45.4035 20.6455 42.8099 18.1011 42.8099 14.6687C42.8099 11.2705 45.4692 8.74317 48.6702 8.74317C50.3609 8.74317 51.986 9.51161 52.9217 11.0314H52.9545V9.03347H54.3498V24.9658H52.9545ZM48.6702 10.0581C46.0766 10.0581 44.2052 12.0731 44.2052 14.737C44.2052 17.3839 46.1094 19.3477 48.6702 19.3477C51.1489 19.3477 53.0366 17.2473 53.0366 14.7199C53.0366 12.1926 51.1324 10.0581 48.6702 10.0581ZM78.6607 20.3893V18.3914H78.6278C77.6758 19.8771 76.0835 20.6455 74.3763 20.6455C71.1097 20.6455 68.5161 18.1011 68.5161 14.6687C68.5161 11.2705 71.1589 8.74317 74.3763 8.74317C76.0835 8.74317 77.6922 9.49454 78.6278 11.0314H78.6607V9.03347H80.056V20.3723H78.6607V20.3893ZM74.3599 10.0581C71.7663 10.0581 69.895 12.0731 69.895 14.737C69.895 17.3839 71.8156 19.3477 74.3599 19.3477C76.8386 19.3477 78.7263 17.2473 78.7263 14.7199C78.7263 12.1926 76.8386 10.0581 74.3599 10.0581ZM84.2254 13.7466V20.3893H82.8301V9.05055H84.2254V10.6899H84.2583C84.8656 9.23839 85.9162 8.8627 87.3279 8.76024V10.2971C85.4237 10.4508 84.2254 11.7145 84.2254 13.7466ZM99.2617 15.2493H89.3305C89.429 17.4863 91.4317 19.3477 93.5657 19.3477C95.24 19.3477 96.8815 18.3572 97.4725 16.6667H98.9498C98.1619 19.0232 95.9951 20.6455 93.5821 20.6455C90.4304 20.6455 87.9024 17.9645 87.9024 14.7199C87.9024 11.4925 90.4304 8.74317 93.5657 8.74317C96.7502 8.74317 99.2946 11.5437 99.2946 14.8224C99.2781 14.9761 99.2617 15.0956 99.2617 15.2493ZM93.5821 10.0581C91.4153 10.0581 89.6753 11.7145 89.3305 13.9344H97.85C97.4889 11.7145 95.7817 10.0581 93.5821 10.0581ZM65.1674 20.4064V18.6305H65.1346C64.4944 20.0307 63.0663 20.6796 61.6217 20.6796C60.1936 20.6796 58.7655 20.1674 57.8627 18.972C57.0747 17.9474 56.9106 16.5813 56.9106 15.3005V8.99932H58.3059V15.2835C58.3059 17.64 59.1266 19.3648 61.6381 19.3648C62.5574 19.3648 63.2797 19.1086 63.9691 18.4426C64.9376 17.4863 65.1182 16.3593 65.1182 15.0273V8.99932H66.5135V20.4064H65.1674Z" fill="#242627"/>
</svg>
