<svg width="210" height="52" viewBox="0 0 210 52" fill="none" xmlns="http://www.w3.org/2000/svg">
<path d="M42.5448 0.73291H8.50198C3.83286 0.73291 0 4.56719 0 9.23804V43.2585C0 47.9294 3.83286 51.7637 8.50198 51.7637H42.5099C47.179 51.7637 51.0119 47.9294 51.0119 43.2585V9.23804C51.0467 4.53233 47.2139 0.73291 42.5448 0.73291ZM41.7433 39.7728C41.7433 41.2717 40.5238 42.4568 39.0255 42.4568H11.9864C10.4881 42.4568 9.26856 41.2368 9.26856 39.7728V12.6889C9.26856 11.19 10.4881 9.97004 11.9864 9.97004H39.0603C40.5586 9.97004 41.7782 11.19 41.7782 12.6889L41.7433 39.7728ZM32.4748 31.6511C32.4748 32.4877 31.7779 33.1849 30.9416 33.1849H20.1051C19.2688 33.1849 18.572 32.4877 18.572 31.6511V20.8106C18.572 19.974 19.2688 19.2769 20.1051 19.2769H30.9416C31.7779 19.2769 32.4748 19.974 32.4748 20.8106V31.6511ZM74.6363 42.9797C71.6048 42.9797 68.7128 41.8294 66.6569 39.7728C64.845 37.9603 63.7997 35.59 63.7997 33.0803H66.866C66.866 34.7534 67.5629 36.3568 68.8173 37.5768C70.2807 39.0408 72.4062 39.8774 74.6363 39.8774H74.6711C78.9569 39.8774 82.4065 36.8797 82.4065 33.2197C82.4065 30.466 80.8734 28.27 73.4516 26.562C70.4201 25.8649 68.3992 24.9237 67.0402 23.634C65.6116 22.2397 64.8799 20.3574 64.8799 17.9523C64.8799 13.142 69.1657 9.23804 74.462 9.23804C77.0057 9.23804 79.3751 10.1095 81.187 11.678C83.0337 13.3163 84.079 15.5123 84.079 17.8826H81.0128C81.0128 14.7803 78.0858 12.2706 74.462 12.2706C70.9079 12.2706 67.9462 14.85 67.9462 17.9174C67.9462 20.706 68.9218 22.3443 74.1484 23.5643C79.7235 24.854 85.438 27.0152 85.4728 33.2197C85.4728 35.8689 84.323 38.3088 82.2672 40.1563C80.2462 42.0037 77.5283 42.9797 74.6363 42.9797ZM110.735 51.694V38.274H110.665C108.679 41.3066 105.264 42.8751 101.641 42.8751C94.7065 42.8751 89.2011 37.6814 89.2011 30.6751C89.2011 23.7386 94.8459 18.5797 101.641 18.5797C105.229 18.5797 108.679 20.1483 110.665 23.2506H110.735V19.1723H113.697V51.694H110.735ZM101.641 21.2637C96.1351 21.2637 92.1629 25.3769 92.1629 30.8146C92.1629 36.2174 96.2048 40.226 101.641 40.226C106.902 40.226 110.909 35.9386 110.909 30.7797C110.909 25.6209 106.867 21.2637 101.641 21.2637ZM165.301 42.3523V38.274H165.231C163.21 41.3066 159.83 42.8751 156.207 42.8751C149.273 42.8751 143.767 37.6814 143.767 30.6751C143.767 23.7386 149.377 18.5797 156.207 18.5797C159.83 18.5797 163.245 20.1134 165.231 23.2506H165.301V19.1723H168.263V42.3174H165.301V42.3523ZM156.172 21.2637C150.666 21.2637 146.694 25.3769 146.694 30.8146C146.694 36.2174 150.771 40.226 156.172 40.226C161.433 40.226 165.44 35.9386 165.44 30.7797C165.44 25.6209 161.433 21.2637 156.172 21.2637ZM177.113 28.7929V42.3523H174.151V19.2072H177.113V22.5534H177.183C178.472 19.5906 180.702 18.8237 183.699 18.6146V21.7517C179.657 22.0654 177.113 24.6449 177.113 28.7929ZM209.03 31.8603H187.95C188.159 36.4266 192.41 40.226 196.939 40.226C200.493 40.226 203.978 38.2043 205.232 34.7534H208.368C206.696 39.5637 202.096 42.8751 196.974 42.8751C190.284 42.8751 184.918 37.4026 184.918 30.7797C184.918 24.1917 190.284 18.5797 196.939 18.5797C203.699 18.5797 209.1 24.2963 209.1 30.9889C209.065 31.3026 209.03 31.5466 209.03 31.8603ZM196.974 21.2637C192.375 21.2637 188.681 24.6449 187.95 29.1763H206.034C205.267 24.6449 201.643 21.2637 196.974 21.2637ZM136.659 42.3871V38.762H136.589C135.23 41.6203 132.199 42.9448 129.133 42.9448C126.101 42.9448 123.07 41.8991 121.153 39.4591C119.481 37.3677 119.132 34.5791 119.132 31.9649V19.1026H122.094V31.93C122.094 36.7403 123.836 40.2608 129.167 40.2608C131.119 40.2608 132.652 39.738 134.115 38.3786C136.171 36.4266 136.554 34.126 136.554 31.4071V19.1026H139.516V42.3871H136.659Z" fill="#242627"/>
</svg>
