<svg width="195" height="111" viewBox="0 0 195 111" fill="none" xmlns="http://www.w3.org/2000/svg">
<g filter="url(#filter0_d)">
<path d="M16 26C16 20.4772 20.4772 16 26 16H169C174.523 16 179 20.4772 179 26V85C179 90.5229 174.523 95 169 95H26C20.4772 95 16 90.5229 16 85V26Z" fill="white"/>
</g>
<path fill-rule="evenodd" clip-rule="evenodd" d="M120 59C120 72.8071 108.807 84 94.9995 84C84.3946 84 75.3319 77.3968 71.6986 68.0776L68.2033 67.1473C71.6924 78.6375 82.3694 87 94.9995 87C110.464 87 123 74.464 123 59C123 43.536 110.464 31 94.9995 31C81.412 31 70.085 40.6783 67.5361 53.5172L70.4424 54.2907C72.6452 42.735 82.8023 34 94.9995 34C108.807 34 120 45.1929 120 59Z" fill="#2C3647"/>
<path d="M68.5989 61.1863L73.7363 68.1581L65.1298 69.1214L68.5989 61.1863Z" fill="#2C3647"/>
<path d="M95 53.5V32L100.5 32.5L105.5 34L111 37L114 40L118.5 45.5L121.5 53L122 58H99C98.8333 57.3333 98.3 55.8 97.5 55C96.7 54.2 95.5 53.6667 95 53.5Z" fill="#2C3647"/>
<circle cx="95" cy="58" r="2" fill="#2C3647"/>
<rect x="84" y="39.54" width="2" height="6" transform="rotate(-32.6789 84 39.54)" fill="#2C3647"/>
<rect width="2" height="6" transform="matrix(0.87879 0.477208 0.477208 -0.87879 84.1533 77.1479)" fill="#2C3647"/>
<rect x="105.742" y="77.1479" width="2" height="6" transform="rotate(151.497 105.742 77.1479)" fill="#2C3647"/>
<rect x="77.2295" y="46.6343" width="2" height="6" transform="rotate(-58.1006 77.2295 46.6343)" fill="#2C3647"/>
<rect width="2" height="6" transform="matrix(0.588846 0.808245 0.808245 -0.588846 76.8848 69.5654)" fill="#2C3647"/>
<rect x="113.011" y="69.5654" width="2" height="6" transform="rotate(126.075 113.011 69.5654)" fill="#2C3647"/>
<defs>
<filter id="filter0_d" x="0" y="0" width="195" height="111" filterUnits="userSpaceOnUse" color-interpolation-filters="sRGB">
<feFlood flood-opacity="0" result="BackgroundImageFix"/>
<feColorMatrix in="SourceAlpha" type="matrix" values="0 0 0 0 0 0 0 0 0 0 0 0 0 0 0 0 0 0 127 0"/>
<feOffset/>
<feGaussianBlur stdDeviation="8"/>
<feColorMatrix type="matrix" values="0 0 0 0 0.72549 0 0 0 0 0.764706 0 0 0 0 0.835294 0 0 0 0.8 0"/>
<feBlend mode="normal" in2="BackgroundImageFix" result="effect1_dropShadow"/>
<feBlend mode="normal" in="SourceGraphic" in2="effect1_dropShadow" result="shape"/>
</filter>
</defs>
</svg>
