<svg width="68" height="53" viewBox="0 0 68 53" fill="none" xmlns="http://www.w3.org/2000/svg">
<path d="M24.9797 20.2491L11.0177 9.9854C9.55551 8.91048 9.37509 6.79352 10.6343 5.48665L11.0316 5.0743C11.8807 4.19309 13.18 3.91593 14.3148 4.37393L37.5225 13.7405" stroke="#58A086" stroke-width="2"/>
<path d="M7.55868 29.6504L2 26.9833L6.18095 21.1979L17.3142 24.5882" stroke="#58A086" stroke-width="2"/>
<path d="M6.69556 32.1069L7.04056 30.3167L57.9219 3.27084C59.889 2.22519 62.2829 3.01105 63.2466 5.01884L63.9291 6.44093C65.1518 8.98837 64.053 12.1041 61.5042 13.3175L8.66829 38.4703L7.42076 36.2658C7.19472 35.8664 7.02415 35.4359 6.91387 34.9867L6.74922 34.316C6.57238 33.5956 6.55405 32.8412 6.69556 32.1069Z" stroke="#1A4043" stroke-width="2"/>
<path d="M30.2282 24.2991L28.646 47.2488C28.5476 48.6774 29.6467 49.8994 31.0301 49.8994V49.8994C32.0041 49.8993 32.874 49.2823 33.2235 48.3435L44.4904 18.0795" stroke="#58A086" stroke-width="2"/>
</svg>
