<svg width="68" height="53" viewBox="0 0 68 53" fill="none" xmlns="http://www.w3.org/2000/svg">
<path d="M24.9797 20.2491L11.0177 9.98537C9.55551 8.91045 9.37509 6.79349 10.6343 5.48662L11.0316 5.07427C11.8807 4.19306 13.18 3.9159 14.3148 4.3739L37.5225 13.7405" stroke="#FF9680" stroke-width="2"/>
<path d="M7.55868 29.6505L2 26.9834L6.18095 21.198L17.3142 24.5883" stroke="#F7D9A9" stroke-width="2"/>
<path d="M6.69556 32.1069L7.04056 30.3167L57.9219 3.27084C59.889 2.22519 62.2829 3.01105 63.2466 5.01884L63.9291 6.44093C65.1518 8.98837 64.053 12.1041 61.5042 13.3175L8.66829 38.4703L7.42076 36.2658C7.19472 35.8664 7.02415 35.4359 6.91387 34.9867L6.74922 34.316C6.57238 33.5956 6.55405 32.8412 6.69556 32.1069Z" stroke="#1A4043" stroke-width="2"/>
<path d="M30.2282 24.2992L28.646 47.2489C28.5476 48.6774 29.6467 49.8994 31.0301 49.8994V49.8994C32.0041 49.8994 32.874 49.2823 33.2235 48.3436L44.4904 18.0796" stroke="#FF9680" stroke-width="2"/>
</svg>
