<svg width="54" height="52" viewBox="0 0 54 52" fill="none" xmlns="http://www.w3.org/2000/svg">
<path d="M7.00962 33.393L6.02293 33.5512L7.00962 33.393ZM38.3488 46.54L38.9291 47.3556L38.3488 46.54ZM50.2347 38.9452C50.3259 38.4004 49.9585 37.8841 49.4141 37.7919L40.542 36.2898C39.9976 36.1976 39.4823 36.5645 39.3911 37.1093C39.2999 37.6541 39.6673 38.1705 40.2117 38.2627L48.098 39.5979L46.7767 47.4896C46.6855 48.0344 47.0529 48.5507 47.5973 48.6429C48.1417 48.7351 48.657 48.3682 48.7482 47.8234L50.2347 38.9452ZM4.95569 26.9463L6.02293 33.5512L7.99632 33.2348L6.92908 26.6299L4.95569 26.9463ZM38.9291 47.3556L49.8292 39.5939L48.6686 37.9628L37.7685 45.7245L38.9291 47.3556ZM6.02293 33.5512C8.50808 48.9312 26.2588 56.3778 38.9291 47.3556L37.7685 45.7245C26.305 53.8874 10.2448 47.15 7.99632 33.2348L6.02293 33.5512Z" fill="#1A4043"/>
<path d="M49.0612 18.607L50.0479 18.4488L49.0612 18.607ZM17.722 5.46002L17.1417 4.64447L17.722 5.46002ZM5.83611 13.0548C5.74489 13.5996 6.11229 14.116 6.65673 14.2082L15.5288 15.7103C16.0732 15.8025 16.5885 15.4355 16.6797 14.8907C16.7709 14.3459 16.4035 13.8295 15.8591 13.7374L7.97283 12.4022L9.29412 4.5105C9.38534 3.96569 9.01794 3.44931 8.47351 3.35714C7.92907 3.26496 7.41378 3.63189 7.32256 4.1767L5.83611 13.0548ZM51.1151 25.0537L50.0479 18.4488L48.0745 18.7652L49.1417 25.3701L51.1151 25.0537ZM17.1417 4.64447L6.24162 12.4062L7.40215 14.0373L18.3023 6.27557L17.1417 4.64447ZM50.0479 18.4488C47.5627 3.06889 29.812 -4.37769 17.1417 4.64447L18.3023 6.27557C29.7658 -1.88734 45.826 4.85004 48.0745 18.7652L50.0479 18.4488Z" fill="#58A086"/>
<path d="M12.6626 23.7906L27.5959 32.7832L51.4891 3.55713" stroke="#58A086" stroke-width="2"/>
</svg>
