<svg width="65" height="55" viewBox="0 0 65 55" fill="none" xmlns="http://www.w3.org/2000/svg">
<path d="M10.8261 42.2133V21.4133H5.43945L30.3529 2L55.2664 21.4133H49.8797V42.2133" stroke="#1A4043" stroke-width="2"/>
<path d="M43.1465 11.7066V7.54663H49.8799V17.2533" stroke="#1A4043" stroke-width="2"/>
<path d="M16.2129 21.4134L30.353 10.3201L44.493 21.4134" stroke="#FF9680" stroke-width="2"/>
<path d="M25.6396 46.3733V37.2199C25.6396 34.6168 27.7499 32.5066 30.353 32.5066V32.5066C32.9561 32.5066 35.0664 34.6168 35.0664 37.2199V44.2933" stroke="#FF9680" stroke-width="2"/>
<path d="M1.39941 43.6001L5.45203 45.6866C7.1387 46.555 9.13669 46.5745 10.84 45.7393L12.8606 44.7485C14.3545 44.016 16.0856 43.9367 17.6402 44.5296L22.1931 46.266C23.547 46.7823 25.0421 46.7913 26.402 46.2911L31.5694 44.3908C32.9541 43.8816 34.4779 43.9004 35.8496 44.4437L40.2637 46.1918C41.6829 46.7539 43.263 46.7539 44.6822 46.1918L48.8188 44.5536C50.3554 43.945 52.0748 43.9972 53.5716 44.6978L58.633 47.0668" stroke="#F7D9A9" stroke-width="2"/>
<path d="M6.78613 50.5334L10.8388 52.6199C12.5254 53.4883 14.5234 53.5079 16.2267 52.6727L18.2473 51.6819C19.7413 50.9494 21.4723 50.8701 23.0269 51.463L27.5798 53.1993C28.9337 53.7157 30.4288 53.7246 31.7887 53.2245L36.9561 51.3242C38.3408 50.815 39.8646 50.8338 41.2363 51.377L45.6504 53.1252C47.0696 53.6872 48.6497 53.6872 50.069 53.1252L54.2056 51.4869C55.7421 50.8784 57.4615 50.9306 58.9583 51.6311L64.0198 54.0001" stroke="#F7D9A9" stroke-width="2"/>
</svg>
