<svg width="65" height="55" viewBox="0 0 65 55" fill="none" xmlns="http://www.w3.org/2000/svg">
<path d="M10.8261 42.2133V21.4133H5.43945L30.3529 2L55.2664 21.4133H49.8797V42.2133" stroke="#1A4043" stroke-width="2"/>
<path d="M43.1465 11.7067V7.54666H49.8799V17.2533" stroke="#1A4043" stroke-width="2"/>
<path d="M16.2129 21.4133L30.353 10.32L44.493 21.4133" stroke="#58A086" stroke-width="2"/>
<path d="M25.6396 46.3733V37.22C25.6396 34.6169 27.7499 32.5067 30.353 32.5067V32.5067C32.9561 32.5067 35.0664 34.6169 35.0664 37.22V44.2933" stroke="#58A086" stroke-width="2"/>
<path d="M1.39941 43.6L5.45203 45.6865C7.1387 46.5549 9.13669 46.5744 10.84 45.7392L12.8606 44.7485C14.3545 44.016 16.0856 43.9367 17.6402 44.5296L22.1931 46.2659C23.547 46.7822 25.0421 46.7912 26.402 46.291L31.5694 44.3907C32.9541 43.8815 34.4779 43.9003 35.8496 44.4436L40.2637 46.1917C41.6829 46.7538 43.263 46.7538 44.6822 46.1917L48.8188 44.5535C50.3554 43.945 52.0748 43.9971 53.5716 44.6977L58.633 47.0667" stroke="#58A086" stroke-width="2"/>
<path d="M6.78613 50.5333L10.8388 52.6198C12.5254 53.4882 14.5234 53.5078 16.2267 52.6726L18.2473 51.6818C19.7413 50.9493 21.4723 50.87 23.0269 51.4629L27.5798 53.1992C28.9337 53.7156 30.4288 53.7245 31.7887 53.2244L36.9561 51.3241C38.3408 50.8148 39.8646 50.8337 41.2363 51.3769L45.6504 53.1251C47.0696 53.6871 48.6497 53.6871 50.069 53.1251L54.2056 51.4868C55.7421 50.8783 57.4615 50.9305 58.9583 51.631L64.0198 54" stroke="#58A086" stroke-width="2"/>
</svg>
