<svg width="52" height="55" viewBox="0 0 52 55" fill="none" xmlns="http://www.w3.org/2000/svg">
<path d="M21 2L18 3.04082V8.24489L14 10.8469L9.5 8.24489L7.5 10.3265L10 15.0102L7.5 19.1734H2.5L1.5 22.2959L5.5 24.8979V30.102L1.5 32.704L2.5 35.8265H7L9.5 40.5102L7 44.6734L9.5 47.2755L13.5 44.6734L18 47.7959V51.9591L21.5 52.9999L23.5 49.3571H28.5L31 52.9999L34 51.9591V48.3163L39 45.1938L42.5 46.7551L44.5 44.6734L42.5 41.0306L45.5 35.8265H49.5L50.5 32.704L46.5 30.102V24.8979L50.5 22.2959L49.5 19.1734H45L42.5 14.4898L44.5 10.3265L42.5 8.24489L38 10.3265L34 8.24489V3.04082L31 2L28 6.68367H24L21 2Z" stroke="#1A4043" stroke-width="2"/>
<path d="M39 27.4999C39 35.0332 33.1424 41.0713 26 41.0713C18.8576 41.0713 13 35.0332 13 27.4999C13 19.9665 18.8576 13.9285 26 13.9285C33.1424 13.9285 39 19.9665 39 27.4999Z" stroke="#F7D9A9" stroke-width="2"/>
<path d="M34 27.4999C34 32.1591 30.381 35.8672 26 35.8672C21.619 35.8672 18 32.1591 18 27.4999C18 22.8407 21.619 19.1326 26 19.1326C30.381 19.1326 34 22.8407 34 27.4999Z" stroke="#FF9680" stroke-width="2"/>
</svg>
