<svg width="52" height="55" viewBox="0 0 52 55" fill="none" xmlns="http://www.w3.org/2000/svg">
<path d="M21 2.00006L18 3.04088V8.24495L14 10.847L9.5 8.24495L7.5 10.3266L10 15.0103L7.5 19.1735H2.5L1.5 22.296L5.5 24.898V30.1021L1.5 32.7041L2.5 35.8266H7L9.5 40.5102L7 44.6735L9.5 47.2755L13.5 44.6735L18 47.7959V51.9592L21.5 53L23.5 49.3571H28.5L31 53L34 51.9592V48.3163L39 45.1939L42.5 46.7551L44.5 44.6735L42.5 41.0306L45.5 35.8266H49.5L50.5 32.7041L46.5 30.1021V24.898L50.5 22.296L49.5 19.1735H45L42.5 14.4898L44.5 10.3266L42.5 8.24495L38 10.3266L34 8.24495V3.04088L31 2.00006L28 6.68373H24L21 2.00006Z" stroke="#1A4043" stroke-width="2"/>
<path d="M39 27.5C39 35.0334 33.1424 41.0714 26 41.0714C18.8576 41.0714 13 35.0334 13 27.5C13 19.9667 18.8576 13.9286 26 13.9286C33.1424 13.9286 39 19.9667 39 27.5Z" stroke="#58A086" stroke-width="2"/>
<path d="M34 27.5C34 32.1593 30.381 35.8674 26 35.8674C21.619 35.8674 18 32.1593 18 27.5C18 22.8408 21.619 19.1327 26 19.1327C30.381 19.1327 34 22.8408 34 27.5Z" stroke="#58A086" stroke-width="2"/>
</svg>
