<svg width="54" height="54" viewBox="0 0 54 54" fill="none" xmlns="http://www.w3.org/2000/svg">
<path d="M8.27344 18.9565V23.4783H46.728V18.9565" stroke="#FF9680" stroke-width="2"/>
<path d="M34.6527 6.52173L51.0005 18.9565H44.8701M31.5874 4.26086L28.0114 2L4.00049 18.9565H10.6418M10.6418 18.9565L28.0114 6.52173L44.8701 18.9565M10.6418 18.9565H44.8701" stroke="#1A4043" stroke-width="2"/>
<path d="M9.34171 24.6086V26.8695H11.4781V36.4782M11.4781 40.4347V42.6956L8.80762 44.9564M8.80762 44.9564H16.819M8.80762 44.9564V48.3477M16.819 44.9564V48.3477M16.819 44.9564L14.6826 42.6956V26.8695H16.819V24.6086" stroke="#F7D9A9"/>
<path d="M38.7167 24.6086V26.8695H40.8531V40.4347V42.6956L38.1826 44.9564M38.1826 44.9564H46.194M38.1826 44.9564V48.3477M46.194 44.9564V48.3477M46.194 44.9564L44.0576 42.6956V26.8695H46.194V24.6086" stroke="#F7D9A9"/>
<path d="M23.7616 24.6086V26.8695H25.898V40.4347V42.6956L23.2275 44.9564M23.2275 44.9564H31.2389M23.2275 44.9564V48.3477M31.2389 44.9564V48.3477M31.2389 44.9564L29.1025 42.6956V26.8695H31.2389V24.6086" stroke="#F7D9A9"/>
<rect x="5.00049" y="48.2173" width="45" height="4.78259" stroke="#1A4043" stroke-width="2"/>
</svg>
