<svg width="54" height="54" viewBox="0 0 54 54" fill="none" xmlns="http://www.w3.org/2000/svg">
<path d="M8.27295 18.9566V23.4783H46.7275V18.9566" stroke="#58A086" stroke-width="2"/>
<path d="M34.6524 6.52185L51.0002 18.9566H44.8698M31.5872 4.26099L28.0111 2.00012L4.00024 18.9566H10.6415M10.6415 18.9566L28.0111 6.52185L44.8698 18.9566M10.6415 18.9566H44.8698" stroke="#1A4043" stroke-width="2"/>
<path d="M9.34122 24.6088V26.8696H11.4776V36.4783M11.4776 40.4348V42.6957L8.80713 44.9565M8.80713 44.9565H16.8185M8.80713 44.9565V48.3478M16.8185 44.9565V48.3478M16.8185 44.9565L14.6821 42.6957V26.8696H16.8185V24.6088" stroke="#58A086"/>
<path d="M38.7162 24.6088V26.8696H40.8526V40.4348V42.6957L38.1821 44.9565M38.1821 44.9565H46.1935M38.1821 44.9565V48.3478M46.1935 44.9565V48.3478M46.1935 44.9565L44.0571 42.6957V26.8696H46.1935V24.6088" stroke="#58A086"/>
<path d="M23.7616 24.6088V26.8696H25.898V40.4348V42.6957L23.2275 44.9565M23.2275 44.9565H31.2389M23.2275 44.9565V48.3478M31.2389 44.9565V48.3478M31.2389 44.9565L29.1025 42.6957V26.8696H31.2389V24.6088" stroke="#58A086"/>
<rect x="5.00024" y="48.2174" width="45" height="4.78259" stroke="#1A4043" stroke-width="2"/>
</svg>
