<svg width="45" height="51" viewBox="0 0 45 51" fill="none" xmlns="http://www.w3.org/2000/svg">
<path d="M31.0005 21.6521V3C31.0005 1.89543 30.1051 1 29.0005 1H3.00049C1.89592 1 1.00049 1.89543 1.00049 3V46.826C1.00049 47.9305 1.89592 48.826 3.00049 48.826H26.5005" stroke="#1A4043" stroke-width="2"/>
<path d="M10.0005 10.7825H23.0005" stroke="#F7D9A9" stroke-width="2"/>
<path d="M10.0005 19.4783H23.0005" stroke="#F7D9A9" stroke-width="2"/>
<path d="M10.0005 28.1738H15.0005" stroke="#F7D9A9" stroke-width="2"/>
<path d="M44.0005 36.326C44.0005 43.958 38.3272 49.9999 31.5005 49.9999C24.6738 49.9999 19.0005 43.958 19.0005 36.326C19.0005 28.694 24.6738 22.6521 31.5005 22.6521C38.3272 22.6521 44.0005 28.694 44.0005 36.326Z" stroke="#1A4043" stroke-width="2"/>
<ellipse cx="27.5005" cy="31.9781" rx="1.5" ry="1.63043" fill="#FF9680"/>
<ellipse cx="35.5005" cy="39.587" rx="1.5" ry="1.63043" fill="#FF9680"/>
<path d="M27.0005 41.2174L36.0005 31.4348" stroke="#FF9680" stroke-width="2"/>
</svg>
