<svg width="45" height="51" viewBox="0 0 45 51" fill="none" xmlns="http://www.w3.org/2000/svg">
<path d="M31.0002 21.6522V3.00012C31.0002 1.89556 30.1048 1.00012 29.0002 1.00012H3.00024C1.89567 1.00012 1.00024 1.89555 1.00024 3.00012V46.8261C1.00024 47.9307 1.89567 48.8261 3.00024 48.8261H26.5002" stroke="#1A4043" stroke-width="2"/>
<path d="M10.0002 10.7827H23.0002" stroke="#58A086" stroke-width="2"/>
<path d="M10.0002 19.4783H23.0002" stroke="#58A086" stroke-width="2"/>
<path d="M10.0002 28.174H15.0002" stroke="#58A086" stroke-width="2"/>
<path d="M44.0002 36.3261C44.0002 43.9581 38.3269 50 31.5002 50C24.6735 50 19.0002 43.9581 19.0002 36.3261C19.0002 28.6941 24.6735 22.6523 31.5002 22.6523C38.3269 22.6523 44.0002 28.6941 44.0002 36.3261Z" stroke="#1A4043" stroke-width="2"/>
<ellipse cx="27.5002" cy="31.9783" rx="1.5" ry="1.63043" fill="#58A086"/>
<ellipse cx="35.5002" cy="39.587" rx="1.5" ry="1.63043" fill="#58A086"/>
<path d="M27.0002 41.2174L36.0002 31.4348" stroke="#58A086" stroke-width="2"/>
</svg>
