<svg width="62" height="50" viewBox="0 0 62 50" fill="none" xmlns="http://www.w3.org/2000/svg">
<path d="M26.8462 35.4617V18.2309L42.2308 6.53857L57.6154 18.2309V49.0001" stroke="#1A4043" stroke-width="2"/>
<path d="M3.46154 36.6923H1V33L15.7692 20.0769L26.8462 30.5384" stroke="#1A4043" stroke-width="2"/>
<path d="M33 49V33H40.3846V49" stroke="#FF9680"/>
<path d="M33 19.4614V29.3076H40.3846V19.4614H33Z" stroke="#F7D9A9"/>
<path d="M44.0771 19.4614V29.3076H51.4618V19.4614H44.0771Z" stroke="#F7D9A9"/>
<path d="M44.0771 33V42.8462H51.4618V33H44.0771Z" stroke="#F7D9A9"/>
<path d="M33 23.1538H40.3846" stroke="#F7D9A9"/>
<path d="M44.0771 23.1538H51.4618" stroke="#F7D9A9"/>
<path d="M44.0771 36.6924H51.4618" stroke="#F7D9A9"/>
<path d="M26.8463 19.4615H24.3848V14.5385L41.6155 1H42.8463L60.0771 14.5385V19.4615H57.6155" stroke="#1A4043" stroke-width="2"/>
<path d="M9.61523 48.9999V39.1537M20.6922 48.9999V39.1537M9.61523 39.1537V35.4614H20.6922V39.1537M9.61523 39.1537H20.6922" stroke="#F7D9A9"/>
<path d="M9.61523 42.8462H20.6922" stroke="#F7D9A9"/>
<path d="M1 49H3.46154M60.0769 49H26.8462M3.46154 49V35.4616L15.7692 26.8462L26.8462 35.4616V49M3.46154 49H26.8462" stroke="#1A4043" stroke-width="2"/>
</svg>
