<svg width="62" height="50" viewBox="0 0 62 50" fill="none" xmlns="http://www.w3.org/2000/svg">
<path d="M26.8464 35.4615V18.2308L42.2311 6.53845L57.6157 18.2308V49" stroke="#1A4043" stroke-width="2"/>
<path d="M3.46154 36.6924H1V33L15.7692 20.077L26.8462 30.5385" stroke="#1A4043" stroke-width="2"/>
<path d="M33 49V33H40.3846V49" stroke="#58A086"/>
<path d="M33 19.4615V29.3077H40.3846V19.4615H33Z" stroke="#58A086"/>
<path d="M44.0769 19.4615V29.3077H51.4615V19.4615H44.0769Z" stroke="#58A086"/>
<path d="M44.0769 33V42.8462H51.4615V33H44.0769Z" stroke="#58A086"/>
<path d="M33 23.1539H40.3846" stroke="#58A086"/>
<path d="M44.0769 23.1539H51.4615" stroke="#58A086"/>
<path d="M44.0769 36.6923H51.4615" stroke="#58A086"/>
<path d="M26.8461 19.4615H24.3845V14.5385L41.6153 1H42.8461L60.0768 14.5385V19.4615H57.6153" stroke="#1A4043" stroke-width="2"/>
<path d="M9.61548 49V39.1538M20.6924 49V39.1538M9.61548 39.1538V35.4615H20.6924V39.1538M9.61548 39.1538H20.6924" stroke="#58A086"/>
<path d="M9.61548 42.8461H20.6924" stroke="#58A086"/>
<path d="M1 49H3.46154M60.0769 49H26.8462M3.46154 49V35.4615L15.7692 26.8461L26.8462 35.4615V49M3.46154 49H26.8462" stroke="#1A4043" stroke-width="2"/>
</svg>
