<svg width="58" height="53" viewBox="0 0 58 53" fill="none" xmlns="http://www.w3.org/2000/svg">
<rect x="1" y="28.3" width="7.1" height="21.4" rx="1" stroke="#FF9680" stroke-width="2"/>
<path d="M6.41324 0.671845L12.0631 2.21272C12.6259 2.36622 13.2006 2.47254 13.7811 2.53059L17.4752 2.90001C18.7104 3.02353 19.9073 3.39821 20.9925 4.00107C23.4532 5.36816 25.1436 7.7962 25.5717 10.5785L26.1082 14.0661C26.1477 14.3228 26.227 14.5718 26.3431 14.804L27.2057 16.5292L26.3001 15.85L26.1527 15.7395L25.9689 15.751L18.0147 16.2481C16.4883 16.3435 14.9614 16.069 13.5638 15.4478L13.4238 15.3856C11.2998 14.4416 9.5955 12.7516 8.63366 10.6355L7.65702 8.48692C7.21573 7.5161 6.94106 6.4779 6.84451 5.41588L6.41324 0.671845Z" stroke="#1A4043"/>
<path d="M49.4867 4.57175L43.8368 6.11262C43.274 6.26612 42.6993 6.37244 42.1189 6.43049L38.4247 6.79991C37.1895 6.92343 35.9926 7.29812 34.9074 7.90097C32.4467 9.26806 30.7563 11.6961 30.3282 14.4784L29.7917 17.966C29.7522 18.2227 29.6729 18.4717 29.5568 18.7039L28.6942 20.4291L29.5998 19.7499L29.7472 19.6394L29.931 19.6509L37.8852 20.148C39.4116 20.2434 40.9385 19.9689 42.3361 19.3477L42.4761 19.2855C44.6001 18.3415 46.3044 16.6515 47.2662 14.5354L48.2429 12.3868C48.6842 11.416 48.9588 10.3778 49.0554 9.31578L49.4867 4.57175Z" stroke="#1A4043"/>
<path d="M27.9497 3.8999V23.3999" stroke="#1A4043" stroke-width="2"/>
<path d="M16.8999 31.1999L22.6174 25.4824C23.9508 24.149 25.7593 23.3999 27.6449 23.3999H29.257C30.4801 23.3999 31.6318 23.9757 32.3656 24.9542V24.9542C32.8745 25.6327 33.5913 26.126 34.4067 26.359L35.2083 26.588C36.8057 27.0444 38.1613 28.1073 38.9855 29.5498L39.3213 30.1373C39.9515 31.2402 40.9661 32.072 42.1712 32.4737V32.4737C43.4701 32.9066 44.5439 33.8379 45.1563 35.0626L46.1499 37.0499" stroke="#F7D9A9" stroke-width="2"/>
<path d="M7.1499 1.30005L14.9499 8.45005M14.9499 8.45005H10.3999M14.9499 8.45005L20.7999 12.025M26.6499 15.6L23.7249 13.8125M17.5499 5.85005L17.7287 6.56506C18.0399 7.81008 18.5879 8.98354 19.3427 10.0214L20.7999 12.025M20.7999 12.025L23.7249 13.8125M16.8999 13.65L19.1559 14.026C20.2444 14.2075 21.3554 14.2075 22.4439 14.026L23.7249 13.8125" stroke="#1A4043"/>
<path d="M48.75 5.19995L40.95 12.35M40.95 12.35H45.5M40.95 12.35L35.1 15.9249M29.25 19.4999L32.175 17.7124M38.35 9.74995L38.1712 10.465C37.86 11.71 37.312 12.8834 36.5572 13.9213L35.1 15.9249M35.1 15.9249L32.175 17.7124M39 17.5499L36.744 17.926C35.6555 18.1074 34.5445 18.1074 33.456 17.926L32.175 17.7124" stroke="#1A4043"/>
<path d="M10.3999 31.2L15.9465 31.6266C17.8427 31.7725 19.658 32.4561 21.1795 33.5972L21.3832 33.75C23.1142 35.0482 25.2195 35.75 27.3832 35.75H32.4999C35.3718 35.75 37.6999 38.0781 37.6999 40.9499V40.9499M37.6999 40.9499L22.7485 40.3749C21.6604 40.333 20.7999 39.4388 20.7999 38.35V38.35M37.6999 40.9499H38.0495C40.3462 40.9499 42.5729 40.1594 44.3554 38.7111L49.4102 34.6041C50.9322 33.3675 53.1005 33.3254 54.6693 34.502V34.502C55.973 35.4798 56.0457 37.4098 54.8193 38.483L44.0071 47.9436C42.4414 49.3136 40.4873 50.1612 38.4171 50.3682L27.3715 51.4728C23.9167 51.8183 20.4314 51.2584 17.2586 49.8483L10.3999 46.7999" stroke="#1A4043" stroke-width="2"/>
</svg>
