<svg width="58" height="53" viewBox="0 0 58 53" fill="none" xmlns="http://www.w3.org/2000/svg">
<rect x="1" y="28.3" width="7.1" height="21.4" rx="1" stroke="#58A086" stroke-width="2"/>
<path d="M6.41348 0.671845L12.0633 2.21272C12.6262 2.36622 13.2008 2.47254 13.7813 2.53059L17.4755 2.90001C18.7107 3.02353 19.9076 3.39821 20.9927 4.00107C23.4535 5.36816 25.1439 7.7962 25.5719 10.5785L26.1085 14.0661C26.148 14.3228 26.2272 14.5718 26.3433 14.804L27.2059 16.5292L26.3003 15.85L26.153 15.7395L25.9692 15.751L18.015 16.2481C16.4885 16.3435 14.9616 16.069 13.564 15.4478L13.4241 15.3856C11.3 14.4416 9.59574 12.7516 8.6339 10.6355L7.65726 8.48692C7.21598 7.5161 6.9413 6.4779 6.84476 5.41588L6.41348 0.671845Z" stroke="#1A4043"/>
<path d="M49.4867 4.57185L43.8368 6.11273C43.274 6.26622 42.6993 6.37255 42.1189 6.4306L38.4247 6.80002C37.1895 6.92353 35.9926 7.29822 34.9074 7.90108C32.4467 9.26817 30.7563 11.6962 30.3282 14.4785L29.7917 17.9662C29.7522 18.2228 29.6729 18.4718 29.5568 18.704L28.6942 20.4292L29.5998 19.75L29.7472 19.6395L29.931 19.651L37.8852 20.1481C39.4116 20.2435 40.9385 19.969 42.3361 19.3478L42.4761 19.2856C44.6001 18.3416 46.3044 16.6516 47.2662 14.5355L48.2429 12.3869C48.6842 11.4161 48.9588 10.3779 49.0554 9.31589L49.4867 4.57185Z" stroke="#1A4043"/>
<path d="M27.95 3.90001V23.4" stroke="#1A4043" stroke-width="2"/>
<path d="M16.9001 31.2L22.6177 25.4824C23.9511 24.1491 25.7595 23.4 27.6452 23.4H29.2573C30.4803 23.4 31.632 23.9758 32.3659 24.9543V24.9543C32.8747 25.6327 33.5915 26.1261 34.407 26.3591L35.2086 26.5881C36.8059 27.0445 38.1615 28.1074 38.9858 29.5498L39.3215 30.1374C39.9517 31.2402 40.9664 32.0721 42.1714 32.4737V32.4737C43.4704 32.9067 44.5442 33.838 45.1565 35.0627L46.1501 37.05" stroke="#58A086" stroke-width="2"/>
<path d="M7.1499 1.3L14.9499 8.45M14.9499 8.45H10.3999M14.9499 8.45L20.7999 12.025M26.6499 15.6L23.7249 13.8125M17.5499 5.85L17.7287 6.56502C18.0399 7.81003 18.5879 8.9835 19.3427 10.0214L20.7999 12.025M20.7999 12.025L23.7249 13.8125M16.8999 13.65L19.1559 14.026C20.2444 14.2074 21.3554 14.2074 22.4439 14.026L23.7249 13.8125" stroke="#1A4043"/>
<path d="M48.75 5.20001L40.95 12.35M40.95 12.35H45.5M40.95 12.35L35.1 15.925M29.25 19.5L32.175 17.7125M38.35 9.75001L38.1712 10.465C37.86 11.71 37.312 12.8835 36.5572 13.9214L35.1 15.925M35.1 15.925L32.175 17.7125M39 17.55L36.744 17.926C35.6555 18.1074 34.5445 18.1074 33.456 17.926L32.175 17.7125" stroke="#1A4043"/>
<path d="M10.3997 31.2L15.9462 31.6267C17.8425 31.7725 19.6578 32.4561 21.1793 33.5972L21.383 33.75C23.114 35.0482 25.2193 35.75 27.383 35.75H32.4997C35.3715 35.75 37.6997 38.0781 37.6997 40.95V40.95M37.6997 40.95L22.7482 40.375C21.6601 40.3331 20.7997 39.4389 20.7997 38.35V38.35M37.6997 40.95H38.0492C40.346 40.95 42.5727 40.1594 44.3552 38.7112L49.41 34.6041C50.932 33.3675 53.1002 33.3254 54.669 34.502V34.502C55.9728 35.4798 56.0455 37.4099 54.819 38.4831L44.0069 47.9437C42.4411 49.3137 40.4871 50.1613 38.4169 50.3683L27.3712 51.4729C23.9164 51.8183 20.4312 51.2585 17.2584 49.8483L10.3997 46.8" stroke="#1A4043" stroke-width="2"/>
</svg>
