<svg width="74" height="56" viewBox="0 0 74 56" fill="none" xmlns="http://www.w3.org/2000/svg">
<path d="M2.34912 51L2.34912 40.292H3.09619L3.09619 51H2.34912ZM8.91895 51H8.16455L8.16455 40.9951H4.68555V40.292H12.3979V40.9951H8.91895L8.91895 51ZM16.9463 42.8848C17.2832 42.8848 17.6445 42.9189 18.0303 42.9873L17.8911 43.6831C17.5591 43.6001 17.2148 43.5586 16.8584 43.5586C16.1797 43.5586 15.623 43.8467 15.1885 44.4229C14.7539 44.999 14.5366 45.7266 14.5366 46.6055V51H13.8115L13.8115 43.0386H14.4268L14.5 44.4741H14.5513C14.8784 43.8882 15.2275 43.478 15.5986 43.2437C15.9697 43.0044 16.4189 42.8848 16.9463 42.8848ZM24.4902 51L24.3071 49.7402H24.2485C23.8481 50.2529 23.4355 50.6167 23.0107 50.8315C22.5908 51.0415 22.0928 51.1465 21.5166 51.1465C20.7354 51.1465 20.1274 50.9463 19.6929 50.5459C19.2583 50.1455 19.041 49.5913 19.041 48.8833C19.041 48.1069 19.3633 47.5039 20.0078 47.0742C20.6572 46.6445 21.5947 46.4175 22.8203 46.3931L24.3364 46.3491V45.8218C24.3364 45.0649 24.1826 44.4937 23.875 44.1079C23.5674 43.7222 23.0718 43.5293 22.3882 43.5293C21.6509 43.5293 20.8867 43.7344 20.0957 44.1445L19.8247 43.5146C20.6987 43.1045 21.563 42.8994 22.4175 42.8994C23.2915 42.8994 23.9434 43.1265 24.373 43.5806C24.8076 44.0347 25.0249 44.7427 25.0249 45.7046V51H24.4902ZM21.5605 50.4873C22.4102 50.4873 23.0791 50.2456 23.5674 49.7622C24.0605 49.2739 24.3071 48.5977 24.3071 47.7334V46.9497L22.9155 47.0083C21.7974 47.062 20.999 47.2378 20.5205 47.5356C20.0469 47.8286 19.8101 48.2876 19.8101 48.9126C19.8101 49.4106 19.9614 49.7988 20.2642 50.0771C20.5718 50.3506 21.0039 50.4873 21.5605 50.4873ZM30.7891 51.1465C29.6514 51.1465 28.7603 50.7876 28.1157 50.0698C27.4712 49.3521 27.1489 48.3511 27.1489 47.0669C27.1489 45.7485 27.4834 44.7231 28.1523 43.9907C28.8213 43.2534 29.7368 42.8848 30.8989 42.8848C31.5874 42.8848 32.2466 43.0044 32.8765 43.2437L32.6787 43.8882C31.9902 43.6587 31.3921 43.5439 30.8843 43.5439C29.9077 43.5439 29.168 43.8467 28.665 44.4521C28.1621 45.0527 27.9106 45.9194 27.9106 47.0522C27.9106 48.1265 28.1621 48.9687 28.665 49.5791C29.168 50.1846 29.8711 50.4873 30.7744 50.4873C31.4971 50.4873 32.1685 50.3579 32.7886 50.0991V50.7729C32.2808 51.022 31.6143 51.1465 30.7891 51.1465ZM37.9595 51.1465C36.8022 51.1465 35.8989 50.79 35.2495 50.0771C34.605 49.3643 34.2827 48.3657 34.2827 47.0815C34.2827 45.812 34.5952 44.7964 35.2202 44.0347C35.8452 43.2681 36.6875 42.8848 37.7471 42.8848C38.6846 42.8848 39.4243 43.2119 39.9663 43.8662C40.5083 44.5205 40.7793 45.4092 40.7793 46.5322V47.1182H35.0444C35.0542 48.2119 35.3081 49.0469 35.8062 49.623C36.3091 50.1992 37.0269 50.4873 37.9595 50.4873C38.4136 50.4873 38.8115 50.4556 39.1533 50.3921C39.5 50.3286 39.937 50.1919 40.4644 49.9819V50.6411C40.0151 50.8364 39.6001 50.9683 39.2192 51.0366C38.8384 51.1099 38.4185 51.1465 37.9595 51.1465ZM37.7471 43.5293C36.9805 43.5293 36.3652 43.7832 35.9014 44.291C35.4375 44.7939 35.1665 45.5215 35.0884 46.4736H40.0103C40.0103 45.5508 39.8101 44.8306 39.4097 44.313C39.0093 43.7905 38.4551 43.5293 37.7471 43.5293ZM51.2896 45.5435C51.2896 47.3403 50.8184 48.7002 49.876 49.623C48.9336 50.541 47.5493 51 45.7231 51H43.1597V40.292H46.0527C47.7617 40.292 49.0605 40.7388 49.9492 41.6323C50.8428 42.5259 51.2896 43.8296 51.2896 45.5435ZM50.4766 45.5728C50.4766 44.0396 50.0859 42.8872 49.3047 42.1157C48.5283 41.3394 47.3857 40.9512 45.877 40.9512H43.9067V50.3408H45.6792C48.8774 50.3408 50.4766 48.7515 50.4766 45.5728ZM58.4014 51L58.2183 49.7402H58.1597C57.7593 50.2529 57.3467 50.6167 56.9219 50.8315C56.502 51.0415 56.0039 51.1465 55.4277 51.1465C54.6465 51.1465 54.0386 50.9463 53.604 50.5459C53.1694 50.1455 52.9521 49.5913 52.9521 48.8833C52.9521 48.1069 53.2744 47.5039 53.9189 47.0742C54.5684 46.6445 55.5059 46.4175 56.7314 46.3931L58.2476 46.3491V45.8218C58.2476 45.0649 58.0938 44.4937 57.7861 44.1079C57.4785 43.7222 56.9829 43.5293 56.2993 43.5293C55.562 43.5293 54.7979 43.7344 54.0068 44.1445L53.7358 43.5146C54.6099 43.1045 55.4741 42.8994 56.3286 42.8994C57.2026 42.8994 57.8545 43.1265 58.2842 43.5806C58.7188 44.0347 58.936 44.7427 58.936 45.7046V51H58.4014ZM55.4717 50.4873C56.3213 50.4873 56.9902 50.2456 57.4785 49.7622C57.9717 49.2739 58.2183 48.5977 58.2183 47.7334V46.9497L56.8267 47.0083C55.7085 47.062 54.9102 47.2378 54.4316 47.5356C53.958 47.8286 53.7212 48.2876 53.7212 48.9126C53.7212 49.4106 53.8726 49.7988 54.1753 50.0771C54.4829 50.3506 54.915 50.4873 55.4717 50.4873ZM63.6235 50.502C64.0825 50.502 64.4829 50.4629 64.8247 50.3848V50.9707C64.4731 51.0879 64.0679 51.1465 63.6089 51.1465C62.9058 51.1465 62.3857 50.9585 62.0488 50.5825C61.7168 50.2065 61.5508 49.6157 61.5508 48.8101V43.6685H60.3716V43.2437L61.5508 42.9141L61.917 41.1123H62.2905V43.0386H64.627V43.6685H62.2905V48.7075C62.2905 49.3179 62.3979 49.7695 62.6128 50.0625C62.8276 50.3555 63.1646 50.502 63.6235 50.502ZM71.3799 51L71.1968 49.7402H71.1382C70.7378 50.2529 70.3252 50.6167 69.9004 50.8315C69.4805 51.0415 68.9824 51.1465 68.4062 51.1465C67.625 51.1465 67.0171 50.9463 66.5825 50.5459C66.1479 50.1455 65.9307 49.5913 65.9307 48.8833C65.9307 48.1069 66.2529 47.5039 66.8975 47.0742C67.5469 46.6445 68.4844 46.4175 69.71 46.3931L71.2261 46.3491V45.8218C71.2261 45.0649 71.0723 44.4937 70.7646 44.1079C70.457 43.7222 69.9614 43.5293 69.2778 43.5293C68.5405 43.5293 67.7764 43.7344 66.9854 44.1445L66.7144 43.5146C67.5884 43.1045 68.4526 42.8994 69.3071 42.8994C70.1812 42.8994 70.833 43.1265 71.2627 43.5806C71.6973 44.0347 71.9146 44.7427 71.9146 45.7046V51H71.3799ZM68.4502 50.4873C69.2998 50.4873 69.9688 50.2456 70.457 49.7622C70.9502 49.2739 71.1968 48.5977 71.1968 47.7334V46.9497L69.8052 47.0083C68.687 47.062 67.8887 47.2378 67.4102 47.5356C66.9365 47.8286 66.6997 48.2876 66.6997 48.9126C66.6997 49.4106 66.8511 49.7988 67.1538 50.0771C67.4614 50.3506 67.8936 50.4873 68.4502 50.4873Z" fill="#1A4043"/>
<rect y="11" width="7" height="23" fill="#1A4043"/>
<rect width="7" height="6.47059" fill="#1A4043"/>
<rect x="13.0586" width="25.8824" height="7" fill="#1A4043"/>
<rect x="23" y="11" width="7" height="23" fill="#1A4043"/>
<path d="M47 7V3.5H54.5C61.9558 3.5 68 9.54415 68 17V17C68 24.4558 61.9558 30.5 54.5 30.5H47V27" stroke="#1A4043" stroke-width="7"/>
</svg>
