<svg width="128" height="56" viewBox="0 0 128 56" fill="none" xmlns="http://www.w3.org/2000/svg">
<path d="M29.2462 50.8232V40.1152H29.9932V50.8232H29.2462ZM35.816 50.8232H35.0616V40.8184H31.5826V40.1152H39.295V40.8184H35.816V50.8232ZM43.8433 42.708C44.1803 42.708 44.5416 42.7422 44.9273 42.8105L44.7882 43.5063C44.4561 43.4233 44.1119 43.3818 43.7555 43.3818C43.0767 43.3818 42.5201 43.6699 42.0855 44.2461C41.651 44.8223 41.4337 45.5498 41.4337 46.4287V50.8232H40.7086V42.8618H41.3238L41.3971 44.2974H41.4483C41.7755 43.7114 42.1246 43.3013 42.4957 43.0669C42.8668 42.8276 43.316 42.708 43.8433 42.708ZM51.3873 50.8232L51.2042 49.5635H51.1456C50.7452 50.0762 50.3326 50.4399 49.9078 50.6548C49.4879 50.8647 48.9898 50.9697 48.4137 50.9697C47.6324 50.9697 47.0245 50.7695 46.5899 50.3691C46.1554 49.9687 45.9381 49.4146 45.9381 48.7065C45.9381 47.9302 46.2603 47.3271 46.9049 46.8975C47.5543 46.4678 48.4918 46.2407 49.7174 46.2163L51.2335 46.1724V45.645C51.2335 44.8882 51.0797 44.3169 50.7721 43.9312C50.4644 43.5454 49.9688 43.3525 49.2852 43.3525C48.5479 43.3525 47.7838 43.5576 46.9928 43.9678L46.7218 43.3379C47.5958 42.9277 48.46 42.7227 49.3145 42.7227C50.1886 42.7227 50.8404 42.9497 51.2701 43.4038C51.7047 43.8579 51.922 44.5659 51.922 45.5278V50.8232H51.3873ZM48.4576 50.3105C49.3072 50.3105 49.9762 50.0688 50.4644 49.5854C50.9576 49.0972 51.2042 48.4209 51.2042 47.5566V46.7729L49.8126 46.8315C48.6944 46.8853 47.8961 47.061 47.4176 47.3589C46.9439 47.6519 46.7071 48.1108 46.7071 48.7358C46.7071 49.2339 46.8585 49.6221 47.1612 49.9004C47.4688 50.1738 47.901 50.3105 48.4576 50.3105ZM57.6861 50.9697C56.5484 50.9697 55.6573 50.6108 55.0128 49.8931C54.3682 49.1753 54.046 48.1743 54.046 46.8901C54.046 45.5718 54.3805 44.5464 55.0494 43.814C55.7183 43.0767 56.6339 42.708 57.796 42.708C58.4845 42.708 59.1436 42.8276 59.7735 43.0669L59.5758 43.7114C58.8873 43.4819 58.2891 43.3672 57.7813 43.3672C56.8048 43.3672 56.065 43.6699 55.5621 44.2754C55.0592 44.876 54.8077 45.7427 54.8077 46.8755C54.8077 47.9497 55.0592 48.792 55.5621 49.4023C56.065 50.0078 56.7682 50.3105 57.6715 50.3105C58.3941 50.3105 59.0655 50.1812 59.6856 49.9224V50.5962C59.1778 50.8452 58.5113 50.9697 57.6861 50.9697ZM64.8565 50.9697C63.6993 50.9697 62.796 50.6133 62.1466 49.9004C61.502 49.1875 61.1798 48.189 61.1798 46.9048C61.1798 45.6353 61.4923 44.6196 62.1173 43.8579C62.7423 43.0913 63.5846 42.708 64.6441 42.708C65.5816 42.708 66.3214 43.0352 66.8634 43.6895C67.4054 44.3437 67.6764 45.2324 67.6764 46.3555V46.9414L61.9415 46.9414C61.9513 48.0352 62.2052 48.8701 62.7032 49.4463C63.2061 50.0225 63.9239 50.3105 64.8565 50.3105C65.3106 50.3105 65.7086 50.2788 66.0504 50.2153C66.3971 50.1519 66.8341 50.0151 67.3614 49.8052V50.4644C66.9122 50.6597 66.4972 50.7915 66.1163 50.8599C65.7354 50.9331 65.3155 50.9697 64.8565 50.9697ZM64.6441 43.3525C63.8775 43.3525 63.2623 43.6064 62.7984 44.1143C62.3346 44.6172 62.0636 45.3447 61.9854 46.2969L66.9073 46.2969C66.9073 45.374 66.7071 44.6538 66.3067 44.1362C65.9063 43.6138 65.3521 43.3525 64.6441 43.3525ZM78.1866 45.3667C78.1866 47.1636 77.7154 48.5234 76.773 49.4463C75.8307 50.3643 74.4464 50.8232 72.6202 50.8232H70.0567V40.1152H72.9498C74.6588 40.1152 75.9576 40.562 76.8463 41.4556C77.7398 42.3491 78.1866 43.6528 78.1866 45.3667ZM77.3736 45.396C77.3736 43.8628 76.983 42.7104 76.2017 41.939C75.4254 41.1626 74.2828 40.7744 72.774 40.7744H70.8038V50.1641H72.5763C75.7745 50.1641 77.3736 48.5747 77.3736 45.396ZM85.2984 50.8232L85.1153 49.5635H85.0567C84.6563 50.0762 84.2437 50.4399 83.8189 50.6548C83.399 50.8647 82.901 50.9697 82.3248 50.9697C81.5435 50.9697 80.9356 50.7695 80.5011 50.3691C80.0665 49.9687 79.8492 49.4146 79.8492 48.7065C79.8492 47.9302 80.1715 47.3271 80.816 46.8975C81.4654 46.4678 82.4029 46.2407 83.6285 46.2163L85.1446 46.1724V45.645C85.1446 44.8882 84.9908 44.3169 84.6832 43.9312C84.3756 43.5454 83.88 43.3525 83.1964 43.3525C82.4591 43.3525 81.6949 43.5576 80.9039 43.9678L80.6329 43.3379C81.5069 42.9277 82.3712 42.7227 83.2257 42.7227C84.0997 42.7227 84.7515 42.9497 85.1812 43.4038C85.6158 43.8579 85.8331 44.5659 85.8331 45.5278V50.8232H85.2984ZM82.3687 50.3105C83.2183 50.3105 83.8873 50.0688 84.3756 49.5854C84.8687 49.0972 85.1153 48.4209 85.1153 47.5566V46.7729L83.7237 46.8315C82.6056 46.8853 81.8072 47.061 81.3287 47.3589C80.8551 47.6519 80.6182 48.1108 80.6182 48.7358C80.6182 49.2339 80.7696 49.6221 81.0723 49.9004C81.38 50.1738 81.8121 50.3105 82.3687 50.3105ZM90.5206 50.3252C90.9796 50.3252 91.38 50.2861 91.7218 50.208V50.7939C91.3702 50.9111 90.9649 50.9697 90.5059 50.9697C89.8028 50.9697 89.2828 50.7817 88.9459 50.4058C88.6139 50.0298 88.4478 49.439 88.4478 48.6333V43.4917H87.2686V43.0669L88.4478 42.7373L88.814 40.9355H89.1876V42.8618H91.524V43.4917H89.1876V48.5308C89.1876 49.1411 89.295 49.5928 89.5098 49.8857C89.7247 50.1787 90.0616 50.3252 90.5206 50.3252ZM98.2769 50.8232L98.0938 49.5635H98.0352C97.6348 50.0762 97.2223 50.4399 96.7974 50.6548C96.3775 50.8647 95.8795 50.9697 95.3033 50.9697C94.5221 50.9697 93.9141 50.7695 93.4796 50.3691C93.045 49.9687 92.8277 49.4146 92.8277 48.7065C92.8277 47.9302 93.15 47.3271 93.7945 46.8975C94.4439 46.4678 95.3814 46.2407 96.607 46.2163L98.1231 46.1724V45.645C98.1231 44.8882 97.9693 44.3169 97.6617 43.9312C97.3541 43.5454 96.8585 43.3525 96.1749 43.3525C95.4376 43.3525 94.6734 43.5576 93.8824 43.9678L93.6114 43.3379C94.4854 42.9277 95.3497 42.7227 96.2042 42.7227C97.0782 42.7227 97.7301 42.9497 98.1598 43.4038C98.5943 43.8579 98.8116 44.5659 98.8116 45.5278V50.8232H98.2769ZM95.3473 50.3105C96.1969 50.3105 96.8658 50.0688 97.3541 49.5854C97.8473 49.0972 98.0938 48.4209 98.0938 47.5566V46.7729L96.7022 46.8315C95.5841 46.8853 94.7857 47.061 94.3072 47.3589C93.8336 47.6519 93.5968 48.1108 93.5968 48.7358C93.5968 49.2339 93.7481 49.6221 94.0509 49.9004C94.3585 50.1738 94.7906 50.3105 95.3473 50.3105Z" fill="white"/>
<rect x="29" y="11" width="7" height="23" fill="white"/>
<rect x="29" width="7" height="6.47059" fill="white"/>
<rect x="42.0586" width="25.8824" height="7" fill="white"/>
<rect x="52" y="11" width="7" height="23" fill="white"/>
<path d="M76 7V3.5H83.5C90.9558 3.5 97 9.54415 97 17V17C97 24.4558 90.9558 30.5 83.5 30.5H76V27" stroke="white" stroke-width="7"/>
</svg>
