<svg width="56" height="54" viewBox="0 0 56 54" fill="none" xmlns="http://www.w3.org/2000/svg">
<ellipse cx="25.3086" cy="29" rx="25.3086" ry="25" fill="#C4C4C4" fill-opacity="0.5"/>
<path d="M54.1543 0.651007C53.7083 0.36217 53.2096 0.163842 52.6867 0.0673547C52.1638 -0.029133 51.627 -0.0218903 51.1069 0.0886689C50.5868 0.199228 50.0937 0.410937 49.6557 0.711703C49.2176 1.01247 48.8432 1.3964 48.5539 1.84155L25.8637 36.7378L14.7979 26.5293C14.4075 26.1691 13.9498 25.8892 13.451 25.7055C12.9522 25.5218 12.4219 25.4379 11.8906 25.4587C10.8176 25.5006 9.80515 25.9661 9.0761 26.7528C8.34705 27.5395 7.96108 28.583 8.0031 29.6536C8.04513 30.7243 8.51169 31.7344 9.30017 32.4618L23.8295 45.8649C23.8295 45.8649 24.2466 46.2231 24.4396 46.3484C24.8857 46.6374 25.3845 46.8359 25.9075 46.9325C26.4305 47.0291 26.9675 47.0219 27.4878 46.9114C28.008 46.8008 28.5013 46.589 28.9394 46.2881C29.3776 45.9873 29.752 45.6032 30.0413 45.1578L55.3475 6.23877C55.637 5.79373 55.8358 5.29615 55.9325 4.77445C56.0292 4.25275 56.0219 3.71715 55.9111 3.19824C55.8003 2.67934 55.5881 2.1873 55.2867 1.75024C54.9853 1.31318 54.6005 0.939655 54.1543 0.651007Z" fill="#4C957A"/>
</svg>
