<svg width="36" height="36" viewBox="0 0 36 36" fill="none" xmlns="http://www.w3.org/2000/svg">
<path d="M17.9998 -0.0383301C8.0537 -0.0383301 -0.0395508 8.05267 -0.0395508 17.9999C-0.0395508 27.9472 8.0537 36.0382 17.9998 36.0382C27.9459 36.0382 36.0392 27.9472 36.0392 17.9999C36.0392 8.05267 27.9459 -0.0383301 17.9998 -0.0383301ZM17.9998 34.8367C8.71632 34.8367 1.1642 27.2834 1.1642 17.9999C1.1642 8.71642 8.71632 1.16317 17.9998 1.16317C27.2833 1.16317 34.8354 8.71642 34.8354 17.9999C34.8354 27.2834 27.2833 34.8367 17.9998 34.8367Z" fill="#6CD3AE"/>
<path d="M21.9375 7.8748H18.936C15.1133 7.83655 14.625 10.2024 14.625 12.7629V14.6248H12.9375C12.8612 14.6146 12.7836 14.6221 12.7108 14.6468C12.6379 14.6715 12.5716 14.7126 12.5172 14.767C12.4628 14.8214 12.4217 14.8877 12.397 14.9605C12.3724 15.0334 12.3648 15.111 12.375 15.1873V18.5623C12.3648 18.6386 12.3724 18.7162 12.397 18.7891C12.4217 18.8619 12.4628 18.9282 12.5172 18.9826C12.5716 19.037 12.6379 19.0781 12.7108 19.1028C12.7836 19.1275 12.8612 19.135 12.9375 19.1248H14.625V27.5623C14.6156 27.6387 14.6239 27.7163 14.649 27.789C14.6742 27.8618 14.7157 27.9278 14.7703 27.9821C14.8249 28.0363 14.8911 28.0774 14.964 28.1021C15.0369 28.1269 15.1145 28.1346 15.1909 28.1248H18.6278C18.9596 28.1631 19.2285 27.8942 19.1228 27.5623L19.125 19.1248H21.9375C22.0138 19.135 22.0914 19.1275 22.1643 19.1028C22.2372 19.0781 22.3034 19.037 22.3578 18.9826C22.4122 18.9282 22.4533 18.8619 22.478 18.7891C22.5027 18.7162 22.5102 18.6386 22.5 18.5623V15.1873C22.5102 15.111 22.5027 15.0334 22.478 14.9605C22.4533 14.8877 22.4122 14.8214 22.3578 14.767C22.3034 14.7126 22.2372 14.6715 22.1643 14.6468C22.0914 14.6221 22.0138 14.6146 21.9375 14.6248H19.1216L19.125 12.9373C19.2341 12.2184 19.2341 12.3354 19.9013 12.3748H21.9139C22.0703 12.3399 22.2368 12.3591 22.3538 12.2454C22.4708 12.1318 22.5383 11.9766 22.4989 11.8123V8.4373C22.5093 8.36109 22.5019 8.28351 22.4774 8.21061C22.4529 8.13771 22.4118 8.07146 22.3575 8.01702C22.3032 7.96257 22.237 7.92142 22.1642 7.89675C22.0913 7.87208 22.0137 7.86457 21.9375 7.8748ZM21.3356 11.1868L19.9249 11.1328C18.1778 11.1328 18.0315 12.0812 18.0315 13.0521L18.027 15.1851C18.0269 15.264 18.0423 15.3423 18.0724 15.4153C18.1025 15.4883 18.1468 15.5547 18.2026 15.6106C18.2584 15.6665 18.3246 15.7108 18.3976 15.7411C18.4706 15.7713 18.5488 15.7869 18.6278 15.7869H21.375V17.9604H18.63C18.4706 17.9604 18.3177 18.0237 18.2048 18.1363C18.092 18.2489 18.0284 18.4017 18.0281 18.5612L18.027 26.9998H15.75V18.5623C15.75 18.2304 15.5239 17.9616 15.1909 17.9616H13.5V15.7881H15.1909C15.2698 15.7882 15.348 15.7727 15.421 15.7426C15.4939 15.7125 15.5603 15.6683 15.6161 15.6126C15.7286 15.4989 15.7489 15.3459 15.7489 15.1862V12.7618C15.7489 10.2396 16.2585 9.03805 18.9349 9.03805H21.3345V11.1868H21.3356Z" fill="#6CD3AE"/>
</svg>
