<svg width="37" height="37" viewBox="0 0 37 37" fill="none" xmlns="http://www.w3.org/2000/svg">
<path d="M36.9822 18.8461C36.9822 17.3302 36.8563 16.224 36.5839 15.0769H18.8684V21.9188H29.267C29.0574 23.6191 27.9253 26.1797 25.4095 27.9004L25.3742 28.1294L30.9755 32.3693L31.3636 32.4072C34.9276 29.191 36.9822 24.4589 36.9822 18.8461Z" fill="#4285F4"/>
<path d="M18.8684 36.8729C23.9628 36.8729 28.2397 35.234 31.3636 32.4072L25.4095 27.9004C23.8161 28.9861 21.6777 29.744 18.8684 29.744C13.8788 29.744 9.64385 26.528 8.13422 22.0828L7.91294 22.1011L2.08862 26.5054L2.01245 26.7123C5.11525 32.7348 11.4886 36.8729 18.8684 36.8729Z" fill="#34A853"/>
<path d="M8.13436 22.0828C7.73603 20.9357 7.50551 19.7065 7.50551 18.4365C7.50551 17.1663 7.73604 15.9373 8.11341 14.7901L8.10286 14.5458L2.20555 10.0708L2.0126 10.1605C0.733785 12.6597 0 15.4662 0 18.4365C0 21.4068 0.733785 24.2131 2.0126 26.7123L8.13436 22.0828Z" fill="#FBBC05"/>
<path d="M18.8684 7.12871C22.4114 7.12871 24.8014 8.62411 26.1642 9.87377L31.4893 4.79348C28.2189 1.82317 23.9628 0 18.8684 0C11.4886 0 5.11525 4.13793 2.01245 10.1605L8.11326 14.7901C9.64385 10.3449 13.8788 7.12871 18.8684 7.12871Z" fill="#EB4335"/>
</svg>
