<svg width="133" height="90" viewBox="0 0 133 90" fill="none" xmlns="http://www.w3.org/2000/svg">
<path d="M3 85.5V34.5L20 26L27.5 30V59H20V13L36.5 3L44 7.5V38M44 38V59H36.5V42.5L44 38ZM44 38L62 48V59" stroke="#8D9894" stroke-width="5"/>
<path d="M18.45 84.2C16.7 84.2 15.1167 83.8167 13.7 83.05C12.3 82.2667 11.2 81.2 10.4 79.85C9.6 78.4833 9.2 76.95 9.2 75.25C9.2 73.55 9.6 72.025 10.4 70.675C11.2 69.3083 12.3083 68.2417 13.725 67.475C15.1417 66.6917 16.725 66.3 18.475 66.3C19.8417 66.3 21.0917 66.5333 22.225 67C23.3583 67.45 24.325 68.125 25.125 69.025L23.5 70.6C22.1833 69.2167 20.5417 68.525 18.575 68.525C17.275 68.525 16.1 68.8167 15.05 69.4C14 69.9833 13.175 70.7917 12.575 71.825C11.9917 72.8417 11.7 73.9833 11.7 75.25C11.7 76.5167 11.9917 77.6667 12.575 78.7C13.175 79.7167 14 80.5167 15.05 81.1C16.1 81.6833 17.275 81.975 18.575 81.975C20.525 81.975 22.1667 81.275 23.5 79.875L25.125 81.45C24.325 82.35 23.35 83.0333 22.2 83.5C21.0667 83.9667 19.8167 84.2 18.45 84.2ZM29.9414 66.5H32.4414V84H29.9414V66.5ZM42.4057 68.675H36.4057V66.5H50.8807V68.675H44.8807V84H42.4057V68.675ZM61.3582 77.95V84H58.8832V77.9L51.9332 66.5H54.6082L60.2082 75.725L65.8332 66.5H68.3082L61.3582 77.95ZM83.5018 84L79.7268 78.625C79.2601 78.6583 78.8934 78.675 78.6268 78.675H74.3018V84H71.8018V66.5H78.6268C80.8934 66.5 82.6768 67.0417 83.9768 68.125C85.2768 69.2083 85.9268 70.7 85.9268 72.6C85.9268 73.95 85.5934 75.1 84.9268 76.05C84.2601 77 83.3101 77.6917 82.0768 78.125L86.2268 84H83.5018ZM78.5518 76.55C80.1351 76.55 81.3434 76.2083 82.1768 75.525C83.0101 74.8417 83.4268 73.8667 83.4268 72.6C83.4268 71.3333 83.0101 70.3667 82.1768 69.7C81.3434 69.0167 80.1351 68.675 78.5518 68.675H74.3018V76.55H78.5518ZM91.2158 66.5H93.7158V84H91.2158V66.5ZM113.28 81.825V84H98.6551V82.3L109.655 68.675H98.8301V66.5H112.955V68.2L102.005 81.825H113.28ZM130.586 81.825V84H117.886V66.5H130.236V68.675H120.386V74.05H129.161V76.175H120.386V81.825H130.586Z" fill="#6D7B76"/>
</svg>
