<svg width="37" height="36" viewBox="0 0 37 36" fill="none" xmlns="http://www.w3.org/2000/svg">
<path d="M26.9002 8.39995H29.3002H26.9002ZM11.3002 1.19995H25.7002C28.2463 1.19995 30.6881 2.21138 32.4884 4.01173C34.2888 5.81208 35.3002 8.25387 35.3002 10.8V25.1999C35.3002 27.746 34.2888 30.1878 32.4884 31.9882C30.6881 33.7885 28.2463 34.7999 25.7002 34.7999H11.3002C8.75412 34.7999 6.31232 33.7885 4.51197 31.9882C2.71162 30.1878 1.7002 27.746 1.7002 25.1999V10.8C1.7002 8.25387 2.71162 5.81208 4.51197 4.01173C6.31232 2.21138 8.75412 1.19995 11.3002 1.19995V1.19995ZM18.5002 25.1999C16.5906 25.1999 14.7593 24.4414 13.409 23.0911C12.0588 21.7409 11.3002 19.9095 11.3002 18C11.3002 16.0904 12.0588 14.259 13.409 12.9088C14.7593 11.5585 16.5906 10.8 18.5002 10.8C20.4098 10.8 22.2411 11.5585 23.5914 12.9088C24.9416 14.259 25.7002 16.0904 25.7002 18C25.7002 19.9095 24.9416 21.7409 23.5914 23.0911C22.2411 24.4414 20.4098 25.1999 18.5002 25.1999Z" stroke="#6CD3AE"/>
</svg>
