<svg width="37" height="36" viewBox="0 0 37 36" fill="none" xmlns="http://www.w3.org/2000/svg">
<path d="M18.2498 -0.0383301C8.3037 -0.0383301 0.210449 8.05267 0.210449 17.9999C0.210449 27.9472 8.3037 36.0382 18.2498 36.0382C28.1959 36.0382 36.2892 27.9472 36.2892 17.9999C36.2892 8.05267 28.1959 -0.0383301 18.2498 -0.0383301ZM18.2498 34.8367C8.96632 34.8367 1.4142 27.2834 1.4142 17.9999C1.4142 8.71642 8.96632 1.16317 18.2498 1.16317C27.5333 1.16317 35.0854 8.71642 35.0854 17.9999C35.0854 27.2834 27.5333 34.8367 18.2498 34.8367Z" fill="#6CD3AE"/>
<path d="M28.1433 12.4267C28.2681 12.1957 28.3709 11.9535 28.4504 11.7033C28.4872 11.5872 28.488 11.4627 28.4525 11.3463C28.4171 11.2298 28.3472 11.1268 28.252 11.0508C28.1568 10.9749 28.0409 10.9296 27.9194 10.921C27.798 10.9123 27.6768 10.9407 27.5718 11.0024C26.9953 11.3449 26.3713 11.6 25.72 11.7595C24.9295 11.046 23.9027 10.6505 22.8378 10.6492C22.2592 10.6496 21.6867 10.7669 21.1545 10.9939C20.6224 11.221 20.1416 11.5532 19.7409 11.9705C19.3402 12.3879 19.0279 12.8819 18.8228 13.4229C18.6177 13.9639 18.5239 14.5407 18.547 15.1188C16.0169 14.8003 13.7065 13.52 12.0952 11.5435C12.0334 11.4687 11.9545 11.4098 11.8652 11.3719C11.7758 11.3341 11.6786 11.3183 11.5819 11.3261C11.4851 11.3338 11.3917 11.3648 11.3095 11.4163C11.2273 11.4679 11.1587 11.5386 11.1097 11.6223C10.7407 12.2556 10.5401 12.9729 10.5271 13.7057C10.5141 14.4385 10.6891 15.1624 11.0354 15.8084C10.9505 15.8228 10.8689 15.8525 10.7947 15.8962C10.7037 15.9542 10.6288 16.0341 10.5769 16.1287C10.525 16.2233 10.4977 16.3294 10.4977 16.4373C10.4977 17.7142 11.0658 18.8864 11.9815 19.6829L11.9422 19.7223C11.873 19.8005 11.8255 19.8954 11.8042 19.9976C11.7828 20.0998 11.7885 20.2057 11.8207 20.305C12.0116 20.9008 12.3305 21.4475 12.7549 21.9071C13.1793 22.3667 13.699 22.728 14.2777 22.9657C13.0892 23.5454 11.7592 23.7715 10.4459 23.617C10.3109 23.6033 10.1752 23.6347 10.0599 23.7064C9.94471 23.778 9.85651 23.8859 9.80915 24.013C9.76368 24.1412 9.76283 24.2809 9.80673 24.4095C9.85064 24.5382 9.93673 24.6482 10.051 24.7218C11.8364 25.8677 13.9134 26.4764 16.0349 26.4757C22.9874 26.4757 27.1432 20.8282 27.1432 15.3685L27.142 15.184C27.8158 14.658 28.4011 14.0275 28.8757 13.3165C28.9475 13.2091 28.9829 13.0813 28.9764 12.9522C28.97 12.823 28.9222 12.6994 28.84 12.5996C28.7579 12.4997 28.6457 12.429 28.5203 12.3979C28.3948 12.3667 28.2626 12.3768 28.1433 12.4267ZM26.1802 14.401C26.0985 14.4597 26.0329 14.538 25.9893 14.6286C25.9456 14.7192 25.9254 14.8192 25.9304 14.9197C25.9372 15.0682 25.9405 15.2189 25.9405 15.3674C25.9405 20.2364 22.2359 25.273 16.036 25.273C14.9303 25.2736 13.8323 25.088 12.7882 24.724C14.0387 24.4844 15.2135 23.9481 16.2138 23.1603C16.3112 23.0835 16.3824 22.9785 16.4179 22.8597C16.4533 22.7409 16.4512 22.614 16.4118 22.4964C16.3724 22.3789 16.2977 22.2763 16.1978 22.2028C16.0979 22.1294 15.9778 22.0885 15.8538 22.0859C15.3687 22.0767 14.8926 21.9535 14.4639 21.7265C14.0351 21.4994 13.6657 21.1747 13.3855 20.7787C13.6702 20.7595 13.9492 20.7123 14.2203 20.6392C14.3515 20.6041 14.4669 20.5255 14.5478 20.4163C14.6286 20.3072 14.67 20.1738 14.6654 20.0381C14.6607 19.9023 14.6101 19.7722 14.5219 19.6688C14.4337 19.5655 14.3131 19.4951 14.1798 19.4692C13.6319 19.3577 13.1247 19.0994 12.7123 18.7219C12.2999 18.3444 11.9979 17.8619 11.8387 17.326C12.1379 17.4014 12.445 17.4453 12.7522 17.4554C13.0165 17.4543 13.2618 17.2923 13.3439 17.038C13.426 16.7838 13.3293 16.5037 13.1054 16.3552C12.5761 16.0025 12.1685 15.495 11.9383 14.902C11.7082 14.3091 11.6667 13.6595 11.8195 13.042C13.7737 15.0471 16.4124 16.2412 19.2085 16.3855C19.4065 16.3867 19.5798 16.3158 19.7002 16.1707C19.8205 16.0255 19.8667 15.8332 19.8239 15.6487C19.67 14.986 19.7389 14.2912 20.0197 13.6716C20.3006 13.052 20.7778 12.5423 21.3775 12.2213C21.9773 11.9003 22.6661 11.7859 23.3374 11.8958C24.0088 12.0058 24.6251 12.3339 25.0912 12.8294C25.161 12.9039 25.2487 12.9595 25.3459 12.9908C25.4431 13.022 25.5467 13.0281 25.6469 13.0083C25.8325 12.9712 26.0159 12.9284 26.197 12.8789C26.1154 12.94 26.0305 12.9968 25.9428 13.0488C25.8261 13.1203 25.7373 13.2293 25.6909 13.358C25.6445 13.4867 25.6434 13.6274 25.6877 13.7569C25.732 13.8863 25.819 13.9968 25.9345 14.0701C26.05 14.1435 26.187 14.1753 26.323 14.1603L26.5278 14.1344C26.415 14.2273 26.2991 14.3162 26.1802 14.401Z" fill="#6CD3AE"/>
</svg>
