<svg width="33" height="33" viewBox="0 0 33 33" fill="none" xmlns="http://www.w3.org/2000/svg">
<path d="M16.5 0.3125C13.2984 0.3125 10.1687 1.26188 7.50671 3.04059C4.84469 4.81929 2.7699 7.34743 1.54471 10.3053C0.319514 13.2632 -0.00105271 16.518 0.623546 19.658C1.24814 22.7981 2.78985 25.6824 5.05372 27.9463C7.31758 30.2102 10.2019 31.7519 13.342 32.3765C16.4821 33.0011 19.7368 32.6805 22.6947 31.4553C25.6526 30.2301 28.1807 28.1553 29.9594 25.4933C31.7381 22.8313 32.6875 19.7016 32.6875 16.5C32.6875 12.2068 30.982 8.08945 27.9463 5.05371C24.9106 2.01796 20.7932 0.3125 16.5 0.3125ZM16.5 6.09375C17.5291 6.09375 18.5351 6.39891 19.3907 6.97063C20.2464 7.54236 20.9133 8.35498 21.3071 9.30573C21.7009 10.2565 21.8039 11.3026 21.6032 12.312C21.4024 13.3213 20.9068 14.2484 20.1792 14.976C19.4515 15.7037 18.5244 16.1993 17.5151 16.4C16.5058 16.6008 15.4596 16.4977 14.5089 16.1039C13.5581 15.7101 12.7455 15.0432 12.1738 14.1876C11.602 13.3319 11.2969 12.326 11.2969 11.2969C11.2954 10.6132 11.4289 9.93588 11.6898 9.30392C11.9508 8.67196 12.334 8.09777 12.8174 7.61431C13.3009 7.13085 13.8751 6.74765 14.5071 6.48671C15.139 6.22577 15.8163 6.09223 16.5 6.09375ZM25.75 26.8137C23.2144 29.1058 19.9181 30.3748 16.5 30.3748C13.082 30.3748 9.78565 29.1058 7.25001 26.8137V26.1431C7.20622 24.56 7.78884 23.0235 8.8713 21.8674C9.95377 20.7114 11.4487 20.0291 13.0313 19.9688H19.9688C21.5442 20.032 23.032 20.7104 24.1129 21.8583C25.1938 23.0061 25.7815 24.5321 25.75 26.1084V26.8137Z" fill="#4C957A"/>
</svg>
