<svg width="159" height="189" viewBox="0 0 159 189" fill="none" xmlns="http://www.w3.org/2000/svg">
<path d="M52.4335 165.086H40.6995C43.0463 161.627 45.8624 161.627 45.8624 161.627L52.4335 165.086Z" fill="#FBEF7E"/>
<path d="M51.2601 130.494C51.2601 130.494 51.2601 137.873 50.0867 143.177C48.9133 148.482 45.8624 161.627 45.8624 161.627C45.8624 161.627 43.0463 161.627 40.6995 165.086C40.6995 165.086 43.0463 138.565 41.1688 131.416L51.2601 130.494Z" fill="#E49766"/>
<path d="M39.5255 165.086H27.7915C30.1383 161.627 32.9545 161.627 32.9545 161.627L39.5255 165.086Z" fill="#FBEF7E"/>
<path d="M38.3521 130.494C38.3521 130.494 38.3521 137.873 37.1787 143.177C36.0053 148.482 32.9544 161.627 32.9544 161.627C32.9544 161.627 30.1383 161.627 27.7915 165.086C27.7915 165.086 30.1383 138.565 28.2609 131.416L38.3521 130.494Z" fill="#E49766"/>
<path d="M22.6293 106.74H39.2915C44.2198 106.74 48.2094 102.82 48.2094 97.9767V70.5334C48.2094 65.6905 44.2198 61.77 39.2915 61.77H22.6293C17.701 61.77 13.7114 65.6905 13.7114 70.5334V97.9767C13.7114 102.82 17.701 106.74 22.6293 106.74Z" fill="#54B2D3"/>
<path d="M15.5885 88.0603C15.3538 88.0603 15.1191 87.8296 15.1191 87.599V71.2253C15.1191 66.3824 19.3434 62.6925 24.5063 62.6925H37.4137C42.342 62.6925 46.5663 66.3824 46.8009 70.7641C46.8009 70.9947 46.5663 71.2253 46.3316 71.2253C46.0969 71.2253 45.8622 70.9947 45.8622 70.7641C45.6275 66.8436 41.8727 63.615 37.4137 63.615H24.5063C19.8127 63.615 16.0579 67.0742 16.0579 71.2253V87.599C16.0579 87.8296 15.8232 88.0603 15.5885 88.0603Z" fill="#40A0BA"/>
<path d="M55.4841 132.108C51.9639 133.491 41.8727 132.338 41.8727 132.338C35.5363 134.414 22.6289 132.8 22.6289 132.8C22.6289 132.8 23.0983 110.43 22.8636 108.354C22.8636 108.354 24.5063 108.124 26.8531 107.662C28.7306 107.432 31.0774 106.971 33.8935 106.74C41.1686 106.048 50.3211 105.587 54.076 107.662L55.4841 132.108Z" fill="#1B2341"/>
<path d="M41.6387 131.646C41.6387 131.877 41.8734 131.877 41.8734 131.877C42.1081 131.877 42.1081 131.646 42.1081 131.646V117.81C42.1081 117.118 42.5775 116.426 43.0468 115.965L47.0364 113.658C47.2711 113.658 47.2711 113.428 47.2711 113.197C47.2711 112.967 47.0364 112.967 46.8017 112.967L42.8121 115.273C42.1081 115.734 41.4041 116.656 41.4041 117.579" fill="#4C6FB5"/>
<path d="M74.4932 83.6785L63.9326 107.432L58.3003 95.9012L68.6262 72.8396C68.8609 72.609 69.0956 72.609 69.3303 72.8396L74.4932 83.6785Z" fill="#6FC3BB"/>
<path d="M73.7892 85.0622L63.9326 106.971L59.239 96.8236L68.8609 75.607C69.0956 75.3764 69.3303 75.3764 69.5649 75.607L73.7892 85.0622Z" fill="#E7E6E6"/>
<path d="M55.4848 44.0125C54.546 48.3942 52.1992 53.2371 42.3427 54.6208V59.2332C42.3427 59.2332 43.0467 65.921 40.9346 65.921C38.8225 65.921 31.7821 57.8494 31.7821 57.8494L32.4861 53.4677L32.9555 51.3922L26.8538 45.3962C26.8538 45.3962 20.9868 46.7799 19.344 41.4757C17.9359 37.3246 21.2215 36.6328 22.8642 37.3246C24.0376 37.7859 25.4457 37.5552 26.3844 36.6328C27.0885 35.7103 28.0272 34.5572 28.4966 32.9429C28.9659 31.5592 29.2006 29.4837 28.7312 27.4081C28.7312 27.4081 34.8329 29.7143 35.537 21.4121C35.537 21.4121 38.1184 25.7938 42.3427 25.7938C45.6282 25.7938 45.8629 21.8734 45.8629 20.0284C45.8629 19.5672 45.8629 19.106 45.8629 19.106C45.8629 19.106 45.8629 19.5672 46.0976 20.0284C46.5669 21.6427 47.7403 24.6408 51.0258 25.102C51.2605 25.102 51.4952 25.102 51.7299 25.102C51.9645 25.7938 52.1992 26.2551 52.4339 26.9469C52.6686 27.4081 52.6686 27.8694 52.9033 28.3306C53.1379 28.7918 53.138 29.2531 53.3726 29.7143C54.0767 31.7898 54.546 34.096 55.0154 36.1715C55.4848 38.2471 55.9541 40.092 55.9541 41.7063C55.7194 42.3982 55.7194 43.3206 55.4848 44.0125Z" fill="#E49766"/>
<path d="M49.1482 38.478C48.9135 38.478 48.9135 38.2474 48.9135 38.2474C48.9135 38.2474 48.6788 36.8637 47.7401 36.8637C46.5667 36.8637 45.8627 38.0168 45.8627 38.2474C45.8627 38.478 45.628 38.478 45.628 38.478C45.3933 38.478 45.3933 38.2474 45.3933 38.2474C45.3933 38.2474 46.332 36.6331 47.7401 36.6331C49.1482 36.6331 49.3829 37.7861 49.3829 38.478C49.3829 38.478 49.3829 38.478 49.1482 38.478Z" fill="#CC7544"/>
<path d="M47.5053 42.1676C44.9238 42.1676 43.0464 40.3227 43.0464 40.3227C42.8117 40.0921 42.8117 40.0921 43.0464 39.8614C43.2811 39.6308 43.281 39.6308 43.5157 39.8614C43.7504 40.0921 47.2706 43.5513 51.0255 40.0921C51.2602 40.0921 51.2602 40.0921 51.4948 40.0921C51.7295 40.3227 51.4948 40.3227 51.4948 40.5533C50.0868 41.937 48.6787 42.1676 47.5053 42.1676Z" fill="#CC7544"/>
<path d="M42.3426 54.3902V58.08C40.2305 57.8494 38.8225 56.0045 38.1184 54.6208C37.8837 54.1596 38.3531 53.4677 39.0571 53.6983C40.4652 54.1596 42.3426 54.3902 42.3426 54.3902Z" fill="#CC7544"/>
<path d="M35.7713 41.4756C37.3266 41.4756 38.5874 40.2366 38.5874 38.7082C38.5874 37.1798 37.3266 35.9408 35.7713 35.9408C34.2159 35.9408 32.9551 37.1798 32.9551 38.7082C32.9551 40.2366 34.2159 41.4756 35.7713 41.4756Z" fill="#EB7F41"/>
<path d="M55.4844 41.245C55.2497 41.4756 55.015 41.4756 54.5457 41.4756C52.9029 41.4756 51.7295 40.0919 51.7295 38.7082C51.7295 37.0939 52.9029 35.9408 54.5457 35.9408C55.015 37.7857 55.4844 39.8613 55.4844 41.245Z" fill="#EB7F41"/>
<path d="M39.995 34.096C40.9023 34.096 41.6378 33.3733 41.6378 32.4817C41.6378 31.5902 40.9023 30.8674 39.995 30.8674C39.0878 30.8674 38.3523 31.5902 38.3523 32.4817C38.3523 33.3733 39.0878 34.096 39.995 34.096Z" fill="#1B2341"/>
<path d="M51.2604 34.096C52.1677 34.096 52.9032 33.3733 52.9032 32.4817C52.9032 31.5902 52.1677 30.8674 51.2604 30.8674C50.3532 30.8674 49.6177 31.5902 49.6177 32.4817C49.6177 33.3733 50.3532 34.096 51.2604 34.096Z" fill="#1B2341"/>
<path d="M41.6381 28.3307C41.1688 27.6389 40.4647 27.4082 39.7607 26.947C39.0566 26.7164 38.1179 26.7164 37.4139 27.1776C36.7098 27.4082 36.0058 27.8695 35.5364 28.5613C35.3018 28.792 35.0671 29.0226 34.8324 29.4838C34.5977 29.7144 34.363 30.1756 34.363 30.4063C34.363 30.6369 34.363 30.6369 34.5977 30.6369C34.8324 30.6369 34.8324 30.6369 34.8324 30.6369C35.0671 30.4063 35.3018 30.1757 35.5364 29.945C35.7711 29.7144 36.0058 29.4838 36.2405 29.2532C36.7098 28.7919 37.1792 28.5613 37.8832 28.3307C38.3526 28.1001 39.0566 28.1001 39.7607 28.1001C40.4647 28.1001 40.9341 28.3307 41.6381 28.5613C41.8728 28.5613 41.8728 28.5613 41.8728 28.3307C41.8728 28.3307 41.8728 28.3307 41.6381 28.3307Z" fill="#1B2341"/>
<path d="M52.4331 28.1C52.1984 27.8694 51.9637 27.8694 51.7291 27.8694C51.2597 27.6388 50.5557 27.6388 49.8516 27.6388C49.1476 27.6388 48.6782 27.8694 47.9742 28.1C47.7395 28.1 47.7395 28.1 47.7395 27.8694V27.6388C48.2089 26.947 48.9129 26.7163 49.6169 26.2551C50.321 26.0245 51.025 26.0245 51.9637 26.2551C51.9637 26.947 52.1984 27.6388 52.4331 28.1Z" fill="#1B2341"/>
<path d="M59.7087 25.5634C59.7087 28.1002 57.5966 30.1757 55.0151 30.1757C54.0764 30.1757 53.3724 29.9451 52.6683 29.4838C52.4337 29.0226 52.4337 28.5614 52.199 28.1002C51.9643 27.6389 51.9643 27.1777 51.7296 26.7165C51.4949 26.0246 51.2603 25.3328 51.0256 24.8715C50.7909 24.8715 50.5562 24.8715 50.3215 24.8715C47.2707 24.4103 46.0973 21.4123 45.3933 19.798C45.1586 19.3368 45.1586 18.8755 45.1586 18.8755C45.1586 18.8755 45.1586 19.3368 45.1586 19.798C45.1586 21.6429 44.9239 25.5634 41.6384 25.5634C37.4141 25.5634 34.8327 21.1817 34.8327 21.1817C34.1286 29.2532 28.0269 27.1777 28.0269 27.1777C28.2616 29.4838 28.2616 31.3288 27.7923 32.7125C27.3229 34.3268 26.6189 35.4799 25.6801 36.4023C24.7414 37.3248 23.3333 37.5554 22.1599 37.0942C20.5172 36.4023 17.2317 37.0942 18.6397 41.2453C20.2825 46.7801 26.1495 45.1657 26.1495 45.1657L32.2512 51.1617L31.7818 53.2373C29.435 53.4679 27.0882 51.8536 25.2108 49.3168C24.7414 49.5474 24.2721 49.778 23.8027 50.0087C20.5172 51.1617 16.2929 47.9331 14.4155 42.8596C12.0687 41.7065 9.72189 38.9391 8.31381 35.0186C6.43637 29.4839 7.84446 23.9491 11.3647 22.796C11.834 22.5654 12.3034 22.5654 12.7727 22.5654C12.0687 21.6429 11.834 20.2592 11.834 18.8755C11.834 15.6469 13.9461 12.8795 16.5276 12.8795C17.2317 12.8795 18.1704 13.1101 18.8744 13.5714C17.9357 8.2672 22.6293 2.96302 29.435 1.34871C36.0061 -0.265598 42.1077 2.27118 44.2199 6.65289C44.9239 6.42227 45.6279 6.19164 46.5667 6.19164C50.3215 6.19164 53.3724 9.18965 53.3724 12.8795C56.1885 12.8795 58.5353 15.1857 58.5353 17.9531C58.5353 19.3367 57.8313 20.7205 56.8926 21.6429C58.77 22.5654 59.7087 23.9491 59.7087 25.5634Z" fill="#1B2341"/>
<path d="M45.8626 19.5672C45.6279 19.5672 45.6279 19.5672 45.8626 19.5672C45.6279 18.8754 45.6279 18.6448 45.6279 18.6448C45.6279 18.6448 45.6279 19.106 45.8626 19.5672Z" fill="#020203"/>
<path d="M53.8417 107.432C50.0868 105.356 41.169 105.818 33.6592 106.509C31.0777 106.74 28.7309 107.201 26.6188 107.432C24.272 107.893 22.6292 108.124 22.6292 108.124C19.8131 103.05 19.3437 71.6865 20.7518 66.3823C22.1599 61.0781 31.5471 57.6189 31.5471 57.6189C31.5471 57.6189 38.5875 65.6904 40.6996 65.6904C42.8117 65.6904 42.1077 59.0026 42.1077 59.0026V58.0802C45.1585 59.6945 47.9747 61.77 47.9747 61.77C47.9747 62.0006 48.2094 62.0006 48.2094 62.0006C49.1481 63.6149 50.0868 66.8435 51.0255 70.9946C51.7296 74.4539 52.4336 78.3743 52.903 82.5254C53.1377 83.9091 53.3723 85.0622 53.3723 86.4459C54.3111 94.9786 55.0151 102.589 55.2498 103.973C55.7191 107.432 53.8417 107.432 53.8417 107.432Z" fill="#E7E6E6"/>
<path d="M34.1285 69.1497C34.1285 73.0702 32.4857 81.1417 31.7817 84.1397C31.547 79.5274 30.6083 69.8416 28.9655 67.0742C26.8534 63.1537 22.1598 64.3068 21.6904 65.4599C20.9864 66.6129 20.2823 67.9966 19.813 69.3803C20.0477 67.5354 20.517 64.3068 23.5679 62.0006C28.0268 58.3108 34.1285 64.0762 34.1285 69.1497Z" fill="#72BFE2"/>
<path d="M54.7803 70.3026C54.7803 70.9945 54.7803 71.917 54.5456 72.8394C54.3109 75.8374 53.6069 79.7579 52.9028 82.5253C52.4335 78.6048 51.7294 74.4537 51.0254 70.9945C50.3214 66.8434 49.3826 63.6148 48.2092 62.0005C51.7294 62.923 54.7803 66.8434 54.7803 70.3026Z" fill="#72BFE2"/>
<path d="M57.3622 85.2926L53.3727 86.4457C53.138 85.062 53.138 83.9089 52.9033 82.5252C53.6074 79.7578 54.3114 75.8374 54.5461 72.8394L58.0663 83.9089C58.3009 84.6008 58.0663 85.062 57.3622 85.2926Z" fill="#D6D7D7"/>
<path d="M74.4936 83.6784L63.933 107.432L47.9748 100.513L47.036 100.052C46.5667 99.8215 46.332 99.1297 46.5667 98.6684L56.4232 76.7599C56.6579 76.2987 57.362 76.0681 57.8313 76.2987L58.77 76.7599L74.4936 83.6784Z" fill="#6FC3BB"/>
<path d="M63.8721 107.35L74.4331 83.6983L58.5308 76.8414L47.9698 100.493L63.8721 107.35Z" fill="#A3D6D6"/>
<path d="M20.9859 39.631L23.8021 41.2453C24.2715 41.4759 24.7408 41.7065 25.2102 41.9371C25.6795 42.1678 26.1489 42.3984 26.6183 42.8596C26.8529 42.8596 26.8529 42.8596 27.0876 42.8596C27.0876 42.629 27.0876 42.629 27.0876 42.629C26.6182 42.1678 26.3836 41.9372 25.9142 41.4759C25.4448 41.0147 24.9755 40.7841 24.5061 40.5535C24.0368 40.3228 23.5674 40.0922 23.098 39.8616C22.6287 39.631 22.1593 39.4004 21.4553 39.4004C21.2206 39.4004 21.2206 39.4004 21.2206 39.631C20.7512 39.631 20.9859 39.631 20.9859 39.631Z" fill="#CC7544"/>
<path d="M31.7815 85.5233C31.7815 85.9845 31.5468 86.4457 30.8427 86.6763H30.1387L21.6902 88.5213L19.3434 88.9825C18.6394 89.2131 17.9354 88.7519 17.9354 88.06C17.466 79.7579 17.7007 73.7618 19.5781 68.9189C20.0475 67.5352 20.7515 66.1515 21.4556 64.9985C22.1596 64.076 26.6185 62.6923 28.7306 66.6128C30.3734 69.6108 31.3121 79.066 31.5468 83.6783C31.7815 84.6008 31.7815 85.062 31.7815 85.5233Z" fill="#D8D8D8"/>
<path d="M57.8315 91.2888C55.954 94.2868 50.7911 94.5174 50.7911 94.5174C50.7911 94.5174 28.4965 100.283 25.2109 98.2072C23.0988 96.8235 21.9254 91.75 21.4561 88.9826L30.1392 86.6764L30.8433 90.3663C32.9554 88.5214 50.087 88.9826 50.087 88.9826C49.6177 85.5234 52.9032 83.4478 54.0766 83.6784C55.0153 83.909 52.9032 86.4458 52.9032 86.6764C56.8927 84.1397 60.1783 85.0621 61.3517 86.9071C62.0557 88.752 57.8315 91.2888 57.8315 91.2888Z" fill="#E49766"/>
<path d="M26.3838 95.209C26.3838 95.209 26.1492 95.209 26.3838 95.209C26.1492 94.9784 26.1492 94.9784 26.1492 94.7478C26.3839 94.5172 28.7306 91.0579 30.6081 90.3661C30.8428 90.3661 30.8428 90.3661 30.8428 90.5967C30.8428 90.8273 30.8428 90.8273 30.6081 90.8273C28.9653 91.5192 26.3838 94.9784 26.3838 94.9784C26.6185 94.9784 26.3838 95.209 26.3838 95.209Z" fill="#CC7544"/>
<path d="M156.162 164.394C149.121 166.008 142.316 167.853 135.51 169.467C132.459 170.159 129.643 170.851 126.592 171.773C124.011 172.465 120.96 172.696 119.082 174.08C117.44 175.233 116.97 177.078 116.501 178.461C115.797 180.768 115.797 184.457 118.144 186.533C119.082 186.533 121.429 186.533 124.949 185.38L157.335 174.771C157.335 174.771 158.743 173.157 155.693 173.388H152.172L153.111 167.622L157.57 165.547C157.57 165.547 158.978 164.855 157.805 163.933C157.335 163.933 156.866 164.163 156.162 164.394Z" fill="#009BC8"/>
<path d="M1.74237 169.698C1.74237 169.698 -1.77783 175.925 2.91577 181.921L117.44 186.302C117.44 186.302 117.674 186.302 118.144 186.302C115.562 183.996 115.797 180.537 116.501 178.231C116.97 176.617 117.44 175.002 119.082 173.849C119.317 173.619 119.317 173.619 119.552 173.619C106.175 172.927 22.8636 169.929 1.74237 169.698C1.74237 169.467 1.74237 169.467 1.74237 169.698Z" fill="#0097CE"/>
<path d="M157.805 163.933L37.414 163.01C37.414 163.01 4.79345 167.853 1.97729 169.467C22.8638 169.929 106.175 172.927 119.787 173.618C121.664 172.465 124.48 172.235 126.827 171.774C129.643 171.082 132.694 170.39 135.745 169.467C142.551 167.853 149.356 166.008 156.397 164.394C156.866 164.163 157.335 164.163 157.805 163.933Z" fill="#00B1E3"/>
<path d="M153.111 174.08C153.111 174.08 151.703 168.315 154.988 166.7L123.307 174.311C123.307 174.311 120.021 175.002 119.552 180.307C119.552 180.307 118.613 185.38 123.072 183.996L153.111 174.08Z" fill="#E1E1F0"/>
<path d="M118.849 177.539L149.122 169.929L118.849 178.231V177.539Z" fill="#9D9DB9"/>
<path d="M118.849 176.617L146.306 170.159L118.849 177.078V176.617Z" fill="#9D9DB9"/>
<path d="M118.849 178.231L150.296 170.39L118.849 178.923V178.231Z" fill="#9D9DB9"/>
<path d="M117.91 179.615L151.234 170.851L118.144 180.076L117.91 179.615Z" fill="#9D9DB9"/>
<path d="M117.91 180.307L149.591 171.774L118.144 180.998L117.91 180.307Z" fill="#9D9DB9"/>
<path d="M117.91 181.46L145.602 173.619L118.144 181.921L117.91 181.46Z" fill="#9D9DB9"/>
<path d="M117.91 182.382L149.591 173.388L118.144 183.074L117.91 182.382Z" fill="#9D9DB9"/>
<path d="M117.91 183.535L151.234 173.849L118.144 184.227L117.91 183.535Z" fill="#9D9DB9"/>
<path d="M6.43637 148.251C11.834 150.096 17.2316 151.941 22.864 153.555C25.2108 154.247 27.7922 155.169 30.139 155.861C32.2512 156.553 34.8326 156.784 36.4754 158.398C37.8835 159.782 38.1182 161.857 38.5875 163.472C39.2916 166.008 39.2916 170.159 37.1794 172.696C36.2407 172.696 34.3633 172.696 31.5471 171.543L5.49764 159.782C5.49764 159.782 4.55892 158.167 6.90572 158.167H9.4872L8.78317 151.941L5.26297 149.865C5.26297 149.865 4.08957 149.173 5.26297 148.02C5.73233 147.79 5.96701 148.02 6.43637 148.251Z" fill="#72BFE2"/>
<path d="M143.959 151.71C143.959 151.71 147.479 159.551 142.786 167.161L37.8837 172.696C37.8837 172.696 37.649 172.696 37.4144 172.927C39.5265 170.39 39.2918 166.239 38.8224 163.702C38.3531 162.088 38.1184 160.012 36.7103 158.629C36.4757 158.398 36.4756 158.398 36.241 158.167C47.7403 157.476 123.307 152.633 143.959 151.48C143.724 151.48 143.959 151.71 143.959 151.71Z" fill="#36548A"/>
<path d="M5.26221 147.559L108.991 143.869C108.991 143.869 140.907 149.173 143.489 151.249C122.837 152.171 47.2699 157.014 35.7706 157.937C34.1279 156.784 31.7811 156.553 29.9036 155.861C27.5568 155.169 24.9753 154.247 22.6285 153.555C17.2309 151.71 11.8333 149.865 6.20093 148.251C6.20093 148.02 5.73157 147.79 5.26221 147.559C5.26221 147.79 5.26221 147.79 5.26221 147.559Z" fill="#486EB5"/>
<path d="M8.78234 158.859C8.78234 158.859 9.72107 152.402 7.37427 150.788L32.9544 158.859C32.9544 158.859 35.7705 159.782 36.0052 165.778C36.0052 165.778 36.7093 171.543 33.1891 169.929L8.78234 158.859Z" fill="#EBEFE1"/>
<path d="M36.7098 163.241L12.0684 154.478L36.7098 162.78V163.241Z" fill="#B2B89C"/>
<path d="M37.4142 165.547L10.6606 155.4L37.6489 165.086L37.4142 165.547Z" fill="#B2B89C"/>
<path d="M100.542 130.724L115.093 134.183L129.643 130.724C131.52 134.875 133.632 142.716 131.285 147.328C129.173 151.48 120.49 150.326 115.093 149.865C109.695 150.326 101.012 151.48 98.8997 147.328C96.5529 142.716 98.665 135.798 100.542 130.724Z" fill="#2F476F"/>
<path d="M105.471 57.1577C107.583 55.5433 111.573 55.3127 114.154 55.3127C118.144 55.5434 123.072 56.2352 125.419 59.925C127.062 62.4618 128.704 65.2292 128.235 68.2272C128 70.0722 128 72.1477 127.531 73.762C128.235 73.5314 128.939 72.8395 129.643 73.3008C130.582 73.762 131.051 74.6845 130.582 75.3763C129.643 78.1437 127.766 78.6049 125.419 78.6049C125.419 78.6049 124.246 80.9111 124.011 81.1417C123.541 81.8336 122.603 82.5254 121.899 83.2173C120.021 84.601 118.144 85.5234 116.032 85.7541C116.032 87.599 115.562 88.2908 116.032 89.2133C116.266 89.9051 117.205 90.1357 117.44 90.8276C117.674 91.5194 116.266 96.3624 115.562 96.593C113.92 97.2848 110.165 91.75 111.573 90.597C112.511 89.6745 112.277 87.599 111.807 85.9846C108.991 85.754 108.522 85.5234 106.879 85.0622C105.94 84.601 105.706 84.601 104.767 84.3703C104.063 84.1397 102.42 82.9866 102.42 82.9866C101.716 83.4479 98.4307 82.9867 97.0226 81.1417C96.0839 79.758 96.5533 76.9906 98.9001 77.9131C98.6654 75.8375 98.4307 73.762 98.196 71.6865C97.9613 69.1497 98.4307 66.8435 98.6654 64.5374C98.9 62.2312 100.777 58.772 103.359 58.0801L105.471 57.1577Z" fill="#B47567"/>
<path d="M97.9613 101.436C99.3694 99.3602 102.89 99.8214 105.94 99.5908C107.583 99.3602 107.349 100.052 108.991 100.744C110.165 101.205 112.277 101.666 113.45 101.666C115.797 101.436 116.736 99.5908 117.909 98.2071C117.909 97.9765 116.501 95.6704 116.501 95.4397C124.011 94.9785 130.347 92.6723 135.745 87.3682C138.796 84.3702 141.142 80.4497 142.081 76.5292C142.785 73.5312 143.959 70.3026 144.193 67.3046C144.663 61.3086 145.367 51.3921 145.601 51.1614C148.418 50.9308 147.479 56.0044 147.713 59.4636C148.183 57.3881 149.122 55.7738 149.356 53.6982C150.06 52.3145 149.826 49.0859 151.468 51.3921C152.642 52.7758 150.53 59.6942 150.295 60.6167C150.53 59.9248 153.346 55.7738 154.05 53.9288C154.754 52.5452 156.397 51.6227 155.693 53.6982C154.285 57.6187 153.815 59.0024 152.642 61.5392C153.346 60.3861 155.223 58.7718 155.927 58.0799C157.57 56.4656 157.101 59.0024 156.162 59.9248L153.346 63.8453C152.407 66.3821 152.407 66.3821 150.53 69.8413C148.887 70.5332 149.826 71.2251 149.122 73.07C148.652 74.9149 148.418 76.9904 147.713 79.066C145.132 86.6763 138.796 95.4397 130.817 98.4378C127.296 99.8214 123.541 100.744 120.021 101.436C121.664 108.585 122.603 123.114 122.603 124.497C122.368 127.034 123.072 124.959 120.725 125.189C116.736 126.112 107.348 127.034 103.359 126.803C102.655 124.267 104.298 104.895 104.298 104.895C101.482 109.046 87.6354 127.034 86.6967 127.034C85.9926 127.265 84.1152 126.112 83.4111 125.881C86.9313 120.577 94.2064 106.74 97.9613 101.436Z" fill="#B47567"/>
<path d="M148.417 67.3047C148.652 65.921 148.183 63.6148 146.775 62.4617C146.305 62.0005 145.601 62.2311 144.897 62.0005C144.897 60.8474 143.958 59.6943 143.489 58.7718C143.02 58.08 142.316 56.4657 141.377 56.2351C139.969 56.0045 140.673 59.2331 140.673 59.9249C140.908 61.5392 141.377 63.3842 142.316 64.7679C143.02 66.1516 144.662 68.6883 146.54 68.919C147.009 68.919 147.244 68.9189 147.713 68.6883L148.417 67.3047Z" fill="#B47567"/>
<path d="M120.256 92.2112C124.011 91.5193 127.296 89.905 131.286 88.5213C132.224 88.0601 134.336 87.1376 134.336 87.1376C134.806 87.5989 135.745 90.1357 135.979 90.8275C136.683 92.6724 137.387 93.8255 138.091 95.6704C135.51 97.2847 126.827 98.899 126.592 99.8215C126.592 99.8215 131.051 128.418 131.99 134.645C125.888 136.72 105.236 135.567 99.6038 134.414C99.6038 134.414 101.951 115.042 103.828 106.048C103.124 106.971 101.481 110.43 101.481 110.43C100.777 110.66 97.257 109.277 96.7877 108.816C95.8489 108.124 93.9715 106.74 93.7368 105.587C93.7368 105.126 95.8489 103.281 96.7877 102.128C99.1345 99.1297 104.063 92.9031 108.756 93.8255C109.695 94.0561 109.93 94.748 110.634 95.2092C111.573 95.6704 112.511 95.901 113.45 95.901C115.797 96.1317 117.674 96.1317 118.848 93.5949L120.256 92.2112Z" fill="#5077AC"/>
<path d="M117.206 90.3662C118.379 90.3662 121.43 90.5968 122.134 91.7499C123.777 94.7479 120.96 97.7459 118.379 99.1296C117.44 97.9765 116.501 97.0541 115.563 96.1316C116.267 95.6704 117.675 93.5948 117.44 92.4417L117.206 90.3662Z" fill="#23559E"/>
<path d="M111.807 90.8276C110.868 90.8276 107.818 92.2113 107.114 92.9031C105.705 94.5174 107.348 96.1317 108.522 97.5154C108.991 97.9767 112.276 100.975 112.276 100.744C112.746 100.513 114.858 97.2848 115.327 96.3623C112.981 95.9011 111.807 93.3644 111.807 90.8276Z" fill="#23559E"/>
<path d="M129.643 74.9149C130.347 74.6843 131.051 73.9925 131.285 73.07C131.755 72.1475 132.224 70.7638 131.755 69.8414C131.52 68.9189 130.816 68.6883 130.347 67.9964C131.285 67.3046 131.755 64.9985 131.755 63.8454C131.755 62.2311 130.581 61.3086 129.643 60.3861C128.939 59.4637 129.408 59.9249 129.408 58.7718C129.408 57.6187 128.704 56.6963 128 56.0044C126.592 54.6207 124.714 54.1595 122.837 54.1595C123.541 52.3146 120.021 50.7003 118.847 50.4696C117.205 50.239 115.327 50.7002 113.684 51.1615C112.511 48.1635 108.287 46.7798 105.47 48.1635C103.593 49.3166 103.124 50.9309 103.593 53.0064C102.185 52.7758 101.481 53.6983 101.716 55.082C99.8382 54.8513 97.7261 55.5432 96.5527 57.1575C95.6139 58.5412 96.0833 59.9249 96.7873 61.3086C95.3793 61.5392 94.2059 62.0004 93.7365 63.6147C93.2671 65.4597 93.5018 67.074 95.1446 68.2271C93.2671 69.3801 93.5018 73.9924 96.0833 73.7618C95.8486 75.1455 95.3793 75.8374 96.0833 77.2211C96.5527 78.3742 97.022 79.9885 98.4301 79.9885C98.4301 80.911 100.308 82.064 100.777 80.9109C101.246 79.9885 99.6035 77.9129 99.1341 77.2211C100.308 77.2211 101.012 75.1456 100.777 74.2231C100.542 72.3782 99.3688 71.9169 98.1954 70.7639C100.542 69.8414 101.012 66.6128 99.1341 64.9985C101.716 64.7678 102.654 62.0004 102.889 59.6943C103.828 60.6167 105.236 60.1555 105.94 59.0024C105.471 59.6943 105.236 61.078 105.94 61.7698C106.644 62.231 107.348 62.2311 107.817 61.5392C107.348 63.3841 110.164 63.1535 111.103 62.4617C112.042 61.5392 112.042 60.1555 111.338 59.0024C112.746 59.6943 114.154 58.5412 114.858 57.3881C116.735 59.233 119.786 58.5412 122.133 57.6187C121.898 60.3861 124.245 62.0004 126.592 62.0004C125.184 64.076 125.888 67.3046 128 68.6883C127.061 69.3801 126.592 70.7639 127.061 71.9169C127.296 73.07 127.53 72.8394 127.296 74.2231C126.592 76.5293 128 77.2211 129.408 75.1455L129.643 74.9149Z" fill="#020203"/>
<path d="M119.318 174.08C116.736 173.157 115.563 176.155 114.624 178.231C114.389 178 114.389 178 114.155 178C114.624 175.925 115.328 174.08 116.032 173.157H122.838C122.369 174.541 121.899 176.386 121.43 178.461C121.195 178.692 120.96 178.923 120.726 179.153C120.726 177.078 121.43 174.772 119.318 174.08Z" fill="#333E40"/>
<path d="M114.859 178.231C115.797 176.155 116.971 173.157 119.552 174.08C121.664 174.772 120.96 177.078 120.96 179.153C121.195 178.923 121.43 178.692 121.664 178.462C120.256 183.074 118.613 188.147 114.154 188.147C112.746 188.147 113.216 182.382 114.389 178C114.389 178 114.624 178.231 114.859 178.231Z" fill="#333E40"/>
<path d="M111.573 173.157L104.767 172.696C105.236 174.08 105.471 176.155 105.94 178C106.175 178.231 106.41 178.461 106.41 178.692C106.644 176.617 105.94 174.31 108.052 173.849C110.634 173.157 111.573 176.155 112.277 178.231C112.511 178 112.746 178 112.746 178" fill="#333E40"/>
<path d="M112.746 178.231C112.042 176.155 111.103 173.157 108.522 173.849C106.41 174.31 106.879 176.617 106.879 178.692C106.644 178.461 106.41 178.231 106.41 178C107.348 182.613 108.991 187.917 113.215 188.147C114.623 188.378 114.389 182.382 113.685 178C112.981 178.231 112.746 178.231 112.746 178.231Z" fill="#333E40"/>
<path d="M150.295 114.581C148.652 113.659 146.775 110.891 145.132 109.277C139.5 109.046 133.633 113.428 129.408 116.195C123.541 120.116 118.378 123.344 114.858 129.11L150.295 114.581Z" fill="#FEFBF3"/>
<path d="M80.3604 114.581C82.0031 113.659 83.8805 110.891 85.5233 109.277C91.1556 109.046 97.0226 113.428 101.247 116.195C107.114 120.116 112.277 123.344 115.797 129.11L80.3604 114.581Z" fill="#FEFBF3"/>
<path d="M86.6967 117.118C92.5637 119.193 98.4307 121.269 103.828 123.575C106.41 124.497 108.522 126.342 111.103 127.034C113.685 127.726 116.736 127.265 119.083 126.342C121.195 125.651 123.072 124.497 125.184 123.575C130.817 121.269 136.684 119.193 142.316 117.118L150.764 113.428C145.836 119.193 143.255 126.112 139.969 132.8C133.867 133.953 127.531 135.106 121.664 136.028C120.725 136.259 118.613 136.72 116.501 137.181C116.032 137.643 115.328 137.643 114.154 137.412C113.216 137.643 112.277 137.412 111.807 137.181C109.93 136.72 107.818 136.259 106.645 136.028C100.543 135.106 94.2065 133.953 88.3395 132.8C85.054 125.881 82.4725 119.193 77.5442 113.428L86.6967 117.118Z" fill="#1080A5"/>
<path d="M128.469 137.412C128.704 137.643 128.704 137.873 128.704 138.334C129.174 140.641 124.48 169.698 122.368 175.002C120.021 175.233 116.501 174.772 116.031 173.849C115.093 172.235 116.031 143.639 116.735 139.718C117.909 134.645 120.256 133.03 125.184 133.953C127.061 134.875 127.765 135.798 128.469 137.412Z" fill="#354A78"/>
<path d="M125.184 133.722C125.184 133.722 125.419 133.722 125.419 133.953C125.653 134.183 125.888 134.183 126.123 134.414C126.827 134.875 127.531 135.798 128 136.951C128.235 137.643 128.47 138.334 128.47 139.026C128.47 139.718 128.235 140.641 128.235 141.332C128 142.947 127.766 144.792 127.531 146.406C127.062 149.865 126.592 153.324 126.123 156.092C125.653 158.629 125.653 160.473 125.653 160.473C125.653 160.473 126.123 158.859 126.592 156.092C126.827 154.708 127.062 153.324 127.296 151.71C127.531 150.096 127.766 148.251 128 146.637C128.235 144.792 128.47 143.177 128.704 141.563C128.704 140.641 128.939 139.949 128.939 139.026C128.939 138.334 128.47 137.412 128.235 136.951C127.766 135.798 126.827 134.875 126.123 134.414C125.888 134.183 125.419 133.953 125.419 133.953C125.184 133.722 125.184 133.722 125.184 133.722Z" fill="#1D375E"/>
<path d="M101.481 136.72C101.246 136.951 101.246 137.181 101.246 137.642C100.542 139.949 103.593 169.237 105.236 174.541C107.582 175.002 111.103 174.772 111.807 173.619C112.98 172.004 113.684 143.408 113.449 139.487C113.215 137.642 112.511 135.567 110.868 134.414C110.164 133.953 109.225 133.722 108.286 133.491C107.582 133.261 106.644 133.261 105.705 133.261C104.766 133.261 104.297 133.491 103.593 133.953C102.419 134.875 101.95 135.567 101.481 136.72Z" fill="#354A78"/>
<path d="M102.655 135.106C102.655 135.106 102.655 135.336 102.655 135.106C102.42 135.336 102.185 135.567 101.95 135.798C101.716 136.028 101.481 136.49 101.246 136.951C101.246 137.181 101.012 137.412 101.012 137.643C101.012 137.873 101.012 138.104 100.777 138.565C100.777 139.718 100.777 141.102 100.777 142.716C100.777 144.1 101.012 145.714 101.012 147.328C101.246 148.943 101.246 150.326 101.481 151.941C101.716 153.555 101.95 154.708 101.95 155.861C102.185 158.167 102.655 159.782 102.655 159.782C102.655 159.782 102.655 158.167 102.42 155.861C102.185 153.555 101.95 150.326 101.716 147.328C101.481 145.714 101.481 144.33 101.246 142.716C101.012 141.332 101.012 139.949 101.012 138.796C101.012 138.565 101.012 138.334 101.012 137.873C101.012 137.643 101.246 137.412 101.246 137.181C101.481 136.72 101.716 136.49 101.716 136.028C101.95 135.798 102.185 135.567 102.185 135.336C102.655 135.336 102.655 135.106 102.655 135.106Z" fill="#1D375E"/>
<path d="M88.3389 128.879C88.1042 130.724 84.1146 130.955 84.3493 127.726C85.7574 127.495 87.4002 127.957 88.3389 128.879Z" fill="#B47567"/>
<path d="M88.3396 128.879C88.1049 128.648 87.8702 128.417 87.4008 128.417C87.1661 128.187 86.6968 128.187 86.4621 128.187C86.2274 128.187 85.758 127.956 85.5234 127.956C85.2887 127.956 84.8193 127.956 84.5846 127.956L84.8193 127.726C84.8193 128.187 84.8193 128.648 85.054 129.109C85.2887 129.57 85.5234 129.801 85.9927 129.801C86.4621 130.032 86.9315 130.032 87.4008 129.801C87.8702 129.801 88.3396 129.34 88.3396 128.879ZM88.3396 128.879C88.3396 129.34 88.1049 130.032 87.4008 130.262C86.9315 130.493 86.2274 130.493 85.758 130.493C85.2887 130.262 84.5846 130.032 84.35 129.57C84.1153 129.109 83.8806 128.417 84.1153 127.956V127.726H84.35C84.8193 127.726 85.054 127.726 85.5234 127.726C85.9927 127.726 86.2274 127.956 86.6968 127.956C87.1661 128.187 87.4008 128.187 87.6355 128.417C87.8702 128.187 88.1049 128.417 88.3396 128.879Z" fill="#9E5C49"/>
<path d="M84.8182 125.189C81.7674 124.728 84.5835 128.879 87.869 127.726C87.869 125.881 86.4609 125.189 84.5835 125.42L84.8182 125.189Z" fill="#B47567"/>
<path d="M84.3494 125.418L84.8188 125.187C85.0535 125.187 85.2882 125.187 85.5228 125.187C85.7575 125.187 85.9922 125.187 86.2269 125.187C86.4616 125.187 86.6962 125.418 86.9309 125.418C87.1656 125.418 87.1656 125.649 87.1656 125.649L87.4003 125.879C87.635 126.11 87.635 126.341 87.8696 126.341C87.8696 126.571 88.1043 126.802 88.1043 127.032V127.724V127.955H87.8696C87.635 127.955 87.1656 128.185 86.9309 128.185C86.6962 128.185 86.2269 128.185 85.9922 128.185C85.7575 128.185 85.2882 127.955 85.0535 127.955C84.8188 127.724 84.5841 127.724 84.3494 127.494C84.1147 127.263 83.8801 127.032 83.6454 126.802C83.4107 126.571 83.176 126.341 83.176 125.879C83.176 125.649 83.176 125.418 83.4107 125.418C83.6454 125.187 83.6454 125.187 83.8801 125.187C84.1148 125.187 84.5841 125.187 84.8188 125.187L84.3494 125.418ZM83.8801 125.187C83.6454 125.187 83.6454 125.418 83.6454 125.418C83.6454 125.418 83.6454 125.418 83.6454 125.649V125.879C83.6454 126.11 83.8801 126.341 84.1148 126.571C84.3494 126.802 84.5841 127.032 84.8188 127.032C85.0535 127.263 85.2882 127.263 85.5228 127.494C85.7575 127.724 85.9922 127.724 86.2269 127.724C86.4616 127.724 86.6962 127.724 86.9309 127.724C87.1656 127.724 87.4003 127.494 87.635 127.494L87.4003 127.724V127.263C87.4003 127.032 87.4003 127.032 87.1656 126.802C87.1656 126.571 86.9309 126.571 86.9309 126.341L86.6962 126.11L86.4616 125.879C86.2269 125.879 86.2269 125.649 85.9922 125.649C85.7575 125.649 85.5228 125.418 85.5228 125.418C85.2882 125.418 85.0535 125.418 85.0535 125.418H84.5841H84.1148L84.3494 125.187C84.3494 125.187 84.1148 125.187 83.8801 125.187Z" fill="#9E5C49"/>
<path d="M82.0024 121.73C80.5943 123.575 83.1758 126.112 85.992 125.189C86.4613 122.883 83.8799 122.191 82.0024 121.499V121.73Z" fill="#B47567"/>
<path d="M82.0031 121.499C82.9418 121.73 83.8805 121.961 84.8193 122.422C85.2886 122.653 85.758 123.114 85.9927 123.575C86.2273 123.806 86.2273 124.036 86.2273 124.267C86.2273 124.497 86.2273 124.728 86.2273 125.189V125.42H85.9927C85.2886 125.651 84.8193 125.65 84.1152 125.65C83.8805 125.65 83.4112 125.42 83.1765 125.42C82.9418 125.189 82.7071 125.189 82.4725 124.959C82.2378 124.728 82.0031 124.497 81.7684 124.267C81.5337 124.036 81.5338 123.806 81.2991 123.344C81.2991 123.114 81.2991 123.114 81.2991 122.883C81.2991 122.653 81.2991 122.653 81.2991 122.422C81.2991 122.191 81.5337 122.191 81.5337 121.961L81.7684 121.499H82.0031ZM81.7684 122.422C81.7684 122.653 81.7684 122.653 81.7684 122.883C81.7684 123.114 81.7684 123.114 82.0031 123.344C82.0031 123.575 82.2378 123.806 82.4725 124.036C82.7071 124.267 82.9418 124.497 83.1765 124.497C83.6459 124.728 84.1152 124.959 84.5846 124.959C85.0539 124.959 85.5233 124.959 86.2273 124.728L85.9927 124.959C85.9927 124.497 85.9926 124.036 85.758 123.806C85.5233 123.344 85.2886 123.114 84.8193 122.883C84.1152 122.422 83.1765 121.961 82.2378 121.499V121.73C82.0031 121.961 81.7684 122.191 81.7684 122.422Z" fill="#9E5C49"/>
<path d="M81.534 119.193C80.5953 120.116 81.534 122.191 83.4115 122.883C88.105 124.036 85.2889 119.424 81.534 119.193Z" fill="#B47567"/>
<path d="M83.6458 119.655C84.3499 119.885 85.0539 120.346 85.5232 121.038C85.7579 121.269 85.9926 121.73 86.2273 121.961C86.2273 122.191 86.462 122.422 86.2273 122.653C86.2273 122.883 85.9926 123.114 85.7579 123.114C85.2886 123.344 84.8192 123.344 84.5845 123.344C84.3498 123.344 83.8805 123.114 83.4111 123.114C82.7071 122.883 82.0031 122.191 81.5337 121.499C81.299 121.038 81.0643 120.808 81.299 120.346C81.299 119.885 81.5337 119.424 81.7684 119.193C82.2377 119.193 82.9418 119.424 83.6458 119.655ZM81.5337 121.269C82.0031 121.961 82.4724 122.191 83.4111 122.653C83.8805 122.653 84.1152 122.883 84.3498 122.883C84.5845 122.883 85.0539 122.883 85.2886 122.653C85.5232 122.422 85.5232 122.422 85.5232 122.191C85.5232 121.961 85.2886 121.73 85.0539 121.499C84.5845 121.038 84.1152 120.577 83.4111 120.116C82.7071 119.655 82.0031 119.424 81.5337 119.424C80.8297 119.885 81.0643 120.577 81.5337 121.269Z" fill="#9E5C49"/>
<path d="M104.298 55.5433C104.767 55.3127 106.645 54.8514 106.41 53.929C106.175 53.2371 105.002 53.4677 104.532 53.4677C103.828 53.6984 102.655 54.3902 102.42 55.0821C101.951 56.2351 103.124 56.2351 103.828 55.7739C104.063 55.7739 104.298 55.5433 104.298 55.5433Z" fill="#020203"/>
<path d="M120.257 55.5433C119.787 55.3127 117.91 54.8514 118.144 53.929C118.379 53.2371 119.553 53.4677 120.022 53.4677C120.726 53.6984 121.899 54.3902 122.134 55.0821C122.603 56.2351 121.43 56.2351 120.726 55.7739C120.491 55.7739 120.257 55.5433 120.257 55.5433Z" fill="#020203"/>
<path d="M105.941 68.4579C107.114 68.2273 106.879 66.6129 106.645 65.6904C106.41 65.2292 106.175 64.768 105.706 64.5374C105.236 64.3067 104.532 64.768 104.298 65.2292C104.063 66.3823 104.298 68.9191 105.941 68.4579Z" fill="#020203"/>
<path d="M118.613 68.4579C117.44 68.2273 117.675 66.6129 117.909 65.6904C118.144 65.2292 118.379 64.768 118.848 64.5374C119.317 64.3067 120.022 64.768 120.256 65.2292C120.491 66.3823 120.256 68.9191 118.613 68.4579Z" fill="#020203"/>
<path d="M132.928 87.5989C133.633 87.3682 134.102 87.1377 134.806 86.907C134.806 86.907 136.449 90.5969 136.918 91.9806C137.622 93.3643 138.326 94.748 138.795 96.1317C138.326 96.3623 137.153 97.0541 136.918 96.8235L132.928 87.5989Z" fill="#23559E"/>
<path d="M102.186 109.968C102.186 110.199 101.951 110.891 101.951 111.122C99.6041 111.122 90.9209 107.432 94.6758 104.895C94.6758 106.279 97.2573 107.662 98.4307 108.354C99.6041 108.815 101.482 109.277 102.186 109.507V109.968Z" fill="#23559E"/>
<path d="M105.002 77.4515C105.706 78.1434 107.349 79.5271 109.695 80.2189C113.45 81.1414 116.501 79.5271 116.97 79.2964C119.787 77.6821 120.96 75.1453 121.195 74.4535" stroke="#8A4539" stroke-miterlimit="10"/>
</svg>
