<svg width="540" height="60" viewBox="0 0 540 60" fill="none" xmlns="http://www.w3.org/2000/svg">
<path d="M9.19615 34.4397C9.19615 36.0558 8.75026 37.2924 7.85863 38.1495C6.96698 39.0022 5.68272 39.4286 4.00586 39.4286H1.2843V29.6384H4.29199C5.8402 29.6384 7.0446 30.058 7.90521 30.8973C8.76585 31.7366 9.19615 32.9174 9.19615 34.4397ZM7.51927 34.4933C7.51927 32.1495 6.4302 30.9777 4.25207 30.9777H2.87465V38.0826H4.00586C6.34813 38.0826 7.51927 36.8862 7.51927 34.4933ZM14.3398 39.5625C13.1953 39.5625 12.2992 39.2277 11.6515 38.5581C11.0083 37.8839 10.6867 36.9576 10.6867 35.779C10.6867 34.5692 10.9861 33.6183 11.585 32.9264C12.1839 32.2344 13.0067 31.8884 14.0537 31.8884C15.0252 31.8884 15.7927 32.1853 16.356 32.779C16.9194 33.3728 17.2011 34.1897 17.2011 35.2299V36.0804H12.297C12.3191 36.7991 12.5121 37.3527 12.8759 37.741C13.2397 38.125 13.752 38.3169 14.413 38.3169C14.8477 38.3169 15.2514 38.2767 15.6241 38.1964C16.0012 38.1116 16.4048 37.9732 16.8351 37.7812V39.0603C16.4536 39.2433 16.0677 39.3728 15.6773 39.4486C15.2869 39.5246 14.8411 39.5625 14.3398 39.5625ZM14.0537 33.0804C13.5569 33.0804 13.1576 33.2388 12.856 33.5558C12.5587 33.8727 12.3813 34.3348 12.3236 34.9419H15.664C15.6551 34.3304 15.5087 33.8683 15.2248 33.5558C14.9409 33.2388 14.5505 33.0804 14.0537 33.0804ZM23.9218 37.3192C23.9218 38.0424 23.6601 38.5982 23.1367 38.9866C22.6132 39.3705 21.8635 39.5625 20.8875 39.5625C19.9071 39.5625 19.1197 39.413 18.5253 39.1138V37.7545C19.3903 38.1562 20.1955 38.3571 20.9407 38.3571C21.9034 38.3571 22.3847 38.0648 22.3847 37.4799C22.3847 37.2924 22.3315 37.1361 22.225 37.0112C22.1186 36.8862 21.9433 36.7567 21.6994 36.6228C21.4553 36.4888 21.116 36.337 20.6812 36.1674C19.834 35.8371 19.2595 35.5067 18.9578 35.1764C18.6606 34.8459 18.512 34.4174 18.512 33.8907C18.512 33.2567 18.7648 32.7657 19.2706 32.4174C19.7807 32.0648 20.4728 31.8884 21.3467 31.8884C22.2117 31.8884 23.0302 32.0648 23.802 32.4174L23.2964 33.6027C22.5023 33.2723 21.8346 33.1071 21.2934 33.1071C20.4683 33.1071 20.0558 33.3437 20.0558 33.8169C20.0558 34.0491 20.1622 34.2455 20.3752 34.4062C20.5925 34.5669 21.0628 34.7879 21.7858 35.0692C22.3936 35.3058 22.835 35.5223 23.11 35.7188C23.385 35.9151 23.5891 36.1429 23.7222 36.4018C23.8553 36.6562 23.9218 36.9621 23.9218 37.3192ZM27.1824 39.4286H25.6186V32.0223H27.1824V39.4286ZM25.5255 30.0603C25.5255 29.779 25.6009 29.5625 25.7517 29.4107C25.907 29.2589 26.1266 29.1831 26.4105 29.1831C26.6855 29.1831 26.8984 29.2589 27.0493 29.4107C27.2045 29.5625 27.2821 29.779 27.2821 30.0603C27.2821 30.3281 27.2045 30.5402 27.0493 30.6964C26.8984 30.8482 26.6855 30.9241 26.4105 30.9241C26.1266 30.9241 25.907 30.8482 25.7517 30.6964C25.6009 30.5402 25.5255 30.3281 25.5255 30.0603ZM35.6399 32.0223V32.8862L34.3822 33.1205C34.4975 33.2768 34.5929 33.4688 34.6683 33.6964C34.7438 33.9241 34.7814 34.1652 34.7814 34.4196C34.7814 35.1831 34.5197 35.7835 33.9963 36.221C33.4728 36.6585 32.7519 36.8772 31.8336 36.8772C31.5986 36.8772 31.3856 36.8594 31.1948 36.8236C30.8577 37.0335 30.6891 37.279 30.6891 37.5603C30.6891 37.7299 30.7668 37.8572 30.922 37.9419C31.0817 38.0268 31.3723 38.0692 31.7937 38.0692H33.0779C33.8898 38.0692 34.5064 38.2433 34.9278 38.5915C35.3493 38.9397 35.56 39.4419 35.56 40.0982C35.56 40.9375 35.2162 41.5848 34.5286 42.0402C33.841 42.4955 32.8473 42.7233 31.5475 42.7233C30.545 42.7233 29.7797 42.5446 29.2519 42.1875C28.724 41.8304 28.46 41.3214 28.46 40.6607C28.46 40.2053 28.6019 39.8214 28.8859 39.509C29.1742 39.2009 29.5757 38.9866 30.0902 38.8661C29.8817 38.7768 29.7087 38.6339 29.5713 38.4375C29.4381 38.2366 29.3716 38.0268 29.3716 37.8081C29.3716 37.5313 29.4492 37.2969 29.6045 37.1049C29.7598 36.9129 29.9904 36.7233 30.2965 36.5357C29.915 36.3705 29.6045 36.1027 29.365 35.7321C29.1298 35.3571 29.0123 34.9197 29.0123 34.4196C29.0123 33.6161 29.2629 32.9933 29.7642 32.5514C30.2699 32.1093 30.9886 31.8884 31.9202 31.8884C32.1287 31.8884 32.346 31.9041 32.5723 31.9353C32.8029 31.9621 32.9759 31.9911 33.0913 32.0223H35.6399ZM29.8574 40.5804C29.8574 40.9197 30.0082 41.1808 30.3098 41.3638C30.6159 41.5469 31.044 41.6384 31.5941 41.6384C32.4459 41.6384 33.0802 41.5156 33.4972 41.2701C33.9142 41.0246 34.1227 40.6987 34.1227 40.2924C34.1227 39.971 34.0074 39.7411 33.7766 39.6027C33.5504 39.4688 33.1268 39.4018 32.5058 39.4018H31.3212C30.8732 39.4018 30.5161 39.5067 30.2499 39.7165C29.9882 39.9308 29.8574 40.2188 29.8574 40.5804ZM30.5295 34.4196C30.5295 34.8839 30.647 35.2411 30.8821 35.491C31.1217 35.7411 31.4632 35.8661 31.9068 35.8661C32.8118 35.8661 33.2643 35.3794 33.2643 34.4062C33.2643 33.9241 33.1512 33.5535 32.9249 33.2947C32.7031 33.0313 32.3638 32.8995 31.9068 32.8995C31.4544 32.8995 31.1105 33.0291 30.8754 33.2879C30.6448 33.5469 30.5295 33.9241 30.5295 34.4196ZM43.4851 39.4286H41.9147V34.875C41.9147 34.3035 41.7994 33.8772 41.5687 33.596C41.3425 33.3147 40.9809 33.1741 40.484 33.1741C39.8231 33.1741 39.3396 33.3705 39.0334 33.7634C38.7274 34.1563 38.5744 34.8147 38.5744 35.7388V39.4286H37.0106V32.0223H38.2349L38.4545 32.9933H38.5344C38.7562 32.6406 39.0712 32.3683 39.4793 32.1764C39.8874 31.9844 40.3399 31.8884 40.8367 31.8884C42.6023 31.8884 43.4851 32.7924 43.4851 34.6005V39.4286ZM48.875 39.5625C47.7305 39.5625 46.8344 39.2277 46.1867 38.5581C45.5435 37.8839 45.2219 36.9576 45.2219 35.779C45.2219 34.5692 45.5213 33.6183 46.1201 32.9264C46.7191 32.2344 47.5419 31.8884 48.5889 31.8884C49.5604 31.8884 50.3278 32.1853 50.8912 32.779C51.4546 33.3728 51.7363 34.1897 51.7363 35.2299V36.0804H46.8322C46.8543 36.7991 47.0473 37.3527 47.4111 37.741C47.7748 38.125 48.2872 38.3169 48.9482 38.3169C49.383 38.3169 49.7866 38.2767 50.1592 38.1964C50.5363 38.1116 50.94 37.9732 51.3703 37.7812V39.0603C50.9888 39.2433 50.6029 39.3728 50.2125 39.4486C49.8221 39.5246 49.3763 39.5625 48.875 39.5625ZM48.5889 33.0804C48.092 33.0804 47.6928 33.2388 47.3911 33.5558C47.0939 33.8727 46.9164 34.3348 46.8588 34.9419H50.1992C50.1903 34.3304 50.0439 33.8683 49.76 33.5558C49.4761 33.2388 49.0857 33.0804 48.5889 33.0804ZM55.995 39.5625C55.0767 39.5625 54.3602 39.2277 53.8457 38.5581C53.3311 37.8884 53.0738 36.9487 53.0738 35.7388C53.0738 34.5245 53.3333 33.5804 53.8524 32.9062C54.3758 32.2277 55.0989 31.8884 56.0216 31.8884C56.9887 31.8884 57.725 32.2478 58.2308 32.9665H58.3106C58.2352 32.4352 58.1975 32.0157 58.1975 31.7076V29.009H59.7679V39.4286H58.5435L58.2707 38.4576H58.1975C57.6962 39.1942 56.962 39.5625 55.995 39.5625ZM56.4142 38.2902C57.0574 38.2902 57.5255 38.1093 57.8182 37.7478C58.111 37.3817 58.2618 36.7902 58.2707 35.9733V35.7522C58.2707 34.8192 58.1199 34.1563 57.8182 33.7634C57.5165 33.3705 57.0442 33.1741 56.4009 33.1741C55.8508 33.1741 55.4271 33.3995 55.13 33.8505C54.8327 34.2969 54.6841 34.9353 54.6841 35.7657C54.6841 36.5871 54.8283 37.2143 55.1166 37.6473C55.405 38.0759 55.8375 38.2902 56.4142 38.2902ZM69.3033 31.8884C70.2216 31.8884 70.9359 32.2233 71.446 32.8929C71.9606 33.5625 72.2179 34.5022 72.2179 35.7121C72.2179 36.9263 71.9584 37.8728 71.4393 38.5514C70.9203 39.2254 70.1994 39.5625 69.2767 39.5625C68.3451 39.5625 67.622 39.2254 67.1075 38.5514H67.001L66.7148 39.4286H65.5437V29.009H67.1075V31.4866C67.1075 31.6696 67.0985 31.9419 67.0808 32.3036C67.0631 32.6652 67.0498 32.8951 67.0409 32.9933H67.1075C67.6043 32.2567 68.3363 31.8884 69.3033 31.8884ZM68.8974 33.1741C68.2675 33.1741 67.8128 33.3616 67.5333 33.7366C67.2582 34.1072 67.1163 34.7299 67.1075 35.6049V35.7121C67.1075 36.6138 67.2494 37.2679 67.5333 37.6741C67.8172 38.0759 68.2808 38.2767 68.9241 38.2767C69.4785 38.2767 69.8978 38.0558 70.1816 37.6138C70.47 37.1719 70.6142 36.5335 70.6142 35.6986C70.6142 34.0156 70.042 33.1741 68.8974 33.1741ZM72.9166 32.0223H74.62L76.1172 36.221C76.3434 36.8192 76.4943 37.3817 76.5697 37.9085H76.6229C76.6628 37.6629 76.7361 37.3661 76.8426 37.0179C76.949 36.6651 77.5124 35 78.5327 32.0223H80.2228L77.0754 40.4129C76.5031 41.9531 75.5494 42.7233 74.2141 42.7233C73.8681 42.7233 73.5309 42.6853 73.2027 42.6093V41.3638C73.4378 41.4174 73.7062 41.4442 74.0078 41.4442C74.7619 41.4442 75.2921 41.0044 75.5982 40.125L75.871 39.4286L72.9166 32.0223ZM88.6137 39.5625C87.6819 39.5625 86.9588 39.2254 86.4443 38.5514H86.3515C86.4137 39.1763 86.4443 39.5558 86.4443 39.6897V42.7233H84.8807V32.0223H86.1454C86.1803 32.1607 86.2536 32.491 86.3643 33.0134H86.4443C86.9324 32.2634 87.664 31.8884 88.6401 31.8884C89.5583 31.8884 90.2729 32.2233 90.7831 32.8929C91.2975 33.5625 91.5547 34.5022 91.5547 35.7121C91.5547 36.9219 91.2933 37.8661 90.7694 38.5447C90.2507 39.2232 89.5319 39.5625 88.6137 39.5625ZM88.2347 33.1741C87.6138 33.1741 87.1589 33.3572 86.8702 33.7233C86.5866 34.0893 86.4443 34.6741 86.4443 35.4777V35.7121C86.4443 36.6138 86.5866 37.2679 86.8702 37.6741C87.1547 38.0759 87.618 38.2767 88.2611 38.2767C88.8019 38.2767 89.2193 38.0535 89.5123 37.6071C89.8053 37.1607 89.9509 36.5246 89.9509 35.6986C89.9509 34.8683 89.8053 34.2411 89.5123 33.8169C89.2236 33.3884 88.7977 33.1741 88.2347 33.1741ZM97.976 39.4286L97.6634 38.3973H97.6106C97.2554 38.8482 96.8985 39.1563 96.5391 39.3214C96.1797 39.4821 95.718 39.5625 95.155 39.5625C94.4319 39.5625 93.8664 39.3661 93.4584 38.9733C93.0547 38.5803 92.8528 38.0246 92.8528 37.3058C92.8528 36.5424 93.1339 35.9665 93.6977 35.5781C94.2607 35.1897 95.1193 34.9777 96.2725 34.9419L97.5433 34.9018V34.5067C97.5433 34.0335 97.4326 33.6808 97.2111 33.4486C96.9939 33.2121 96.6541 33.0938 96.1933 33.0938C95.816 33.0938 95.454 33.1496 95.1082 33.2612C94.7624 33.3728 94.4294 33.5044 94.11 33.6562L93.604 32.5312C94.0035 32.3214 94.4404 32.1629 94.9157 32.0558C95.3901 31.9442 95.8381 31.8884 96.2597 31.8884C97.1958 31.8884 97.901 32.0937 98.3754 32.5045C98.8541 32.9151 99.0943 33.5602 99.0943 34.4397V39.4286H97.976ZM95.6473 38.3571C96.2154 38.3571 96.6694 38.1987 97.011 37.8817C97.3576 37.5603 97.5305 37.1116 97.5305 36.5357V35.8929L96.5851 35.9331C95.8492 35.9598 95.3126 36.0849 94.9753 36.3081C94.6423 36.5268 94.4762 36.8638 94.4762 37.3192C94.4762 37.6496 94.5733 37.9063 94.7692 38.0893C94.9642 38.2678 95.2572 38.3571 95.6473 38.3571ZM105.01 31.8884C105.325 31.8884 105.585 31.9107 105.788 31.9553L105.635 33.4219C105.413 33.3683 105.183 33.3415 104.943 33.3415C104.318 33.3415 103.81 33.5469 103.419 33.9576C103.034 34.3683 102.84 34.9018 102.84 35.5581V39.4286H101.276V32.0223H102.501L102.707 33.3281H102.787C103.031 32.8862 103.349 32.5357 103.739 32.2767C104.133 32.0179 104.557 31.8884 105.01 31.8884ZM110.373 39.5625C109.228 39.5625 108.332 39.2277 107.685 38.5581C107.041 37.8839 106.72 36.9576 106.72 35.779C106.72 34.5692 107.019 33.6183 107.618 32.9264C108.217 32.2344 109.04 31.8884 110.087 31.8884C111.059 31.8884 111.826 32.1853 112.389 32.779C112.953 33.3728 113.234 34.1897 113.234 35.2299V36.0804H108.331C108.353 36.7991 108.545 37.3527 108.909 37.741C109.273 38.125 109.785 38.3169 110.446 38.3169C110.881 38.3169 111.284 38.2767 111.657 38.1964C112.034 38.1116 112.438 37.9732 112.869 37.7812V39.0603C112.487 39.2433 112.101 39.3728 111.71 39.4486C111.32 39.5246 110.874 39.5625 110.373 39.5625ZM110.087 33.0804C109.59 33.0804 109.191 33.2388 108.889 33.5558C108.592 33.8727 108.414 34.3348 108.357 34.9419H111.697C111.688 34.3304 111.542 33.8683 111.258 33.5558C110.974 33.2388 110.583 33.0804 110.087 33.0804ZM121.486 39.4286H119.915V34.875C119.915 34.3035 119.8 33.8772 119.569 33.596C119.343 33.3147 118.981 33.1741 118.484 33.1741C117.823 33.1741 117.34 33.3705 117.034 33.7634C116.728 34.1563 116.574 34.8147 116.574 35.7388V39.4286H115.011V32.0223H116.235L116.455 32.9933H116.534C116.757 32.6406 117.072 32.3683 117.48 32.1764C117.888 31.9844 118.34 31.8884 118.837 31.8884C120.602 31.8884 121.486 32.7924 121.486 34.6005V39.4286ZM126.403 38.2902C126.784 38.2902 127.166 38.2299 127.547 38.1093V39.2947C127.374 39.3705 127.15 39.433 126.875 39.4821C126.604 39.5357 126.323 39.5625 126.03 39.5625C124.548 39.5625 123.807 38.7768 123.807 37.2053V33.2143H122.803V32.5179L123.881 31.9419L124.413 30.375H125.378V32.0223H127.474V33.2143H125.378V37.1786C125.378 37.558 125.471 37.8393 125.657 38.0223C125.848 38.2009 126.097 38.2902 126.403 38.2902ZM133.969 37.3192C133.969 38.0424 133.707 38.5982 133.183 38.9866C132.66 39.3705 131.91 39.5625 130.935 39.5625C129.954 39.5625 129.167 39.413 128.572 39.1138V37.7545C129.437 38.1562 130.242 38.3571 130.988 38.3571C131.95 38.3571 132.431 38.0648 132.431 37.4799C132.431 37.2924 132.378 37.1361 132.272 37.0112C132.165 36.8862 131.99 36.7567 131.746 36.6228C131.502 36.4888 131.163 36.337 130.728 36.1674C129.881 35.8371 129.306 35.5067 129.005 35.1764C128.707 34.8459 128.559 34.4174 128.559 33.8907C128.559 33.2567 128.811 32.7657 129.317 32.4174C129.827 32.0648 130.52 31.8884 131.394 31.8884C132.258 31.8884 133.077 32.0648 133.848 32.4174L133.343 33.6027C132.549 33.2723 131.882 33.1071 131.34 33.1071C130.515 33.1071 130.103 33.3437 130.103 33.8169C130.103 34.0491 130.209 34.2455 130.422 34.4062C130.639 34.5669 131.109 34.7879 131.832 35.0692C132.441 35.3058 132.882 35.5223 133.157 35.7188C133.432 35.9151 133.636 36.1429 133.769 36.4018C133.902 36.6562 133.969 36.9621 133.969 37.3192ZM174.133 32.5982C174.133 33.6206 173.801 34.404 173.135 34.9486C172.47 35.4933 171.522 35.7657 170.294 35.7657H169.282V39.4286H167.692V29.6384H170.494C171.709 29.6384 172.619 29.8884 173.222 30.3884C173.83 30.8884 174.133 31.625 174.133 32.5982ZM169.282 34.4196H170.127C170.944 34.4196 171.543 34.2768 171.924 33.991C172.305 33.7053 172.496 33.2589 172.496 32.6518C172.496 32.0893 172.326 31.6696 171.984 31.3929C171.643 31.1161 171.11 30.9777 170.387 30.9777H169.282V34.4196ZM179.643 31.8884C179.958 31.8884 180.218 31.9107 180.421 31.9553L180.268 33.4219C180.047 33.3683 179.816 33.3415 179.576 33.3415C178.951 33.3415 178.443 33.5469 178.053 33.9576C177.667 34.3683 177.474 34.9018 177.474 35.5581V39.4286H175.91V32.0223H177.135L177.341 33.3281H177.421C177.664 32.8862 177.982 32.5357 178.372 32.2767C178.766 32.0179 179.191 31.8884 179.643 31.8884ZM185.006 39.5625C183.862 39.5625 182.966 39.2277 182.318 38.5581C181.674 37.8839 181.353 36.9576 181.353 35.779C181.353 34.5692 181.652 33.6183 182.252 32.9264C182.851 32.2344 183.673 31.8884 184.72 31.8884C185.692 31.8884 186.459 32.1853 187.022 32.779C187.586 33.3728 187.867 34.1897 187.867 35.2299V36.0804H182.963C182.986 36.7991 183.178 37.3527 183.542 37.741C183.906 38.125 184.419 38.3169 185.08 38.3169C185.514 38.3169 185.918 38.2767 186.291 38.1964C186.667 38.1116 187.071 37.9732 187.502 37.7812V39.0603C187.12 39.2433 186.734 39.3728 186.343 39.4486C185.953 39.5246 185.507 39.5625 185.006 39.5625ZM184.72 33.0804C184.224 33.0804 183.824 33.2388 183.523 33.5558C183.225 33.8727 183.047 34.3348 182.99 34.9419H186.331C186.321 34.3304 186.175 33.8683 185.891 33.5558C185.608 33.2388 185.217 33.0804 184.72 33.0804ZM193.377 39.5625C192.445 39.5625 191.722 39.2254 191.208 38.5514H191.115C191.177 39.1763 191.208 39.5558 191.208 39.6897V42.7233H189.644V32.0223H190.909C190.944 32.1607 191.017 32.491 191.128 33.0134H191.208C191.696 32.2634 192.427 31.8884 193.404 31.8884C194.322 31.8884 195.036 32.2233 195.546 32.8929C196.061 33.5625 196.318 34.5022 196.318 35.7121C196.318 36.9219 196.057 37.8661 195.533 38.5447C195.014 39.2232 194.295 39.5625 193.377 39.5625ZM192.998 33.1741C192.377 33.1741 191.922 33.3572 191.634 33.7233C191.35 34.0893 191.208 34.6741 191.208 35.4777V35.7121C191.208 36.6138 191.35 37.2679 191.634 37.6741C191.918 38.0759 192.381 38.2767 193.025 38.2767C193.565 38.2767 193.983 38.0535 194.276 37.6071C194.569 37.1607 194.714 36.5246 194.714 35.6986C194.714 34.8683 194.569 34.2411 194.276 33.8169C193.987 33.3884 193.561 33.1741 192.998 33.1741ZM202.739 39.4286L202.427 38.3973H202.374C202.019 38.8482 201.662 39.1563 201.303 39.3214C200.943 39.4821 200.481 39.5625 199.918 39.5625C199.195 39.5625 198.63 39.3661 198.222 38.9733C197.818 38.5803 197.616 38.0246 197.616 37.3058C197.616 36.5424 197.897 35.9665 198.461 35.5781C199.024 35.1897 199.883 34.9777 201.036 34.9419L202.307 34.9018V34.5067C202.307 34.0335 202.196 33.6808 201.975 33.4486C201.757 33.2121 201.417 33.0938 200.957 33.0938C200.579 33.0938 200.217 33.1496 199.872 33.2612C199.526 33.3728 199.193 33.5044 198.873 33.6562L198.367 32.5312C198.767 32.3214 199.204 32.1629 199.679 32.0558C200.154 31.9442 200.602 31.8884 201.023 31.8884C201.959 31.8884 202.664 32.0937 203.139 32.5045C203.618 32.9151 203.858 33.5602 203.858 34.4397V39.4286H202.739ZM200.411 38.3571C200.979 38.3571 201.433 38.1987 201.774 37.8817C202.121 37.5603 202.294 37.1116 202.294 36.5357V35.8929L201.349 35.9331C200.613 35.9598 200.076 36.0849 199.739 36.3081C199.406 36.5268 199.24 36.8638 199.24 37.3192C199.24 37.6496 199.337 37.9063 199.533 38.0893C199.728 38.2678 200.021 38.3571 200.411 38.3571ZM209.773 31.8884C210.088 31.8884 210.348 31.9107 210.552 31.9553L210.398 33.4219C210.177 33.3683 209.946 33.3415 209.707 33.3415C209.081 33.3415 208.573 33.5469 208.183 33.9576C207.797 34.3683 207.604 34.9018 207.604 35.5581V39.4286H206.04V32.0223H207.265L207.471 33.3281H207.551C207.794 32.8862 208.112 32.5357 208.502 32.2767C208.897 32.0179 209.321 31.8884 209.773 31.8884ZM215.136 39.5625C213.992 39.5625 213.096 39.2277 212.448 38.5581C211.804 37.8839 211.483 36.9576 211.483 35.779C211.483 34.5692 211.782 33.6183 212.382 32.9264C212.981 32.2344 213.803 31.8884 214.85 31.8884C215.822 31.8884 216.589 32.1853 217.152 32.779C217.716 33.3728 217.997 34.1897 217.997 35.2299V36.0804H213.094C213.116 36.7991 213.309 37.3527 213.672 37.741C214.036 38.125 214.549 38.3169 215.21 38.3169C215.644 38.3169 216.048 38.2767 216.421 38.1964C216.797 38.1116 217.201 37.9732 217.632 37.7812V39.0603C217.25 39.2433 216.865 39.3728 216.474 39.4486C216.084 39.5246 215.637 39.5625 215.136 39.5625ZM214.85 33.0804C214.354 33.0804 213.954 33.2388 213.653 33.5558C213.355 33.8727 213.177 34.3348 213.12 34.9419H216.461C216.451 34.3304 216.305 33.8683 216.021 33.5558C215.738 33.2388 215.347 33.0804 214.85 33.0804ZM222.256 39.5625C221.338 39.5625 220.622 39.2277 220.107 38.5581C219.593 37.8884 219.335 36.9487 219.335 35.7388C219.335 34.5245 219.594 33.5804 220.114 32.9062C220.637 32.2277 221.36 31.8884 222.283 31.8884C223.25 31.8884 223.987 32.2478 224.492 32.9665H224.572C224.497 32.4352 224.459 32.0157 224.459 31.7076V29.009H226.029V39.4286H224.805L224.532 38.4576H224.459C223.958 39.1942 223.224 39.5625 222.256 39.5625ZM222.676 38.2902C223.319 38.2902 223.787 38.1093 224.08 37.7478C224.373 37.3817 224.523 36.7902 224.532 35.9733V35.7522C224.532 34.8192 224.381 34.1563 224.08 33.7634C223.778 33.3705 223.305 33.1741 222.662 33.1741C222.112 33.1741 221.689 33.3995 221.392 33.8505C221.094 34.2969 220.945 34.9353 220.945 35.7657C220.945 36.5871 221.09 37.2143 221.378 37.6473C221.667 38.0759 222.098 38.2902 222.676 38.2902ZM235.564 31.8884C236.483 31.8884 237.197 32.2233 237.707 32.8929C238.222 33.5625 238.479 34.5022 238.479 35.7121C238.479 36.9263 238.22 37.8728 237.701 38.5514C237.182 39.2254 236.46 39.5625 235.538 39.5625C234.606 39.5625 233.883 39.2254 233.369 38.5514H233.262L232.976 39.4286H231.805V29.009H233.369V31.4866C233.369 31.6696 233.36 31.9419 233.342 32.3036C233.324 32.6652 233.311 32.8951 233.302 32.9933H233.369C233.866 32.2567 234.598 31.8884 235.564 31.8884ZM235.159 33.1741C234.529 33.1741 234.074 33.3616 233.795 33.7366C233.519 34.1072 233.378 34.7299 233.369 35.6049V35.7121C233.369 36.6138 233.511 37.2679 233.795 37.6741C234.079 38.0759 234.542 38.2767 235.185 38.2767C235.74 38.2767 236.159 38.0558 236.443 37.6138C236.731 37.1719 236.875 36.5335 236.875 35.6986C236.875 34.0156 236.304 33.1741 235.159 33.1741ZM239.177 32.0223H240.881L242.378 36.221C242.605 36.8192 242.756 37.3817 242.831 37.9085H242.884C242.924 37.6629 242.997 37.3661 243.104 37.0179C243.21 36.6651 243.773 35 244.794 32.0223H246.484L243.337 40.4129C242.764 41.9531 241.811 42.7233 240.476 42.7233C240.13 42.7233 239.792 42.6853 239.464 42.6093V41.3638C239.699 41.4174 239.968 41.4442 240.269 41.4442C241.023 41.4442 241.554 41.0044 241.86 40.125L242.132 39.4286L239.177 32.0223ZM253.884 38.2902C254.265 38.2902 254.647 38.2299 255.028 38.1093V39.2947C254.855 39.3705 254.631 39.433 254.356 39.4821C254.085 39.5357 253.803 39.5625 253.511 39.5625C252.029 39.5625 251.288 38.7768 251.288 37.2053V33.2143H250.284V32.5179L251.362 31.9419L251.894 30.375H252.859V32.0223H254.955V33.2143H252.859V37.1786C252.859 37.558 252.952 37.8393 253.138 38.0223C253.329 38.2009 253.578 38.2902 253.884 38.2902ZM259.72 39.5625C258.575 39.5625 257.679 39.2277 257.031 38.5581C256.388 37.8839 256.067 36.9576 256.067 35.779C256.067 34.5692 256.365 33.6183 256.964 32.9264C257.563 32.2344 258.387 31.8884 259.433 31.8884C260.404 31.8884 261.172 32.1853 261.736 32.779C262.299 33.3728 262.581 34.1897 262.581 35.2299V36.0804H257.676C257.698 36.7991 257.892 37.3527 258.255 37.741C258.619 38.125 259.132 38.3169 259.793 38.3169C260.227 38.3169 260.631 38.2767 261.004 38.1964C261.38 38.1116 261.784 37.9732 262.214 37.7812V39.0603C261.833 39.2433 261.447 39.3728 261.057 39.4486C260.667 39.5246 260.22 39.5625 259.72 39.5625ZM259.433 33.0804C258.936 33.0804 258.537 33.2388 258.236 33.5558C257.939 33.8727 257.761 34.3348 257.703 34.9419H261.043C261.035 34.3304 260.888 33.8683 260.605 33.5558C260.32 33.2388 259.93 33.0804 259.433 33.0804ZM268.962 39.4286L268.649 38.3973H268.596C268.241 38.8482 267.884 39.1563 267.525 39.3214C267.165 39.4821 266.704 39.5625 266.141 39.5625C265.418 39.5625 264.852 39.3661 264.444 38.9733C264.04 38.5803 263.839 38.0246 263.839 37.3058C263.839 36.5424 264.12 35.9665 264.684 35.5781C265.247 35.1897 266.105 34.9777 267.258 34.9419L268.529 34.9018V34.5067C268.529 34.0335 268.418 33.6808 268.197 33.4486C267.98 33.2121 267.64 33.0938 267.179 33.0938C266.802 33.0938 266.44 33.1496 266.094 33.2612C265.748 33.3728 265.415 33.5044 265.096 33.6562L264.59 32.5312C264.989 32.3214 265.426 32.1629 265.901 32.0558C266.376 31.9442 266.824 31.8884 267.246 31.8884C268.182 31.8884 268.887 32.0937 269.361 32.5045C269.84 32.9151 270.08 33.5602 270.08 34.4397V39.4286H268.962ZM266.633 38.3571C267.201 38.3571 267.655 38.1987 267.997 37.8817C268.343 37.5603 268.516 37.1116 268.516 36.5357V35.8929L267.571 35.9331C266.835 35.9598 266.298 36.0849 265.961 36.3081C265.628 36.5268 265.462 36.8638 265.462 37.3192C265.462 37.6496 265.559 37.9063 265.755 38.0893C265.95 38.2678 266.243 38.3571 266.633 38.3571ZM275.231 39.5625C274.116 39.5625 273.27 39.2366 272.688 38.5848C272.112 37.9286 271.824 36.9888 271.824 35.7657C271.824 34.5201 272.125 33.5625 272.728 32.8929C273.336 32.2233 274.212 31.8884 275.357 31.8884C276.133 31.8884 276.832 32.0335 277.453 32.3236L276.98 33.5893C276.319 33.3303 275.774 33.2009 275.343 33.2009C274.07 33.2009 273.433 34.0514 273.433 35.7522C273.433 36.5826 273.591 37.2076 273.906 37.6272C274.226 38.0424 274.691 38.25 275.304 38.25C276 38.25 276.659 38.0759 277.28 37.7277V39.1005C277 39.2656 276.701 39.3839 276.381 39.4553C276.066 39.5268 275.683 39.5625 275.231 39.5625ZM285.485 39.4286H283.914V34.875C283.914 34.3035 283.799 33.8772 283.568 33.596C283.342 33.3147 282.981 33.1741 282.483 33.1741C281.826 33.1741 281.343 33.3728 281.033 33.7701C280.727 34.163 280.573 34.8237 280.573 35.7522V39.4286H279.01V29.009H280.573V31.654C280.573 32.0781 280.547 32.5312 280.493 33.0134H280.594C280.807 32.6563 281.102 32.3794 281.479 32.1831C281.86 31.9866 282.303 31.8884 282.809 31.8884C284.593 31.8884 285.485 32.7924 285.485 34.6005V39.4286ZM290.874 39.5625C289.73 39.5625 288.834 39.2277 288.186 38.5581C287.542 37.8839 287.221 36.9576 287.221 35.779C287.221 34.5692 287.52 33.6183 288.119 32.9264C288.719 32.2344 289.541 31.8884 290.588 31.8884C291.559 31.8884 292.327 32.1853 292.89 32.779C293.453 33.3728 293.735 34.1897 293.735 35.2299V36.0804H288.831C288.853 36.7991 289.047 37.3527 289.41 37.741C289.774 38.125 290.287 38.3169 290.948 38.3169C291.382 38.3169 291.786 38.2767 292.159 38.1964C292.535 38.1116 292.939 37.9732 293.37 37.7812V39.0603C292.988 39.2433 292.602 39.3728 292.212 39.4486C291.822 39.5246 291.375 39.5625 290.874 39.5625ZM290.588 33.0804C290.092 33.0804 289.692 33.2388 289.391 33.5558C289.093 33.8727 288.915 34.3348 288.858 34.9419H292.198C292.189 34.3304 292.043 33.8683 291.759 33.5558C291.476 33.2388 291.085 33.0804 290.588 33.0804ZM299.245 31.8884C299.56 31.8884 299.819 31.9107 300.024 31.9553L299.87 33.4219C299.649 33.3683 299.418 33.3415 299.179 33.3415C298.553 33.3415 298.045 33.5469 297.655 33.9576C297.269 34.3683 297.076 34.9018 297.076 35.5581V39.4286H295.512V32.0223H296.737L296.943 33.3281H297.023C297.267 32.8862 297.583 32.5357 297.974 32.2767C298.369 32.0179 298.793 31.8884 299.245 31.8884ZM306.338 37.3192C306.338 38.0424 306.077 38.5982 305.553 38.9866C305.03 39.3705 304.28 39.5625 303.305 39.5625C302.324 39.5625 301.536 39.413 300.942 39.1138V37.7545C301.807 38.1562 302.612 38.3571 303.357 38.3571C304.32 38.3571 304.801 38.0648 304.801 37.4799C304.801 37.2924 304.748 37.1361 304.642 37.0112C304.535 36.8862 304.36 36.7567 304.116 36.6228C303.872 36.4888 303.533 36.337 303.098 36.1674C302.251 35.8371 301.676 35.5067 301.375 35.1764C301.077 34.8459 300.928 34.4174 300.928 33.8907C300.928 33.2567 301.181 32.7657 301.687 32.4174C302.197 32.0648 302.89 31.8884 303.764 31.8884C304.628 31.8884 305.447 32.0648 306.218 32.4174L305.713 33.6027C304.919 33.2723 304.252 33.1071 303.71 33.1071C302.885 33.1071 302.472 33.3437 302.472 33.8169C302.472 34.0491 302.579 34.2455 302.792 34.4062C303.009 34.5669 303.479 34.7879 304.202 35.0692C304.81 35.3058 305.252 35.5223 305.527 35.7188C305.802 35.9151 306.005 36.1429 306.139 36.4018C306.272 36.6562 306.338 36.9621 306.338 37.3192ZM347.142 39.4286V29.6384H348.733V38.0558H352.851V39.4286H347.142ZM360.89 35.7121C360.89 36.9219 360.581 37.8661 359.965 38.5447C359.348 39.2232 358.489 39.5625 357.39 39.5625C356.702 39.5625 356.094 39.4063 355.566 39.0938C355.038 38.7813 354.633 38.3326 354.348 37.7478C354.065 37.163 353.922 36.4844 353.922 35.7121C353.922 34.5111 354.229 33.5737 354.841 32.8995C355.453 32.2255 356.316 31.8884 357.429 31.8884C358.494 31.8884 359.337 32.2344 359.958 32.9264C360.579 33.6138 360.89 34.5424 360.89 35.7121ZM355.533 35.7121C355.533 37.4219 356.161 38.2767 357.416 38.2767C358.658 38.2767 359.279 37.4219 359.279 35.7121C359.279 34.0201 358.654 33.1741 357.403 33.1741C356.746 33.1741 356.269 33.3928 355.972 33.8304C355.679 34.2679 355.533 34.8951 355.533 35.7121ZM364.37 39.4286L361.575 32.0223H363.225L364.722 36.3281C364.98 37.0514 365.135 37.6362 365.188 38.0826H365.241C365.281 37.7612 365.436 37.1763 365.707 36.3281L367.204 32.0223H368.868L366.06 39.4286H364.37ZM373.2 39.5625C372.055 39.5625 371.159 39.2277 370.512 38.5581C369.869 37.8839 369.547 36.9576 369.547 35.779C369.547 34.5692 369.846 33.6183 370.445 32.9264C371.044 32.2344 371.867 31.8884 372.914 31.8884C373.885 31.8884 374.653 32.1853 375.216 32.779C375.78 33.3728 376.061 34.1897 376.061 35.2299V36.0804H371.157C371.179 36.7991 371.372 37.3527 371.736 37.741C372.099 38.125 372.612 38.3169 373.273 38.3169C373.707 38.3169 374.111 38.2767 374.484 38.1964C374.861 38.1116 375.265 37.9732 375.695 37.7812V39.0603C375.314 39.2433 374.928 39.3728 374.537 39.4486C374.147 39.5246 373.701 39.5625 373.2 39.5625ZM372.914 33.0804C372.417 33.0804 372.017 33.2388 371.716 33.5558C371.419 33.8727 371.242 34.3348 371.184 34.9419H374.524C374.515 34.3304 374.368 33.8683 374.085 33.5558C373.801 33.2388 373.41 33.0804 372.914 33.0804ZM380.319 39.5625C379.401 39.5625 378.685 39.2277 378.17 38.5581C377.656 37.8884 377.399 36.9487 377.399 35.7388C377.399 34.5245 377.658 33.5804 378.177 32.9062C378.7 32.2277 379.423 31.8884 380.347 31.8884C381.313 31.8884 382.05 32.2478 382.555 32.9665H382.635C382.56 32.4352 382.522 32.0157 382.522 31.7076V29.009H384.093V39.4286H382.869L382.595 38.4576H382.522C382.021 39.1942 381.287 39.5625 380.319 39.5625ZM380.739 38.2902C381.382 38.2902 381.85 38.1093 382.143 37.7478C382.436 37.3817 382.587 36.7902 382.595 35.9733V35.7522C382.595 34.8192 382.444 34.1563 382.143 33.7634C381.841 33.3705 381.369 33.1741 380.726 33.1741C380.175 33.1741 379.752 33.3995 379.455 33.8505C379.158 34.2969 379.009 34.9353 379.009 35.7657C379.009 36.5871 379.153 37.2143 379.441 37.6473C379.73 38.0759 380.163 38.2902 380.739 38.2902ZM393.628 31.8884C394.547 31.8884 395.26 32.2233 395.771 32.8929C396.285 33.5625 396.542 34.5022 396.542 35.7121C396.542 36.9263 396.283 37.8728 395.764 38.5514C395.245 39.2254 394.525 39.5625 393.601 39.5625C392.669 39.5625 391.946 39.2254 391.432 38.5514H391.325L391.039 39.4286H389.868V29.009H391.432V31.4866C391.432 31.6696 391.423 31.9419 391.406 32.3036C391.388 32.6652 391.375 32.8951 391.365 32.9933H391.432C391.929 32.2567 392.661 31.8884 393.628 31.8884ZM393.222 33.1741C392.592 33.1741 392.137 33.3616 391.858 33.7366C391.583 34.1072 391.441 34.7299 391.432 35.6049V35.7121C391.432 36.6138 391.574 37.2679 391.858 37.6741C392.142 38.0759 392.606 38.2767 393.249 38.2767C393.803 38.2767 394.222 38.0558 394.507 37.6138C394.795 37.1719 394.939 36.5335 394.939 35.6986C394.939 34.0156 394.367 33.1741 393.222 33.1741ZM397.242 32.0223H398.945L400.442 36.221C400.668 36.8192 400.819 37.3817 400.895 37.9085H400.948C400.988 37.6629 401.061 37.3661 401.167 37.0179C401.274 36.6651 401.837 35 402.857 32.0223H404.548L401.4 40.4129C400.828 41.9531 399.874 42.7233 398.539 42.7233C398.193 42.7233 397.856 42.6853 397.528 42.6093V41.3638C397.763 41.4174 398.031 41.4442 398.333 41.4442C399.086 41.4442 399.617 41.0044 399.923 40.125L400.195 39.4286L397.242 32.0223ZM414.149 37.3192C414.149 38.0424 413.888 38.5982 413.364 38.9866C412.841 39.3705 412.092 39.5625 411.116 39.5625C410.135 39.5625 409.347 39.413 408.753 39.1138V37.7545C409.618 38.1562 410.423 38.3571 411.168 38.3571C412.131 38.3571 412.613 38.0648 412.613 37.4799C412.613 37.2924 412.559 37.1361 412.453 37.0112C412.346 36.8862 412.171 36.7567 411.927 36.6228C411.683 36.4888 411.344 36.337 410.909 36.1674C410.062 35.8371 409.487 35.5067 409.185 35.1764C408.888 34.8459 408.74 34.4174 408.74 33.8907C408.74 33.2567 408.993 32.7657 409.498 32.4174C410.008 32.0648 410.701 31.8884 411.575 31.8884C412.439 31.8884 413.258 32.0648 414.03 32.4174L413.524 33.6027C412.73 33.2723 412.063 33.1071 411.521 33.1071C410.696 33.1071 410.283 33.3437 410.283 33.8169C410.283 34.0491 410.39 34.2455 410.603 34.4062C410.82 34.5669 411.29 34.7879 412.013 35.0692C412.621 35.3058 413.063 35.5223 413.338 35.7188C413.613 35.9151 413.817 36.1429 413.95 36.4018C414.083 36.6562 414.149 36.9621 414.149 37.3192ZM418.588 38.2902C418.969 38.2902 419.351 38.2299 419.733 38.1093V39.2947C419.56 39.3705 419.336 39.433 419.061 39.4821C418.79 39.5357 418.508 39.5625 418.216 39.5625C416.734 39.5625 415.993 38.7768 415.993 37.2053V33.2143H414.988V32.5179L416.066 31.9419L416.598 30.375H417.563V32.0223H419.659V33.2143H417.563V37.1786C417.563 37.558 417.656 37.8393 417.843 38.0223C418.033 38.2009 418.282 38.2902 418.588 38.2902ZM426.4 39.4286L426.18 38.4576H426.1C425.883 38.8013 425.573 39.0714 425.169 39.2679C424.77 39.4643 424.312 39.5625 423.798 39.5625C422.906 39.5625 422.241 39.3393 421.802 38.8929C421.363 38.4465 421.143 37.7701 421.143 36.8638V32.0223H422.72V36.5893C422.72 37.1563 422.835 37.5826 423.066 37.8683C423.297 38.1495 423.658 38.2902 424.15 38.2902C424.807 38.2902 425.288 38.0937 425.595 37.7009C425.905 37.3035 426.061 36.6406 426.061 35.7121V32.0223H427.631V39.4286H426.4ZM432.342 39.5625C431.423 39.5625 430.707 39.2277 430.193 38.5581C429.678 37.8884 429.421 36.9487 429.421 35.7388C429.421 34.5245 429.681 33.5804 430.199 32.9062C430.723 32.2277 431.446 31.8884 432.369 31.8884C433.336 31.8884 434.072 32.2478 434.578 32.9665H434.657C434.583 32.4352 434.545 32.0157 434.545 31.7076V29.009H436.115V39.4286H434.891L434.617 38.4576H434.545C434.043 39.1942 433.309 39.5625 432.342 39.5625ZM432.762 38.2902C433.405 38.2902 433.872 38.1093 434.165 37.7478C434.458 37.3817 434.609 36.7902 434.617 35.9733V35.7522C434.617 34.8192 434.467 34.1563 434.165 33.7634C433.864 33.3705 433.391 33.1741 432.748 33.1741C432.198 33.1741 431.774 33.3995 431.477 33.8505C431.18 34.2969 431.031 34.9353 431.031 35.7657C431.031 36.5871 431.176 37.2143 431.463 37.6473C431.752 38.0759 432.185 38.2902 432.762 38.2902ZM441.565 39.5625C440.42 39.5625 439.524 39.2277 438.876 38.5581C438.233 37.8839 437.912 36.9576 437.912 35.779C437.912 34.5692 438.211 33.6183 438.81 32.9264C439.408 32.2344 440.232 31.8884 441.279 31.8884C442.25 31.8884 443.017 32.1853 443.581 32.779C444.144 33.3728 444.426 34.1897 444.426 35.2299V36.0804H439.522C439.544 36.7991 439.737 37.3527 440.101 37.741C440.465 38.125 440.977 38.3169 441.638 38.3169C442.073 38.3169 442.476 38.2767 442.849 38.1964C443.226 38.1116 443.63 37.9732 444.06 37.7812V39.0603C443.678 39.2433 443.292 39.3728 442.902 39.4486C442.512 39.5246 442.066 39.5625 441.565 39.5625ZM441.279 33.0804C440.781 33.0804 440.383 33.2388 440.081 33.5558C439.784 33.8727 439.606 34.3348 439.548 34.9419H442.889C442.88 34.3304 442.734 33.8683 442.45 33.5558C442.166 33.2388 441.775 33.0804 441.279 33.0804ZM452.678 39.4286H451.107V34.875C451.107 34.3035 450.991 33.8772 450.761 33.596C450.535 33.3147 450.173 33.1741 449.676 33.1741C449.015 33.1741 448.531 33.3705 448.226 33.7634C447.92 34.1563 447.767 34.8147 447.767 35.7388V39.4286H446.203V32.0223H447.427L447.646 32.9933H447.727C447.948 32.6406 448.263 32.3683 448.671 32.1764C449.08 31.9844 449.532 31.8884 450.029 31.8884C451.794 31.8884 452.678 32.7924 452.678 34.6005V39.4286ZM457.595 38.2902C457.976 38.2902 458.358 38.2299 458.739 38.1093V39.2947C458.567 39.3705 458.343 39.433 458.067 39.4821C457.797 39.5357 457.515 39.5625 457.222 39.5625C455.74 39.5625 454.999 38.7768 454.999 37.2053V33.2143H453.994V32.5179L455.073 31.9419L455.605 30.375H456.57V32.0223H458.666V33.2143H456.57V37.1786C456.57 37.558 456.663 37.8393 456.849 38.0223C457.04 38.2009 457.289 38.2902 457.595 38.2902ZM465.161 37.3192C465.161 38.0424 464.899 38.5982 464.375 38.9866C463.852 39.3705 463.102 39.5625 462.126 39.5625C461.146 39.5625 460.359 39.413 459.764 39.1138V37.7545C460.629 38.1562 461.434 38.3571 462.18 38.3571C463.142 38.3571 463.623 38.0648 463.623 37.4799C463.623 37.2924 463.57 37.1361 463.464 37.0112C463.358 36.8862 463.182 36.7567 462.938 36.6228C462.694 36.4888 462.355 36.337 461.92 36.1674C461.072 35.8371 460.498 35.5067 460.197 35.1764C459.899 34.8459 459.75 34.4174 459.75 33.8907C459.75 33.2567 460.003 32.7657 460.509 32.4174C461.02 32.0648 461.711 31.8884 462.585 31.8884C463.45 31.8884 464.269 32.0648 465.041 32.4174L464.535 33.6027C463.741 33.2723 463.073 33.1071 462.532 33.1071C461.707 33.1071 461.295 33.3437 461.295 33.8169C461.295 34.0491 461.401 34.2455 461.614 34.4062C461.831 34.5669 462.301 34.7879 463.025 35.0692C463.633 35.3058 464.074 35.5223 464.349 35.7188C464.624 35.9151 464.828 36.1429 464.961 36.4018C465.094 36.6562 465.161 36.9621 465.161 37.3192Z" fill="#7591A2"/>
<path d="M481.097 15.0528C481.083 15.1182 481.057 15.2104 481.017 15.3296C480.977 15.4444 480.931 15.5621 480.878 15.6828C480.825 15.799 480.767 15.9073 480.704 16.0076C480.645 16.1089 480.589 16.1809 480.534 16.2235C480.517 16.2381 480.5 16.264 480.483 16.3013C480.471 16.3352 480.458 16.3735 480.444 16.4162C480.431 16.4544 480.418 16.4948 480.403 16.5374C480.391 16.5757 480.377 16.6069 480.362 16.6312C480.341 16.6675 480.307 16.7059 480.262 16.7461C480.218 16.782 480.171 16.8195 480.121 16.8588C480.073 16.8937 480.024 16.9309 479.975 16.9701C479.931 17.0059 479.891 17.0384 479.857 17.0676C479.76 17.1602 479.661 17.2571 479.562 17.3584C479.467 17.4607 479.374 17.5613 479.285 17.6602C479.273 17.6713 479.248 17.7002 479.211 17.7467C479.179 17.7898 479.158 17.8104 479.15 17.8085C479.132 17.8274 479.112 17.8345 479.091 17.8297C479.069 17.8248 479.046 17.8287 479.02 17.8413C478.966 17.8612 478.916 17.8913 478.871 17.9316C478.827 17.9674 478.78 18.0028 478.731 18.0378C478.687 18.0736 478.638 18.1037 478.582 18.1279C478.531 18.1532 478.472 18.1608 478.407 18.1507C478.324 18.2558 478.231 18.3446 478.123 18.4169C478.017 18.4892 477.906 18.5582 477.792 18.6242C477.677 18.6902 477.564 18.7589 477.454 18.8301C477.346 18.9025 477.252 18.9912 477.17 19.0963C477.108 19.11 477.041 19.1155 476.968 19.1132C476.902 19.1075 476.842 19.1216 476.789 19.1556C476.726 19.1919 476.657 19.2269 476.582 19.2604C476.507 19.2896 476.434 19.3235 476.362 19.3623C476.295 19.4021 476.227 19.4467 476.163 19.4962C476.102 19.5422 476.052 19.5951 476.012 19.6547C476.103 19.7161 476.198 19.7649 476.3 19.8011C476.405 19.8383 476.51 19.8684 476.614 19.8915C476.722 19.9156 476.831 19.9376 476.94 19.9573C477.05 19.9726 477.157 19.9919 477.261 20.015C477.378 20.041 477.486 20.0787 477.584 20.128C477.686 20.1782 477.793 20.2224 477.903 20.2605C477.966 20.2837 478.032 20.3008 478.103 20.3119C478.177 20.3239 478.251 20.3381 478.325 20.3545C478.433 20.3786 478.537 20.4109 478.638 20.4515C478.742 20.493 478.849 20.5214 478.96 20.5368C478.983 20.5925 479.017 20.65 479.058 20.7096C479.104 20.77 479.144 20.8317 479.18 20.8946C479.221 20.9585 479.253 21.0226 479.275 21.087C479.301 21.1524 479.307 21.2177 479.293 21.2831C479.282 21.3354 479.25 21.3948 479.199 21.4611C479.154 21.5241 479.099 21.5852 479.036 21.6444C478.973 21.7035 478.908 21.753 478.84 21.7928C478.771 21.8369 478.713 21.8651 478.665 21.8772C478.608 21.8875 478.529 21.888 478.426 21.8789C478.323 21.8742 478.216 21.8641 478.105 21.8488C477.995 21.8334 477.888 21.8163 477.783 21.7976C477.682 21.7798 477.599 21.7636 477.535 21.7492C477.236 21.6827 476.935 21.6022 476.634 21.5076C476.336 21.414 476.038 21.3339 475.739 21.2675C475.64 21.2453 475.539 21.2253 475.439 21.2075C475.338 21.1897 475.238 21.1697 475.139 21.1476C475.035 21.1244 474.902 21.0973 474.741 21.066C474.579 21.0346 474.417 20.9985 474.253 20.9576C474.089 20.9166 473.934 20.8727 473.784 20.8259C473.641 20.78 473.527 20.7274 473.445 20.6679L473.426 20.5677L473.328 20.546C473.275 20.4977 473.233 20.4403 473.203 20.374C473.172 20.3077 473.138 20.2453 473.101 20.1867L473.009 20.1665L473.03 20.0749C472.995 20.0077 472.968 19.9424 472.95 19.8789C472.932 19.8156 472.931 19.7467 472.948 19.6727C472.967 19.5855 472.993 19.516 473.027 19.4642C473.066 19.4132 473.111 19.3546 473.162 19.2882C473.203 19.2242 473.239 19.1636 473.27 19.1065C473.302 19.045 473.352 18.99 473.422 18.9415C473.456 18.9123 473.483 18.8888 473.505 18.8709C473.527 18.853 473.556 18.8273 473.59 18.7938C473.628 18.7473 473.681 18.7134 473.75 18.692C473.818 18.6706 473.87 18.6253 473.909 18.5559C474.112 18.5601 474.311 18.5335 474.505 18.4761C474.701 18.4144 474.873 18.3133 475.022 18.1727C475.1 18.1856 475.168 18.18 475.223 18.1557C475.283 18.1324 475.337 18.1033 475.386 18.0684C475.439 18.0301 475.491 17.9912 475.541 17.952C475.595 17.9093 475.657 17.8795 475.724 17.8625C475.79 17.8498 475.856 17.8507 475.921 17.8651C475.99 17.8806 476.058 17.8819 476.124 17.8693C476.193 17.8251 476.264 17.7836 476.335 17.7448C476.412 17.707 476.484 17.6682 476.552 17.6284C476.624 17.5896 476.691 17.5449 476.752 17.4945C476.818 17.4451 476.875 17.3849 476.927 17.3142L476.951 17.333C476.99 17.3417 477.024 17.3402 477.054 17.3286C477.088 17.3179 477.118 17.3041 477.145 17.2871C477.173 17.2657 477.199 17.2465 477.225 17.2296C477.253 17.2082 477.282 17.1918 477.311 17.1801C477.337 17.1675 477.36 17.1657 477.38 17.175C477.403 17.1798 477.426 17.1758 477.451 17.1632L477.507 17.0935C477.567 17.0701 477.643 17.0252 477.735 16.9588C477.832 16.8889 477.926 16.8116 478.018 16.7268C478.11 16.6376 478.191 16.5504 478.26 16.4651C478.333 16.3764 478.374 16.301 478.384 16.2391C478.491 16.1852 478.607 16.1105 478.733 16.0149C478.863 15.9204 478.983 15.8147 479.096 15.6979C479.213 15.5776 479.313 15.4536 479.396 15.3256C479.483 15.1943 479.539 15.0649 479.563 14.9376L479.577 14.8722C479.548 14.8383 479.546 14.7853 479.571 14.7131C479.596 14.6409 479.614 14.5809 479.624 14.5329C479.658 14.376 479.667 14.2474 479.647 14.1472C479.633 14.0437 479.609 13.9512 479.572 13.8698C479.54 13.7895 479.505 13.7108 479.467 13.6339C479.435 13.5535 479.42 13.4587 479.42 13.3492C479.382 13.2767 479.338 13.2097 479.288 13.1482C479.242 13.0877 479.191 13.0285 479.136 12.9704C479.085 12.9133 479.034 12.8541 478.984 12.7927C478.938 12.7321 478.896 12.6656 478.857 12.593C478.826 12.5723 478.776 12.5406 478.708 12.4981C478.645 12.4521 478.58 12.4079 478.512 12.3654C478.445 12.3185 478.382 12.2769 478.322 12.2407C478.261 12.2044 478.22 12.1838 478.199 12.179C478.064 12.1492 477.923 12.152 477.774 12.1875C477.627 12.2186 477.495 12.2716 477.378 12.3463C477.307 12.3396 477.241 12.3409 477.18 12.3501C477.12 12.3551 477.06 12.367 477.001 12.3859C476.949 12.4015 476.892 12.4188 476.834 12.4377C476.776 12.4523 476.713 12.461 476.644 12.464C476.565 12.5149 476.492 12.5743 476.427 12.6422C476.367 12.7111 476.306 12.7821 476.244 12.8552C476.187 12.9295 476.128 13.0031 476.066 13.0763C476.01 13.1461 475.948 13.2122 475.88 13.2748L475.867 13.3336C475.849 13.4121 475.818 13.4899 475.774 13.5668C475.736 13.6405 475.707 13.721 475.687 13.8081C475.678 13.8518 475.675 13.8945 475.68 13.9367C475.684 13.9788 475.692 14.0219 475.706 14.0659C475.625 14.144 475.553 14.2467 475.488 14.3742C475.428 14.5026 475.373 14.6389 475.324 14.7833C475.278 14.9286 475.238 15.0753 475.206 15.2235C475.179 15.3684 475.157 15.4984 475.141 15.6137C475.082 15.637 475.023 15.6651 474.966 15.6981C474.914 15.7277 474.858 15.7542 474.798 15.7775C474.743 15.8018 474.685 15.8185 474.623 15.8278C474.563 15.8371 474.497 15.834 474.428 15.8185C474.402 15.8128 474.368 15.8029 474.325 15.7889C474.289 15.7715 474.248 15.751 474.203 15.7273C474.163 15.7045 474.124 15.6823 474.088 15.6606C474.053 15.6345 474.028 15.6108 474.015 15.5895C473.998 15.5629 473.994 15.5392 474.003 15.5183C474.013 15.4975 474.014 15.4725 474.006 15.4435L473.937 15.387C473.919 15.3419 473.899 15.2872 473.877 15.2228C473.86 15.1551 473.847 15.0856 473.835 15.0145C473.823 14.9433 473.815 14.8753 473.812 14.8104C473.807 14.7455 473.81 14.6912 473.819 14.6477C473.832 14.591 473.85 14.5401 473.874 14.4951C473.897 14.45 473.916 14.3991 473.928 14.3425C473.947 14.2553 473.961 14.1693 473.971 14.0846C473.981 13.9955 473.991 13.9063 474.002 13.8173C474.048 13.7911 474.086 13.7559 474.114 13.7119C474.146 13.6687 474.184 13.6314 474.227 13.5998C474.234 13.5693 474.237 13.5449 474.237 13.5265C474.237 13.5037 474.239 13.4815 474.244 13.4596C474.254 13.4161 474.271 13.3603 474.295 13.2925C474.319 13.2204 474.347 13.1486 474.376 13.0774C474.41 13.0072 474.443 12.9391 474.475 12.8732C474.508 12.8073 474.537 12.7545 474.565 12.7148C474.571 12.7027 474.598 12.6651 474.644 12.6021C474.694 12.5401 474.747 12.4741 474.803 12.4044C474.86 12.3302 474.914 12.2643 474.962 12.2066C475.016 12.1499 475.048 12.1182 475.059 12.1114C475.092 12.0823 475.127 12.0602 475.162 12.0451C475.197 12.0258 475.23 12.001 475.26 11.971C475.289 11.9365 475.314 11.8985 475.332 11.8568C475.356 11.8118 475.376 11.7685 475.395 11.7268C475.414 11.6808 475.435 11.6374 475.457 11.5967C475.48 11.556 475.509 11.5189 475.543 11.4854L475.552 11.4463C475.558 11.4201 475.571 11.4046 475.589 11.3997C475.61 11.3905 475.632 11.3839 475.655 11.38C475.683 11.3771 475.707 11.3732 475.726 11.3683C475.746 11.3591 475.759 11.3414 475.765 11.3153C475.918 11.2168 476.068 11.1244 476.214 11.038C476.36 10.9517 476.53 10.9047 476.722 10.8973C476.765 10.8885 476.808 10.8868 476.852 10.892C476.897 10.8973 476.942 10.8982 476.989 10.8948C477.054 10.8865 477.114 10.8724 477.168 10.8524C477.227 10.8335 477.293 10.8209 477.367 10.8145C477.433 10.8018 477.498 10.8071 477.561 10.8302C477.626 10.8491 477.692 10.8547 477.762 10.8475C477.823 10.8426 477.878 10.8275 477.929 10.8022C477.981 10.7726 478.033 10.7636 478.085 10.7752C478.115 10.7819 478.137 10.7959 478.15 10.8172C478.164 10.8385 478.184 10.8521 478.209 10.8578C478.231 10.8626 478.254 10.8517 478.278 10.8251C478.306 10.7994 478.334 10.7894 478.36 10.7952C478.403 10.8049 478.443 10.8227 478.478 10.8488C478.512 10.8749 478.554 10.8933 478.602 10.9039C478.675 10.9202 478.75 10.9323 478.825 10.9399C478.901 10.9476 478.976 10.9597 479.049 10.976C479.184 11.0059 479.301 11.0503 479.402 11.1092C479.503 11.1638 479.599 11.224 479.689 11.2898C479.783 11.3565 479.875 11.4249 479.964 11.495C480.058 11.5661 480.161 11.6304 480.276 11.6879C480.298 11.7566 480.338 11.8411 480.397 11.9413C480.462 12.0424 480.527 12.1413 480.592 12.2381C480.661 12.3358 480.721 12.4246 480.771 12.5045C480.827 12.5809 480.858 12.6358 480.865 12.6692C480.869 12.6886 480.868 12.7065 480.86 12.723C480.851 12.7394 480.846 12.7543 480.843 12.7673L480.834 12.8065L480.924 12.8675C480.939 12.9211 480.944 12.9703 480.939 13.0149C480.939 13.0561 480.954 13.1005 480.984 13.1485C481.011 13.1911 481.034 13.2349 481.051 13.2799C481.074 13.3215 481.094 13.3627 481.113 13.4033C481.086 13.5481 481.072 13.7006 481.074 13.8609C481.08 14.0178 481.087 14.1704 481.096 14.3185C481.103 14.4667 481.109 14.6051 481.113 14.7339C481.122 14.8593 481.117 14.9656 481.097 15.0528Z" fill="#7591A1"/>
<path d="M494.684 37.1601C494.684 37.3192 494.621 37.4866 494.496 37.6624C494.379 37.8298 494.235 37.9846 494.059 38.1269C493.885 38.2693 493.698 38.3865 493.498 38.4785C493.299 38.5706 493.12 38.6166 492.961 38.6166C492.795 38.6166 492.629 38.5999 492.463 38.5664C492.305 38.5329 492.143 38.5161 491.976 38.5161C491.793 38.5161 491.614 38.5287 491.439 38.5539C491.273 38.579 491.103 38.5915 490.928 38.5915C490.862 38.5915 490.795 38.579 490.728 38.5539C490.67 38.5287 490.608 38.5161 490.542 38.5161C490.45 38.5161 490.387 38.5497 490.354 38.6166C490.329 38.6752 490.288 38.7045 490.229 38.7045C490.088 38.7045 489.917 38.671 489.718 38.6041C489.518 38.5287 489.323 38.491 489.131 38.491C488.899 38.491 488.678 38.5245 488.47 38.5915C488.262 38.6501 488.042 38.6794 487.809 38.6794C487.393 38.6794 486.977 38.6543 486.561 38.6041C486.146 38.5455 485.725 38.5161 485.301 38.5161C485.201 38.5161 485.097 38.5203 484.989 38.5287C484.889 38.5371 484.79 38.5413 484.69 38.5413C484.498 38.5413 484.328 38.5078 484.178 38.4409C484.028 38.3655 483.874 38.2818 483.717 38.1897C483.666 37.8047 483.642 37.428 483.642 37.0597V36.6956C483.933 36.3608 484.265 36.1389 484.64 36.0302C485.014 35.9213 485.422 35.8669 485.862 35.8669C485.954 35.8669 486.038 35.8962 486.112 35.9548C486.195 36.0051 486.283 36.0302 486.374 36.0302C486.449 36.0302 486.52 36.0176 486.586 35.9925C486.661 35.9673 486.736 35.9548 486.811 35.9548C486.935 35.9548 487.068 35.9967 487.21 36.0804C487.359 36.1641 487.505 36.2059 487.646 36.2059C487.713 36.2059 487.772 36.1892 487.821 36.1557C487.88 36.1222 487.942 36.1054 488.008 36.1054C488.083 36.1054 488.154 36.118 488.221 36.1431C488.287 36.1683 488.353 36.1808 488.42 36.1808C488.52 36.1808 488.611 36.1641 488.695 36.1305C488.786 36.0971 488.882 36.0804 488.982 36.0804C489.272 36.0804 489.552 36.118 489.818 36.1934C490.084 36.2687 490.358 36.3063 490.641 36.3063C490.783 36.3063 490.891 36.298 490.966 36.2812C491.041 36.2645 491.128 36.2059 491.227 36.1054C491.277 36.1054 491.319 36.1222 491.352 36.1557C491.386 36.1892 491.432 36.2059 491.49 36.2059C491.656 36.2059 491.826 36.1892 492.001 36.1557C492.176 36.1222 492.355 36.1054 492.537 36.1054C492.737 36.1054 492.924 36.1305 493.099 36.1808C493.282 36.231 493.477 36.2561 493.685 36.2561L493.785 36.2812L493.935 36.4319C494.026 36.4737 494.114 36.5156 494.197 36.5575C494.288 36.591 494.368 36.6328 494.434 36.6831C494.509 36.7333 494.567 36.796 494.609 36.8714C494.659 36.9467 494.684 37.043 494.684 37.1601ZM494.684 32.0123C494.684 32.1713 494.621 32.3387 494.496 32.5145C494.379 32.6819 494.235 32.841 494.059 32.9916C493.885 33.1339 493.698 33.2511 493.498 33.3432C493.299 33.4353 493.12 33.4813 492.961 33.4813C492.795 33.4813 492.629 33.4646 492.463 33.4311C492.305 33.3976 492.143 33.3808 491.976 33.3808C491.793 33.3808 491.614 33.3934 491.439 33.4185C491.273 33.4437 491.103 33.4562 490.928 33.4562C490.862 33.4562 490.795 33.4437 490.728 33.4185C490.67 33.3934 490.608 33.3808 490.542 33.3808C490.45 33.3808 490.387 33.4101 490.354 33.4688C490.329 33.5273 490.288 33.5566 490.229 33.5566C490.088 33.5566 489.917 33.5232 489.718 33.4562C489.518 33.3892 489.323 33.3557 489.131 33.3557C488.899 33.3557 488.678 33.385 488.47 33.4437C488.262 33.5022 488.042 33.5315 487.809 33.5315C487.393 33.5315 486.977 33.5064 486.561 33.4562C486.146 33.4059 485.725 33.3808 485.301 33.3808C485.201 33.3808 485.097 33.385 484.989 33.3934C484.889 33.4018 484.79 33.4059 484.69 33.4059C484.498 33.4059 484.328 33.3683 484.178 33.293C484.028 33.2176 483.874 33.1339 483.717 33.0418C483.666 32.6568 483.642 32.2802 483.642 31.9119V31.5477C483.933 31.2129 484.265 30.9952 484.64 30.8948C485.014 30.786 485.422 30.7316 485.862 30.7316C485.954 30.7316 486.038 30.7567 486.112 30.8069C486.195 30.8571 486.283 30.8823 486.374 30.8823C486.449 30.8823 486.52 30.8697 486.586 30.8446C486.661 30.8195 486.736 30.8069 486.811 30.8069C486.935 30.8069 487.068 30.8487 487.21 30.9325C487.359 31.0161 487.505 31.0581 487.646 31.0581C487.713 31.0581 487.772 31.0413 487.821 31.0078C487.88 30.9743 487.942 30.9576 488.008 30.9576C488.083 30.9576 488.154 30.9701 488.221 30.9952C488.287 31.0203 488.353 31.0329 488.42 31.0329C488.52 31.0329 488.611 31.0161 488.695 30.9827C488.786 30.9492 488.882 30.9325 488.982 30.9325C489.272 30.9325 489.552 30.9743 489.818 31.0581C490.084 31.1334 490.358 31.171 490.641 31.171C490.783 31.171 490.891 31.1626 490.966 31.1459C491.041 31.1292 491.128 31.0664 491.227 30.9576C491.277 30.9576 491.319 30.9743 491.352 31.0078C491.386 31.0413 491.432 31.0581 491.49 31.0581C491.656 31.0581 491.826 31.0413 492.001 31.0078C492.176 30.9743 492.355 30.9576 492.537 30.9576C492.737 30.9576 492.924 30.9827 493.099 31.0329C493.282 31.0832 493.477 31.1083 493.685 31.1083L493.785 31.1459L493.935 31.2966C494.026 31.3384 494.114 31.3761 494.197 31.4096C494.288 31.4431 494.368 31.4849 494.434 31.5351C494.509 31.5854 494.567 31.6482 494.609 31.7235C494.659 31.7988 494.684 31.8951 494.684 32.0123Z" fill="#7591A1"/>
<path d="M538.369 16.5289C538.373 16.7632 538.319 16.9653 538.205 17.1349C538.092 17.3045 537.967 17.4744 537.828 17.6445C537.497 17.7178 537.175 17.8162 536.86 17.9395C536.547 18.0544 536.215 18.1152 535.866 18.1219C535.649 18.1261 535.445 18.1007 535.253 18.0459C535.068 17.9824 534.872 17.9528 534.665 17.9568C534.515 17.9596 534.361 17.9752 534.204 18.0034C534.055 18.0314 533.902 18.0594 533.744 18.0876C533.594 18.1156 533.441 18.1395 533.283 18.1593C533.134 18.1705 532.984 18.1692 532.834 18.1554C532.76 18.2321 532.724 18.3166 532.726 18.4086C532.729 18.5175 532.747 18.6175 532.782 18.709C532.826 18.8002 532.848 18.8961 532.85 18.9964C532.85 19.0216 532.839 19.0511 532.815 19.0851C532.79 19.119 532.778 19.1695 532.78 19.2364C532.782 19.3536 532.809 19.4703 532.862 19.5865C532.913 19.7027 532.941 19.8236 532.943 19.9491C532.946 20.1165 532.936 20.2799 532.915 20.4394C532.893 20.5906 532.884 20.7456 532.886 20.9046C532.889 21.0469 532.904 21.1847 532.931 21.3182C532.959 21.4432 532.974 21.5769 532.977 21.7192C532.984 22.1125 532.896 22.4616 532.71 22.7666C532.533 23.0631 532.3 23.3313 532.014 23.5713C531.796 23.5084 531.566 23.446 531.324 23.3836C531.081 23.313 530.875 23.1956 530.706 23.0314C530.593 22.8159 530.543 22.5866 530.555 22.3436C530.567 22.0922 530.571 21.8578 530.567 21.6401C530.561 21.3304 530.53 21.0255 530.475 20.7251C530.419 20.4165 530.388 20.1073 530.382 19.7976C530.379 19.6386 530.389 19.4878 530.411 19.345C530.433 19.2022 530.443 19.0514 530.439 18.8924C530.437 18.725 530.409 18.579 530.357 18.4545C530.213 18.3902 530.067 18.3512 529.917 18.3373C529.767 18.3235 529.613 18.3181 529.455 18.3211C529.189 18.3262 528.927 18.3439 528.67 18.374C528.413 18.4041 528.156 18.4216 527.898 18.4266C527.548 18.4333 527.219 18.3978 526.91 18.3201C526.6 18.2423 526.29 18.127 525.98 17.9739C525.901 17.7912 525.836 17.6083 525.782 17.4251C525.728 17.2336 525.7 17.0416 525.696 16.8491C525.695 16.7822 525.702 16.6942 525.716 16.585C525.731 16.4675 525.758 16.3749 525.798 16.3072C525.83 16.2479 525.92 16.1709 526.068 16.0759C526.216 15.9809 526.376 15.8899 526.549 15.8029C526.731 15.7072 526.904 15.6244 527.069 15.5542C527.234 15.484 527.35 15.4483 527.416 15.447C527.508 15.4453 527.6 15.4602 527.691 15.4919C527.783 15.5153 527.875 15.5428 527.967 15.5746C528.059 15.5979 528.152 15.6254 528.244 15.6571C528.344 15.6802 528.444 15.6909 528.544 15.689C528.827 15.6835 529.105 15.6489 529.378 15.5849C529.66 15.5209 529.943 15.5113 530.226 15.556C530.299 15.4458 530.346 15.3235 530.369 15.1891C530.391 15.0547 530.401 14.9206 530.398 14.7867C530.396 14.6444 530.385 14.5023 530.366 14.3603C530.355 14.2182 530.348 14.0843 530.345 13.9588C530.342 13.7914 530.351 13.6239 530.374 13.456C530.395 13.2881 530.404 13.1205 530.401 12.9531C530.398 12.7941 530.37 12.6481 530.318 12.5152C530.265 12.3739 530.237 12.2195 530.234 12.0521C530.231 11.8429 530.271 11.6161 530.358 11.3716C530.445 11.1271 530.533 10.9162 530.621 10.7386C530.72 10.7116 530.819 10.672 530.918 10.6198C531.017 10.5677 531.116 10.5197 531.215 10.476C531.322 10.4237 531.426 10.3798 531.524 10.3444C531.623 10.3006 531.718 10.2779 531.81 10.2761C531.86 10.2752 531.91 10.2742 531.96 10.2732C532.01 10.2723 532.056 10.2797 532.097 10.2957L532.176 10.47C532.218 10.4692 532.254 10.4643 532.287 10.4553C532.321 10.4463 532.35 10.4415 532.375 10.441C532.425 10.4401 532.493 10.51 532.579 10.6506C532.672 10.7827 532.763 10.9359 532.85 11.11C532.944 11.284 533.027 11.454 533.096 11.6201C533.166 11.7778 533.201 11.886 533.202 11.9446C533.206 12.112 533.171 12.28 533.099 12.4489C533.028 12.6094 532.981 12.7693 532.959 12.9288C532.944 13.0295 532.946 13.1342 532.965 13.2426C532.983 13.3427 532.994 13.443 532.995 13.5435C533 13.8029 532.972 14.063 532.911 14.3237C532.849 14.5844 532.821 14.8486 532.826 15.1165C532.827 15.1667 532.827 15.217 532.829 15.2671C532.83 15.3173 532.839 15.3716 532.856 15.4299C532.948 15.4532 533.04 15.4723 533.132 15.4873C533.232 15.4937 533.328 15.4961 533.419 15.4943C533.677 15.4894 533.93 15.4594 534.179 15.4043C534.237 15.3864 534.291 15.3561 534.339 15.3133C534.397 15.262 534.447 15.2359 534.487 15.235C534.562 15.2337 534.634 15.2448 534.7 15.2686C534.768 15.2925 534.843 15.3036 534.926 15.302C535.217 15.2963 535.512 15.2865 535.811 15.2723C536.119 15.258 536.427 15.2479 536.734 15.2419C536.967 15.2374 537.196 15.2581 537.422 15.304C537.647 15.3498 537.857 15.442 538.051 15.5806C538.129 15.7382 538.198 15.8876 538.259 16.0288C538.329 16.1698 538.365 16.3365 538.369 16.5289Z" fill="#7591A1"/>
<path d="M529.443 42.3358C529.474 42.585 529.467 42.8108 529.422 43.0133C529.376 43.2018 529.314 43.3784 529.237 43.5427C529.159 43.7071 529.068 43.8732 528.963 44.0411C528.872 44.2072 528.791 44.4001 528.721 44.6199L528.427 44.6147C528.152 44.6493 527.879 44.7047 527.609 44.7808C527.339 44.8569 527.066 44.9123 526.791 44.9469C526.544 44.978 526.305 44.9659 526.075 44.9105C525.858 44.8534 525.678 44.7002 525.536 44.451C525.329 44.3645 525.126 44.3057 524.927 44.2745C524.729 44.2572 524.545 44.182 524.375 44.0487L524.349 43.841C524.325 43.6472 524.242 43.4819 524.099 43.3452C523.956 43.2085 523.852 43.0459 523.787 42.8573C523.658 42.4939 523.575 42.1106 523.539 41.7074C523.502 41.2904 523.458 40.8881 523.411 40.5005C523.367 40.1543 523.291 39.8195 523.181 39.496C523.071 39.1724 522.955 38.8565 522.832 38.5486C522.709 38.2267 522.593 37.9109 522.485 37.6012C522.389 37.2758 522.333 36.9453 522.32 36.6096C521.719 36.6148 521.128 36.6329 520.545 36.6641C519.974 36.6796 519.386 36.7254 518.781 36.8015C518.272 36.8656 517.759 36.9581 517.243 37.0792C516.74 37.1848 516.26 37.3647 515.802 37.619C515.522 37.4996 515.226 37.4243 514.915 37.3931C514.617 37.3603 514.317 37.3629 514.014 37.4009C513.698 37.4407 513.422 37.5177 513.184 37.6319C513.108 37.9226 513.088 38.2064 513.122 38.4833C513.157 38.7601 513.15 39.0422 513.101 39.3294C513.089 39.4575 513.052 39.5535 512.991 39.6175C512.94 39.6659 512.906 39.7265 512.888 39.7992C512.868 39.8718 512.871 39.9489 512.895 40.0302C512.917 40.0977 512.934 40.1729 512.944 40.256C512.954 40.3391 512.909 40.4783 512.807 40.6739C512.72 40.8677 512.664 41.0434 512.642 41.2008C512.618 41.5694 512.625 41.9621 512.663 42.3792C512.713 42.7806 512.762 43.1752 512.81 43.5628C512.82 43.6458 512.857 43.7185 512.921 43.7808C512.982 43.8293 513.018 43.8881 513.026 43.9573C513.035 44.0266 512.955 44.2264 512.786 44.5569C512.616 44.8736 512.422 45.2213 512.204 45.6003C511.998 45.9637 511.8 46.2907 511.613 46.5815C511.427 46.886 511.328 47.046 511.316 47.0616C511.223 47.1014 511.136 47.1265 511.053 47.1369C510.97 47.1473 510.888 47.1576 510.805 47.168C510.324 47.2285 509.842 47.1697 509.359 46.9914C508.877 46.827 508.439 46.6151 508.043 46.3554L508.007 46.0648C507.962 45.7049 507.89 45.3484 507.791 44.9953C507.689 44.6285 507.574 44.2703 507.448 43.9208C507.609 43.6474 507.701 43.3757 507.723 43.1057C507.746 42.8358 507.725 42.5573 507.661 42.2699C507.769 42.116 507.858 41.9922 507.93 41.8988C508.016 41.8037 508.081 41.7111 508.126 41.6211C508.171 41.5311 508.193 41.4299 508.193 41.3174C508.206 41.2032 508.201 41.0492 508.177 40.8554L508.167 40.7723L508.425 40.4868C508.434 40.3311 508.417 40.1927 508.373 40.0715C508.329 39.9365 508.297 39.793 508.278 39.6407C508.264 39.5299 508.267 39.4382 508.286 39.3655L508.523 39.0827C508.54 38.9961 508.538 38.9191 508.516 38.8516C508.492 38.7703 508.475 38.695 508.466 38.6258C508.458 38.5565 508.471 38.4986 508.508 38.4519C508.542 38.3913 508.584 38.3299 508.631 38.2676C508.68 38.2053 508.721 38.1439 508.756 38.0833C508.79 38.0228 508.803 37.9579 508.794 37.8887L508.784 37.8056C508.21 37.7934 507.66 37.8627 507.133 38.0132C506.939 37.9111 506.736 37.8029 506.527 37.6887C506.331 37.5727 506.148 37.4482 505.977 37.3149C505.807 37.1817 505.662 37.0242 505.541 36.8425C505.421 36.6608 505.345 36.4454 505.315 36.1961C505.258 35.7394 505.305 35.382 505.454 35.1242C505.604 34.8664 505.793 34.6457 506.022 34.4623C506.262 34.2634 506.518 34.0765 506.79 33.9017C507.075 33.7253 507.319 33.4908 507.52 33.1984L508.593 33.0635C508.809 32.7831 508.989 32.4863 509.132 32.1731C509.287 31.8444 509.398 31.5 509.465 31.1401C509.491 31.0103 509.495 30.8763 509.478 30.7379C509.461 30.5994 509.465 30.4653 509.491 30.3355C509.58 30.0431 509.714 29.7731 509.893 29.5257C510.07 29.2644 510.196 28.9815 510.27 28.6769C510.311 28.4468 510.303 28.2158 510.246 27.9839C510.19 27.7521 510.182 27.5211 510.223 27.2909C510.301 26.9015 510.397 26.5521 510.512 26.2423C510.628 25.9325 510.736 25.6237 510.837 25.3157C510.951 24.9921 511.033 24.6374 511.083 24.2515C511.132 23.8656 511.124 23.4028 511.056 22.8629C511.046 22.7798 511.017 22.7132 510.969 22.663C510.921 22.6128 510.892 22.5462 510.882 22.4632C510.871 22.3801 510.911 22.2485 511 22.0686C511.103 21.8869 511.168 21.7312 511.193 21.6014C511.216 21.4439 511.198 21.2986 511.139 21.1654C511.093 21.0166 511.061 20.866 511.041 20.7137C511.029 20.6168 511.078 20.3927 511.188 20.0415C511.297 19.6763 511.431 19.294 511.59 18.8942C511.749 18.4807 511.917 18.094 512.096 17.7341C512.273 17.3603 512.424 17.1094 512.548 16.9813C512.524 16.6751 512.546 16.4051 512.615 16.1715C512.682 15.924 512.764 15.6887 512.863 15.4655C512.961 15.2423 513.066 15.0182 513.177 14.7933C513.289 14.5683 513.377 14.3252 513.443 14.0639C513.635 14.0397 513.762 13.9393 513.824 13.7628C513.848 13.7317 513.888 13.7127 513.943 13.7057C514.163 13.6781 514.414 13.6677 514.694 13.6746C514.974 13.6816 515.293 13.6625 515.651 13.6175C515.967 13.5778 516.279 13.6158 516.587 13.7318C516.907 13.8322 517.202 13.9637 517.474 14.1263C517.731 14.2769 517.989 14.5538 518.248 14.957C518.521 15.3585 518.789 15.8309 519.052 16.3742C519.314 16.9037 519.567 17.4765 519.811 18.0925C520.069 18.7068 520.311 19.3091 520.538 19.8991C520.764 20.4754 520.977 21.0109 521.178 21.5058C521.377 21.9869 521.557 22.3719 521.719 22.6609C521.812 22.8461 521.924 23.0147 522.055 23.1671C522.183 23.3055 522.296 23.4811 522.392 23.6939C522.458 23.8826 522.496 24.0815 522.509 24.2909C522.521 24.5003 522.574 24.7045 522.668 24.9035C522.746 25.0765 522.834 25.2271 522.934 25.3552C523.033 25.4832 523.128 25.6259 523.217 25.7835C523.381 26.1988 523.504 26.6331 523.589 27.0864C523.671 27.526 523.827 27.9353 524.056 28.3142C524.515 29.086 524.906 29.8802 525.232 30.697C525.571 31.512 525.794 32.3556 525.902 33.2277C525.926 33.4215 526.006 33.6154 526.142 33.8092C526.156 33.9199 526.204 34.0332 526.289 34.1492C526.373 34.2651 526.465 34.3871 526.565 34.5152C526.677 34.6277 526.782 34.741 526.88 34.8552C526.991 34.9677 527.075 35.0767 527.13 35.1822C527.168 35.2619 527.251 35.4833 527.38 35.8468C527.508 36.1963 527.651 36.6211 527.811 37.1212C527.985 37.6195 528.163 38.1594 528.347 38.7408C528.53 39.3084 528.701 39.8492 528.863 40.3631C529.023 40.8632 529.153 41.2967 529.255 41.6635C529.37 42.0287 529.433 42.2527 529.443 42.3358ZM520.511 32.0075C520.464 31.7324 520.382 31.4686 520.267 31.2159C520.151 30.9633 520.023 30.7193 519.883 30.4839C519.753 30.233 519.618 29.983 519.475 29.7338C519.345 29.469 519.235 29.2017 519.145 28.9317C519.068 28.6462 519.015 28.3365 518.988 28.0025C518.974 27.6668 518.906 27.3449 518.784 27.0369C518.722 26.876 518.659 26.7644 518.596 26.7021C518.546 26.6381 518.497 26.581 518.449 26.5307C518.413 26.465 518.374 26.3854 518.335 26.2919C518.294 26.1847 518.259 26.0134 518.23 25.778C518.214 25.6535 518.165 25.5401 518.082 25.438C518.013 25.3342 517.938 25.2312 517.856 25.1291C517.773 25.0271 517.688 24.9041 517.6 24.7606C517.526 24.6152 517.477 24.4387 517.45 24.231C517.435 24.1064 517.44 23.9793 517.466 23.8495C517.49 23.7059 517.508 23.57 517.52 23.4419C517.23 23.2395 516.977 23.0041 516.762 22.7359C516.561 22.466 516.334 22.2133 516.081 21.978C515.991 22.0455 515.941 22.1432 515.929 22.2713C515.917 22.3993 515.921 22.5395 515.939 22.6918C515.956 22.8302 515.974 22.9756 515.993 23.1278C516.013 23.2801 516.008 23.4073 515.978 23.5094C515.952 23.6392 515.881 23.7465 515.766 23.8313C515.663 23.9004 515.577 23.9956 515.508 24.1168C515.453 24.2362 515.414 24.3677 515.39 24.5112C515.38 24.6532 515.317 24.7665 515.202 24.8513L515.356 26.0972C515.086 26.5107 514.879 26.9796 514.734 27.5039C514.604 28.0265 514.503 28.5664 514.433 29.1236C514.376 29.679 514.341 30.2388 514.327 30.8029C514.325 31.3515 514.326 31.8646 514.33 32.3421C514.374 32.3646 514.425 32.3793 514.481 32.3862C514.537 32.3794 514.585 32.3733 514.626 32.3681C514.86 32.3387 515.083 32.2824 515.296 32.1994C515.508 32.1025 515.731 32.0393 515.965 32.0099C516.556 31.9355 517.139 31.9044 517.714 31.9166C517.868 31.9253 518.006 31.9642 518.126 32.0334C518.259 32.0871 518.4 32.1044 518.552 32.0854C518.621 32.0767 518.673 32.049 518.709 32.0023C518.759 31.9538 518.839 31.9227 518.949 31.9089C519.169 31.8812 519.383 31.9175 519.591 32.0179C519.799 32.1183 520.013 32.1546 520.233 32.1269C520.316 32.1166 520.408 32.0768 520.511 32.0075Z" fill="#7591A1"/>
<path d="M157.596 33.51C157.612 33.7438 157.568 33.9483 157.464 34.1235C157.359 34.2987 157.242 34.4748 157.113 34.6518C156.786 34.742 156.468 34.8568 156.161 34.996C155.854 35.1268 155.525 35.2046 155.177 35.2292C154.961 35.2445 154.756 35.2296 154.561 35.1847C154.374 35.1308 154.177 35.1111 153.969 35.1258C153.82 35.1364 153.667 35.1597 153.511 35.196C153.363 35.2316 153.212 35.2675 153.056 35.3036C152.909 35.3393 152.756 35.371 152.599 35.3989C152.451 35.4177 152.301 35.4242 152.151 35.418C152.082 35.4985 152.05 35.5845 152.056 35.6764C152.064 35.7849 152.088 35.884 152.127 35.9735C152.175 36.0624 152.203 36.1569 152.209 36.2571C152.211 36.2822 152.201 36.3123 152.178 36.3475C152.156 36.3826 152.146 36.4336 152.151 36.5004C152.16 36.6173 152.192 36.7325 152.25 36.8458C152.308 36.9592 152.342 37.0785 152.351 37.2038C152.362 37.3708 152.361 37.5345 152.347 37.6949C152.333 37.847 152.331 38.0023 152.342 38.1609C152.352 38.3029 152.375 38.4398 152.409 38.5717C152.442 38.6951 152.464 38.8279 152.474 38.9698C152.501 39.3622 152.43 39.7155 152.26 40.0296C152.098 40.3347 151.88 40.6145 151.605 40.8688C151.386 40.8173 151.152 40.7666 150.907 40.7168C150.662 40.6587 150.45 40.552 150.272 40.3967C150.149 40.1873 150.088 39.9608 150.087 39.7176C150.086 39.4658 150.078 39.2315 150.063 39.0144C150.042 38.7055 149.996 38.4025 149.924 38.1054C149.853 37.7999 149.807 37.4927 149.785 37.1838C149.774 37.0251 149.776 36.8739 149.791 36.7303C149.806 36.5865 149.808 36.4353 149.797 36.2767C149.785 36.1097 149.75 35.9654 149.692 35.8436C149.546 35.7868 149.398 35.7553 149.247 35.7492C149.097 35.743 148.943 35.7455 148.785 35.7566C148.52 35.7755 148.259 35.8064 148.003 35.8497C147.748 35.8929 147.492 35.9236 147.234 35.9419C146.886 35.9665 146.556 35.9479 146.243 35.8861C145.929 35.8244 145.614 35.7249 145.296 35.588C145.209 35.4096 145.134 35.2303 145.071 35.0501C145.008 34.8616 144.97 34.6713 144.956 34.4792C144.952 34.4125 144.953 34.3242 144.963 34.2145C144.971 34.0964 144.993 34.0025 145.031 33.9327C145.06 33.872 145.146 33.7904 145.289 33.6879C145.431 33.5855 145.587 33.4864 145.756 33.3906C145.932 33.2858 146.101 33.1942 146.262 33.1157C146.423 33.0371 146.537 32.9955 146.603 32.9908C146.694 32.9844 146.787 32.9946 146.881 33.0216C146.974 33.0402 147.067 33.0629 147.16 33.0899C147.253 33.1085 147.347 33.1312 147.44 33.1582C147.542 33.1762 147.642 33.1817 147.742 33.1747C148.024 33.1547 148.3 33.1058 148.57 33.028C148.848 32.9496 149.129 32.9255 149.415 32.9557C149.482 32.8418 149.523 32.7172 149.539 32.5819C149.554 32.4465 149.558 32.312 149.548 32.1784C149.538 32.0365 149.52 31.8951 149.494 31.7543C149.475 31.613 149.462 31.4797 149.453 31.3544C149.441 31.1874 149.442 31.0196 149.456 30.8508C149.468 30.682 149.469 30.5141 149.458 30.3471C149.447 30.1885 149.411 30.0441 149.353 29.914C149.293 29.7756 149.257 29.6229 149.245 29.4559C149.231 29.2472 149.261 29.0185 149.336 28.7699C149.41 28.5212 149.486 28.3061 149.566 28.1243C149.663 28.0922 149.76 28.0476 149.856 27.9904C149.952 27.9333 150.048 27.8804 150.146 27.8315C150.249 27.7738 150.351 27.7247 150.448 27.6843C150.544 27.6355 150.638 27.6079 150.73 27.6014C150.779 27.5979 150.83 27.5944 150.879 27.5909C150.928 27.5873 150.975 27.5924 151.018 27.6062L151.105 27.7763C151.146 27.7734 151.183 27.7665 151.215 27.7558C151.249 27.7452 151.277 27.7389 151.302 27.7371C151.352 27.7336 151.423 27.8 151.516 27.936C151.617 28.0632 151.714 28.2115 151.81 28.3809C151.913 28.5499 152.004 28.7155 152.082 28.8777C152.159 29.0317 152.2 29.138 152.204 29.1963C152.216 29.3634 152.191 29.533 152.128 29.7053C152.064 29.8692 152.024 30.0314 152.011 30.1918C152.001 30.2931 152.009 30.3975 152.033 30.5049C152.057 30.6039 152.072 30.7035 152.079 30.8037C152.097 31.0626 152.082 31.3238 152.034 31.5873C151.985 31.8509 151.97 32.1163 151.989 32.3834C151.992 32.4336 151.996 32.4836 152 32.5338C152.003 32.5838 152.015 32.6375 152.036 32.6948C152.128 32.7134 152.221 32.7278 152.314 32.738C152.414 32.7394 152.51 32.7368 152.601 32.7303C152.858 32.7122 153.11 32.6692 153.355 32.6015C153.412 32.5808 153.464 32.5477 153.511 32.5024C153.565 32.4482 153.613 32.4196 153.655 32.4167C153.73 32.4114 153.801 32.4189 153.869 32.4393C153.937 32.4596 154.012 32.4669 154.096 32.461C154.386 32.4405 154.68 32.4155 154.978 32.386C155.285 32.356 155.592 32.3301 155.898 32.3084C156.131 32.292 156.361 32.3009 156.588 32.3352C156.815 32.3694 157.03 32.4507 157.23 32.5792C157.316 32.7326 157.393 32.8782 157.461 33.016C157.538 33.1533 157.582 33.318 157.596 33.51Z" fill="#7D98A6"/>
<path d="M328.794 34.3672C328.811 34.601 328.767 34.8055 328.662 34.9807C328.558 35.1559 328.441 35.332 328.311 35.509C327.984 35.5992 327.667 35.714 327.36 35.8532C327.053 35.984 326.724 36.0617 326.375 36.0864C326.16 36.1017 325.955 36.0868 325.76 36.0418C325.572 35.9879 325.376 35.9683 325.168 35.983C325.019 35.9936 324.865 36.0169 324.71 36.0532C324.562 36.0887 324.411 36.1246 324.255 36.1608C324.107 36.1965 323.955 36.2282 323.798 36.256C323.65 36.2749 323.5 36.2813 323.349 36.2752C323.28 36.3556 323.249 36.4417 323.255 36.5336C323.262 36.6421 323.286 36.7412 323.325 36.8307C323.374 36.9196 323.401 37.0141 323.408 37.1143C323.41 37.1394 323.4 37.1695 323.377 37.2046C323.354 37.2398 323.345 37.2908 323.35 37.3576C323.359 37.4745 323.391 37.5897 323.449 37.703C323.507 37.8164 323.541 37.9357 323.549 38.0609C323.561 38.228 323.56 38.3917 323.546 38.5521C323.532 38.7041 323.53 38.8594 323.541 39.0181C323.551 39.16 323.573 39.297 323.607 39.4288C323.641 39.5523 323.663 39.685 323.673 39.827C323.7 40.2194 323.629 40.5727 323.459 40.8868C323.296 41.1919 323.078 41.4717 322.804 41.726C322.584 41.6745 322.351 41.6238 322.106 41.574C321.86 41.5159 321.648 41.4092 321.471 41.2539C321.348 41.0445 321.286 40.818 321.286 40.5748C321.285 40.323 321.277 40.0887 321.262 39.8716C321.24 39.5626 321.194 39.2596 321.123 38.9626C321.052 38.6571 321.005 38.3499 320.984 38.041C320.973 37.8823 320.975 37.7311 320.99 37.5874C321.004 37.4437 321.007 37.2925 320.996 37.1338C320.984 36.9669 320.949 36.8225 320.89 36.7008C320.745 36.644 320.596 36.6124 320.446 36.6064C320.296 36.6002 320.142 36.6027 319.984 36.6138C319.718 36.6327 319.458 36.6636 319.202 36.7069C318.947 36.7501 318.69 36.7808 318.433 36.799C318.085 36.8236 317.754 36.805 317.442 36.7432C317.128 36.6815 316.813 36.5821 316.495 36.4452C316.408 36.2668 316.333 36.0874 316.27 35.9073C316.207 35.7188 316.168 35.5285 316.155 35.3364C316.15 35.2696 316.152 35.1814 316.161 35.0716C316.17 34.9535 316.192 34.8597 316.23 34.7899C316.259 34.7291 316.345 34.6475 316.488 34.5451C316.63 34.4427 316.786 34.3436 316.954 34.2478C317.131 34.143 317.299 34.0514 317.46 33.9729C317.621 33.8943 317.735 33.8527 317.802 33.848C317.893 33.8416 317.986 33.8518 318.08 33.8788C318.172 33.8974 318.265 33.9201 318.359 33.9471C318.452 33.9657 318.545 33.9884 318.639 34.0154C318.741 34.0334 318.841 34.0389 318.941 34.0318C319.223 34.0119 319.499 33.963 319.769 33.8852C320.046 33.8068 320.328 33.7827 320.614 33.8128C320.681 33.699 320.722 33.5744 320.738 33.439C320.753 33.3037 320.757 33.1692 320.747 33.0356C320.737 32.8936 320.719 32.7523 320.693 32.6115C320.674 32.4701 320.66 32.3368 320.652 32.2116C320.64 32.0446 320.641 31.8767 320.654 31.708C320.667 31.5392 320.668 31.3713 320.657 31.2043C320.646 31.0456 320.61 30.9013 320.551 30.7712C320.492 30.6328 320.456 30.4801 320.444 30.313C320.43 30.1043 320.459 29.8756 320.534 29.6271C320.608 29.3784 320.685 29.1633 320.764 28.9815C320.862 28.9493 320.958 28.9048 321.055 28.8476C321.151 28.7905 321.247 28.7375 321.344 28.6887C321.448 28.631 321.55 28.5819 321.647 28.5415C321.743 28.4926 321.837 28.465 321.929 28.4586C321.978 28.4551 322.028 28.4516 322.078 28.4481C322.127 28.4445 322.174 28.4496 322.216 28.4634L322.303 28.6335C322.345 28.6306 322.382 28.6237 322.414 28.613C322.447 28.6024 322.475 28.5961 322.501 28.5943C322.55 28.5908 322.622 28.6571 322.715 28.7932C322.815 28.9204 322.913 29.0686 323.009 29.2381C323.112 29.407 323.203 29.5726 323.28 29.7349C323.358 29.8888 323.399 29.9951 323.403 30.0535C323.415 30.2206 323.389 30.3902 323.326 30.5625C323.262 30.7264 323.223 30.8885 323.21 31.049C323.2 31.1503 323.208 31.2547 323.232 31.3621C323.256 31.4611 323.271 31.5607 323.278 31.6609C323.296 31.9198 323.28 32.1809 323.233 32.4445C323.184 32.7081 323.169 32.9734 323.187 33.2406C323.191 33.2908 323.195 33.3408 323.199 33.391C323.202 33.441 323.214 33.4947 323.234 33.552C323.327 33.5706 323.42 33.585 323.513 33.5952C323.612 33.5966 323.709 33.594 323.8 33.5875C324.057 33.5693 324.308 33.5264 324.554 33.4587C324.611 33.4379 324.663 33.4048 324.71 33.3596C324.764 33.3054 324.812 33.2768 324.853 33.2739C324.928 33.2686 325 33.2761 325.068 33.2965C325.136 33.3168 325.211 33.3241 325.295 33.3182C325.585 33.2977 325.879 33.2727 326.177 33.2432C326.484 33.2132 326.79 33.1873 327.097 33.1656C327.329 33.1492 327.559 33.1581 327.787 33.1924C328.014 33.2266 328.229 33.3079 328.429 33.4364C328.515 33.5897 328.592 33.7354 328.66 33.8732C328.736 34.0105 328.781 34.1752 328.794 34.3672Z" fill="#7D98A6"/>
<path d="M344.748 24.6295C344.656 24.7216 344.552 24.7843 344.437 24.8178C344.32 24.8513 344.203 24.9016 344.086 24.9685C344.079 25.0187 344.012 25.1275 343.887 25.2949C343.77 25.454 343.638 25.6256 343.488 25.8097C343.338 25.9855 343.193 26.1487 343.052 26.2994C342.918 26.4417 342.827 26.5212 342.777 26.5379C342.81 26.605 342.827 26.6552 342.827 26.6886C342.827 26.7556 342.785 26.8184 342.702 26.8769C342.627 26.9272 342.569 26.9858 342.527 27.0527C342.486 27.1448 342.461 27.2411 342.452 27.3415C342.444 27.4337 342.419 27.5257 342.378 27.6178C342.286 27.7852 342.199 27.9317 342.116 28.0572C342.032 28.1744 341.957 28.2958 341.891 28.4213C341.833 28.5385 341.783 28.6725 341.741 28.8232C341.708 28.9655 341.696 29.1454 341.704 29.363C341.471 29.656 341.305 29.928 341.205 30.1792C341.105 30.4219 341.038 30.6647 341.005 30.9074C340.972 31.1417 340.951 31.3887 340.943 31.6482C340.943 31.9077 340.926 32.2007 340.892 32.5271C340.868 32.6861 340.83 32.841 340.781 32.9916C340.731 33.1339 340.706 33.2972 340.706 33.4813C340.706 33.7157 340.722 33.9459 340.755 34.1719C340.797 34.3895 340.818 34.6114 340.818 34.8374C340.818 35.0969 340.781 35.348 340.706 35.5907C340.64 35.8251 340.605 36.072 340.605 36.3315C340.605 36.5157 340.631 36.6831 340.68 36.8338C340.739 36.9844 340.777 37.1519 340.793 37.336C340.835 37.6289 340.847 37.9303 340.83 38.24C340.822 38.5413 340.843 38.8511 340.892 39.1691C340.901 39.2612 340.922 39.391 340.956 39.5584C340.996 39.7258 341.042 39.9016 341.093 40.0857C341.142 40.2615 341.192 40.4331 341.243 40.6005C341.292 40.7595 341.338 40.8809 341.38 40.9646C341.404 41.0148 341.433 41.0567 341.467 41.0902C341.5 41.1236 341.529 41.1655 341.554 41.2157C341.604 41.358 341.641 41.5087 341.667 41.6677C341.691 41.8268 341.729 41.9858 341.778 42.1448C341.812 42.1867 341.846 42.2285 341.879 42.2704C341.912 42.3039 341.941 42.3415 341.966 42.3834C341.983 42.4337 341.99 42.488 341.99 42.5466C341.999 42.6053 342.016 42.6596 342.041 42.7098C342.14 42.9777 342.27 43.2288 342.427 43.4632C342.593 43.6976 342.735 43.9445 342.851 44.204C342.902 44.2542 342.984 44.3421 343.101 44.4677C343.218 44.6016 343.351 44.7564 343.501 44.9322C343.65 45.1163 343.804 45.3089 343.962 45.5098C344.128 45.7107 344.282 45.899 344.424 46.0748C344.565 46.259 344.686 46.418 344.786 46.5519C344.894 46.6943 344.965 46.7947 344.998 46.8533C344.898 47.1211 344.782 47.389 344.649 47.6568C344.515 47.9331 344.328 48.1632 344.086 48.3474C343.77 48.2972 343.509 48.2554 343.301 48.2219C343.093 48.1883 342.918 48.1507 342.777 48.1089C342.635 48.067 342.515 48.0125 342.415 47.9456C342.315 47.8787 342.219 47.7824 342.128 47.6568C342.036 47.5397 341.937 47.3806 341.829 47.1797C341.729 46.9872 341.604 46.7403 341.455 46.4389C341.38 46.2882 341.296 46.1166 341.205 45.9241C341.122 45.7316 341.018 45.5768 340.892 45.4595C340.876 45.4177 340.872 45.3801 340.881 45.3466C340.889 45.3131 340.892 45.2838 340.892 45.2587V45.2085L340.706 45.0201C340.706 44.995 340.71 44.9657 340.718 44.9322C340.726 44.8987 340.731 44.8695 340.731 44.8444C340.731 44.7773 340.706 44.7313 340.656 44.7062C340.614 44.6895 340.581 44.6602 340.556 44.6183C340.481 44.5263 340.423 44.4174 340.381 44.2919C340.348 44.1663 340.298 44.0575 340.232 43.9655C340.14 43.8232 340.032 43.7018 339.907 43.6013C339.79 43.4925 339.699 43.3669 339.633 43.2246C339.591 43.0991 339.566 42.9735 339.558 42.848C339.558 42.714 339.558 42.5843 339.558 42.4588C339.491 42.3666 339.399 42.1992 339.284 41.9565C339.167 41.7137 339.05 41.4543 338.934 41.178C338.826 40.9019 338.726 40.6381 338.635 40.3871C338.551 40.1275 338.502 39.935 338.485 39.8094C338.46 39.6253 338.439 39.4453 338.422 39.2696C338.414 39.0854 338.385 38.9054 338.335 38.7297C338.31 38.6627 338.285 38.6125 338.261 38.579C338.244 38.5372 338.227 38.4995 338.21 38.466C338.193 38.4241 338.181 38.3823 338.173 38.3405C338.164 38.2985 338.16 38.24 338.16 38.1647C338.16 37.9805 338.177 37.8005 338.21 37.6247C338.244 37.4406 338.261 37.2606 338.261 37.0848C338.261 36.9007 338.227 36.7291 338.16 36.57C338.102 36.411 338.073 36.2478 338.073 36.0804C338.073 35.9381 338.086 35.8 338.111 35.6661C338.144 35.5321 338.16 35.394 338.16 35.2517C338.177 35.034 338.177 34.8248 338.16 34.6239C338.144 34.4147 338.135 34.2053 338.135 33.9961C338.135 33.812 338.157 33.6404 338.198 33.4813C338.239 33.3223 338.285 33.1716 338.335 33.0293C338.394 32.8787 338.451 32.728 338.51 32.5773C338.577 32.4267 338.63 32.2634 338.672 32.0876C338.714 31.8617 338.734 31.6482 338.734 31.4473C338.734 31.238 338.738 31.033 338.747 30.8321C338.755 30.6311 338.784 30.4303 338.834 30.2294C338.893 30.0285 339.001 29.8276 339.158 29.6267V29.4886C339.151 29.4216 339.154 29.3128 339.171 29.1622C339.196 29.0031 339.225 28.8399 339.258 28.6725C339.292 28.5051 339.329 28.346 339.37 28.1953C339.412 28.0447 339.45 27.9359 339.483 27.8689C339.533 27.7517 339.591 27.6596 339.657 27.5927C339.724 27.5257 339.787 27.4629 339.845 27.4043C339.903 27.3457 339.949 27.2788 339.982 27.2034C340.024 27.1197 340.044 27.0025 340.044 26.8518C340.044 26.8435 340.065 26.8142 340.107 26.764C340.157 26.7053 340.211 26.6384 340.269 26.5631C340.327 26.4877 340.386 26.4125 340.444 26.3371C340.502 26.2534 340.539 26.1822 340.556 26.1236C340.605 25.973 340.635 25.8097 340.643 25.6339C340.651 25.4498 340.702 25.2866 340.793 25.1443C340.892 24.9852 340.963 24.8806 341.005 24.8304C341.047 24.7802 341.076 24.7509 341.093 24.7425C341.117 24.7341 341.142 24.73 341.168 24.73C341.192 24.73 341.238 24.6965 341.305 24.6295C341.346 24.5876 341.367 24.5123 341.367 24.4035C341.375 24.2947 341.404 24.2068 341.455 24.1398C341.521 24.0478 341.599 23.9682 341.691 23.9013C341.791 23.8259 341.883 23.738 341.966 23.6375C342.024 23.5539 342.095 23.4409 342.178 23.2985C342.261 23.1563 342.348 23.014 342.44 22.8717C342.54 22.721 342.639 22.5787 342.739 22.4447C342.84 22.3109 342.939 22.2104 343.039 22.1435C343.081 22.1183 343.13 22.1099 343.189 22.1183C343.247 22.1267 343.297 22.1099 343.338 22.0681C343.397 22.0346 343.43 21.9928 343.438 21.9425C343.446 21.8923 343.476 21.8547 343.525 21.8296C343.567 21.8045 343.642 21.7877 343.75 21.7793C343.858 21.7709 343.945 21.7542 344.012 21.7291C344.137 21.6873 344.241 21.6454 344.324 21.6035C344.415 21.5533 344.532 21.5282 344.673 21.5282C344.798 21.5282 344.931 21.5617 345.073 21.6287C345.222 21.6873 345.356 21.7667 345.471 21.8672C345.597 21.9677 345.696 22.0848 345.771 22.2188C345.855 22.3527 345.896 22.4909 345.896 22.6331C345.896 22.7838 345.842 22.9386 345.734 23.0977C345.634 23.2483 345.513 23.4074 345.372 23.5748C345.239 23.7422 345.11 23.9138 344.985 24.0896C344.861 24.2654 344.782 24.4453 344.748 24.6295ZM466.52 24.6295C466.478 24.4453 466.395 24.2654 466.27 24.0896C466.154 23.9138 466.024 23.7422 465.883 23.5748C465.75 23.4074 465.63 23.2483 465.522 23.0977C465.421 22.9386 465.372 22.7838 465.372 22.6331C465.372 22.4909 465.409 22.3527 465.484 22.2188C465.567 22.0848 465.667 21.9677 465.783 21.8672C465.909 21.7667 466.041 21.6873 466.183 21.6287C466.333 21.5617 466.47 21.5282 466.594 21.5282C466.736 21.5282 466.848 21.5533 466.931 21.6035C467.023 21.6454 467.135 21.6873 467.268 21.7291C467.335 21.7542 467.418 21.7709 467.517 21.7793C467.626 21.7877 467.701 21.8045 467.742 21.8296C467.8 21.8547 467.833 21.8923 467.842 21.9425C467.85 21.9928 467.879 22.0346 467.93 22.0681C467.971 22.1099 468.021 22.1267 468.08 22.1183C468.137 22.1099 468.188 22.1183 468.229 22.1435C468.329 22.2104 468.429 22.3109 468.528 22.4447C468.628 22.5787 468.723 22.721 468.815 22.8717C468.915 23.014 469.006 23.1563 469.09 23.2985C469.173 23.4409 469.244 23.5539 469.302 23.6375C469.385 23.738 469.472 23.8259 469.564 23.9013C469.664 23.9682 469.747 24.0478 469.814 24.1398C469.872 24.2068 469.901 24.2988 469.901 24.4161C469.909 24.5249 469.934 24.596 469.976 24.6295C470.033 24.6965 470.075 24.73 470.101 24.73C470.125 24.73 470.146 24.7341 470.163 24.7425C470.188 24.7509 470.221 24.7802 470.263 24.8304C470.313 24.8806 470.388 24.9852 470.487 25.1443C470.57 25.2866 470.616 25.4498 470.625 25.6339C470.633 25.8097 470.662 25.973 470.711 26.1236C470.728 26.1822 470.766 26.2534 470.824 26.3371C470.883 26.4125 470.941 26.4877 470.998 26.5631C471.057 26.6384 471.107 26.7053 471.148 26.764C471.199 26.8142 471.223 26.8435 471.223 26.8518C471.223 27.0025 471.244 27.1197 471.285 27.2034C471.327 27.2788 471.373 27.3457 471.423 27.4043C471.481 27.4629 471.544 27.5257 471.61 27.5927C471.676 27.6596 471.735 27.7517 471.785 27.8689C471.818 27.9359 471.855 28.0447 471.897 28.1953C471.939 28.346 471.976 28.5051 472.009 28.6725C472.043 28.8399 472.072 29.0031 472.096 29.1622C472.122 29.3128 472.13 29.4216 472.122 29.4886V29.6267C472.271 29.8276 472.371 30.0285 472.421 30.2294C472.48 30.4303 472.513 30.6311 472.521 30.8321C472.538 31.033 472.542 31.238 472.533 31.4473C472.533 31.6482 472.558 31.8617 472.608 32.0876C472.641 32.2634 472.687 32.4267 472.745 32.5773C472.812 32.728 472.874 32.8787 472.933 33.0293C472.991 33.1716 473.041 33.3223 473.083 33.4813C473.124 33.6404 473.145 33.812 473.145 33.9961C473.145 34.2053 473.136 34.4147 473.12 34.6239C473.103 34.8248 473.103 35.034 473.12 35.2517C473.12 35.394 473.132 35.5321 473.157 35.6661C473.182 35.8 473.194 35.9381 473.194 36.0804C473.194 36.2478 473.161 36.411 473.095 36.57C473.037 36.7291 473.008 36.9007 473.008 37.0848C473.008 37.2606 473.024 37.4406 473.057 37.6247C473.099 37.8005 473.12 37.9805 473.12 38.1647C473.12 38.24 473.116 38.2985 473.107 38.3405C473.099 38.3823 473.083 38.4241 473.057 38.466C473.041 38.4995 473.02 38.5372 472.995 38.579C472.979 38.6125 472.957 38.6627 472.933 38.7297C472.883 38.9054 472.849 39.0854 472.833 39.2696C472.825 39.4453 472.808 39.6253 472.783 39.8094C472.766 39.935 472.712 40.1275 472.621 40.3871C472.529 40.6381 472.425 40.9019 472.308 41.178C472.2 41.4543 472.089 41.7137 471.972 41.9565C471.864 42.1992 471.776 42.3666 471.71 42.4588C471.71 42.5843 471.705 42.714 471.698 42.848C471.698 42.9735 471.676 43.0991 471.635 43.2246C471.568 43.3669 471.477 43.4925 471.36 43.6013C471.244 43.7018 471.14 43.8232 471.049 43.9655C470.982 44.0575 470.928 44.1663 470.886 44.2919C470.845 44.4174 470.786 44.5263 470.711 44.6183C470.687 44.6602 470.649 44.6895 470.6 44.7062C470.558 44.7313 470.537 44.7773 470.537 44.8444C470.537 44.8695 470.541 44.8987 470.55 44.9322C470.558 44.9657 470.562 44.995 470.562 45.0201L470.375 45.2085V45.2587C470.375 45.2838 470.379 45.3131 470.388 45.3466C470.395 45.3801 470.391 45.4177 470.375 45.4595C470.25 45.5768 470.146 45.7316 470.063 45.9241C469.98 46.1166 469.896 46.2882 469.814 46.4389C469.589 46.891 469.41 47.23 469.277 47.4559C469.152 47.6819 469.011 47.8451 468.853 47.9456C468.703 48.0545 468.504 48.1298 468.254 48.1716C468.005 48.2135 467.647 48.2721 467.181 48.3474C466.94 48.1632 466.753 47.9331 466.62 47.6568C466.486 47.389 466.37 47.1211 466.27 46.8533C466.304 46.7947 466.37 46.6943 466.47 46.5519C466.578 46.418 466.702 46.259 466.844 46.0748C466.985 45.899 467.135 45.7107 467.293 45.5098C467.46 45.3089 467.618 45.1163 467.767 44.9322C467.917 44.7564 468.05 44.6016 468.166 44.4677C468.283 44.3338 468.366 44.2458 468.416 44.204C468.533 43.9445 468.67 43.6976 468.827 43.4632C468.994 43.2288 469.127 42.9777 469.227 42.7098C469.252 42.6596 469.264 42.6053 469.264 42.5466C469.273 42.488 469.286 42.4337 469.302 42.3834C469.327 42.3415 469.356 42.3039 469.39 42.2704C469.43 42.2285 469.465 42.1867 469.489 42.1448C469.539 41.9858 469.576 41.8268 469.602 41.6677C469.626 41.5087 469.664 41.358 469.714 41.2157C469.739 41.1655 469.768 41.1236 469.801 41.0902C469.834 41.0567 469.863 41.0148 469.889 40.9646C469.93 40.8809 469.976 40.7595 470.026 40.6005C470.075 40.4331 470.125 40.2615 470.176 40.0857C470.225 39.9016 470.267 39.7258 470.3 39.5584C470.333 39.391 470.358 39.2612 470.375 39.1691C470.433 38.8511 470.454 38.5413 470.437 38.24C470.429 37.9303 470.446 37.6289 470.487 37.336C470.504 37.1519 470.537 36.9844 470.587 36.8338C470.637 36.6831 470.662 36.5157 470.662 36.3315C470.662 36.072 470.629 35.8251 470.562 35.5907C470.495 35.348 470.462 35.0969 470.462 34.8374C470.462 34.6114 470.479 34.3895 470.512 34.1719C470.545 33.9459 470.562 33.7157 470.562 33.4813C470.562 33.2972 470.537 33.1339 470.487 32.9916C470.446 32.841 470.408 32.6861 470.375 32.5271C470.333 32.2007 470.313 31.9077 470.313 31.6482C470.313 31.3887 470.296 31.1417 470.263 30.9074C470.238 30.6647 470.171 30.4219 470.063 30.1792C469.963 29.928 469.797 29.656 469.564 29.363C469.572 29.1454 469.556 28.9655 469.514 28.8232C469.481 28.6725 469.43 28.5385 469.364 28.4213C469.306 28.2958 469.235 28.1744 469.152 28.0572C469.069 27.9317 468.986 27.7852 468.902 27.6178C468.861 27.5257 468.832 27.4337 468.815 27.3415C468.807 27.2411 468.782 27.1448 468.741 27.0527C468.699 26.9858 468.637 26.9272 468.553 26.8769C468.478 26.8184 468.441 26.7556 468.441 26.6886C468.441 26.6552 468.458 26.605 468.491 26.5379C468.449 26.5212 468.358 26.4417 468.217 26.2994C468.075 26.1487 467.93 25.9855 467.78 25.8097C467.63 25.6256 467.493 25.454 467.368 25.2949C467.252 25.1275 467.19 25.0187 467.181 24.9685C467.064 24.9016 466.948 24.8513 466.832 24.8178C466.715 24.7843 466.611 24.7216 466.52 24.6295Z" fill="#7591A2"/>
</svg>
