<svg width="261" height="39" viewBox="0 0 261 39" fill="none" xmlns="http://www.w3.org/2000/svg">
<path d="M16.1952 29.4866C15.443 28.2299 14.4261 27.2889 13.2908 26.4208C12.1174 25.5223 10.8358 24.5954 9.43976 24.13C8.14604 23.701 6.55146 23.871 5.26978 24.2696C4.03022 24.6541 3.13966 25.4292 2.67031 26.7C2.19896 27.9749 2.08664 29.2275 3.10958 30.2353C4.04627 31.1581 5.43224 31.7591 6.70189 31.8603C7.08098 31.8907 8.07383 31.9574 8.3426 31.6154C8.6535 31.2208 8.55722 30.1321 8.45894 29.697C8.18415 28.4687 6.95863 27.4488 5.91965 28.4828C4.85057 29.5453 3.41244 27.6491 4.47349 26.5948C5.64084 25.4332 7.45405 25.3583 8.80393 26.2609C10.1598 27.1675 10.8137 28.8167 10.8157 30.4438C10.8157 32.1072 10.2982 33.5743 8.66553 34.0519C7.10104 34.5092 5.39414 34.2219 3.91188 33.548C2.51186 32.9085 1.15396 31.9149 0.437902 30.464C-0.300218 28.9685 -0.0033645 27.1391 0.578306 25.6538C1.85999 22.3836 5.32394 21.3171 8.481 21.5175C10.4466 21.6429 12.2558 22.7802 13.8544 23.9114C15.4229 25.0204 16.9674 26.2973 17.9823 27.9951C18.7665 29.3004 16.9834 30.804 16.1952 29.4866Z" fill="#5A5A5A"/>
<path d="M44.8873 15.9303C45.1902 18.8383 44.103 21.3112 42.4563 21.4448C40.8096 21.5844 39.227 19.3382 38.9242 16.4302C38.6213 13.5222 39.7084 11.0554 41.3551 10.9158C43.0019 10.7802 44.5844 13.0224 44.8873 15.9303Z" fill="#5A5A5A"/>
<path d="M12.9797 18.5771C12.9797 26.7142 19.7512 32.1638 27.9788 32.1638C36.2064 32.1638 42.5908 27.8292 42.7633 18.5771C42.9177 10.4441 36.0961 3.84302 27.8745 3.84302C19.6469 3.84302 12.9797 10.4401 12.9797 18.5771Z" fill="#5A5A5A"/>
<path d="M31.6896 4.61404C31.6455 3.87744 27.3692 3.7884 26.3463 1.14552C26.2179 0.809594 26.1718 0.520214 26.1537 0.374512C25.7325 0.510096 24.844 0.860185 24.0557 1.72023C23.3015 2.54183 23.0187 3.412 22.9104 3.83697C22.7279 3.76209 22.2906 3.55163 21.9577 3.06596C21.5666 2.49529 21.5666 1.90438 21.5746 1.72023C21.2075 2.02985 20.7863 2.47101 20.4293 3.06596C19.3281 4.92771 19.7193 6.90885 19.8597 7.49571C29.5916 6.00631 31.7237 5.14019 31.6896 4.61404Z" fill="#5A5A5A"/>
<path d="M21.1274 25.1277C21.9558 28.9261 26.9762 31.0387 32.3396 29.8468C37.707 28.6549 41.3836 24.6117 40.5552 20.8193C39.7268 17.021 34.7064 14.9083 29.337 16.1002C23.9796 17.2861 20.297 21.3293 21.1274 25.1277Z" fill="white"/>
<path d="M19.2799 18.1462C19.9298 21.5844 22.9424 23.7315 26.0133 22.9403C29.0841 22.149 31.0497 18.721 30.3999 15.2828C29.75 11.8446 26.7333 9.69753 23.6665 10.4888C20.5957 11.28 18.6301 14.7081 19.2799 18.1462Z" fill="white"/>
<path d="M38.0698 13.2772C38.7197 16.7153 36.9486 20.0928 34.1205 20.8233C31.2924 21.5538 28.4703 19.3562 27.8244 15.918C27.1745 12.4798 28.9456 9.1024 31.7737 8.37187C34.6019 7.64134 37.42 9.83293 38.0698 13.2772Z" fill="white"/>
<path d="M15.1882 26.3639C14.2315 26.5622 13.2266 26.0543 12.3721 25.0405C11.5197 24.0286 10.8317 22.5271 10.5128 20.7686C10.1939 19.0121 10.3082 17.3426 10.7435 16.0636C11.1807 14.7827 11.9369 13.9084 12.8936 13.7081C13.8504 13.5098 14.8553 14.0177 15.7097 15.0316C16.5622 16.0434 17.2502 17.5449 17.5691 19.3014C17.89 21.058 17.7777 22.7274 17.3424 24.0084C16.9052 25.2934 16.149 26.1676 15.1882 26.3639Z" fill="#5A5A5A" stroke="white" stroke-width="0.7"/>
<path d="M12.7991 20.631C14.8992 24.8827 15.2041 28.0497 16.6362 27.6348C18.0723 27.22 18.4554 22.6951 17.9901 19.1254C17.5287 15.5557 14.4017 13.1233 13.9063 13.6232C13.4109 13.6232 12.3378 17.0613 12.7991 20.631Z" fill="#5A5A5A"/>
<path d="M35.5847 25.3784C35.3961 25.599 33.4024 27.8452 29.8743 27.7967C27.343 27.7623 24.9782 26.5562 23.7065 24.6641C24.1919 25.0647 26.3963 26.7848 29.8281 26.8961C32.8949 26.9994 34.999 25.7528 35.5847 25.3784Z" fill="#5A5A5A"/>
<path d="M29.3125 22.4545C29.485 22.5435 30.1268 22.845 30.9392 22.6649C31.7535 22.4848 32.2088 21.9385 32.3332 21.7847C31.912 21.9445 31.4105 22.1044 30.8449 22.2299C30.2853 22.3533 29.7638 22.4181 29.3125 22.4545Z" fill="#5A5A5A"/>
<path d="M42.9138 18.81C43.0442 18.7392 43.2207 18.8322 43.2328 19.0285L43.9428 32.3178C43.9468 32.4311 43.8906 32.5343 43.8044 32.5768L32.1008 38.4515L32.0988 38.4535C32.0546 38.4778 31.9985 38.4818 31.9503 38.4636H31.9483L19.5347 34.22H19.5327C19.4464 34.1917 19.3782 34.1006 19.3702 33.9812L18.6602 20.6859C18.6542 20.5908 18.6923 20.5078 18.7504 20.4572C18.8066 20.4066 18.8788 20.3884 18.951 20.4147H18.953L31.3225 24.7595H31.3245C31.4188 24.7919 31.5211 24.7858 31.6094 24.7393L42.9138 18.81Z" fill="#5A5A5A" stroke="white" stroke-width="0.8"/>
<path d="M31.6995 37.6802L31.0897 25.8034L31.9883 25.5383L32.5098 37.1945L31.6995 37.6802Z" fill="white"/>
<path d="M19.8214 20.1231L19.7573 20.6877L19.7252 20.6553L19.653 20.1251V19.688L28.7972 23.3508L19.8756 20.0907L19.8275 20.0725L19.8214 20.1231Z" fill="#5A5A5A" stroke="white" stroke-width="0.4"/>
<path d="M42.2961 19.1175L41.909 17.9377L32.8129 23.6221L41.919 18.5914L41.9531 18.5732L41.9732 18.6076L42.274 19.1196H42.2961V19.1175Z" fill="#5A5A5A" stroke="white" stroke-width="0.4"/>
<path d="M22.6455 31.2977C22.6655 32.3095 21.3498 33.1493 19.709 33.1797C18.0723 33.21 16.7265 32.4148 16.7064 31.403C16.6924 30.3911 18.0021 29.5514 19.6428 29.521C21.2856 29.4927 22.6294 30.2879 22.6455 31.2977Z" fill="#5A5A5A"/>
<path d="M21.4944 31.318C21.5044 31.9332 20.7001 32.4492 19.6972 32.4694C18.6943 32.4897 17.8759 31.9979 17.8619 31.3827C17.8519 30.7675 18.6562 30.2515 19.6571 30.2313C20.66 30.2171 21.4783 30.7028 21.4944 31.318Z" fill="white"/>
<path d="M23.1008 29.1263C23.1208 30.3081 21.5884 31.2876 19.6769 31.324C17.7614 31.3584 16.1989 30.4275 16.1749 29.2518C16.1548 28.0761 17.6872 27.0906 19.5987 27.0541C21.5142 27.0197 23.0807 27.9506 23.1008 29.1263Z" fill="#5A5A5A"/>
<path d="M21.7571 29.1526C21.7671 29.873 20.8345 30.474 19.6631 30.4942C18.4917 30.5145 17.535 29.9478 17.5249 29.2274C17.5109 28.507 18.4476 27.906 19.619 27.8858C20.7843 27.8655 21.7411 28.4301 21.7571 29.1526Z" fill="white"/>
<path d="M22.0802 27.1493C22.1002 28.1591 20.7844 29.001 19.1437 29.0313C17.507 29.0617 16.1612 28.2664 16.1411 27.2546C16.1411 27.21 16.1411 27.1635 16.1471 27.119C16.2454 26.1739 17.511 25.4029 19.0735 25.3726C20.7203 25.3442 22.0601 26.1395 22.0802 27.1493Z" fill="#5A5A5A"/>
<path d="M20.9227 27.1695C20.9327 27.7847 20.1284 28.3007 19.1275 28.321C18.3794 28.3351 17.4367 27.9506 17.3063 27.3658C17.3003 27.3355 17.2922 27.295 17.2922 27.2363C17.3023 26.6616 18.265 26.1011 19.0874 26.0849C20.0943 26.0687 20.9126 26.5544 20.9227 27.1695Z" fill="white"/>
<path d="M18.556 23.7212C18.229 23.877 17.172 24.3627 16.6063 25.417C16.1992 26.1718 16.145 26.8841 16.145 27.2545C16.9333 26.6595 17.7175 26.0625 18.5078 25.4635C18.4677 24.8888 18.5921 24.302 18.556 23.7212Z" fill="#5A5A5A"/>
<path d="M18.2088 26.4695C17.9219 26.8095 17.6331 27.1454 17.3463 27.4813C17.3062 27.3619 17.0635 26.5646 17.3764 25.735C17.6391 25.0287 18.1265 24.7737 18.2389 24.7231C17.8578 25.3747 17.7635 26.0243 17.952 26.3097C17.9962 26.3704 18.0644 26.4392 18.2088 26.4695Z" fill="white"/>
<path d="M40.0979 28.3715C40.1681 29.3813 41.546 30.1078 43.1847 29.9985C44.8214 29.8893 46.0931 28.9766 46.0229 27.9708C45.9527 26.9651 44.5747 26.2346 42.942 26.3438C41.3033 26.4531 40.0277 27.3597 40.0979 28.3715Z" fill="#5A5A5A"/>
<path d="M41.247 28.2906C41.2871 28.9058 42.1295 29.351 43.1324 29.2822C44.1292 29.2174 44.9095 28.6609 44.8693 28.0457C44.8292 27.4305 43.9868 26.9853 42.9839 27.0541C41.9811 27.1189 41.2088 27.6754 41.247 28.2906Z" fill="white"/>
<path d="M39.4619 26.2448C39.5422 27.4205 41.1488 28.2725 43.0583 28.1409C44.9678 28.0114 46.452 26.949 46.3718 25.7733C46.2936 24.5976 44.6809 23.7456 42.7755 23.8772C40.866 24.0128 39.3837 25.0691 39.4619 26.2448Z" fill="#5A5A5A"/>
<path d="M40.8018 26.1535C40.852 26.874 41.8328 27.39 43.0002 27.3091C44.1655 27.2281 45.0741 26.5826 45.024 25.8621C44.9738 25.1417 43.993 24.6257 42.8256 24.7066C41.6603 24.7875 40.7577 25.4331 40.8018 26.1535Z" fill="white"/>
<path d="M40.1159 24.1867C40.1861 25.1985 41.5641 25.923 43.1968 25.8137C44.8335 25.7044 46.1031 24.7938 46.0349 23.788C46.0349 23.7435 46.0249 23.697 46.0209 23.6525C45.8424 22.7155 44.5186 22.0619 42.9541 22.1671C41.3154 22.2703 40.0457 23.1769 40.1159 24.1867Z" fill="#5A5A5A"/>
<path d="M41.2651 24.1075C41.3053 24.7227 42.1477 25.1679 43.1506 25.0991C43.8987 25.0485 44.8033 24.5891 44.8815 23.9922C44.8876 23.9618 44.8916 23.9213 44.8876 23.8627C44.8274 23.292 43.8205 22.8124 43.0021 22.8711C41.9993 22.9358 41.227 23.4903 41.2651 24.1075Z" fill="white"/>
<path d="M43.4012 20.4551C43.7322 20.5644 44.7311 20.9428 45.419 21.989C45.8904 22.7074 46.0027 23.4137 46.0348 23.7799C45.2024 23.2538 44.368 22.7236 43.5336 22.1974C43.4935 21.9283 43.4574 21.6389 43.4353 21.3313C43.4093 21.0217 43.4012 20.7283 43.4012 20.4551Z" fill="#5A5A5A"/>
<path d="M43.9107 23.1766C44.2236 23.4863 44.5405 23.8019 44.8534 24.1136C44.8835 23.9942 45.056 23.1766 44.6749 22.3773C44.352 21.6974 43.8465 21.4869 43.7322 21.4424C44.1694 22.0576 44.3179 22.6991 44.1494 22.9986C44.1133 23.0552 44.0491 23.1362 43.9107 23.1766Z" fill="white"/>
<path d="M27.0945 18.5367C27.2329 19.5931 26.579 20.5482 25.6363 20.6737C24.6936 20.7992 23.8211 20.0423 23.6867 18.988C23.5483 17.9317 24.2022 16.9765 25.1449 16.851C26.0836 16.7256 26.9621 17.4804 27.0945 18.5367Z" fill="#5A5A5A"/>
<path d="M25.1989 17.6058C25.259 18.051 24.9802 18.4517 24.5891 18.5023C24.192 18.5529 23.8249 18.2372 23.7708 17.792C23.7106 17.3467 23.9894 16.9461 24.3805 16.8955C24.7776 16.8449 25.1447 17.1606 25.1989 17.6058Z" fill="white"/>
<path d="M35.8517 16.7297C35.9861 17.7861 35.3362 18.7412 34.3935 18.8667C33.4508 18.9921 32.5783 18.2353 32.4439 17.179C32.3055 16.1226 32.9594 15.1675 33.8981 15.042C34.8408 14.9186 35.7133 15.6754 35.8517 16.7297Z" fill="#5A5A5A"/>
<path d="M34.1107 15.6045C34.1709 16.0497 33.8921 16.4504 33.501 16.501C33.1038 16.5516 32.7368 16.2359 32.6826 15.7907C32.6224 15.3455 32.9012 14.9448 33.2924 14.8942C33.6835 14.8436 34.0505 15.1593 34.1107 15.6045Z" fill="white"/>
<path d="M19.7874 20.0684V20.6754L20.4894 20.8778L20.1885 20.2707L19.7874 20.0684Z" fill="white"/>
<path d="M19.8274 20.3438L25.7965 22.588L31.0175 24.5792L20.0701 20.5704L19.8274 20.3438Z" fill="#5A5A5A"/>
<path d="M39.7447 19.765L33.3263 23.711L38.2404 21.1815L42.2519 19.1579L41.9511 18.5508L39.7447 19.765Z" fill="white"/>
<path d="M41.9029 18.8704L36.3108 21.9463L31.4208 24.6641L41.6943 19.1314L41.9029 18.8704Z" fill="#5A5A5A"/>
<path d="M162.949 32.4331L161.003 29.7173C160.098 32.4331 158.492 33.0503 157.316 33.0503C155.325 33.0503 155.012 31.2472 155.012 30.1969V16.5941H147.909V20.8821H149.943V30.1261C149.061 32.7285 146.886 33.4813 145.44 33.4813C143.449 33.4813 142.658 31.9514 142.658 30.628V20.9085H145.17V16.5961H142.658V7.96729L137.59 11.027V16.6183H135.554V20.9064H137.59V26.8175C135.915 30.2172 132.341 34.1228 128.131 34.1228C123.491 34.1228 121.5 31.318 121.5 27.7301C121.5 22.2076 124.669 20.2447 127.268 20.2447C128.263 20.2447 128.873 20.5422 128.873 20.5422V23.782H133.171V16.501C133.171 16.501 131.001 15.7947 128.486 15.7947C117.468 15.7947 116.244 24.5834 116.244 27.8677C116.244 28.574 116.315 29.3733 116.469 30.2172C115.881 32.5241 114.658 33.0219 113.777 33.0219C111.878 33.0219 111.878 31.148 111.878 30.7393V16.6365C111.878 16.59 108.416 15.7239 105.498 15.7239C95.7456 15.7239 92.5765 22.5496 92.5765 28.663C92.5765 30.7636 93.435 38.4999 100.654 38.4999C103.482 38.4999 106.152 37.1542 107.509 34.825C107.509 34.825 107.598 34.6894 107.644 34.6894C107.69 34.6894 107.69 34.736 107.732 34.825C108.115 36.537 109.589 38.1579 112.03 38.1579C115.559 38.1579 117.438 35.9461 118.186 34.3919C119.793 36.6503 122.577 38.4311 127.258 38.4311C132.439 38.4311 135.494 35.7154 137.622 33.2729C138.051 36.2375 140.203 38.338 143.978 38.338C147.576 38.338 149.727 37.0389 150.904 35.6689C151.899 37.1522 153.574 38.1357 155.814 38.1357C160.929 38.1357 163.053 33.9832 163.053 32.8398C163.107 32.682 162.949 32.4331 162.949 32.4331ZM106.904 28.1409C106.904 30.5835 105.117 33.3902 101.883 33.3902C97.9439 33.3902 97.9018 29.1912 97.9018 27.9588C97.9018 21.8434 102.2 20.0848 104.529 20.0848C106.228 20.0848 106.904 20.3823 106.904 20.3823V28.1409Z" fill="#5A5A5A"/>
<path d="M64.6662 7.96533H48.0806V12.6905H51.9497V37.5914H57.7644V27.7545H64.7083C67.5364 27.7545 76.0208 27.457 76.0208 17.8265C76.0208 7.96533 68.782 7.96533 64.6662 7.96533ZM64.4155 23.0981C63.3745 23.0981 57.7423 23.0516 57.7423 23.0516V12.6905H64.7324C66.8605 12.6905 70.1179 12.7371 70.1179 17.7557C70.1399 22.8451 65.8857 23.0981 64.4155 23.0981Z" fill="#5A5A5A"/>
<path d="M257.861 27.5239C257.249 29.076 256.415 30.5128 255.282 31.816C254.15 33.1152 252.929 33.779 251.637 33.779C250.46 33.779 249.373 33.3459 248.356 32.4798C247.315 31.6137 246.498 30.5877 245.911 29.3998C247.744 28.9202 249.28 27.963 250.526 26.5242C251.772 25.0874 252.403 23.4888 252.403 21.708C252.403 19.9757 251.862 18.5592 250.775 17.4624C249.663 16.3656 248.239 15.8435 246.452 15.8435C242.695 15.8435 239.891 17.8307 237.992 21.799V7.96948H231.002V12.2576H232.947V32.6822C232.43 32.9553 231.884 33.0687 231.407 33.0687C229.415 33.0687 229.032 31.3546 229.032 30.3529V22.6186C229.032 18.1241 225.957 16.1369 222.267 16.1369C218.147 16.1369 216.316 18.5794 216.316 18.5794C216.227 18.715 216.181 18.7636 216.135 18.7636C216.087 18.7636 216.087 18.6745 216.087 18.628V16.6185H209.051V20.9106H211.313V29.8592C210.409 32.4616 208.826 33.0545 207.671 33.0545C205.677 33.0545 205.36 31.2514 205.36 30.2012V16.5983H198.258V20.8864H200.292V29.9907C199.411 32.4798 197.847 33.0505 196.695 33.0505C194.748 33.0505 194.319 31.2474 194.319 30.1971V22.6186C194.319 18.1241 191.244 16.1369 187.511 16.1369C183.395 16.1369 181.608 18.5794 181.608 18.5794V7.96948H156.358C157.035 8.8356 157.445 9.93241 157.445 11.1183C157.445 11.6444 157.356 12.1685 157.22 12.6481H162.922V28.9202C162.922 28.9202 164.28 30.7698 164.685 31.4093C164.844 31.6582 165.115 32.2086 165.115 32.8683C165.115 34.0542 164.369 35.7905 162.92 37.2515V37.5955H168.735V12.6522H176.584V37.5955H181.652V26.4352C181.652 23.4685 183.303 20.9127 186.243 20.9127C186.901 20.9127 189.366 21.2992 189.366 24.0614V32.3219C189.366 35.4707 191.583 38.1865 195.315 38.1865C198.144 38.1865 200.067 36.863 201.2 35.5173C202.171 37.1139 203.916 38.1865 206.245 38.1865C208.507 38.1865 210.178 37.3628 211.359 36.3611V37.6178H216.426V26.4332C216.426 23.4665 218.033 20.9106 220.975 20.9106C221.677 20.9106 224.098 21.2972 224.098 24.0594V32.3199C224.098 35.4687 226.314 38.1844 230.005 38.1844C231.158 38.1844 232.175 37.9578 233.038 37.6138H238.06C238.06 31.3162 238.377 29.4666 238.672 28.2787C239.147 26.1802 239.982 24.3063 241.135 22.7097C242.288 21.113 243.622 20.2894 245.138 20.2894C246.703 20.2894 247.65 21.2486 247.65 22.7097C247.65 24.8102 245.816 26.589 240.977 28.0703C241.113 29.1428 242.222 31.8828 243.397 33.526C245.568 36.5615 248.037 38.1824 251.07 38.1824C252.79 38.1824 254.351 37.6785 255.797 36.6525C258.695 34.6006 260.095 32.0204 261 29.2116L257.861 27.5239Z" fill="#5A5A5A"/>
<path d="M92.5824 24.6946V16.2277C92.2875 16.0436 91.407 16.0011 90.9758 16.0011C85.4318 15.9788 82.8324 20.0868 82.716 20.2224C82.6278 20.36 82.5816 20.4065 82.5335 20.4065C82.4452 20.4065 82.4452 20.2224 82.4452 20.2224V16.594H77.6715V37.5872H82.7401V29.8063C82.7401 28.8471 82.8765 25.8339 84.3928 23.6909C85.2513 22.505 86.521 21.3617 88.3322 21.3617V24.6946H92.5824Z" fill="#5A5A5A"/>
<path d="M202.657 14.3094C204.356 14.3094 205.778 12.8726 205.778 11.1141C205.778 9.40009 204.356 7.96533 202.657 7.96533C200.916 7.96533 199.534 9.40211 199.534 11.1141C199.534 12.8747 200.892 14.3094 202.657 14.3094Z" fill="#5A5A5A"/>
<path d="M152.314 14.3094C154.013 14.3094 155.437 12.8726 155.437 11.1141C155.437 9.40009 154.013 7.96533 152.314 7.96533C150.573 7.96533 149.191 9.40211 149.191 11.1141C149.191 12.8747 150.573 14.3094 152.314 14.3094Z" fill="#5A5A5A"/>
</svg>
