<svg width="40" height="44" viewBox="0 0 40 44" fill="none" xmlns="http://www.w3.org/2000/svg">
<path d="M38.9684 8.38981C38.8723 7.31192 37.9837 6.49907 36.9015 6.49907H31.5328V5.70788H31.6373C32.404 5.70788 33.0277 5.08419 33.0277 4.31765V2.39023C33.0277 1.62369 32.404 1 31.6373 1H15.836C15.4922 1 15.2134 1.27864 15.2134 1.62253C15.2134 1.96641 15.4922 2.24505 15.836 2.24505H31.6373C31.7174 2.24505 31.7826 2.31013 31.7826 2.39023V4.31765C31.7826 4.39775 31.7174 4.46283 31.6373 4.46283H8.36265C8.28255 4.46283 8.2174 4.39775 8.2174 4.31765V2.39023C8.2174 2.31013 8.28255 2.24505 8.36265 2.24505H12.9171C13.2609 2.24505 13.5397 1.96641 13.5397 1.62253C13.5397 1.27864 13.2609 1 12.9171 1H8.36265C7.59603 1 6.97234 1.62369 6.97234 2.39023V4.31765C6.97234 5.08419 7.59603 5.70788 8.36265 5.70788H8.46715V6.49907H3.09848C2.01628 6.49907 1.12773 7.31192 1.03161 8.38981C1.019 8.53075 0.739274 11.886 2.11323 15.6021C3.37032 19.0021 6.25436 23.3433 12.8623 25.047C13.926 25.8875 15.1407 26.5453 16.4586 26.9715L16.7719 27.4887C17.3641 28.4664 17.6771 29.6222 17.6771 30.8311C17.6771 31.5696 17.5594 32.2911 17.3274 32.9753L16.8923 34.2575H15.4446C13.959 34.2575 12.7503 35.4662 12.7503 36.9519V38.256H10.4846C9.84526 38.256 9.32508 38.7762 9.32508 39.4156V42.3398C9.32508 42.9792 9.84526 43.4994 10.4846 43.4994H29.5154C30.1548 43.4994 30.675 42.9792 30.675 42.3398V39.4156C30.675 38.7762 30.1548 38.256 29.5154 38.256H27.2498V36.9519C27.2498 35.4662 26.0411 34.2575 24.5555 34.2575H23.1078L22.6727 32.9753C22.4406 32.2912 22.3229 31.5697 22.3229 30.8311C22.3229 29.6223 22.6359 28.4665 23.2281 27.4887L23.5414 26.9715C24.8593 26.5453 26.0739 25.8876 27.1377 25.047C33.7456 23.3433 36.6297 19.0021 37.8868 15.6021C39.2607 11.886 38.981 8.53083 38.9684 8.38981ZM8.69765 18.2941C7.53693 17.2074 6.64772 15.8594 6.03955 14.2527C5.61698 13.1363 5.34041 11.9242 5.21732 10.6492H8.46715V15.9957C8.46715 16.7825 8.54675 17.5512 8.69765 18.2941ZM3.28109 15.1704C2.00325 11.7143 2.26023 8.63002 2.27177 8.50045C2.3102 8.06933 2.66562 7.74421 3.09848 7.74421H8.46715V9.40428H5.16577C4.82944 9.40428 4.50672 9.54679 4.28029 9.79531C4.05361 10.0442 3.94155 10.3792 3.97284 10.7145C4.10391 12.1192 4.40745 13.4579 4.87509 14.6935C5.79867 17.1336 7.29365 19.039 9.34002 20.3954C9.74267 21.3672 10.2745 22.2725 10.9141 23.0897C6.40385 21.2202 4.27971 17.8711 3.28109 15.1704ZM29.43 39.501V42.2543H10.57V39.501H29.43ZM24.5555 35.5026C25.3546 35.5026 26.0047 36.1528 26.0047 36.9519V38.256H13.9954V36.9519C13.9954 36.1528 14.6455 35.5026 15.4446 35.5026H24.5555ZM21.4937 33.3754L21.793 34.2575H18.2069L18.5063 33.3753C18.7822 32.5619 18.9221 31.706 18.9221 30.8311C18.9221 29.6066 18.6485 28.4244 18.128 27.3758C18.7375 27.4757 19.3626 27.5285 20 27.5285C20.6373 27.5285 21.2625 27.4757 21.8719 27.3758C21.3515 28.4244 21.0778 29.6066 21.0778 30.8311C21.0779 31.7061 21.2177 32.562 21.4937 33.3754ZM20 26.2834C14.3273 26.2834 9.71221 21.6683 9.71221 15.9957V5.70788H30.2878V15.9957C30.2878 21.6684 25.6727 26.2834 20 26.2834ZM36.719 15.1704C35.7204 17.8712 33.5961 21.2206 29.0857 23.0901C29.7264 22.2714 30.2591 21.3644 30.6621 20.3906C32.4192 19.2238 33.7724 17.6524 34.7042 15.6847C34.8513 15.3741 34.7187 15.0028 34.408 14.8557C34.0974 14.7086 33.7262 14.8411 33.579 15.1519C33.0021 16.3701 32.2413 17.4197 31.3018 18.2979C31.4532 17.5538 31.533 16.784 31.533 15.9958V10.6493H34.7829C34.7209 11.2899 34.618 11.9251 34.4768 12.5383C34.3997 12.8734 34.6088 13.2076 34.9439 13.2846C35.2786 13.3621 35.6131 13.1527 35.6902 12.8176C35.8474 12.1346 35.9608 11.427 36.0273 10.7145C36.0586 10.3792 35.9466 10.0442 35.7199 9.79531C35.4934 9.54679 35.1707 9.40428 34.8344 9.40428H31.533V7.74421H36.9017C37.3345 7.74421 37.69 8.06933 37.7284 8.50053C37.7398 8.63002 37.9967 11.7143 36.719 15.1704ZM24.0937 13.0905C24.6566 13.1723 25.1157 13.5592 25.2915 14.1002C25.4673 14.6412 25.3234 15.2241 24.916 15.6212L23.6243 16.8803C23.568 16.9351 23.5423 17.014 23.5556 17.0916L23.8606 18.8695C23.9568 19.4301 23.7306 19.9862 23.2703 20.3206C23.0103 20.5096 22.7059 20.6056 22.3996 20.6056C22.1638 20.6056 21.9268 20.5487 21.7078 20.4336L20.1111 19.5942C20.0416 19.5576 19.9586 19.5576 19.889 19.5942L18.2924 20.4336C17.7888 20.6983 17.19 20.6549 16.7298 20.3207C16.2696 19.9862 16.0434 19.4303 16.1396 18.8696L16.4445 17.0917C16.4578 17.0141 16.4322 16.9352 16.3759 16.8803L15.0842 15.6213C14.6768 15.2242 14.533 14.6414 14.7088 14.1003C14.8846 13.5592 15.3435 13.1723 15.9065 13.0905L17.6916 12.8312C17.7694 12.8199 17.8365 12.7711 17.8713 12.7006L18.6696 11.083C18.9214 10.5729 19.4312 10.256 20.0001 10.256C20.569 10.256 21.0788 10.5729 21.3305 11.083L22.1289 12.7006C22.1637 12.771 22.2308 12.8198 22.3086 12.8312L24.0937 13.0905ZM24.0469 14.7297C24.1393 14.6396 24.1244 14.5378 24.1072 14.4851C24.0901 14.4324 24.0423 14.3412 23.9145 14.3227L22.1294 14.0633C21.646 13.993 21.2284 13.6896 21.0122 13.2517L20.2139 11.6341C20.1568 11.5183 20.0553 11.501 19.9999 11.501C19.9446 11.501 19.843 11.5183 19.7859 11.6341L18.9876 13.2517C18.7715 13.6896 18.3539 13.993 17.8705 14.0633L16.0854 14.3227C15.9576 14.3412 15.9098 14.4324 15.8927 14.4851C15.8756 14.5378 15.8607 14.6396 15.9532 14.7298L17.2449 15.9888C17.5946 16.3298 17.7542 16.8206 17.6716 17.3021L17.3666 19.08C17.3449 19.2073 17.4168 19.2809 17.4616 19.3135C17.5065 19.346 17.5988 19.3918 17.713 19.3317L19.3096 18.4923C19.5257 18.3786 19.7629 18.3218 20 18.3218C20.2371 18.3218 20.4743 18.3786 20.6904 18.4923L22.2871 19.3317C22.4014 19.3919 22.4937 19.3461 22.5384 19.3135C22.5832 19.2809 22.6552 19.2072 22.6334 19.08L22.3284 17.3021C22.2459 16.8206 22.4054 16.3298 22.7551 15.9889L24.0469 14.7297Z" fill="#226E86" stroke="#E6F2F5" stroke-width="0.1"/>
</svg>
