<svg width="40" height="32" viewBox="0 0 40 32" fill="none" xmlns="http://www.w3.org/2000/svg">
<path d="M17.3427 19.9181C17.5418 20.0326 17.7868 20.0326 17.9859 19.9181L24.8608 15.9489C25.0598 15.834 25.1824 15.6216 25.1824 15.3918C25.1824 15.162 25.0598 14.9496 24.8608 14.8348L17.9859 10.8655C17.7869 10.7506 17.5417 10.7506 17.3427 10.8656C17.1437 10.9805 17.0211 11.1928 17.0211 11.4227V19.3608C17.0214 19.5906 17.1439 19.8029 17.3427 19.9181ZM37.3212 0.0402222C38.5555 0.0411078 39.5561 1.04108 39.5578 2.2754V29.7246C39.5561 30.9589 38.5555 31.9589 37.3212 31.9598H2.23662C1.00232 31.9589 0.0017288 30.9589 0 29.7246V2.2754C0.0016846 1.04108 1.0023 0.0411078 2.23662 0.0402222H37.3212ZM2.23662 1.00505C1.53494 1.0054 0.965977 1.57372 0.964825 2.2754V7.20082H38.593V2.2754C38.5918 1.57372 38.0229 1.0054 37.3212 1.00505H2.23662ZM17.9859 11.9797L23.896 15.3918L17.9859 18.804V11.9797ZM38.593 8.16541H0.964825V24.0547H38.593V8.16541ZM3.49363 27.3839C3.76006 27.3839 3.97604 27.5999 3.97604 27.8663C3.97604 28.1327 3.76006 28.3487 3.49363 28.3487H3.01837C2.75194 28.3487 2.53596 28.1327 2.53596 27.8663C2.53596 27.5999 2.75194 27.3839 3.01837 27.3839H3.49363ZM5.90569 27.3839C6.17212 27.3839 6.3881 27.5999 6.3881 27.8663C6.3881 28.1327 6.17212 28.3487 5.90569 28.3487H5.43043C5.164 28.3487 4.94802 28.1327 4.94802 27.8663C4.94802 27.5999 5.164 27.3839 5.43043 27.3839H5.90569ZM36.4585 27.3839C36.7249 27.3839 36.9409 27.5999 36.9409 27.8663C36.9409 28.1327 36.7249 28.3487 36.4585 28.3487H10.3236V28.5394C10.3236 28.8059 10.1076 29.0218 9.84121 29.0218C9.57478 29.0218 9.35879 28.8059 9.35879 28.5394V28.3487H8.64683C8.3804 28.3487 8.16442 28.1327 8.16442 27.8663C8.16442 27.5999 8.3804 27.3839 8.64683 27.3839H9.35879V27.188C9.35879 26.9215 9.57478 26.7055 9.84121 26.7055C10.1076 26.7055 10.3236 26.9215 10.3236 27.188V27.3839H36.4585ZM37.3212 30.995C38.0229 30.9946 38.5918 30.4263 38.593 29.7246V25.0195H0.964825V29.7246C0.965977 30.4263 1.53494 30.9946 2.23662 30.995H37.3212ZM4.06601 5.90105C3.03921 5.90021 2.20685 5.06838 2.20535 4.04159C2.20535 3.0148 3.03761 2.18235 4.0644 2.18213C5.09119 2.18191 5.92382 3.01399 5.92426 4.04078C5.92471 5.06758 5.0928 5.90038 4.06601 5.90105ZM4.06601 3.14704C3.57184 3.14726 3.1711 3.54742 3.17017 4.04159C3.17013 4.53553 3.5704 4.93605 4.06435 4.9363C4.55829 4.93655 4.95898 4.53645 4.95944 4.0425C4.9599 3.54855 4.55995 3.1477 4.06601 3.14704ZM9.02802 5.90105C8.00119 5.90025 7.16878 5.06842 7.16728 4.04159C7.16728 3.01481 7.99952 2.18237 9.02631 2.18213C10.0531 2.1819 10.8857 3.01395 10.8862 4.04073C10.8867 5.06751 10.0548 5.90034 9.02802 5.90105ZM9.02802 3.14704C8.53384 3.14726 8.13308 3.54741 8.1321 4.04159C8.13206 4.53552 8.53232 4.93604 9.02625 4.9363C9.52019 4.93657 9.92088 4.53649 9.92137 4.04255C9.92185 3.54862 9.52196 3.14775 9.02802 3.14704ZM13.8981 5.90105C12.8712 5.90025 12.0388 5.06842 12.0373 4.04159C12.0373 3.01481 12.8696 2.18237 13.8963 2.18213C14.9231 2.1819 15.7557 3.01395 15.7562 4.04073C15.7567 5.06751 14.9248 5.90034 13.8981 5.90105ZM13.8981 3.14704C13.4039 3.14726 13.0031 3.54741 13.0021 4.04159C13.0021 4.53552 13.4023 4.93604 13.8963 4.9363C14.3902 4.93657 14.7909 4.53649 14.7914 4.04255C14.7919 3.54862 14.392 3.14775 13.8981 3.14704ZM21.1572 4.43226C20.8908 4.43226 20.6748 4.21628 20.6748 3.94985C20.6748 3.68342 20.8908 3.46744 21.1572 3.46744H36.9619C37.2284 3.46744 37.4443 3.68342 37.4443 3.94985C37.4443 4.21628 37.2284 4.43226 36.9619 4.43226H21.1572Z" fill="#226E86"/>
</svg>
