<svg width="61" height="64" viewBox="0 0 61 64" fill="none" xmlns="http://www.w3.org/2000/svg">
<path d="M60.5777 61.495L43.5188 32.8037C42.9295 31.8125 41.9071 31.2208 40.7837 31.2208C39.6603 31.2208 38.6379 31.8125 38.0486 32.8037L36.8727 34.7813L29.682 22.6872C29.25 21.9607 28.5853 21.4498 27.8193 21.2273V13.7999H31.3307C31.8147 13.7999 32.2071 13.3932 32.2071 12.8917C32.2071 12.3901 31.8147 11.9834 31.3307 11.9834H27.8193V4.70308H38.8587L37.1872 7.91185C37.0469 8.18112 37.0469 8.5055 37.1872 8.77478L38.8587 11.9835H34.8361C34.3521 11.9835 33.9597 12.3902 33.9597 12.8918C33.9597 13.3934 34.352 13.8 34.8361 13.8H40.3276C40.6362 13.8 40.9221 13.6318 41.0803 13.3571C41.2384 13.0825 41.2454 12.7418 41.0988 12.4605L38.9542 8.34331L41.0987 4.22642C41.2453 3.94494 41.2383 3.60436 41.0801 3.32965C40.922 3.05494 40.6362 2.88671 40.3275 2.88671H27.8191V1.90825C27.8191 1.40669 27.4267 1 26.9428 1C26.4588 1 26.0664 1.40669 26.0664 1.90825V21.2273C25.3002 21.4498 24.6355 21.9607 24.2035 22.6872L7.83039 50.2255C7.57651 50.6525 7.70468 51.212 8.11669 51.4751C8.26001 51.5666 8.41872 51.6102 8.57557 51.6102C8.86968 51.6102 9.15691 51.4569 9.32251 51.1784L19.8717 33.4358L22.7518 36.9234C22.9143 37.1203 23.1503 37.2358 23.4002 37.2409C23.6495 37.2458 23.8902 37.1403 24.0602 36.9503L26.9428 33.728L29.8253 36.9503C29.9914 37.1358 30.2243 37.2411 30.468 37.2411C30.4737 37.2411 30.4795 37.2411 30.4854 37.241C30.7353 37.2358 30.9712 37.1203 31.1337 36.9235L34.0141 33.4358L39.1056 41.9992C39.3595 42.426 39.899 42.559 40.3114 42.296C40.7234 42.0329 40.8517 41.4733 40.5978 41.0463L37.9022 36.5126L39.5408 33.7565C39.8126 33.2993 40.2657 33.0371 40.7837 33.0371C41.3018 33.0371 41.7549 33.2993 42.0267 33.7565L58.2623 61.063L52.4988 61.0627L42.4357 44.1375C42.1817 43.7105 41.6419 43.5776 41.2299 43.8407C40.8179 44.1038 40.6896 44.6633 40.9435 45.0903L50.4401 61.0627H3.4457L7.48217 54.2737C7.73605 53.8467 7.60789 53.2872 7.19588 53.024C6.78387 52.7608 6.24405 52.8938 5.99006 53.3207L1.13027 61.4944C0.963627 61.7745 0.956396 62.1262 1.11126 62.4136C1.26601 62.7011 1.55884 62.8791 1.87639 62.8791H52.0094L59.8316 62.8796C60.1491 62.8796 60.4418 62.7016 60.5967 62.4142C60.7516 62.1268 60.7442 61.7751 60.5777 61.495ZM30.442 34.9678L27.5856 31.7747C27.4197 31.5893 27.1868 31.4839 26.9429 31.4839C26.699 31.4839 26.466 31.5893 26.3002 31.7747L23.4438 34.9678L20.8374 31.8116L25.6959 23.64C25.9687 23.1814 26.4231 22.9183 26.9428 22.9183C27.4625 22.9183 27.917 23.1814 28.1897 23.64L33.0483 31.8116L30.442 34.9678Z" fill="white" stroke="white" stroke-width="0.3"/>
</svg>
