<svg width="38" height="44" viewBox="0 0 38 44" fill="none" xmlns="http://www.w3.org/2000/svg">
<path d="M1 12.3443V31.4866C1.00234 33.4434 2.58806 35.0291 4.54487 35.0315H11.6346C11.8573 35.0332 12.0667 35.1379 12.2018 35.3151L17.797 42.7735C18.2059 43.2637 18.8131 43.5447 19.4514 43.5392C20.0897 43.5337 20.6919 43.2423 21.0923 42.7451L26.6649 35.3151C26.8001 35.1382 27.0094 35.0335 27.232 35.0315H34.3218C36.2786 35.0291 37.8643 33.4434 37.8666 31.4866V12.3443C37.8643 10.3875 36.2786 8.80177 34.3218 8.79943H29.6766C28.3563 4.00591 23.8868 0.770214 18.9207 1.01277C14.3373 1.24294 10.4148 4.37902 9.18156 8.79943H4.54487C2.58806 8.80177 1.00234 10.3875 1 12.3443ZM18.9874 2.4293C21.5063 2.30728 23.9651 3.22271 25.7909 4.96225C27.6167 6.7018 28.65 9.1135 28.65 11.6353C28.6596 14.1849 27.6004 16.6219 25.7297 18.3543C23.9438 20.0774 22.9482 22.4613 22.9782 24.9428V25.8148H15.8885V25.0619C15.9193 22.5264 14.9107 20.0889 13.0972 18.3167C10.4155 15.7801 9.50778 11.8872 10.791 8.4261C12.0741 4.96498 15.3002 2.60467 18.9874 2.4293ZM21.5602 30.7776H17.3064C16.5233 30.7776 15.8885 30.1428 15.8885 29.3597V27.2328H22.9782V29.3597C22.9782 30.1428 22.3434 30.7776 21.5602 30.7776ZM2.41795 12.3443C2.41795 11.1696 3.3702 10.2174 4.54487 10.2174H8.90293C8.88308 10.3656 8.85543 10.5116 8.84267 10.6619C8.54043 13.9076 9.75058 17.1115 12.1231 19.3468C13.6537 20.851 14.502 22.9161 14.4705 25.0619V29.3597C14.4753 30.6489 15.3491 31.7726 16.5974 32.0949V32.9045C16.5974 33.2961 16.9148 33.6135 17.3064 33.6135C17.698 33.6135 18.0154 33.2961 18.0154 32.9045V32.1956H20.8513V32.9045C20.8513 33.2961 21.1687 33.6135 21.5602 33.6135C21.9518 33.6135 22.2692 33.2961 22.2692 32.9045V32.0949C23.5175 31.7726 24.3913 30.6489 24.3961 29.3597V24.9428C24.3652 22.8537 25.1982 20.8445 26.6982 19.3901C28.8572 17.3907 30.0794 14.5779 30.0679 11.6353C30.0644 11.1609 30.0296 10.6872 29.9637 10.2174H34.3218C35.4964 10.2174 36.4487 11.1696 36.4487 12.3443V31.4866C36.4487 32.6613 35.4964 33.6135 34.3218 33.6135H27.232C26.5633 33.6167 25.9343 33.9312 25.5305 34.4643L19.9807 41.8667C19.6922 42.17 19.2128 42.1826 18.9087 41.895L13.3361 34.4643C12.9326 33.931 12.3034 33.6164 11.6346 33.6135H4.54487C3.3702 33.6135 2.41795 32.6613 2.41795 31.4866V12.3443ZM18.0154 20.852C18.4069 20.852 18.7243 21.1694 18.7243 21.561V23.6879C18.7243 24.0794 18.4069 24.3969 18.0154 24.3969C17.6238 24.3969 17.3064 24.0794 17.3064 23.6879V21.561C17.3064 21.1694 17.6238 20.852 18.0154 20.852ZM17.3064 18.0161V17.3071C17.3064 16.9156 17.6238 16.5981 18.0154 16.5981C18.4069 16.5981 18.7243 16.9156 18.7243 17.3071V18.0161C18.7243 18.4076 18.4069 18.7251 18.0154 18.7251C17.6238 18.7251 17.3064 18.4076 17.3064 18.0161ZM20.8513 24.3969C20.4597 24.3969 20.1423 24.0794 20.1423 23.6879V21.561C20.1423 21.1694 20.4597 20.852 20.8513 20.852C21.2428 20.852 21.5602 21.1694 21.5602 21.561V23.6879C21.5602 24.0794 21.2428 24.3969 20.8513 24.3969ZM20.8513 18.7251C20.4597 18.7251 20.1423 18.4076 20.1423 18.0161V17.3071C20.1423 16.9156 20.4597 16.5981 20.8513 16.5981C21.2428 16.5981 21.5602 16.9156 21.5602 17.3071V18.0161C21.5602 18.4076 21.2428 18.7251 20.8513 18.7251ZM8.08974 5.96353C7.92869 5.96361 7.77241 5.90885 7.64663 5.80827L4.10176 2.97237C3.79596 2.72765 3.74644 2.28136 3.99116 1.97556C4.23588 1.66975 4.68217 1.62023 4.98798 1.86495L8.53285 4.70085C8.76807 4.88895 8.85878 5.20513 8.75905 5.48932C8.65932 5.77351 8.39092 5.96367 8.08974 5.96353ZM31.22 5.80827C31.0222 5.96658 30.7549 6.00732 30.5189 5.91516C30.2829 5.82299 30.114 5.61192 30.0758 5.36145C30.0376 5.11098 30.136 4.85916 30.3338 4.70085L33.8787 1.86495C34.1845 1.62023 34.6308 1.66975 34.8755 1.97556C35.1202 2.28136 35.0707 2.72765 34.7649 2.97237L31.22 5.80827ZM3.99116 26.2579C4.10865 26.4048 4.2797 26.499 4.46665 26.5197C4.65361 26.5405 4.84115 26.4861 4.98798 26.3685L8.53285 23.5326C8.83865 23.2879 8.88817 22.8416 8.64345 22.5358C8.39873 22.23 7.95244 22.1805 7.64663 22.4252L4.10176 25.2611C3.95486 25.3786 3.86067 25.5496 3.83993 25.7366C3.81918 25.9235 3.87359 26.1111 3.99116 26.2579ZM33.8787 26.3685C34.1845 26.6132 34.6308 26.5637 34.8755 26.2579C35.1202 25.9521 35.0707 25.5058 34.7649 25.2611L31.22 22.4252C30.9142 22.1805 30.4679 22.23 30.2232 22.5358C29.9785 22.8416 30.028 23.2879 30.3338 23.5326L33.8787 26.3685ZM12.9171 10.2039C12.5329 10.1296 12.2816 9.75798 12.3556 9.3737C13.0107 5.99827 16.1905 4.65406 16.3259 4.59876C16.6879 4.44938 17.1024 4.62174 17.2518 4.98373C17.4012 5.34573 17.2288 5.76027 16.8668 5.90965C16.8413 5.92029 14.2557 7.03196 13.7474 9.64311C13.6829 9.97607 13.3917 10.2168 13.0526 10.2174C13.0071 10.2173 12.9617 10.2128 12.9171 10.2039ZM4.54487 13.7622H6.67179C7.06335 13.7622 7.38077 13.4448 7.38077 13.0533C7.38077 12.6617 7.06335 12.3443 6.67179 12.3443H4.54487C4.15331 12.3443 3.8359 12.6617 3.8359 13.0533C3.8359 13.4448 4.15331 13.7622 4.54487 13.7622ZM32.1949 13.7622H34.3218C34.7133 13.7622 35.0308 13.4448 35.0308 13.0533C35.0308 12.6617 34.7133 12.3443 34.3218 12.3443H32.1949C31.8033 12.3443 31.4859 12.6617 31.4859 13.0533C31.4859 13.4448 31.8033 13.7622 32.1949 13.7622Z" fill="#226E86" stroke="#E6F2F5" stroke-width="0.1"/>
</svg>
