<svg width="609" height="449" viewBox="0 0 609 449" fill="none" xmlns="http://www.w3.org/2000/svg">
<path d="M62.0038 83.5296C54.494 107.052 103.777 151.331 78.6661 172.086C-87.4874 308.38 58.953 429.684 73.2684 437.525C126.541 467.044 181.925 372.03 283.072 376.873C369.669 381.024 384.689 453.437 464.715 448.595C530.425 444.443 600.829 390.941 608.339 333.978C616.318 274.249 549.434 253.955 548.965 175.315C548.495 107.975 597.074 77.0724 579.239 50.7822C563.984 28.1818 538.404 -2.72072 434.441 1.19975C326.488 5.12022 337.049 82.3765 255.849 92.0624C201.404 98.0584 96.0324 -22.7843 62.0038 83.5296Z" fill="#E7F2F6"/>
<path d="M528.079 352.659H121.144C112.695 352.659 105.889 345.971 105.889 337.669V53.5497C105.889 45.2476 112.695 38.5597 121.144 38.5597H528.079C536.527 38.5597 543.333 45.2476 543.333 53.5497V337.669C543.098 345.971 536.293 352.659 528.079 352.659Z" fill="#617389"/>
<path d="M512.12 340.205H122.316C119.735 340.205 117.388 338.13 117.388 335.362V55.3944C117.388 52.8577 119.5 50.5515 122.316 50.5515H512.355L512.12 340.205Z" fill="#C5CFEA"/>
<path d="M492.172 89.7563H131.938V335.824H492.172V89.7563Z" fill="white"/>
<path d="M304.898 259.72L261.013 277.016L206.802 144.181L243.881 129.653C247.636 128.269 251.86 129.883 253.268 133.573L304.898 259.72Z" fill="#9EA7C6"/>
<path d="M226.187 269.169L310.064 254.552L289.126 138.522L205.249 153.139L226.187 269.169Z" fill="#C5CFEA"/>
<path d="M230.674 161.456L268.107 154.933L267.943 154.024L230.51 160.547L230.674 161.456Z" fill="#5577A0"/>
<path d="M222.554 160.731L275.699 151.47L275.535 150.562L222.39 159.823L222.554 160.731Z" fill="#5577A0"/>
<path d="M218.539 172.724L283.237 161.45L283.073 160.542L218.375 171.816L218.539 172.724Z" fill="#5577A0"/>
<path d="M219.319 176.704L284.017 165.429L283.853 164.521L219.155 175.795L219.319 176.704Z" fill="#5577A0"/>
<path d="M220.751 184.583L285.45 173.309L285.286 172.401L220.588 183.675L220.751 184.583Z" fill="#5577A0"/>
<path d="M221.412 188.594L286.111 177.32L285.947 176.412L221.248 187.686L221.412 188.594Z" fill="#5577A0"/>
<path d="M222.184 192.463L286.883 181.189L286.719 180.281L222.02 191.555L222.184 192.463Z" fill="#5577A0"/>
<path d="M225.142 209.982L289.847 198.714L289.683 197.806L224.978 209.074L225.142 209.982Z" fill="#5577A0"/>
<path d="M226.031 214.248L290.729 202.973L290.565 202.065L225.867 213.339L226.031 214.248Z" fill="#5577A0"/>
<path d="M226.817 218.37L291.515 207.096L291.351 206.187L226.653 217.462L226.817 218.37Z" fill="#5577A0"/>
<path d="M227.57 222.379L292.268 211.105L292.104 210.196L227.406 221.471L227.57 222.379Z" fill="#5577A0"/>
<path d="M228.357 226.495L293.055 215.221L292.892 214.313L228.193 225.587L228.357 226.495Z" fill="#5577A0"/>
<path d="M228.91 230.661L293.608 219.387L293.444 218.479L228.746 229.753L228.91 230.661Z" fill="#5577A0"/>
<path d="M229.697 234.783L294.395 223.508L294.231 222.6L229.533 233.875L229.697 234.783Z" fill="#5577A0"/>
<path d="M225.192 270.923L307.579 249.618L277.059 135.65L194.672 156.955L225.192 270.923Z" fill="#F2F2F2"/>
<path d="M220.714 163.253L257.482 153.745L257.243 152.853L220.475 162.361L220.714 163.253Z" fill="#9E85BD"/>
<path d="M212.398 163.324L264.599 149.825L264.36 148.933L212.159 162.432L212.398 163.324Z" fill="#9E85BD"/>
<path d="M209.443 175.284L272.992 158.85L272.753 157.958L209.204 174.391L209.443 175.284Z" fill="#9E85BD"/>
<path d="M210.641 179.243L274.189 162.809L273.951 161.917L210.402 178.351L210.641 179.243Z" fill="#9E85BD"/>
<path d="M212.717 186.988L276.266 170.554L276.027 169.662L212.478 186.096L212.717 186.988Z" fill="#9E85BD"/>
<path d="M213.642 190.889L277.191 174.455L276.952 173.563L213.403 189.997L213.642 190.889Z" fill="#9E85BD"/>
<path d="M214.853 194.954L278.401 178.52L278.162 177.628L214.614 194.062L214.853 194.954Z" fill="#9E85BD"/>
<path d="M219.34 212.151L282.888 195.718L282.649 194.826L219.101 211.259L219.34 212.151Z" fill="#9E85BD"/>
<path d="M220.457 216.027L284.005 199.594L283.766 198.701L220.218 215.135L220.457 216.027Z" fill="#9E85BD"/>
<path d="M221.568 220.251L285.117 203.817L284.878 202.925L221.33 219.359L221.568 220.251Z" fill="#9E85BD"/>
<path d="M222.572 224.151L286.12 207.717L285.881 206.825L222.333 223.258L222.572 224.151Z" fill="#9E85BD"/>
<path d="M223.794 228.37L287.343 211.937L287.104 211.045L223.555 227.478L223.794 228.37Z" fill="#9E85BD"/>
<path d="M224.798 232.266L288.346 215.832L288.107 214.94L224.559 231.374L224.798 232.266Z" fill="#9E85BD"/>
<path d="M225.734 236.316L289.283 219.882L289.044 218.99L225.495 235.424L225.734 236.316Z" fill="#9E85BD"/>
<path d="M288.235 266.178L199.996 301.001L148.601 175.084L222.76 130.114C226.984 127.577 232.382 129.422 234.259 133.804L288.235 266.178Z" fill="#D7D7D7"/>
<path d="M164.09 188.921L224.168 155.251L232.382 170.933L170.896 202.988L164.09 188.921Z" fill="#9EA7C6"/>
<path d="M493.581 95.9828V77.7642C493.581 71.5375 488.418 66.464 482.081 66.464H144.846C138.51 66.464 133.347 71.5375 133.347 77.7642V95.9828H493.581Z" fill="#1080A5"/>
<path d="M468.705 252.341C471.286 252.571 473.868 253.263 472.694 255.339C471.756 257.414 469.174 257.184 469.174 257.184L468.705 252.341Z" fill="#ACDBE0"/>
<path d="M465.889 216.365C468.94 216.595 472.929 217.287 471.286 219.363C469.644 221.207 463.777 221.669 463.777 221.669L465.889 216.365Z" fill="#5077AC"/>
<path d="M462.838 165.168C465.419 164.937 468.705 165.168 468.236 167.013C468.001 168.396 462.838 168.858 462.838 168.858V165.168Z" fill="#74C7CD"/>
<path d="M469.643 244.269C469.174 247.498 469.174 256.03 469.174 256.03C450.165 266.408 411.677 279.784 409.33 279.784C406.983 279.553 402.759 271.943 405.81 269.637C408.861 267.331 467.296 245.192 469.643 244.269Z" fill="#F2F2F2"/>
<path d="M307.245 239.426C307.48 242.193 307.01 249.112 307.714 249.804C308.418 250.496 404.872 281.398 409.096 281.859C413.32 282.551 464.95 260.412 471.052 257.414C473.633 255.569 472.929 252.802 470.348 254.877C467.766 256.722 412.382 278.4 408.627 279.323C407.923 279.092 406.045 272.174 408.392 270.098C410.739 268.022 471.052 245.422 473.633 244.038C476.919 241.963 477.623 239.887 468.94 238.965C459.552 238.042 307.245 239.426 307.245 239.426Z" fill="#97D2D9"/>
<path d="M467.766 233.43C469.643 233.661 473.867 233.661 474.571 234.814C474.806 235.275 474.806 236.197 473.163 237.12C469.174 239.195 427.401 263.41 425.289 262.949C423.177 262.488 421.769 260.873 421.769 260.873C421.769 260.873 462.133 235.505 467.766 233.43Z" fill="#FAE0B2"/>
<path d="M469.643 221.207C466.123 225.128 465.888 233.66 469.878 235.275C464.715 238.734 423.176 262.257 423.176 262.257C423.176 262.257 417.544 249.803 425.523 244.73C433.502 239.656 469.643 221.207 469.643 221.207Z" fill="#F2F2F2"/>
<path d="M316.162 217.979C311.469 218.901 302.316 219.362 302.081 225.589C301.612 231.815 301.847 237.35 302.785 239.656C303.489 241.963 406.045 261.565 420.83 264.102C425.054 265.255 427.87 263.41 434.441 259.951C441.012 256.491 472.694 238.042 474.337 236.658C475.979 235.505 474.571 233.43 472.224 234.813C469.878 236.197 430.921 258.798 426.931 261.334C424.819 262.257 424.584 248.65 429.513 244.961C434.206 241.271 469.643 220.746 469.643 220.746C469.643 220.746 316.632 217.979 316.162 217.979Z" fill="#FAE0B2"/>
<path d="M466.827 203.219L466.592 219.824C458.379 226.281 425.993 241.04 420.83 241.04C417.779 239.195 414.259 222.591 422.707 220.746C431.39 218.671 466.827 203.219 466.827 203.219Z" fill="#F2F2F2"/>
<path d="M316.867 199.068C311.469 201.605 307.949 210.138 314.52 219.593C316.632 222.13 410.739 240.809 420.83 243.577C425.054 244.269 464.246 224.436 470.113 220.976C474.102 218.209 470.347 216.825 466.358 220.054C462.368 223.283 425.289 239.195 422.942 240.118C419.891 241.04 416.84 228.126 423.411 223.744C429.982 219.362 467.062 204.603 470.113 203.219C472.694 201.605 473.163 199.529 470.113 199.299C467.062 199.068 360.986 189.151 360.282 189.151C359.344 189.151 324.611 195.378 316.867 199.068Z" fill="#9EA7C6"/>
<path d="M418.952 221.207C418.952 221.207 418.718 221.207 418.014 221.207C417.544 221.207 416.606 220.977 415.432 220.977C414.259 220.746 413.085 220.746 411.443 220.516C409.8 220.285 408.157 220.054 406.28 219.593C404.402 219.362 402.29 218.901 399.943 218.44C397.597 217.979 395.25 217.518 392.668 217.056C387.505 216.134 381.873 214.981 376.006 213.828C364.272 211.522 353.711 209.215 345.967 207.832C342.212 207.14 338.927 206.448 336.814 205.987C335.876 205.756 334.937 205.526 334.233 205.526C333.764 205.295 333.294 205.295 333.294 205.295C333.294 205.295 333.529 205.295 334.233 205.526C334.702 205.526 335.641 205.756 336.814 205.987C338.927 206.448 341.977 206.909 345.967 207.601C353.711 209.215 364.272 211.291 376.006 213.597C381.873 214.75 387.505 215.903 392.668 216.826C395.25 217.287 397.597 217.748 399.943 218.209C402.29 218.671 404.402 218.901 406.28 219.362C408.157 219.824 410.035 220.054 411.443 220.285C412.851 220.516 414.259 220.746 415.432 220.977C416.371 221.207 417.31 221.207 418.014 221.438C418.718 220.977 418.952 221.207 418.952 221.207Z" fill="#5077AC"/>
<path d="M464.95 188.46C467.062 188.46 468.939 188.921 468.705 189.844C468.47 190.766 467.297 192.15 467.297 192.15C467.297 192.15 464.95 192.842 464.95 188.46Z" fill="#D95F68"/>
<path d="M465.418 171.856C465.184 176.007 465.653 190.997 465.653 190.997C453.215 202.066 444.062 209.907 439.134 210.599C434.206 211.291 428.104 196.07 436.083 187.768C444.062 181.772 465.418 171.856 465.418 171.856Z" fill="#F2F2F2"/>
<path d="M317.571 177.39C311 178.082 307.01 193.533 315.693 202.066C316.632 202.988 407.453 212.213 432.329 213.366C437.258 213.597 442.186 212.905 445.706 209.907C449.226 206.909 464.715 195.609 467.297 192.841C469.878 190.074 469.174 187.768 466.593 189.843C464.246 191.919 447.114 206.678 440.543 209.676C433.972 212.674 434.442 192.611 438.9 187.998C443.594 183.386 465.185 172.547 466.358 171.394C467.766 170.241 467.062 167.474 464.95 168.396C463.073 169.78 322.734 172.778 317.571 177.39Z" fill="#ED6C81"/>
<path d="M431.625 210.368H430.686C420.36 210.138 381.169 205.987 380.7 205.987L379.526 205.756L380.23 205.064C385.158 199.991 383.985 192.841 381.169 187.768L380.7 186.845H381.638C382.108 186.845 421.769 188.69 429.982 188.921H430.686L430.452 189.613C427.401 199.068 428.809 205.525 430.686 209.446L431.625 210.368Z" fill="#F2919B"/>
<path d="M465.185 154.329L464.246 166.551C462.134 169.549 438.431 181.08 434.442 182.002C430.452 182.925 427.167 172.317 434.911 166.09C441.247 161.247 465.185 154.329 465.185 154.329Z" fill="#F2F2F2"/>
<path d="M349.017 146.718C341.508 146.488 308.418 154.329 306.775 156.635C303.959 161.017 303.959 175.315 308.652 177.16C313.346 179.005 429.513 185.462 433.268 185.231C437.257 185.001 464.949 169.549 467.765 168.166C469.408 167.013 465.888 165.398 464.48 166.321C463.307 167.243 442.185 178.543 434.91 181.541C430.451 183.386 432.094 168.166 436.318 166.551C440.543 164.706 466.827 155.943 468 154.559C469.174 153.176 469.408 151.792 467.061 151.561C465.184 150.869 360.282 146.949 349.017 146.718Z" fill="#97D2D9"/>
<path d="M323.672 179.005C323.437 179.235 322.498 178.313 321.325 176.468C320.386 174.623 319.682 171.856 319.448 168.627C319.213 165.398 319.917 162.631 320.621 160.555C321.09 159.633 321.56 158.941 322.029 158.48C322.498 158.019 322.733 158.019 322.968 158.019C322.968 158.249 322.733 158.249 322.498 158.71C322.264 159.172 322.029 159.863 321.794 160.786C321.325 162.631 321.09 165.398 321.09 168.396C321.325 171.394 321.794 174.162 322.498 176.007C322.968 177.852 323.907 178.774 323.672 179.005Z" fill="#9EA7C6"/>
<path d="M328.835 179.235C328.601 179.466 327.662 178.543 326.488 176.699C325.55 174.854 324.846 172.086 324.611 168.858C324.376 165.629 325.08 162.862 325.784 160.786C326.254 159.864 326.723 159.172 327.192 158.71C327.662 158.249 327.896 158.249 328.131 158.249C328.131 158.48 327.896 158.48 327.662 158.941C327.427 159.402 327.192 160.094 326.958 161.017C326.488 162.862 326.254 165.629 326.254 168.627C326.488 171.625 326.958 174.392 327.662 176.237C328.131 178.082 328.835 179.005 328.835 179.235Z" fill="#9EA7C6"/>
<path d="M410.269 183.848C410.034 184.078 409.096 183.156 408.392 181.08C407.688 179.235 407.218 176.468 407.218 173.47C407.453 170.472 407.922 167.704 408.626 165.86C409.096 164.937 409.33 164.245 409.8 163.784C410.269 163.323 410.504 163.323 410.504 163.323C410.504 163.323 410.269 163.553 410.269 164.015C410.034 164.476 409.8 165.168 409.565 166.09C409.096 167.935 408.626 170.472 408.626 173.47C408.392 176.468 408.861 179.005 409.33 180.85C409.8 182.694 410.504 183.617 410.269 183.848Z" fill="#9EA7C6"/>
<path d="M415.197 184.309C415.197 184.309 414.727 184.078 414.493 183.617C414.023 183.156 413.789 182.464 413.319 181.541C412.615 179.696 412.146 176.698 412.381 173.7C412.615 170.702 413.085 167.935 414.023 166.09C414.493 165.168 414.962 164.476 415.197 164.014C415.666 163.553 415.901 163.553 415.901 163.553C415.901 163.553 415.666 163.784 415.431 164.245C415.197 164.706 414.962 165.398 414.727 166.321C414.258 168.166 413.789 170.702 413.554 173.7C413.319 176.698 413.554 179.235 414.023 181.08C414.727 183.156 415.431 184.078 415.197 184.309Z" fill="#9EA7C6"/>
<path d="M430.217 164.476C430.217 164.476 429.747 164.476 429.043 164.476C428.339 164.476 427.166 164.476 425.523 164.245C422.472 164.014 418.013 163.784 412.616 163.553C401.82 162.861 386.566 161.939 369.904 161.016C353.242 160.094 338.222 158.941 327.192 158.249C321.794 157.788 317.336 157.557 314.285 157.326C312.642 157.326 311.469 157.096 310.764 157.096C310.295 157.096 310.06 157.096 309.826 157.096C309.591 157.096 309.591 157.096 309.591 157.096C309.591 157.096 310.06 157.096 310.764 157.096C311.469 157.096 312.642 157.096 314.285 157.096C317.336 157.096 321.794 157.557 327.192 157.788C337.987 158.48 353.242 159.402 369.904 160.324C386.566 161.478 401.586 162.4 412.616 163.092C418.013 163.553 422.472 163.784 425.523 164.014C427.166 164.245 428.339 164.245 429.043 164.245C429.747 164.476 430.217 164.476 430.217 164.476Z" fill="#9EA7C6"/>
<path d="M439.604 212.444C439.604 212.444 439.369 212.444 439.134 212.674C438.9 212.674 438.665 212.905 438.196 212.905C437.726 212.905 437.257 212.905 436.553 212.674C435.849 212.444 435.145 211.983 434.675 211.291C433.502 209.907 433.033 208.062 432.563 205.987C432.094 203.911 432.094 201.374 432.094 199.068C432.094 197.915 432.094 196.531 432.329 195.378C432.563 194.225 432.563 193.072 433.033 191.919C433.267 190.997 433.737 189.843 434.206 189.152C434.675 188.229 435.145 187.537 435.614 186.845C436.553 185.462 437.726 184.77 438.665 184.309C439.134 184.078 439.369 183.847 439.604 183.847C439.838 183.847 440.073 183.617 440.073 183.617C440.073 183.617 440.073 183.847 439.838 183.847C439.604 184.078 439.369 184.078 438.9 184.309C438.196 184.77 437.257 185.692 436.084 186.845C435.614 187.537 435.145 188.229 434.675 189.152C434.206 190.074 433.971 190.997 433.737 191.919C433.502 192.841 433.267 193.995 433.267 195.148C433.033 196.301 433.033 197.454 433.267 198.607C433.267 201.144 433.502 203.45 433.737 205.525C433.971 207.601 434.675 209.446 435.614 210.599C436.084 211.291 436.553 211.521 437.257 211.983C437.961 212.444 438.43 212.213 438.9 212.213C439.134 212.444 439.604 212.444 439.604 212.444Z" fill="#B92E36"/>
<path d="M422.238 242.193C422.003 242.193 421.769 242.424 421.534 242.193C421.065 242.193 420.126 241.963 419.657 241.04C418.249 239.426 417.31 236.658 417.31 233.199C417.075 231.585 417.31 229.509 417.779 227.434C418.014 226.511 418.249 225.358 418.718 224.436C418.953 223.975 419.187 223.513 419.657 223.052C419.891 222.821 420.126 222.591 420.361 222.36C420.595 222.13 420.83 221.899 421.065 221.899C422.942 220.515 425.289 219.593 427.401 218.44C429.748 217.287 432.095 216.364 434.441 215.211C444.298 211.06 453.216 207.601 459.552 205.064C462.838 203.68 465.419 202.758 467.062 202.066C468.001 201.605 468.705 201.374 469.174 201.144C469.643 200.913 469.878 200.913 469.878 200.913C469.878 200.913 469.643 201.144 469.174 201.374C468.705 201.605 468.001 202.066 467.297 202.297C465.654 203.219 463.072 204.142 459.787 205.525C453.451 208.293 444.533 211.752 434.676 215.903C432.329 216.825 429.748 217.979 427.636 219.132C425.289 220.285 423.177 221.207 421.299 222.591C420.83 222.821 420.361 223.283 420.126 223.513C419.657 223.975 419.422 224.436 419.187 224.897C418.718 225.819 418.483 226.742 418.249 227.664C417.779 229.509 417.779 231.585 417.779 233.199C418.014 236.658 418.718 239.426 419.891 240.81C420.595 241.501 421.299 241.732 421.769 241.963C422.003 241.963 422.238 241.963 422.238 241.963C422.238 242.193 422.238 242.193 422.238 242.193Z" fill="#5077AC"/>
<path d="M377.619 234.626C377.664 234.375 361.666 231.37 341.886 227.913C322.105 224.456 306.034 221.857 305.988 222.108C305.943 222.359 321.941 225.365 341.721 228.821C361.501 232.278 377.573 234.877 377.619 234.626Z" fill="#EFE3CE"/>
<path d="M415.197 277.939C415.197 277.939 414.493 278.631 413.085 279.553C412.381 280.014 411.443 280.476 410.504 280.706C410.034 280.937 409.33 280.937 408.626 280.706C408.392 280.476 407.922 280.245 407.922 280.014C407.688 279.784 407.688 279.323 407.453 279.092C407.218 278.4 407.218 277.939 407.218 277.247C407.218 276.786 406.984 276.094 406.984 275.633C406.749 274.71 406.749 273.557 406.984 272.865C406.984 272.173 407.218 271.482 407.453 271.02C407.688 270.559 407.922 270.328 407.922 270.559C407.922 270.559 407.922 270.79 407.688 271.251C407.453 271.712 407.453 272.173 407.453 273.096C407.453 273.788 407.453 274.71 407.688 275.863C407.688 276.325 407.922 276.786 407.922 277.478C408.157 277.939 408.157 278.631 408.157 279.092C408.392 279.553 408.626 280.014 408.861 280.245C409.33 280.476 409.8 280.476 410.269 280.245C411.208 280.014 412.147 279.553 412.851 279.323C414.259 278.4 414.963 277.708 415.197 277.939Z" fill="#63A1A4"/>
<path d="M419.422 263.641C419.422 263.641 419.187 263.871 418.483 264.102C418.014 264.332 417.075 264.563 416.136 264.794C415.198 265.255 414.024 265.485 412.616 266.177C411.912 266.408 411.208 266.639 410.504 266.869C409.8 267.1 409.096 267.33 408.157 267.561C407.453 267.792 406.749 268.022 406.28 268.483C405.811 268.945 405.576 269.406 405.341 270.098C404.872 271.251 405.106 272.635 405.106 273.557C405.106 274.479 405.106 275.402 405.106 276.094C405.106 276.555 405.106 277.016 404.872 277.016C404.872 277.016 404.637 276.786 404.637 276.094C404.637 275.633 404.402 274.71 404.402 273.557C404.402 272.635 404.168 271.251 404.637 269.867C404.872 269.406 404.872 269.175 405.106 268.945C405.341 268.714 405.341 268.714 405.576 268.483C405.811 268.253 405.811 268.253 406.045 268.022C406.749 267.561 407.453 267.33 408.157 267.1C408.861 266.869 409.8 266.639 410.504 266.408C411.208 266.177 411.912 265.947 412.616 265.716C414.024 265.255 415.198 264.794 416.136 264.563C417.075 264.332 418.014 264.102 418.483 263.871C418.953 263.64 419.187 263.641 419.422 263.641Z" fill="#C5E6EF"/>
<path d="M406.54 267.407C406.608 267.161 390.638 262.701 370.87 257.445C351.102 252.188 335.023 248.127 334.955 248.372C334.887 248.618 350.857 253.079 370.625 258.335C390.393 263.591 406.473 267.653 406.54 267.407Z" fill="#63A1A4"/>
<path d="M473.868 241.732C473.868 241.963 472.694 242.424 470.817 243.347C468.94 244.269 466.123 245.422 463.073 246.806C460.022 248.189 457.206 249.343 455.093 250.034C452.981 250.726 451.808 251.418 451.808 251.187C451.808 251.187 452.981 250.496 454.859 249.573C456.736 248.651 459.552 247.267 462.603 246.114C465.654 244.73 468.47 243.577 470.582 242.885C472.46 241.963 473.868 241.502 473.868 241.732Z" fill="#63A1A4"/>
<path d="M465.417 218.533C465.312 218.301 455.824 222.238 444.226 227.328C432.628 232.419 423.312 236.733 423.417 236.966C423.523 237.199 433.011 233.261 444.609 228.171C456.207 223.081 465.523 218.766 465.417 218.533Z" fill="white"/>
<path d="M453.92 214.75C453.92 214.75 452.277 215.442 449.696 216.595C447.114 217.748 443.359 219.132 439.135 220.746C437.023 221.438 435.145 222.36 433.268 223.052C432.329 223.513 431.625 223.744 430.687 223.975C429.982 224.205 429.278 224.666 428.574 224.897C427.166 225.358 426.228 225.82 425.289 226.05C424.585 226.281 424.115 226.281 424.115 226.281C424.115 226.281 424.585 226.05 425.289 225.82C425.993 225.589 427.166 225.128 428.34 224.436C429.044 224.205 429.748 223.744 430.452 223.513C431.156 223.052 432.095 222.822 433.033 222.591C434.911 221.899 436.788 221.207 438.9 220.285C442.89 218.67 446.645 217.287 449.461 216.364C452.277 215.442 453.92 214.75 453.92 214.75Z" fill="white"/>
<path d="M466.592 210.138C466.592 210.138 466.123 210.368 465.419 210.83C464.715 211.291 463.541 211.983 461.899 212.674C458.848 214.289 454.624 216.134 449.93 218.209C445.236 220.054 440.777 221.899 437.492 223.052C435.849 223.513 434.676 223.975 433.737 224.436C432.798 224.666 432.329 224.897 432.329 224.897C432.329 224.897 432.798 224.666 433.737 224.205C434.676 223.744 435.849 223.283 437.492 222.591C440.543 221.207 445.002 219.593 449.695 217.748C454.389 215.672 458.613 213.828 461.664 212.444C464.715 211.06 466.592 210.138 466.592 210.138Z" fill="white"/>
<path d="M446.879 239.656C446.879 239.656 445.941 240.348 444.063 241.501C443.125 241.963 442.186 242.655 441.012 243.346C439.839 244.038 438.431 244.73 437.258 245.653C435.849 246.344 434.676 247.267 433.503 247.959C432.329 248.651 431.156 249.342 430.217 249.573C428.34 250.265 427.166 250.957 427.166 250.957C427.166 250.957 428.105 250.034 429.982 249.112C430.921 248.651 431.86 248.189 433.033 247.267C434.207 246.575 435.615 245.883 436.788 244.961C438.196 244.269 439.37 243.346 440.543 242.655C441.716 241.963 442.89 241.271 443.829 241.04C445.706 240.118 446.879 239.656 446.879 239.656Z" fill="white"/>
<path d="M433.503 249.573C433.503 249.803 431.86 250.726 429.748 251.879C427.636 253.032 425.993 253.724 425.758 253.493C425.524 253.263 427.166 252.34 429.278 251.187C431.625 250.265 433.503 249.342 433.503 249.573Z" fill="white"/>
<path d="M448.287 243.577C448.287 243.577 448.053 243.808 447.583 244.269C447.114 244.73 446.175 245.192 445.471 245.883C443.594 247.267 441.012 248.881 438.196 250.726C437.492 251.188 436.788 251.649 435.849 251.879C435.145 252.341 434.441 252.571 433.737 252.802C432.329 253.263 430.921 253.724 429.982 254.186C429.044 254.647 428.105 255.108 427.635 255.339C427.166 255.8 426.931 256.031 426.931 255.8C426.931 255.8 427.166 255.339 427.635 255.108C428.105 254.647 429.044 254.186 429.982 253.724C430.921 253.263 432.329 252.802 433.737 252.341C434.441 252.11 435.145 251.649 435.849 251.418C436.553 250.957 437.257 250.726 437.961 250.265C440.777 248.42 443.359 246.806 445.471 245.653C446.41 244.961 447.114 244.73 447.818 244.269C448.053 243.577 448.287 243.577 448.287 243.577Z" fill="white"/>
<path d="M452.511 257.414C452.511 257.414 452.042 257.645 450.868 258.106C449.695 258.567 448.287 259.259 446.409 259.951C444.532 260.643 442.185 261.565 439.604 262.488C437.022 263.41 434.206 264.333 431.39 265.486C428.339 266.408 425.523 267.331 423.176 268.253C420.595 269.175 418.248 269.867 416.37 270.559C414.493 271.251 412.85 271.712 411.677 271.943C410.503 272.173 410.034 272.404 410.034 272.404C410.034 272.404 410.503 272.173 411.677 271.712C412.615 271.251 414.258 270.79 416.37 270.098C418.248 269.406 420.595 268.484 423.176 267.561C425.758 266.639 428.574 265.716 431.39 264.563C434.441 263.641 437.257 262.718 439.838 261.796C442.42 260.873 444.767 260.181 446.644 259.259C448.521 258.567 450.164 257.875 451.103 257.414C451.807 257.645 452.511 257.414 452.511 257.414Z" fill="white"/>
<path d="M468.47 249.804C468.47 249.804 468 250.034 467.296 250.496C466.592 250.957 465.419 251.418 463.776 251.879C460.96 253.032 456.736 254.647 452.277 256.261C447.818 257.875 443.594 259.49 440.543 260.182C439.135 260.643 437.727 261.104 437.023 261.335C436.084 261.565 435.615 261.796 435.615 261.565C435.615 261.565 436.084 261.335 436.788 261.104C437.492 260.873 438.9 260.412 440.308 259.72C443.359 258.798 447.348 257.184 451.807 255.569C456.266 253.955 460.491 252.341 463.307 251.418C464.715 250.957 466.123 250.496 466.827 250.265C468 249.804 468.47 249.804 468.47 249.804Z" fill="white"/>
<path d="M430.217 268.945C430.217 268.945 429.043 269.637 427.166 270.559C425.288 271.482 422.472 272.404 419.421 273.557C416.371 274.71 413.554 275.633 411.442 276.325C409.33 277.017 408.157 277.247 408.157 277.247C408.157 277.247 409.33 276.555 411.208 275.863C413.085 275.172 415.901 274.018 419.187 272.865C422.238 271.712 425.054 270.79 427.166 270.098C429.043 269.406 430.217 268.945 430.217 268.945Z" fill="white"/>
<path d="M452.746 164.015C452.746 164.015 451.808 164.706 450.165 165.398C448.522 166.09 446.41 167.013 443.829 168.166C438.9 170.011 434.676 171.856 434.676 171.625C434.676 171.625 435.615 170.933 437.258 170.241C438.9 169.549 441.012 168.627 443.594 167.474C448.522 165.398 452.512 163.784 452.746 164.015Z" fill="white"/>
<path d="M443.594 169.088C443.594 169.319 441.482 170.472 438.666 171.625C435.85 172.778 433.503 173.931 433.503 173.701C433.268 173.47 435.615 172.086 438.431 170.933C441.247 169.78 443.359 168.858 443.594 169.088Z" fill="white"/>
<path d="M449.226 172.547C449.226 172.778 445.941 174.392 441.716 176.468C437.492 178.313 433.737 179.696 433.737 179.466C433.737 179.235 437.258 177.621 441.482 175.776C445.706 173.7 449.226 172.317 449.226 172.547Z" fill="white"/>
<path d="M455.562 168.165C455.562 168.396 452.511 170.01 448.287 171.625C444.063 173.239 440.777 174.623 440.777 174.392C440.777 174.162 443.828 172.547 448.052 170.933C452.042 169.319 455.328 167.935 455.562 168.165Z" fill="white"/>
<path d="M460.256 191.689C460.256 191.689 459.082 192.842 457.205 194.456C455.327 196.07 452.511 198.376 449.46 200.683C446.41 202.989 443.359 204.834 441.481 206.448C441.012 206.909 440.543 207.14 440.073 207.37C439.604 207.601 439.369 208.062 439.135 208.293C438.665 208.754 438.196 208.985 438.196 208.985C438.196 208.985 438.43 208.523 438.9 208.062C439.135 207.832 439.369 207.37 439.839 207.14C440.308 206.679 440.543 206.448 441.247 205.987C443.124 204.372 446.175 202.297 449.226 199.991C452.277 197.685 455.093 195.378 456.97 193.995C458.848 192.38 460.021 191.458 460.256 191.689Z" fill="white"/>
<path d="M447.349 199.299C447.584 199.529 446.175 200.682 444.533 201.836C442.655 202.989 441.247 203.68 441.012 203.45C440.778 203.219 442.186 202.297 444.063 201.144C445.941 199.991 447.349 199.068 447.349 199.299Z" fill="white"/>
<path d="M464.246 180.619C464.246 180.619 464.011 181.08 463.307 181.541C463.072 181.772 462.603 182.233 462.133 182.694C461.664 183.155 461.195 183.617 460.491 184.078C458.144 186.153 454.858 188.69 450.869 191.227C448.991 192.611 446.879 193.764 445.236 194.686C443.359 195.609 441.951 196.531 440.543 197.223C437.961 198.837 436.319 199.76 436.319 199.76C436.319 199.76 436.553 199.299 437.257 198.837C437.961 198.376 438.9 197.684 440.308 196.762C441.716 196.07 443.124 195.147 445.002 193.994C446.645 193.072 448.757 191.919 450.634 190.535C454.389 187.998 457.909 185.462 460.256 183.386C460.96 182.925 461.429 182.464 461.899 182.002C462.368 181.541 462.837 181.311 463.072 181.08C463.776 180.849 464.246 180.619 464.246 180.619Z" fill="white"/>
<path d="M461.899 180.85C462.134 181.08 460.022 182.464 457.675 183.848C455.328 185.462 453.216 186.615 452.981 186.384C452.747 186.154 454.859 184.77 457.205 183.386C459.552 182.003 461.664 180.85 461.899 180.85Z" fill="white"/>
<path d="M320.856 244.269C320.856 244.269 320.386 244.269 320.152 243.808C319.682 243.346 319.213 242.885 318.978 241.963C318.274 240.348 317.57 237.812 317.57 235.044C317.57 232.277 318.039 229.74 318.978 228.126C319.448 227.434 320.152 226.742 320.621 226.511C320.856 226.511 320.856 226.281 320.856 226.281C321.09 226.281 321.09 226.281 321.09 226.281C321.325 226.281 321.325 226.281 321.325 226.281C321.325 226.281 321.325 226.511 321.09 226.511L320.856 226.742L320.621 226.973C320.386 227.203 319.917 227.895 319.682 228.587C318.978 230.201 318.743 232.507 318.978 235.044C318.978 237.581 319.448 239.887 319.917 241.732C320.152 242.424 320.386 243.116 320.621 243.577C320.621 244.038 320.856 244.269 320.856 244.269Z" fill="#EFE3CE"/>
<path d="M324.611 244.961C324.611 244.961 324.377 244.73 323.907 244.499C323.672 244.269 323.438 244.038 323.438 243.808C323.203 243.577 322.968 243.116 322.734 242.885C322.499 242.424 322.264 241.963 322.264 241.501C322.03 241.04 322.03 240.579 321.795 239.887C321.56 238.734 321.326 237.581 321.326 236.197C321.326 235.505 321.326 234.814 321.56 234.352C321.56 233.66 321.795 233.199 321.795 232.507C322.03 231.354 322.264 230.432 322.734 229.509C322.968 229.048 322.968 228.818 323.203 228.587C323.203 228.356 323.438 228.356 323.438 228.126C323.672 227.895 323.672 227.895 323.672 227.895C323.907 227.664 323.907 227.664 324.142 227.434C324.377 227.434 324.377 227.434 324.377 227.434V227.664C324.377 227.895 324.142 227.895 324.142 228.126C324.142 228.356 324.142 228.356 323.907 228.587C323.907 228.818 323.907 228.818 323.672 229.048C323.438 229.279 323.438 229.74 323.438 229.971C323.203 230.662 322.968 231.816 322.968 232.738C322.968 233.199 322.734 233.891 322.734 234.352C322.734 235.044 322.734 235.505 322.734 236.197C322.734 237.35 322.968 238.734 322.968 239.656C323.203 240.118 323.203 240.579 323.203 241.271C323.438 241.732 323.438 242.193 323.672 242.654C323.907 243.116 323.907 243.346 324.142 243.577C324.377 243.808 324.377 244.038 324.377 244.269C324.611 244.73 324.611 244.961 324.611 244.961Z" fill="#EFE3CE"/>
<path d="M401.351 260.412C401.351 260.412 401.116 260.181 400.647 259.951C400.178 259.49 399.943 259.028 399.474 258.106C398.77 256.261 398.3 253.724 398.535 250.957C398.77 248.189 399.474 245.653 400.178 243.808C400.647 242.885 401.116 242.193 401.351 241.963C401.82 241.502 402.055 241.502 402.055 241.502C402.055 241.502 401.82 241.732 401.82 242.193C401.586 242.655 401.351 243.347 401.116 244.038C400.647 245.653 400.178 248.189 399.943 250.957C399.708 253.724 399.943 256.03 400.412 257.875C400.882 259.259 401.351 260.181 401.351 260.412Z" fill="#9EA7C6"/>
<path d="M404.168 260.873C403.933 261.104 403.229 260.181 402.76 258.336C402.29 256.492 402.056 254.185 402.29 251.418C402.525 248.651 402.994 246.344 403.698 244.73C403.933 243.808 404.402 243.346 404.637 242.885C404.872 242.424 405.106 242.193 405.341 242.424C405.341 242.424 405.341 242.655 405.106 243.116C404.872 243.577 404.872 244.269 404.637 244.961C404.168 246.575 403.933 248.881 403.698 251.418C403.464 253.955 403.464 256.261 403.698 257.875C403.933 259.72 404.168 260.643 404.168 260.873Z" fill="#9EA7C6"/>
<path d="M422.707 245.191C422.707 245.191 422.238 245.191 421.534 244.961C420.83 244.73 419.656 244.73 418.014 244.5C414.963 244.038 410.739 243.116 405.341 242.193C394.78 240.349 379.761 237.581 363.568 234.583C347.375 231.585 332.59 228.818 321.795 226.742C316.397 225.82 312.173 224.897 309.122 224.205C307.714 223.975 306.541 223.744 305.602 223.514C304.898 223.283 304.428 223.283 304.428 223.283C304.428 223.283 304.898 223.283 305.602 223.514C306.306 223.744 307.479 223.744 309.122 223.975C312.173 224.436 316.397 225.359 321.795 226.281C332.355 228.126 347.375 230.893 363.568 233.891C379.761 236.889 394.546 239.657 405.341 241.732C410.739 242.655 414.963 243.577 418.014 244.269C419.422 244.5 420.595 244.73 421.534 244.961C422.238 244.961 422.707 245.191 422.707 245.191Z" fill="#EFE3CE"/>
<path d="M308.418 174.853C308.183 174.853 307.948 173.931 307.714 172.547C307.479 171.855 307.479 170.933 307.244 170.011C307.009 169.088 307.01 167.935 307.01 166.782C307.01 166.551 307.01 166.321 307.01 165.859C307.01 165.629 307.01 165.398 307.01 165.168C307.01 164.706 307.01 164.245 307.01 163.553C307.01 162.631 307.244 161.708 307.244 161.017C307.479 160.325 307.714 159.633 307.948 159.402C308.183 159.172 308.183 159.172 308.418 158.941C308.418 158.941 308.652 158.71 308.652 158.941C308.652 158.941 308.652 158.941 308.652 159.172C308.652 159.402 308.418 159.402 308.418 159.633C308.183 160.094 308.183 160.555 307.948 161.247C307.714 161.939 307.714 162.861 307.714 163.784C307.714 164.245 307.714 164.706 307.714 165.398C307.714 165.629 307.714 165.859 307.714 166.09C307.714 166.321 307.714 166.551 307.714 167.013C307.948 171.164 308.652 174.853 308.418 174.853Z" fill="#9EA7C6"/>
<path d="M308.653 162.4C308.418 162.4 308.418 162.17 308.418 161.708C308.418 161.247 308.418 160.786 308.418 160.094C308.653 159.402 308.887 158.941 309.122 158.71C309.591 158.48 309.826 158.48 309.826 158.48C309.826 158.71 309.591 158.71 309.357 158.941C309.122 159.172 308.887 159.633 308.887 160.325C308.653 160.786 308.653 161.478 308.653 161.708C308.887 162.4 308.653 162.4 308.653 162.4Z" fill="#A6D9E3"/>
<path d="M308.418 165.86C308.183 165.86 308.183 165.398 308.183 164.937C308.183 164.476 308.418 164.015 308.653 164.015C308.887 164.015 309.122 164.476 309.122 164.937C308.653 165.629 308.653 165.86 308.418 165.86Z" fill="#A6D9E3"/>
<path d="M343.151 147.871C343.151 148.102 341.508 148.333 338.692 149.024C335.876 149.716 331.886 150.869 327.662 151.792C323.438 152.714 319.448 153.637 316.632 154.559C315.224 155.02 314.05 155.251 313.346 155.482C312.642 155.712 312.173 155.712 312.173 155.712C312.173 155.712 312.642 155.482 313.346 155.251C313.816 155.02 314.285 155.02 314.754 154.79C315.224 154.559 315.928 154.329 316.632 154.098C319.448 153.175 323.438 152.253 327.662 151.331C331.886 150.177 335.876 149.255 338.692 148.563C341.273 148.102 343.151 147.871 343.151 147.871Z" fill="#9EA7C6"/>
<path d="M338.222 181.542C338.222 181.772 337.049 181.772 335.171 181.772C333.294 181.772 330.478 181.542 327.662 181.311C321.795 180.85 317.101 180.619 317.101 180.389C317.101 180.158 318.274 180.158 320.152 180.158C322.029 180.158 324.846 180.389 327.662 180.619C333.529 181.08 338.222 181.311 338.222 181.542Z" fill="#B92E36"/>
<path d="M344.324 181.772C344.324 182.003 343.385 182.233 342.447 182.233C341.273 182.233 340.569 181.772 340.569 181.772C340.569 181.542 341.508 181.542 342.447 181.542C343.62 181.542 344.324 181.542 344.324 181.772Z" fill="#B92E36"/>
<path d="M335.641 203.45C335.641 203.681 332.825 203.681 329.305 203.219C325.785 202.758 322.968 202.066 323.203 201.836C323.438 201.605 326.019 202.066 329.539 202.527C332.825 203.219 335.641 203.45 335.641 203.45Z" fill="#B92E36"/>
<path d="M338.927 203.68C338.927 203.911 338.223 204.142 337.519 204.142C336.815 204.142 336.111 203.911 336.111 203.68C336.111 203.45 336.815 203.45 337.519 203.45C338.458 203.45 338.927 203.45 338.927 203.68Z" fill="#B92E36"/>
<path d="M315.458 215.903C315.458 215.903 314.989 215.442 314.52 214.289C314.05 213.366 313.581 211.752 313.581 210.138C313.581 209.215 313.581 208.524 313.816 207.601C314.05 207.14 314.05 206.909 314.05 206.679C314.05 206.448 314.285 206.448 314.285 206.217C314.285 205.987 314.52 205.987 314.52 205.756C314.989 204.834 315.693 204.372 315.928 204.372C315.928 204.372 315.459 204.834 315.224 205.987C315.224 206.217 314.989 206.217 314.989 206.448C314.989 206.679 314.989 206.679 314.754 206.909C314.52 207.14 314.52 207.601 314.52 207.832C314.52 208.524 314.285 209.215 314.52 210.138C314.754 211.752 314.989 213.136 315.224 214.289C315.224 215.442 315.458 215.903 315.458 215.903Z" fill="#78509B"/>
<path d="M316.163 208.754C315.928 208.754 315.928 208.523 315.928 208.062C315.928 207.601 315.928 207.14 316.163 206.448C316.398 205.756 316.632 205.295 317.102 205.064C317.571 204.834 317.806 204.834 317.806 205.064C317.806 205.295 317.571 205.295 317.336 205.525C317.102 205.756 316.867 206.217 316.632 206.679C316.398 207.832 316.398 208.754 316.163 208.754Z" fill="#78509B"/>
<path d="M412.616 226.512C412.616 226.512 412.381 226.05 412.616 225.589C412.851 224.897 413.085 224.205 413.555 223.283C414.024 222.591 414.963 221.899 415.432 221.669C416.136 221.438 416.371 221.438 416.371 221.438C416.371 221.669 416.136 221.669 415.667 222.13C415.197 222.591 414.728 223.052 414.024 223.744C413.085 225.359 412.616 226.742 412.616 226.512Z" fill="#5077AC"/>
<path d="M436.318 235.736C436.318 235.967 435.614 236.197 434.206 236.889C432.798 237.581 431.156 238.503 429.043 239.195C428.574 239.426 428.105 239.656 427.401 239.656C426.931 239.887 426.462 239.887 425.993 240.118C425.523 240.118 425.054 240.348 424.584 240.348C424.115 240.348 423.646 240.579 423.411 240.348C422.707 240.348 422.003 239.887 421.768 239.656C421.534 239.426 421.534 239.426 421.534 239.195C421.534 238.965 421.534 238.965 421.534 238.965C421.534 238.965 421.534 238.965 421.768 239.195L422.003 239.426C422.238 239.656 422.707 239.887 423.646 239.887C424.35 239.887 425.054 239.656 425.993 239.426C426.462 239.195 426.931 239.195 427.401 238.965C427.87 238.734 428.339 238.503 428.809 238.503C430.921 237.811 432.564 236.889 433.972 236.197C435.38 235.967 436.318 235.505 436.318 235.736Z" fill="#5077AC"/>
<path d="M470.582 217.979C470.817 218.209 468.705 219.593 466.358 221.207C464.95 221.899 463.776 222.591 462.838 222.821C461.899 223.283 461.429 223.513 461.429 223.513C461.429 223.513 461.899 223.052 462.603 222.591C463.307 222.13 464.715 221.438 465.888 220.746C468.47 219.132 470.582 217.979 470.582 217.979Z" fill="#5077AC"/>
<path d="M309.357 249.342C309.122 249.342 308.653 247.959 308.418 246.344C308.183 244.5 308.418 243.116 308.653 243.116C308.887 243.116 309.122 244.5 309.122 246.114C309.122 247.959 309.591 249.342 309.357 249.342Z" fill="#C5E6EF"/>
<path d="M357.466 255.8C357.466 256.03 356.058 255.569 354.181 255.108C352.303 254.647 349.487 253.724 346.436 253.032C344.793 252.571 343.385 252.11 342.212 251.879C340.804 251.649 339.63 251.418 338.692 250.957C336.58 250.495 335.641 249.804 335.641 249.573C335.641 249.342 336.814 250.034 338.926 250.265C339.865 250.495 341.273 250.726 342.447 250.957C343.855 251.187 345.263 251.649 346.671 252.11C348.314 252.571 349.722 252.802 350.895 253.263C352.303 253.724 353.477 253.955 354.415 254.416C356.293 255.338 357.466 255.8 357.466 255.8Z" fill="#C5E6EF"/>
<path d="M362.864 257.183C362.864 257.414 361.925 257.414 360.986 256.953C360.517 256.722 360.048 256.722 359.813 256.492C359.578 256.261 359.344 256.261 359.344 256.261C359.344 256.261 359.578 256.03 359.813 256.03C360.282 256.03 360.517 256.03 361.221 256.261C362.394 256.722 362.864 257.183 362.864 257.183Z" fill="#C5E6EF"/>
<path d="M403.463 267.792C403.463 267.792 402.759 268.022 401.351 268.022C399.943 267.792 398.3 267.561 396.423 267.1C394.545 266.639 392.668 266.177 391.495 265.947C390.321 265.716 389.617 265.255 389.617 265.255C389.617 265.024 390.321 265.255 391.729 265.485C392.903 265.716 394.78 265.947 396.658 266.408C398.535 266.869 400.413 267.1 401.586 267.33C402.759 267.561 403.463 267.792 403.463 267.792Z" fill="#C5E6EF"/>
<path d="M402.055 277.708C401.821 277.708 401.821 277.247 401.821 276.324C401.586 275.402 401.586 274.249 401.586 272.865C401.586 271.482 401.821 270.328 402.29 269.406C402.759 268.714 403.463 268.484 403.463 268.484C403.463 268.714 402.994 268.945 402.759 269.637C402.29 270.328 402.29 271.482 402.29 272.865C402.29 274.249 402.29 275.402 402.29 276.324C402.055 277.016 402.055 277.708 402.055 277.708Z" fill="#C5E6EF"/>
<path d="M400.647 271.943C400.413 271.943 400.178 271.251 400.413 270.329C400.413 269.867 400.647 269.406 400.647 269.175C400.882 268.945 400.882 268.714 401.117 268.714C401.351 268.714 401.351 268.945 401.117 269.175C401.117 269.406 401.117 269.867 401.117 270.329C400.882 271.251 400.882 271.943 400.647 271.943Z" fill="#C5E6EF"/>
<path d="M471.99 254.647C471.99 254.647 471.99 254.877 471.755 255.339C471.521 255.569 471.051 256.03 470.347 256.492C469.174 257.184 467.296 258.106 465.184 259.028C463.072 259.951 461.195 260.412 460.021 261.104C458.613 261.565 457.909 262.026 457.909 262.026C457.909 262.026 458.613 261.335 459.787 260.643C461.195 259.951 463.072 259.259 464.95 258.337C467.062 257.414 468.939 256.722 470.113 256.03C470.817 255.8 471.286 255.339 471.521 255.108C471.755 254.877 471.99 254.647 471.99 254.647Z" fill="#63A1A4"/>
<path d="M449.461 176.237C449.461 176.237 448.522 176.929 446.644 177.852C444.767 178.774 442.42 179.927 439.604 181.311C438.196 182.003 437.023 182.694 435.615 182.925C435.145 182.925 434.91 182.925 434.676 182.925C434.206 182.694 433.972 182.694 433.737 182.233C433.268 181.772 433.033 181.311 433.033 180.619C432.798 179.696 432.798 178.774 432.798 178.313C432.798 177.851 432.798 177.39 433.033 177.39C433.268 177.39 433.033 177.621 433.268 178.313C433.268 178.774 433.502 179.696 433.737 180.619C433.972 181.541 434.676 182.464 435.849 182.233C436.553 182.233 437.023 182.003 437.727 181.541C438.431 181.311 438.9 180.85 439.604 180.619C441.012 179.927 442.186 179.235 443.359 178.774C444.532 178.313 445.706 177.851 446.41 177.39C448.287 176.698 449.226 176.237 449.461 176.237Z" fill="#44989D"/>
<path d="M471.755 88.3724H329.304C325.784 88.3724 322.968 85.605 322.968 82.1458V80.3008C322.968 76.8416 325.784 74.0742 329.304 74.0742H471.755C475.275 74.0742 478.091 76.8416 478.091 80.3008V82.1458C478.091 85.605 475.275 88.3724 471.755 88.3724Z" fill="white"/>
<path d="M156.815 87.4498C160.314 87.4498 163.151 84.6621 163.151 81.2232C163.151 77.7843 160.314 74.9966 156.815 74.9966C153.315 74.9966 150.479 77.7843 150.479 81.2232C150.479 84.6621 153.315 87.4498 156.815 87.4498Z" fill="white"/>
<path d="M184.507 87.4498C188.006 87.4498 190.843 84.6621 190.843 81.2232C190.843 77.7843 188.006 74.9966 184.507 74.9966C181.007 74.9966 178.17 77.7843 178.17 81.2232C178.17 84.6621 181.007 87.4498 184.507 87.4498Z" fill="white"/>
<path d="M212.199 87.4498C215.699 87.4498 218.536 84.6621 218.536 81.2232C218.536 77.7843 215.699 74.9966 212.199 74.9966C208.7 74.9966 205.863 77.7843 205.863 81.2232C205.863 84.6621 208.7 87.4498 212.199 87.4498Z" fill="white"/>
<path d="M227.923 392.324C235.051 392.324 240.83 386.646 240.83 379.64C240.83 372.635 235.051 366.957 227.923 366.957C220.794 366.957 215.015 372.635 215.015 379.64C215.015 386.646 220.794 392.324 227.923 392.324Z" fill="#ED6C81"/>
<path d="M235.198 378.949C236.606 382.408 234.728 386.328 231.208 387.712C227.688 389.096 223.698 387.251 222.29 383.791L235.198 378.949Z" fill="#F18EA3"/>
<path d="M344.794 169.78C344.559 170.011 344.09 170.241 343.621 170.703C343.151 170.933 342.682 171.164 342.213 171.395C341.743 171.625 341.274 171.625 340.804 171.625C340.335 171.625 339.866 171.625 339.396 171.395C339.396 171.625 339.396 171.856 339.396 171.856C339.396 172.086 339.396 172.086 339.396 172.317C339.396 172.548 339.396 172.548 339.396 172.778C339.396 173.009 339.396 173.239 339.396 173.239C339.396 173.47 339.396 173.701 339.162 173.701C338.927 173.931 338.927 173.931 338.692 173.931C338.458 173.931 338.458 173.931 338.223 173.701C337.988 173.47 337.988 173.47 337.988 173.009C337.988 172.548 337.988 172.086 337.988 171.625C337.988 171.164 337.988 170.703 338.223 170.241C338.223 169.78 338.223 169.319 338.458 168.858C338.458 168.397 338.458 167.935 338.458 167.474C338.458 167.243 338.458 167.013 338.458 166.782C338.458 166.552 338.458 166.321 338.458 166.09C338.458 165.86 338.458 165.86 338.692 165.86L338.927 165.629C339.162 165.629 339.162 165.629 339.396 165.629C339.631 165.629 339.631 165.629 339.866 165.629C340.335 165.629 340.804 165.629 341.274 165.629C341.743 165.629 342.213 165.629 342.447 165.86C342.917 165.86 343.151 166.09 343.621 166.321C344.09 166.552 344.325 166.782 344.559 167.243C344.794 167.474 344.794 167.474 345.029 167.705C345.029 167.935 345.263 168.166 345.263 168.397C345.263 168.627 345.263 168.858 345.263 169.088C345.029 169.55 345.029 169.55 344.794 169.78ZM343.621 168.627C343.621 168.397 343.386 168.166 343.151 167.935C342.917 167.705 342.682 167.474 342.213 167.474C341.743 167.243 341.508 167.243 341.039 167.243C340.57 167.243 340.335 167.243 339.866 167.243C339.866 167.705 339.866 168.166 339.866 168.627C339.866 169.088 339.866 169.78 339.866 170.241C340.1 170.241 340.1 170.241 340.57 170.241C340.804 170.241 341.039 170.241 341.508 170.241C341.743 170.241 342.213 170.241 342.447 170.011C342.682 170.011 342.917 169.78 343.386 169.78C343.621 169.55 343.855 169.55 343.855 169.319C343.621 169.088 343.621 168.858 343.621 168.627Z" fill="#1080A5"/>
<path d="M353.242 174.392C353.242 174.623 353.242 174.623 353.242 174.854C353.242 175.084 353.007 175.084 353.007 175.084H352.773C352.773 175.084 352.538 175.084 352.538 174.854L352.303 174.623L352.069 174.392C351.599 173.931 351.13 173.47 350.66 173.009C350.191 172.547 349.722 172.086 349.252 171.625C349.018 171.625 348.783 171.625 348.548 171.625C348.314 171.625 348.079 171.625 347.844 171.625C347.844 171.856 347.844 172.086 347.844 172.547C347.844 172.778 347.844 173.239 347.844 173.47C347.844 173.701 347.844 174.162 347.844 174.392C347.844 174.623 347.61 174.854 347.375 174.854C347.14 174.854 346.906 174.854 346.906 174.854C346.906 174.854 346.671 174.623 346.671 174.392C346.671 174.162 346.671 173.931 346.671 173.47C346.671 173.239 346.671 172.778 346.671 172.317C346.671 171.856 346.671 171.394 346.671 170.933C346.671 170.472 346.671 170.011 346.906 169.549C346.906 169.088 346.906 168.627 347.14 168.396C347.14 167.935 347.14 167.705 347.14 167.474C346.906 167.474 346.906 167.243 346.906 167.013C346.906 166.782 346.906 166.782 346.906 166.551C346.906 166.321 346.906 166.321 347.14 166.09C347.14 165.86 347.375 165.86 347.61 165.86C347.844 165.86 348.314 165.86 348.783 165.86C349.252 165.86 349.487 165.86 349.956 165.86C350.426 165.86 350.66 165.86 351.13 165.86C351.599 165.86 351.834 166.09 352.303 166.09C352.538 166.321 353.007 166.321 353.242 166.782C353.477 167.013 353.711 167.243 353.711 167.705C353.946 168.396 353.711 169.088 353.242 169.78C353.007 170.011 352.773 170.241 352.538 170.241C352.303 170.472 352.069 170.472 351.599 170.703C351.834 170.933 351.834 171.164 352.069 171.394C352.303 171.625 352.538 171.856 352.773 172.086C353.007 172.317 353.242 172.547 353.477 172.778C353.007 173.701 353.242 174.162 353.242 174.392ZM351.599 168.627C351.599 168.396 351.599 168.396 351.364 168.166C351.13 167.935 351.13 167.935 350.895 167.935C350.66 167.935 350.426 167.705 350.191 167.705C349.956 167.705 349.722 167.705 349.722 167.705H349.487C349.252 167.705 349.252 167.705 349.018 167.705C348.783 167.705 348.783 167.705 348.548 167.705C348.314 167.705 348.314 167.705 348.314 167.935C348.079 168.396 348.079 168.627 348.079 169.088C348.079 169.549 348.079 170.011 348.079 170.241C348.314 170.241 348.783 170.241 349.018 170.241C349.487 170.241 349.722 170.011 350.191 170.011C350.66 169.78 350.895 169.78 351.13 169.549C351.365 169.319 351.599 169.088 351.599 168.627Z" fill="#1080A5"/>
<path d="M361.691 175.545L361.456 175.776H361.221C360.987 175.776 360.987 175.776 360.987 175.545L360.752 175.315C360.752 175.084 360.517 175.084 360.517 174.854C360.517 174.623 360.517 174.392 360.283 174.392C360.283 174.162 360.048 174.162 360.048 173.931C360.048 173.7 359.813 173.701 359.813 173.47C359.109 173.47 358.405 173.47 357.701 173.47C356.997 173.47 356.293 173.47 355.589 173.47L355.354 173.701C355.354 173.701 355.12 173.931 355.12 174.162C355.12 174.392 354.885 174.392 354.885 174.623C354.885 174.854 354.65 175.084 354.65 175.315C354.65 175.315 354.65 175.545 354.416 175.545C354.416 175.545 354.181 175.545 354.181 175.776H353.946H353.711C353.477 175.545 353.477 175.545 353.477 175.084C353.477 174.854 353.477 174.623 353.477 174.392C353.711 173.931 353.946 173.239 354.181 172.778C354.415 172.317 354.65 171.625 355.12 171.164C355.354 170.702 355.824 170.011 356.058 169.549C356.293 169.088 356.762 168.396 356.997 167.935C356.997 167.704 357.232 167.704 357.466 167.474C357.701 167.474 357.701 167.474 357.936 167.474C358.17 167.474 358.17 167.474 358.405 167.704C358.64 167.935 358.64 167.935 358.874 167.935C359.109 168.396 359.578 168.858 359.813 169.319C360.048 169.78 360.283 170.472 360.517 170.933C360.752 171.625 360.987 172.086 361.221 172.778C361.456 173.47 361.691 173.931 361.925 174.392V174.623C361.925 174.854 361.925 174.854 361.925 175.084C361.925 175.315 361.925 175.315 361.925 175.545C361.925 175.315 361.925 175.315 361.691 175.545ZM359.344 171.625C359.344 171.394 359.109 171.164 359.109 170.933C359.109 170.703 358.874 170.472 358.874 170.241C358.64 170.011 358.64 169.78 358.405 169.549C358.17 169.319 358.17 169.088 357.936 168.858C357.936 169.088 357.701 169.088 357.466 169.319C357.232 169.549 357.232 169.78 356.997 170.011C356.762 170.241 356.762 170.472 356.528 170.703C356.293 170.933 356.293 171.164 356.058 171.394C356.762 171.394 357.232 171.394 357.701 171.394C358.405 171.625 358.874 171.625 359.344 171.625Z" fill="#1080A5"/>
<path d="M369.2 173.7C369.2 173.931 369.435 174.162 369.2 174.162C369.2 174.392 368.965 174.623 368.731 174.623C368.496 174.853 368.261 175.084 368.027 175.084C367.792 175.315 367.557 175.315 367.323 175.315C367.088 175.315 366.619 175.545 366.149 175.545C365.68 175.545 365.445 175.545 364.976 175.545C364.741 175.545 364.272 175.315 364.037 175.315C363.802 175.084 363.568 175.084 363.333 174.853C362.864 174.392 362.629 173.931 362.394 173.47C362.16 173.008 362.16 172.547 362.16 172.086C362.16 171.625 362.394 171.164 362.394 170.702C362.629 170.241 362.864 169.78 363.098 169.319C363.333 169.088 363.568 168.857 363.802 168.396C364.037 168.166 364.272 167.935 364.741 167.704C364.976 167.474 365.445 167.474 365.68 167.243C365.915 167.243 366.384 167.012 366.619 167.012C366.853 167.012 367.323 167.012 367.557 167.012C367.792 167.012 368.261 167.243 368.496 167.474C368.731 167.704 368.965 167.704 368.965 167.935C368.965 168.166 368.965 168.396 368.965 168.627C368.965 168.857 368.965 168.857 368.731 168.857H368.496H368.261C368.261 168.857 368.027 168.857 368.027 168.627C367.792 168.627 367.557 168.396 367.557 168.396C367.323 168.396 367.088 168.166 367.088 168.166H366.853C366.619 168.166 366.619 168.166 366.384 168.166C366.149 168.166 366.149 168.166 365.915 168.396C365.68 168.627 365.68 168.627 365.445 168.627C365.21 168.857 364.976 169.088 364.741 169.319C364.506 169.549 364.272 169.78 364.272 170.241C364.037 170.472 364.037 170.933 364.037 171.164C364.037 171.394 364.037 171.855 364.037 172.317C364.037 172.547 364.037 172.547 364.272 172.778C364.272 173.008 364.506 173.008 364.741 173.239C364.976 173.47 364.976 173.47 365.211 173.47C365.445 173.47 365.445 173.7 365.68 173.7C365.915 173.7 366.149 173.7 366.384 173.7C366.619 173.7 366.853 173.7 367.088 173.47C367.323 173.47 367.557 173.239 367.792 173.239C368.027 173.239 368.261 173.008 368.496 173.008H368.731H368.965C368.965 173.47 368.965 173.47 369.2 173.7C369.2 173.47 369.2 173.47 369.2 173.7Z" fill="#1080A5"/>
<path d="M378.822 168.627C378.822 168.858 378.822 169.088 378.588 169.088C378.353 169.319 378.118 169.319 377.884 169.319C377.649 169.319 377.414 169.319 377.18 169.319C376.945 169.319 376.71 169.319 376.476 169.319C376.241 169.319 376.006 169.319 375.772 169.319C375.537 169.319 375.302 169.319 375.302 169.319C375.302 169.549 375.302 170.011 375.068 170.472C375.068 170.933 375.067 171.394 374.833 171.856C374.833 172.317 374.833 172.778 374.833 173.239C374.833 173.701 374.833 174.162 374.833 174.392C374.833 174.623 374.833 174.854 374.833 174.854C374.833 175.084 374.833 175.084 374.833 175.315C374.833 175.546 374.833 175.546 374.833 175.776C374.833 176.007 374.833 176.007 374.598 176.237L374.363 176.468C374.363 176.468 374.129 176.468 373.894 176.468C373.659 176.468 373.659 176.468 373.659 176.468L373.425 176.237C373.425 176.007 373.425 175.776 373.425 175.315C373.425 175.084 373.425 174.623 373.659 174.392C373.659 174.162 373.659 173.701 373.894 173.239C373.894 172.778 373.894 172.317 374.129 171.856C374.129 171.394 374.129 170.933 374.129 170.472C374.129 170.011 374.129 169.549 374.129 169.319C373.894 169.319 373.425 169.319 373.19 169.319C372.955 169.319 372.486 169.319 372.251 169.319C372.017 169.319 372.017 169.319 371.782 169.319C371.547 169.319 371.313 169.319 371.313 169.319C371.078 169.319 371.078 169.088 370.843 169.088C370.843 168.858 370.843 168.858 370.843 168.627C370.843 168.396 370.843 168.396 371.078 168.396C371.078 168.396 371.313 168.396 371.313 168.166C371.547 168.166 371.547 168.166 371.782 168.166C372.017 168.166 372.017 168.166 372.017 168.166C372.486 168.166 372.955 168.166 373.425 167.935C373.894 167.935 374.363 167.935 375.068 167.935C375.537 167.935 376.241 167.935 376.71 167.935C377.18 167.935 377.884 168.166 378.353 168.166C378.588 168.166 378.588 168.166 378.822 168.396V168.627Z" fill="#1080A5"/>
<path d="M381.404 169.78C381.169 170.472 381.169 171.394 381.169 172.317C381.169 173.239 380.934 174.162 380.934 175.084C380.934 175.315 380.934 175.315 380.934 175.545C380.934 175.776 380.934 176.007 380.934 176.237C380.934 176.468 380.934 176.698 380.7 176.698C380.7 176.929 380.465 176.929 380.23 176.929H379.995C379.995 176.929 379.761 176.929 379.761 176.698C379.761 176.698 379.761 176.468 379.526 176.468V176.237C379.526 175.776 379.526 175.315 379.526 174.623C379.526 174.162 379.526 173.47 379.526 173.009C379.526 172.547 379.526 171.856 379.526 171.394C379.526 170.933 379.526 170.241 379.526 170.011C379.526 169.78 379.526 169.78 379.526 169.549C379.526 169.319 379.526 169.319 379.761 169.088C379.761 168.858 379.995 168.858 379.995 168.858C379.995 168.858 380.23 168.858 380.465 168.858C380.7 168.858 380.7 168.858 380.7 169.088C380.7 169.088 380.934 169.319 380.934 169.549C380.934 169.78 380.934 169.78 380.934 170.011C381.404 169.319 381.404 169.549 381.404 169.78Z" fill="#1080A5"/>
<path d="M389.148 174.854C389.148 175.084 389.383 175.315 389.148 175.315C389.148 175.546 388.914 175.776 388.679 175.776C388.444 176.007 388.21 176.237 387.975 176.237C387.74 176.468 387.506 176.468 387.271 176.468C387.036 176.468 386.567 176.699 386.097 176.699C385.628 176.699 385.393 176.699 384.924 176.699C384.689 176.699 384.22 176.468 383.985 176.468C383.751 176.237 383.516 176.237 383.281 176.007C382.812 175.546 382.577 175.084 382.343 174.623C382.108 174.162 382.108 173.701 382.108 173.239C382.108 172.778 382.343 172.317 382.343 171.856C382.577 171.395 382.812 170.933 383.047 170.472C383.281 170.241 383.516 170.011 383.751 169.55C383.985 169.319 384.22 169.088 384.689 168.858C384.924 168.627 385.393 168.627 385.628 168.397C385.863 168.397 386.332 168.166 386.567 168.166C386.801 168.166 387.271 168.166 387.506 168.166C387.74 168.166 388.21 168.397 388.444 168.627C388.679 168.858 388.914 168.858 388.914 169.088C388.914 169.319 388.914 169.55 388.914 169.78C388.914 170.011 388.914 170.011 388.679 170.011H388.444H388.21C388.21 170.011 387.975 170.011 387.975 169.78C387.74 169.78 387.506 169.55 387.506 169.55C387.271 169.55 387.036 169.319 387.036 169.319H386.801C386.567 169.319 386.567 169.319 386.332 169.319C386.097 169.319 386.097 169.319 385.863 169.55C385.628 169.78 385.628 169.78 385.393 169.78C385.159 170.011 384.924 170.241 384.689 170.472C384.455 170.703 384.22 170.933 384.22 171.395C383.985 171.625 383.985 172.086 383.985 172.317C383.985 172.548 383.985 173.009 383.985 173.47C383.985 173.701 383.985 173.701 384.22 173.931C384.22 174.162 384.455 174.162 384.689 174.393C384.924 174.623 384.924 174.623 385.159 174.623C385.393 174.623 385.393 174.854 385.628 174.854C385.863 174.854 386.097 174.854 386.332 174.854C386.567 174.854 386.801 174.854 387.036 174.623C387.271 174.623 387.506 174.393 387.74 174.393C387.975 174.393 388.21 174.162 388.444 174.162H388.679H388.914C388.679 174.623 388.914 174.623 389.148 174.854C388.914 174.623 389.148 174.623 389.148 174.854Z" fill="#1080A5"/>
<path d="M396.658 176.929C396.658 177.16 396.658 177.16 396.423 177.16L396.188 177.39C396.188 177.39 395.954 177.39 395.954 177.621C395.719 177.621 395.719 177.621 395.719 177.621C395.25 177.621 394.545 177.851 394.076 177.851C393.372 177.851 392.903 177.851 392.199 177.851C391.964 177.851 391.729 177.621 391.495 177.621C391.26 177.39 391.025 177.39 391.025 177.16C391.025 176.929 390.791 176.929 390.791 176.468C390.791 176.237 390.791 175.776 390.791 175.545C390.791 175.084 390.791 174.853 390.791 174.392C390.791 173.931 390.791 173.47 390.791 173.239C390.791 172.778 390.791 172.547 391.025 172.086C391.025 171.855 391.025 171.394 391.025 171.394C391.025 171.163 391.025 171.164 391.025 170.933C391.025 170.702 391.025 170.702 390.791 170.472C390.791 170.241 390.791 170.241 390.556 170.241V170.01L390.791 169.78C390.791 169.78 391.025 169.78 391.26 169.549C391.495 169.549 391.495 169.549 391.729 169.549C391.964 169.549 391.964 169.549 391.964 169.549C392.199 169.549 392.668 169.549 392.903 169.549C393.372 169.549 393.607 169.549 394.076 169.549C394.545 169.549 394.78 169.549 395.015 169.549C395.25 169.549 395.719 169.549 395.954 169.78H396.188C396.423 169.78 396.423 169.78 396.423 170.01L396.658 170.241V170.472C396.658 170.702 396.423 170.702 396.423 170.702C396.423 170.702 396.188 170.702 396.188 170.933H395.954H395.719C395.484 170.933 395.249 170.933 394.78 170.933C394.311 170.933 394.076 170.933 393.841 170.933C393.607 170.933 393.137 170.933 392.903 170.933C392.668 170.933 392.433 171.163 392.199 171.163C392.199 171.394 392.199 171.394 391.964 171.625C391.964 171.855 391.964 171.855 391.964 172.086C391.964 172.317 391.964 172.317 391.964 172.547C391.964 172.778 391.964 172.778 391.964 173.008C392.199 173.008 392.199 173.008 392.433 173.008C392.668 173.008 392.903 173.008 393.372 173.008C393.607 173.008 394.076 173.008 394.311 173.008C394.545 173.008 394.78 173.008 395.015 173.008C395.015 173.008 395.249 173.008 395.249 173.239L395.484 173.47C395.484 173.47 395.484 173.7 395.484 173.931C395.484 174.162 395.249 174.162 395.249 174.162C395.015 174.162 394.78 174.392 394.311 174.392C393.841 174.392 393.607 174.392 393.372 174.392C393.137 174.392 392.668 174.392 392.433 174.392C392.199 174.392 391.964 174.392 391.964 174.392C391.964 174.623 391.964 174.623 391.964 174.853C391.964 175.084 391.964 175.315 391.964 175.545C391.964 175.776 391.964 176.006 391.964 176.006C391.964 176.237 391.964 176.237 392.199 176.468C392.199 176.468 392.433 176.698 392.668 176.698C392.903 176.698 392.903 176.698 393.137 176.698C393.372 176.698 393.372 176.698 393.607 176.698C393.841 176.698 393.841 176.698 394.076 176.698C394.311 176.698 394.545 176.698 394.545 176.698C394.78 176.698 395.015 176.698 395.015 176.698C395.25 176.698 395.484 176.698 395.484 176.698C395.719 176.698 395.954 176.698 395.954 176.698H396.188C396.188 176.698 396.423 176.698 396.423 176.929C396.423 176.929 396.423 177.16 396.658 177.16C396.658 176.698 396.658 176.929 396.658 176.929Z" fill="#1080A5"/>
<path d="M335.406 195.84C335.406 196.07 335.406 196.07 335.406 196.301C335.406 196.532 335.406 196.762 335.406 196.993C335.406 197.223 335.406 197.454 335.406 197.685C335.406 197.915 335.171 197.915 335.171 198.146H334.937C334.702 198.146 334.702 198.146 334.467 198.146C334.233 198.146 334.233 198.146 333.998 198.146L333.763 197.915C333.763 197.685 333.763 197.454 333.763 197.224C333.763 196.993 333.763 196.762 333.763 196.532C333.763 196.301 333.763 195.84 333.763 195.379C333.763 194.917 333.763 194.456 333.763 193.995C333.763 193.534 333.763 193.072 333.529 192.611C333.529 192.15 333.294 191.689 333.294 191.458C333.059 191.689 332.825 192.15 332.355 192.381C332.121 192.611 331.886 193.072 331.416 193.303C331.182 193.534 330.712 193.764 330.478 193.995C330.243 194.226 329.774 194.226 329.539 194.226C329.304 194.226 328.835 193.995 328.6 193.764C328.366 193.534 327.896 193.072 327.662 192.611C327.427 192.15 327.192 191.689 326.723 191.458C326.488 190.997 326.253 190.766 326.019 190.305C326.019 190.766 325.784 191.228 325.784 191.689C325.784 192.15 325.549 192.611 325.549 193.072C325.549 193.534 325.549 193.995 325.315 194.456C325.315 194.917 325.315 195.379 325.08 195.84C325.08 195.84 325.08 196.07 325.08 196.301C325.08 196.532 325.08 196.762 325.08 196.993C325.08 197.223 324.845 197.454 324.845 197.685C324.611 197.915 324.611 197.915 324.141 197.915C323.907 197.915 323.672 197.685 323.437 197.454C323.203 197.224 323.203 196.762 323.203 196.07C323.203 195.84 323.203 195.379 323.203 194.917C323.203 194.456 323.203 193.995 323.437 193.534C323.437 193.072 323.672 192.611 323.672 192.15C323.672 191.689 323.907 191.228 323.907 190.766C323.907 190.305 324.141 190.074 324.141 189.613C324.141 189.383 324.141 189.152 324.376 188.921C324.376 188.691 324.376 188.691 324.376 188.46C324.376 188.229 324.376 187.999 324.376 187.768C324.376 187.538 324.376 187.307 324.611 187.307C324.611 187.076 324.845 187.076 324.845 186.846C325.08 186.615 325.315 186.615 325.315 186.846C325.549 186.846 325.784 187.076 326.019 187.076C326.253 187.307 326.488 187.538 326.723 187.768C326.958 187.999 327.192 188.229 327.192 188.46C327.427 188.691 327.427 188.921 327.662 189.152C327.896 189.383 327.896 189.613 327.896 189.613C327.896 189.613 328.131 189.844 328.131 190.074C328.366 190.305 328.366 190.536 328.6 190.766C328.835 190.997 328.835 191.228 329.07 191.458C329.304 191.689 329.304 191.919 329.539 191.919C329.774 191.919 330.008 191.689 330.243 191.227C330.478 190.766 330.947 190.536 331.182 190.074C331.416 189.613 331.651 189.383 331.886 188.921C332.12 188.46 332.355 188.23 332.355 187.999C332.355 187.768 332.59 187.768 332.59 187.538C332.59 187.307 332.825 187.307 333.059 187.307C333.294 187.307 333.294 187.076 333.529 187.076C333.763 187.076 333.763 187.076 333.998 187.307C333.998 187.307 334.233 187.538 334.233 187.768C334.233 187.999 334.233 187.999 334.233 188.23C334.233 188.46 334.233 188.691 334.233 188.691C334.233 188.921 334.233 188.921 334.233 189.152C335.171 191.689 335.406 193.764 335.406 195.84Z" fill="#B92E36"/>
<path d="M347.375 199.299C347.375 199.299 347.14 199.53 346.905 199.53C346.671 199.53 346.671 199.53 346.436 199.53C346.201 199.53 346.201 199.53 345.967 199.299C345.732 199.299 345.732 199.068 345.497 198.838C345.497 198.607 345.263 198.377 345.263 198.146C345.263 197.915 345.263 197.685 345.028 197.454C345.028 197.223 344.793 196.993 344.793 196.762C344.793 196.532 344.559 196.301 344.559 196.07C343.62 196.07 342.681 196.07 341.743 196.07C340.804 196.07 340.1 196.07 339.161 195.84C338.926 196.07 338.926 196.07 338.926 196.301C338.926 196.532 338.692 196.532 338.692 196.762C338.692 196.993 338.457 197.223 338.457 197.454C338.457 197.685 338.222 198.146 338.222 198.377C338.222 198.607 338.222 198.607 337.988 198.607L337.753 198.838C337.518 198.838 337.518 198.838 337.284 198.838C337.049 198.838 337.049 198.838 337.049 198.607C336.814 198.377 336.814 198.146 336.814 197.915C336.814 197.685 336.814 197.223 337.049 196.993C337.284 196.301 337.518 195.609 337.988 194.687C338.222 193.995 338.692 193.303 339.161 192.38C339.63 191.689 340.1 190.997 340.334 190.305C340.804 189.613 341.273 188.921 341.508 188.229C341.742 187.999 341.742 187.768 341.977 187.768C342.212 187.768 342.447 187.768 342.681 187.768C342.916 187.768 343.151 187.768 343.385 187.999C343.62 188.229 343.855 188.229 343.855 188.46C344.324 188.921 344.559 189.613 345.028 190.305C345.263 190.997 345.732 191.689 345.967 192.611C346.201 193.303 346.436 194.225 346.905 194.917C347.14 195.609 347.375 196.532 347.61 197.223C347.61 197.454 347.609 197.454 347.844 197.685C347.844 197.915 347.844 197.915 347.844 198.146C347.844 198.377 347.844 198.377 347.844 198.607C347.609 199.068 347.375 199.068 347.375 199.299ZM344.089 194.225C344.089 193.995 343.855 193.764 343.855 193.534C343.62 193.303 343.62 192.842 343.385 192.611C343.151 192.381 343.151 191.919 342.916 191.689C342.681 191.458 342.447 190.997 342.447 190.766C342.212 190.997 342.212 191.227 341.977 191.458C341.742 191.689 341.508 192.15 341.273 192.38C341.038 192.611 340.804 193.072 340.569 193.303C340.334 193.764 340.1 193.995 340.1 194.225C340.804 194.225 341.742 194.225 342.447 194.225C343.151 194.225 343.62 194.225 344.089 194.225Z" fill="#B92E36"/>
<path d="M358.405 198.838C358.17 199.068 358.171 199.068 357.936 199.068C357.701 199.068 357.701 199.068 357.466 199.068C357.232 199.068 356.997 198.838 356.762 198.838C356.528 198.607 356.293 198.607 356.058 198.376C355.589 198.146 355.12 197.915 354.885 197.685C354.416 197.454 353.946 197.223 353.712 196.993C353.242 196.762 352.773 196.531 352.538 196.301C352.069 196.07 351.599 195.84 351.13 195.609C351.13 195.84 351.13 196.07 350.895 196.531C350.895 196.762 350.895 196.993 350.895 197.454C350.895 197.685 350.895 197.915 350.895 198.376C350.895 198.607 350.895 198.838 350.661 199.068C350.661 199.299 350.426 199.53 350.426 199.53C350.191 199.53 350.191 199.53 349.957 199.53C349.722 199.53 349.722 199.299 349.487 199.299C349.253 199.299 349.253 199.068 349.253 198.838C349.253 198.838 349.253 198.607 349.253 198.376C349.253 198.146 349.253 197.915 349.253 197.454C349.253 197.223 349.253 196.762 349.253 196.531C349.253 196.07 349.253 195.84 349.253 195.609C349.253 195.378 349.253 194.917 349.253 194.687C349.253 194.456 349.253 194.225 349.253 193.995C349.253 193.533 349.253 193.072 349.253 192.842C349.253 192.611 349.253 191.919 349.253 191.458C349.253 190.997 349.253 190.535 349.253 190.074C349.253 189.613 349.253 189.152 349.487 188.921C349.487 188.691 349.722 188.691 349.722 188.691C349.957 188.691 349.957 188.691 350.191 188.691C350.426 188.691 350.426 188.691 350.661 188.691C350.895 188.691 350.895 188.921 350.895 189.152C350.895 189.382 351.13 189.613 351.13 190.074C351.13 190.305 351.13 190.766 351.13 190.997C351.13 191.227 351.13 191.689 351.13 191.919C351.13 192.15 351.13 192.611 351.13 192.842C351.599 192.611 352.069 192.38 352.538 192.15C353.008 191.919 353.477 191.458 353.712 191.227C354.181 190.997 354.65 190.535 354.885 190.305C355.354 190.074 355.824 189.844 356.293 189.613C356.528 189.382 356.762 189.382 356.997 189.382C357.232 189.382 357.466 189.382 357.701 189.382C357.936 189.382 357.936 189.613 357.936 189.844C357.936 190.074 357.936 190.305 357.701 190.535C357.701 190.766 357.466 190.766 357.232 190.997C356.997 191.227 356.997 191.227 356.762 191.227C356.528 191.458 356.058 191.689 355.824 191.919C355.354 192.15 355.12 192.38 354.65 192.611C354.181 192.842 353.946 193.072 353.477 193.303C353.008 193.533 352.773 193.764 352.538 194.225C353.008 194.456 353.242 194.917 353.712 195.148C354.181 195.378 354.65 195.609 354.885 195.84C355.354 196.07 355.824 196.301 356.058 196.531C356.528 196.762 356.762 196.993 357.232 197.454C357.466 197.454 357.466 197.685 357.701 197.685C357.936 197.685 357.936 197.915 358.171 198.146C358.405 198.376 358.405 198.376 358.405 198.607C358.64 198.607 358.405 198.607 358.405 198.838Z" fill="#B92E36"/>
<path d="M368.027 199.991C368.027 200.221 367.792 200.221 367.792 200.452C367.792 200.452 367.557 200.682 367.323 200.682C367.088 200.682 367.088 200.913 366.853 200.913C366.619 200.913 366.619 200.913 366.384 200.913C365.68 200.913 364.976 201.144 364.037 201.144C363.333 201.144 362.394 201.144 361.69 201.144C361.456 201.144 361.221 200.913 360.752 200.682C360.517 200.452 360.282 200.221 360.048 199.991C359.813 199.76 359.813 199.529 359.813 199.068C359.813 198.607 359.813 198.146 359.813 197.684C359.813 197.223 359.813 196.531 359.813 196.07C359.813 195.378 359.813 194.917 360.048 194.456C360.048 193.995 360.282 193.533 360.282 193.072C360.282 192.611 360.282 192.38 360.517 192.15C360.517 191.919 360.517 191.919 360.517 191.688C360.517 191.458 360.282 191.458 360.282 191.227C360.282 190.997 360.048 190.997 360.048 190.766C360.048 190.535 360.048 190.535 360.048 190.305L360.282 190.074C360.517 190.074 360.517 189.844 360.752 189.844C360.986 189.844 360.986 189.844 361.221 189.613C361.456 189.613 361.456 189.613 361.69 189.613C362.16 189.613 362.629 189.613 363.098 189.613C363.568 189.613 364.037 189.613 364.507 189.613C364.976 189.613 365.445 189.613 365.915 189.613C366.384 189.613 366.853 189.613 367.088 189.844C367.323 189.844 367.323 189.844 367.557 190.074C367.792 190.074 367.792 190.305 368.027 190.305L368.261 190.535C368.261 190.766 368.261 190.766 368.261 190.997C368.261 191.227 368.027 191.227 368.027 191.458L367.792 191.688C367.557 191.688 367.557 191.688 367.323 191.688C367.088 191.688 367.088 191.688 366.853 191.688C366.619 191.688 366.149 191.688 365.68 191.688C365.211 191.688 364.976 191.688 364.507 191.688C364.037 191.688 363.803 191.688 363.333 191.688C362.864 191.688 362.629 191.919 362.394 192.15C362.394 192.38 362.16 192.38 362.16 192.611C362.16 192.842 362.16 193.072 362.16 193.303C362.16 193.533 362.16 193.764 362.16 193.995C362.16 194.225 362.16 194.456 362.16 194.456C362.394 194.456 362.629 194.456 362.864 194.456C363.099 194.456 363.568 194.456 364.037 194.456C364.507 194.456 364.741 194.456 365.211 194.456C365.68 194.456 365.915 194.456 366.384 194.686C366.384 194.686 366.619 194.686 366.619 194.917C366.619 195.148 366.853 195.148 366.853 195.378C366.853 195.609 366.853 195.609 366.853 195.84C366.853 196.07 366.619 196.07 366.384 196.301C366.149 196.531 365.68 196.531 365.211 196.531C364.741 196.531 364.272 196.531 363.803 196.531C363.333 196.531 362.864 196.531 362.629 196.531C362.16 196.531 361.925 196.531 361.925 196.531C361.925 196.762 361.925 196.993 361.925 197.223C361.925 197.454 361.925 197.684 361.925 197.915C361.925 198.146 361.925 198.376 361.925 198.607C361.925 198.838 361.925 199.068 362.16 199.068C362.394 199.299 362.394 199.299 362.629 199.299C362.864 199.299 363.099 199.529 363.333 199.529C363.568 199.529 363.803 199.529 364.037 199.529C364.272 199.529 364.507 199.529 364.741 199.529C364.976 199.529 365.211 199.529 365.445 199.529C365.68 199.529 365.915 199.529 366.149 199.529C366.384 199.529 366.619 199.529 366.853 199.529C367.088 199.529 367.323 199.529 367.557 199.529C367.792 199.529 367.792 199.529 368.027 199.529C368.261 199.529 368.261 199.529 368.261 199.76L368.496 199.991C368.027 199.529 368.027 199.76 368.027 199.991Z" fill="#B92E36"/>
<path d="M378.118 198.376C377.883 198.838 377.649 199.068 377.414 199.529C377.179 199.991 376.71 200.221 376.475 200.452C376.006 200.682 375.536 200.913 375.067 201.144C374.598 201.374 374.128 201.374 373.659 201.605C373.19 201.605 372.72 201.605 372.251 201.605C371.782 201.605 371.312 201.374 370.608 201.144C370.373 201.144 370.373 200.913 370.139 200.913C369.904 200.682 369.904 200.452 369.904 200.221C369.904 199.991 369.669 199.76 369.669 199.529C369.669 199.299 369.669 199.068 369.904 199.068C370.139 198.838 370.373 198.838 370.608 198.838C370.843 198.838 371.078 199.068 371.547 199.068C371.782 199.299 372.016 199.299 372.486 199.529C372.72 199.76 372.955 199.76 373.424 199.76C374.128 199.76 374.832 199.529 375.302 199.299C375.771 199.068 376.24 198.607 376.475 197.684C376.71 197.223 376.475 196.993 376.24 196.762C376.006 196.531 375.771 196.301 375.302 196.07C374.832 195.84 374.363 195.609 373.894 195.609C373.424 195.378 372.72 195.148 372.251 194.917C371.782 194.686 371.312 194.456 370.843 194.225C370.373 193.995 370.139 193.533 370.139 193.072C370.139 192.842 370.139 192.611 370.139 192.15C370.139 191.919 370.373 191.458 370.608 191.227C370.843 190.997 371.078 190.766 371.312 190.535C371.547 190.305 371.782 190.074 372.016 190.074C372.251 189.844 372.72 189.844 372.955 189.844C373.424 189.844 373.659 189.844 374.128 189.613C374.598 189.613 374.832 189.613 375.302 189.613C375.771 189.613 376.006 189.613 376.475 189.844C376.71 189.844 376.945 189.844 377.179 190.074C377.414 190.074 377.649 190.305 377.883 190.535C378.118 190.766 378.118 190.766 378.353 190.997C378.587 191.227 378.353 191.458 378.353 191.688C378.353 191.919 378.118 191.919 377.883 192.15C377.649 192.15 377.649 192.15 377.414 192.15C377.179 192.15 377.179 192.15 376.945 191.919C376.71 191.919 376.71 191.688 376.475 191.688C376.24 191.688 376.006 191.458 375.536 191.458C375.302 191.458 374.832 191.458 374.598 191.458C374.363 191.458 373.894 191.458 373.659 191.688C373.424 191.688 373.19 191.919 372.955 191.919C372.72 192.15 372.486 192.15 372.486 192.38C372.486 192.611 372.486 192.842 372.72 193.072C372.955 193.303 373.19 193.533 373.659 193.764C374.128 193.995 374.363 193.995 374.832 194.225C375.302 194.456 375.771 194.456 376.24 194.686C376.71 194.917 377.179 194.917 377.414 195.148C377.649 195.378 377.883 195.609 378.118 195.84C378.353 196.07 378.587 196.301 378.587 196.762C378.822 196.993 378.822 197.454 378.822 197.684C378.353 197.684 378.118 197.915 378.118 198.376Z" fill="#B92E36"/>
<path d="M337.518 215.212C337.049 215.673 336.58 215.903 336.11 216.134C335.641 216.365 334.937 216.595 334.468 216.826C333.763 217.057 333.294 217.057 332.59 216.826C331.886 216.826 331.417 216.595 330.947 216.134C330.713 216.595 330.478 216.826 330.478 217.287C330.478 217.748 330.478 217.979 330.243 218.21C330.243 218.21 330.243 218.21 330.243 218.44C330.243 218.44 330.243 218.671 330.009 218.671C330.009 218.671 330.009 218.901 329.774 218.901H329.539C329.305 218.901 329.07 218.901 329.07 218.901C329.07 218.901 328.835 218.671 328.835 218.44C328.835 218.21 328.835 217.979 328.835 217.748C328.835 217.518 328.835 217.287 328.835 217.057C328.835 216.826 328.835 216.595 329.07 216.365C329.07 216.134 329.07 216.134 329.07 215.903C329.305 214.981 329.539 214.059 329.774 213.136C330.009 212.214 330.243 211.291 330.478 210.369C330.478 210.369 330.478 210.138 330.243 210.138C330.243 209.907 330.243 209.907 330.243 209.677C330.243 209.446 330.243 209.446 330.243 209.216C330.243 208.985 330.243 208.985 330.478 208.985C330.478 208.985 330.713 208.754 330.947 208.754C331.182 208.754 331.417 208.754 331.651 208.754C331.886 208.754 332.121 208.754 332.355 208.754C332.59 208.754 332.825 208.754 332.825 208.754C333.294 208.754 333.763 208.985 334.233 208.985C334.702 208.985 335.172 209.216 335.406 209.446C335.876 209.677 336.11 209.907 336.58 210.138C337.049 210.369 337.284 210.599 337.518 211.061C337.753 211.291 337.988 211.522 337.988 211.983C337.988 212.444 338.222 212.675 337.988 213.136C337.988 213.597 337.753 213.828 337.753 214.289C337.988 214.52 337.753 214.981 337.518 215.212ZM336.814 212.675C336.58 212.214 336.345 211.983 335.876 211.752C335.641 211.522 335.172 211.291 334.702 211.291C334.233 211.061 333.998 211.061 333.529 211.061C333.059 211.061 332.59 211.061 332.355 211.061C332.355 211.291 332.121 211.752 331.886 211.983C331.651 212.214 331.651 212.675 331.417 212.905C331.417 213.136 331.182 213.597 331.182 213.828C331.182 214.059 330.947 214.52 330.947 214.75C331.417 214.981 331.886 215.212 332.355 215.212C332.825 215.212 333.529 215.212 334.233 215.212C334.468 215.212 334.702 214.981 335.172 214.981C335.406 214.75 335.876 214.75 336.11 214.52C336.345 214.289 336.58 214.059 336.814 213.828C337.049 213.367 337.049 212.905 336.814 212.675Z" fill="#5077AC"/>
<path d="M345.263 221.438C345.263 221.669 345.028 221.669 345.028 221.669C345.028 221.669 344.793 221.899 344.559 221.899C344.324 221.899 344.324 221.899 344.089 221.899C343.854 221.899 343.854 221.899 343.62 221.899C342.916 221.899 342.446 221.899 341.742 221.669C341.038 221.669 340.334 221.438 339.63 221.207C339.396 221.207 339.161 220.977 338.926 220.746C338.691 220.516 338.457 220.285 338.457 220.054C338.457 219.824 338.222 219.593 338.222 219.363C338.222 219.132 338.222 218.671 338.222 218.209C338.222 217.748 338.457 217.287 338.457 216.826C338.457 216.365 338.691 215.903 338.926 215.442C339.161 214.981 339.161 214.52 339.396 214.289C339.396 213.828 339.63 213.597 339.63 213.367C339.63 213.136 339.63 213.136 339.63 212.905C339.63 212.675 339.63 212.675 339.396 212.444C339.396 212.213 339.396 212.213 339.396 211.983C339.396 211.752 339.396 211.752 339.396 211.752L339.63 211.522C339.865 211.522 339.865 211.522 340.1 211.522C340.334 211.522 340.334 211.522 340.569 211.522C340.804 211.522 340.804 211.522 340.804 211.522C341.273 211.522 341.508 211.522 341.977 211.522C342.446 211.522 342.681 211.522 343.15 211.752C343.62 211.752 343.854 211.983 344.324 211.983C344.793 211.983 345.028 212.213 345.263 212.213C345.263 212.213 345.497 212.213 345.732 212.444C345.967 212.444 345.967 212.675 345.967 212.675L346.201 212.905C346.201 212.905 346.201 213.136 346.201 213.367C346.201 213.597 345.967 213.597 345.967 213.597H345.732H345.497H345.263C345.028 213.597 344.559 213.597 344.324 213.367C344.089 213.136 343.62 213.136 343.385 213.136C343.15 213.136 342.681 213.136 342.446 213.136C342.212 213.136 341.742 213.136 341.508 213.367C341.508 213.597 341.273 213.597 341.273 213.828C341.273 214.058 341.273 214.058 341.038 214.289C341.038 214.52 341.038 214.52 340.804 214.75C340.804 214.981 340.804 214.981 340.569 215.211C340.804 215.211 341.038 215.211 341.273 215.442C341.508 215.442 341.977 215.442 342.212 215.673C342.446 215.673 342.916 215.903 343.15 215.903C343.385 215.903 343.854 216.134 344.089 216.134C344.089 216.134 344.324 216.134 344.324 216.365C344.324 216.595 344.559 216.595 344.559 216.826C344.559 217.056 344.559 217.056 344.559 217.287C344.559 217.518 344.324 217.518 344.089 217.518C343.854 217.518 343.385 217.518 343.15 217.518C342.681 217.518 342.446 217.518 341.977 217.287C341.508 217.056 341.273 217.056 340.804 217.056C340.334 217.056 340.334 217.056 340.1 217.056C340.1 217.287 340.1 217.287 339.865 217.518C339.865 217.748 339.63 217.979 339.63 218.209C339.63 218.44 339.63 218.671 339.63 218.901C339.63 219.132 339.63 219.363 339.63 219.363C339.63 219.593 339.865 219.593 340.1 219.593C340.334 219.593 340.334 219.824 340.569 219.824C340.804 219.824 341.038 219.824 341.038 219.824C341.273 219.824 341.508 219.824 341.508 219.824C341.742 219.824 341.977 219.824 342.212 219.824C342.446 219.824 342.681 219.824 342.916 219.824C343.15 219.824 343.385 219.824 343.62 219.824C343.854 219.824 344.089 219.824 344.324 220.054C344.324 220.054 344.559 220.054 344.559 220.285C344.559 220.285 344.793 220.285 344.793 220.516C344.793 220.516 344.793 220.746 345.028 220.746C345.263 220.746 345.263 221.438 345.263 221.438Z" fill="#5077AC"/>
<path d="M354.415 223.514C354.415 223.744 354.415 223.975 354.415 223.975C354.415 224.206 354.181 224.206 353.946 224.206C353.711 224.206 353.711 224.206 353.477 224.206C353.242 224.206 353.242 223.975 353.242 223.975L353.007 223.744C353.007 223.514 352.773 223.514 352.773 223.514C352.303 222.822 352.069 222.361 351.599 221.899C351.13 221.438 350.661 220.746 350.426 220.285C350.191 220.285 349.957 220.285 349.722 220.054C349.487 220.054 349.253 220.054 349.018 220.054C348.783 220.285 348.783 220.516 348.783 220.977C348.783 221.438 348.783 221.669 348.548 222.13C348.548 222.361 348.314 222.822 348.314 223.052C348.314 223.283 348.079 223.514 347.844 223.514C347.61 223.514 347.375 223.514 347.375 223.283C347.375 223.052 347.14 223.052 347.14 222.822C347.14 222.591 347.14 222.361 347.14 221.899C347.14 221.438 347.375 220.977 347.375 220.746C347.375 220.285 347.61 219.824 347.844 219.363C348.079 218.901 348.079 218.44 348.314 217.979C348.548 217.518 348.548 217.056 348.783 216.595C349.018 216.134 349.018 215.903 349.018 215.673C348.783 215.673 348.783 215.442 348.783 215.212C348.783 214.981 348.783 214.75 348.783 214.75C348.783 214.52 349.018 214.52 349.018 214.289C349.253 214.058 349.253 214.058 349.487 214.058C349.957 214.058 350.191 214.058 350.661 214.058C351.13 214.058 351.599 214.058 352.069 214.289C352.538 214.289 353.007 214.52 353.477 214.52C353.946 214.75 354.181 214.75 354.65 214.981C354.885 215.212 355.354 215.442 355.589 215.903C355.824 216.134 356.058 216.595 356.058 217.056C356.293 217.979 355.824 218.671 355.12 219.132C354.885 219.363 354.415 219.593 354.181 219.593C353.711 219.824 353.477 219.824 353.242 220.054C353.242 220.285 353.477 220.746 353.711 220.977C353.946 221.208 354.181 221.669 354.415 221.899C354.65 222.13 354.885 222.591 355.12 222.822C354.415 222.822 354.415 223.283 354.415 223.514ZM353.946 217.056C353.946 216.826 353.946 216.595 353.711 216.595C353.477 216.365 353.477 216.365 353.242 216.134C353.007 215.903 352.773 215.903 352.538 215.903C352.303 215.903 352.069 215.673 352.069 215.673C352.069 215.673 351.834 215.673 351.599 215.673C351.365 215.673 351.365 215.673 351.13 215.673C350.895 215.673 350.895 215.673 350.661 215.673C350.426 215.673 350.426 215.673 350.191 215.673C349.957 216.134 349.722 216.595 349.722 217.056C349.722 217.518 349.487 217.979 349.487 218.44C349.722 218.44 350.191 218.44 350.661 218.671C351.13 218.671 351.599 218.671 352.069 218.671C352.538 218.671 353.007 218.44 353.242 218.21C353.477 217.748 353.711 217.287 353.946 217.056Z" fill="#5077AC"/>
<path d="M364.507 217.287C364.507 217.518 364.507 217.748 364.507 217.748C364.507 217.979 364.272 217.979 364.272 217.979C364.037 217.979 364.037 217.979 363.803 217.979C363.568 217.979 363.568 217.979 363.333 217.979C362.864 217.979 362.629 217.748 362.16 217.748C361.691 217.748 361.456 217.518 360.987 217.518C360.752 217.518 360.283 217.518 359.813 217.287C359.344 217.287 359.109 217.287 358.64 217.287C358.64 217.287 358.405 217.518 358.405 217.748C358.405 217.979 358.405 217.979 358.17 218.21C358.17 218.44 358.17 218.671 358.17 218.671C358.17 218.901 358.17 218.901 358.17 219.132C358.405 219.132 358.64 219.363 358.874 219.363C359.109 219.363 359.579 219.593 359.813 219.593C360.048 219.593 360.517 219.593 360.752 219.824C360.987 219.824 361.456 220.055 361.691 220.055C361.925 220.055 361.925 220.055 362.16 220.285C362.395 220.285 362.395 220.516 362.629 220.516L362.864 220.746C362.864 220.746 362.864 220.977 362.864 221.208C362.864 221.208 362.864 221.208 362.629 221.438L362.395 221.669C362.395 221.669 362.16 221.669 362.16 221.899H361.925C361.221 221.899 360.752 221.669 360.048 221.669C359.344 221.438 358.64 221.438 357.936 221.208C357.936 221.438 357.701 221.899 357.701 222.13C357.701 222.361 357.466 222.822 357.466 223.053C357.466 223.053 357.466 223.283 357.466 223.514C357.466 223.744 357.466 223.975 357.466 224.206C357.466 224.436 357.466 224.667 357.232 224.897C356.997 225.128 356.997 225.128 356.997 225.128C356.762 225.128 356.528 225.128 356.528 225.128C356.293 225.128 356.293 224.897 356.293 224.667C356.293 224.436 356.058 224.206 356.058 224.206C356.058 223.975 356.058 223.744 356.058 223.744C356.058 223.283 356.293 222.822 356.293 222.361C356.293 221.899 356.528 221.438 356.528 220.746C356.528 220.285 356.762 219.593 356.762 219.132C356.762 218.671 356.997 217.979 357.232 217.518C356.997 217.287 356.997 217.057 356.997 216.826C356.997 216.595 356.997 216.365 357.232 216.134C357.232 215.903 357.466 215.903 357.701 215.903C357.936 215.903 357.936 215.903 358.17 215.903C358.405 215.903 358.64 215.903 358.64 215.903C358.64 215.903 358.874 215.903 359.109 215.903C359.344 215.903 359.813 215.903 360.048 215.903C360.517 215.903 360.752 215.903 361.221 216.134C361.691 216.134 361.925 216.365 362.395 216.365C362.864 216.365 363.099 216.595 363.333 216.595C363.333 216.595 363.568 216.595 363.803 216.826C364.037 216.826 364.037 216.826 364.272 217.057C364.507 217.057 364.507 217.287 364.507 217.287C364.507 217.057 364.507 217.057 364.507 217.287Z" fill="#5077AC"/>
<path d="M370.608 227.203C370.608 227.434 370.374 227.434 370.374 227.434C370.374 227.434 370.139 227.665 369.904 227.665C369.67 227.665 369.67 227.665 369.435 227.665C369.2 227.665 369.2 227.665 368.965 227.665C368.261 227.665 367.792 227.665 367.088 227.434C366.384 227.434 365.68 227.203 364.976 226.973C364.741 226.973 364.507 226.742 364.272 226.511C364.037 226.281 363.803 226.05 363.803 225.82C363.803 225.589 363.568 225.358 363.568 225.128C363.568 224.897 363.568 224.436 363.568 223.975C363.568 223.513 363.803 223.052 363.803 222.591C363.803 222.13 364.037 221.669 364.272 221.207C364.507 220.746 364.507 220.285 364.741 220.054C364.741 219.593 364.976 219.362 364.976 219.132C364.976 218.901 364.976 218.901 364.976 218.671C364.976 218.44 364.976 218.44 364.741 218.209C364.741 217.979 364.741 217.979 364.741 217.748C364.741 217.517 364.741 217.517 364.741 217.517L364.976 217.287C365.211 217.287 365.211 217.287 365.445 217.287C365.68 217.287 365.68 217.287 365.915 217.287C366.149 217.287 366.149 217.287 366.149 217.287C366.619 217.287 366.853 217.287 367.323 217.287C367.792 217.287 368.027 217.287 368.496 217.517C368.965 217.517 369.2 217.748 369.67 217.748C370.139 217.748 370.374 217.979 370.608 217.979C370.608 217.979 370.843 217.979 371.078 218.209C371.312 218.209 371.312 218.44 371.312 218.44L371.547 218.671C371.547 218.671 371.547 218.901 371.547 219.132C371.547 219.362 371.312 219.362 371.312 219.362H371.078H370.843H370.608C370.374 219.362 369.904 219.362 369.67 219.132C369.435 218.901 368.966 218.901 368.731 218.901C368.496 218.901 368.027 218.901 367.792 218.901C367.557 218.901 367.088 218.901 366.853 219.132C366.853 219.362 366.619 219.362 366.619 219.593C366.619 219.824 366.619 219.824 366.384 220.054C366.149 220.285 366.384 220.285 366.149 220.515C366.149 220.746 366.149 220.746 365.915 220.977C366.149 220.977 366.384 220.977 366.619 221.207C366.853 221.207 367.323 221.207 367.557 221.438C367.792 221.438 368.261 221.669 368.496 221.669C368.731 221.669 369.2 221.899 369.435 221.899C369.435 221.899 369.67 221.899 369.67 222.13C369.67 222.36 369.904 222.36 369.904 222.591C369.904 222.822 369.904 222.822 369.904 223.052C369.904 223.283 369.67 223.283 369.435 223.283C369.2 223.283 368.731 223.283 368.496 223.283C368.027 223.283 367.792 223.283 367.323 223.052C366.853 223.052 366.619 222.822 366.149 222.822C365.915 222.822 365.68 222.822 365.445 222.822C365.445 223.052 365.445 223.052 365.211 223.283C365.211 223.513 364.976 223.744 364.976 223.975C364.976 224.205 364.976 224.436 364.976 224.667C364.976 224.897 364.976 225.128 364.976 225.128C364.976 225.358 365.211 225.358 365.445 225.358C365.68 225.358 365.68 225.589 365.915 225.589C366.149 225.589 366.384 225.589 366.384 225.589C366.619 225.589 366.853 225.589 366.853 225.589C367.088 225.589 367.323 225.589 367.557 225.589C367.792 225.589 368.027 225.589 368.261 225.589C368.496 225.589 368.731 225.589 368.965 225.589C369.2 225.589 369.435 225.589 369.67 225.82C369.67 225.82 369.904 225.82 369.904 226.05C369.904 226.05 370.139 226.05 370.139 226.281C370.139 226.281 370.139 226.511 370.374 226.511C370.608 226.511 370.843 227.203 370.608 227.203Z" fill="#5077AC"/>
<path d="M379.291 227.434C379.291 227.665 379.291 227.895 379.291 228.126C379.291 228.357 379.057 228.587 378.822 228.587C378.587 228.818 378.353 228.818 377.883 229.049C377.649 229.279 377.179 229.279 376.945 229.279C376.475 229.279 376.006 229.279 375.771 229.279C375.302 229.279 375.067 229.049 374.598 229.049C374.128 228.818 373.894 228.818 373.659 228.587C373.424 228.357 373.19 228.126 372.955 227.895C372.486 227.434 372.251 226.742 372.251 226.281C372.251 225.82 372.251 225.128 372.251 224.667C372.251 224.206 372.486 223.744 372.955 223.283C373.19 222.822 373.659 222.361 373.894 221.899C374.128 221.669 374.363 221.438 374.832 221.208C375.067 220.977 375.536 220.746 376.006 220.746C376.475 220.516 376.71 220.516 377.179 220.516C377.649 220.516 377.883 220.516 378.353 220.516C378.822 220.516 379.057 220.746 379.526 220.746C379.761 220.977 380.23 221.208 380.465 221.438C380.7 221.669 380.699 221.899 380.934 222.13C380.934 222.361 380.934 222.591 380.934 222.822C380.934 223.053 380.699 223.053 380.699 223.053H380.465C380.465 223.053 380.23 223.053 380.23 222.822C380.23 222.822 379.995 222.591 379.761 222.591C379.526 222.361 379.291 222.361 379.291 222.13C379.057 221.899 378.822 221.899 378.587 221.899C378.587 221.899 378.353 221.899 378.118 221.899C377.883 221.899 377.883 221.899 377.649 221.899C377.414 221.899 377.414 221.899 377.179 221.899C376.945 221.899 376.945 221.899 376.71 222.13C376.241 222.361 376.006 222.591 375.771 222.822C375.537 223.053 375.302 223.283 375.067 223.744C374.832 223.975 374.832 224.436 374.598 224.667C374.598 225.128 374.598 225.359 374.598 225.82C374.598 226.051 374.598 226.281 374.832 226.281C374.832 226.512 375.067 226.742 375.067 226.742C375.302 226.973 375.302 226.973 375.537 227.204C375.771 227.434 375.771 227.434 376.006 227.434C376.241 227.434 376.475 227.665 376.71 227.665C376.945 227.665 377.179 227.665 377.414 227.665C377.649 227.665 377.883 227.665 378.118 227.434C378.353 227.434 378.587 227.204 378.822 227.204H379.057C379.291 227.204 379.291 227.204 379.526 227.204C379.057 226.973 379.057 226.973 379.291 227.434C379.291 227.204 379.291 227.204 379.291 227.434Z" fill="#5077AC"/>
<path d="M391.025 223.514C391.025 223.745 390.79 223.975 390.556 223.975C390.321 223.975 390.086 223.975 389.617 223.975C389.382 223.975 389.148 223.745 388.913 223.745C388.678 223.745 388.444 223.514 388.209 223.514C387.974 223.514 387.74 223.514 387.505 223.283C387.27 223.283 387.035 223.283 387.035 223.283C386.801 223.514 386.801 223.975 386.566 224.436C386.331 224.898 386.331 225.359 386.097 225.82C385.862 226.281 385.862 226.743 385.627 227.204C385.627 227.665 385.393 228.126 385.393 228.357C385.393 228.587 385.393 228.818 385.158 229.049C385.158 229.279 385.158 229.51 385.158 229.51C385.158 229.741 385.158 229.741 384.923 229.971C384.923 230.202 384.689 230.202 384.689 230.432C384.689 230.663 384.454 230.663 384.454 230.663C384.219 230.663 384.219 230.663 383.985 230.663C383.75 230.663 383.75 230.663 383.515 230.432C383.515 230.432 383.281 230.202 383.281 229.971C383.281 229.741 383.281 229.279 383.515 229.049C383.515 228.818 383.75 228.357 383.75 228.126C383.75 227.665 383.985 227.434 384.219 226.743C384.454 226.281 384.454 225.82 384.689 225.128C384.923 224.436 384.923 223.975 385.158 223.514C385.158 223.053 385.393 222.591 385.393 222.13C385.158 222.13 384.689 222.13 384.454 221.9C383.985 221.9 383.75 221.9 383.281 221.9C383.046 221.9 383.046 221.9 382.811 221.9C382.577 221.9 382.342 221.669 382.342 221.669C382.107 221.669 382.107 221.438 381.873 221.208C381.873 220.977 381.873 220.747 381.873 220.516C381.873 220.285 382.107 220.285 382.107 220.285C382.342 220.285 382.342 220.285 382.577 220.285C382.811 220.285 382.811 220.285 383.046 220.285C383.281 220.285 383.281 220.285 383.515 220.285C383.985 220.285 384.454 220.285 385.158 220.516C385.627 220.516 386.331 220.747 387.035 220.747C387.74 220.747 388.209 220.977 388.913 221.208C389.617 221.438 390.086 221.438 390.79 221.669C391.025 221.669 391.025 221.9 391.26 221.9C391.025 223.283 391.025 223.283 391.025 223.514Z" fill="#5077AC"/>
</svg>
