<svg width="42" height="42" viewBox="0 0 42 42" fill="none" xmlns="http://www.w3.org/2000/svg">
<path d="M39 1H10.3334C9.2293 1.00117 8.33453 1.89594 8.33336 3V3.66664H7.66672C6.56266 3.66781 5.66789 4.56258 5.66672 5.66664V5.68836C3.25156 5.82891 1 6.72977 1 8.33336C1 9.2157 1.68242 9.88547 2.69797 10.3334C1.68242 10.7813 1 11.4509 1 12.3334C1 13.2157 1.68242 13.8855 2.69797 14.3334C1.68242 14.7813 1 15.4509 1 16.3334C1 17.2157 1.68242 17.8855 2.69797 18.3334C1.68242 18.7813 1 19.4509 1 20.3334C1 21.2158 1.68242 21.8855 2.69797 22.3334C1.68242 22.7813 1 23.4509 1 24.3334C1 25.2158 1.68242 25.8855 2.69797 26.3334C1.68242 26.7813 1 27.4509 1 28.3334C1 29.2158 1.68242 29.8855 2.69797 30.3334C1.68242 30.7813 1 31.4509 1 32.3334C1 33.2157 1.68242 33.8855 2.69797 34.3334C1.68242 34.7813 1 35.4509 1 36.3334C1 37.937 3.25156 38.8378 5.66664 38.9783V39C5.66781 40.1041 6.56258 40.9988 7.66664 41H36.3333C37.4373 40.9988 38.3321 40.1041 38.3333 39V38.3334H38.9999C40.104 38.3322 40.9988 37.4374 40.9999 36.3334V3C40.9988 1.89594 40.1041 1.00117 39 1ZM5.66664 37.638C3.58789 37.5007 2.33328 36.7591 2.33328 36.3333C2.33328 35.9076 3.58789 35.1659 5.66664 35.0286V37.638ZM5.66664 33.638C3.58789 33.5007 2.33328 32.7591 2.33328 32.3333C2.33328 31.9075 3.58789 31.1659 5.66664 31.0286V33.638ZM5.66664 29.638C3.58789 29.5007 2.33328 28.7591 2.33328 28.3333C2.33328 27.9075 3.58789 27.1659 5.66664 27.0286V29.638ZM5.66664 25.638C3.58789 25.5007 2.33328 24.7591 2.33328 24.3333C2.33328 23.9075 3.58789 23.1659 5.66664 23.0286V25.638ZM5.66664 21.638C3.58789 21.5007 2.33328 20.7591 2.33328 20.3333C2.33328 19.9075 3.58789 19.1659 5.66664 19.0286V21.638ZM5.66664 17.638C3.58789 17.5007 2.33328 16.7591 2.33328 16.3333C2.33328 15.9076 3.58789 15.1659 5.66664 15.0286V17.638ZM5.66664 13.638C3.58789 13.5007 2.33328 12.7591 2.33328 12.3333C2.33328 11.9076 3.58789 11.1659 5.66664 11.0286V13.638ZM5.66664 9.63797C3.58789 9.5007 2.33328 8.75906 2.33328 8.33328C2.33328 7.9075 3.58789 7.16586 5.66664 7.02859V9.63797ZM37 39C36.9995 39.368 36.7013 39.6662 36.3334 39.6666H7.66664C7.29867 39.6662 7.00047 39.368 7 39V38.9783C9.41516 38.8377 11.6666 37.9369 11.6666 36.3334C11.6666 35.9652 11.3682 35.6667 11 35.6667C10.6318 35.6667 10.3334 35.9652 10.3334 36.3334C10.3334 36.7591 9.07875 37.5008 7 37.6381V34.9784C9.41516 34.8378 11.6666 33.937 11.6666 32.3334C11.6666 31.9652 11.3682 31.6668 11 31.6668C10.6318 31.6668 10.3334 31.9653 10.3334 32.3334C10.3334 32.7591 9.07875 33.5009 7 33.6381V30.9784C9.41516 30.8379 11.6666 29.937 11.6666 28.3335C11.6666 27.9653 11.3682 27.6669 11 27.6669C10.6318 27.6669 10.3334 27.9653 10.3334 28.3335C10.3334 28.7592 9.07875 29.5009 7 29.6382V26.9785C9.41516 26.838 11.6666 25.9371 11.6666 24.3336C11.6666 23.9654 11.3682 23.667 11 23.667C10.6318 23.667 10.3334 23.9654 10.3334 24.3336C10.3334 24.7593 9.07875 25.501 7 25.6383V22.9786C9.41516 22.8381 11.6666 21.9372 11.6666 20.3337C11.6666 19.9655 11.3682 19.667 11 19.667C10.6318 19.667 10.3334 19.9655 10.3334 20.3337C10.3334 20.7594 9.07875 21.5011 7 21.6384V18.9786C9.41516 18.8381 11.6666 17.9372 11.6666 16.3337C11.6666 15.9655 11.3682 15.667 11 15.667C10.6318 15.667 10.3334 15.9655 10.3334 16.3337C10.3334 16.7595 9.07875 17.5011 7 17.6384V14.9786C9.41516 14.8381 11.6666 13.9372 11.6666 12.3337C11.6666 11.9655 11.3682 11.667 11 11.667C10.6318 11.667 10.3334 11.9655 10.3334 12.3337C10.3334 12.7595 9.07875 13.5011 7 13.6384V10.9787C9.41516 10.8381 11.6666 9.93727 11.6666 8.33375C11.6666 7.96555 11.3682 7.66711 11 7.66711C10.6318 7.66711 10.3334 7.96563 10.3334 8.33375C10.3334 8.75945 9.07875 9.50117 7 9.63844V5.66664C7.00047 5.29867 7.29867 5.00047 7.66664 5H37V39ZM39.6666 36.3334C39.6662 36.7013 39.368 36.9995 39 37H38.3334V4.33336C38.3334 3.96516 38.0349 3.66672 37.6667 3.66672H9.66672V3C9.66719 2.63203 9.96539 2.33383 10.3334 2.33336H39C39.368 2.33383 39.6662 2.63203 39.6666 3V36.3334ZM17 27.6666C16.2639 27.6659 15.6674 27.0694 15.6666 26.3333V7.66664C15.6674 6.93055 16.2639 6.33399 17 6.33328H34.3334C35.0695 6.33406 35.666 6.93055 35.6667 7.66664V26.3333C35.6659 27.0694 35.0695 27.6659 34.3334 27.6666H17ZM17 7.66664V18.9448L20.6648 15.2002C20.9309 14.9443 21.3517 14.9443 21.6179 15.2002L25.2442 18.905L28.1882 15.8691C28.4548 15.6103 28.8787 15.6103 29.1452 15.8691L34.3341 21.2164L34.3334 7.66664H17ZM17 20.8513V26.3333H34.3343L34.3341 23.1311L28.6666 17.2906L26.1771 19.8581L28.1432 21.8668C28.3107 22.0369 28.3745 22.2836 28.3106 22.5136C28.2466 22.7436 28.0645 22.9219 27.8331 22.9809C27.6018 23.04 27.3566 22.9709 27.1901 22.7998L21.1413 16.6198L17 20.8513ZM30.3334 14.3334C28.8613 14.3316 27.6684 13.1388 27.6667 11.6666C27.6667 10.1939 28.8606 9 30.3334 9C31.8061 9 33 10.194 33 11.6667C33 13.1395 31.8061 14.3334 30.3334 14.3334ZM30.3334 10.3334C29.5973 10.3341 29.0007 10.9306 29 11.6667C29 12.4031 29.597 13.0001 30.3334 13.0001C31.0698 13.0001 31.6667 12.4031 31.6667 11.6667C31.6667 10.9303 31.0698 10.3334 30.3334 10.3334ZM34.3334 29.6666C34.7016 29.6666 35 29.9652 35 30.3334C35 30.7016 34.7016 31 34.3334 31H17C16.6318 31 16.3334 30.7015 16.3334 30.3333C16.3334 29.9651 16.6318 29.6666 17 29.6666H34.3334ZM34.3334 32.3334C34.7016 32.3334 35 32.6318 35 33C35 33.3682 34.7016 33.6666 34.3334 33.6666H17C16.6318 33.6666 16.3334 33.3682 16.3334 33C16.3334 32.6318 16.6318 32.3334 17 32.3334H34.3334ZM34.3334 35C34.7016 35 35 35.2984 35 35.6666C35 36.0349 34.7016 36.3333 34.3334 36.3333H17C16.6318 36.3333 16.3334 36.0349 16.3334 35.6666C16.3334 35.2984 16.6318 35 17 35H34.3334Z" fill="#226E86" stroke="#E6F2F5" stroke-width="0.4"/>
</svg>
