<svg width="37" height="37" viewBox="0 0 37 37" fill="none" xmlns="http://www.w3.org/2000/svg">
<path d="M36.0084 33.3207V33.3204C36.1087 33.4206 36.165 33.5565 36.165 33.6982C36.165 33.8399 36.1087 33.9758 36.0084 34.076L34.0656 36.0185C33.9315 36.1574 33.7329 36.2131 33.5461 36.1642C33.3593 36.1154 33.2134 35.9696 33.1645 35.7828C33.1156 35.596 33.1712 35.3974 33.3101 35.2632L34.341 34.2323H2.46696C2.32525 34.2324 2.18932 34.1761 2.08912 34.0759C1.98891 33.9757 1.93265 33.8398 1.93273 33.6981V1.82372L0.90182 2.85433C0.691732 3.05354 0.361194 3.04915 0.156473 2.84443C-0.0482472 2.63971 -0.0526403 2.30917 0.146569 2.09908L2.08873 0.156618C2.18888 0.0563438 2.32478 0 2.46651 0C2.60823 0 2.74413 0.0563438 2.84428 0.156618L4.78736 2.09878C4.996 2.30742 4.996 2.64569 4.78736 2.85433C4.57872 3.06297 4.24044 3.06297 4.0318 2.85433L3.00119 1.82403V33.1641H34.341L33.3101 32.1332C33.1077 31.9236 33.1106 31.5904 33.3167 31.3843C33.5229 31.1783 33.8561 31.1755 34.0656 31.378L36.0084 33.3207ZM5.9245 22.5903L5.92389 22.5894C5.64704 22.5894 5.41609 22.3779 5.39179 22.1021C5.36749 21.8263 5.5579 21.5777 5.83048 21.5292C10.7976 20.6393 25.5341 12.0495 30.9546 2.81129L29.4679 3.16602C29.1809 3.23447 28.8927 3.05727 28.8242 2.77023C28.7558 2.48319 28.933 2.19501 29.22 2.12656L31.8927 1.48914C32.0307 1.45641 32.176 1.47984 32.2967 1.55427C32.4174 1.6287 32.5035 1.74803 32.5362 1.886L33.1736 4.55837C33.2114 4.71727 33.1745 4.88473 33.0733 5.01298C32.9722 5.14124 32.818 5.21622 32.6547 5.21655C32.4076 5.21623 32.193 5.04656 32.1357 4.80626L31.8148 3.46152C26.2814 12.7568 11.7119 21.561 6.01944 22.5821C5.98809 22.5875 5.95633 22.5903 5.9245 22.5903ZM9.0209 24.2693H11.7684C12.0634 24.2693 12.3026 24.5085 12.3026 24.8036V30.5492C12.3026 30.8442 12.0634 31.0834 11.7684 31.0834H9.0209C8.72586 31.0834 8.48667 30.8442 8.48667 30.5492V24.8036C8.48667 24.5085 8.72586 24.2693 9.0209 24.2693ZM11.2341 30.0149V25.3378H9.55513V30.0149H11.2341ZM15.3578 20.6061H18.1053C18.4003 20.6061 18.6395 20.8452 18.6395 21.1403V30.5492C18.6395 30.8442 18.4003 31.0834 18.1053 31.0834H15.3578C15.0627 31.0834 14.8236 30.8442 14.8236 30.5492V21.1403C14.8236 20.8452 15.0627 20.6061 15.3578 20.6061ZM17.571 30.0149V21.6745H15.892V30.0149H17.571ZM21.6947 16.9428H24.4425C24.7374 16.9429 24.9765 17.182 24.9767 17.477V30.5492C24.9765 30.8441 24.7374 31.0832 24.4425 31.0834H21.695C21.3999 31.0834 21.1608 30.8442 21.1608 30.5492V17.477C21.1608 17.1821 21.3998 16.9429 21.6947 16.9428ZM23.9079 30.0149L23.9082 18.0112H22.2292V30.0149H23.9079ZM28.0313 13.2795H30.7787C31.0738 13.2795 31.313 13.5186 31.313 13.8137V30.5492C31.313 30.8442 31.0738 31.0834 30.7787 31.0834H28.0313C27.7363 31.0832 27.4972 30.8441 27.497 30.5492V13.8137C27.4972 13.5187 27.7363 13.2796 28.0313 13.2795ZM30.2445 30.0149V14.3479H28.5655V30.0149H30.2445Z" fill="#226E86"/>
</svg>
