<svg width="229" height="213" viewBox="0 0 229 213" fill="none" xmlns="http://www.w3.org/2000/svg">
<path d="M198.874 128.827L204.741 212.541H201.925L192.303 129.75L198.874 128.827Z" fill="#13375A"/>
<path d="M136.214 128.827L130.347 212.541H133.398L142.785 129.75L136.214 128.827Z" fill="#13375A"/>
<path d="M224.923 38.4262C224.923 38.4262 177.283 37.0425 174.233 37.2731C171.182 37.5037 168.366 47.1896 168.366 47.1896C168.366 47.1896 154.519 97.9251 154.754 99.3088C154.989 100.692 141.847 133.44 141.847 133.44C141.847 133.44 153.346 133.209 153.815 133.44C154.285 133.671 197.935 129.75 198.639 129.289C199.343 128.828 201.455 121.448 201.455 120.987C201.69 120.525 204.976 91.4678 204.976 91.4678L206.618 75.5553C206.618 75.5553 213.189 61.7184 213.424 61.7184C213.659 61.7184 219.526 49.4958 219.995 49.0345C220.465 48.3427 226.801 41.8854 226.801 41.1936C226.801 40.5018 224.923 38.4262 224.923 38.4262Z" fill="#ED6C81"/>
<path opacity="0.3" d="M224.923 38.4258C224.923 38.4258 208.496 37.9645 194.415 37.5033C199.813 40.7319 203.098 49.726 200.751 65.4078C198.874 78.7836 196.762 93.543 188.079 111.07C183.62 120.064 164.376 114.99 148.887 115.913C145.367 124.445 141.847 133.209 141.847 133.209C141.847 133.209 153.346 132.978 153.815 133.209C154.285 133.44 197.935 129.519 198.639 129.058C199.343 128.597 201.455 121.217 201.455 120.756C201.69 120.294 204.976 91.2368 204.976 91.2368L206.618 75.3243C206.618 75.3243 213.189 61.4874 213.424 61.4874C213.659 61.4874 219.526 49.2647 219.995 48.8035C220.465 48.1116 226.801 41.6544 226.801 40.9625C226.801 40.5013 224.923 38.4258 224.923 38.4258Z" fill="#ED6C81"/>
<path d="M132.928 135.054C132.694 133.44 134.102 132.056 135.744 132.056C140.907 131.595 151.937 130.903 163.202 129.75C184.793 127.675 192.772 126.06 195.588 125.138C196.527 124.907 197.231 123.985 197.465 123.062C198.169 120.064 198.639 113.838 199.108 108.764C200.516 89.1617 202.863 56.8755 223.28 39.1181C224.688 37.965 226.566 38.1956 227.504 39.5793C228.443 40.7324 228.208 42.5773 227.035 43.4998C208.261 59.6429 206.148 89.3923 204.74 109.225C204.036 120.525 203.332 126.06 200.985 128.828C199.812 130.211 197.465 132.518 164.61 135.516C152.876 136.669 141.377 137.36 136.214 137.822C134.336 138.052 133.163 136.669 132.928 135.054Z" fill="#E35B75"/>
<path d="M135.275 19.0542C137.622 9.82956 141.377 6.13971 148.183 2.91108C153.346 0.374306 159.213 -0.54815 165.314 1.29678C177.752 5.21725 181.038 18.8236 182.446 25.7421C186.67 49.4955 207.087 69.7897 199.578 86.1635C192.303 102.537 157.57 100.692 157.57 100.692L141.612 89.3921C141.612 89.3921 140.204 61.9488 140.204 59.6426C140.204 57.3365 134.102 57.5671 134.102 46.2669C134.337 37.5035 132.459 29.6625 135.275 19.0542Z" fill="#FAE0B2"/>
<path d="M93.2679 52.7239C93.2679 52.9545 92.7985 53.1851 92.7985 52.9545C91.1558 51.5708 85.5234 47.6504 85.2888 47.881C84.8194 48.3422 89.513 52.0321 89.2783 52.7239C89.0436 53.4158 84.5847 49.4953 84.1154 49.9565C83.646 50.4178 87.8703 53.877 87.8703 54.1076C87.6356 54.3382 83.1766 51.5708 82.942 51.8015C82.4726 52.0321 86.9315 55.4913 86.6969 55.9525C86.6969 56.4138 82.7073 55.0301 82.7073 55.2607C82.4726 55.4913 82.4726 55.7219 89.9824 61.4873L93.0332 63.5629L96.5534 64.0241L98.4309 60.3342C98.4309 60.3342 94.9107 48.5728 94.4413 48.5728C93.9719 48.1116 93.5026 48.3422 93.2679 52.7239Z" fill="#F5B1C4"/>
<path d="M145.601 47.1893C145.601 47.1893 118.848 77.1694 117.674 77.1694C116.501 77.4 98.4304 56.6446 98.4304 56.6446C98.4304 56.6446 92.0941 61.9487 90.9207 63.7937C90.9207 63.7937 110.164 95.1574 115.093 97.0023C120.021 98.8473 152.876 68.406 152.876 68.406L145.601 47.1893Z" fill="#E1DDE8"/>
<path d="M142.551 85.7022L142.785 85.9328C142.785 85.9328 142.785 85.7022 142.785 85.241C142.785 85.4716 142.785 85.7022 142.551 85.7022Z" fill="#F5A740"/>
<path d="M167.427 47.6505C166.019 49.0342 165.08 50.6485 164.611 52.4934C162.733 58.9507 156.631 79.9367 154.05 81.3204C150.999 82.9347 112.512 91.2369 108.757 90.7757C105.002 90.5451 101.482 94.2349 100.543 97.0023H114.624H115.563H164.845C164.845 97.0023 177.753 81.3204 179.161 64.9467C180.804 50.1873 173.763 41.1933 167.427 47.6505Z" fill="#F5B1C4"/>
<path d="M162.498 35.4281V46.0364C162.498 46.7283 162.028 47.1895 161.559 47.4201C159.916 48.112 156.161 49.4957 152.876 47.4201C152.407 47.1895 152.172 46.7283 152.172 46.0364V36.5812L162.498 35.4281Z" fill="#F5B1C4"/>
<path d="M162.498 40.9629V35.1975L152.172 36.3506V41.1935C154.049 41.8854 157.57 42.3466 162.498 40.9629Z" fill="#EB95AE"/>
<path d="M145.367 33.5829C144.897 32.8911 144.663 31.9686 144.428 31.2768C143.724 29.2012 143.489 26.8951 143.489 25.0501C143.489 24.5889 143.489 24.1277 143.255 23.6664C143.02 22.0521 143.255 20.2072 143.724 18.3623C145.367 12.5969 150.764 8.4458 156.866 8.4458C165.08 8.4458 171.416 15.1337 170.712 22.9746C171.651 22.5134 172.59 22.5134 173.528 22.9746C175.171 23.8971 175.64 25.9726 174.467 28.0481C173.528 29.8931 171.182 30.8155 169.773 30.1237C169.539 29.8931 169.304 29.8931 169.069 29.6625C167.896 36.3503 162.029 40.9626 155.458 40.5014C152.173 40.2708 149.356 38.6565 147.244 36.5809C147.01 36.3503 147.01 36.3503 146.775 36.1197C146.305 35.4279 145.836 34.5054 145.367 33.5829Z" fill="#F5B1C4"/>
<path d="M158.978 26.434C159.626 26.434 160.152 25.9177 160.152 25.2809C160.152 24.6441 159.626 24.1278 158.978 24.1278C158.33 24.1278 157.805 24.6441 157.805 25.2809C157.805 25.9177 158.33 26.434 158.978 26.434Z" fill="#343434"/>
<path d="M149.356 26.203C150.004 26.203 150.529 25.6868 150.529 25.0499C150.529 24.4131 150.004 23.8969 149.356 23.8969C148.708 23.8969 148.183 24.4131 148.183 25.0499C148.183 25.6868 148.708 26.203 149.356 26.203Z" fill="#343434"/>
<path d="M156.632 22.9745C157.101 22.7439 157.805 22.7439 158.275 22.5132C158.744 22.5132 159.213 22.5132 159.917 22.5132C160.387 22.5132 160.856 22.7439 161.325 22.9745H161.56C161.56 22.9745 161.795 22.9745 161.795 23.2051L162.264 23.4357C162.499 23.6663 162.734 23.6663 162.968 23.8969C162.734 23.6663 162.734 23.4357 162.499 23.2051C162.264 22.9745 162.029 22.7439 161.795 22.5132C161.325 22.052 160.621 21.8214 160.152 21.8214C159.448 21.8214 158.979 21.8214 158.275 22.052C157.571 22.052 157.101 22.5133 156.632 22.9745Z" fill="#472A6A"/>
<path d="M152.172 22.744C151.703 22.2828 151.234 21.8215 150.764 21.5909C150.295 21.3603 149.591 21.1297 148.887 21.3603C148.183 21.3603 147.713 21.5909 147.244 21.8215C147.009 22.0522 146.775 22.2828 146.54 22.2828C146.305 22.5134 146.071 22.744 146.071 22.9746C146.305 22.744 146.54 22.744 146.775 22.5134L147.244 22.2828H147.479H147.713C148.183 22.0521 148.652 22.0522 149.121 22.0522C149.591 22.0522 150.06 22.0521 150.764 22.2828C151.234 22.2828 151.703 22.5134 152.172 22.744Z" fill="#472A6A"/>
<path d="M154.285 23.8969C153.816 24.3581 153.346 25.0499 153.111 25.5112C152.642 26.203 152.407 26.6643 152.173 27.3561C151.938 27.5867 151.938 28.0479 151.703 28.2786C151.703 28.5092 151.703 28.5092 151.703 28.5092V28.7398V28.9704C151.703 28.9704 151.703 28.9704 151.703 29.201C151.703 29.201 151.703 29.201 151.938 29.4316L152.173 29.6623C152.407 29.8929 152.877 30.1235 153.111 30.1235C153.346 30.3541 153.815 30.3541 154.05 30.5847C153.346 30.1235 152.877 29.8929 152.407 29.4316L152.173 29.201V28.9704C152.173 28.9704 152.173 28.7398 152.173 28.5092C152.173 28.2786 152.407 27.8173 152.642 27.5867C152.877 26.8949 153.346 26.203 153.581 25.7418C153.816 25.0499 154.05 24.5887 154.285 23.8969Z" fill="#EB95AE"/>
<path d="M127.296 187.634L128 203.316H120.256L119.552 188.557L127.296 187.634Z" fill="#F5B1C4"/>
<path d="M107.817 212.31L129.877 212.541C130.347 212.541 130.816 212.08 130.816 211.619V210.927C130.816 210.465 130.347 210.004 129.877 210.004L107.817 209.774C107.348 209.774 106.879 210.235 106.879 210.696V211.388C106.879 211.849 107.348 212.31 107.817 212.31Z" fill="#D2EAF2"/>
<path d="M129.642 203.086L130.581 209.543C130.816 210.235 130.112 211.157 129.642 211.157L108.756 210.927C108.286 210.927 107.817 210.696 107.348 210.004C107.113 209.312 106.878 208.39 107.817 207.237C109.694 204.7 115.796 204.239 118.847 201.933H128.469C128.938 201.933 129.408 202.394 129.642 203.086Z" fill="#1080A5"/>
<path d="M120.256 205.392C120.491 205.392 120.491 205.161 120.491 204.931C120.021 204.008 118.848 201.933 116.266 202.394C116.032 202.394 116.032 202.624 116.032 202.855C116.032 203.086 116.266 203.086 116.266 203.086C118.613 202.624 119.787 204.7 120.021 205.392C120.021 205.392 120.021 205.623 120.256 205.392Z" fill="white"/>
<path d="M118.143 206.314C118.378 206.314 118.378 206.084 118.378 205.853C117.908 204.93 116.735 202.855 114.154 203.316C113.919 203.316 113.919 203.547 113.919 203.777C113.919 204.008 114.154 204.008 114.154 204.008C116.5 203.547 117.674 205.622 117.908 206.314C117.674 206.314 117.908 206.314 118.143 206.314Z" fill="white"/>
<path d="M116.031 207.006C116.266 207.006 116.266 206.775 116.266 206.545C115.797 205.622 114.623 203.547 112.042 204.008C111.807 204.008 111.807 204.239 111.807 204.469C111.807 204.7 112.042 204.7 112.042 204.7C114.389 204.239 115.562 206.314 115.797 207.006C115.797 207.006 115.797 207.237 116.031 207.006Z" fill="white"/>
<path opacity="0.3" d="M124.01 210.927C125.653 205.853 128.469 205.161 130.112 205.392L130.581 209.543C130.816 210.235 130.112 211.157 129.643 211.157L124.01 210.927Z" fill="#5EC2D6"/>
<path d="M91.3904 187.634L92.0945 202.624H84.35L83.646 188.557L91.3904 187.634Z" fill="#F5B1C4"/>
<path d="M71.9118 212.31L93.9717 212.541C94.4411 212.541 94.9105 212.08 94.9105 211.619V210.927C94.9105 210.466 94.4411 210.004 93.9717 210.004L71.9118 209.774C71.4425 209.774 70.9731 210.235 70.9731 210.696V211.388C70.9731 211.849 71.4425 212.31 71.9118 212.31Z" fill="#D2EAF2"/>
<path d="M93.5023 203.086L94.4411 209.543C94.6758 210.235 93.9717 211.157 93.5023 211.157L72.6158 210.927C72.1464 210.927 71.6771 210.696 71.2077 210.004C70.973 209.312 70.7383 208.39 71.6771 207.237C73.5545 204.7 79.6562 204.239 82.7071 201.933H92.3289C93.033 201.933 93.5023 202.394 93.5023 203.086Z" fill="#1080A5"/>
<path d="M84.1151 205.392C84.3498 205.392 84.3498 205.161 84.3498 204.931C83.8804 204.008 82.707 201.933 80.1256 202.394C79.8909 202.394 79.8909 202.625 79.8909 202.855C79.8909 203.086 80.1256 203.086 80.1256 203.086C82.4723 202.625 83.6457 204.7 83.8804 205.392C83.8804 205.392 84.1151 205.623 84.1151 205.392Z" fill="white"/>
<path d="M82.0026 206.314C82.2373 206.314 82.2373 206.084 82.2373 205.853C81.7679 204.931 80.5945 202.855 78.013 203.316C77.7783 203.316 77.7783 203.547 77.7783 203.777C77.7783 204.008 78.013 204.008 78.013 204.008C80.3598 203.547 81.5332 205.622 81.7679 206.314H82.0026Z" fill="white"/>
<path d="M80.1259 207.006C80.3606 207.006 80.3606 206.776 80.3606 206.545C79.8912 205.622 78.7178 203.547 76.1363 204.008C75.9016 204.008 75.9016 204.239 75.9016 204.469C75.9016 204.7 76.1363 204.7 76.1363 204.7C78.4831 204.239 79.6565 206.314 79.8912 207.006C79.8912 207.006 79.8912 207.237 80.1259 207.006Z" fill="white"/>
<path opacity="0.3" d="M87.8701 210.927C89.5129 205.853 92.329 205.161 93.9718 205.392L94.4412 209.543C94.6759 210.235 93.9718 211.157 93.5024 211.157L87.8701 210.927Z" fill="#5EC2D6"/>
<path d="M123.072 105.766C123.072 105.766 85.0541 105.996 79.1871 113.376C73.3201 120.986 68.8612 171.722 79.1871 193.861C79.1871 193.861 92.5639 194.322 95.6147 192.477C95.6147 192.477 94.6759 154.887 95.1453 144.97C95.6147 135.054 102.655 133.67 103.594 132.748C104.533 132.056 123.072 105.766 123.072 105.766Z" fill="#36548A"/>
<path d="M127.296 160.422C126.827 157.424 126.592 153.273 125.888 148.66C124.949 139.666 124.011 134.131 125.184 134.362C134.337 135.285 159.213 130.903 173.997 128.135C182.915 126.521 188.078 116.835 184.089 108.764C183.619 107.841 182.915 106.919 182.211 106.227C175.406 99.539 161.09 101.615 161.09 100.692C80.5948 107.38 98.4305 120.756 105.94 167.571C105.94 167.801 105.94 168.032 106.175 168.263C109.46 183.714 112.511 196.398 112.511 196.398C112.511 196.398 124.245 196.859 131.051 195.245C131.286 195.014 129.174 176.795 127.296 160.422Z" fill="#486EB5"/>
<path d="M177.049 45.5751C174.467 43.0384 168.365 42.5771 162.498 42.5771H162.733C157.805 48.1119 152.407 43.269 152.407 43.269C151.468 43.4996 150.764 43.4996 150.764 43.4996C150.764 43.4996 147.009 45.3445 142.785 50.4181C142.785 50.4181 138.326 55.0304 137.857 60.5652C137.622 64.4856 142.785 70.251 142.785 72.5572C142.785 74.8634 140.438 91.0065 140.438 91.0065L141.377 90.7759C141.377 90.7759 141.377 90.7758 141.377 91.0065C141.377 91.2371 139.5 91.4677 137.153 91.6983C136.918 94.6963 136.918 96.5412 136.918 96.5412V102.307C167.427 107.38 185.966 115.682 185.966 115.682C187.14 57.106 177.283 46.0364 177.049 45.5751Z" fill="#F2F2F2"/>
<path d="M167.426 47.6505C166.018 49.0342 165.08 50.6485 164.61 52.4934C162.733 58.9507 156.631 79.9367 154.05 81.3204C151.703 82.7041 126.827 88.0083 114.858 90.0839C114.858 90.0839 115.797 93.5431 116.501 97.0023H165.08C165.08 97.0023 177.987 81.3204 179.395 64.9467C180.803 50.1873 173.763 41.1933 167.426 47.6505Z" fill="#E1DDE8"/>
<path d="M18.6392 52.0322H76.6051L93.0327 91.4676H120.96C121.664 91.4676 122.368 92.1594 122.368 92.8513C122.368 93.5431 121.664 94.235 120.96 94.235H37.8829L18.6392 52.0322Z" fill="#13375A"/>
<path d="M47.5051 74.6326C47.9745 76.2469 49.3825 77.4 50.7906 77.1694C52.1987 76.9387 53.1374 75.3244 52.9027 73.4795C52.4333 71.8652 51.0253 70.7121 49.6172 70.9427C47.9744 71.4039 47.0357 73.0183 47.5051 74.6326Z" fill="#DAEEF7"/>
<path d="M148.183 7.52334C148.183 7.52334 163.672 21.5909 171.182 23.2052C171.182 23.2052 172.12 12.1357 172.12 11.905C171.886 11.4438 162.733 2.91101 162.264 2.91101C161.794 3.14163 144.897 5.4478 144.897 5.4478L140.204 16.5174L148.183 7.52334Z" fill="#FAE0B2"/>
<path d="M139.265 10.5214L143.254 21.8216C143.254 21.8216 151.468 16.0562 154.519 10.5214C157.57 4.98659 146.305 7.06213 146.305 7.06213L139.265 10.5214Z" fill="#FAE0B2"/>
<path opacity="0.3" d="M157.57 32.43C157.57 32.43 155.927 31.9687 154.753 33.1218C154.753 33.1218 153.111 32.1994 151.937 33.3524C151.937 33.3524 152.641 35.6586 155.223 35.1973C157.804 34.7361 157.57 32.43 157.57 32.43Z" fill="#EB95AE"/>
<path d="M158.978 31.5076C158.743 31.7382 158.509 31.9688 158.039 32.1994C157.805 32.43 157.335 32.6606 157.101 32.6606C156.397 32.8913 155.693 33.1219 154.989 33.3525C154.285 33.5831 153.58 33.3525 152.876 33.3525C152.172 33.1219 151.468 32.8913 150.999 32.6606C151.234 32.8913 151.703 33.1219 151.938 33.3525C152.172 33.5831 152.642 33.5831 152.876 33.8137C153.346 34.0443 153.58 34.0443 154.05 34.0443C154.519 34.0443 154.754 34.0443 155.223 34.0443C155.927 33.8137 156.631 33.5831 157.335 33.3525C157.805 32.6606 158.509 32.1994 158.978 31.5076Z" fill="#EB95AE"/>
<path d="M16.058 100H11.8337V212.541H16.058V100Z" fill="#13375A"/>
<path d="M55.4842 100H51.26V212.541H55.4842V100Z" fill="#13375A"/>
<path d="M174.937 100H170.713V212.541H174.937V100Z" fill="#13375A"/>
<path d="M214.363 100H210.139V212.541H214.363V100Z" fill="#13375A"/>
<path d="M224.219 101.384H2.68091C1.74219 101.384 0.803467 100.692 0.803467 99.539V96.0798C0.803467 95.1573 1.50751 94.2349 2.68091 94.2349H224.219C225.158 94.2349 226.096 94.9267 226.096 96.0798V99.539C226.096 100.461 225.158 101.384 224.219 101.384Z" fill="#1080A5"/>
<path opacity="0.5" d="M223.985 101.384H162.733C161.794 101.384 160.856 100.692 160.856 99.539V96.0798C160.856 95.1573 161.56 94.2349 162.733 94.2349H223.985C224.923 94.2349 225.862 94.9267 225.862 96.0798V99.539C225.862 100.461 224.923 101.384 223.985 101.384Z" fill="#3EBBD0"/>
</svg>
