<svg width="131" height="314" viewBox="0 0 131 314" fill="none" xmlns="http://www.w3.org/2000/svg">
<path d="M81.4987 301.11C81.0294 298.573 81.9681 294.422 83.8455 287.503C79.856 287.503 76.5704 285.889 72.5809 285.889C71.4075 292.116 69.7647 302.493 69.7647 302.493L69.53 310.565L97.457 310.796C97.457 310.796 97.2223 311.026 89.0085 305.722C88.5391 305.722 81.7334 303.646 81.4987 301.11Z" fill="#F4A492"/>
<path d="M69.5299 313.102H98.3956C99.3343 312.871 99.8036 312.179 99.3343 311.718C98.6302 310.565 92.9979 308.028 89.243 306.414C82.672 307.106 70.938 304.338 69.7646 302.955C68.1218 307.567 69.0606 312.871 69.5299 313.102Z" fill="#3E907C"/>
<path d="M46.7662 301.11C46.2969 298.573 45.8275 295.575 46.7662 287.273C42.7767 287.273 39.0218 286.581 35.0322 286.581C35.0322 293.038 35.2669 302.724 35.2669 302.724L35.0322 310.796L62.9592 311.026C62.9592 311.026 62.7245 311.257 54.5107 305.953C53.8066 305.722 47.0009 303.646 46.7662 301.11Z" fill="#F4A492"/>
<path d="M34.7975 313.102H63.6632C64.6019 312.871 65.0713 312.179 64.6019 311.718C63.8979 310.565 58.2655 308.028 54.5107 306.414C47.9396 307.106 36.2056 304.338 35.0322 302.955C33.1548 307.567 34.0935 312.871 34.7975 313.102Z" fill="#3E907C"/>
<path d="M66.9485 63.8057L77.5091 52.9668C77.5091 52.9668 88.7737 58.9628 101.916 64.9588C105.436 58.7322 111.303 38.438 111.772 37.5155C112.007 36.593 104.967 24.3704 106.609 24.1398C108.252 23.9092 110.364 30.597 112.007 29.9052C113.65 29.2133 118.109 13.3008 119.047 14.2233C120.925 15.8376 116.701 24.1398 117.639 24.601C118.578 25.2929 121.16 15.3764 123.037 15.8376C124.914 16.2988 119.751 24.601 120.221 25.5235C120.69 26.2153 126.323 18.3744 127.496 20.2193C128.2 21.1418 122.333 27.1378 123.506 27.8296C124.68 28.5215 129.843 24.8316 130.547 25.9847C131.251 27.1378 125.853 28.5215 124.21 31.5195C122.802 34.5175 119.986 35.6706 119.047 41.436C118.109 47.2014 115.762 77.8733 109.426 80.41C104.028 82.4856 66.9485 63.8057 66.9485 63.8057Z" fill="#F4A492"/>
<path d="M73.7545 122.613L65.306 127.225L47.9397 153.285L78.9175 225.006C78.9175 225.006 75.3973 235.845 74.2239 241.149C73.0505 246.915 70.2343 295.114 70.2343 295.114L83.3764 295.344C83.3764 295.344 96.0491 243.686 98.1612 227.082C100.743 206.788 85.0191 158.358 85.0191 158.358C82.203 148.442 75.6319 128.148 75.6319 128.148C75.6319 128.148 73.9892 123.535 73.7545 122.613Z" fill="#36548A"/>
<path d="M43.9501 112.696C43.9501 112.696 44.8888 118.923 41.3686 125.842C39.2564 129.993 35.5016 133.452 32.9201 138.756C27.9918 148.672 25.1756 162.74 27.0531 171.734C27.0531 171.734 37.379 210.708 37.1443 225.237C36.9096 230.541 35.2669 239.996 34.0935 246.454C33.1548 252.219 33.3895 294.191 33.3895 294.191L47.4703 294.422L58.9696 225.468L63.6632 164.124L73.7544 122.613L43.9501 112.696Z" fill="#486EB5"/>
<path d="M76.8052 21.6032C75.3972 15.3765 73.9891 8.91929 67.6527 4.30697C62.4897 0.617114 56.8574 -0.535966 50.9904 1.77019C34.3281 7.76621 43.246 20.6807 22.5941 34.7483C16.2578 39.13 13.6763 40.5137 8.98269 46.2791C2.41165 54.3506 -1.10855 65.1896 2.17697 73.953C8.98269 92.4023 29.8692 97.7064 40.6645 93.7859C61.0817 86.6369 77.9786 61.2691 79.152 54.3506C80.3254 46.9709 77.744 25.7542 76.8052 21.6032Z" fill="#13375A"/>
<path d="M78.4481 70.494C83.1417 72.5696 91.5902 75.7982 91.5902 75.7982L96.5185 60.8082C69.0609 45.3569 71.173 47.8937 50.7558 48.3549C34.3282 48.5855 27.2878 45.5875 13.207 82.9473C13.207 82.9473 24.0023 87.7902 27.7572 89.1739C29.4 84.5616 32.4508 75.337 34.0936 80.6411C36.675 88.7127 38.7872 96.5536 39.9606 105.086C40.6646 109.929 42.542 116.387 41.6033 121.23C41.6033 121.23 52.868 123.536 61.3164 123.766C65.5407 123.536 69.7649 123.305 73.5198 122.383C73.5198 122.383 75.1626 87.5596 76.1013 86.1759C77.04 84.5616 81.2643 79.2574 77.744 71.6471C77.2747 70.2634 77.5094 70.2634 78.4481 70.494Z" fill="#56BAA4"/>
<path d="M53.3373 32.6729C53.3373 32.6729 51.9292 43.0506 51.2252 46.7404C50.5211 50.4303 49.113 62.4223 57.0922 64.2673C65.0713 66.1122 62.4898 51.3528 62.7245 47.4323C62.9592 43.5118 65.0713 30.1361 65.0713 30.1361L53.3373 32.6729Z" fill="#F4A492"/>
<path d="M52.8677 36.1321L53.1024 36.3627C57.5613 38.8995 61.3162 38.4382 64.1323 36.5933C64.6017 33.1341 65.0711 30.5973 65.0711 30.5973L53.1024 32.9034C53.337 32.6728 53.1024 34.0565 52.8677 36.1321Z" fill="#EE745A"/>
<path d="M55.6839 5.69052C55.6839 5.69052 50.9903 7.07421 48.4088 11.4559C45.8274 16.0682 44.4193 29.2133 54.2758 34.7481C64.1324 40.2829 71.1728 31.2889 70.9381 22.9867C70.4688 14.6845 68.122 3.61498 55.6839 5.69052Z" fill="#F4A492"/>
<path d="M73.0505 19.5276C73.2851 21.8338 72.1117 23.4481 70.9383 23.6787C69.5303 23.6787 68.5915 22.0644 68.3569 19.7583C68.1222 17.4521 69.2956 15.8378 70.469 15.6072C71.8771 15.6072 72.8158 17.2215 73.0505 19.5276Z" fill="#F4A492"/>
<path d="M57.0918 5.45996C57.0918 5.45996 51.6942 19.0663 46.5312 20.6806C41.3682 22.0643 41.6029 28.9828 41.6029 28.9828C41.6029 28.9828 40.8989 13.3009 45.5925 9.61105C50.5208 5.45996 57.0918 5.45996 57.0918 5.45996Z" fill="#13375A"/>
<path d="M48.8785 23.2174C49.5826 25.2929 49.1132 27.5991 47.7051 28.0603C46.297 28.5215 44.4196 27.3685 43.7155 25.0623C43.0115 22.9868 43.4809 20.6806 44.8889 20.2194C46.0623 19.7581 47.9398 20.9112 48.8785 23.2174Z" fill="#F4A492"/>
<path d="M57.7962 131.146C58.0309 131.146 58.7349 131.146 59.6736 131.146C60.6124 131.146 61.5511 131.376 61.5511 131.376C61.5511 131.376 62.0204 131.146 62.7245 130.685C62.9592 130.454 63.4285 130.454 63.8979 130.223C64.3672 129.993 64.6019 129.762 64.8366 129.532C65.7753 129.07 66.4794 129.07 66.714 129.532C66.9487 129.993 62.0204 132.76 62.0204 132.76C57.5615 132.76 52.8679 135.066 42.3073 128.378C36.4403 125.842 7.57466 111.774 7.1053 108.776C6.87062 107.162 11.0949 93.786 14.8497 83.6389C17.6659 84.792 23.5329 87.5594 26.8184 88.7125C23.7676 94.9391 20.2474 103.472 20.4821 104.625C20.7167 104.856 20.9514 105.317 40.4299 118.001C40.8992 118.231 41.3686 118.693 41.8379 118.923C43.246 119.846 44.6541 120.768 46.2969 121.691L51.9292 121.229C51.9292 121.229 60.847 121.921 61.0817 122.844C61.3164 123.305 60.3777 123.535 59.4389 123.535C59.2043 123.535 59.2043 123.535 58.9696 123.535C58.0309 123.766 57.0921 123.766 56.6228 123.766C56.3881 123.997 55.6841 123.997 55.2147 124.458C60.6124 126.764 60.3777 125.842 62.2551 125.842C62.7245 125.842 63.1938 126.072 63.6632 125.842C64.3672 125.842 65.0713 125.38 65.5406 125.38C66.4794 125.38 67.1834 125.842 67.1834 125.842C67.4181 126.072 66.9487 126.303 66.2447 126.533C62.0204 128.378 58.5002 127.687 57.3268 127.917C56.6228 128.148 58.0309 128.378 60.143 128.148C60.6123 128.148 61.3164 128.378 62.0204 128.148C62.4898 127.917 62.9591 127.687 63.4285 127.687C63.8979 127.456 64.3672 127.456 64.6019 127.456C65.0713 127.456 65.7753 126.995 66.2447 126.995C67.6528 126.764 68.3568 126.995 68.5915 127.225C68.8262 127.456 62.4898 129.993 62.4898 129.993C62.4898 129.993 58.0309 130.685 57.0921 130.685C57.3268 130.685 56.6228 130.915 57.7962 131.146Z" fill="#F4A492"/>
<path d="M62.255 17.4523C62.0203 18.1441 61.7856 18.836 61.7856 19.2972C61.7856 19.7584 61.7856 19.989 61.7856 20.2197C61.7856 20.6809 62.0203 20.9115 62.255 21.1421C62.4897 21.3727 62.7244 21.6034 62.7244 21.834C62.7244 22.0646 62.7244 22.2952 62.4897 22.5258C62.0203 22.987 61.551 23.2177 60.8469 23.2177C61.551 23.4483 62.255 23.2177 62.959 22.7564C63.1937 22.5258 63.4284 22.0646 63.4284 21.6034C63.4284 21.1421 63.1937 20.9115 62.959 20.6809C62.7244 20.4503 62.7244 20.2197 62.7244 19.989C62.7244 19.7584 62.4897 19.2972 62.4897 19.0666C62.255 18.6053 62.255 18.1441 62.255 17.4523Z" fill="#EE745A"/>
<path d="M58.2656 18.1437C58.5002 18.8356 57.7962 19.5274 57.0922 19.2968C56.6228 19.2968 56.3881 18.8356 56.1535 18.3743C55.9188 17.6825 56.6228 16.9906 57.3268 17.2213C57.7962 17.4519 58.2656 17.6825 58.2656 18.1437Z" fill="#343434"/>
<path d="M67.1836 18.8357C67.4182 19.5276 66.7142 20.2194 66.0101 19.9888C65.5408 19.9888 65.3061 19.5276 65.0714 19.0664C64.8367 18.3745 65.5408 17.6827 66.2448 17.9133C66.7142 18.1439 67.1836 18.3745 67.1836 18.8357Z" fill="#343434"/>
<path opacity="0.3" d="M58.031 28.0603C58.031 28.0603 59.4391 27.599 60.8472 28.5215C60.8472 28.5215 62.2552 27.599 63.6633 28.5215C63.6633 28.5215 63.194 30.8276 60.6125 30.597C58.031 30.3664 58.031 28.0603 58.031 28.0603Z" fill="#EB95AE"/>
<path d="M59.439 16.0684C58.9697 15.8377 58.5003 15.8378 57.7963 15.8378C57.0922 15.8378 56.8575 15.8378 56.3882 15.8378C55.9188 15.8378 55.4495 16.0684 54.9801 16.299C54.7454 16.5296 53.8067 16.9908 53.572 16.9908C53.8067 16.5296 54.2761 16.0684 54.5107 15.6071C54.9801 15.1459 55.4495 15.1459 56.1535 14.9153C56.6229 14.9153 57.3269 14.9153 57.7963 15.1459C58.5003 15.3765 59.2043 15.6071 59.439 16.0684Z" fill="#13375A"/>
<path d="M68.1221 16.7602C67.6528 16.5296 67.1834 16.299 66.7141 16.0684C66.2447 15.8378 65.7753 15.6072 65.306 15.6072C64.8366 15.6072 64.3673 15.3765 63.8979 15.6072C63.4285 15.6072 62.4898 15.8378 62.2551 15.8378C62.7245 15.3765 63.1938 15.1459 63.6632 14.9153C64.1326 14.6847 64.8366 14.6847 65.306 14.6847C65.7753 14.9153 66.4794 15.1459 66.9487 15.3765C67.6528 15.8378 68.1221 16.299 68.1221 16.7602Z" fill="#13375A"/>
</svg>
