<svg width="68" height="58" viewBox="0 0 68 58" fill="none" xmlns="http://www.w3.org/2000/svg">
<path d="M54.9077 16.4176L54.9094 16.4182C54.7195 15.9064 54.951 15.3304 55.4352 15.1096C55.9195 14.8887 56.4857 15.1011 56.7215 15.5919L57.4995 17.4288C57.6977 17.943 57.4667 18.5275 56.9775 18.75C56.4883 18.9726 55.9169 18.7532 55.6857 18.2539L54.9077 16.4176ZM65.0922 35.3601L65.09 35.363C68.1895 40.8143 67.6587 47.6943 63.7628 52.5659C59.8669 57.4375 53.4422 59.2551 47.6983 57.1105C41.9544 54.966 38.1243 49.3197 38.1214 42.9924V42.9695V26.5371H28.9681V42.9695V42.993C28.9667 44.0907 28.8502 45.185 28.6204 46.2566C28.5432 46.6147 28.2875 46.9029 27.9497 47.0127C27.6118 47.1225 27.2431 47.0372 26.9824 46.7888C26.7218 46.5405 26.6088 46.1669 26.6859 45.8088C26.886 44.8766 26.9868 43.9245 26.9866 42.9695C26.9858 36.9744 23.0178 31.7621 17.392 30.3664C11.7662 28.9706 5.95085 31.7556 3.33057 37.1004C0.710286 42.4453 1.96892 48.955 6.37395 52.841C10.779 56.7269 17.1807 56.9749 21.8533 53.4405C22.1389 53.2199 22.5168 53.1751 22.843 53.3231C23.1693 53.4712 23.3939 53.7893 23.4311 54.1565C23.4684 54.5236 23.3127 54.8832 23.0232 55.0984C17.476 59.2931 9.8492 58.8748 4.76022 54.0967C-0.328752 49.3186 -1.48119 41.494 2.00063 35.3601L2.00403 35.3501L12.0985 11.5067C12.7053 10.0709 13.6595 8.82182 14.8688 7.88037L16.6809 3.60735C17.7319 1.13031 20.2449 -0.319417 22.8301 0.0599342C25.4153 0.439285 27.4412 2.55504 27.7874 5.2371C27.842 5.60508 27.7003 5.9749 27.4169 6.20379C27.1336 6.43269 26.753 6.48485 26.4219 6.34015C26.0909 6.19545 25.8613 5.87652 25.8218 5.50647C25.5927 3.73785 24.2563 2.34307 22.5514 2.09313C20.8465 1.84319 19.1893 2.79912 18.4958 4.4325L17.6515 6.42493C20.316 5.60159 23.1992 6.13115 25.4284 7.85332C27.6576 9.57548 28.9707 12.2878 28.9703 15.1693V17.4429H38.1186V15.1717C38.1177 13.6061 38.5079 12.0669 39.2511 10.7038V6.03407C39.2533 3.17979 41.1843 0.717207 43.8797 0.13128C46.5752 -0.454646 49.2983 0.996267 50.4069 3.60911L52.219 7.88155C53.4282 8.82321 54.3824 10.0725 54.9892 11.5084C55.1585 11.8484 55.1314 12.2578 54.9188 12.5706C54.7063 12.8835 54.3436 13.0479 53.9776 12.9974C53.6117 12.9468 53.3032 12.6897 53.1771 12.33C52.6775 11.1511 51.8762 10.1364 50.8599 9.39568L50.8367 9.37866C48.7536 7.86435 46.0301 7.67819 43.7732 8.89585C41.5162 10.1135 40.1013 12.5323 40.1034 15.1693V35.4094C42.1445 31.7726 45.5668 29.1925 49.5339 28.2995C53.501 27.4065 57.6477 28.2828 60.9606 30.7144L57.2005 21.8344C56.9948 21.318 57.2249 20.7258 57.7186 20.5013C58.2123 20.2767 58.7886 20.5021 59.016 21.0087L65.0888 35.3501L65.0922 35.3601ZM45.081 2.05273C42.96 2.05369 41.24 3.83364 41.236 6.03173V8.21078C43.5027 6.21471 46.5899 5.54228 49.4402 6.42376L48.5959 4.43191C47.9839 2.98602 46.6045 2.05232 45.081 2.05273ZM14.4809 27.9555C19.6314 27.9595 24.3929 30.796 26.9883 35.4065V15.1693C26.9889 11.8223 24.7252 8.93318 21.5642 8.2467C18.4032 7.56021 15.2108 9.26435 13.9146 12.33L6.13165 30.7138C8.57071 28.9179 11.4889 27.9539 14.4809 27.9555ZM28.9703 24.483H38.1214V19.4946H28.9703V24.483ZM52.6108 55.9277C59.5132 55.9192 65.107 50.1229 65.116 42.9695C65.1169 37.7272 62.0705 33.0006 57.3975 30.9938C52.7244 28.9871 47.345 30.0955 43.768 33.8021C40.1909 37.5087 39.1207 43.0835 41.0564 47.9268C42.9921 52.7701 47.5525 55.9279 52.6108 55.9277ZM52.6108 31.4768C57.2638 31.4772 61.4218 34.4878 63.0228 39.0155C64.6238 43.5433 63.3273 48.6254 59.7762 51.7415C56.2252 54.8575 51.1748 55.345 47.1296 52.962C43.0844 50.5791 40.9047 45.8325 41.6714 41.0762C41.7612 40.5167 42.2717 40.1384 42.8116 40.2314C43.3516 40.3245 43.7165 40.8535 43.6268 41.4131C42.8593 46.1721 45.6954 50.7598 50.1878 52.0264C54.6802 53.293 59.368 50.8265 61.0326 46.3204C62.6971 41.8143 60.797 36.7341 56.637 34.5677C52.4769 32.4014 47.4097 33.8535 44.9145 37.9271C44.6212 38.406 44.0087 38.5477 43.5467 38.2437C43.0846 37.9397 42.9478 37.305 43.2412 36.8261C45.2683 33.4911 48.8076 31.4704 52.6108 31.4768ZM26.7879 48.8095C27.0182 48.9406 27.1887 49.1613 27.262 49.4228C27.3353 49.6843 27.3053 49.9653 27.1786 50.2039C26.8226 50.874 26.4176 51.515 25.9673 52.1212C25.6308 52.5616 25.0153 52.6402 24.5858 52.2975C24.1563 51.9547 24.0722 51.318 24.397 50.8682C24.7853 50.3451 25.1346 49.792 25.4418 49.2138C25.5684 48.975 25.7814 48.7981 26.0339 48.7223C26.2864 48.6464 26.5577 48.6778 26.7879 48.8095ZM14.4809 31.4768C20.6028 31.4836 25.5641 36.625 25.5709 42.9695C25.5712 47.6182 22.8693 51.8092 18.7253 53.5884C14.5812 55.3675 9.81109 54.3843 6.63925 51.0973C3.4674 47.8103 2.51848 42.8667 4.23497 38.5719C5.95147 34.2771 9.99533 31.4768 14.4809 31.4768ZM14.4809 52.4088V52.4064C19.5082 52.4012 23.5827 48.1796 23.5889 42.9695C23.5889 37.7563 19.5111 33.5302 14.4809 33.5302C9.45065 33.5302 5.37283 37.7563 5.37283 42.9695C5.37283 48.1827 9.45065 52.4088 14.4809 52.4088Z" fill="white"/>
</svg>
